<svg width="1177" height="1110" viewBox="0 0 1177 1110" fill="none" xmlns="http://www.w3.org/2000/svg">
<path d="M692.998 1084.11C663.884 1103.89 643.609 1112.22 632.172 1109.1C620.735 1104.93 606.698 1088.79 590.062 1060.68L532.356 951.369L362.356 1093.48C352.998 1101.81 342.601 1105.97 331.163 1105.97C319.726 1104.93 303.609 1097.64 282.814 1084.11L136.209 977.917C108.136 958.136 93.5796 941.479 92.5399 927.944C91.5001 914.41 102.417 895.15 125.292 870.163L275.017 712.437L66.0256 678.081C32.7535 671.834 12.4784 662.985 5.20007 651.533C-2.07821 640.081 -0.518773 618.217 9.87878 585.943L66.0256 412.6C70.1846 399.066 74.3439 388.655 78.503 381.367C83.7017 373.039 88.3809 366.792 92.5399 362.628L293.732 192.408C297.891 188.244 303.61 185.641 310.888 184.6C318.167 183.559 327.004 184.079 337.402 186.161C337.402 185.12 337.921 184.6 338.961 184.6L340.521 183.038L543.273 12.8183C548.472 8.65393 555.75 5.5306 565.108 3.44837C575.506 1.36619 587.463 0.325195 600.98 0.325195H783.457C817.768 0.325195 839.083 5.53086 847.401 15.9418C856.759 26.3528 858.319 48.2156 852.081 81.5308L824.007 286.107L1012.72 198.654C1041.84 184.079 1062.63 179.394 1075.11 184.6C1087.58 189.805 1099.02 209.066 1109.42 242.381L1167.13 415.724C1174.4 436.546 1177.52 452.162 1176.48 462.573C1175.44 472.984 1171.29 481.833 1164.01 489.121L990.888 634.354L1053.27 699.944C1074.07 722.848 1084.47 740.547 1084.47 753.04C1084.47 765.533 1075.63 780.108 1057.95 796.766L856.759 965.424C854.68 966.465 852.08 968.027 848.961 970.109C846.881 972.191 844.802 974.273 842.722 976.355V977.917H841.163L692.998 1084.11ZM574.466 882.657L688.319 662.464L803.732 882.657C816.209 904.52 827.126 917.013 836.484 920.136C845.842 922.218 861.958 915.972 884.832 901.396L1031.44 795.205C1053.27 779.588 1064.71 766.574 1065.75 756.163C1066.79 745.752 1058.47 730.656 1040.8 710.875L869.237 531.286L1107.86 492.245C1133.85 488.08 1149.45 481.834 1154.65 473.505C1160.89 464.135 1159.85 446.436 1151.53 420.409L1093.82 247.066C1085.51 221.038 1076.15 205.942 1065.75 201.778C1056.39 197.614 1040.28 201.257 1017.4 212.709L803.732 312.655L834.925 79.9692C839.084 53.9417 837.523 36.7637 830.245 28.4349C824.007 20.1061 807.891 15.9418 781.897 15.9418H599.42C573.426 15.9418 556.27 20.1061 547.952 28.4349C540.674 36.7637 539.114 53.9417 543.273 79.9692L579.145 312.655L357.677 212.709C334.802 201.257 318.167 197.614 307.769 201.778C297.372 205.942 288.533 221.038 281.255 247.066L225.108 420.409C216.79 446.436 215.23 464.135 220.429 473.505C226.668 481.834 242.784 488.08 268.778 492.245L505.842 531.286L335.842 710.875C318.166 730.656 309.848 745.752 310.888 756.163C311.928 766.574 323.365 779.588 345.2 795.205L491.805 901.396C514.68 915.972 530.796 922.218 540.154 920.136C550.552 917.013 561.989 904.52 574.466 882.657ZM861.438 721.807L691.438 479.751L521.439 721.807L508.961 712.437L674.282 475.066L406.026 387.614L412.264 371.997L683.64 461.011V156.49H699.237V461.011L970.613 371.997L976.851 387.614L708.594 475.066L873.915 712.437L861.438 721.807Z" fill="#CC0000"/>
</svg>
