<?xml version="1.0" encoding="UTF-8"?>
<svg id="Layer_2" data-name="Layer 2" xmlns="http://www.w3.org/2000/svg" viewBox="0 0 442.99 197.98">
  <defs>
    <style>
      .cls-1 {
        fill: #231f20;
      }

      .cls-2 {
        fill: #cb2026;
      }
    </style>
  </defs>
  <g id="Layer_1-2" data-name="Layer 1">
    <g>
      <path class="cls-2" d="M23.88,63.8c0,4.49,1.48,6.79,3.34,8.76,1.7,1.92,4,3.01,4,5.2,0,1.97-1.7,3.01-4.27,3.01-3.23,0-7.94-.27-11.5-.27-3.78,0-8.49.27-11.12.27-3.01,0-4.33-1.2-4.33-3.01,0-3.67,5.2-3.51,6.08-9.69.49-3.12.66-15.88.66-26.51,0-7.45-.05-17.85-.22-20.21C5.81,12.71.44,13.2.44,8.98c0-1.81.88-3.23,3.94-3.23,5.53,0,7.39.27,13.8.27,6.02,0,11.99-.38,18.89-.38,15.77,0,25.69,6.35,25.69,19.99,0,6.74-3.4,14.18-15.99,18.57-.33.16-.71.38-.71.77,0,.27.22.66.77.93,7.56,4.05,12.16,10.62,16.7,18.84,2.19,4.05,3.94,6.9,6.24,8.71,2.14,1.86,3.34,2.14,3.34,4.27,0,2.41-1.64,3.07-3.4,3.07-2.3,0-7.89-.27-10.52-.27-4.6,0-8.82.27-10.46.27-2.68,0-4.44-1.42-4.44-3.23,0-1.92,1.31-2.63,1.31-5.26,0-6.19-6.35-16.98-11.34-20.54-2.19-1.37-5.7-1.7-6.52-1.7-2.79,0-3.89,1.97-3.89,5.2v8.54ZM30.34,15.39c-5.81,0-6.41.71-6.41,7.39v10.73c0,4.16.93,6.41,7.06,6.41,7.67,0,12.54-4.38,12.54-12.05s-5.53-12.49-13.2-12.49Z"/>
      <path class="cls-2" d="M93.98,56.3c-1.04.05-1.42.27-1.42,1.04,0,4.05,3.94,11.56,14.02,11.56,7.78,0,12.43-3.78,15.23-7.39.71-.71,1.53-1.2,2.19-1.2.99,0,1.64.99,1.64,3.12,0,7.17-8.43,18.29-23.99,18.29-16.87,0-27.22-11.45-27.22-27.66s11.45-30.23,28.7-30.23c15.01,0,21.58,11.06,21.58,19.83,0,3.72-1.86,5.86-4.65,7.34-6.3,3.56-19.33,4.93-26.07,5.31ZM101.54,32.2c-6.52,0-11.01,6.63-11.01,13.42,0,2.03.66,3.23,2.14,3.23,3.45,0,12.32-1.48,15.72-4.49.93-.88,1.42-1.86,1.42-3.23,0-5.09-3.51-8.93-8.27-8.93Z"/>
      <path class="cls-2" d="M169.99,75.85c-.6-.82-.93-1.7-1.59-1.7-.49,0-1.2.88-2.46,2.03-2.41,2.25-6.74,5.42-13.86,5.42-11.01,0-21.09-8.76-21.09-27.16,0-19.94,10.35-30.61,22.89-30.61,9.69,0,13.09,5.91,13.97,5.91.55,0,.88-.77.88-4.44v-7.89c0-2.96-1.97-4.66-3.61-5.42-1.15-.66-2.35-1.37-2.35-2.85,0-2.63,3.4-3.12,7.67-4.87,5.31-2.14,8.65-4.27,11.06-4.27,2.14,0,3.51,1.1,3.51,3.61,0,5.81-.49,6.46-.49,20.76v40.69c0,2.14.93,4.55,3.34,4.55,1.15,0,1.75-.38,2.52-.38.6,0,1.15.82,1.15,2.08,0,5.75-5.09,10.13-11.39,10.13-4.93,0-7.83-1.53-10.13-5.59ZM168.95,52.14c0-14.73-5.37-19.28-10.35-19.28-5.75,0-10.57,5.15-10.57,18.29s4.33,19,11.12,19c5.53,0,9.8-4.27,9.8-18.02Z"/>
      <path class="cls-1" d="M11.23,122.4c1.97,0,3.61.11,4.49.55,1.1.55,1.86,1.53,3.61,4.27l35.16,53.67c1.21,1.97,1.97,2.41,2.19,2.41.33,0,.55.11.55-23.33,0-16.21-.11-28.92-.33-29.79-.66-3.83-6.02-3.94-6.02-6.35,0-1.31.99-1.64,2.74-1.64,2.41,0,5.26.22,6.57.22,1.53,0,3.4-.22,5.7-.22,1.75,0,2.41.77,2.41,1.75,0,2.52-5.04,2.41-5.26,6.02-.22,1.97-.33,15.88-.33,31,0,23.66.44,30.23.44,32.31,0,2.41-2.96,4.38-4.93,4.38-1.21,0-2.08-.99-2.85-2.08l-39.87-60.35c-.44-.66-.88-1.31-1.1-1.31-.77,0-.88.55-.88,25.74,0,15.77.11,29.03.33,29.79.88,3.83,6.24,3.51,6.24,5.91,0,1.31-1.2,1.75-2.85,1.75-2.41,0-5.37-.22-6.68-.22-1.64,0-3.51.22-5.7.22-1.75,0-2.63-.66-2.63-1.64,0-2.41,5.15-2.3,5.48-5.91.22-2.41.33-15.33.33-29.68,0-15.23,0-28.26-.11-29.14-.44-4.93-5.48-4.05-5.48-6.79,0-1.31,1.31-1.75,2.85-1.75,1.31,0,4.16.22,5.92.22Z"/>
      <path class="cls-1" d="M126.45,186.59c0,2.85.99,5.15,3.29,5.15,1.75,0,2.19-.66,3.07-.66.11,0,.77.11.77,1.42,0,2.3-2.85,5.04-6.46,5.04-5.81,0-7.23-4.16-8-6.46-.11-.33-.33-.88-.77-.88-.33,0-.99.77-1.42,1.2-1.53,1.53-6.24,6.57-16.54,6.57-13.14,0-18.62-10.41-18.62-22.02,0-9.09.88-19.06.88-21.91,0-3.07-.66-3.94-1.64-4.93-1.2-1.1-4.27-1.53-4.27-3.51,0-1.42,1.1-1.97,3.18-2.3,5.7-.77,7.67-1.64,9.75-1.64,1.64,0,2.3,1.1,2.3,2.3,0,2.41-3.07,10.3-3.07,30.01,0,9.2,2.74,18.95,13.91,18.95,10.3,0,16.87-6.9,16.87-19.61v-19.06c0-2.74-.77-4.71-3.61-6.02-1.2-.55-2.74-1.31-2.74-2.63s.99-1.97,2.52-2.19c4.16-.44,7.89-1.75,9.75-1.75,1.1,0,2.19.66,2.19,2.19,0,2.52-1.31,5.04-1.31,14.68v28.04Z"/>
      <path class="cls-1" d="M153.94,178.04c0,6.02.55,14.46,8.98,14.46,4.6,0,8.32-3.18,10.3-5.59,1.1-1.31,1.64-2.08,2.41-2.08.33,0,1.1.22,1.1,1.42,0,.77-.33,2.08-1.21,3.4-1.97,3.07-6.02,8.32-14.9,8.32-7.78,0-13.58-5.04-13.58-19.17,0-5.15.77-24.97.77-28.37,0-1.75-.33-2.3-1.53-2.41-5.48-.55-8.22-.33-8.22-2.41,0-1.1.77-1.64,2.19-2.08,2.41-.66,5.15-1.53,7.12-4.16,3.61-4.82,3.4-12.16,6.02-12.16,1.1,0,1.53,1.2,1.53,2.85,0,1.75-.55,12.38-.55,12.71,0,.22,0,.33.44.33.55,0,16.54-.66,17.53-.66,1.31,0,2.41.44,2.41,2.08,0,1.53-.88,3.18-1.42,3.61-.22.22-.77.44-1.2.44-.99,0-15.99-.66-16.98-.66-.33,0-.66.11-.66.66-.11,1.42-.55,24.1-.55,29.46Z"/>
      <path class="cls-1" d="M195.89,162.27v25.85c0,2.63,1.53,3.83,4.27,4.82,1.53.55,4.27.88,4.27,2.41,0,.99-.55,1.75-2.96,1.75s-5.91-.22-8.87-.22c-2.63,0-2.08.22-6.46.22-2.41,0-2.96-.77-2.96-1.64,0-1.42,1.64-1.75,2.74-2.3,2.63-1.31,3.18-2.63,3.18-5.37v-35.6c0-1.97-1.31-2.63-3.83-3.29-1.1-.33-2.08-.99-2.08-1.86,0-1.64,1.64-1.97,3.72-2.74,2.74-.99,5.04-2.19,6.57-2.19.88,0,1.53.44,1.75,1.75.66,3.51.77,7.56,1.75,7.56.88,0,7.67-10.19,18.07-10.19,4.05,0,8.54,2.52,8.54,8.21,0,3.94-2.19,7.12-5.48,7.12-2.19,0-1.53-1.42-1.97-3.94-.55-3.18-2.41-5.37-5.7-5.37-7.01,0-14.57,8.87-14.57,15.01Z"/>
      <path class="cls-1" d="M243.21,158.44v29.68c0,2.63,1.1,3.94,2.74,4.82,1.53.77,3.18,1.1,3.18,2.41,0,.99-.55,1.75-2.96,1.75s-3.29-.22-6.24-.22c-2.63,0-2.08.22-6.46.22-2.41,0-2.96-.77-2.96-1.64,0-1.42,1.64-1.75,2.74-2.3,2.63-1.31,3.18-2.63,3.18-5.37v-35.27c0-1.97-1.31-2.96-3.83-3.61-1.1-.33-2.19-.99-2.19-1.97,0-1.64,1.42-1.86,3.51-2.63,4.71-1.86,5.92-3.07,7.45-3.07,1.64,0,2.3.88,2.3,2.85,0,1.86-.44,4.93-.44,14.35Z"/>
      <path class="cls-2" d="M240.91,120.32c2.74,0,4.93,1.86,4.93,4.71,0,4.05-4.05,7.23-8.21,7.23-2.85,0-4.27-1.75-4.27-4.05,0-3.94,3.72-7.89,7.56-7.89Z"/>
      <path class="cls-1" d="M270.04,178.04c0,6.02.55,14.46,8.98,14.46,4.6,0,8.32-3.18,10.3-5.59,1.1-1.31,1.64-2.08,2.41-2.08.33,0,1.1.22,1.1,1.42,0,.77-.33,2.08-1.21,3.4-1.97,3.07-6.02,8.32-14.9,8.32-7.78,0-13.58-5.04-13.58-19.17,0-5.15.77-24.97.77-28.37,0-1.75-.33-2.3-1.53-2.41-5.48-.55-8.22-.33-8.22-2.41,0-1.1.77-1.64,2.19-2.08,2.41-.66,5.15-1.53,7.12-4.16,3.61-4.82,3.4-12.16,6.02-12.16,1.1,0,1.53,1.2,1.53,2.85,0,1.75-.55,12.38-.55,12.71,0,.22,0,.33.44.33.55,0,16.54-.66,17.53-.66,1.31,0,2.41.44,2.41,2.08,0,1.53-.88,3.18-1.42,3.61-.22.22-.77.44-1.21.44-.99,0-15.99-.66-16.98-.66-.33,0-.66.11-.66.66-.11,1.42-.55,24.1-.55,29.46Z"/>
      <path class="cls-1" d="M312.1,158.44v29.68c0,2.63,1.1,3.94,2.74,4.82,1.53.77,3.18,1.1,3.18,2.41,0,.99-.55,1.75-2.96,1.75s-3.29-.22-6.24-.22c-2.63,0-2.08.22-6.46.22-2.41,0-2.96-.77-2.96-1.64,0-1.42,1.64-1.75,2.74-2.3,2.63-1.31,3.18-2.63,3.18-5.37v-35.27c0-1.97-1.31-2.96-3.83-3.61-1.1-.33-2.19-.99-2.19-1.97,0-1.64,1.42-1.86,3.51-2.63,4.71-1.86,5.91-3.07,7.45-3.07,1.64,0,2.3.88,2.3,2.85,0,1.86-.44,4.93-.44,14.35Z"/>
      <path class="cls-2" d="M309.8,120.32c2.74,0,4.93,1.86,4.93,4.71,0,4.05-4.05,7.23-8.21,7.23-2.85,0-4.27-1.75-4.27-4.05,0-3.94,3.72-7.89,7.56-7.89Z"/>
      <path class="cls-1" d="M351.86,141.24c14.46,0,27.27,10.95,27.27,29.68s-11.94,27.05-26.4,27.05c-16.54,0-27.05-11.72-27.05-28.04s11.06-28.7,26.18-28.7ZM333.24,168.29c0,4.05.66,9.64,3.29,14.57,4.38,8.21,11.61,10.73,17.42,10.73,9.42,0,17.85-6.68,17.85-21.14,0-6.24-1.53-12.27-4.05-16.65-4.05-7.01-10.3-10.41-16.54-10.41-9.97,0-17.96,8.54-17.96,22.89Z"/>
      <path class="cls-1" d="M436.86,189c0,1.42.88,2.96,2.52,3.83,1.97.88,3.61,1.1,3.61,2.52,0,1.1-.66,1.75-3.07,1.75-1.64,0-2.08-.22-5.04-.22-2.52,0-4.05.22-5.26.22-1.64,0-2.08-.77-2.08-1.64s.88-2.41,1.1-3.07c.99-3.29,2.63-13.91,2.63-26.95s-5.7-18.73-14.35-18.73-17.42,9.2-17.42,13.91v27.49c0,2.63,1.1,3.94,2.74,4.82,1.53.77,3.18,1.1,3.18,2.41,0,.99-.55,1.75-2.96,1.75s-3.72-.22-6.24-.22c-2.3,0-3.83.22-6.46.22-2.41,0-2.96-.77-2.96-1.64,0-1.42,1.64-1.75,2.74-2.3,2.63-1.31,3.18-2.63,3.18-5.37v-35.6c0-1.97-1.31-2.63-3.83-3.29-1.1-.33-2.08-.99-2.08-1.86,0-1.64,1.64-1.97,3.72-2.74,2.74-.99,5.04-2.19,6.57-2.19.88,0,1.53.44,1.75,1.75.66,3.51.77,7.56,1.75,7.56.88,0,8.11-10.19,19.5-10.19,10.52,0,18.4,7.01,18.4,23.22,0,12.27-1.64,21.36-1.64,24.54Z"/>
    </g>
  </g>
</svg>