<?xml version="1.0" encoding="UTF-8"?>
<svg id="Layer_2" data-name="Layer 2" xmlns="http://www.w3.org/2000/svg" viewBox="0 0 235.68 262.01">
  <defs>
    <style>
      .cls-1, .cls-2 {
        fill: #cb2026;
      }

      .cls-2 {
        opacity: .6;
      }
    </style>
  </defs>
  <g id="Layer_1-2" data-name="Layer 1">
    <g>
      <path class="cls-1" d="M156.76,175.36c-3.31,2.25-5.62,3.2-6.92,2.84-1.3-.47-2.9-2.31-4.79-5.51l-6.57-12.44-19.35,16.17c-1.06.95-2.25,1.42-3.55,1.42-1.3-.12-3.14-.95-5.5-2.49l-16.68-12.08c-3.19-2.25-4.85-4.15-4.97-5.69-.12-1.54,1.12-3.73,3.73-6.58l17.04-17.95-23.78-3.91c-3.79-.71-6.09-1.72-6.92-3.02-.83-1.3-.65-3.79.53-7.46l6.39-19.73c.47-1.54.95-2.72,1.42-3.55.59-.95,1.12-1.66,1.6-2.13l22.9-19.37c.47-.47,1.12-.77,1.95-.89.83-.12,1.83-.06,3.02.18,0-.12.06-.18.18-.18l.18-.18,23.07-19.37c.59-.47,1.42-.83,2.48-1.07,1.18-.24,2.54-.36,4.08-.36h20.77c3.9,0,6.33.59,7.28,1.78,1.06,1.18,1.24,3.67.53,7.46l-3.19,23.28,21.48-9.95c3.31-1.66,5.68-2.19,7.1-1.6s2.72,2.78,3.9,6.58l6.57,19.73c.83,2.37,1.18,4.15,1.06,5.33-.12,1.18-.59,2.19-1.42,3.02l-19.7,16.53,7.1,7.46c2.37,2.61,3.55,4.62,3.55,6.04s-1.01,3.08-3.02,4.98l-22.9,19.19c-.24.12-.53.3-.89.53-.24.24-.47.47-.71.71v.18h-.18l-16.86,12.08ZM143.27,152.43l12.96-25.06,13.13,25.06c1.42,2.49,2.66,3.91,3.73,4.27,1.06.24,2.9-.47,5.5-2.13l16.68-12.08c2.48-1.78,3.79-3.26,3.9-4.44.12-1.18-.83-2.9-2.84-5.15l-19.52-20.44,27.15-4.44c2.96-.47,4.73-1.18,5.32-2.13.71-1.07.59-3.08-.35-6.04l-6.57-19.73c-.95-2.96-2.01-4.68-3.19-5.15-1.06-.47-2.9-.06-5.5,1.24l-24.32,11.37,3.55-26.48c.47-2.96.3-4.92-.53-5.86-.71-.95-2.54-1.42-5.5-1.42h-20.77c-2.96,0-4.91.47-5.86,1.42-.83.95-1.01,2.9-.53,5.86l4.08,26.48-25.2-11.37c-2.6-1.3-4.5-1.72-5.68-1.24-1.18.47-2.19,2.19-3.02,5.15l-6.39,19.73c-.95,2.96-1.12,4.98-.53,6.04.71.95,2.54,1.66,5.5,2.13l26.98,4.44-19.35,20.44c-2.01,2.25-2.96,3.97-2.84,5.15.12,1.18,1.42,2.67,3.9,4.44l16.68,12.08c2.6,1.66,4.44,2.37,5.5,2.13,1.18-.36,2.48-1.78,3.9-4.27ZM175.93,134.13l-19.35-27.55-19.35,27.55-1.42-1.07,18.81-27.01-30.53-9.95.71-1.78,30.88,10.13v-34.65h1.77v34.65l30.88-10.13.71,1.78-30.53,9.95,18.81,27.01-1.42,1.07Z"/>
      <path class="cls-2" d="M92.65,58.19h-.06v-.06c-.08-.08-.16-.16-.25-.25-.12-.08-.23-.14-.31-.19l-7.96-6.68c-.7-.66-1.05-1.24-1.05-1.73,0-.49.41-1.2,1.23-2.1l2.47-2.6-6.85-5.75c-.29-.29-.45-.64-.49-1.05-.04-.41.08-1.03.37-1.85l2.28-6.86c.41-1.32.86-2.08,1.36-2.29s1.32-.02,2.47.56l7.47,3.46-1.11-8.1c-.25-1.32-.19-2.18.19-2.6.33-.41,1.17-.62,2.53-.62h7.22c.54,0,1.01.04,1.42.12.37.08.66.21.86.37l8.03,6.74.06.06s.06.02.06.06c.41-.08.76-.1,1.05-.06.29.04.51.14.68.31l7.96,6.74c.16.16.35.41.56.74.16.29.33.7.49,1.24l2.22,6.86c.41,1.28.47,2.14.19,2.6-.29.45-1.09.8-2.41,1.05l-8.27,1.36,5.93,6.24c.91.99,1.34,1.75,1.3,2.29-.04.54-.62,1.2-1.73,1.98l-5.8,4.2c-.82.54-1.46.82-1.91.87-.45,0-.86-.16-1.23-.49l-6.73-5.63-2.28,4.33c-.66,1.11-1.21,1.75-1.67,1.92-.45.12-1.26-.21-2.41-.99l-5.87-4.2ZM104.56,55.91c.37.08,1.01-.16,1.91-.74l5.8-4.2c.86-.62,1.32-1.13,1.36-1.55.04-.41-.29-1.01-.99-1.79l-6.73-7.11,9.38-1.55c1.03-.16,1.67-.41,1.91-.74.21-.37.14-1.07-.19-2.1l-2.22-6.86c-.29-1.03-.64-1.63-1.05-1.79-.41-.16-1.07-.02-1.98.43l-8.77,3.96,1.42-9.21c.16-1.03.1-1.71-.19-2.04-.33-.33-1.01-.49-2.04-.49h-7.22c-1.03,0-1.67.16-1.91.49-.29.33-.35,1.01-.19,2.04l1.23,9.21-8.46-3.96c-.91-.45-1.54-.6-1.91-.43-.41.16-.78.76-1.11,1.79l-2.28,6.86c-.33,1.03-.37,1.73-.12,2.1.21.33.82.58,1.85.74l9.45,1.55-6.79,7.11c-.7.78-1.03,1.38-.99,1.79.04.41.49.93,1.36,1.55l5.8,4.2c.91.58,1.54.82,1.91.74.37-.12.8-.62,1.3-1.48l4.57-8.72,4.51,8.72c.49.87.95,1.36,1.36,1.48ZM91.35,47.69l6.54-9.4-10.62-3.46.25-.62,10.74,3.52v-12.05h.62v12.05s10.74-3.52,10.74-3.52l.25.62-10.62,3.46,6.54,9.4-.49.37-6.73-9.58-6.73,9.58-.49-.37Z"/>
      <path class="cls-2" d="M204.94,70.91c-.41.28-.7.4-.86.35-.16-.06-.36-.29-.6-.69l-.82-1.55-2.41,2.01c-.13.12-.28.18-.44.18-.16-.01-.39-.12-.69-.31l-2.08-1.51c-.4-.28-.6-.52-.62-.71-.01-.19.14-.46.46-.82l2.12-2.24-2.96-.49c-.47-.09-.76-.21-.86-.38-.1-.16-.08-.47.07-.93l.8-2.46c.06-.19.12-.34.18-.44.07-.12.14-.21.2-.27l2.85-2.41c.06-.06.14-.1.24-.11.1-.01.23,0,.38.02,0-.01,0-.02.02-.02l.02-.02,2.87-2.41c.07-.06.18-.1.31-.13.15-.03.32-.04.51-.04h2.59c.49,0,.79.07.91.22.13.15.15.46.07.93l-.4,2.9,2.68-1.24c.41-.21.71-.27.88-.2s.34.35.49.82l.82,2.46c.1.3.15.52.13.66-.01.15-.07.27-.18.38l-2.45,2.06.88.93c.29.32.44.58.44.75s-.13.38-.38.62l-2.85,2.39s-.07.04-.11.07c-.03.03-.06.06-.09.09v.02h-.02l-2.1,1.51ZM203.26,68.06l1.61-3.12,1.64,3.12c.18.31.33.49.46.53.13.03.36-.06.69-.27l2.08-1.51c.31-.22.47-.41.49-.55.01-.15-.1-.36-.35-.64l-2.43-2.55,3.38-.55c.37-.06.59-.15.66-.27.09-.13.07-.38-.04-.75l-.82-2.46c-.12-.37-.25-.58-.4-.64-.13-.06-.36,0-.69.15l-3.03,1.42.44-3.3c.06-.37.04-.61-.07-.73-.09-.12-.32-.18-.69-.18h-2.59c-.37,0-.61.06-.73.18-.1.12-.13.36-.07.73l.51,3.3-3.14-1.42c-.32-.16-.56-.21-.71-.15-.15.06-.27.27-.38.64l-.8,2.46c-.12.37-.14.62-.07.75.09.12.32.21.69.27l3.36.55-2.41,2.55c-.25.28-.37.49-.35.64.01.15.18.33.49.55l2.08,1.51c.32.21.55.3.69.27.15-.04.31-.22.49-.53ZM207.33,65.78l-2.41-3.43-2.41,3.43-.18-.13,2.34-3.36-3.8-1.24.09-.22,3.85,1.26v-4.32h.22v4.32l3.85-1.26.09.22-3.8,1.24,2.34,3.36-.18.13Z"/>
      <path class="cls-2" d="M147.3,25.09c-.67.46-1.14.65-1.41.58-.26-.1-.59-.47-.97-1.12l-1.34-2.53-3.93,3.29c-.22.19-.46.29-.72.29-.26-.02-.64-.19-1.12-.51l-3.39-2.46c-.65-.46-.99-.84-1.01-1.16-.02-.31.23-.76.76-1.34l3.47-3.65-4.84-.8c-.77-.14-1.24-.35-1.41-.61-.17-.27-.13-.77.11-1.52l1.3-4.01c.1-.31.19-.55.29-.72.12-.19.23-.34.32-.43l4.66-3.94c.1-.1.23-.16.4-.18.17-.02.37-.01.61.04,0-.02.01-.04.04-.04l.04-.04,4.69-3.94c.12-.1.29-.17.51-.22.24-.05.52-.07.83-.07h4.22c.79,0,1.29.12,1.48.36.22.24.25.75.11,1.52l-.65,4.74,4.37-2.02c.67-.34,1.16-.45,1.44-.33s.55.57.79,1.34l1.34,4.01c.17.48.24.84.22,1.08-.02.24-.12.45-.29.61l-4.01,3.36,1.44,1.52c.48.53.72.94.72,1.23s-.2.63-.61,1.01l-4.66,3.9s-.11.06-.18.11c-.05.05-.1.1-.14.14v.04h-.04l-3.43,2.46ZM144.56,20.42l2.64-5.1,2.67,5.1c.29.51.54.8.76.87.22.05.59-.1,1.12-.43l3.39-2.46c.51-.36.77-.66.79-.9.02-.24-.17-.59-.58-1.05l-3.97-4.16,5.52-.9c.6-.1.96-.24,1.08-.43.14-.22.12-.63-.07-1.23l-1.34-4.01c-.19-.6-.41-.95-.65-1.05-.22-.1-.59-.01-1.12.25l-4.95,2.31.72-5.39c.1-.6.06-1-.11-1.19-.14-.19-.52-.29-1.12-.29h-4.22c-.6,0-1,.1-1.19.29-.17.19-.2.59-.11,1.19l.83,5.39-5.13-2.31c-.53-.27-.91-.35-1.16-.25-.24.1-.45.45-.61,1.05l-1.3,4.01c-.19.6-.23,1.01-.11,1.23.14.19.52.34,1.12.43l5.49.9-3.93,4.16c-.41.46-.6.81-.58,1.05.02.24.29.54.79.9l3.39,2.46c.53.34.9.48,1.12.43.24-.07.51-.36.79-.87ZM151.2,16.7l-3.93-5.6-3.93,5.6-.29-.22,3.83-5.49-6.21-2.02.14-.36,6.28,2.06V3.61h.36v7.05l6.28-2.06.14.36-6.21,2.02,3.83,5.49-.29.22Z"/>
      <path class="cls-2" d="M70.2,133.37c1.85,1.39,2.81,2.48,2.86,3.26-.02.8-.72,2.02-2.12,3.66l-5.59,5.93,12.49,7.57c.72.41,1.2.97,1.44,1.68.18.74.07,1.9-.33,3.48l-3.5,11.41c-.63,2.17-1.36,3.44-2.19,3.79-.82.35-2.26.08-4.3-.81l-13.03-5.97,2.32,13.77c.32,2.21.2,3.66-.36,4.36-.56.7-1.96,1.07-4.19,1.11l-12.01.2c-.93.03-1.67,0-2.21-.11-.63-.15-1.12-.31-1.47-.48l-14.91-8.92c-.35-.17-.63-.47-.85-.9-.22-.43-.38-.99-.47-1.69-.06.02-.11,0-.13-.06l-.13-.06-14.94-9.02c-.37-.24-.72-.62-1.05-1.16-.35-.6-.67-1.33-.96-2.17l-3.89-11.38c-.73-2.14-.86-3.58-.39-4.32.45-.81,1.78-1.37,3.99-1.69l13.36-2.61-9.48-9.91c-1.53-1.5-2.27-2.7-2.21-3.59s1.02-2.01,2.87-3.37l9.58-7.3c1.14-.9,2.05-1.43,2.72-1.58.67-.16,1.31-.09,1.92.21l12.75,7.7,2.76-5.29c.98-1.79,1.87-2.81,2.65-3.08s1.88-.03,3.29.72l14.81,8.95c.11.11.26.24.46.39.17.09.35.17.52.26l.1-.03.03.1,9.79,6.98ZM60.16,145.06l-16.16-2.4,11.27-11.9c1.1-1.24,1.64-2.19,1.64-2.84-.07-.63-.8-1.5-2.2-2.62l-9.75-6.88c-1.44-1.03-2.5-1.46-3.17-1.31-.67.16-1.44,1-2.29,2.52l-7.54,14.53-7.53-14.05c-.81-1.53-1.54-2.37-2.17-2.52-.72-.19-1.8.25-3.25,1.33l-9.58,7.3c-1.45,1.07-2.19,1.98-2.23,2.72-.06.67.51,1.6,1.71,2.78l10.79,11.2-15.18,3.02c-1.71.3-2.75.76-3.11,1.39-.39.57-.3,1.66.25,3.28l3.89,11.38c.55,1.62,1.18,2.6,1.88,2.94.67.28,1.78,0,3.31-.81l13.75-7.2-1.51,15.95c-.23,1.67-.1,2.79.38,3.35.48.56,1.61.79,3.39.69l12.01-.2c1.8-.04,2.94-.32,3.41-.84.39-.57.43-1.71.14-3.42l-2.62-15.62,14.83,6.77c1.61.68,2.73.88,3.36.59.63-.29,1.19-1.28,1.7-2.97l3.5-11.41c.42-1.74.47-2.88.14-3.42-.42-.58-1.44-1.03-3.07-1.34ZM44.01,130.59l-11.47,15.77,18.73,5.44-.32.98-18.33-5.25.27,18.6-1.11-.06-.24-18.83-18.99,6.5-.33-.97,18.99-6.5-11.34-15.03.84-.72,11.18,14.87,11.28-15.38.85.58Z"/>
      <path class="cls-2" d="M104.96,231.16c-1.05.81-1.79,1.17-2.23,1.08-.44-.13-1-.7-1.69-1.72l-2.42-3.97-6.06,5.72c-.33.33-.71.51-1.14.54-.43-.01-1.05-.25-1.86-.71l-5.75-3.65c-1.1-.68-1.68-1.27-1.75-1.78-.07-.51.3-1.25,1.1-2.24l5.26-6.26-7.92-.81c-1.26-.16-2.04-.44-2.34-.86-.3-.41-.29-1.24.03-2.47l1.71-6.64c.13-.52.26-.92.4-1.2.18-.32.34-.57.48-.74l7.16-6.85c.15-.17.36-.28.63-.33.27-.06.6-.06,1,0,0-.04.02-.06.05-.06l.05-.06,7.22-6.85c.19-.17.45-.3.8-.4.39-.1.83-.17,1.34-.2l6.85-.42c1.29-.08,2.1.07,2.44.44.38.37.48,1.19.33,2.45l-.59,7.74,6.88-3.71c1.06-.61,1.83-.84,2.31-.67s.95.86,1.42,2.09l2.56,6.37c.32.76.47,1.34.46,1.74-.01.39-.15.73-.41,1.03l-6.17,5.85,2.49,2.32c.83.81,1.26,1.45,1.29,1.92s-.27,1.04-.9,1.7l-7.17,6.79c-.08.04-.17.11-.28.19-.07.08-.15.17-.22.25v.06s-.05,0-.05,0l-5.32,4.33ZM100.05,223.87l3.77-8.53,4.84,8c.52.79.96,1.24,1.32,1.33.36.06.95-.21,1.77-.81l5.26-4.32c.78-.64,1.18-1.15,1.2-1.54.02-.39-.33-.94-1.04-1.64l-6.85-6.35,8.87-2.01c.97-.22,1.54-.49,1.71-.81.21-.37.13-1.03-.24-1.99l-2.56-6.37c-.37-.96-.76-1.5-1.16-1.64-.36-.13-.96.04-1.79.52l-7.79,4.24.64-8.81c.1-.99,0-1.63-.29-1.92-.25-.3-.87-.42-1.84-.36l-6.85.42c-.98.06-1.61.26-1.9.59-.25.33-.27.98-.06,1.95l1.88,8.65-8.54-3.24c-.88-.38-1.52-.48-1.9-.3-.38.18-.68.77-.89,1.76l-1.71,6.64c-.25,1-.27,1.66-.05,2,.25.3.87.5,1.86.59l8.99.92-5.97,7.13c-.62.78-.9,1.37-.83,1.76.06.39.52.85,1.38,1.39l5.75,3.65c.89.49,1.51.69,1.86.59.38-.14.78-.64,1.2-1.49ZM110.45,217.18l-6.94-8.7-5.83,9.48-.49-.32,5.66-9.29-10.27-2.67.2-.6,10.39,2.72-.7-11.43.59-.04.7,11.43,9.98-3.96.27.57-9.87,3.9,6.75,8.53-.45.38Z"/>
      <path class="cls-2" d="M190.72,179.68c2.46-1.04,4.09-1.37,4.9-.96.79.48,1.6,1.89,2.42,4.22l2.69,8.99,14.75-8.08c.82-.48,1.65-.64,2.51-.47.84.25,1.93,1.03,3.28,2.34l9.35,10.06c1.8,1.89,2.64,3.34,2.52,4.36-.12,1.02-1.22,2.3-3.29,3.82l-13.47,9.54,15.05,5.63c2.38.95,3.76,1.91,4.14,2.87.37.96-.06,2.56-1.31,4.81l-6.73,12.08c-.51.95-.97,1.66-1.39,2.14-.51.54-.95.94-1.32,1.19l-17.48,9.71c-.37.25-.83.36-1.39.33-.56-.03-1.21-.2-1.95-.51-.02.08-.06.11-.14.09l-.14.09-17.6,9.69c-.45.23-1.04.36-1.76.38-.8,0-1.71-.1-2.72-.3l-13.58-2.69c-2.55-.51-4.06-1.21-4.53-2.1-.54-.91-.34-2.56.62-4.95l5.1-14.82-15.34,3.73c-2.38.66-4,.7-4.85.13s-1.42-2.17-1.7-4.81l-1.74-13.75c-.24-1.66-.24-2.87,0-3.63.23-.76.67-1.36,1.32-1.79l15.03-8.26-3.68-5.8c-1.21-2.01-1.72-3.48-1.54-4.41s1.06-1.88,2.62-2.86l17.46-9.59c.17-.05.39-.12.65-.23.19-.12.37-.25.56-.37l.02-.12.12.02,12.59-5.72ZM196.58,196.42l-11.72,14.72-5.35-18.09c-.61-1.81-1.24-2.9-1.89-3.27-.67-.29-1.96-.06-3.88.68l-12.48,5.75c-1.86.84-2.9,1.64-3.13,2.4-.23.76.17,2.01,1.19,3.74l10.13,15.89-18.34-.61c-2-.07-3.25.16-3.76.71-.6.61-.79,1.94-.55,4l1.74,13.75c.24,2.06.71,3.32,1.42,3.78.64.45,1.89.41,3.76-.1l17.38-4.29-5.75,16.86c-.69,1.88-.83,3.18-.41,3.91.34.71,1.48,1.26,3.42,1.64l13.58,2.69c1.94.38,3.27.33,4.02-.17.66-.51,1.03-1.77,1.11-3.77l.75-17.85,15.02,10.7c1.53,1.19,2.72,1.71,3.55,1.55.84-.16,1.72-1.15,2.64-2.98l6.73-12.08c1-1.82,1.38-3.11,1.13-3.88-.34-.71-1.45-1.41-3.32-2.11l-17.07-6.4,15.3-10.87c1.61-1.21,2.45-2.21,2.52-3,.08-.79-.58-1.93-1.98-3.41l-9.35-10.06c-1.49-1.42-2.6-2.12-3.32-2.11-.82.08-1.86.84-3.11,2.29ZM172.85,204.17l9.09,20.52,16.22-15.52.79.88-15.8,15.24,18.68,10.46-.69,1.07-18.89-10.62-4.48,22.67-1.16-.23,4.48-22.67-21.51,2.63-.23-1.25,21.26-2.56-8.81-20.1,1.07-.51Z"/>
    </g>
  </g>
</svg>