<svg width="842" height="595" viewBox="0 0 842 595" fill="none" xmlns="http://www.w3.org/2000/svg">
<g clip-path="url(#clip0_7_94)">
<rect width="595" height="842" transform="matrix(0 -1 1 0 0 595)" fill="white"/>
<path d="M238.389 108.872H239.445V125H236.205V116.552L232.221 121.544H231.165L227.181 116.552V125H223.941V108.872H224.997L231.693 117.44L238.389 108.872ZM250.986 113.12H254.394L248.706 126.032C247.626 128.504 246.186 129.608 243.978 129.608C243.306 129.608 242.61 129.512 241.89 129.32V126.608C242.634 126.68 243.09 126.704 243.282 126.704C244.434 126.704 245.202 126.344 245.754 125.096L246.114 124.28L241.554 113.12H244.986L247.89 120.92L250.986 113.12ZM261.926 122.984L263.558 121.016C264.59 122.096 265.718 122.624 266.894 122.624C267.758 122.624 268.406 122.288 268.406 121.64C268.406 121.136 268.07 120.944 267.182 120.56L265.91 120.032C263.726 119.144 262.67 118.16 262.67 116.408C262.67 114.176 264.446 112.856 267.038 112.856C268.814 112.856 270.23 113.456 271.31 114.632L269.678 116.624C268.886 115.88 267.998 115.496 267.014 115.496C266.222 115.496 265.742 115.784 265.742 116.336C265.742 116.792 266.054 117.008 266.99 117.392L268.142 117.872C270.446 118.808 271.478 119.744 271.478 121.496C271.478 122.672 271.046 123.608 270.158 124.28C269.294 124.952 268.19 125.288 266.846 125.288C264.758 125.288 263.006 124.424 261.926 122.984ZM282.04 113.12H285.448L279.76 126.032C278.68 128.504 277.24 129.608 275.032 129.608C274.36 129.608 273.664 129.512 272.944 129.32V126.608C273.688 126.68 274.144 126.704 274.336 126.704C275.488 126.704 276.256 126.344 276.808 125.096L277.168 124.28L272.608 113.12H276.04L278.944 120.92L282.04 113.12ZM305.647 117.632V125H302.407V118.088C302.407 116.672 301.567 115.784 300.295 115.784C299.023 115.784 298.111 116.696 298.111 118.016V125H294.871V118.088C294.871 116.672 294.031 115.784 292.759 115.784C291.439 115.784 290.575 116.672 290.575 118.088V125H287.335V113.12H290.311V114.176C291.103 113.336 292.303 112.856 293.671 112.856C295.231 112.856 296.407 113.432 297.199 114.56C298.135 113.504 299.527 112.856 301.159 112.856C303.943 112.856 305.647 114.752 305.647 117.632ZM321.285 119.072C321.285 122.648 318.837 125.288 315.525 125.288C313.893 125.288 312.549 124.664 311.709 123.536V125H308.733V107H311.973V114.272C312.837 113.336 314.013 112.856 315.525 112.856C318.837 112.856 321.285 115.496 321.285 119.072ZM317.997 119.048C317.997 117.104 316.653 115.784 314.925 115.784C313.269 115.784 311.925 116.96 311.925 119.072C311.925 121.208 313.293 122.336 314.925 122.336C316.677 122.336 317.997 121.04 317.997 119.048ZM323.155 119.048C323.083 115.664 326.035 112.784 329.515 112.856C332.995 112.808 335.971 115.664 335.899 119.048C335.971 122.432 332.971 125.336 329.491 125.264C326.011 125.336 323.083 122.432 323.155 119.048ZM332.587 119.072C332.587 117.224 331.267 115.808 329.515 115.808C327.715 115.808 326.443 117.176 326.443 119.072C326.443 120.92 327.715 122.288 329.515 122.288C331.267 122.288 332.587 120.92 332.587 119.072ZM338.428 125V107H341.668V125H338.428ZM568.802 113.12V115.976H567.938C565.994 115.976 564.746 117.032 564.746 119.072V125H561.506V113.12H564.482V114.536C565.274 113.552 566.426 112.976 567.746 112.976C568.154 112.976 568.49 113.024 568.802 113.12ZM570.691 119.768V113.12H573.931V120.032C573.931 121.4 574.867 122.312 576.187 122.312C577.435 122.312 578.395 121.4 578.395 120.032V113.12H581.635V119.768C581.635 123.08 579.283 125.288 576.187 125.288C573.019 125.288 570.691 123.08 570.691 119.768ZM584.733 125V107H587.973V125H584.733ZM602.098 120.152H593.77C594.154 121.664 595.378 122.504 597.106 122.504C598.282 122.504 599.386 122.096 600.418 121.304L601.762 123.512C600.346 124.688 598.762 125.288 597.01 125.288C593.338 125.36 590.434 122.504 590.506 119.072C590.434 115.64 593.29 112.784 596.722 112.856C600.01 112.856 602.314 115.28 602.314 118.376C602.314 118.952 602.242 119.552 602.098 120.152ZM593.77 117.872H599.17C599.146 116.408 598.018 115.472 596.602 115.472C595.234 115.472 594.13 116.408 593.77 117.872ZM603.762 122.984L605.394 121.016C606.426 122.096 607.554 122.624 608.73 122.624C609.594 122.624 610.242 122.288 610.242 121.64C610.242 121.136 609.906 120.944 609.018 120.56L607.746 120.032C605.562 119.144 604.506 118.16 604.506 116.408C604.506 114.176 606.282 112.856 608.874 112.856C610.65 112.856 612.066 113.456 613.146 114.632L611.514 116.624C610.722 115.88 609.834 115.496 608.85 115.496C608.058 115.496 607.578 115.784 607.578 116.336C607.578 116.792 607.89 117.008 608.826 117.392L609.978 117.872C612.282 118.808 613.314 119.744 613.314 121.496C613.314 122.672 612.882 123.608 611.994 124.28C611.13 124.952 610.026 125.288 608.682 125.288C606.594 125.288 604.842 124.424 603.762 122.984ZM331.725 148.664V145.952H337.773V148.664H331.725ZM361.72 143.12H365.128L359.608 155.288H358.552L355.144 148.376L351.712 155.288H350.656L345.136 143.12H348.544L351.352 149.888L354.592 142.856H355.672L358.96 149.744L361.72 143.12ZM367.034 155V143.12H370.274V155H367.034ZM366.578 138.8C366.578 137.648 367.49 136.784 368.642 136.784C369.794 136.784 370.73 137.648 370.73 138.8C370.73 139.928 369.794 140.792 368.642 140.792C367.49 140.792 366.578 139.928 366.578 138.8ZM381.111 152.288V155C380.343 155.192 379.599 155.288 378.879 155.288C375.879 155.288 374.127 153.8 374.127 150.824V145.856H372.255V143.12H374.127V140.12H377.367V143.12H380.727V145.856H377.367V150.536C377.367 151.88 378.039 152.384 379.575 152.384C379.767 152.384 380.271 152.36 381.111 152.288ZM394.383 147.632V155H391.167V148.088C391.167 146.72 390.279 145.784 388.959 145.784C387.639 145.784 386.703 146.72 386.703 148.088V155H383.463V137H386.703V144.128C387.495 143.336 388.647 142.856 389.967 142.856C392.655 142.856 394.383 144.752 394.383 147.632ZM404.229 155V143.12H407.469V155H404.229ZM403.773 138.8C403.773 137.648 404.685 136.784 405.837 136.784C406.989 136.784 407.925 137.648 407.925 138.8C407.925 139.928 406.989 140.792 405.837 140.792C404.685 140.792 403.773 139.928 403.773 138.8ZM421.594 147.632V155H418.378V148.064C418.378 146.696 417.49 145.76 416.17 145.76C414.85 145.76 413.914 146.696 413.914 148.064V155H410.674V143.12H413.65V144.2C414.49 143.36 415.714 142.856 417.13 142.856C419.89 142.856 421.594 144.752 421.594 147.632ZM432.345 152.288V155C431.577 155.192 430.833 155.288 430.113 155.288C427.113 155.288 425.361 153.8 425.361 150.824V145.856H423.489V143.12H425.361V140.12H428.601V143.12H431.961V145.856H428.601V150.536C428.601 151.88 429.273 152.384 430.809 152.384C431.001 152.384 431.505 152.36 432.345 152.288ZM445.383 150.152H437.055C437.439 151.664 438.663 152.504 440.391 152.504C441.567 152.504 442.671 152.096 443.703 151.304L445.047 153.512C443.631 154.688 442.047 155.288 440.295 155.288C436.623 155.36 433.719 152.504 433.791 149.072C433.719 145.64 436.575 142.784 440.007 142.856C443.295 142.856 445.599 145.28 445.599 148.376C445.599 148.952 445.527 149.552 445.383 150.152ZM437.055 147.872H442.455C442.431 146.408 441.303 145.472 439.887 145.472C438.519 145.472 437.415 146.408 437.055 147.872ZM459.048 147.632V155H455.832V148.064C455.832 146.696 454.944 145.76 453.624 145.76C452.304 145.76 451.368 146.696 451.368 148.064V155H448.128V143.12H451.104V144.2C451.944 143.36 453.168 142.856 454.584 142.856C457.344 142.856 459.048 144.752 459.048 147.632ZM469.799 152.288V155C469.031 155.192 468.287 155.288 467.567 155.288C464.567 155.288 462.815 153.8 462.815 150.824V145.856H460.943V143.12H462.815V140.12H466.055V143.12H469.415V145.856H466.055V150.536C466.055 151.88 466.727 152.384 468.263 152.384C468.455 152.384 468.959 152.36 469.799 152.288ZM472.151 155V143.12H475.391V155H472.151ZM471.695 138.8C471.695 137.648 472.607 136.784 473.759 136.784C474.911 136.784 475.847 137.648 475.847 138.8C475.847 139.928 474.911 140.792 473.759 140.792C472.607 140.792 471.695 139.928 471.695 138.8ZM477.924 149.048C477.852 145.664 480.804 142.784 484.284 142.856C487.764 142.808 490.74 145.664 490.668 149.048C490.74 152.432 487.74 155.336 484.26 155.264C480.78 155.336 477.852 152.432 477.924 149.048ZM487.356 149.072C487.356 147.224 486.036 145.808 484.284 145.808C482.484 145.808 481.212 147.176 481.212 149.072C481.212 150.92 482.484 152.288 484.284 152.288C486.036 152.288 487.356 150.92 487.356 149.072ZM504.118 147.632V155H500.902V148.064C500.902 146.696 500.014 145.76 498.694 145.76C497.374 145.76 496.438 146.696 496.438 148.064V155H493.198V143.12H496.174V144.2C497.014 143.36 498.238 142.856 499.654 142.856C502.414 142.856 504.118 144.752 504.118 147.632ZM506.757 153.056C506.757 151.808 507.741 150.824 509.013 150.824C510.261 150.824 511.221 151.808 511.221 153.056C511.221 154.328 510.285 155.288 509.013 155.288C507.741 155.288 506.757 154.328 506.757 153.056Z" fill="black"/>
<path d="M364.152 119.072C364.152 122.648 361.704 125.288 358.392 125.288C356.76 125.288 355.416 124.664 354.576 123.536V125H351.6V107H354.84V114.272C355.704 113.336 356.88 112.856 358.392 112.856C361.704 112.856 364.152 115.496 364.152 119.072ZM360.864 119.048C360.864 117.104 359.52 115.784 357.792 115.784C356.136 115.784 354.792 116.96 354.792 119.072C354.792 121.208 356.16 122.336 357.792 122.336C359.544 122.336 360.864 121.04 360.864 119.048ZM373.99 113.12V115.976H373.126C371.182 115.976 369.934 117.032 369.934 119.072V125H366.694V113.12H369.67V114.536C370.462 113.552 371.614 112.976 372.934 112.976C373.342 112.976 373.678 113.024 373.99 113.12ZM386.684 120.152H378.356C378.74 121.664 379.964 122.504 381.692 122.504C382.868 122.504 383.972 122.096 385.004 121.304L386.348 123.512C384.932 124.688 383.348 125.288 381.596 125.288C377.924 125.36 375.02 122.504 375.092 119.072C375.02 115.64 377.876 112.784 381.308 112.856C384.596 112.856 386.9 115.28 386.9 118.376C386.9 118.952 386.828 119.552 386.684 120.152ZM378.356 117.872H383.756C383.732 116.408 382.604 115.472 381.188 115.472C379.82 115.472 378.716 116.408 378.356 117.872ZM399.388 117.944V125H396.412V123.848C395.548 124.736 394.3 125.288 392.788 125.288C390.268 125.288 388.684 123.824 388.684 121.736C388.684 119.6 390.412 118.28 393.172 118.28H396.148V117.752C396.148 116.432 395.38 115.664 393.94 115.664C392.716 115.664 391.852 116.168 390.796 117.296L389.116 115.304C390.484 113.672 392.212 112.856 394.3 112.856C397.396 112.856 399.388 114.656 399.388 117.944ZM396.148 120.56V120.416H393.604C392.548 120.416 391.948 120.824 391.948 121.616C391.948 122.408 392.62 122.912 393.652 122.912C395.068 122.912 396.148 121.928 396.148 120.56ZM414.218 125H410.522L405.746 118.424V125H402.506V107H405.746V118.184L410.018 113.12H413.858L409.394 118.376L414.218 125ZM414.856 122.984L416.488 121.016C417.52 122.096 418.648 122.624 419.824 122.624C420.688 122.624 421.336 122.288 421.336 121.64C421.336 121.136 421 120.944 420.112 120.56L418.84 120.032C416.656 119.144 415.6 118.16 415.6 116.408C415.6 114.176 417.376 112.856 419.968 112.856C421.744 112.856 423.16 113.456 424.24 114.632L422.608 116.624C421.816 115.88 420.928 115.496 419.944 115.496C419.152 115.496 418.672 115.784 418.672 116.336C418.672 116.792 418.984 117.008 419.92 117.392L421.072 117.872C423.376 118.808 424.408 119.744 424.408 121.496C424.408 122.672 423.976 123.608 423.088 124.28C422.224 124.952 421.12 125.288 419.776 125.288C417.688 125.288 415.936 124.424 414.856 122.984ZM441.217 122.288V125C440.449 125.192 439.705 125.288 438.985 125.288C435.985 125.288 434.233 123.8 434.233 120.824V115.856H432.361V113.12H434.233V110.12H437.473V113.12H440.833V115.856H437.473V120.536C437.473 121.88 438.145 122.384 439.681 122.384C439.873 122.384 440.377 122.36 441.217 122.288ZM454.489 117.632V125H451.273V118.088C451.273 116.72 450.385 115.784 449.065 115.784C447.745 115.784 446.809 116.72 446.809 118.088V125H443.569V107H446.809V114.128C447.601 113.336 448.753 112.856 450.073 112.856C452.761 112.856 454.489 114.752 454.489 117.632ZM468.528 120.152H460.2C460.584 121.664 461.808 122.504 463.536 122.504C464.712 122.504 465.816 122.096 466.848 121.304L468.192 123.512C466.776 124.688 465.192 125.288 463.44 125.288C459.768 125.36 456.864 122.504 456.936 119.072C456.864 115.64 459.72 112.784 463.152 112.856C466.44 112.856 468.744 115.28 468.744 118.376C468.744 118.952 468.672 119.552 468.528 120.152ZM460.2 117.872H465.6C465.576 116.408 464.448 115.472 463.032 115.472C461.664 115.472 460.56 116.408 460.2 117.872ZM478.215 125V109.16H483.399C488.415 109.112 492.111 112.352 492.039 117.032C492.111 121.616 488.415 125.072 483.399 125H478.215ZM481.455 122.072H483.375C486.567 122.072 488.703 120.08 488.703 117.032C488.703 113.96 486.615 112.088 483.375 112.088H481.455V122.072ZM505.489 120.152H497.161C497.545 121.664 498.769 122.504 500.497 122.504C501.673 122.504 502.777 122.096 503.809 121.304L505.153 123.512C503.737 124.688 502.153 125.288 500.401 125.288C496.729 125.36 493.825 122.504 493.897 119.072C493.825 115.64 496.681 112.784 500.113 112.856C503.401 112.856 505.705 115.28 505.705 118.376C505.705 118.952 505.633 119.552 505.489 120.152ZM497.161 117.872H502.561C502.537 116.408 501.409 115.472 499.993 115.472C498.625 115.472 497.521 116.408 497.161 117.872ZM507.153 122.984L508.785 121.016C509.817 122.096 510.945 122.624 512.121 122.624C512.985 122.624 513.633 122.288 513.633 121.64C513.633 121.136 513.297 120.944 512.409 120.56L511.137 120.032C508.953 119.144 507.897 118.16 507.897 116.408C507.897 114.176 509.673 112.856 512.265 112.856C514.041 112.856 515.457 113.456 516.537 114.632L514.905 116.624C514.113 115.88 513.225 115.496 512.241 115.496C511.449 115.496 510.969 115.784 510.969 116.336C510.969 116.792 511.281 117.008 512.217 117.392L513.369 117.872C515.673 118.808 516.705 119.744 516.705 121.496C516.705 122.672 516.273 123.608 515.385 124.28C514.521 124.952 513.417 125.288 512.073 125.288C509.985 125.288 508.233 124.424 507.153 122.984ZM519.155 125V113.12H522.395V125H519.155ZM518.699 108.8C518.699 107.648 519.611 106.784 520.763 106.784C521.915 106.784 522.851 107.648 522.851 108.8C522.851 109.928 521.915 110.792 520.763 110.792C519.611 110.792 518.699 109.928 518.699 108.8ZM534.552 113.12H537.528V123.68C537.528 127.544 535.104 129.608 531.384 129.608C529.152 129.608 527.208 128.864 525.552 127.4L527.256 125.144C528.576 126.128 529.68 126.68 531.12 126.68C533.04 126.68 534.288 125.72 534.288 123.872V123.224C533.424 124.16 532.176 124.64 530.664 124.64C527.376 124.64 524.976 122.216 524.976 118.736C524.976 115.208 527.424 112.856 530.664 112.856C532.368 112.856 533.712 113.48 534.552 114.608V113.12ZM534.336 118.688C534.336 116.648 532.992 115.616 531.336 115.616C529.584 115.616 528.264 116.792 528.264 118.712C528.264 120.632 529.608 121.904 531.336 121.904C532.968 121.904 534.336 120.728 534.336 118.688ZM551.661 117.632V125H548.445V118.064C548.445 116.696 547.557 115.76 546.237 115.76C544.917 115.76 543.981 116.696 543.981 118.064V125H540.741V113.12H543.717V114.2C544.557 113.36 545.781 112.856 547.197 112.856C549.957 112.856 551.661 114.752 551.661 117.632Z" fill="#CC0000"/>
<path d="M202.908 518V517.032C205.372 516.416 206.428 514.92 206.428 506.824V457.544H200.356C192.436 457.544 189.444 459.656 186.804 465.288L186.012 465.112L186.54 456.4H231.156L231.684 465.112L230.892 465.288C228.252 459.656 225.26 457.544 217.34 457.544H211.444V506.824C211.444 514.92 212.5 516.416 214.964 517.032V518H202.908ZM238.336 518V517.032C240.8 516.416 241.856 514.92 241.856 506.824V467.576C241.856 459.48 240.8 457.984 238.336 457.368V456.4H250.304V457.368C247.84 457.984 246.784 459.48 246.784 467.576V484.736H283.392V467.576C283.392 459.48 282.336 457.984 279.872 457.368V456.4H291.84V457.368C289.376 457.984 288.32 459.48 288.32 467.576V506.824C288.32 514.92 289.376 516.416 291.84 517.032V518H279.872V517.032C282.336 516.416 283.392 514.92 283.392 506.824V485.968H246.784V506.824C246.784 514.92 247.84 516.416 250.304 517.032V518H238.336ZM295.604 518V517.032C297.804 516.416 299.916 515.184 302.996 507.616L321.3 462.384C321.828 461.064 321.74 460.096 321.124 458.864L320.596 457.72L325.084 455.784L346.468 507.704C349.548 515.184 351.396 516.416 353.156 517.032V518H342.068V517.032C344.532 516.416 344.444 515.184 341.364 507.704L335.908 494.504H309.684L304.404 507.616C302.116 513.16 302.116 516.416 305.196 517.032V518H295.604ZM310.212 493.272H335.38L322.62 462.384L310.212 493.272ZM404.169 518.704L362.633 462.824V505.24C362.633 514.392 364.657 516.328 367.913 517.032V518H357.793V517.032C360.257 516.416 361.313 514.92 361.313 506.824V467.576C361.313 459.48 359.905 457.984 356.737 457.368V456.4H364.041L403.993 509.992V469.16C403.993 460.008 401.969 458.072 398.713 457.368V456.4H408.833V457.368C406.369 457.984 405.313 459.48 405.313 467.576V518.704H404.169ZM417.602 518V517.032C420.066 516.416 421.122 514.92 421.122 506.824V467.576C421.122 459.48 420.066 457.984 417.602 457.368V456.4H429.57V457.368C427.106 457.984 426.05 459.48 426.05 467.576V491.776L450.866 466.344C456.41 460.712 457.73 457.544 454.738 457.016V456.4H465.298V457.368C463.098 457.984 460.018 458.6 454.298 464.408L435.554 483.68L437.314 483.504C450.338 482.448 451.834 487.552 458.434 503.744C462.042 512.632 464.77 516.856 467.586 516.856C468.202 516.856 468.818 516.768 469.346 516.68V517.648C468.466 517.912 466.706 518.264 464.77 518.264C459.314 518.264 457.114 512.72 454.034 505.152C447.962 490.368 446.114 484.296 436.082 484.824L434.322 484.912L426.05 493.36V506.824C426.05 514.92 427.106 516.416 429.57 517.032V518H417.602ZM505.029 518V517.032C507.493 516.416 508.549 514.92 508.549 506.824L508.461 490.72L494.909 466.168C491.037 459.128 488.837 457.984 487.077 457.368V456.4H498.253V457.368C495.789 457.984 496.229 459.128 500.189 466.168L512.949 488.872L525.797 466.168C528.789 460.888 529.405 457.984 526.325 457.368V456.4H535.917V457.368C533.717 457.984 531.253 459.128 527.293 466.168L513.565 490.544V506.824C513.565 514.92 514.621 516.416 517.085 517.032V518H505.029ZM565.359 518.88C550.399 518.88 534.295 508.848 534.295 487.288C534.295 468.632 546.703 455.696 565.359 455.696C580.231 455.696 596.335 465.904 596.335 487.464C596.335 509.552 580.143 518.88 565.359 518.88ZM539.047 482.536C539.047 500.312 551.103 517.208 567.647 517.208C582.431 517.208 591.671 507 591.671 492.04C591.671 474.088 579.263 457.368 562.807 457.368C547.935 457.368 539.047 468.016 539.047 482.536ZM631.683 518.88C619.275 518.88 607.747 512.984 607.747 496.704V467.576C607.747 459.48 606.691 457.984 604.227 457.368V456.4H616.195V457.368C613.731 457.984 612.675 459.48 612.675 467.576V494.768C612.675 511.488 622.971 517.384 633.707 517.384C641.451 517.384 652.187 512.808 652.187 495.296V469.16C652.187 460.008 650.163 458.072 646.907 457.368V456.4H657.027V457.368C654.563 457.984 653.507 459.48 653.507 467.576V494.944C653.507 512.632 643.299 518.88 631.683 518.88Z" fill="#CC0000"/>
</g>
<defs>
<clipPath id="clip0_7_94">
<rect width="595" height="842" fill="white" transform="matrix(0 -1 1 0 0 595)"/>
</clipPath>
</defs>
</svg>
