<?xml version="1.0" encoding="UTF-8"?>
<svg id="Layer_2" data-name="Layer 2" xmlns="http://www.w3.org/2000/svg" viewBox="0 0 757.39 512.05">
  <defs>
    <style>
      .cls-1 {
        fill: #231f20;
      }

      .cls-2 {
        fill: #cb2026;
      }

      .cls-3 {
        stroke: #fff;
      }

      .cls-3, .cls-4, .cls-5 {
        fill: #fff;
      }

      .cls-3, .cls-5 {
        stroke-miterlimit: 10;
        stroke-width: .5px;
      }

      .cls-5 {
        stroke: #000;
      }

      .cls-6 {
        fill: #fcf9ce;
      }
    </style>
  </defs>
  <g id="Layer_1-2" data-name="Layer 1">
    <g>
      <rect class="cls-5" x=".25" y=".25" width="756.89" height="124.57"/>
      <rect class="cls-6" x=".25" y="128.82" width="756.89" height="124.57"/>
      <rect class="cls-1" x=".26" y="387.48" width="756.89" height="124.57"/>
      <g>
        <path class="cls-1" d="M191.42,33.09c0-9.7,7.68-17.71,19.44-17.71,3.55,0,8.5.67,10.99,2.35l.19,6.34-.58.14c-1.97-4.94-6.91-7.92-11.86-7.92-7.68,0-13.11,5.09-13.11,14.64s5.47,17.86,14.83,17.86c5.38,0,9.07-3.26,10.8-8.26l.62.1-.77,6.86c-2.54,1.15-6.19,2.3-12.05,2.3-11.47,0-18.53-5.95-18.53-16.71Z"/>
        <path class="cls-1" d="M226.37,37.93c0-7.78,6.24-12.96,12.82-12.96,5.95,0,12.77,3.5,12.77,11.95s-7.1,12.87-12.77,12.87c-6.24,0-12.82-3.7-12.82-11.86ZM247.1,40.57c0-6.1-4.18-15.27-10.37-14.64-4.18.43-5.57,4.27-5.57,8.4,0,5.66,3.36,14.4,9.7,14.4,4.7,0,6.24-4.08,6.24-8.16Z"/>
        <path class="cls-1" d="M254.88,48.64c1.58-.53,1.92-1.97,1.92-5.42v-25.44c0-2.83-.72-3.31-1.92-3.84v-.67l6.34-2.78.48.38v32.35c0,3.46.34,4.9,1.92,5.42v.67h-8.74v-.67Z"/>
        <path class="cls-1" d="M266.73,37.93c0-7.78,6.24-12.96,12.82-12.96,5.95,0,12.77,3.5,12.77,11.95s-7.1,12.87-12.77,12.87c-6.24,0-12.82-3.7-12.82-11.86ZM287.47,40.57c0-6.1-4.18-15.27-10.37-14.64-4.18.43-5.57,4.27-5.57,8.4,0,5.66,3.36,14.4,9.7,14.4,4.7,0,6.24-4.08,6.24-8.16Z"/>
        <path class="cls-1" d="M295.63,48.64c1.58-.53,1.92-1.97,1.92-5.42v-11.04c0-2.83-.72-3.31-1.92-3.84v-.67l6.34-2.78.48.38v5.81c.72-1.68,1.97-3.17,3.5-4.22,1.78-1.25,3.6-1.87,5.9-1.87,1.63,0,3.07.43,3.07,1.44s-1.06,3.12-3.26,3.12c-1.34,0-3.17-.48-6.24-1.44-1.2,1.01-2.83,3.17-2.98,5.57v9.55c0,3.46.34,4.9,1.92,5.42v.67h-8.74v-.67Z"/>
        <path class="cls-1" d="M346.03,43.41c-2.06,3.7-5.38,6.38-9.5,6.38-6.24,0-9.55-5.23-9.55-9.6s3.31-7.78,8.59-9.75c-1.39-2.45-2.26-4.8-2.26-6.96,0-2.88,2.45-8.11,10.61-8.11,1.87,0,4.94.34,7.06,1.54l.53,6.1-.53.1c-2.54-5.9-5.81-6.82-8.26-6.82-3.98,0-5.18,2.98-5.18,4.7,0,3.89,3.65,9.07,8.06,14.21,5.47,6.24,12.1,11.86,14.79,11.86,1.68,0,2.4-2.54,2.4-7.06,0-2.98-1.15-7.82-2.78-7.82h-10.75l.19-.77h17.76l-.19.77h-5.57c2.78,1.2,4.85,3.98,4.85,7.06,0,4.13-5.04,10.42-10.13,10.42-2.59,0-6.34-2.59-10.13-6.24ZM338.97,46.77c3.02,0,5.28-1.87,6.53-3.89-1.25-1.25-2.5-2.59-3.7-4.03-2.21-2.59-4.32-5.23-5.9-7.82-3.26,1.39-4.75,3.89-4.75,7.15,0,4.08,2.78,8.59,7.83,8.59Z"/>
        <path class="cls-1" d="M375.84,25.98v-.67h8.21v.67c-1.58.53-.91,1.78.48,4.94l5.71,13.49,5.18-13.39c1.2-3.26.86-4.66-.77-5.04v-.67h5.14v.67c-1.39.48-2.35,1.78-3.6,5.04l-7.01,18.29h-2.26l-7.68-18.39c-1.34-3.17-2.35-4.46-3.41-4.94Z"/>
        <path class="cls-1" d="M414.72,47.39v-7.92c-1.34,5.57-4.8,10.32-9.79,10.32-3.55,0-6.53-2.26-6.53-6.29,0-4.94,5.04-6.86,10.99-8.54l5.33-1.54c-.1-4.75-2.69-6.58-6.24-6.58-2.69,0-5.33,1.15-7.78,4.08l-.48-.43c2.69-3.31,6.38-5.52,10.75-5.52,5.81,0,8.54,3.12,8.54,8.98v9.26c0,3.46.34,4.9,1.92,5.42v.67h-4.8c-1.25,0-1.92-.67-1.92-1.92ZM407.33,46.29c4.7,0,7.34-6.62,7.39-10.94v-1.25l-5.14,1.49c-2.26.62-6.72,2.26-6.72,6.24,0,3.17,2.26,4.46,4.46,4.46Z"/>
        <path class="cls-1" d="M423.74,48.64c1.58-.53,1.92-1.97,1.92-5.42v-11.04c0-2.83-.72-3.31-1.92-3.84v-.67l6.34-2.78.48.38v5.81c.72-1.68,1.97-3.17,3.5-4.22,1.78-1.25,3.6-1.87,5.9-1.87,1.63,0,3.07.43,3.07,1.44s-1.06,3.12-3.26,3.12c-1.34,0-3.17-.48-6.24-1.44-1.2,1.01-2.83,3.17-2.98,5.57v9.55c0,3.46.34,4.9,1.92,5.42v.67h-8.74v-.67Z"/>
        <path class="cls-1" d="M445.39,48.64c1.58-.53,1.92-1.97,1.92-5.42v-11.04c0-2.83-.72-3.31-1.92-3.84v-.67l6.34-2.78.48.38v17.95c0,3.46.34,4.9,1.92,5.42v.67h-8.74v-.67Z"/>
        <path class="cls-2" d="M446.2,19.98c0-1.87,1.44-3.31,3.26-3.31,1.92,0,3.26,1.44,3.26,3.31s-1.44,3.26-3.26,3.26-3.26-1.44-3.26-3.26Z"/>
        <path class="cls-1" d="M473.33,47.39v-7.92c-1.34,5.57-4.8,10.32-9.79,10.32-3.55,0-6.53-2.26-6.53-6.29,0-4.94,5.04-6.86,10.99-8.54l5.33-1.54c-.1-4.75-2.69-6.58-6.24-6.58-2.69,0-5.33,1.15-7.78,4.08l-.48-.43c2.69-3.31,6.38-5.52,10.75-5.52,5.81,0,8.54,3.12,8.54,8.98v9.26c0,3.46.34,4.9,1.92,5.42v.67h-4.8c-1.25,0-1.92-.67-1.92-1.92ZM465.93,46.29c4.7,0,7.34-6.62,7.39-10.94v-1.25l-5.14,1.49c-2.26.62-6.72,2.26-6.72,6.24,0,3.17,2.26,4.46,4.46,4.46Z"/>
        <path class="cls-1" d="M485.04,42.54v-16.47h-3.07v-.77l7.2-6.34h.77v6.34h7.44l-.19.77h-7.25v16.51c0,2.98,1.1,4.27,3.22,4.27,1.06,0,2.69-.43,4.27-2.4l.48.48c-2.54,2.93-4.99,4.85-7.87,4.85-3.26,0-4.99-2.06-4.99-7.25Z"/>
        <path class="cls-1" d="M499.44,48.64c1.58-.53,1.92-1.97,1.92-5.42v-11.04c0-2.83-.72-3.31-1.92-3.84v-.67l6.34-2.78.48.38v17.95c0,3.46.34,4.9,1.92,5.42v.67h-8.74v-.67Z"/>
        <path class="cls-2" d="M500.25,19.98c0-1.87,1.44-3.31,3.26-3.31,1.92,0,3.26,1.44,3.26,3.31s-1.44,3.26-3.26,3.26-3.26-1.44-3.26-3.26Z"/>
        <path class="cls-1" d="M511.1,37.93c0-7.78,6.24-12.96,12.82-12.96,5.95,0,12.77,3.5,12.77,11.95s-7.1,12.87-12.77,12.87c-6.24,0-12.82-3.7-12.82-11.86ZM531.84,40.57c0-6.1-4.18-15.27-10.37-14.64-4.18.43-5.57,4.27-5.57,8.4,0,5.66,3.36,14.4,9.7,14.4,4.7,0,6.24-4.08,6.24-8.16Z"/>
        <path class="cls-1" d="M540,48.64c1.58-.53,1.92-1.97,1.92-5.42v-11.04c0-2.83-.72-3.31-1.92-3.84v-.67l6.34-2.78.48.38v4.03c2.64-2.16,6.1-4.32,9.84-4.32,4.42,0,7.39,2.3,7.39,7.92v10.32c0,3.46.34,4.9,1.92,5.42v.67h-8.74v-.67c1.58-.53,1.92-1.97,1.92-5.42v-9.46c0-4.32-1.87-6.86-5.42-6.86-2.26,0-4.32,1.1-6.91,3.22v13.1c0,3.46.34,4.9,1.92,5.42v.67h-8.74v-.67Z"/>
      </g>
      <rect class="cls-2" x=".25" y="258.4" width="756.89" height="124.57"/>
      <path class="cls-3" d="M217.7,362.87c-2.32,1.58-3.94,2.24-4.85,1.99-.91-.33-2.03-1.62-3.36-3.86l-4.6-8.72-13.55,11.33c-.75.66-1.58,1-2.49,1-.91-.08-2.2-.66-3.85-1.74l-11.69-8.47c-2.24-1.58-3.4-2.91-3.48-3.98-.08-1.08.79-2.61,2.61-4.61l11.94-12.58-16.66-2.74c-2.65-.5-4.27-1.2-4.85-2.12-.58-.91-.46-2.66.37-5.23l4.48-13.82c.33-1.08.66-1.91.99-2.49.41-.66.79-1.16,1.12-1.49l16.04-13.57c.33-.33.79-.54,1.37-.62.58-.08,1.28-.04,2.11.12,0-.08.04-.12.12-.12l.12-.12,16.17-13.57c.41-.33.99-.58,1.74-.75.83-.17,1.78-.25,2.86-.25h14.55c2.74,0,4.43.42,5.1,1.25.75.83.87,2.57.37,5.23l-2.24,16.31,15.05-6.97c2.32-1.16,3.98-1.54,4.97-1.12s1.91,1.95,2.74,4.61l4.6,13.82c.58,1.66.83,2.91.75,3.74-.08.83-.41,1.54-.99,2.12l-13.8,11.58,4.97,5.23c1.66,1.83,2.49,3.24,2.49,4.23s-.7,2.16-2.11,3.49l-16.04,13.45c-.17.08-.37.21-.62.37-.17.17-.33.33-.5.5v.12h-.12l-11.81,8.47ZM208.25,346.81l9.08-17.56,9.2,17.56c.99,1.74,1.87,2.74,2.61,2.99.75.17,2.03-.33,3.85-1.49l11.69-8.47c1.74-1.25,2.65-2.28,2.74-3.11.08-.83-.58-2.03-1.99-3.61l-13.68-14.32,19.02-3.11c2.07-.33,3.32-.83,3.73-1.49.5-.75.41-2.16-.25-4.23l-4.6-13.82c-.66-2.08-1.41-3.28-2.24-3.61-.75-.33-2.03-.04-3.85.87l-17.04,7.97,2.49-18.55c.33-2.08.21-3.44-.37-4.11-.5-.66-1.78-1-3.85-1h-14.55c-2.07,0-3.44.33-4.1,1-.58.66-.7,2.03-.37,4.11l2.86,18.55-17.66-7.97c-1.82-.91-3.15-1.2-3.98-.87-.83.33-1.53,1.54-2.11,3.61l-4.48,13.82c-.66,2.08-.79,3.49-.37,4.23.5.66,1.78,1.16,3.85,1.49l18.9,3.11-13.55,14.32c-1.41,1.58-2.07,2.78-1.99,3.61.08.83.99,1.87,2.74,3.11l11.69,8.47c1.82,1.16,3.11,1.66,3.85,1.49.83-.25,1.74-1.25,2.74-2.99ZM231.13,333.99l-13.55-19.3-13.55,19.3-.99-.75,13.18-18.93-21.39-6.97.5-1.25,21.64,7.1v-24.28h1.24v24.28l21.64-7.1.5,1.25-21.39,6.97,13.18,18.93-.99.75Z"/>
      <path class="cls-6" d="M387.01,362.87c-2.32,1.58-3.94,2.24-4.85,1.99-.91-.33-2.03-1.62-3.36-3.86l-4.6-8.72-13.55,11.33c-.75.66-1.58,1-2.49,1-.91-.08-2.2-.66-3.85-1.74l-11.69-8.47c-2.24-1.58-3.4-2.91-3.48-3.98-.08-1.08.79-2.61,2.61-4.61l11.94-12.58-16.66-2.74c-2.65-.5-4.27-1.2-4.85-2.12-.58-.91-.46-2.66.37-5.23l4.48-13.82c.33-1.08.66-1.91.99-2.49.41-.66.79-1.16,1.12-1.49l16.04-13.57c.33-.33.79-.54,1.37-.62.58-.08,1.28-.04,2.11.12,0-.08.04-.12.12-.12l.12-.12,16.17-13.57c.41-.33.99-.58,1.74-.75.83-.17,1.78-.25,2.86-.25h14.55c2.74,0,4.43.42,5.1,1.25.75.83.87,2.57.37,5.23l-2.24,16.31,15.05-6.97c2.32-1.16,3.98-1.54,4.97-1.12s1.91,1.95,2.74,4.61l4.6,13.82c.58,1.66.83,2.91.75,3.74-.08.83-.41,1.54-.99,2.12l-13.8,11.58,4.97,5.23c1.66,1.83,2.49,3.24,2.49,4.23s-.7,2.16-2.11,3.49l-16.04,13.45c-.17.08-.37.21-.62.37-.17.17-.33.33-.5.5v.12h-.12l-11.81,8.47ZM377.56,346.81l9.08-17.56,9.2,17.56c.99,1.74,1.87,2.74,2.61,2.99.75.17,2.03-.33,3.85-1.49l11.69-8.47c1.74-1.25,2.65-2.28,2.74-3.11.08-.83-.58-2.03-1.99-3.61l-13.68-14.32,19.02-3.11c2.07-.33,3.32-.83,3.73-1.49.5-.75.41-2.16-.25-4.23l-4.6-13.82c-.66-2.08-1.41-3.28-2.24-3.61-.75-.33-2.03-.04-3.85.87l-17.04,7.97,2.49-18.55c.33-2.08.21-3.44-.37-4.11-.5-.66-1.78-1-3.85-1h-14.55c-2.07,0-3.44.33-4.1,1-.58.66-.7,2.03-.37,4.11l2.86,18.55-17.66-7.97c-1.82-.91-3.15-1.2-3.98-.87-.83.33-1.53,1.54-2.11,3.61l-4.48,13.82c-.66,2.08-.79,3.49-.37,4.23.5.66,1.78,1.16,3.85,1.49l18.9,3.11-13.55,14.32c-1.41,1.58-2.07,2.78-1.99,3.61.08.83.99,1.87,2.74,3.11l11.69,8.47c1.82,1.16,3.11,1.66,3.85,1.49.83-.25,1.74-1.25,2.74-2.99ZM400.44,333.99l-13.55-19.3-13.55,19.3-.99-.75,13.18-18.93-21.39-6.97.5-1.25,21.64,7.1v-24.28h1.24v24.28l21.64-7.1.5,1.25-21.39,6.97,13.18,18.93-.99.75Z"/>
      <path class="cls-1" d="M556.32,362.87c-2.32,1.58-3.94,2.24-4.85,1.99-.91-.33-2.03-1.62-3.36-3.86l-4.6-8.72-13.55,11.33c-.75.66-1.58,1-2.49,1-.91-.08-2.2-.66-3.85-1.74l-11.69-8.47c-2.24-1.58-3.4-2.91-3.48-3.98-.08-1.08.79-2.61,2.61-4.61l11.94-12.58-16.66-2.74c-2.65-.5-4.27-1.2-4.85-2.12-.58-.91-.46-2.66.37-5.23l4.48-13.82c.33-1.08.66-1.91.99-2.49.41-.66.79-1.16,1.12-1.49l16.04-13.57c.33-.33.79-.54,1.37-.62.58-.08,1.28-.04,2.11.12,0-.08.04-.12.12-.12l.12-.12,16.17-13.57c.41-.33.99-.58,1.74-.75.83-.17,1.78-.25,2.86-.25h14.55c2.74,0,4.43.42,5.1,1.25.75.83.87,2.57.37,5.23l-2.24,16.31,15.05-6.97c2.32-1.16,3.98-1.54,4.97-1.12s1.91,1.95,2.74,4.61l4.6,13.82c.58,1.66.83,2.91.75,3.74-.08.83-.41,1.54-.99,2.12l-13.8,11.58,4.97,5.23c1.66,1.83,2.49,3.24,2.49,4.23s-.7,2.16-2.11,3.49l-16.04,13.45c-.17.08-.37.21-.62.37-.17.17-.33.33-.5.5v.12h-.12l-11.81,8.47ZM546.87,346.81l9.08-17.56,9.2,17.56c.99,1.74,1.87,2.74,2.61,2.99.75.17,2.03-.33,3.85-1.49l11.69-8.47c1.74-1.25,2.65-2.28,2.74-3.11.08-.83-.58-2.03-1.99-3.61l-13.68-14.32,19.02-3.11c2.07-.33,3.32-.83,3.73-1.49.5-.75.41-2.16-.25-4.23l-4.6-13.82c-.66-2.08-1.41-3.28-2.24-3.61-.75-.33-2.03-.04-3.85.87l-17.04,7.97,2.49-18.55c.33-2.08.21-3.44-.37-4.11-.5-.66-1.78-1-3.85-1h-14.55c-2.07,0-3.44.33-4.1,1-.58.66-.7,2.03-.37,4.11l2.86,18.55-17.66-7.97c-1.82-.91-3.15-1.2-3.98-.87-.83.33-1.53,1.54-2.11,3.61l-4.48,13.82c-.66,2.08-.79,3.49-.37,4.23.5.66,1.78,1.16,3.85,1.49l18.9,3.11-13.55,14.32c-1.41,1.58-2.07,2.78-1.99,3.61.08.83.99,1.87,2.74,3.11l11.69,8.47c1.82,1.16,3.11,1.66,3.85,1.49.83-.25,1.74-1.25,2.74-2.99ZM569.75,333.99l-13.55-19.3-13.55,19.3-.99-.75,13.18-18.93-21.39-6.97.5-1.25,21.64,7.1v-24.28h1.24v24.28l21.64-7.1.5,1.25-21.39,6.97,13.18,18.93-.99.75Z"/>
      <g>
        <path class="cls-6" d="M128.01,479.41c-1.97,1.34-3.35,1.9-4.12,1.69-.77-.28-1.73-1.38-2.85-3.28l-3.91-7.4-11.51,9.63c-.63.56-1.34.85-2.11.85-.77-.07-1.87-.56-3.27-1.48l-9.93-7.19c-1.9-1.34-2.89-2.47-2.96-3.38-.07-.92.67-2.22,2.22-3.91l10.14-10.68-14.16-2.33c-2.25-.42-3.63-1.02-4.12-1.8-.49-.78-.39-2.26.32-4.44l3.8-11.74c.28-.92.56-1.62.85-2.12.35-.56.67-.99.95-1.27l13.63-11.53c.28-.28.67-.46,1.16-.53.49-.07,1.09-.04,1.8.11,0-.07.04-.11.11-.11l.11-.11,13.73-11.53c.35-.28.85-.49,1.48-.63.7-.14,1.51-.21,2.43-.21h12.36c2.32,0,3.77.35,4.33,1.06.63.71.74,2.19.32,4.44l-1.9,13.86,12.78-5.92c1.97-.99,3.38-1.3,4.23-.95s1.62,1.66,2.32,3.91l3.91,11.74c.49,1.41.7,2.47.63,3.17-.07.71-.35,1.3-.85,1.8l-11.73,9.84,4.23,4.44c1.41,1.55,2.11,2.75,2.11,3.6s-.6,1.83-1.8,2.96l-13.63,11.42c-.14.07-.32.18-.53.32-.14.14-.28.28-.42.42v.11h-.11l-10.04,7.19ZM119.98,465.76l7.71-14.91,7.82,14.91c.85,1.48,1.58,2.33,2.22,2.54.63.14,1.73-.28,3.27-1.27l9.93-7.19c1.48-1.06,2.25-1.94,2.32-2.64.07-.71-.49-1.73-1.69-3.07l-11.62-12.16,16.16-2.64c1.76-.28,2.82-.71,3.17-1.27.42-.63.35-1.83-.21-3.6l-3.91-11.74c-.56-1.76-1.2-2.79-1.9-3.07-.63-.28-1.73-.04-3.27.74l-14.47,6.77,2.11-15.76c.28-1.76.18-2.93-.32-3.49-.42-.56-1.51-.85-3.27-.85h-12.36c-1.76,0-2.92.28-3.49.85-.49.56-.6,1.73-.32,3.49l2.43,15.76-15-6.77c-1.55-.78-2.68-1.02-3.38-.74-.7.28-1.3,1.3-1.8,3.07l-3.8,11.74c-.56,1.76-.67,2.96-.32,3.6.42.56,1.51.99,3.27,1.27l16.06,2.64-11.52,12.16c-1.2,1.34-1.76,2.36-1.69,3.07.07.71.85,1.59,2.32,2.64l9.93,7.19c1.55.99,2.64,1.41,3.27,1.27.7-.21,1.48-1.06,2.32-2.54ZM139.41,454.87l-11.52-16.4-11.51,16.4-.85-.63,11.2-16.08-18.17-5.92.42-1.06,18.38,6.03v-20.63h1.06v20.63l18.38-6.03.42,1.06-18.17,5.92,11.2,16.08-.85.63Z"/>
        <path class="cls-6" d="M665.15,471.94v-.92c2.18-.63,2.82-2.25,2.82-8.03v-16.2c0-4.93-.85-5.64-2.82-6.48v-.77l7.75-3.38.56.49v26.35c0,5.78.7,7.4,2.82,8.03v.92h-11.13ZM670.3,431.85c-2.18,0-3.88-1.76-3.88-3.87,0-2.25,1.69-3.95,3.88-3.95s3.87,1.69,3.87,3.95c0,2.11-1.69,3.87-3.87,3.87Z"/>
        <path class="cls-6" d="M635.57,471.94v-.92c2.18-.63,2.82-2.25,2.82-8.03v-16.2c0-4.93-.92-5.64-2.82-6.48v-.77l7.68-3.38.63.49v8.81c1.13-2.75,3.03-5.14,5.14-6.69,2.18-1.62,4.65-2.54,8.03-2.54,2.82,0,4.58.7,4.58,1.9,0,1.55-1.55,4.02-4.09,4.02-1.9,0-4.65-.77-8.81-1.97-2.04,1.48-4.58,5.42-4.79,8.81h-.07v14.02c0,5.78.7,7.4,2.82,8.03v.92h-11.13Z"/>
        <path class="cls-6" d="M614.71,472.65c-7.75,0-16.7-5.64-16.7-17.26s8.67-19.16,18.53-19.16c8.88,0,14.02,5.78,14.23,12.47h-27.55c-.14,1.06-.21,2.11-.21,3.24,0,9.65,5.99,16.27,15.15,16.27,5.42,0,9.3-2.47,12.54-6.13l.63.63c-3.59,4.93-9.09,9.93-16.63,9.93ZM603.44,447.78h21.7c-.7-4.72-4.51-10.29-10.92-10.29-5.99-.07-9.65,4.37-10.78,10.29Z"/>
        <path class="cls-6" d="M572.72,472.72c-8.74-.07-15.57-7.61-15.57-17.54s6.69-18.81,18.81-18.88c3.88,0,7.12,1.2,9.58,2.75v-13.39c0-4.93-.92-5.64-2.82-6.48v-.77l7.75-3.38.56.49v47.48c0,5.78.63,7.4,2.82,8.03v.92h-6.2c-1.34,0-2.11-.77-2.11-2.11v-4.02c-3.45,3.59-7.82,6.97-12.82,6.9ZM562.43,450.95c0,8.24,3.87,18.32,13.46,18.32,3.66,0,6.9-1.9,9.65-4.72v-17.26c-.63-4.58-5.85-9.65-11.77-9.65-7.47,0-11.34,5.85-11.34,13.31Z"/>
        <path class="cls-6" d="M515.72,471.94v-.92c2.18-.63,2.82-2.25,2.82-8.03v-16.2c0-4.93-.85-5.64-2.82-6.48v-.77l7.75-3.38.56.49v6.06c4.09-3.31,9.51-6.48,14.93-6.48,6.9,0,11.13,4.02,11.13,12.26v14.51c0,5.78.7,7.4,2.82,8.03v.92h-11.13v-.92c2.18-.63,2.82-2.25,2.82-8.03v-13.1c0-7.33-3.1-11.34-9.3-11.34-3.87,0-7.68,2.32-11.27,5.28v19.16c0,5.78.7,7.4,2.82,8.03v.92h-11.13Z"/>
        <path class="cls-6" d="M505.63,471.94c-1.41,0-2.11-.77-2.11-2.11v-12.68c-2.18,8.67-8.1,15.5-15.08,15.5-5.21,0-9.86-3.17-9.86-9.23,0-7.33,7.4-10.07,15.78-12.4l9.16-2.47c-.35-6.83-3.87-10-9.86-10-4.23,0-8.31,1.97-11.84,6.27l-.63-.56c4.02-5,9.16-8.03,15.29-8.03,8.52,0,12.47,4.72,12.47,12.68v14.09c0,5.78.63,7.4,2.82,8.03v.92h-6.13ZM483.86,461.44c0,4.58,3.17,7.04,7.19,7.04,7.54,0,12.4-9.51,12.47-16.91v-2.11l-8.88,2.4c-5.21,1.48-10.85,3.8-10.78,9.58Z"/>
        <path class="cls-6" d="M437.22,471.94v-.92c2.18-.63,2.82-2.25,2.82-8.03v-37.34c0-4.93-.92-5.64-2.82-6.48v-.77l7.68-3.38.63.49v27.19c4.09-3.31,9.51-6.48,14.94-6.48,6.9,0,11.13,4.02,11.13,12.26v14.51c0,5.78.7,7.4,2.82,8.03v.92h-11.13v-.92c2.18-.63,2.82-2.25,2.82-8.03v-13.1c0-7.33-3.1-11.34-9.3-11.34-3.88,0-7.68,2.32-11.27,5.28v19.16c0,5.78.7,7.4,2.82,8.03v.92h-11.13Z"/>
        <path class="cls-6" d="M410.14,471.94h-14.37v-.92c2.11-.63,2.82-2.25,2.82-8.03v-31.42c0-5.78-.7-7.4-2.82-8.03v-.92h16.48c10.85,0,15.29,3.59,15.29,9.3,0,4.79-3.1,9.16-11.13,10.64,11.48.56,16.56,6.27,16.63,13.17.14,7.89-5.78,16.2-22.9,16.2ZM410.78,470.88c11.48,0,15.85-5.57,15.85-13.39s-4.51-14.02-15.08-14.02h-7.19v21.28c0,5.07.63,6.13,3.66,6.13h2.75ZM410.92,442.42c6.97,0,10.22-4.09,10.22-9.23,0-5.85-4.16-9.51-11.41-9.51h-5.35v18.74h6.55Z"/>
        <path class="cls-6" d="M342.64,471.94v-.92c2.18-.63,2.82-2.25,2.82-8.03v-37.34c0-4.93-.92-5.64-2.82-6.48v-.77l7.68-3.38.63.49v41.14l12.26-11.77c4.58-4.51,5.07-6.97,3.52-7.68v-.49h8.31v.92c-2.11.63-4.44,1.34-8.6,5.28l-5.07,4.93,8.24,14.86c2.75,4.93,4.93,8.17,8.1,8.38v.85h-4.58c-3.45,0-5.78-2.11-9.23-8.45l-6.41-11.91-6.55,6.34v5.07c0,5.78.7,7.4,2.82,8.03v.92h-11.13Z"/>
        <path class="cls-6" d="M326.46,471.94v-.92c2.18-.63,2.82-2.25,2.82-8.03v-16.2c0-4.93-.85-5.64-2.82-6.48v-.77l7.75-3.38.56.49v26.35c0,5.78.7,7.4,2.82,8.03v.92h-11.13ZM331.6,431.85c-2.18,0-3.87-1.76-3.87-3.87,0-2.25,1.69-3.95,3.87-3.95s3.88,1.69,3.88,3.95c0,2.11-1.69,3.87-3.88,3.87Z"/>
        <path class="cls-6" d="M313.3,472.65c-4.44,0-7.11-2.75-7.11-10.07v-24.87h-4.51v-.99l9.02-8.67h.99v8.67h10.71l-.35.99h-10.36v24.87c0,4.79,1.97,6.62,5,6.62,1.97,0,4.44-.92,6.76-3.66l.63.63c-3.03,3.45-6.62,6.48-10.78,6.48Z"/>
        <path class="cls-6" d="M272.66,471.94v-.92c2.18-.63,2.82-2.25,2.82-8.03v-16.2c0-4.93-.92-5.64-2.82-6.48v-.77l7.68-3.38.63.49v8.81c1.13-2.75,3.03-5.14,5.14-6.69,2.18-1.62,4.65-2.54,8.03-2.54,2.82,0,4.58.7,4.58,1.9,0,1.55-1.55,4.02-4.09,4.02-1.9,0-4.65-.77-8.81-1.97-2.04,1.48-4.58,5.42-4.79,8.81h-.07v14.02c0,5.78.7,7.4,2.82,8.03v.92h-11.13Z"/>
        <path class="cls-6" d="M262.57,471.94c-1.41,0-2.11-.77-2.11-2.11v-12.68c-2.18,8.67-8.1,15.5-15.08,15.5-5.21,0-9.86-3.17-9.86-9.23,0-7.33,7.4-10.07,15.78-12.4l9.16-2.47c-.35-6.83-3.87-10-9.86-10-4.23,0-8.31,1.97-11.84,6.27l-.63-.56c4.02-5,9.16-8.03,15.29-8.03,8.52,0,12.47,4.72,12.47,12.68v14.09c0,5.78.63,7.4,2.82,8.03v.92h-6.13ZM240.8,461.44c0,4.58,3.17,7.04,7.19,7.04,7.54,0,12.4-9.51,12.47-16.91v-2.11l-8.88,2.4c-5.21,1.48-10.85,3.8-10.78,9.58Z"/>
        <path class="cls-6" d="M191.58,471.94v-.92c2.11-.63,2.82-2.25,2.82-8.03v-31.42c0-5.78-.7-7.4-2.82-8.03v-.92h11.41v.92c-2.18.63-2.82,2.25-2.82,8.03v17.89l18.46-18.88c4.44-4.58,5.07-6.9,2.32-7.33v-.63h9.79v.92c-2.25.63-5.21,1.34-9.23,5.5l-15.01,15.36,1.62-.07c10.5-.7,12.12,3.1,16.91,15.15,3.59,9.02,5.14,11.48,7.4,11.48.42,0,.77,0,1.2-.07v.92c-1.2.35-2.75.49-4.23.49-5.14,0-6.41-3.03-9.79-11.27-4.65-11.41-5.71-15.71-12.82-15.5h-1.41l-5.21,5.35v12.12c0,5.78.63,7.4,2.82,8.03v.92h-11.41Z"/>
      </g>
      <rect class="cls-6" x=".26" y="128.82" width="756.89" height="124.57"/>
      <g>
        <path class="cls-2" d="M128.01,220.75c-1.97,1.34-3.35,1.9-4.12,1.69-.77-.28-1.73-1.38-2.85-3.28l-3.91-7.4-11.51,9.63c-.63.56-1.34.85-2.11.85-.77-.07-1.87-.56-3.27-1.48l-9.93-7.19c-1.9-1.34-2.89-2.47-2.96-3.38-.07-.92.67-2.22,2.22-3.91l10.14-10.68-14.16-2.33c-2.25-.42-3.63-1.02-4.12-1.8-.49-.78-.39-2.26.32-4.44l3.8-11.74c.28-.92.56-1.62.85-2.12.35-.56.67-.99.95-1.27l13.63-11.53c.28-.28.67-.46,1.16-.53.49-.07,1.09-.04,1.8.11,0-.07.04-.11.11-.11l.11-.11,13.73-11.53c.35-.28.85-.49,1.48-.63.7-.14,1.51-.21,2.43-.21h12.36c2.32,0,3.77.35,4.33,1.06.63.71.74,2.19.32,4.44l-1.9,13.86,12.78-5.92c1.97-.99,3.38-1.3,4.23-.95s1.62,1.66,2.32,3.91l3.91,11.74c.49,1.41.7,2.47.63,3.17-.07.71-.35,1.3-.85,1.8l-11.73,9.84,4.23,4.44c1.41,1.55,2.11,2.75,2.11,3.6s-.6,1.83-1.8,2.96l-13.63,11.42c-.14.07-.32.18-.53.32-.14.14-.28.28-.42.42v.11h-.11l-10.04,7.19ZM119.98,207.11l7.71-14.91,7.82,14.91c.85,1.48,1.58,2.33,2.22,2.54.63.14,1.73-.28,3.27-1.27l9.93-7.19c1.48-1.06,2.25-1.94,2.32-2.64.07-.71-.49-1.73-1.69-3.07l-11.62-12.16,16.16-2.64c1.76-.28,2.82-.71,3.17-1.27.42-.63.35-1.83-.21-3.6l-3.91-11.74c-.56-1.76-1.2-2.79-1.9-3.07-.63-.28-1.73-.04-3.27.74l-14.47,6.77,2.11-15.76c.28-1.76.18-2.93-.32-3.49-.42-.56-1.51-.85-3.27-.85h-12.36c-1.76,0-2.92.28-3.49.85-.49.56-.6,1.73-.32,3.49l2.43,15.76-15-6.77c-1.55-.78-2.68-1.02-3.38-.74-.7.28-1.3,1.3-1.8,3.07l-3.8,11.74c-.56,1.76-.67,2.96-.32,3.6.42.56,1.51.99,3.27,1.27l16.06,2.64-11.52,12.16c-1.2,1.34-1.76,2.36-1.69,3.07.07.71.85,1.59,2.32,2.64l9.93,7.19c1.55.99,2.64,1.41,3.27,1.27.7-.21,1.48-1.06,2.32-2.54ZM139.41,196.21l-11.52-16.4-11.51,16.4-.85-.63,11.2-16.08-18.17-5.92.42-1.06,18.38,6.03v-20.63h1.06v20.63l18.38-6.03.42,1.06-18.17,5.92,11.2,16.08-.85.63Z"/>
        <path class="cls-2" d="M665.15,213.28v-.92c2.18-.63,2.82-2.25,2.82-8.03v-16.2c0-4.93-.85-5.64-2.82-6.48v-.77l7.75-3.38.56.49v26.35c0,5.78.7,7.4,2.82,8.03v.92h-11.13ZM670.3,173.2c-2.18,0-3.88-1.76-3.88-3.87,0-2.25,1.69-3.95,3.88-3.95s3.87,1.69,3.87,3.95c0,2.11-1.69,3.87-3.87,3.87Z"/>
        <path class="cls-2" d="M635.57,213.28v-.92c2.18-.63,2.82-2.25,2.82-8.03v-16.2c0-4.93-.92-5.64-2.82-6.48v-.77l7.68-3.38.63.49v8.81c1.13-2.75,3.03-5.14,5.14-6.69,2.18-1.62,4.65-2.54,8.03-2.54,2.82,0,4.58.7,4.58,1.9,0,1.55-1.55,4.02-4.09,4.02-1.9,0-4.65-.77-8.81-1.97-2.04,1.48-4.58,5.42-4.79,8.81h-.07v14.02c0,5.78.7,7.4,2.82,8.03v.92h-11.13Z"/>
        <path class="cls-2" d="M614.71,213.99c-7.75,0-16.7-5.64-16.7-17.26s8.67-19.16,18.53-19.16c8.88,0,14.02,5.78,14.23,12.47h-27.55c-.14,1.06-.21,2.11-.21,3.24,0,9.65,5.99,16.27,15.15,16.27,5.42,0,9.3-2.47,12.54-6.13l.63.63c-3.59,4.93-9.09,9.93-16.63,9.93ZM603.44,189.12h21.7c-.7-4.72-4.51-10.29-10.92-10.29-5.99-.07-9.65,4.37-10.78,10.29Z"/>
        <path class="cls-2" d="M572.72,214.06c-8.74-.07-15.57-7.61-15.57-17.54s6.69-18.81,18.81-18.88c3.88,0,7.12,1.2,9.58,2.75v-13.39c0-4.93-.92-5.64-2.82-6.48v-.77l7.75-3.38.56.49v47.48c0,5.78.63,7.4,2.82,8.03v.92h-6.2c-1.34,0-2.11-.77-2.11-2.11v-4.02c-3.45,3.59-7.82,6.97-12.82,6.9ZM562.43,192.29c0,8.24,3.87,18.32,13.46,18.32,3.66,0,6.9-1.9,9.65-4.72v-17.26c-.63-4.58-5.85-9.65-11.77-9.65-7.47,0-11.34,5.85-11.34,13.31Z"/>
        <path class="cls-2" d="M515.72,213.28v-.92c2.18-.63,2.82-2.25,2.82-8.03v-16.2c0-4.93-.85-5.64-2.82-6.48v-.77l7.75-3.38.56.49v6.06c4.09-3.31,9.51-6.48,14.93-6.48,6.9,0,11.13,4.02,11.13,12.26v14.51c0,5.78.7,7.4,2.82,8.03v.92h-11.13v-.92c2.18-.63,2.82-2.25,2.82-8.03v-13.1c0-7.33-3.1-11.34-9.3-11.34-3.87,0-7.68,2.32-11.27,5.28v19.16c0,5.78.7,7.4,2.82,8.03v.92h-11.13Z"/>
        <path class="cls-2" d="M505.63,213.28c-1.41,0-2.11-.77-2.11-2.11v-12.68c-2.18,8.67-8.1,15.5-15.08,15.5-5.21,0-9.86-3.17-9.86-9.23,0-7.33,7.4-10.07,15.78-12.4l9.16-2.47c-.35-6.83-3.87-10-9.86-10-4.23,0-8.31,1.97-11.84,6.27l-.63-.56c4.02-5,9.16-8.03,15.29-8.03,8.52,0,12.47,4.72,12.47,12.68v14.09c0,5.78.63,7.4,2.82,8.03v.92h-6.13ZM483.86,202.78c0,4.58,3.17,7.04,7.19,7.04,7.54,0,12.4-9.51,12.47-16.91v-2.11l-8.88,2.4c-5.21,1.48-10.85,3.8-10.78,9.58Z"/>
        <path class="cls-2" d="M437.22,213.28v-.92c2.18-.63,2.82-2.25,2.82-8.03v-37.34c0-4.93-.92-5.64-2.82-6.48v-.77l7.68-3.38.63.49v27.19c4.09-3.31,9.51-6.48,14.94-6.48,6.9,0,11.13,4.02,11.13,12.26v14.51c0,5.78.7,7.4,2.82,8.03v.92h-11.13v-.92c2.18-.63,2.82-2.25,2.82-8.03v-13.1c0-7.33-3.1-11.34-9.3-11.34-3.88,0-7.68,2.32-11.27,5.28v19.16c0,5.78.7,7.4,2.82,8.03v.92h-11.13Z"/>
        <path class="cls-2" d="M410.14,213.28h-14.37v-.92c2.11-.63,2.82-2.25,2.82-8.03v-31.42c0-5.78-.7-7.4-2.82-8.03v-.92h16.48c10.85,0,15.29,3.59,15.29,9.3,0,4.79-3.1,9.16-11.13,10.64,11.48.56,16.56,6.27,16.63,13.17.14,7.89-5.78,16.2-22.9,16.2ZM410.78,212.22c11.48,0,15.85-5.57,15.85-13.39s-4.51-14.02-15.08-14.02h-7.19v21.28c0,5.07.63,6.13,3.66,6.13h2.75ZM410.92,183.76c6.97,0,10.22-4.09,10.22-9.23,0-5.85-4.16-9.51-11.41-9.51h-5.35v18.74h6.55Z"/>
        <path class="cls-2" d="M342.64,213.28v-.92c2.18-.63,2.82-2.25,2.82-8.03v-37.34c0-4.93-.92-5.64-2.82-6.48v-.77l7.68-3.38.63.49v41.14l12.26-11.77c4.58-4.51,5.07-6.97,3.52-7.68v-.49h8.31v.92c-2.11.63-4.44,1.34-8.6,5.28l-5.07,4.93,8.24,14.86c2.75,4.93,4.93,8.17,8.1,8.38v.85h-4.58c-3.45,0-5.78-2.11-9.23-8.45l-6.41-11.91-6.55,6.34v5.07c0,5.78.7,7.4,2.82,8.03v.92h-11.13Z"/>
        <path class="cls-2" d="M326.46,213.28v-.92c2.18-.63,2.82-2.25,2.82-8.03v-16.2c0-4.93-.85-5.64-2.82-6.48v-.77l7.75-3.38.56.49v26.35c0,5.78.7,7.4,2.82,8.03v.92h-11.13ZM331.6,173.2c-2.18,0-3.87-1.76-3.87-3.87,0-2.25,1.69-3.95,3.87-3.95s3.88,1.69,3.88,3.95c0,2.11-1.69,3.87-3.88,3.87Z"/>
        <path class="cls-2" d="M313.3,213.99c-4.44,0-7.11-2.75-7.11-10.07v-24.87h-4.51v-.99l9.02-8.67h.99v8.67h10.71l-.35.99h-10.36v24.87c0,4.79,1.97,6.62,5,6.62,1.97,0,4.44-.92,6.76-3.66l.63.63c-3.03,3.45-6.62,6.48-10.78,6.48Z"/>
        <path class="cls-2" d="M272.66,213.28v-.92c2.18-.63,2.82-2.25,2.82-8.03v-16.2c0-4.93-.92-5.64-2.82-6.48v-.77l7.68-3.38.63.49v8.81c1.13-2.75,3.03-5.14,5.14-6.69,2.18-1.62,4.65-2.54,8.03-2.54,2.82,0,4.58.7,4.58,1.9,0,1.55-1.55,4.02-4.09,4.02-1.9,0-4.65-.77-8.81-1.97-2.04,1.48-4.58,5.42-4.79,8.81h-.07v14.02c0,5.78.7,7.4,2.82,8.03v.92h-11.13Z"/>
        <path class="cls-2" d="M262.57,213.28c-1.41,0-2.11-.77-2.11-2.11v-12.68c-2.18,8.67-8.1,15.5-15.08,15.5-5.21,0-9.86-3.17-9.86-9.23,0-7.33,7.4-10.07,15.78-12.4l9.16-2.47c-.35-6.83-3.87-10-9.86-10-4.23,0-8.31,1.97-11.84,6.27l-.63-.56c4.02-5,9.16-8.03,15.29-8.03,8.52,0,12.47,4.72,12.47,12.68v14.09c0,5.78.63,7.4,2.82,8.03v.92h-6.13ZM240.8,202.78c0,4.58,3.17,7.04,7.19,7.04,7.54,0,12.4-9.51,12.47-16.91v-2.11l-8.88,2.4c-5.21,1.48-10.85,3.8-10.78,9.58Z"/>
        <path class="cls-2" d="M191.58,213.28v-.92c2.11-.63,2.82-2.25,2.82-8.03v-31.42c0-5.78-.7-7.4-2.82-8.03v-.92h11.41v.92c-2.18.63-2.82,2.25-2.82,8.03v17.89l18.46-18.88c4.44-4.58,5.07-6.9,2.32-7.33v-.63h9.79v.92c-2.25.63-5.21,1.34-9.23,5.5l-15.01,15.36,1.62-.07c10.5-.7,12.12,3.1,16.91,15.15,3.59,9.02,5.14,11.48,7.4,11.48.42,0,.77,0,1.2-.07v.92c-1.2.35-2.75.49-4.23.49-5.14,0-6.41-3.03-9.79-11.27-4.65-11.41-5.71-15.71-12.82-15.5h-1.41l-5.21,5.35v12.12c0,5.78.63,7.4,2.82,8.03v.92h-11.41Z"/>
      </g>
      <g>
        <path class="cls-1" d="M740.83,98.44l5.62.77v-2.52h.67v2.62s4.44.6,4.44.6v.7s-4.44-.6-4.44-.6v5.45s4.44.6,4.44.6v.7s-4.44-.6-4.44-.6v2.18h-.67v-2.28s-5.62-.74-5.62-.74v2.5h-.67v-2.59s-4.44-.6-4.44-.6v-.72s4.44.6,4.44.6v-5.42s-4.44-.6-4.44-.6v-.72s4.44.6,4.44.6v-2.18h.67v2.28ZM746.45,99.9l-5.62-.74v5.42s5.62.77,5.62.77v-5.45Z"/>
        <path class="cls-1" d="M735.72,92.94v-9.5h.7v8.74s6.62,0,6.62,0v-7.3h.7v7.3s7.82,0,7.82,0v.77h-15.84Z"/>
        <path class="cls-1" d="M735.72,80.61v-9.5h.7v8.74s6.62,0,6.62,0v-7.3h.7v7.3s7.82,0,7.82,0v.77h-15.84Z"/>
        <path class="cls-1" d="M735.72,68.27v-9.5h.7v8.74s6.62,0,6.62,0v-7.3h.7v7.3s7.82,0,7.82,0v.77h-15.84Z"/>
        <path class="cls-1" d="M735.72,55.93v-9.5h.7v8.74s6.62,0,6.62,0v-7.3h.7v7.3s7.82,0,7.82,0v.77h-15.84Z"/>
        <path class="cls-1" d="M735.72,43.6v-9.5h.7v8.74s6.62,0,6.62,0v-7.3h.7v7.3s7.82,0,7.82,0v.77h-15.84Z"/>
        <path class="cls-1" d="M735.72,31.26v-9.5h.7v8.74s6.62,0,6.62,0v-7.3h.7v7.3s7.82,0,7.82,0v.77h-15.84Z"/>
      </g>
      <g>
        <path class="cls-2" d="M740.59,231.54l5.62.77v-2.52h.67v2.62l4.44.6v.7l-4.44-.6v5.45l4.44.6v.7l-4.44-.6v2.18h-.67v-2.28l-5.62-.74v2.5h-.67v-2.59l-4.44-.6v-.72l4.44.6v-5.42l-4.44-.6v-.72l4.44.6v-2.18h.67v2.28ZM746.21,233l-5.62-.74v5.42l5.62.77v-5.45Z"/>
        <path class="cls-2" d="M735.48,226.04v-9.5h.7v8.74h6.62v-7.3h.7v7.3h7.82v.77h-15.84Z"/>
        <path class="cls-2" d="M735.24,206.92c0-2.57,1.18-4.82,3.1-6.26l.46.58c-1.75,1.32-2.81,3.29-2.81,5.66-.07,4.06,3.29,7.27,7.39,7.22,4.1.07,7.51-3.17,7.44-7.22,0-2.38-1.06-4.34-2.81-5.66l.46-.58c1.92,1.44,3.1,3.7,3.1,6.26.1,4.39-3.67,8.09-8.16,8.02-4.54.07-8.26-3.62-8.16-8.02Z"/>
        <path class="cls-2" d="M735.48,196.81v-9.5h.7v8.74h6.62v-7.3h.7v7.3h7.82v.77h-15.84Z"/>
        <path class="cls-2" d="M744.86,177.23l.53.36,5.93,3.94v.91l-6.77-4.58c.5.74.77,1.58.77,2.57,0,2.86-2.26,5.09-5.04,5.09s-5.04-2.18-5.04-5.06,2.23-5.06,5.06-5.06c1.61,0,2.66.58,4.56,1.85ZM735.93,180.45c0,2.42,1.87,4.3,4.32,4.3s4.37-1.87,4.37-4.3-1.92-4.3-4.37-4.3-4.32,1.87-4.32,4.3Z"/>
        <path class="cls-2" d="M735.24,164.56c0-2.57,1.18-4.82,3.1-6.26l.46.58c-1.75,1.32-2.81,3.29-2.81,5.66-.07,4.06,3.29,7.27,7.39,7.22,4.1.07,7.51-3.17,7.44-7.22,0-2.38-1.06-4.34-2.81-5.66l.46-.58c1.92,1.44,3.1,3.7,3.1,6.26.1,4.39-3.67,8.09-8.16,8.02-4.54.07-8.26-3.62-8.16-8.02Z"/>
        <path class="cls-2" d="M735.48,154.45v-9.74h.7v8.98h6.17v-7.06h.7v7.06h7.58v-9.26h.7v10.03h-15.84Z"/>
      </g>
      <g>
        <path class="cls-6" d="M741.12,493.01l5.62.77v-2.52h.67v2.62l4.44.6v.7l-4.44-.6v5.45l4.44.6v.7l-4.44-.6v2.18h-.67v-2.28l-5.62-.74v2.5h-.67v-2.59l-4.44-.6v-.72l4.44.6v-5.42l-4.44-.6v-.72l4.44.6v-2.18h.67v2.28ZM746.74,494.48l-5.62-.74v5.42l5.62.77v-5.45Z"/>
        <path class="cls-6" d="M737.95,486.87c-1.46-.89-2.18-2.26-2.18-4.08s.72-3.17,2.18-4.06c1.44-.89,3.38-1.34,5.83-1.34s4.44.43,6,1.32c1.54.86,2.3,2.23,2.3,4.08s-.77,3.22-2.3,4.1c-1.56.86-3.55,1.3-6,1.3s-4.39-.43-5.83-1.32ZM738.51,479.31c-1.32.72-1.99,1.87-1.99,3.48s.67,2.76,1.99,3.5c1.32.72,3.07,1.08,5.28,1.08s4.08-.36,5.47-1.1c1.39-.74,2.09-1.9,2.09-3.48s-.7-2.74-2.09-3.48c-1.39-.74-3.22-1.1-5.47-1.1s-3.96.36-5.28,1.1Z"/>
        <path class="cls-6" d="M737.95,472.47c-1.46-.89-2.18-2.26-2.18-4.08s.72-3.17,2.18-4.06c1.44-.89,3.38-1.34,5.83-1.34s4.44.43,6,1.32c1.54.86,2.3,2.23,2.3,4.08s-.77,3.22-2.3,4.1c-1.56.86-3.55,1.3-6,1.3s-4.39-.43-5.83-1.32ZM738.51,464.91c-1.32.72-1.99,1.87-1.99,3.48s.67,2.76,1.99,3.5c1.32.72,3.07,1.08,5.28,1.08s4.08-.36,5.47-1.1c1.39-.74,2.09-1.9,2.09-3.48s-.7-2.74-2.09-3.48c-1.39-.74-3.22-1.1-5.47-1.1s-3.96.36-5.28,1.1Z"/>
        <path class="cls-6" d="M737.95,458.07c-1.46-.89-2.18-2.26-2.18-4.08s.72-3.17,2.18-4.06c1.44-.89,3.38-1.34,5.83-1.34s4.44.43,6,1.32c1.54.86,2.3,2.23,2.3,4.08s-.77,3.22-2.3,4.1c-1.56.86-3.55,1.3-6,1.3s-4.39-.43-5.83-1.32ZM738.51,450.51c-1.32.72-1.99,1.87-1.99,3.48s.67,2.76,1.99,3.5c1.32.72,3.07,1.08,5.28,1.08s4.08-.36,5.47-1.1c1.39-.74,2.09-1.9,2.09-3.48s-.7-2.74-2.09-3.48c-1.39-.74-3.22-1.1-5.47-1.1s-3.96.36-5.28,1.1Z"/>
        <path class="cls-6" d="M737.95,443.67c-1.46-.89-2.18-2.26-2.18-4.08s.72-3.17,2.18-4.06c1.44-.89,3.38-1.34,5.83-1.34s4.44.43,6,1.32c1.54.86,2.3,2.23,2.3,4.08s-.77,3.22-2.3,4.1c-1.56.86-3.55,1.3-6,1.3s-4.39-.43-5.83-1.32ZM738.51,436.11c-1.32.72-1.99,1.87-1.99,3.48s.67,2.76,1.99,3.5c1.32.72,3.07,1.08,5.28,1.08s4.08-.36,5.47-1.1c1.39-.74,2.09-1.9,2.09-3.48s-.7-2.74-2.09-3.48c-1.39-.74-3.22-1.1-5.47-1.1s-3.96.36-5.28,1.1Z"/>
        <path class="cls-6" d="M737.95,429.27c-1.46-.89-2.18-2.26-2.18-4.08s.72-3.17,2.18-4.06c1.44-.89,3.38-1.34,5.83-1.34s4.44.43,6,1.32c1.54.86,2.3,2.23,2.3,4.08s-.77,3.22-2.3,4.1c-1.56.86-3.55,1.3-6,1.3s-4.39-.43-5.83-1.32ZM738.51,421.71c-1.32.72-1.99,1.87-1.99,3.48s.67,2.76,1.99,3.5c1.32.72,3.07,1.08,5.28,1.08s4.08-.36,5.47-1.1c1.39-.74,2.09-1.9,2.09-3.48s-.7-2.74-2.09-3.48c-1.39-.74-3.22-1.1-5.47-1.1s-3.96.36-5.28,1.1Z"/>
        <path class="cls-6" d="M737.95,414.87c-1.46-.89-2.18-2.26-2.18-4.08s.72-3.17,2.18-4.06c1.44-.89,3.38-1.34,5.83-1.34s4.44.43,6,1.32c1.54.86,2.3,2.23,2.3,4.08s-.77,3.22-2.3,4.1c-1.56.86-3.55,1.3-6,1.3s-4.39-.43-5.83-1.32ZM738.51,407.31c-1.32.72-1.99,1.87-1.99,3.48s.67,2.76,1.99,3.5c1.32.72,3.07,1.08,5.28,1.08s4.08-.36,5.47-1.1c1.39-.74,2.09-1.9,2.09-3.48s-.7-2.74-2.09-3.48c-1.39-.74-3.22-1.1-5.47-1.1s-3.96.36-5.28,1.1Z"/>
      </g>
      <g>
        <path class="cls-4" d="M737.78,362.36l5.62.77v-2.52h.67v2.62l4.44.6v.7l-4.44-.6v5.45l4.44.6v.7l-4.44-.6v2.18h-.67v-2.28l-5.62-.74v2.5h-.67v-2.59l-4.44-.6v-.72l4.44.6v-5.42l-4.44-.6v-.72l4.44.6v-2.18h.67v2.28ZM743.4,363.82l-5.62-.74v5.42l5.62.77v-5.45Z"/>
        <path class="cls-4" d="M732.43,349.95c0-2.57,1.18-4.82,3.1-6.26l.46.58c-1.75,1.32-2.81,3.29-2.81,5.66-.07,4.06,3.29,7.27,7.39,7.22,4.1.07,7.51-3.17,7.44-7.22,0-2.38-1.06-4.34-2.81-5.66l.46-.58c1.92,1.44,3.1,3.7,3.1,6.26.1,4.39-3.67,8.09-8.16,8.02-4.54.07-8.26-3.62-8.16-8.02Z"/>
        <path class="cls-4" d="M732.43,333.06c0-2.57,1.18-4.82,3.1-6.26l.46.58c-1.75,1.32-2.81,3.29-2.81,5.66-.07,4.06,3.29,7.27,7.39,7.22,4.1.07,7.51-3.17,7.44-7.22,0-2.38-1.06-4.34-2.81-5.66l.46-.58c1.92,1.44,3.1,3.7,3.1,6.26.1,4.39-3.67,8.09-8.16,8.02-4.54.07-8.26-3.62-8.16-8.02Z"/>
        <path class="cls-4" d="M734.62,322.31c-1.46-.89-2.18-2.26-2.18-4.08s.72-3.17,2.18-4.06c1.44-.89,3.38-1.34,5.83-1.34s4.44.43,6,1.32c1.54.86,2.3,2.23,2.3,4.08s-.77,3.22-2.3,4.1c-1.56.86-3.55,1.3-6,1.3s-4.39-.43-5.83-1.32ZM735.17,314.75c-1.32.72-1.99,1.87-1.99,3.48s.67,2.76,1.99,3.5c1.32.72,3.07,1.08,5.28,1.08s4.08-.36,5.47-1.1c1.39-.74,2.09-1.9,2.09-3.48s-.7-2.74-2.09-3.48c-1.39-.74-3.22-1.1-5.47-1.1s-3.96.36-5.28,1.1Z"/>
        <path class="cls-4" d="M734.62,307.91c-1.46-.89-2.18-2.26-2.18-4.08s.72-3.17,2.18-4.06c1.44-.89,3.38-1.34,5.83-1.34s4.44.43,6,1.32c1.54.86,2.3,2.23,2.3,4.08s-.77,3.22-2.3,4.1c-1.56.86-3.55,1.3-6,1.3s-4.39-.43-5.83-1.32ZM735.17,300.35c-1.32.72-1.99,1.87-1.99,3.48s.67,2.76,1.99,3.5c1.32.72,3.07,1.08,5.28,1.08s4.08-.36,5.47-1.1c1.39-.74,2.09-1.9,2.09-3.48s-.7-2.74-2.09-3.48c-1.39-.74-3.22-1.1-5.47-1.1s-3.96.36-5.28,1.1Z"/>
        <path class="cls-4" d="M734.62,293.51c-1.46-.89-2.18-2.26-2.18-4.08s.72-3.17,2.18-4.06c1.44-.89,3.38-1.34,5.83-1.34s4.44.43,6,1.32c1.54.86,2.3,2.23,2.3,4.08s-.77,3.22-2.3,4.1c-1.56.86-3.55,1.3-6,1.3s-4.39-.43-5.83-1.32ZM735.17,285.95c-1.32.72-1.99,1.87-1.99,3.48s.67,2.76,1.99,3.5c1.32.72,3.07,1.08,5.28,1.08s4.08-.36,5.47-1.1c1.39-.74,2.09-1.9,2.09-3.48s-.7-2.74-2.09-3.48c-1.39-.74-3.22-1.1-5.47-1.1s-3.96.36-5.28,1.1Z"/>
        <path class="cls-4" d="M734.62,279.11c-1.46-.89-2.18-2.26-2.18-4.08s.72-3.17,2.18-4.06c1.44-.89,3.38-1.34,5.83-1.34s4.44.43,6,1.32c1.54.86,2.3,2.23,2.3,4.08s-.77,3.22-2.3,4.1c-1.56.86-3.55,1.3-6,1.3s-4.39-.43-5.83-1.32ZM735.17,271.55c-1.32.72-1.99,1.87-1.99,3.48s.67,2.76,1.99,3.5c1.32.72,3.07,1.08,5.28,1.08s4.08-.36,5.47-1.1c1.39-.74,2.09-1.9,2.09-3.48s-.7-2.74-2.09-3.48c-1.39-.74-3.22-1.1-5.47-1.1s-3.96.36-5.28,1.1Z"/>
      </g>
    </g>
  </g>
</svg>