<svg width="996" height="450" viewBox="0 0 996 450" fill="none" xmlns="http://www.w3.org/2000/svg">
<path d="M450 0H0V450H450V0Z" fill="#231F20"/>
<path d="M251.44 213.286C248.25 222.556 240.46 229.996 230.19 232.286C228.67 232.626 227.15 232.836 225.64 232.936C216.35 234.166 207.35 230.825 201.1 224.505L186.68 227.715C195.92 241.065 212.65 248.205 229.47 244.455C230.24 244.285 231.01 244.085 231.77 243.875C232.54 243.755 233.32 243.596 234.1 243.426C250.93 239.676 263.03 226.115 265.72 210.105L251.44 213.286Z" fill="#EC4824"/>
<path d="M292.269 180.426C283.909 182.286 275.589 180.206 269.259 175.406C269.259 175.406 269.249 175.396 269.229 175.366C267.579 174.116 266.069 172.686 264.729 171.096C261.339 167.906 256.889 163.856 254.559 162.206C254.319 162.036 254.109 161.896 253.919 161.776C243.359 151.186 227.939 145.886 212.279 148.786C212.029 148.836 211.769 148.886 211.519 148.936C211.209 148.996 210.899 149.066 210.589 149.136C210.339 149.186 210.089 149.246 209.849 149.316C209.599 149.376 209.339 149.436 209.099 149.506C193.689 153.536 181.979 164.886 176.909 178.956C176.779 179.146 176.649 179.366 176.509 179.626C176.509 179.626 176.509 179.626 176.509 179.636C175.089 182.116 172.789 187.676 171.069 191.996C170.529 194.016 169.779 195.956 168.809 197.786C168.809 197.816 168.789 197.836 168.789 197.836C165.099 204.876 158.449 210.296 150.089 212.156L125.559 217.626L126.759 222.996L318.039 180.366L316.839 174.996L292.309 180.466L292.269 180.426ZM248.529 185.436C247.819 186.846 246.889 187.836 246.149 188.476L237.729 190.346L203.409 197.966L194.879 199.866C193.959 199.616 192.789 199.146 191.649 198.256C188.109 195.486 187.919 190.966 187.899 190.146C188.119 189.056 188.389 187.986 188.709 186.936C192.059 175.986 201.039 167.096 213.019 164.426C213.349 164.356 213.679 164.286 214.009 164.216C214.339 164.136 214.659 164.056 214.989 163.986C228.289 161.016 241.519 166.576 248.949 177.036C249.269 177.976 250.419 181.706 248.549 185.446L248.529 185.436Z" fill="#EC4824"/>
<path d="M27.03 266.936V264.086C27.03 263.266 26.99 262.576 26.91 262.046C26.83 261.506 26.63 261.106 26.32 260.836C26.01 260.566 25.55 260.436 24.93 260.436C24.52 260.436 24 260.496 23.38 260.626C22.92 260.706 22.34 260.776 21.61 260.816C20.88 260.856 20.24 260.876 19.66 260.876H18.89C18.66 260.876 18.51 260.856 18.42 260.816C18.01 260.696 17.7 260.416 17.49 259.976C17.28 259.546 17.15 259.026 17.09 258.426C17.03 257.826 17 257.186 17 256.506V254.556C17 253.606 17.02 252.876 17.06 252.356C17.1 251.836 17.22 251.456 17.4 251.206C17.58 250.956 17.85 250.796 18.21 250.706C18.56 250.626 19.04 250.566 19.66 250.516C20.15 250.436 20.58 250.386 20.93 250.366C21.28 250.346 21.64 250.336 22.01 250.336H22.81C23.1 250.336 23.43 250.356 23.8 250.396C24.17 250.436 24.51 250.456 24.82 250.456H25.65C26.23 250.456 26.7 250.436 27.07 250.396C27.44 250.356 27.84 250.316 28.28 250.276C28.71 250.236 29.22 250.196 29.8 250.156C30.38 250.116 31.12 250.096 32.03 250.096H36.61C37.6 250.096 38.61 250.106 39.64 250.126C40.67 250.146 41.63 250.166 42.52 250.186C43.41 250.206 44.16 250.236 44.78 250.276C45.4 250.316 45.77 250.356 45.89 250.396C46.47 250.646 46.75 251.336 46.73 252.466C46.71 253.606 46.68 255.156 46.64 257.136C46.6 258.336 46.4 259.116 46.05 259.486C45.7 259.856 45.17 260.046 44.47 260.046C43.98 260.046 43.41 260.006 42.77 259.926C42.13 259.846 41.4 259.806 40.57 259.806C39.5 259.806 38.63 259.906 37.97 260.116C37.31 260.326 36.94 261.026 36.86 262.216C36.82 262.716 36.81 263.796 36.83 265.466C36.85 267.136 36.88 269.106 36.92 271.376C36.96 273.646 37.01 276.096 37.08 278.716C37.14 281.336 37.19 283.836 37.24 286.206C37.28 288.576 37.3 290.706 37.3 292.586C37.3 294.466 37.28 295.796 37.24 296.576C37.16 297.686 37.08 298.556 37.02 299.176C36.96 299.796 36.83 300.236 36.65 300.506C36.46 300.776 36.2 300.936 35.85 300.996C35.5 301.056 35.01 301.086 34.4 301.086H34.09C33.26 301.086 32.47 301.126 31.71 301.206C30.94 301.286 30.23 301.326 29.57 301.326C29.07 301.326 28.64 301.286 28.27 301.206C27.9 301.126 27.61 300.936 27.4 300.646C27.23 300.436 27.12 300.106 27.06 299.656C27 299.196 26.96 298.516 26.94 297.616C26.92 296.716 26.93 295.486 26.97 293.966C27.01 292.436 27.05 290.456 27.09 288.026C27.13 285.586 27.15 282.646 27.15 279.206C27.15 275.766 27.11 271.666 27.03 266.916V266.936Z" fill="#EC4824"/>
<path d="M70.5495 275.975C70.5095 274.735 70.5495 273.386 70.6695 271.926C70.7895 270.466 70.7495 268.815 70.5495 267.005C70.4695 266.555 70.4295 266.005 70.4295 265.365C70.4295 264.725 70.4495 263.666 70.4895 262.176C70.5295 259.946 70.4995 258.236 70.3995 257.036C70.2995 255.836 70.2095 254.926 70.1495 254.286C70.0895 253.646 70.0695 253.175 70.0895 252.865C70.1095 252.555 70.2395 252.175 70.4895 251.725C70.7395 251.275 71.1195 250.975 71.6395 250.825C72.1595 250.675 72.6795 250.605 73.2195 250.605C73.6695 250.605 73.9995 250.626 74.2095 250.666C74.4595 250.706 74.7195 250.725 75.0095 250.725H77.1795C77.8795 250.725 78.5495 250.775 79.1895 250.885C79.8295 250.985 80.3095 251.225 80.6395 251.595C80.8095 251.805 80.8895 252.126 80.8895 252.556C80.8895 252.986 80.8595 253.475 80.7995 254.005C80.7395 254.545 80.6795 255.126 80.6095 255.766C80.5495 256.406 80.5395 257.036 80.5795 257.656C80.6195 258.196 80.6595 259.116 80.6995 260.446C80.7395 261.766 80.7695 263.145 80.7895 264.595C80.8095 266.045 80.8295 267.406 80.8495 268.676C80.8695 269.956 80.8795 270.845 80.8795 271.335C80.8795 272.285 80.8695 273.066 80.8495 273.686C80.8295 274.306 80.7995 274.905 80.7595 275.475C80.7195 276.055 80.6795 276.675 80.6395 277.335C80.5995 277.995 80.5795 278.845 80.5795 279.875V283.745C80.5795 285.295 80.6195 287.245 80.6995 289.595C80.7395 291.245 80.7695 292.556 80.7895 293.526C80.8095 294.496 80.8195 295.246 80.8195 295.786C80.8195 296.326 80.7995 296.725 80.7595 296.995C80.7195 297.265 80.6595 297.526 80.5695 297.766C80.3995 298.346 80.1995 298.886 79.9495 299.406C79.6995 299.926 79.4695 300.285 79.2695 300.485C79.0995 300.605 78.9795 300.685 78.8995 300.705C78.8195 300.725 78.6295 300.735 78.3395 300.735C77.8795 300.655 77.4495 300.615 77.0395 300.615H75.9295C75.0995 300.615 74.4395 300.645 73.9495 300.705C73.4495 300.765 73.0195 300.796 72.6495 300.796C72.2395 300.796 71.9295 300.756 71.7195 300.676C71.5095 300.596 71.2395 300.426 70.9095 300.176C70.5795 299.926 70.3695 299.716 70.2895 299.556C70.2895 299.516 70.2695 298.915 70.2295 297.755C70.1895 296.595 70.1595 295.276 70.1395 293.796C70.1195 292.306 70.1195 290.865 70.1395 289.465C70.1595 288.065 70.2095 287.075 70.2995 286.495C70.5095 285.055 70.6395 283.875 70.6995 282.965C70.7595 282.055 70.7795 281.246 70.7595 280.516C70.7395 279.796 70.7095 279.106 70.6695 278.446C70.6295 277.786 70.5895 276.955 70.5495 275.965V275.975Z" fill="#EC4824"/>
<path d="M113.27 299.996C113.15 300.116 113.02 300.226 112.9 300.306C112.78 300.386 112.59 300.456 112.34 300.496C112.09 300.536 111.72 300.566 111.23 300.586C110.73 300.606 110.05 300.616 109.19 300.616H106.84C106.18 300.616 105.81 300.596 105.73 300.556C104.86 300.346 104.24 299.896 103.87 299.196C103.79 299.026 103.73 298.816 103.71 298.546C103.69 298.276 103.68 297.846 103.68 297.246V286.316C103.68 285.286 103.69 284.406 103.71 283.686C103.73 282.966 103.76 282.316 103.8 281.736C103.84 281.156 103.88 280.486 103.92 279.726C103.96 278.966 104 278.006 104.04 276.846C104.08 275.696 104.12 274.206 104.16 272.386C104.2 269.916 104.23 267.836 104.25 266.166C104.27 264.496 104.28 263.126 104.28 262.046C104.28 260.966 104.27 260.136 104.25 259.536C104.23 258.936 104.2 258.456 104.16 258.086C104.12 257.586 104.08 257.036 104.04 256.416C104 255.796 104.01 255.186 104.07 254.586C104.13 253.986 104.25 253.436 104.41 252.916C104.57 252.396 104.84 251.956 105.22 251.586C105.63 251.256 106.1 251.046 106.61 250.966C107.13 250.886 107.63 250.846 108.13 250.846C108.5 250.846 108.96 250.856 109.52 250.876C110.08 250.896 110.62 250.916 111.16 250.936C111.7 250.956 112.18 250.976 112.61 250.996C113.04 251.016 113.34 251.046 113.51 251.086C114.05 251.166 114.41 251.296 114.59 251.456C114.78 251.626 114.97 251.976 115.18 252.506C115.51 253.336 116.17 254.716 117.16 256.656C118.15 258.596 119.28 261.296 120.56 264.766C121.06 266.166 121.46 267.246 121.77 267.986C122.08 268.726 122.37 269.366 122.64 269.906C122.91 270.446 123.19 270.956 123.48 271.456C123.77 271.946 124.16 272.656 124.66 273.556C125.16 274.506 125.55 274.976 125.83 274.976C126.24 274.976 126.72 274.436 127.25 273.366C127.79 272.296 128.55 270.456 129.54 267.856C129.87 266.986 130.21 266.166 130.56 265.376C130.91 264.596 131.3 263.756 131.73 262.866C132.16 261.976 132.65 260.966 133.18 259.836C133.71 258.706 134.31 257.346 134.98 255.786C135.35 254.916 135.63 254.296 135.82 253.926C136.01 253.556 136.15 253.286 136.25 253.126C136.35 252.956 136.44 252.846 136.5 252.786C136.56 252.726 136.63 252.566 136.72 252.316C136.84 252.066 137.02 251.816 137.25 251.576C137.48 251.326 137.72 251.166 137.96 251.076C138.04 251.036 138.16 251.006 138.3 250.986C138.44 250.966 138.66 250.946 138.95 250.926C139.24 250.906 139.63 250.896 140.13 250.896H144.46C145.04 250.896 145.5 250.916 145.85 250.956C146.2 250.996 146.45 251.036 146.59 251.076C146.73 251.116 146.83 251.176 146.87 251.266C146.95 251.386 147.02 252.156 147.06 253.556C147.06 254.546 147.08 255.266 147.12 255.726C147.16 256.186 147.2 256.556 147.24 256.836C147.28 257.126 147.31 257.436 147.33 257.766C147.35 258.096 147.36 258.636 147.36 259.376C147.28 261.526 147.18 263.166 147.08 264.296C146.98 265.426 146.89 266.366 146.83 267.116C146.77 267.856 146.73 268.526 146.71 269.126C146.69 269.726 146.7 270.576 146.74 271.696C146.82 272.806 146.84 273.786 146.8 274.636C146.76 275.486 146.71 276.496 146.64 277.666C146.58 278.846 146.52 280.336 146.45 282.156C146.39 283.976 146.36 286.406 146.36 289.456C146.36 291.606 146.34 293.316 146.3 294.596C146.26 295.876 146.18 296.876 146.05 297.596C145.93 298.316 145.75 298.826 145.52 299.116C145.29 299.406 144.97 299.676 144.56 299.916C144.19 300.126 143.84 300.226 143.51 300.226H142.58C141.75 300.226 141.03 300.266 140.41 300.346C139.79 300.426 139.26 300.466 138.8 300.466C138.22 300.466 137.72 300.346 137.28 300.096C136.84 299.846 136.46 299.376 136.14 298.676C136.06 298.466 136 298.076 135.98 297.506C135.96 296.926 135.95 296.316 135.95 295.676C135.95 295.036 135.97 294.426 136.01 293.846C136.05 293.266 136.07 292.856 136.07 292.606C136.11 291.536 136.13 290.626 136.13 289.886C136.13 289.146 136.12 288.456 136.1 287.816C136.08 287.176 136.07 286.536 136.07 285.896C136.07 285.256 136.11 284.546 136.19 283.756C136.27 283.096 136.31 282.636 136.31 282.366C136.31 282.096 136.3 281.826 136.28 281.556C136.26 281.286 136.25 280.926 136.25 280.476V278.306C136.25 277.026 136.23 276.156 136.19 275.706C136.15 275.256 136.04 275.006 135.88 274.966C135.84 274.966 135.81 274.956 135.79 274.936C135.77 274.916 135.74 274.906 135.7 274.906C135.45 274.906 135.23 275.146 135.05 275.616C134.86 276.096 134.6 276.756 134.25 277.596C133.9 278.446 133.42 279.456 132.83 280.626C132.23 281.796 131.42 283.116 130.39 284.556C130.22 284.806 130.03 285.136 129.8 285.546C129.57 285.956 129.34 286.406 129.09 286.876C128.84 287.356 128.6 287.826 128.38 288.296C128.15 288.776 127.96 289.196 127.79 289.566C127.67 289.896 127.42 290.276 127.05 290.706C126.68 291.136 126.37 291.436 126.12 291.606C125.87 291.686 125.71 291.726 125.62 291.726C125.17 291.726 124.45 291.226 123.45 290.236C122.79 289.536 122.14 288.556 121.5 287.296C120.86 286.036 120.28 284.776 119.77 283.516C119.25 282.256 118.81 281.136 118.44 280.146C118.07 279.156 117.8 278.536 117.63 278.286C117.51 278.166 117.36 277.946 117.2 277.636C117.04 277.326 116.86 277.016 116.67 276.706C116.48 276.396 116.3 276.126 116.11 275.906C115.92 275.676 115.75 275.566 115.58 275.566C115.46 275.566 115.33 275.636 115.21 275.786C115.09 275.936 115 276.106 114.96 276.316C114.96 276.396 114.95 276.596 114.93 276.906C114.91 277.216 114.9 277.556 114.9 277.926C114.86 279.416 114.78 280.806 114.65 282.106C114.53 283.406 114.42 284.716 114.34 286.036C114.26 287.356 114.19 288.716 114.15 290.116C114.11 291.516 114.13 293.066 114.21 294.756C114.29 295.626 114.29 296.556 114.21 297.546C114.13 298.536 113.8 299.336 113.22 299.956L113.27 299.996Z" fill="#EC4824"/>
<path d="M188.599 260.186H183.279C183.109 260.186 182.989 260.206 182.909 260.246C182.829 260.286 182.749 260.316 182.689 260.336C182.629 260.356 182.509 260.406 182.349 260.496C182.099 260.616 181.919 260.726 181.789 260.806C181.669 260.886 181.579 261.006 181.539 261.146C181.499 261.296 181.479 261.506 181.479 261.796V263.036C181.479 263.866 181.449 264.496 181.389 264.956C181.329 265.416 181.269 265.816 181.199 266.166C181.139 266.516 181.099 266.856 181.079 267.186C181.059 267.516 181.109 267.946 181.239 268.486C181.279 268.656 181.329 268.866 181.399 269.136C181.459 269.406 181.549 269.676 181.679 269.936C181.799 270.206 181.949 270.436 182.109 270.616C182.269 270.796 182.459 270.896 182.669 270.896H183.099C183.429 270.856 183.929 270.816 184.589 270.776C185.249 270.736 185.939 270.706 186.659 270.686C187.379 270.666 188.059 270.646 188.699 270.626C189.339 270.606 189.799 270.596 190.089 270.596C191.199 270.596 191.909 270.746 192.189 271.056C192.469 271.366 192.709 271.786 192.869 272.326C193.039 273.026 193.139 273.566 193.179 273.936C193.219 274.306 193.219 274.746 193.179 275.236C193.099 276.016 193.029 276.726 192.989 277.336C192.949 277.956 192.879 278.496 192.769 278.946C192.659 279.396 192.519 279.796 192.339 280.116C192.149 280.446 191.879 280.716 191.499 280.926C191.249 281.006 191.049 281.066 190.879 281.086C190.709 281.106 190.279 281.116 189.579 281.116C188.999 281.076 188.439 281.056 187.879 281.056H186.179C185.309 281.056 184.549 281.066 183.889 281.086C183.229 281.106 182.799 281.136 182.589 281.176C182.299 281.216 182.079 281.256 181.939 281.296C181.789 281.336 181.679 281.416 181.599 281.546C181.519 281.676 181.449 281.866 181.409 282.136C181.369 282.406 181.329 282.766 181.289 283.216C181.209 284.286 181.179 285.376 181.199 286.466C181.219 287.556 181.309 288.336 181.479 288.786C181.729 289.576 182.149 290.066 182.749 290.276C183.349 290.486 183.999 290.586 184.699 290.586C185.649 290.586 186.499 290.576 187.239 290.556C187.979 290.536 188.639 290.526 189.219 290.526C190.369 290.526 191.279 290.546 191.939 290.586C192.599 290.626 193.129 290.676 193.519 290.746C193.909 290.806 194.189 290.906 194.349 291.026C194.519 291.146 194.679 291.296 194.849 291.456C195.179 291.826 195.389 292.146 195.469 292.416C195.549 292.686 195.569 293.276 195.529 294.186C195.489 295.216 195.519 296.136 195.619 296.936C195.719 297.736 195.699 298.426 195.559 298.976C195.409 299.536 195.029 299.956 194.409 300.246C193.789 300.536 192.719 300.686 191.189 300.686H190.939C188.879 300.646 187.189 300.626 185.889 300.626H182.829C181.759 300.626 181.159 300.646 181.029 300.686C180.909 300.686 180.599 300.706 180.129 300.746C179.659 300.786 179.099 300.826 178.459 300.866C177.819 300.906 177.159 300.936 176.479 300.956C175.799 300.976 175.189 300.986 174.649 300.986C174.069 300.986 173.699 300.966 173.539 300.926C173.039 300.886 172.519 300.696 171.959 300.366C171.399 300.036 171.019 299.646 170.819 299.186C170.739 298.976 170.669 298.846 170.629 298.786C170.589 298.726 170.559 298.516 170.539 298.166C170.519 297.816 170.509 297.216 170.509 296.366V292.496C170.509 290.596 170.499 289.076 170.479 287.916C170.459 286.766 170.439 285.836 170.419 285.136C170.399 284.436 170.379 283.896 170.359 283.526C170.339 283.156 170.339 282.806 170.359 282.476C170.379 282.146 170.419 281.756 170.479 281.296C170.539 280.846 170.639 280.206 170.759 279.376C170.799 279.086 170.839 278.626 170.879 277.986C170.919 277.346 170.939 276.696 170.939 276.036C170.979 274.636 170.969 273.496 170.909 272.626C170.849 271.756 170.789 271.006 170.719 270.366C170.659 269.726 170.609 269.126 170.559 268.566C170.519 268.006 170.539 267.336 170.619 266.556C170.699 266.016 170.749 265.346 170.779 264.546C170.799 263.746 170.819 262.926 170.839 262.106C170.859 261.286 170.859 260.496 170.839 259.756C170.819 259.016 170.769 258.436 170.679 258.016C170.509 257.106 170.419 256.436 170.399 256.006C170.379 255.576 170.409 255.146 170.489 254.736C170.699 253.496 171.069 252.536 171.599 251.856C172.129 251.176 173.039 250.836 174.319 250.836C175.019 250.836 175.759 250.896 176.549 251.026C177.499 251.146 178.429 251.216 179.329 251.216C181.149 251.216 182.939 251.086 184.719 250.816C186.489 250.546 188.229 250.416 189.919 250.416C190.459 250.416 190.969 250.446 191.469 250.506C191.969 250.566 192.459 250.646 192.959 250.726C193.779 250.936 194.339 251.176 194.629 251.436C194.919 251.696 195.169 252.266 195.369 253.136C195.659 254.166 195.819 254.896 195.859 255.336C195.899 255.766 195.879 256.336 195.799 257.036C195.679 257.986 195.509 258.676 195.299 259.106C195.089 259.536 194.799 259.856 194.429 260.066C194.389 260.106 194.279 260.136 194.119 260.156C193.949 260.176 193.669 260.186 193.249 260.186H188.549H188.599Z" fill="#EC4824"/>
<path d="M256.082 300.675C255.012 300.675 254.192 300.674 253.642 300.704C253.082 300.724 252.682 300.734 252.432 300.734C252.142 300.734 251.972 300.715 251.932 300.675C251.892 300.635 251.762 300.574 251.562 300.484C251.152 300.274 250.822 299.934 250.572 299.464C250.322 298.994 250.152 298.475 250.042 297.915C249.942 297.355 249.872 296.785 249.852 296.185C249.832 295.585 249.842 295.045 249.882 294.545C249.922 293.635 249.932 292.815 249.912 292.065C249.892 291.325 249.802 290.315 249.632 289.035C249.552 288.045 249.512 287.144 249.512 286.344C249.512 285.544 249.532 284.574 249.572 283.464C249.612 282.354 249.652 280.995 249.692 279.385C249.732 277.775 249.752 275.675 249.752 273.065C249.752 271.165 249.772 269.565 249.812 268.265C249.852 266.965 249.892 265.885 249.932 265.015C249.972 264.145 250.002 263.455 250.022 262.945C250.042 262.435 250.062 261.974 250.082 261.584C250.102 261.194 250.112 260.835 250.112 260.505C250.112 260.175 250.072 259.765 249.992 259.265C249.992 259.185 249.972 258.775 249.932 258.055C249.892 257.335 249.852 256.525 249.812 255.645C249.772 254.755 249.772 253.925 249.812 253.135C249.852 252.355 249.932 251.834 250.062 251.584C250.182 251.374 250.462 251.225 250.892 251.115C251.322 251.015 251.802 250.914 252.312 250.834C252.822 250.754 253.332 250.705 253.832 250.675C254.332 250.655 254.702 250.645 254.942 250.645C255.562 250.645 256.192 250.674 256.832 250.734C257.472 250.794 258.262 250.874 259.212 250.954C259.832 250.994 260.322 251.025 260.702 251.045C261.072 251.065 261.342 251.225 261.512 251.515C261.672 251.805 261.742 252.265 261.702 252.905C261.662 253.545 261.552 254.505 261.392 255.785C261.352 256.325 261.302 256.954 261.242 257.704C261.182 258.444 261.122 259.204 261.052 259.964C260.992 260.724 260.942 261.455 260.902 262.135C260.862 262.815 260.822 263.365 260.782 263.775C260.662 265.385 260.602 266.675 260.622 267.645C260.642 268.615 260.672 269.505 260.712 270.305C260.752 271.115 260.782 271.935 260.802 272.785C260.822 273.635 260.732 274.774 260.522 276.224C260.522 276.344 260.502 276.755 260.462 277.435C260.422 278.115 260.382 278.924 260.342 279.844C260.302 280.774 260.252 281.765 260.182 282.815C260.122 283.865 260.082 284.855 260.062 285.785C260.042 286.715 260.042 287.505 260.062 288.165C260.082 288.825 260.132 289.235 260.222 289.405C260.342 289.695 260.492 289.884 260.652 289.964C260.812 290.044 261.252 290.254 261.952 290.584C263.022 290.504 264.002 290.445 264.892 290.395C265.782 290.355 266.592 290.244 267.332 290.084C267.742 290.004 268.212 289.945 268.722 289.895C269.232 289.855 269.782 289.834 270.362 289.834C271.062 289.834 271.722 289.874 272.342 289.954C272.962 290.034 273.372 290.124 273.582 290.204C273.952 290.414 274.222 290.895 274.392 291.655C274.552 292.415 274.582 293.314 274.452 294.344C274.372 295.124 274.352 295.765 274.392 296.265C274.432 296.765 274.472 297.175 274.512 297.505C274.552 297.835 274.562 298.125 274.542 298.375C274.522 298.625 274.412 298.915 274.202 299.245C273.912 299.695 273.512 300.005 272.992 300.175C272.472 300.335 271.602 300.455 270.362 300.515C269.122 300.575 267.382 300.594 265.132 300.574C262.882 300.554 259.862 300.585 256.062 300.665L256.082 300.675Z" fill="#EC4824"/>
<path d="M303.311 299.495C302.731 299.125 302.281 298.805 301.951 298.535C301.621 298.265 301.341 297.995 301.121 297.725C300.891 297.455 300.671 297.165 300.471 296.855C300.261 296.545 299.971 296.185 299.601 295.775C298.611 294.615 297.851 293.435 297.341 292.215C296.821 290.995 296.441 289.515 296.191 287.755C295.941 286.005 295.821 283.895 295.821 281.445C295.821 278.995 295.861 275.945 295.941 272.315C295.981 270.915 295.971 269.825 295.911 269.065C295.851 268.305 295.801 267.665 295.751 267.145C295.701 266.625 295.691 266.145 295.691 265.695C295.691 265.245 295.771 264.645 295.941 263.895C296.111 263.115 296.241 262.355 296.341 261.635C296.441 260.915 296.641 260.155 296.931 259.375C297.221 258.595 297.641 257.765 298.201 256.895C298.761 256.025 299.571 255.085 300.641 254.045C302.131 252.475 303.791 251.335 305.621 250.605C307.461 249.885 309.451 249.525 311.591 249.525C312.831 249.525 314.151 249.715 315.551 250.085C316.951 250.455 318.191 250.915 319.261 251.445C319.591 251.615 319.951 251.875 320.341 252.245C320.731 252.615 321.101 252.995 321.451 253.395C321.801 253.795 322.111 254.165 322.381 254.535C322.651 254.905 322.851 255.155 322.971 255.275C323.471 255.855 323.881 256.555 324.211 257.375C324.541 258.205 324.821 259.055 325.051 259.945C325.281 260.835 325.451 261.715 325.581 262.575C325.701 263.445 325.791 264.225 325.831 264.925C325.911 265.795 325.951 266.605 325.951 267.375C325.951 268.145 325.941 268.935 325.921 269.755C325.901 270.585 325.881 271.485 325.861 272.475C325.841 273.465 325.851 274.575 325.891 275.815V278.725C325.891 279.795 325.861 280.875 325.801 281.945C325.741 283.015 325.661 284.025 325.581 284.975C325.501 285.925 325.391 286.715 325.271 287.325C325.061 288.315 324.921 289.205 324.841 289.985C324.761 290.765 324.621 291.505 324.441 292.185C324.261 292.865 323.961 293.545 323.571 294.225C323.181 294.905 322.611 295.655 321.871 296.485C321.331 297.105 320.631 297.725 319.771 298.345C318.911 298.965 317.981 299.545 317.021 300.075C316.051 300.615 315.071 301.045 314.081 301.375C313.091 301.705 312.181 301.875 311.361 301.875C310.041 301.875 308.641 301.655 307.151 301.225C305.661 300.795 304.381 300.205 303.311 299.465V299.495ZM306.031 278.635C305.991 279.745 305.991 280.545 306.031 281.015C306.071 281.495 306.131 281.915 306.221 282.285C306.301 282.655 306.401 283.085 306.501 283.585C306.601 284.085 306.681 284.885 306.721 285.995C306.801 287.355 307.171 288.545 307.831 289.555C308.491 290.565 309.581 291.075 311.111 291.075C311.811 291.075 312.411 290.855 312.911 290.425C313.401 289.995 313.811 289.405 314.121 288.665C314.431 287.925 314.681 287.085 314.861 286.155C315.051 285.225 315.201 284.265 315.331 283.275C315.411 282.575 315.471 282.045 315.521 281.695C315.561 281.345 315.601 281.065 315.641 280.855C315.681 280.645 315.711 280.445 315.731 280.235C315.751 280.025 315.781 279.705 315.821 279.275C315.861 278.845 315.891 278.245 315.911 277.475C315.931 276.715 315.961 275.665 316.001 274.345C316.081 271.705 316.141 269.505 316.191 267.755C316.231 266.005 316.121 264.565 315.851 263.455C315.581 262.345 315.091 261.515 314.361 260.975C313.641 260.435 312.551 260.085 311.111 259.925C310.531 260.255 310.031 260.535 309.591 260.755C309.161 260.985 308.751 261.265 308.381 261.595C308.011 261.925 307.681 262.345 307.391 262.865C307.101 263.385 306.831 264.115 306.581 265.065C306.411 265.685 306.321 266.125 306.301 266.395C306.281 266.665 306.281 266.925 306.301 267.165C306.321 267.415 306.331 267.715 306.331 268.065C306.331 268.415 306.291 268.965 306.211 269.705C306.171 270.285 306.141 270.855 306.121 271.435C306.101 272.015 306.091 272.645 306.091 273.325V275.645C306.091 276.515 306.071 277.505 306.031 278.615V278.635Z" fill="#EC4824"/>
<path d="M355.561 299.495C354.981 299.125 354.531 298.805 354.201 298.535C353.871 298.265 353.591 297.995 353.371 297.725C353.141 297.455 352.921 297.165 352.721 296.855C352.511 296.545 352.221 296.185 351.851 295.775C350.861 294.615 350.101 293.435 349.591 292.215C349.071 290.995 348.691 289.515 348.441 287.755C348.191 286.005 348.071 283.895 348.071 281.445C348.071 278.995 348.111 275.945 348.191 272.315C348.231 270.915 348.221 269.825 348.161 269.065C348.101 268.305 348.051 267.665 348.001 267.145C347.951 266.625 347.941 266.145 347.941 265.695C347.941 265.245 348.021 264.645 348.191 263.895C348.361 263.115 348.491 262.355 348.591 261.635C348.691 260.915 348.891 260.155 349.181 259.375C349.471 258.595 349.891 257.765 350.451 256.895C351.011 256.025 351.821 255.085 352.891 254.045C354.381 252.475 356.041 251.335 357.871 250.605C359.711 249.885 361.701 249.525 363.841 249.525C365.081 249.525 366.401 249.715 367.801 250.085C369.201 250.455 370.441 250.915 371.511 251.445C371.841 251.615 372.201 251.875 372.591 252.245C372.981 252.615 373.351 252.995 373.701 253.395C374.051 253.795 374.361 254.165 374.631 254.535C374.901 254.905 375.101 255.155 375.221 255.275C375.721 255.855 376.131 256.555 376.461 257.375C376.791 258.205 377.071 259.055 377.301 259.945C377.531 260.835 377.701 261.715 377.831 262.575C377.951 263.445 378.041 264.225 378.081 264.925C378.161 265.795 378.201 266.605 378.201 267.375C378.201 268.145 378.191 268.935 378.171 269.755C378.151 270.585 378.131 271.485 378.111 272.475C378.091 273.465 378.101 274.575 378.141 275.815V278.725C378.141 279.795 378.111 280.875 378.051 281.945C377.991 283.015 377.911 284.025 377.831 284.975C377.751 285.925 377.641 286.715 377.521 287.325C377.311 288.315 377.171 289.205 377.091 289.985C377.011 290.765 376.871 291.505 376.691 292.185C376.511 292.865 376.211 293.545 375.821 294.225C375.431 294.905 374.861 295.655 374.121 296.485C373.581 297.105 372.881 297.725 372.021 298.345C371.161 298.965 370.231 299.545 369.271 300.075C368.301 300.615 367.321 301.045 366.331 301.375C365.341 301.705 364.431 301.875 363.611 301.875C362.291 301.875 360.891 301.655 359.401 301.225C357.911 300.795 356.631 300.205 355.561 299.465V299.495ZM358.281 278.635C358.241 279.745 358.241 280.545 358.281 281.015C358.321 281.495 358.381 281.915 358.471 282.285C358.551 282.655 358.651 283.085 358.751 283.585C358.851 284.085 358.931 284.885 358.971 285.995C359.051 287.355 359.421 288.545 360.081 289.555C360.741 290.565 361.831 291.075 363.361 291.075C364.061 291.075 364.661 290.855 365.161 290.425C365.651 289.995 366.061 289.405 366.371 288.665C366.681 287.925 366.931 287.085 367.111 286.155C367.301 285.225 367.451 284.265 367.581 283.275C367.661 282.575 367.721 282.045 367.771 281.695C367.811 281.345 367.851 281.065 367.891 280.855C367.931 280.645 367.961 280.445 367.981 280.235C368.001 280.025 368.031 279.705 368.071 279.275C368.111 278.845 368.141 278.245 368.161 277.475C368.181 276.715 368.211 275.665 368.251 274.345C368.331 271.705 368.391 269.505 368.441 267.755C368.481 266.005 368.371 264.565 368.101 263.455C367.831 262.345 367.341 261.515 366.611 260.975C365.891 260.435 364.801 260.085 363.361 259.925C362.781 260.255 362.281 260.535 361.841 260.755C361.411 260.985 361.001 261.265 360.631 261.595C360.261 261.925 359.931 262.345 359.641 262.865C359.351 263.385 359.081 264.115 358.831 265.065C358.661 265.685 358.571 266.125 358.551 266.395C358.531 266.665 358.531 266.925 358.551 267.165C358.571 267.415 358.581 267.715 358.581 268.065C358.581 268.415 358.541 268.965 358.461 269.705C358.421 270.285 358.391 270.855 358.371 271.435C358.351 272.015 358.341 272.645 358.341 273.325V275.645C358.341 276.515 358.321 277.505 358.281 278.615V278.635Z" fill="#EC4824"/>
<path d="M404.651 300.986C404.321 301.066 404.051 301.106 403.851 301.106C403.391 301.106 402.961 301.006 402.551 300.796C402.141 300.586 401.891 300.256 401.811 299.806C401.641 299.146 401.551 298.466 401.531 297.766C401.511 297.066 401.531 296.226 401.591 295.256C401.651 294.286 401.731 293.136 401.841 291.816C401.941 290.496 402.021 288.886 402.061 286.986C402.101 285.796 402.111 284.866 402.091 284.206C402.071 283.546 402.041 283.006 402.001 282.596C401.961 282.186 401.921 281.836 401.881 281.546C401.841 281.256 401.811 280.876 401.791 280.406C401.771 279.936 401.761 279.306 401.761 278.516C401.761 277.726 401.781 276.636 401.821 275.236C401.901 272.676 401.921 270.466 401.881 268.616C401.841 266.756 401.811 265.126 401.791 263.726C401.771 262.326 401.751 261.106 401.731 260.076C401.711 259.046 401.761 258.076 401.891 257.166C401.971 256.506 402.011 255.846 402.011 255.186C402.011 254.526 402.041 253.916 402.101 253.356C402.161 252.796 402.291 252.306 402.471 251.866C402.651 251.426 402.951 251.116 403.371 250.906C403.581 250.786 404.011 250.676 404.671 250.596C405.331 250.516 406.151 250.436 407.121 250.376C408.091 250.316 409.171 250.266 410.371 250.216C411.561 250.176 412.781 250.156 414.021 250.156C416.291 250.156 418.431 250.226 420.431 250.376C422.431 250.526 423.821 250.776 424.611 251.146C425.971 251.806 427.241 252.676 428.421 253.746C429.591 254.816 430.591 256.036 431.391 257.396C432.191 258.756 432.761 260.256 433.091 261.886C433.421 263.516 433.401 265.226 433.031 266.996C432.781 268.196 432.291 269.486 431.541 270.866C430.791 272.246 429.981 273.586 429.091 274.886C428.201 276.186 427.341 277.356 426.491 278.416C425.641 279.466 424.971 280.246 424.481 280.736C422.831 282.346 421.091 283.566 419.281 284.386C418.451 284.716 417.631 285.086 416.811 285.496C415.981 285.906 415.221 286.216 414.521 286.426C414.111 286.596 413.741 286.746 413.411 286.886C413.081 287.036 412.811 287.286 412.611 287.656C412.401 288.026 412.251 288.556 412.141 289.236C412.031 289.916 411.981 290.856 411.981 292.056V295.126C411.981 295.926 411.961 296.586 411.921 297.106C411.881 297.626 411.811 298.056 411.701 298.406C411.591 298.756 411.461 299.116 411.301 299.486C411.051 299.986 410.831 300.286 410.621 300.416C410.411 300.536 409.881 300.646 409.011 300.726C407.901 300.896 406.991 300.956 406.291 300.916C405.591 300.876 405.051 300.896 404.681 300.976L404.651 300.986ZM412.571 275.536C412.691 275.616 412.801 275.686 412.881 275.726C412.961 275.766 413.071 275.786 413.191 275.786C413.401 275.786 413.601 275.716 413.811 275.566C414.021 275.416 414.351 275.186 414.801 274.856C415.581 274.276 416.401 273.666 417.251 272.996C418.091 272.336 418.881 271.626 419.601 270.856C420.321 270.086 420.951 269.286 421.491 268.446C422.031 267.606 422.401 266.676 422.601 265.696C422.681 265.246 422.751 264.916 422.791 264.706C422.831 264.496 422.811 264.296 422.731 264.086C422.611 263.466 422.371 262.926 422.021 262.446C421.671 261.976 421.281 261.576 420.851 261.266C420.421 260.956 419.951 260.716 419.461 260.556C418.971 260.386 418.531 260.306 418.161 260.306C417.911 260.306 417.751 260.326 417.671 260.366C416.391 260.616 415.381 260.746 414.641 260.766C413.901 260.786 413.341 261.016 412.971 261.446C412.601 261.876 412.351 262.656 412.231 263.766C412.111 264.876 412.021 266.616 411.981 268.966V272.436C411.981 273.266 412.001 273.886 412.041 274.326C412.081 274.756 412.141 275.046 412.231 275.196C412.311 275.346 412.441 275.456 412.601 275.536H412.571Z" fill="#EC4824"/>
<path d="M996 0H546V450H996V0Z" fill="#EC4824"/>
<path d="M797.44 213.286C794.25 222.556 786.46 229.996 776.19 232.286C774.67 232.626 773.15 232.836 771.64 232.936C762.35 234.166 753.35 230.825 747.1 224.505L732.68 227.715C741.92 241.065 758.65 248.205 775.47 244.455C776.24 244.285 777.01 244.085 777.77 243.875C778.54 243.755 779.32 243.596 780.1 243.426C796.93 239.676 809.03 226.115 811.72 210.105L797.44 213.286Z" fill="#231F20"/>
<path d="M838.261 180.426C829.901 182.286 821.581 180.206 815.251 175.406C815.251 175.406 815.241 175.396 815.221 175.366C813.571 174.116 812.061 172.686 810.721 171.096C807.331 167.906 802.881 163.856 800.551 162.206C800.311 162.036 800.101 161.896 799.911 161.776C789.351 151.186 773.931 145.886 758.271 148.786C758.021 148.836 757.761 148.886 757.511 148.936C757.201 148.996 756.891 149.066 756.581 149.136C756.331 149.186 756.081 149.246 755.841 149.316C755.591 149.376 755.331 149.436 755.091 149.506C739.681 153.536 727.971 164.886 722.901 178.956C722.771 179.146 722.641 179.366 722.501 179.626C722.501 179.626 722.501 179.626 722.501 179.636C721.081 182.116 718.781 187.676 717.061 191.996C716.521 194.016 715.771 195.956 714.801 197.786C714.801 197.816 714.781 197.836 714.781 197.836C711.091 204.876 704.441 210.296 696.081 212.156L671.551 217.626L672.751 222.996L864.031 180.366L862.831 174.996L838.301 180.466L838.261 180.426ZM794.531 185.436C793.821 186.846 792.891 187.836 792.151 188.476L783.731 190.346L749.411 197.966L740.881 199.866C739.961 199.616 738.791 199.146 737.651 198.256C734.111 195.486 733.921 190.966 733.901 190.146C734.121 189.056 734.391 187.986 734.711 186.936C738.061 175.986 747.041 167.096 759.021 164.426C759.351 164.356 759.681 164.286 760.011 164.216C760.341 164.136 760.661 164.056 760.991 163.986C774.291 161.016 787.521 166.576 794.951 177.036C795.271 177.976 796.421 181.706 794.551 185.446L794.531 185.436Z" fill="#231F20"/>
<path d="M573.03 266.936V264.086C573.03 263.266 572.99 262.576 572.91 262.046C572.83 261.506 572.63 261.106 572.32 260.836C572.01 260.566 571.55 260.436 570.93 260.436C570.52 260.436 570 260.496 569.38 260.626C568.92 260.706 568.34 260.776 567.61 260.816C566.88 260.856 566.24 260.876 565.66 260.876H564.89C564.66 260.876 564.51 260.856 564.42 260.816C564.01 260.696 563.7 260.416 563.49 259.976C563.28 259.546 563.15 259.026 563.09 258.426C563.03 257.826 563 257.186 563 256.506V254.556C563 253.606 563.02 252.876 563.06 252.356C563.1 251.836 563.22 251.456 563.4 251.206C563.58 250.956 563.85 250.796 564.21 250.706C564.56 250.626 565.04 250.566 565.66 250.516C566.15 250.436 566.58 250.386 566.93 250.366C567.28 250.346 567.64 250.336 568.01 250.336H568.81C569.1 250.336 569.43 250.356 569.8 250.396C570.17 250.436 570.51 250.456 570.82 250.456H571.65C572.23 250.456 572.7 250.436 573.07 250.396C573.44 250.356 573.84 250.316 574.28 250.276C574.71 250.236 575.22 250.196 575.8 250.156C576.38 250.116 577.12 250.096 578.03 250.096H582.61C583.6 250.096 584.61 250.106 585.64 250.126C586.67 250.146 587.63 250.166 588.52 250.186C589.41 250.206 590.16 250.236 590.78 250.276C591.4 250.316 591.77 250.356 591.89 250.396C592.47 250.646 592.75 251.336 592.73 252.466C592.71 253.606 592.68 255.156 592.64 257.136C592.6 258.336 592.4 259.116 592.05 259.486C591.7 259.856 591.17 260.046 590.47 260.046C589.98 260.046 589.41 260.006 588.77 259.926C588.13 259.846 587.4 259.806 586.57 259.806C585.5 259.806 584.63 259.906 583.97 260.116C583.31 260.326 582.94 261.026 582.86 262.216C582.82 262.716 582.81 263.796 582.83 265.466C582.85 267.136 582.88 269.106 582.92 271.376C582.96 273.646 583.01 276.096 583.08 278.716C583.14 281.336 583.19 283.836 583.24 286.206C583.28 288.576 583.3 290.706 583.3 292.586C583.3 294.466 583.28 295.796 583.24 296.576C583.16 297.686 583.08 298.556 583.02 299.176C582.96 299.796 582.83 300.236 582.65 300.506C582.46 300.776 582.2 300.936 581.85 300.996C581.5 301.056 581.01 301.086 580.4 301.086H580.09C579.26 301.086 578.47 301.126 577.71 301.206C576.94 301.286 576.23 301.326 575.57 301.326C575.07 301.326 574.64 301.286 574.27 301.206C573.9 301.126 573.61 300.936 573.4 300.646C573.23 300.436 573.12 300.106 573.06 299.656C573 299.196 572.96 298.516 572.94 297.616C572.92 296.716 572.93 295.486 572.97 293.966C573.01 292.436 573.05 290.456 573.09 288.026C573.13 285.586 573.15 282.646 573.15 279.206C573.15 275.766 573.11 271.666 573.03 266.916V266.936Z" fill="#231F20"/>
<path d="M616.55 275.975C616.51 274.735 616.55 273.386 616.67 271.926C616.79 270.466 616.75 268.815 616.55 267.005C616.47 266.555 616.43 266.005 616.43 265.365C616.43 264.725 616.45 263.666 616.49 262.176C616.53 259.946 616.5 258.236 616.4 257.036C616.3 255.836 616.21 254.926 616.15 254.286C616.09 253.646 616.07 253.175 616.09 252.865C616.11 252.555 616.24 252.175 616.49 251.725C616.74 251.275 617.12 250.975 617.64 250.825C618.16 250.675 618.68 250.605 619.22 250.605C619.67 250.605 620 250.626 620.21 250.666C620.46 250.706 620.72 250.725 621.01 250.725H623.18C623.88 250.725 624.55 250.775 625.19 250.885C625.83 250.985 626.31 251.225 626.64 251.595C626.81 251.805 626.89 252.126 626.89 252.556C626.89 252.986 626.86 253.475 626.8 254.005C626.74 254.545 626.68 255.126 626.61 255.766C626.55 256.406 626.54 257.036 626.58 257.656C626.62 258.196 626.66 259.116 626.7 260.446C626.74 261.766 626.77 263.145 626.79 264.595C626.81 266.045 626.83 267.406 626.85 268.676C626.87 269.956 626.88 270.845 626.88 271.335C626.88 272.285 626.87 273.066 626.85 273.686C626.83 274.306 626.8 274.905 626.76 275.475C626.72 276.055 626.68 276.675 626.64 277.335C626.6 277.995 626.58 278.845 626.58 279.875V283.745C626.58 285.295 626.62 287.245 626.7 289.595C626.74 291.245 626.77 292.556 626.79 293.526C626.81 294.496 626.82 295.246 626.82 295.786C626.82 296.326 626.8 296.725 626.76 296.995C626.72 297.265 626.66 297.526 626.57 297.766C626.4 298.346 626.2 298.886 625.95 299.406C625.7 299.926 625.47 300.285 625.27 300.485C625.1 300.605 624.98 300.685 624.9 300.705C624.82 300.725 624.63 300.735 624.34 300.735C623.88 300.655 623.45 300.615 623.04 300.615H621.93C621.1 300.615 620.44 300.645 619.95 300.705C619.45 300.765 619.02 300.796 618.65 300.796C618.24 300.796 617.93 300.756 617.72 300.676C617.51 300.596 617.24 300.426 616.91 300.176C616.58 299.926 616.37 299.716 616.29 299.556C616.29 299.516 616.27 298.915 616.23 297.755C616.19 296.595 616.16 295.276 616.14 293.796C616.12 292.306 616.12 290.865 616.14 289.465C616.16 288.065 616.21 287.075 616.3 286.495C616.51 285.055 616.64 283.875 616.7 282.965C616.76 282.055 616.78 281.246 616.76 280.516C616.74 279.796 616.71 279.106 616.67 278.446C616.63 277.786 616.59 276.955 616.55 275.965V275.975Z" fill="#231F20"/>
<path d="M659.262 299.996C659.142 300.116 659.012 300.226 658.892 300.306C658.772 300.386 658.582 300.456 658.332 300.496C658.082 300.536 657.712 300.566 657.222 300.586C656.722 300.606 656.042 300.616 655.182 300.616H652.832C652.172 300.616 651.802 300.596 651.722 300.556C650.852 300.346 650.232 299.896 649.862 299.196C649.782 299.026 649.722 298.816 649.702 298.546C649.682 298.276 649.672 297.846 649.672 297.246V286.316C649.672 285.286 649.682 284.406 649.702 283.686C649.722 282.966 649.752 282.316 649.792 281.736C649.832 281.156 649.872 280.486 649.912 279.726C649.952 278.966 649.992 278.006 650.032 276.846C650.072 275.696 650.112 274.206 650.152 272.386C650.192 269.916 650.222 267.836 650.242 266.166C650.262 264.496 650.272 263.126 650.272 262.046C650.272 260.966 650.262 260.136 650.242 259.536C650.222 258.936 650.192 258.456 650.152 258.086C650.112 257.586 650.072 257.036 650.032 256.416C649.992 255.796 650.002 255.186 650.062 254.586C650.122 253.986 650.242 253.436 650.402 252.916C650.562 252.396 650.832 251.956 651.212 251.586C651.622 251.256 652.092 251.046 652.602 250.966C653.122 250.886 653.622 250.846 654.122 250.846C654.492 250.846 654.952 250.856 655.512 250.876C656.072 250.896 656.612 250.916 657.152 250.936C657.692 250.956 658.172 250.976 658.602 250.996C659.032 251.016 659.332 251.046 659.502 251.086C660.042 251.166 660.402 251.296 660.582 251.456C660.772 251.626 660.962 251.976 661.172 252.506C661.502 253.336 662.162 254.716 663.152 256.656C664.142 258.596 665.272 261.296 666.552 264.766C667.052 266.166 667.452 267.246 667.762 267.986C668.072 268.726 668.362 269.366 668.632 269.906C668.902 270.446 669.182 270.956 669.472 271.456C669.762 271.946 670.152 272.656 670.652 273.556C671.152 274.506 671.542 274.976 671.822 274.976C672.232 274.976 672.712 274.436 673.242 273.366C673.782 272.296 674.542 270.456 675.532 267.856C675.862 266.986 676.202 266.166 676.552 265.376C676.902 264.596 677.292 263.756 677.722 262.866C678.152 261.976 678.642 260.966 679.172 259.836C679.702 258.706 680.302 257.346 680.972 255.786C681.342 254.916 681.622 254.296 681.812 253.926C682.002 253.556 682.142 253.286 682.242 253.126C682.342 252.956 682.432 252.846 682.492 252.786C682.552 252.726 682.622 252.566 682.712 252.316C682.832 252.066 683.012 251.816 683.242 251.576C683.472 251.326 683.712 251.166 683.952 251.076C684.032 251.036 684.152 251.006 684.292 250.986C684.432 250.966 684.652 250.946 684.942 250.926C685.232 250.906 685.622 250.896 686.122 250.896H690.452C691.032 250.896 691.492 250.916 691.842 250.956C692.192 250.996 692.442 251.036 692.582 251.076C692.722 251.116 692.822 251.176 692.862 251.266C692.942 251.386 693.012 252.156 693.052 253.556C693.052 254.546 693.072 255.266 693.112 255.726C693.152 256.186 693.192 256.556 693.232 256.836C693.272 257.126 693.302 257.436 693.322 257.766C693.342 258.096 693.352 258.636 693.352 259.376C693.272 261.526 693.172 263.166 693.072 264.296C692.972 265.426 692.882 266.366 692.822 267.116C692.762 267.856 692.722 268.526 692.702 269.126C692.682 269.726 692.692 270.576 692.732 271.696C692.812 272.806 692.832 273.786 692.792 274.636C692.752 275.486 692.702 276.496 692.632 277.666C692.572 278.846 692.512 280.336 692.442 282.156C692.382 283.976 692.352 286.406 692.352 289.456C692.352 291.606 692.332 293.316 692.292 294.596C692.252 295.876 692.172 296.876 692.042 297.596C691.922 298.316 691.742 298.826 691.512 299.116C691.282 299.406 690.962 299.676 690.552 299.916C690.182 300.126 689.832 300.226 689.502 300.226H688.572C687.742 300.226 687.022 300.266 686.402 300.346C685.782 300.426 685.252 300.466 684.792 300.466C684.212 300.466 683.712 300.346 683.272 300.096C682.832 299.846 682.452 299.376 682.132 298.676C682.052 298.466 681.992 298.076 681.972 297.506C681.952 296.926 681.942 296.316 681.942 295.676C681.942 295.036 681.962 294.426 682.002 293.846C682.042 293.266 682.062 292.856 682.062 292.606C682.102 291.536 682.122 290.626 682.122 289.886C682.122 289.146 682.112 288.456 682.092 287.816C682.072 287.176 682.062 286.536 682.062 285.896C682.062 285.256 682.102 284.546 682.182 283.756C682.262 283.096 682.302 282.636 682.302 282.366C682.302 282.096 682.292 281.826 682.272 281.556C682.252 281.286 682.242 280.926 682.242 280.476V278.306C682.242 277.026 682.222 276.156 682.182 275.706C682.142 275.256 682.032 275.006 681.872 274.966C681.832 274.966 681.802 274.956 681.782 274.936C681.762 274.916 681.732 274.906 681.692 274.906C681.442 274.906 681.222 275.146 681.042 275.616C680.852 276.096 680.592 276.756 680.242 277.596C679.892 278.446 679.412 279.456 678.822 280.626C678.222 281.796 677.412 283.116 676.382 284.556C676.212 284.806 676.022 285.136 675.792 285.546C675.562 285.956 675.332 286.406 675.082 286.876C674.832 287.356 674.592 287.826 674.372 288.296C674.142 288.776 673.952 289.196 673.782 289.566C673.662 289.896 673.412 290.276 673.042 290.706C672.672 291.136 672.362 291.436 672.112 291.606C671.862 291.686 671.702 291.726 671.612 291.726C671.162 291.726 670.442 291.226 669.442 290.236C668.782 289.536 668.132 288.556 667.492 287.296C666.852 286.036 666.272 284.776 665.762 283.516C665.242 282.256 664.802 281.136 664.432 280.146C664.062 279.156 663.792 278.536 663.622 278.286C663.502 278.166 663.352 277.946 663.192 277.636C663.032 277.326 662.852 277.016 662.662 276.706C662.472 276.396 662.292 276.126 662.102 275.906C661.912 275.676 661.742 275.566 661.572 275.566C661.452 275.566 661.322 275.636 661.202 275.786C661.082 275.936 660.992 276.106 660.952 276.316C660.952 276.396 660.942 276.596 660.922 276.906C660.902 277.216 660.892 277.556 660.892 277.926C660.852 279.416 660.772 280.806 660.642 282.106C660.522 283.406 660.412 284.716 660.332 286.036C660.252 287.356 660.182 288.716 660.142 290.116C660.102 291.516 660.122 293.066 660.202 294.756C660.282 295.626 660.282 296.556 660.202 297.546C660.122 298.536 659.792 299.336 659.212 299.956L659.262 299.996Z" fill="#231F20"/>
<path d="M734.599 260.186H729.279C729.109 260.186 728.989 260.206 728.909 260.246C728.829 260.286 728.749 260.316 728.689 260.336C728.629 260.356 728.509 260.406 728.349 260.496C728.099 260.616 727.919 260.726 727.789 260.806C727.669 260.886 727.579 261.006 727.539 261.146C727.499 261.296 727.479 261.506 727.479 261.796V263.036C727.479 263.866 727.449 264.496 727.389 264.956C727.329 265.416 727.269 265.816 727.199 266.166C727.139 266.516 727.099 266.856 727.079 267.186C727.059 267.516 727.109 267.946 727.239 268.486C727.279 268.656 727.329 268.866 727.399 269.136C727.459 269.406 727.549 269.676 727.679 269.936C727.799 270.206 727.949 270.436 728.109 270.616C728.269 270.796 728.459 270.896 728.669 270.896H729.099C729.429 270.856 729.929 270.816 730.589 270.776C731.249 270.736 731.939 270.706 732.659 270.686C733.379 270.666 734.059 270.646 734.699 270.626C735.339 270.606 735.799 270.596 736.089 270.596C737.199 270.596 737.909 270.746 738.189 271.056C738.469 271.366 738.709 271.786 738.869 272.326C739.039 273.026 739.139 273.566 739.179 273.936C739.219 274.306 739.219 274.746 739.179 275.236C739.099 276.016 739.029 276.726 738.989 277.336C738.949 277.956 738.879 278.496 738.769 278.946C738.659 279.396 738.519 279.796 738.339 280.116C738.149 280.446 737.879 280.716 737.499 280.926C737.249 281.006 737.049 281.066 736.879 281.086C736.709 281.106 736.279 281.116 735.579 281.116C734.999 281.076 734.439 281.056 733.879 281.056H732.179C731.309 281.056 730.549 281.066 729.889 281.086C729.229 281.106 728.799 281.136 728.589 281.176C728.299 281.216 728.079 281.256 727.939 281.296C727.789 281.336 727.679 281.416 727.599 281.546C727.519 281.676 727.449 281.866 727.409 282.136C727.369 282.406 727.329 282.766 727.289 283.216C727.209 284.286 727.179 285.376 727.199 286.466C727.219 287.556 727.309 288.336 727.479 288.786C727.729 289.576 728.149 290.066 728.749 290.276C729.349 290.486 729.999 290.586 730.699 290.586C731.649 290.586 732.499 290.576 733.239 290.556C733.979 290.536 734.639 290.526 735.219 290.526C736.369 290.526 737.279 290.546 737.939 290.586C738.599 290.626 739.129 290.676 739.519 290.746C739.909 290.806 740.189 290.906 740.349 291.026C740.519 291.146 740.679 291.296 740.849 291.456C741.179 291.826 741.389 292.146 741.469 292.416C741.549 292.686 741.569 293.276 741.529 294.186C741.489 295.216 741.519 296.136 741.619 296.936C741.719 297.736 741.699 298.426 741.559 298.976C741.409 299.536 741.029 299.956 740.409 300.246C739.789 300.536 738.719 300.686 737.189 300.686H736.939C734.879 300.646 733.189 300.626 731.889 300.626H728.829C727.759 300.626 727.159 300.646 727.029 300.686C726.909 300.686 726.599 300.706 726.129 300.746C725.659 300.786 725.099 300.826 724.459 300.866C723.819 300.906 723.159 300.936 722.479 300.956C721.799 300.976 721.189 300.986 720.649 300.986C720.069 300.986 719.699 300.966 719.539 300.926C719.039 300.886 718.519 300.696 717.959 300.366C717.399 300.036 717.019 299.646 716.819 299.186C716.739 298.976 716.669 298.846 716.629 298.786C716.589 298.726 716.559 298.516 716.539 298.166C716.519 297.816 716.509 297.216 716.509 296.366V292.496C716.509 290.596 716.499 289.076 716.479 287.916C716.459 286.766 716.439 285.836 716.419 285.136C716.399 284.436 716.379 283.896 716.359 283.526C716.339 283.156 716.339 282.806 716.359 282.476C716.379 282.146 716.419 281.756 716.479 281.296C716.539 280.846 716.639 280.206 716.759 279.376C716.799 279.086 716.839 278.626 716.879 277.986C716.919 277.346 716.939 276.696 716.939 276.036C716.979 274.636 716.969 273.496 716.909 272.626C716.849 271.756 716.789 271.006 716.719 270.366C716.659 269.726 716.609 269.126 716.559 268.566C716.519 268.006 716.539 267.336 716.619 266.556C716.699 266.016 716.749 265.346 716.779 264.546C716.799 263.746 716.819 262.926 716.839 262.106C716.859 261.286 716.859 260.496 716.839 259.756C716.819 259.016 716.769 258.436 716.679 258.016C716.509 257.106 716.419 256.436 716.399 256.006C716.379 255.576 716.409 255.146 716.489 254.736C716.699 253.496 717.069 252.536 717.599 251.856C718.129 251.176 719.039 250.836 720.319 250.836C721.019 250.836 721.759 250.896 722.549 251.026C723.499 251.146 724.429 251.216 725.329 251.216C727.149 251.216 728.939 251.086 730.719 250.816C732.489 250.546 734.229 250.416 735.919 250.416C736.459 250.416 736.969 250.446 737.469 250.506C737.969 250.566 738.459 250.646 738.959 250.726C739.779 250.936 740.339 251.176 740.629 251.436C740.919 251.696 741.169 252.266 741.369 253.136C741.659 254.166 741.819 254.896 741.859 255.336C741.899 255.766 741.879 256.336 741.799 257.036C741.679 257.986 741.509 258.676 741.299 259.106C741.089 259.536 740.799 259.856 740.429 260.066C740.389 260.106 740.279 260.136 740.119 260.156C739.949 260.176 739.669 260.186 739.249 260.186H734.549H734.599Z" fill="#231F20"/>
<path d="M802.07 300.675C801 300.675 800.18 300.674 799.63 300.704C799.07 300.724 798.67 300.734 798.42 300.734C798.13 300.734 797.96 300.715 797.92 300.675C797.88 300.635 797.75 300.574 797.55 300.484C797.14 300.274 796.81 299.934 796.56 299.464C796.31 298.994 796.14 298.475 796.03 297.915C795.93 297.355 795.86 296.785 795.84 296.185C795.82 295.585 795.83 295.045 795.87 294.545C795.91 293.635 795.92 292.815 795.9 292.065C795.88 291.325 795.79 290.315 795.62 289.035C795.54 288.045 795.5 287.144 795.5 286.344C795.5 285.544 795.52 284.574 795.56 283.464C795.6 282.354 795.64 280.995 795.68 279.385C795.72 277.775 795.74 275.675 795.74 273.065C795.74 271.165 795.76 269.565 795.8 268.265C795.84 266.965 795.88 265.885 795.92 265.015C795.96 264.145 795.99 263.455 796.01 262.945C796.03 262.435 796.05 261.974 796.07 261.584C796.09 261.194 796.1 260.835 796.1 260.505C796.1 260.175 796.06 259.765 795.98 259.265C795.98 259.185 795.96 258.775 795.92 258.055C795.88 257.335 795.84 256.525 795.8 255.645C795.76 254.755 795.76 253.925 795.8 253.135C795.84 252.355 795.92 251.834 796.05 251.584C796.17 251.374 796.45 251.225 796.88 251.115C797.31 251.015 797.79 250.914 798.3 250.834C798.81 250.754 799.32 250.705 799.82 250.675C800.32 250.655 800.69 250.645 800.93 250.645C801.55 250.645 802.18 250.674 802.82 250.734C803.46 250.794 804.25 250.874 805.2 250.954C805.82 250.994 806.31 251.025 806.69 251.045C807.06 251.065 807.33 251.225 807.5 251.515C807.66 251.805 807.73 252.265 807.69 252.905C807.65 253.545 807.54 254.505 807.38 255.785C807.34 256.325 807.29 256.954 807.23 257.704C807.17 258.444 807.11 259.204 807.04 259.964C806.98 260.724 806.93 261.455 806.89 262.135C806.85 262.815 806.81 263.365 806.77 263.775C806.65 265.385 806.59 266.675 806.61 267.645C806.63 268.615 806.66 269.505 806.7 270.305C806.74 271.115 806.77 271.935 806.79 272.785C806.81 273.635 806.72 274.774 806.51 276.224C806.51 276.344 806.49 276.755 806.45 277.435C806.41 278.115 806.37 278.924 806.33 279.844C806.29 280.774 806.24 281.765 806.17 282.815C806.11 283.865 806.07 284.855 806.05 285.785C806.03 286.715 806.03 287.505 806.05 288.165C806.07 288.825 806.12 289.235 806.21 289.405C806.33 289.695 806.48 289.884 806.64 289.964C806.8 290.044 807.24 290.254 807.94 290.584C809.01 290.504 809.99 290.445 810.88 290.395C811.77 290.355 812.58 290.244 813.32 290.084C813.73 290.004 814.2 289.945 814.71 289.895C815.22 289.855 815.77 289.834 816.35 289.834C817.05 289.834 817.71 289.874 818.33 289.954C818.95 290.034 819.36 290.124 819.57 290.204C819.94 290.414 820.21 290.895 820.38 291.655C820.54 292.415 820.57 293.314 820.44 294.344C820.36 295.124 820.34 295.765 820.38 296.265C820.42 296.765 820.46 297.175 820.5 297.505C820.54 297.835 820.55 298.125 820.53 298.375C820.51 298.625 820.4 298.915 820.19 299.245C819.9 299.695 819.5 300.005 818.98 300.175C818.46 300.335 817.59 300.455 816.35 300.515C815.11 300.575 813.37 300.594 811.12 300.574C808.87 300.554 805.85 300.585 802.05 300.665L802.07 300.675Z" fill="#231F20"/>
<path d="M849.311 299.495C848.731 299.125 848.281 298.805 847.951 298.535C847.621 298.265 847.341 297.995 847.121 297.725C846.891 297.455 846.671 297.165 846.471 296.855C846.261 296.545 845.971 296.185 845.601 295.775C844.611 294.615 843.851 293.435 843.341 292.215C842.821 290.995 842.441 289.515 842.191 287.755C841.941 286.005 841.821 283.895 841.821 281.445C841.821 278.995 841.861 275.945 841.941 272.315C841.981 270.915 841.971 269.825 841.911 269.065C841.851 268.305 841.801 267.665 841.751 267.145C841.701 266.625 841.691 266.145 841.691 265.695C841.691 265.245 841.771 264.645 841.941 263.895C842.111 263.115 842.241 262.355 842.341 261.635C842.441 260.915 842.641 260.155 842.931 259.375C843.221 258.595 843.641 257.765 844.201 256.895C844.761 256.025 845.571 255.085 846.641 254.045C848.131 252.475 849.791 251.335 851.621 250.605C853.461 249.885 855.451 249.525 857.591 249.525C858.831 249.525 860.151 249.715 861.551 250.085C862.951 250.455 864.191 250.915 865.261 251.445C865.591 251.615 865.951 251.875 866.341 252.245C866.731 252.615 867.101 252.995 867.451 253.395C867.801 253.795 868.111 254.165 868.381 254.535C868.651 254.905 868.851 255.155 868.971 255.275C869.471 255.855 869.881 256.555 870.211 257.375C870.541 258.205 870.821 259.055 871.051 259.945C871.281 260.835 871.451 261.715 871.581 262.575C871.701 263.445 871.791 264.225 871.831 264.925C871.911 265.795 871.951 266.605 871.951 267.375C871.951 268.145 871.941 268.935 871.921 269.755C871.901 270.585 871.881 271.485 871.861 272.475C871.841 273.465 871.851 274.575 871.891 275.815V278.725C871.891 279.795 871.861 280.875 871.801 281.945C871.741 283.015 871.661 284.025 871.581 284.975C871.501 285.925 871.391 286.715 871.271 287.325C871.061 288.315 870.921 289.205 870.841 289.985C870.761 290.765 870.621 291.505 870.441 292.185C870.261 292.865 869.961 293.545 869.571 294.225C869.181 294.905 868.611 295.655 867.871 296.485C867.331 297.105 866.631 297.725 865.771 298.345C864.911 298.965 863.981 299.545 863.021 300.075C862.051 300.615 861.071 301.045 860.081 301.375C859.091 301.705 858.181 301.875 857.361 301.875C856.041 301.875 854.641 301.655 853.151 301.225C851.661 300.795 850.381 300.205 849.311 299.465V299.495ZM852.031 278.635C851.991 279.745 851.991 280.545 852.031 281.015C852.071 281.495 852.131 281.915 852.221 282.285C852.301 282.655 852.401 283.085 852.501 283.585C852.601 284.085 852.681 284.885 852.721 285.995C852.801 287.355 853.171 288.545 853.831 289.555C854.491 290.565 855.581 291.075 857.111 291.075C857.811 291.075 858.411 290.855 858.911 290.425C859.401 289.995 859.811 289.405 860.121 288.665C860.431 287.925 860.681 287.085 860.861 286.155C861.051 285.225 861.201 284.265 861.331 283.275C861.411 282.575 861.471 282.045 861.521 281.695C861.561 281.345 861.601 281.065 861.641 280.855C861.681 280.645 861.711 280.445 861.731 280.235C861.751 280.025 861.781 279.705 861.821 279.275C861.861 278.845 861.891 278.245 861.911 277.475C861.931 276.715 861.961 275.665 862.001 274.345C862.081 271.705 862.141 269.505 862.191 267.755C862.231 266.005 862.121 264.565 861.851 263.455C861.581 262.345 861.091 261.515 860.361 260.975C859.641 260.435 858.551 260.085 857.111 259.925C856.531 260.255 856.031 260.535 855.591 260.755C855.161 260.985 854.751 261.265 854.381 261.595C854.011 261.925 853.681 262.345 853.391 262.865C853.101 263.385 852.831 264.115 852.581 265.065C852.411 265.685 852.321 266.125 852.301 266.395C852.281 266.665 852.281 266.925 852.301 267.165C852.321 267.415 852.331 267.715 852.331 268.065C852.331 268.415 852.291 268.965 852.211 269.705C852.171 270.285 852.141 270.855 852.121 271.435C852.101 272.015 852.091 272.645 852.091 273.325V275.645C852.091 276.515 852.071 277.505 852.031 278.615V278.635Z" fill="#231F20"/>
<path d="M901.55 299.495C900.97 299.125 900.52 298.805 900.19 298.535C899.86 298.265 899.58 297.995 899.36 297.725C899.13 297.455 898.91 297.165 898.71 296.855C898.5 296.545 898.21 296.185 897.84 295.775C896.85 294.615 896.09 293.435 895.58 292.215C895.06 290.995 894.68 289.515 894.43 287.755C894.18 286.005 894.06 283.895 894.06 281.445C894.06 278.995 894.1 275.945 894.18 272.315C894.22 270.915 894.21 269.825 894.15 269.065C894.09 268.305 894.04 267.665 893.99 267.145C893.94 266.625 893.93 266.145 893.93 265.695C893.93 265.245 894.01 264.645 894.18 263.895C894.35 263.115 894.48 262.355 894.58 261.635C894.68 260.915 894.88 260.155 895.17 259.375C895.46 258.595 895.88 257.765 896.44 256.895C897 256.025 897.81 255.085 898.88 254.045C900.37 252.475 902.03 251.335 903.86 250.605C905.7 249.885 907.69 249.525 909.83 249.525C911.07 249.525 912.39 249.715 913.79 250.085C915.19 250.455 916.43 250.915 917.5 251.445C917.83 251.615 918.19 251.875 918.58 252.245C918.97 252.615 919.34 252.995 919.69 253.395C920.04 253.795 920.35 254.165 920.62 254.535C920.89 254.905 921.09 255.155 921.21 255.275C921.71 255.855 922.12 256.555 922.45 257.375C922.78 258.205 923.06 259.055 923.29 259.945C923.52 260.835 923.69 261.715 923.82 262.575C923.94 263.445 924.03 264.225 924.07 264.925C924.15 265.795 924.19 266.605 924.19 267.375C924.19 268.145 924.18 268.935 924.16 269.755C924.14 270.585 924.12 271.485 924.1 272.475C924.08 273.465 924.09 274.575 924.13 275.815V278.725C924.13 279.795 924.1 280.875 924.04 281.945C923.98 283.015 923.9 284.025 923.82 284.975C923.74 285.925 923.63 286.715 923.51 287.325C923.3 288.315 923.16 289.205 923.08 289.985C923 290.765 922.86 291.505 922.68 292.185C922.5 292.865 922.2 293.545 921.81 294.225C921.42 294.905 920.85 295.655 920.11 296.485C919.57 297.105 918.87 297.725 918.01 298.345C917.15 298.965 916.22 299.545 915.26 300.075C914.29 300.615 913.31 301.045 912.32 301.375C911.33 301.705 910.42 301.875 909.6 301.875C908.28 301.875 906.88 301.655 905.39 301.225C903.9 300.795 902.62 300.205 901.55 299.465V299.495ZM904.28 278.635C904.24 279.745 904.24 280.545 904.28 281.015C904.32 281.495 904.38 281.915 904.47 282.285C904.55 282.655 904.65 283.085 904.75 283.585C904.85 284.085 904.93 284.885 904.97 285.995C905.05 287.355 905.42 288.545 906.08 289.555C906.74 290.565 907.83 291.075 909.36 291.075C910.06 291.075 910.66 290.855 911.16 290.425C911.65 289.995 912.06 289.405 912.37 288.665C912.68 287.925 912.93 287.085 913.11 286.155C913.3 285.225 913.45 284.265 913.58 283.275C913.66 282.575 913.72 282.045 913.77 281.695C913.81 281.345 913.85 281.065 913.89 280.855C913.93 280.645 913.96 280.445 913.98 280.235C914 280.025 914.03 279.705 914.07 279.275C914.11 278.845 914.14 278.245 914.16 277.475C914.18 276.715 914.21 275.665 914.25 274.345C914.33 271.705 914.39 269.505 914.44 267.755C914.48 266.005 914.37 264.565 914.1 263.455C913.83 262.345 913.34 261.515 912.61 260.975C911.89 260.435 910.8 260.085 909.36 259.925C908.78 260.255 908.28 260.535 907.84 260.755C907.41 260.985 907 261.265 906.63 261.595C906.26 261.925 905.93 262.345 905.64 262.865C905.35 263.385 905.08 264.115 904.83 265.065C904.66 265.685 904.57 266.125 904.55 266.395C904.53 266.665 904.53 266.925 904.55 267.165C904.57 267.415 904.58 267.715 904.58 268.065C904.58 268.415 904.54 268.965 904.46 269.705C904.42 270.285 904.39 270.855 904.37 271.435C904.35 272.015 904.34 272.645 904.34 273.325V275.645C904.34 276.515 904.32 277.505 904.28 278.615V278.635Z" fill="#231F20"/>
<path d="M950.639 300.986C950.309 301.066 950.039 301.106 949.839 301.106C949.379 301.106 948.949 301.006 948.539 300.796C948.129 300.586 947.879 300.256 947.799 299.806C947.629 299.146 947.539 298.466 947.519 297.766C947.499 297.066 947.519 296.226 947.579 295.256C947.639 294.286 947.719 293.136 947.829 291.816C947.929 290.496 948.009 288.886 948.049 286.986C948.089 285.796 948.099 284.866 948.079 284.206C948.059 283.546 948.029 283.006 947.989 282.596C947.949 282.186 947.909 281.836 947.869 281.546C947.829 281.256 947.799 280.876 947.779 280.406C947.759 279.936 947.749 279.306 947.749 278.516C947.749 277.726 947.769 276.636 947.809 275.236C947.889 272.676 947.909 270.466 947.869 268.616C947.829 266.756 947.799 265.126 947.779 263.726C947.759 262.326 947.739 261.106 947.719 260.076C947.699 259.046 947.749 258.076 947.879 257.166C947.959 256.506 947.999 255.846 947.999 255.186C947.999 254.526 948.029 253.916 948.089 253.356C948.149 252.796 948.279 252.306 948.459 251.866C948.639 251.426 948.939 251.116 949.359 250.906C949.569 250.786 949.999 250.676 950.659 250.596C951.319 250.516 952.139 250.436 953.109 250.376C954.079 250.316 955.159 250.266 956.359 250.216C957.549 250.176 958.769 250.156 960.009 250.156C962.279 250.156 964.419 250.226 966.419 250.376C968.419 250.526 969.809 250.776 970.599 251.146C971.959 251.806 973.229 252.676 974.409 253.746C975.579 254.816 976.579 256.036 977.379 257.396C978.179 258.756 978.749 260.256 979.079 261.886C979.409 263.516 979.389 265.226 979.019 266.996C978.769 268.196 978.279 269.486 977.529 270.866C976.779 272.246 975.969 273.586 975.079 274.886C974.189 276.186 973.329 277.356 972.479 278.416C971.629 279.466 970.959 280.246 970.469 280.736C968.819 282.346 967.079 283.566 965.269 284.386C964.439 284.716 963.619 285.086 962.799 285.496C961.969 285.906 961.209 286.216 960.509 286.426C960.099 286.596 959.729 286.746 959.399 286.886C959.069 287.036 958.799 287.286 958.599 287.656C958.389 288.026 958.239 288.556 958.129 289.236C958.019 289.916 957.969 290.856 957.969 292.056V295.126C957.969 295.926 957.949 296.586 957.909 297.106C957.869 297.626 957.799 298.056 957.689 298.406C957.579 298.756 957.449 299.116 957.289 299.486C957.039 299.986 956.819 300.286 956.609 300.416C956.399 300.536 955.869 300.646 954.999 300.726C953.889 300.896 952.979 300.956 952.279 300.916C951.579 300.876 951.039 300.896 950.669 300.976L950.639 300.986ZM958.569 275.536C958.689 275.616 958.799 275.686 958.879 275.726C958.959 275.766 959.069 275.786 959.189 275.786C959.399 275.786 959.599 275.716 959.809 275.566C960.019 275.416 960.349 275.186 960.799 274.856C961.579 274.276 962.399 273.666 963.249 272.996C964.089 272.336 964.879 271.626 965.599 270.856C966.319 270.086 966.949 269.286 967.489 268.446C968.029 267.606 968.399 266.676 968.599 265.696C968.679 265.246 968.749 264.916 968.789 264.706C968.829 264.496 968.809 264.296 968.729 264.086C968.609 263.466 968.369 262.926 968.019 262.446C967.669 261.976 967.279 261.576 966.849 261.266C966.419 260.956 965.949 260.716 965.459 260.556C964.969 260.386 964.529 260.306 964.159 260.306C963.909 260.306 963.749 260.326 963.669 260.366C962.389 260.616 961.379 260.746 960.639 260.766C959.899 260.786 959.339 261.016 958.969 261.446C958.599 261.876 958.349 262.656 958.229 263.766C958.109 264.876 958.019 266.616 957.979 268.966V272.436C957.979 273.266 957.999 273.886 958.039 274.326C958.079 274.756 958.139 275.046 958.229 275.196C958.309 275.346 958.439 275.456 958.599 275.536H958.569Z" fill="#231F20"/>
</svg>
