<svg width="3438" height="2372" viewBox="0 0 3438 2372" fill="none" xmlns="http://www.w3.org/2000/svg">
<path d="M3417.18 20.7578H20.835V2351.87H3417.18V20.7578Z" fill="#CB2026"/>
<path d="M2620.7 982.521H2727.43C2769.02 982.521 2791.2 990.838 2809.91 1004.7C2845.95 1031.73 2852.88 1069.84 2852.88 1146.77C2852.88 1215.38 2847.34 1255.57 2816.84 1277.75C2800.9 1289.53 2782.88 1293.69 2748.23 1293.69H2699.01V1471.8H2620.7V982.521ZM2727.43 1229.93C2762.09 1229.93 2768.32 1218.84 2771.1 1209.14C2774.56 1197.36 2775.26 1177.26 2775.26 1148.15C2775.26 1130.14 2775.95 1099.64 2771.79 1081.62C2766.94 1060.83 2756.54 1051.82 2728.82 1051.82H2699.01V1229.93H2727.43Z" stroke="white" stroke-width="7" stroke-miterlimit="10"/>
<path d="M3044.18 1293C3040.02 1275.67 3026.16 1264.58 2989.42 1264.58H2970.71V1471.8H2892.39V982.521H2999.13C3036.55 982.521 3066.36 990.145 3090.61 1014.4C3115.57 1039.35 3121.8 1066.38 3121.8 1114.2C3121.8 1180.73 3110.02 1204.98 3085.76 1218.15C3071.9 1225.77 3058.04 1227.16 3035.17 1229.24V1231.32C3064.28 1234.78 3076.75 1238.25 3088.54 1246.56C3132.2 1276.36 3125.27 1326.26 3124.58 1387.25C3123.88 1425.36 3127.35 1437.84 3139.82 1457.94L3140.52 1471.8H3067.74C3055.27 1447.54 3047.64 1419.13 3047.64 1356.76C3047.64 1338.04 3048.34 1310.32 3044.18 1293ZM3003.28 1196.67C3032.39 1196.67 3037.25 1185.58 3040.02 1175.88C3043.48 1161.32 3044.18 1141.22 3044.18 1129.44C3044.18 1112.12 3042.79 1093.41 3040.71 1081.62C3037.25 1060.83 3030.31 1051.82 3000.51 1051.82H2970.71V1196.67H3003.28Z" stroke="white" stroke-width="7" stroke-miterlimit="10"/>
<path d="M3342.21 982.521V1051.82H3259.04V1192.51H3338.74V1259.04H3259.04V1401.8H3344.98V1471.8H3180.72V982.521H3342.21Z" stroke="white" stroke-width="7" stroke-miterlimit="10"/>
<path d="M3417.18 1252.11H3369.24V1322.1H3417.18" stroke="white" stroke-width="7" stroke-miterlimit="10"/>
<path d="M90.8799 1085.44C101.969 1131.87 102.663 1199.09 102.663 1229.58C102.663 1260.08 101.969 1327.3 90.8799 1373.73" stroke="white" stroke-width="7" stroke-miterlimit="10"/>
<path d="M160.19 1394.53C152.565 1355.72 153.952 1266.32 153.952 1229.59V984.947H232.271V1229.59C232.271 1278.1 230.885 1330.77 232.271 1359.18C233.657 1381.36 236.43 1407.69 271.778 1407.69C307.125 1407.69 309.898 1381.36 311.285 1359.18C312.671 1330.77 311.285 1278.1 311.285 1229.59V984.947H389.604V1229.59C389.604 1266.32 390.99 1355.72 383.366 1394.53C373.663 1443.73 336.929 1479.07 271.778 1479.07C206.627 1479.07 169.893 1443.73 160.19 1394.53Z" stroke="white" stroke-width="7" stroke-miterlimit="10"/>
<path d="M488.717 1474.22V1054.94H423.566V984.947H632.188V1054.94H567.037V1474.22H488.717Z" stroke="white" stroke-width="7" stroke-miterlimit="10"/>
<path d="M1006.86 1308.41V1370.81C1006.86 1403.61 1017.66 1420.41 1031.26 1434.81C1043.66 1448.81 1060.46 1456.81 1060.46 1472.81C1060.46 1487.21 1048.06 1494.81 1029.26 1494.81C1005.66 1494.81 971.26 1492.81 945.26 1492.81C917.66 1492.81 883.26 1494.81 864.06 1494.81C842.06 1494.81 832.46 1486.01 832.46 1472.81C832.46 1446.01 870.46 1447.21 876.86 1402.01C880.46 1379.21 881.66 1286.01 881.66 1208.41C881.66 1154.01 881.26 1078.01 880.06 1060.81C874.86 997.606 835.66 1001.21 835.66 970.406C835.66 957.206 842.06 946.806 864.46 946.806C904.86 946.806 918.46 948.806 965.26 948.806C1009.26 948.806 1052.86 946.006 1103.26 946.006C1218.46 946.006 1290.86 992.406 1290.86 1092.01C1290.86 1141.21 1266.06 1195.61 1174.06 1227.61C1171.66 1228.81 1168.86 1230.41 1168.86 1233.21C1168.86 1235.21 1170.46 1238.01 1174.46 1240.01C1229.66 1269.61 1263.26 1317.61 1296.46 1377.61C1312.46 1407.21 1325.26 1428.01 1342.06 1441.21C1357.66 1454.81 1366.46 1456.81 1366.46 1472.41C1366.46 1490.01 1354.46 1494.81 1341.66 1494.81C1324.86 1494.81 1284.06 1492.81 1264.86 1492.81C1231.26 1492.81 1200.46 1494.81 1188.46 1494.81C1168.86 1494.81 1156.06 1484.41 1156.06 1471.21C1156.06 1457.21 1165.66 1452.01 1165.66 1432.81C1165.66 1387.61 1119.26 1308.81 1082.86 1282.81C1066.86 1272.81 1041.26 1270.41 1035.26 1270.41C1014.86 1270.41 1006.86 1284.81 1006.86 1308.41ZM1150.46 1108.41C1150.46 1052.01 1110.06 1017.21 1054.06 1017.21C1011.66 1017.21 1007.26 1022.41 1007.26 1071.21V1149.61C1007.26 1180.01 1014.06 1196.41 1058.86 1196.41C1114.86 1196.41 1150.46 1164.41 1150.46 1108.41Z" fill="white"/>
<path d="M1712.62 1157.61V1273.21C1712.62 1294.41 1708.22 1306.01 1693.42 1306.01C1677.42 1306.01 1671.02 1292.01 1665.82 1280.41C1652.22 1251.61 1645.02 1237.61 1589.82 1237.61C1572.62 1237.61 1566.62 1247.21 1566.62 1276.41V1361.21C1566.62 1416.81 1584.22 1422.81 1639.42 1422.81C1727.42 1422.81 1753.42 1398.41 1782.62 1335.21C1790.22 1319.21 1799.42 1307.21 1811.02 1307.21C1823.02 1307.21 1830.62 1316.41 1830.62 1340.81C1830.62 1360.41 1819.42 1423.61 1815.82 1464.81C1814.22 1489.21 1805.42 1494.81 1777.42 1494.81C1749.02 1494.81 1685.42 1492.81 1620.22 1492.81C1547.82 1492.81 1479.02 1494.81 1424.22 1494.81C1402.22 1494.81 1392.62 1486.01 1392.62 1472.81C1392.62 1446.01 1430.62 1447.21 1437.02 1402.01C1440.62 1379.21 1441.82 1286.01 1441.82 1208.41C1441.82 1154.01 1441.42 1078.01 1440.22 1060.81C1435.02 997.606 1395.82 1001.21 1395.82 970.406C1395.82 957.206 1402.22 946.806 1424.62 946.806C1465.02 946.806 1511.82 948.806 1603.82 948.806C1683.42 948.806 1726.62 946.806 1755.42 946.806C1783.82 946.806 1793.42 952.006 1799.02 988.406C1802.22 1005.61 1807.02 1037.21 1813.02 1068.01C1815.82 1081.61 1817.82 1097.21 1817.82 1102.41C1817.82 1119.21 1807.42 1126.01 1796.22 1126.01C1779.82 1126.01 1771.82 1108.41 1763.02 1092.01C1732.22 1030.01 1717.42 1014.81 1631.42 1014.81C1576.62 1014.81 1566.62 1022.41 1566.62 1066.41V1128.41C1566.62 1161.61 1572.22 1167.61 1587.42 1167.61C1652.62 1167.61 1658.22 1144.81 1673.02 1120.41C1677.82 1113.61 1683.82 1108.81 1691.02 1108.81C1706.22 1108.81 1712.62 1121.61 1712.62 1157.61Z" fill="white"/>
<path d="M1999.17 948.806C2043.17 948.806 2073.17 946.406 2116.37 946.406C2268.37 946.406 2416.77 1022.81 2416.77 1217.61C2416.77 1389.21 2318.37 1495.21 2155.97 1495.21C2108.77 1495.21 2049.97 1492.41 1999.17 1492.41C1972.37 1492.41 1941.57 1494.41 1917.97 1494.41C1895.97 1494.41 1886.37 1484.81 1886.37 1472.81C1886.37 1445.61 1924.77 1446.41 1931.17 1400.81C1934.37 1378.81 1935.57 1284.81 1935.57 1208.41C1935.57 1154.41 1935.57 1078.01 1934.37 1060.01C1929.17 997.206 1889.57 1000.81 1889.57 970.406C1889.57 957.206 1895.97 946.806 1918.37 946.806C1942.77 946.806 1973.17 948.806 1999.17 948.806ZM2061.17 1075.21V1353.21C2061.17 1410.01 2073.97 1424.41 2131.57 1424.41C2239.57 1424.41 2275.17 1324.41 2275.17 1232.81C2275.17 1111.61 2223.57 1014.41 2107.57 1014.41C2066.77 1014.41 2061.17 1032.81 2061.17 1075.21Z" fill="white"/>
<path d="M141.182 1670.21C150.782 1670.21 171.582 1671.81 184.382 1671.81C198.782 1671.81 210.782 1672.61 217.182 1675.81C225.182 1679.81 230.782 1687.01 243.582 1707.01L500.382 2099.01C509.182 2113.41 514.782 2116.61 516.382 2116.61C518.782 2116.61 520.382 2117.41 520.382 1946.21C520.382 1827.81 519.582 1735.01 517.982 1728.61C513.182 1700.61 473.982 1699.81 473.982 1682.21C473.982 1672.61 481.182 1670.21 493.982 1670.21C511.582 1670.21 532.382 1671.81 541.982 1671.81C553.182 1671.81 566.782 1670.21 583.582 1670.21C596.382 1670.21 601.182 1675.81 601.182 1683.01C601.182 1701.41 564.382 1700.61 562.782 1727.01C561.182 1741.41 560.382 1843.01 560.382 1953.41C560.382 2126.21 563.582 2174.21 563.582 2189.41C563.582 2207.01 541.982 2221.41 527.582 2221.41C518.782 2221.41 512.382 2214.21 506.782 2206.21L215.582 1765.41C212.382 1760.61 209.182 1755.81 207.582 1755.81C201.982 1755.81 201.182 1759.81 201.182 1943.81C201.182 2059.01 201.982 2155.81 203.582 2161.41C209.982 2189.41 249.182 2187.01 249.182 2204.61C249.182 2214.21 240.382 2217.41 228.382 2217.41C210.782 2217.41 189.182 2215.81 179.582 2215.81C167.582 2215.81 153.982 2217.41 137.982 2217.41C125.182 2217.41 118.782 2212.61 118.782 2205.41C118.782 2187.81 156.382 2188.61 158.782 2162.21C160.382 2144.61 161.182 2050.21 161.182 1945.41C161.182 1834.21 161.182 1739.01 160.382 1732.61C157.182 1696.61 120.382 1703.01 120.382 1683.01C120.382 1673.41 129.982 1670.21 141.182 1670.21Z" fill="white"/>
<path d="M1026.08 1935.81V2140.61C1026.08 2161.41 1033.28 2178.21 1050.08 2178.21C1062.88 2178.21 1066.08 2173.41 1072.48 2173.41C1073.28 2173.41 1078.08 2174.21 1078.08 2183.81C1078.08 2200.61 1057.28 2220.61 1030.88 2220.61C988.482 2220.61 978.082 2190.21 972.482 2173.41C971.682 2171.01 970.082 2167.01 966.882 2167.01C964.482 2167.01 959.682 2172.61 956.482 2175.81C945.282 2187.01 910.882 2223.81 835.682 2223.81C739.682 2223.81 699.682 2147.81 699.682 2063.01C699.682 1996.61 706.082 1923.81 706.082 1903.01C706.082 1880.61 701.282 1874.21 694.082 1867.01C685.282 1859.01 662.882 1855.81 662.882 1841.41C662.882 1831.01 670.882 1827.01 686.082 1824.61C727.682 1819.01 742.082 1812.61 757.282 1812.61C769.282 1812.61 774.082 1820.61 774.082 1829.41C774.082 1847.01 751.682 1904.61 751.682 2048.61C751.682 2115.81 771.682 2187.01 853.282 2187.01C928.482 2187.01 976.482 2136.61 976.482 2043.81V1904.61C976.482 1884.61 970.882 1870.21 950.082 1860.61C941.282 1856.61 930.082 1851.01 930.082 1841.41C930.082 1831.81 937.282 1827.01 948.482 1825.41C978.882 1822.21 1006.08 1812.61 1019.68 1812.61C1027.68 1812.61 1035.68 1817.41 1035.68 1828.61C1035.68 1847.01 1026.08 1865.41 1026.08 1935.81Z" fill="white"/>
<path d="M1230.74 1863.01C1229.94 1873.41 1226.74 2039.01 1226.74 2078.21C1226.74 2122.21 1230.74 2183.81 1292.34 2183.81C1325.94 2183.81 1353.14 2160.61 1367.54 2143.01C1375.54 2133.41 1379.54 2127.81 1385.14 2127.81C1387.54 2127.81 1393.14 2129.41 1393.14 2138.21C1393.14 2143.81 1390.74 2153.41 1384.34 2163.01C1369.94 2185.41 1340.34 2223.81 1275.54 2223.81C1218.74 2223.81 1176.34 2187.01 1176.34 2083.81C1176.34 2046.21 1181.94 1901.41 1181.94 1876.61C1181.94 1863.81 1179.54 1859.81 1170.74 1859.01C1130.74 1855.01 1110.74 1856.61 1110.74 1841.41C1110.74 1833.41 1116.34 1829.41 1126.74 1826.21C1144.34 1821.41 1164.34 1815.01 1178.74 1795.81C1205.14 1760.61 1203.54 1707.01 1222.74 1707.01C1230.74 1707.01 1233.94 1715.81 1233.94 1727.81C1233.94 1740.61 1229.94 1818.21 1229.94 1820.61C1229.94 1822.21 1229.94 1823.01 1233.14 1823.01C1237.14 1823.01 1353.94 1818.21 1361.14 1818.21C1370.74 1818.21 1378.74 1821.41 1378.74 1833.41C1378.74 1844.61 1372.34 1856.61 1368.34 1859.81C1366.74 1861.41 1362.74 1863.01 1359.54 1863.01C1352.34 1863.01 1242.74 1858.21 1235.54 1858.21C1233.14 1858.21 1230.74 1859.01 1230.74 1863.01Z" fill="white"/>
<path d="M1639.48 1853.41C1588.28 1853.41 1533.08 1918.21 1533.08 1963.01V2151.81C1533.08 2171.01 1544.28 2179.81 1564.28 2187.01C1575.48 2191.01 1595.48 2193.41 1595.48 2204.61C1595.48 2211.81 1591.48 2217.41 1573.88 2217.41C1556.28 2217.41 1530.68 2215.81 1509.08 2215.81C1489.88 2215.81 1493.88 2217.41 1461.88 2217.41C1444.28 2217.41 1440.28 2211.81 1440.28 2205.41C1440.28 2195.01 1452.28 2192.61 1460.28 2188.61C1479.48 2179.01 1483.48 2169.41 1483.48 2149.41V1889.41C1483.48 1875.01 1473.88 1870.21 1455.48 1865.41C1447.48 1863.01 1440.28 1858.21 1440.28 1851.81C1440.28 1839.81 1452.28 1837.41 1467.48 1831.81C1487.48 1824.61 1504.28 1815.81 1515.48 1815.81C1521.88 1815.81 1526.68 1819.01 1528.28 1828.61C1533.08 1854.21 1533.88 1883.81 1541.08 1883.81C1547.48 1883.81 1597.08 1809.41 1673.08 1809.41C1702.68 1809.41 1735.48 1827.81 1735.48 1869.41C1735.48 1898.21 1719.48 1921.41 1695.48 1921.41C1679.48 1921.41 1684.28 1911.01 1681.08 1892.61C1677.08 1869.41 1663.48 1853.41 1639.48 1853.41Z" fill="white"/>
<path d="M1806.41 1714.21C1806.41 1685.41 1833.61 1656.61 1861.61 1656.61C1881.61 1656.61 1897.61 1670.21 1897.61 1691.01C1897.61 1720.61 1868.01 1743.81 1837.61 1743.81C1816.81 1743.81 1806.41 1731.01 1806.41 1714.21ZM1881.61 1830.21C1881.61 1843.81 1878.41 1866.21 1878.41 1935.01V2151.81C1878.41 2171.01 1886.41 2180.61 1898.41 2187.01C1909.61 2192.61 1921.61 2195.01 1921.61 2204.61C1921.61 2211.81 1917.61 2217.41 1900.01 2217.41C1882.41 2217.41 1876.01 2215.81 1854.41 2215.81C1835.21 2215.81 1839.21 2217.41 1807.21 2217.41C1789.61 2217.41 1785.61 2211.81 1785.61 2205.41C1785.61 2195.01 1797.61 2192.61 1805.61 2188.61C1824.81 2179.01 1828.81 2169.41 1828.81 2149.41V1891.81C1828.81 1877.41 1819.21 1870.21 1800.81 1865.41C1792.81 1863.01 1784.81 1858.21 1784.81 1851.01C1784.81 1839.01 1795.21 1837.41 1810.41 1831.81C1844.81 1818.21 1853.61 1809.41 1864.81 1809.41C1876.81 1809.41 1881.61 1815.81 1881.61 1830.21Z" fill="white"/>
<path d="M2078.39 1863.01C2077.59 1873.41 2074.39 2039.01 2074.39 2078.21C2074.39 2122.21 2078.39 2183.81 2139.99 2183.81C2173.59 2183.81 2200.79 2160.61 2215.19 2143.01C2223.19 2133.41 2227.19 2127.81 2232.79 2127.81C2235.19 2127.81 2240.79 2129.41 2240.79 2138.21C2240.79 2143.81 2238.39 2153.41 2231.99 2163.01C2217.59 2185.41 2187.99 2223.81 2123.19 2223.81C2066.39 2223.81 2023.99 2187.01 2023.99 2083.81C2023.99 2046.21 2029.59 1901.41 2029.59 1876.61C2029.59 1863.81 2027.19 1859.81 2018.39 1859.01C1978.39 1855.01 1958.39 1856.61 1958.39 1841.41C1958.39 1833.41 1963.99 1829.41 1974.39 1826.21C1991.99 1821.41 2011.99 1815.01 2026.39 1795.81C2052.79 1760.61 2051.19 1707.01 2070.39 1707.01C2078.39 1707.01 2081.59 1715.81 2081.59 1727.81C2081.59 1740.61 2077.59 1818.21 2077.59 1820.61C2077.59 1822.21 2077.59 1823.01 2080.79 1823.01C2084.79 1823.01 2201.59 1818.21 2208.79 1818.21C2218.39 1818.21 2226.39 1821.41 2226.39 1833.41C2226.39 1844.61 2219.99 1856.61 2215.99 1859.81C2214.39 1861.41 2210.39 1863.01 2207.19 1863.01C2199.99 1863.01 2090.39 1858.21 2083.19 1858.21C2080.79 1858.21 2078.39 1859.01 2078.39 1863.01Z" fill="white"/>
<path d="M2309.54 1714.21C2309.54 1685.41 2336.74 1656.61 2364.74 1656.61C2384.74 1656.61 2400.74 1670.21 2400.74 1691.01C2400.74 1720.61 2371.14 1743.81 2340.74 1743.81C2319.94 1743.81 2309.54 1731.01 2309.54 1714.21ZM2384.74 1830.21C2384.74 1843.81 2381.54 1866.21 2381.54 1935.01V2151.81C2381.54 2171.01 2389.54 2180.61 2401.54 2187.01C2412.74 2192.61 2424.74 2195.01 2424.74 2204.61C2424.74 2211.81 2420.74 2217.41 2403.14 2217.41C2385.54 2217.41 2379.14 2215.81 2357.54 2215.81C2338.34 2215.81 2342.34 2217.41 2310.34 2217.41C2292.74 2217.41 2288.74 2211.81 2288.74 2205.41C2288.74 2195.01 2300.74 2192.61 2308.74 2188.61C2327.94 2179.01 2331.94 2169.41 2331.94 2149.41V1891.81C2331.94 1877.41 2322.34 1870.21 2303.94 1865.41C2295.94 1863.01 2287.94 1858.21 2287.94 1851.01C2287.94 1839.01 2298.34 1837.41 2313.54 1831.81C2347.94 1818.21 2356.74 1809.41 2367.94 1809.41C2379.94 1809.41 2384.74 1815.81 2384.74 1830.21Z" fill="white"/>
<path d="M2480.72 2019.01C2480.72 1895.81 2561.52 1809.41 2671.92 1809.41C2777.52 1809.41 2871.12 1889.41 2871.12 2026.21C2871.12 2158.21 2783.92 2223.81 2678.32 2223.81C2557.52 2223.81 2480.72 2138.21 2480.72 2019.01ZM2667.12 1839.81C2594.32 1839.81 2535.92 1902.21 2535.92 2007.01C2535.92 2036.61 2540.72 2077.41 2559.92 2113.41C2591.92 2173.41 2644.72 2191.81 2687.12 2191.81C2755.92 2191.81 2817.52 2143.01 2817.52 2037.41C2817.52 1991.81 2806.32 1947.81 2787.92 1915.81C2758.32 1864.61 2712.72 1839.81 2667.12 1839.81Z" fill="white"/>
<path d="M3304.6 1979.01C3304.6 2068.61 3292.6 2135.01 3292.6 2158.21C3292.6 2168.61 3299 2179.81 3311 2186.21C3325.4 2192.61 3337.4 2194.21 3337.4 2204.61C3337.4 2212.61 3332.6 2217.41 3315 2217.41C3303 2217.41 3299.8 2215.81 3278.2 2215.81C3259.8 2215.81 3248.6 2217.41 3239.8 2217.41C3227.8 2217.41 3224.6 2211.81 3224.6 2205.41C3224.6 2199.01 3231 2187.81 3232.6 2183.01C3239.8 2159.01 3251.8 2081.41 3251.8 1986.21C3251.8 1895.01 3210.2 1849.41 3147 1849.41C3082.2 1849.41 3019.8 1916.61 3019.8 1951.01V2151.81C3019.8 2171.01 3027.8 2180.61 3039.8 2187.01C3051 2192.61 3063 2195.01 3063 2204.61C3063 2211.81 3059 2217.41 3041.4 2217.41C3023.8 2217.41 3014.2 2215.81 2995.8 2215.81C2979 2215.81 2967.8 2217.41 2948.6 2217.41C2931 2217.41 2927 2211.81 2927 2205.41C2927 2195.01 2939 2192.61 2947 2188.61C2966.2 2179.01 2970.2 2169.41 2970.2 2149.41V1889.41C2970.2 1875.01 2960.6 1870.21 2942.2 1865.41C2934.2 1863.01 2927 1858.21 2927 1851.81C2927 1839.81 2939 1837.41 2954.2 1831.81C2974.2 1824.61 2991 1815.81 3002.2 1815.81C3008.6 1815.81 3013.4 1819.01 3015 1828.61C3019.8 1854.21 3020.6 1883.81 3027.8 1883.81C3034.2 1883.81 3087 1809.41 3170.2 1809.41C3247 1809.41 3304.6 1860.61 3304.6 1979.01Z" fill="white"/>
</svg>
