<svg width="427" height="258" viewBox="0 0 427 258" fill="none" xmlns="http://www.w3.org/2000/svg">
<rect x="0.5" y="0.5" width="426" height="257" rx="4.5" stroke="#8A38F5" stroke-dasharray="10 5"/>
<rect x="20" y="20" width="387" height="218" rx="20" fill="white"/>
<rect x="353" y="40" width="24" height="24" rx="12" fill="white"/>
<path fill-rule="evenodd" clip-rule="evenodd" d="M356.33 43.3295C356.769 42.8902 357.481 42.8902 357.92 43.3295L373.67 59.0795C374.11 59.5188 374.11 60.2312 373.67 60.6705C373.231 61.1098 372.519 61.1098 372.08 60.6705L356.33 44.9205C355.89 44.4812 355.89 43.7688 356.33 43.3295Z" fill="#2C2C2C"/>
<path fill-rule="evenodd" clip-rule="evenodd" d="M373.67 43.3295C374.11 43.7688 374.11 44.4812 373.67 44.9205L357.92 60.6705C357.481 61.1098 356.769 61.1098 356.33 60.6705C355.89 60.2312 355.89 59.5188 356.33 59.0795L372.08 43.3295C372.519 42.8902 373.231 42.8902 373.67 43.3295Z" fill="#2C2C2C"/>
<rect x="172" y="54" width="83" height="83" rx="41.5" fill="#DDF580"/>
<path d="M171.52 80.4649C167.533 81.9163 164.285 84.8922 162.492 88.7381C160.698 92.584 160.506 96.9848 161.958 100.972C163.409 104.96 166.385 108.208 170.231 110.001C174.077 111.794 178.478 111.986 182.465 110.535C186.453 109.084 189.7 106.108 191.494 102.262C193.287 98.416 193.479 94.0152 192.028 90.0277C190.576 86.0401 187.601 82.7925 183.755 80.9991C179.909 79.2057 175.508 79.0136 171.52 80.4649V80.4649ZM168.547 91.2652C169.007 88.0671 176.02 88.2899 172.685 97.0678C163.144 97.1438 165.329 90.5977 168.547 91.2652ZM184.601 97.0175C184.764 96.9106 184.955 96.8537 185.15 96.8538C185.345 96.8539 185.535 96.9111 185.698 97.0183C185.861 97.1255 185.989 97.2779 186.067 97.457C186.144 97.636 186.167 97.8337 186.134 98.0259C185.86 99.5822 185.181 101.039 184.165 102.249C183.149 103.46 181.832 104.381 180.347 104.921C178.863 105.462 177.261 105.603 175.705 105.328C174.149 105.054 172.692 104.375 171.482 103.359C171.333 103.233 171.224 103.067 171.168 102.88C171.112 102.693 171.112 102.494 171.168 102.307C171.224 102.12 171.334 101.954 171.483 101.828C171.632 101.703 171.815 101.624 172.009 101.601L172.018 101.597L172.053 101.595L172.19 101.577L172.701 101.508C173.136 101.448 173.743 101.359 174.427 101.24C175.814 100.999 177.453 100.653 178.637 100.222C179.821 99.7915 181.3 99.002 182.516 98.2956C183.168 97.9161 183.812 97.5228 184.447 97.116L184.563 97.0419L184.592 97.0228L184.6 97.0156L184.601 97.0175ZM180.742 86.8265C182.777 84.2471 188.658 87.8573 181.3 93.9322C173.105 89.3508 178.334 84.6722 180.74 86.8272L180.742 86.8265Z" fill="#8371A5"/>
<path d="M255.479 80.465C251.492 79.0136 247.091 79.2058 243.245 80.9992C239.399 82.7925 236.423 86.0402 234.972 90.0278C233.521 94.0153 233.713 98.4161 235.506 102.262C237.3 106.108 240.547 109.084 244.535 110.535C248.522 111.987 252.923 111.794 256.769 110.001C260.615 108.208 263.591 104.96 265.042 100.972C266.494 96.9849 266.301 92.5841 264.508 88.7382C262.715 84.8923 259.467 81.9163 255.479 80.465V80.465ZM246.259 86.8272C248.667 84.6729 253.897 89.3516 245.7 93.9323C238.342 87.8573 244.223 84.2472 246.259 86.8272ZM254.86 101.553C255.053 101.576 255.236 101.655 255.385 101.78C255.535 101.906 255.644 102.072 255.7 102.259C255.756 102.446 255.756 102.645 255.7 102.832C255.644 103.019 255.535 103.185 255.386 103.311C254.176 104.327 252.719 105.006 251.163 105.28C249.607 105.555 248.006 105.414 246.521 104.873C245.036 104.333 243.719 103.412 242.703 102.201C241.687 100.991 241.008 99.5343 240.734 97.9781C240.701 97.7859 240.724 97.5882 240.802 97.4091C240.879 97.2301 241.007 97.0776 241.17 96.9705C241.333 96.8633 241.524 96.8061 241.719 96.806C241.914 96.8058 242.105 96.8628 242.268 96.9697L242.277 96.9731L242.306 96.9941L242.421 97.0682L242.857 97.3439C243.23 97.5774 243.751 97.8992 244.352 98.2477C245.57 98.9548 247.047 99.7437 248.231 100.175C249.415 100.606 251.056 100.952 252.441 101.192C253.185 101.32 253.931 101.433 254.679 101.529L254.815 101.547L254.85 101.551L254.86 101.551L254.86 101.553ZM258.455 91.266C261.671 90.5978 263.856 97.1438 254.315 97.0679C250.982 88.2906 257.995 88.0678 258.453 91.2653L258.455 91.266Z" fill="#8371A5"/>
<path d="M213.5 69C220.528 69 227.269 71.792 232.238 76.7617C237.208 81.7314 240 88.4718 240 95.5C240 102.528 237.208 109.269 232.238 114.238C227.269 119.208 220.528 122 213.5 122C206.472 122 199.731 119.208 194.762 114.238C189.792 109.269 187 102.528 187 95.5C187 88.4718 189.792 81.7314 194.762 76.7617C199.731 71.792 206.472 69 213.5 69ZM225.031 102.57C224.825 102.495 224.602 102.482 224.389 102.532C224.385 102.533 224.38 102.532 224.376 102.533C224.375 102.534 224.373 102.535 224.372 102.535L224.316 102.549L224.312 102.55L224.094 102.599C223.192 102.801 222.286 102.989 221.378 103.162L220.469 103.331C218.215 103.735 215.481 104.125 213.387 104.125C211.292 104.125 208.56 103.735 206.304 103.331C205.185 103.131 204.204 102.928 203.502 102.778L203.5 102.777L202.682 102.599H202.679L202.461 102.55C202.45 102.547 202.439 102.544 202.429 102.541L202.407 102.534C202.4 102.533 202.391 102.534 202.384 102.532C202.17 102.482 201.947 102.495 201.741 102.57C201.535 102.646 201.355 102.779 201.224 102.955C201.093 103.131 201.016 103.342 201.003 103.561C200.99 103.78 201.042 103.998 201.151 104.188C202.391 106.336 204.174 108.12 206.321 109.359C208.469 110.599 210.906 111.251 213.386 111.25H213.387L213.851 111.242C216.17 111.167 218.437 110.522 220.451 109.359C222.599 108.12 224.382 106.336 225.621 104.188C225.731 103.998 225.782 103.78 225.77 103.561C225.757 103.342 225.68 103.131 225.549 102.955C225.418 102.779 225.237 102.645 225.031 102.57ZM208.799 84.1846C207.276 82.4708 204.443 82.6242 203.397 84.5752C203.332 84.6968 203.22 84.7864 203.087 84.8223C202.954 84.8581 202.812 84.8371 202.694 84.7646C200.753 83.5651 198.237 84.8286 197.812 87.0176C197.604 88.0848 197.893 89.4284 199.14 90.8428C200.356 92.2224 202.479 93.6563 205.895 94.9092C208.2 92.1781 209.294 89.9152 209.632 88.1387C209.978 86.3181 209.536 85.014 208.799 84.1846ZM223.603 84.5752C222.559 82.6243 219.726 82.4703 218.203 84.1846C217.466 85.014 217.024 86.3182 217.37 88.1387C217.708 89.9151 218.8 92.1784 221.104 94.9092C224.52 93.6562 226.644 92.2225 227.86 90.8428C229.107 89.4282 229.396 88.0839 229.188 87.0166C228.763 84.8279 226.248 83.5658 224.31 84.7646C224.231 84.8135 224.139 84.8398 224.046 84.8398H224.043C223.859 84.8398 223.69 84.7378 223.603 84.5752Z" fill="#8371A5" stroke="#DDF580" stroke-linejoin="round"/>
<path d="M90.5614 156.455H93.5373L97.0955 162.889H97.2376L100.796 156.455H103.772L98.4805 165.574V171H95.8526V165.574L90.5614 156.455ZM108.251 171.213C107.186 171.213 106.263 170.979 105.482 170.51C104.7 170.041 104.094 169.385 103.663 168.543C103.237 167.7 103.024 166.715 103.024 165.588C103.024 164.461 103.237 163.474 103.663 162.626C104.094 161.779 104.7 161.121 105.482 160.652C106.263 160.183 107.186 159.949 108.251 159.949C109.317 159.949 110.24 160.183 111.021 160.652C111.803 161.121 112.406 161.779 112.832 162.626C113.263 163.474 113.479 164.461 113.479 165.588C113.479 166.715 113.263 167.7 112.832 168.543C112.406 169.385 111.803 170.041 111.021 170.51C110.24 170.979 109.317 171.213 108.251 171.213ZM108.266 169.153C108.843 169.153 109.326 168.995 109.714 168.678C110.103 168.356 110.392 167.925 110.581 167.385C110.775 166.845 110.872 166.244 110.872 165.581C110.872 164.913 110.775 164.31 110.581 163.77C110.392 163.225 110.103 162.792 109.714 162.47C109.326 162.148 108.843 161.987 108.266 161.987C107.674 161.987 107.181 162.148 106.788 162.47C106.4 162.792 106.109 163.225 105.915 163.77C105.725 164.31 105.631 164.913 105.631 165.581C105.631 166.244 105.725 166.845 105.915 167.385C106.109 167.925 106.4 168.356 106.788 168.678C107.181 168.995 107.674 169.153 108.266 169.153ZM122.614 166.412V160.091H125.185V171H122.692V169.061H122.578C122.332 169.672 121.927 170.171 121.364 170.56C120.805 170.948 120.116 171.142 119.297 171.142C118.582 171.142 117.95 170.983 117.401 170.666C116.856 170.344 116.43 169.878 116.123 169.267C115.815 168.652 115.661 167.908 115.661 167.037V160.091H118.232V166.639C118.232 167.33 118.421 167.88 118.8 168.287C119.179 168.694 119.676 168.898 120.292 168.898C120.67 168.898 121.037 168.805 121.392 168.621C121.748 168.436 122.039 168.161 122.266 167.797C122.498 167.428 122.614 166.966 122.614 166.412ZM127.829 171V160.091H130.322V161.909H130.435C130.634 161.279 130.975 160.794 131.458 160.453C131.946 160.107 132.502 159.935 133.127 159.935C133.269 159.935 133.428 159.942 133.603 159.956C133.783 159.965 133.932 159.982 134.05 160.006V162.371C133.942 162.333 133.769 162.3 133.532 162.271C133.3 162.238 133.075 162.222 132.857 162.222C132.388 162.222 131.967 162.323 131.593 162.527C131.224 162.726 130.933 163.003 130.719 163.358C130.506 163.713 130.4 164.123 130.4 164.587V171H127.829ZM143.468 156.455V171H140.833V156.455H143.468ZM148.779 164.608V171H146.208V160.091H148.665V161.945H148.793C149.044 161.334 149.444 160.848 149.993 160.489C150.547 160.129 151.231 159.949 152.046 159.949C152.799 159.949 153.454 160.11 154.013 160.432C154.577 160.754 155.012 161.22 155.32 161.831C155.632 162.442 155.786 163.183 155.782 164.054V171H153.211V164.452C153.211 163.723 153.021 163.152 152.642 162.74C152.268 162.328 151.75 162.122 151.087 162.122C150.637 162.122 150.237 162.222 149.887 162.42C149.541 162.615 149.269 162.896 149.07 163.266C148.876 163.635 148.779 164.082 148.779 164.608ZM167.749 160.091L163.864 171H161.023L157.138 160.091H159.88L162.387 168.195H162.5L165.015 160.091H167.749ZM173.915 171.213C172.85 171.213 171.927 170.979 171.146 170.51C170.364 170.041 169.758 169.385 169.327 168.543C168.901 167.7 168.688 166.715 168.688 165.588C168.688 164.461 168.901 163.474 169.327 162.626C169.758 161.779 170.364 161.121 171.146 160.652C171.927 160.183 172.85 159.949 173.915 159.949C174.981 159.949 175.904 160.183 176.685 160.652C177.467 161.121 178.07 161.779 178.496 162.626C178.927 163.474 179.143 164.461 179.143 165.588C179.143 166.715 178.927 167.7 178.496 168.543C178.07 169.385 177.467 170.041 176.685 170.51C175.904 170.979 174.981 171.213 173.915 171.213ZM173.93 169.153C174.507 169.153 174.99 168.995 175.379 168.678C175.767 168.356 176.056 167.925 176.245 167.385C176.439 166.845 176.536 166.244 176.536 165.581C176.536 164.913 176.439 164.31 176.245 163.77C176.056 163.225 175.767 162.792 175.379 162.47C174.99 162.148 174.507 161.987 173.93 161.987C173.338 161.987 172.845 162.148 172.452 162.47C172.064 162.792 171.773 163.225 171.579 163.77C171.389 164.31 171.295 164.913 171.295 165.581C171.295 166.244 171.389 166.845 171.579 167.385C171.773 167.925 172.064 168.356 172.452 168.678C172.845 168.995 173.338 169.153 173.93 169.153ZM181.325 171V160.091H183.896V171H181.325ZM182.618 158.543C182.21 158.543 181.86 158.408 181.566 158.138C181.273 157.863 181.126 157.534 181.126 157.151C181.126 156.762 181.273 156.433 181.566 156.163C181.86 155.889 182.21 155.751 182.618 155.751C183.029 155.751 183.38 155.889 183.669 156.163C183.962 156.433 184.109 156.762 184.109 157.151C184.109 157.534 183.962 157.863 183.669 158.138C183.38 158.408 183.029 158.543 182.618 158.543ZM191.298 171.213C190.209 171.213 189.274 170.974 188.493 170.496C187.716 170.018 187.117 169.357 186.696 168.514C186.279 167.667 186.071 166.691 186.071 165.588C186.071 164.48 186.284 163.502 186.71 162.655C187.136 161.803 187.738 161.14 188.514 160.666C189.295 160.188 190.219 159.949 191.284 159.949C192.17 159.949 192.953 160.112 193.635 160.439C194.321 160.761 194.868 161.218 195.276 161.81C195.683 162.397 195.915 163.083 195.972 163.869H193.514C193.415 163.344 193.178 162.906 192.804 162.555C192.435 162.2 191.94 162.023 191.32 162.023C190.794 162.023 190.332 162.165 189.935 162.449C189.537 162.728 189.227 163.131 189.004 163.656C188.786 164.182 188.678 164.812 188.678 165.545C188.678 166.289 188.786 166.928 189.004 167.463C189.222 167.993 189.527 168.403 189.92 168.692C190.318 168.976 190.785 169.118 191.32 169.118C191.698 169.118 192.037 169.047 192.335 168.905C192.638 168.758 192.892 168.547 193.095 168.273C193.299 167.998 193.438 167.664 193.514 167.271H195.972C195.91 168.043 195.683 168.727 195.29 169.324C194.897 169.916 194.362 170.38 193.685 170.716C193.008 171.047 192.212 171.213 191.298 171.213ZM202.912 171.213C201.819 171.213 200.874 170.986 200.078 170.531C199.288 170.072 198.679 169.423 198.253 168.585C197.827 167.742 197.614 166.75 197.614 165.609C197.614 164.487 197.827 163.502 198.253 162.655C198.684 161.803 199.285 161.14 200.057 160.666C200.829 160.188 201.736 159.949 202.777 159.949C203.45 159.949 204.084 160.058 204.681 160.276C205.282 160.489 205.812 160.82 206.272 161.27C206.736 161.72 207.1 162.293 207.365 162.989C207.631 163.68 207.763 164.504 207.763 165.46V166.249H198.821V164.516H205.299C205.294 164.023 205.187 163.585 204.979 163.202C204.771 162.813 204.48 162.508 204.105 162.286C203.736 162.063 203.305 161.952 202.813 161.952C202.287 161.952 201.826 162.08 201.428 162.335C201.03 162.586 200.72 162.918 200.498 163.33C200.28 163.737 200.168 164.184 200.164 164.672V166.185C200.164 166.819 200.28 167.364 200.512 167.818C200.744 168.268 201.068 168.614 201.485 168.855C201.901 169.092 202.389 169.21 202.948 169.21C203.322 169.21 203.66 169.158 203.963 169.054C204.266 168.945 204.529 168.786 204.752 168.578C204.974 168.37 205.142 168.112 205.256 167.804L207.657 168.074C207.505 168.708 207.216 169.262 206.79 169.736C206.369 170.205 205.829 170.569 205.171 170.83C204.513 171.085 203.76 171.213 202.912 171.213ZM214.899 171V160.091H217.47V171H214.899ZM216.192 158.543C215.785 158.543 215.434 158.408 215.141 158.138C214.847 157.863 214.7 157.534 214.7 157.151C214.7 156.762 214.847 156.433 215.141 156.163C215.434 155.889 215.785 155.751 216.192 155.751C216.604 155.751 216.954 155.889 217.243 156.163C217.536 156.433 217.683 156.762 217.683 157.151C217.683 157.534 217.536 157.863 217.243 158.138C216.954 158.408 216.604 158.543 216.192 158.543ZM228.736 162.974L226.392 163.23C226.326 162.993 226.21 162.771 226.044 162.562C225.883 162.354 225.666 162.186 225.391 162.058C225.116 161.93 224.78 161.866 224.382 161.866C223.847 161.866 223.398 161.982 223.033 162.214C222.673 162.446 222.496 162.747 222.5 163.116C222.496 163.434 222.612 163.692 222.848 163.891C223.09 164.089 223.488 164.253 224.042 164.381L225.902 164.778C226.935 165.001 227.702 165.354 228.203 165.837C228.71 166.32 228.966 166.952 228.971 167.733C228.966 168.42 228.765 169.026 228.367 169.551C227.974 170.072 227.427 170.479 226.726 170.773C226.025 171.066 225.221 171.213 224.311 171.213C222.976 171.213 221.901 170.934 221.087 170.375C220.273 169.812 219.787 169.028 219.631 168.024L222.138 167.783C222.252 168.275 222.493 168.647 222.863 168.898C223.232 169.149 223.712 169.274 224.304 169.274C224.915 169.274 225.405 169.149 225.775 168.898C226.149 168.647 226.336 168.337 226.336 167.967C226.336 167.655 226.215 167.397 225.973 167.193C225.737 166.99 225.367 166.833 224.865 166.724L223.005 166.334C221.958 166.116 221.184 165.749 220.682 165.233C220.18 164.712 219.932 164.054 219.936 163.259C219.932 162.586 220.114 162.004 220.483 161.511C220.857 161.014 221.376 160.631 222.039 160.361C222.706 160.086 223.476 159.949 224.347 159.949C225.625 159.949 226.632 160.221 227.365 160.766C228.104 161.31 228.561 162.046 228.736 162.974ZM245.909 161.099C245.791 160.716 245.628 160.373 245.419 160.07C245.216 159.762 244.97 159.499 244.681 159.281C244.397 159.063 244.07 158.9 243.701 158.791C243.331 158.678 242.929 158.621 242.493 158.621C241.712 158.621 241.016 158.817 240.405 159.21C239.794 159.603 239.314 160.181 238.963 160.943C238.618 161.701 238.445 162.624 238.445 163.713C238.445 164.812 238.618 165.742 238.963 166.504C239.309 167.267 239.79 167.847 240.405 168.244C241.021 168.637 241.736 168.834 242.55 168.834C243.289 168.834 243.928 168.692 244.468 168.408C245.012 168.124 245.431 167.721 245.725 167.2C246.018 166.675 246.165 166.059 246.165 165.354L246.762 165.446H242.813V163.386H248.715V165.134C248.715 166.379 248.45 167.456 247.919 168.365C247.389 169.274 246.66 169.975 245.732 170.467C244.804 170.955 243.739 171.199 242.536 171.199C241.196 171.199 240.019 170.898 239.006 170.297C237.998 169.691 237.209 168.831 236.641 167.719C236.078 166.601 235.796 165.276 235.796 163.741C235.796 162.567 235.962 161.518 236.293 160.595C236.629 159.672 237.098 158.888 237.699 158.244C238.301 157.596 239.006 157.103 239.816 156.767C240.625 156.426 241.506 156.256 242.458 156.256C243.263 156.256 244.013 156.374 244.709 156.611C245.405 156.843 246.023 157.174 246.563 157.605C247.107 158.036 247.555 158.547 247.905 159.139C248.256 159.731 248.485 160.384 248.594 161.099H245.909ZM255.979 171.213C254.885 171.213 253.94 170.986 253.145 170.531C252.354 170.072 251.746 169.423 251.32 168.585C250.893 167.742 250.68 166.75 250.68 165.609C250.68 164.487 250.893 163.502 251.32 162.655C251.75 161.803 252.352 161.14 253.124 160.666C253.895 160.188 254.802 159.949 255.844 159.949C256.516 159.949 257.151 160.058 257.747 160.276C258.348 160.489 258.879 160.82 259.338 161.27C259.802 161.72 260.167 162.293 260.432 162.989C260.697 163.68 260.83 164.504 260.83 165.46V166.249H251.888V164.516H258.365C258.36 164.023 258.254 163.585 258.045 163.202C257.837 162.813 257.546 162.508 257.172 162.286C256.803 162.063 256.372 161.952 255.879 161.952C255.354 161.952 254.892 162.08 254.494 162.335C254.097 162.586 253.786 162.918 253.564 163.33C253.346 163.737 253.235 164.184 253.23 164.672V166.185C253.23 166.819 253.346 167.364 253.578 167.818C253.81 168.268 254.134 168.614 254.551 168.855C254.968 169.092 255.455 169.21 256.014 169.21C256.388 169.21 256.727 169.158 257.03 169.054C257.333 168.945 257.596 168.786 257.818 168.578C258.041 168.37 258.209 168.112 258.322 167.804L260.723 168.074C260.571 168.708 260.283 169.262 259.857 169.736C259.435 170.205 258.895 170.569 258.237 170.83C257.579 171.085 256.826 171.213 255.979 171.213ZM265.576 164.608V171H263.005V160.091H265.462V161.945H265.59C265.841 161.334 266.241 160.848 266.79 160.489C267.344 160.129 268.028 159.949 268.843 159.949C269.596 159.949 270.251 160.11 270.81 160.432C271.373 160.754 271.809 161.22 272.117 161.831C272.429 162.442 272.583 163.183 272.578 164.054V171H270.007V164.452C270.007 163.723 269.818 163.152 269.439 162.74C269.065 162.328 268.547 162.122 267.884 162.122C267.434 162.122 267.034 162.222 266.684 162.42C266.338 162.615 266.066 162.896 265.867 163.266C265.673 163.635 265.576 164.082 265.576 164.608ZM280.022 171.213C278.928 171.213 277.983 170.986 277.188 170.531C276.397 170.072 275.789 169.423 275.363 168.585C274.936 167.742 274.723 166.75 274.723 165.609C274.723 164.487 274.936 163.502 275.363 162.655C275.793 161.803 276.395 161.14 277.167 160.666C277.938 160.188 278.845 159.949 279.887 159.949C280.559 159.949 281.194 160.058 281.79 160.276C282.391 160.489 282.922 160.82 283.381 161.27C283.845 161.72 284.21 162.293 284.475 162.989C284.74 163.68 284.873 164.504 284.873 165.46V166.249H275.931V164.516H282.408C282.403 164.023 282.297 163.585 282.088 163.202C281.88 162.813 281.589 162.508 281.215 162.286C280.846 162.063 280.415 161.952 279.922 161.952C279.397 161.952 278.935 162.08 278.537 162.335C278.14 162.586 277.829 162.918 277.607 163.33C277.389 163.737 277.278 164.184 277.273 164.672V166.185C277.273 166.819 277.389 167.364 277.621 167.818C277.853 168.268 278.177 168.614 278.594 168.855C279.011 169.092 279.498 169.21 280.057 169.21C280.431 169.21 280.77 169.158 281.073 169.054C281.376 168.945 281.639 168.786 281.861 168.578C282.084 168.37 282.252 168.112 282.365 167.804L284.766 168.074C284.614 168.708 284.326 169.262 283.9 169.736C283.478 170.205 282.938 170.569 282.28 170.83C281.622 171.085 280.869 171.213 280.022 171.213ZM287.048 171V160.091H289.54V161.909H289.654C289.853 161.279 290.194 160.794 290.677 160.453C291.165 160.107 291.721 159.935 292.346 159.935C292.488 159.935 292.647 159.942 292.822 159.956C293.002 159.965 293.151 159.982 293.269 160.006V162.371C293.16 162.333 292.987 162.3 292.751 162.271C292.519 162.238 292.294 162.222 292.076 162.222C291.607 162.222 291.186 162.323 290.812 162.527C290.442 162.726 290.151 163.003 289.938 163.358C289.725 163.713 289.619 164.123 289.619 164.587V171H287.048ZM297.921 171.22C297.23 171.22 296.607 171.097 296.053 170.851C295.504 170.6 295.068 170.231 294.746 169.743C294.429 169.255 294.271 168.654 294.271 167.939C294.271 167.323 294.384 166.814 294.612 166.412C294.839 166.009 295.149 165.688 295.542 165.446C295.935 165.205 296.378 165.022 296.87 164.899C297.367 164.771 297.881 164.679 298.411 164.622C299.05 164.556 299.569 164.497 299.967 164.445C300.364 164.388 300.653 164.303 300.833 164.189C301.018 164.071 301.11 163.888 301.11 163.642V163.599C301.11 163.064 300.951 162.65 300.634 162.357C300.317 162.063 299.86 161.916 299.263 161.916C298.634 161.916 298.134 162.054 297.765 162.328C297.4 162.603 297.154 162.927 297.026 163.301L294.626 162.96C294.815 162.297 295.128 161.743 295.563 161.298C295.999 160.848 296.531 160.512 297.161 160.29C297.791 160.062 298.487 159.949 299.249 159.949C299.775 159.949 300.298 160.01 300.819 160.134C301.34 160.257 301.816 160.46 302.246 160.744C302.677 161.024 303.023 161.405 303.283 161.888C303.549 162.371 303.681 162.974 303.681 163.699V171H301.21V169.501H301.124C300.968 169.804 300.748 170.089 300.464 170.354C300.184 170.614 299.832 170.825 299.406 170.986C298.984 171.142 298.489 171.22 297.921 171.22ZM298.589 169.331C299.105 169.331 299.552 169.229 299.931 169.026C300.31 168.817 300.601 168.543 300.805 168.202C301.013 167.861 301.117 167.489 301.117 167.087V165.801C301.037 165.867 300.899 165.929 300.705 165.986C300.516 166.043 300.303 166.092 300.066 166.135C299.829 166.178 299.595 166.215 299.363 166.249C299.131 166.282 298.93 166.31 298.759 166.334C298.376 166.386 298.032 166.471 297.729 166.589C297.426 166.708 297.187 166.874 297.012 167.087C296.837 167.295 296.749 167.565 296.749 167.896C296.749 168.37 296.922 168.727 297.268 168.969C297.613 169.21 298.054 169.331 298.589 169.331ZM311.714 160.091V162.08H305.442V160.091H311.714ZM306.991 157.477H309.562V167.719C309.562 168.064 309.614 168.33 309.718 168.514C309.827 168.694 309.969 168.817 310.144 168.884C310.319 168.95 310.513 168.983 310.727 168.983C310.888 168.983 311.034 168.971 311.167 168.947C311.304 168.924 311.408 168.902 311.479 168.884L311.913 170.893C311.775 170.941 311.579 170.993 311.323 171.05C311.072 171.107 310.764 171.14 310.4 171.149C309.756 171.168 309.176 171.071 308.66 170.858C308.144 170.64 307.734 170.304 307.431 169.849C307.133 169.395 306.986 168.827 306.991 168.145V157.477ZM318.576 171.213C317.483 171.213 316.538 170.986 315.743 170.531C314.952 170.072 314.343 169.423 313.917 168.585C313.491 167.742 313.278 166.75 313.278 165.609C313.278 164.487 313.491 163.502 313.917 162.655C314.348 161.803 314.949 161.14 315.721 160.666C316.493 160.188 317.4 159.949 318.441 159.949C319.114 159.949 319.748 160.058 320.345 160.276C320.946 160.489 321.476 160.82 321.936 161.27C322.4 161.72 322.764 162.293 323.029 162.989C323.295 163.68 323.427 164.504 323.427 165.46V166.249H314.485V164.516H320.963C320.958 164.023 320.851 163.585 320.643 163.202C320.435 162.813 320.144 162.508 319.77 162.286C319.4 162.063 318.969 161.952 318.477 161.952C317.951 161.952 317.49 162.08 317.092 162.335C316.694 162.586 316.384 162.918 316.162 163.33C315.944 163.737 315.833 164.184 315.828 164.672V166.185C315.828 166.819 315.944 167.364 316.176 167.818C316.408 168.268 316.732 168.614 317.149 168.855C317.565 169.092 318.053 169.21 318.612 169.21C318.986 169.21 319.324 169.158 319.627 169.054C319.931 168.945 320.193 168.786 320.416 168.578C320.638 168.37 320.806 168.112 320.92 167.804L323.321 168.074C323.169 168.708 322.88 169.262 322.454 169.736C322.033 170.205 321.493 170.569 320.835 170.83C320.177 171.085 319.424 171.213 318.576 171.213ZM329.651 171.192C328.794 171.192 328.027 170.972 327.349 170.531C326.672 170.091 326.137 169.452 325.744 168.614C325.351 167.776 325.155 166.758 325.155 165.56C325.155 164.348 325.354 163.325 325.751 162.491C326.154 161.653 326.696 161.021 327.378 160.595C328.06 160.164 328.82 159.949 329.658 159.949C330.297 159.949 330.822 160.058 331.234 160.276C331.646 160.489 331.973 160.747 332.214 161.05C332.456 161.348 332.643 161.63 332.776 161.895H332.882V156.455H335.46V171H332.932V169.281H332.776C332.643 169.546 332.451 169.828 332.2 170.126C331.949 170.42 331.618 170.671 331.206 170.879C330.794 171.088 330.276 171.192 329.651 171.192ZM330.368 169.082C330.912 169.082 331.376 168.936 331.76 168.642C332.143 168.344 332.435 167.929 332.634 167.399C332.832 166.869 332.932 166.251 332.932 165.545C332.932 164.84 332.832 164.227 332.634 163.706C332.439 163.185 332.151 162.78 331.767 162.491C331.388 162.203 330.922 162.058 330.368 162.058C329.795 162.058 329.317 162.207 328.933 162.506C328.55 162.804 328.261 163.216 328.067 163.741C327.873 164.267 327.776 164.868 327.776 165.545C327.776 166.227 327.873 166.836 328.067 167.371C328.266 167.901 328.557 168.32 328.94 168.628C329.329 168.931 329.804 169.082 330.368 169.082ZM154.812 190.453C154.746 189.833 154.467 189.35 153.974 189.004C153.486 188.659 152.852 188.486 152.071 188.486C151.521 188.486 151.05 188.569 150.657 188.734C150.264 188.9 149.964 189.125 149.755 189.409C149.547 189.693 149.44 190.018 149.436 190.382C149.436 190.685 149.504 190.948 149.642 191.17C149.784 191.393 149.975 191.582 150.217 191.739C150.458 191.89 150.726 192.018 151.02 192.122C151.313 192.226 151.609 192.314 151.907 192.385L153.271 192.726C153.82 192.854 154.348 193.027 154.855 193.244C155.366 193.462 155.823 193.737 156.225 194.068C156.633 194.4 156.955 194.8 157.191 195.268C157.428 195.737 157.547 196.286 157.547 196.916C157.547 197.768 157.329 198.519 156.893 199.168C156.458 199.812 155.828 200.316 155.004 200.68C154.185 201.04 153.193 201.22 152.028 201.22C150.896 201.22 149.914 201.045 149.081 200.695C148.252 200.344 147.603 199.833 147.135 199.161C146.671 198.488 146.42 197.669 146.382 196.703H148.974C149.012 197.21 149.168 197.631 149.443 197.967C149.717 198.304 150.075 198.554 150.515 198.72C150.96 198.886 151.458 198.969 152.007 198.969C152.58 198.969 153.082 198.884 153.512 198.713C153.948 198.538 154.289 198.296 154.535 197.989C154.781 197.676 154.907 197.312 154.912 196.895C154.907 196.516 154.796 196.204 154.578 195.957C154.36 195.706 154.055 195.498 153.662 195.332C153.273 195.162 152.819 195.01 152.298 194.878L150.643 194.452C149.445 194.144 148.498 193.678 147.802 193.053C147.111 192.423 146.765 191.587 146.765 190.545C146.765 189.688 146.997 188.938 147.461 188.294C147.93 187.65 148.567 187.151 149.372 186.795C150.177 186.436 151.088 186.256 152.106 186.256C153.138 186.256 154.043 186.436 154.819 186.795C155.6 187.151 156.214 187.645 156.659 188.28C157.104 188.91 157.333 189.634 157.348 190.453H154.812ZM166.735 196.412V190.091H169.306V201H166.813V199.061H166.7C166.453 199.672 166.049 200.171 165.485 200.56C164.926 200.948 164.237 201.142 163.418 201.142C162.703 201.142 162.071 200.983 161.522 200.666C160.978 200.344 160.551 199.878 160.244 199.267C159.936 198.652 159.782 197.908 159.782 197.037V190.091H162.353V196.639C162.353 197.33 162.542 197.88 162.921 198.287C163.3 198.694 163.797 198.898 164.413 198.898C164.791 198.898 165.158 198.805 165.513 198.621C165.869 198.436 166.16 198.161 166.387 197.797C166.619 197.428 166.735 196.966 166.735 196.412ZM176.708 201.213C175.619 201.213 174.684 200.974 173.903 200.496C173.127 200.018 172.528 199.357 172.106 198.514C171.69 197.667 171.481 196.691 171.481 195.588C171.481 194.48 171.694 193.502 172.12 192.655C172.547 191.803 173.148 191.14 173.924 190.666C174.706 190.188 175.629 189.949 176.694 189.949C177.58 189.949 178.363 190.112 179.045 190.439C179.732 190.761 180.279 191.218 180.686 191.81C181.093 192.397 181.325 193.083 181.382 193.869H178.924C178.825 193.344 178.588 192.906 178.214 192.555C177.845 192.2 177.35 192.023 176.73 192.023C176.204 192.023 175.743 192.165 175.345 192.449C174.947 192.728 174.637 193.131 174.414 193.656C174.197 194.182 174.088 194.812 174.088 195.545C174.088 196.289 174.197 196.928 174.414 197.463C174.632 197.993 174.938 198.403 175.331 198.692C175.728 198.976 176.195 199.118 176.73 199.118C177.109 199.118 177.447 199.047 177.745 198.905C178.048 198.758 178.302 198.547 178.505 198.273C178.709 197.998 178.849 197.664 178.924 197.271H181.382C181.32 198.043 181.093 198.727 180.7 199.324C180.307 199.916 179.772 200.38 179.095 200.716C178.418 201.047 177.622 201.213 176.708 201.213ZM188.251 201.213C187.162 201.213 186.227 200.974 185.446 200.496C184.67 200.018 184.071 199.357 183.649 198.514C183.232 197.667 183.024 196.691 183.024 195.588C183.024 194.48 183.237 193.502 183.663 192.655C184.089 191.803 184.691 191.14 185.467 190.666C186.249 190.188 187.172 189.949 188.237 189.949C189.123 189.949 189.906 190.112 190.588 190.439C191.275 190.761 191.821 191.218 192.229 191.81C192.636 192.397 192.868 193.083 192.925 193.869H190.467C190.368 193.344 190.131 192.906 189.757 192.555C189.388 192.2 188.893 192.023 188.273 192.023C187.747 192.023 187.286 192.165 186.888 192.449C186.49 192.728 186.18 193.131 185.957 193.656C185.74 194.182 185.631 194.812 185.631 195.545C185.631 196.289 185.74 196.928 185.957 197.463C186.175 197.993 186.481 198.403 186.874 198.692C187.271 198.976 187.738 199.118 188.273 199.118C188.652 199.118 188.99 199.047 189.288 198.905C189.591 198.758 189.845 198.547 190.048 198.273C190.252 197.998 190.392 197.664 190.467 197.271H192.925C192.863 198.043 192.636 198.727 192.243 199.324C191.85 199.916 191.315 200.38 190.638 200.716C189.961 201.047 189.165 201.213 188.251 201.213ZM199.865 201.213C198.772 201.213 197.827 200.986 197.032 200.531C196.241 200.072 195.632 199.423 195.206 198.585C194.78 197.742 194.567 196.75 194.567 195.609C194.567 194.487 194.78 193.502 195.206 192.655C195.637 191.803 196.239 191.14 197.01 190.666C197.782 190.188 198.689 189.949 199.73 189.949C200.403 189.949 201.037 190.058 201.634 190.276C202.235 190.489 202.766 190.82 203.225 191.27C203.689 191.72 204.053 192.293 204.319 192.989C204.584 193.68 204.716 194.504 204.716 195.46V196.249H195.775V194.516H202.252C202.247 194.023 202.141 193.585 201.932 193.202C201.724 192.813 201.433 192.508 201.059 192.286C200.689 192.063 200.258 191.952 199.766 191.952C199.24 191.952 198.779 192.08 198.381 192.335C197.983 192.586 197.673 192.918 197.451 193.33C197.233 193.737 197.122 194.184 197.117 194.672V196.185C197.117 196.819 197.233 197.364 197.465 197.818C197.697 198.268 198.021 198.614 198.438 198.855C198.855 199.092 199.342 199.21 199.901 199.21C200.275 199.21 200.614 199.158 200.917 199.054C201.22 198.945 201.482 198.786 201.705 198.578C201.927 198.37 202.096 198.112 202.209 197.804L204.61 198.074C204.458 198.708 204.169 199.262 203.743 199.736C203.322 200.205 202.782 200.569 202.124 200.83C201.466 201.085 200.713 201.213 199.865 201.213ZM215.513 192.974L213.17 193.23C213.103 192.993 212.987 192.771 212.822 192.562C212.661 192.354 212.443 192.186 212.168 192.058C211.894 191.93 211.558 191.866 211.16 191.866C210.625 191.866 210.175 191.982 209.81 192.214C209.451 192.446 209.273 192.747 209.278 193.116C209.273 193.434 209.389 193.692 209.626 193.891C209.867 194.089 210.265 194.253 210.819 194.381L212.68 194.778C213.712 195.001 214.479 195.354 214.981 195.837C215.487 196.32 215.743 196.952 215.748 197.733C215.743 198.42 215.542 199.026 215.144 199.551C214.751 200.072 214.204 200.479 213.504 200.773C212.803 201.066 211.998 201.213 211.089 201.213C209.754 201.213 208.679 200.934 207.864 200.375C207.05 199.812 206.565 199.028 206.408 198.024L208.915 197.783C209.029 198.275 209.271 198.647 209.64 198.898C210.009 199.149 210.49 199.274 211.082 199.274C211.692 199.274 212.183 199.149 212.552 198.898C212.926 198.647 213.113 198.337 213.113 197.967C213.113 197.655 212.992 197.397 212.751 197.193C212.514 196.99 212.145 196.833 211.643 196.724L209.782 196.334C208.736 196.116 207.961 195.749 207.46 195.233C206.958 194.712 206.709 194.054 206.714 193.259C206.709 192.586 206.891 192.004 207.261 191.511C207.635 191.014 208.153 190.631 208.816 190.361C209.484 190.086 210.253 189.949 211.124 189.949C212.403 189.949 213.409 190.221 214.143 190.766C214.881 191.31 215.338 192.046 215.513 192.974ZM226.49 192.974L224.146 193.23C224.08 192.993 223.964 192.771 223.798 192.562C223.637 192.354 223.42 192.186 223.145 192.058C222.87 191.93 222.534 191.866 222.136 191.866C221.601 191.866 221.152 191.982 220.787 192.214C220.427 192.446 220.25 192.747 220.254 193.116C220.25 193.434 220.366 193.692 220.602 193.891C220.844 194.089 221.241 194.253 221.795 194.381L223.656 194.778C224.688 195.001 225.455 195.354 225.957 195.837C226.464 196.32 226.72 196.952 226.724 197.733C226.72 198.42 226.518 199.026 226.121 199.551C225.728 200.072 225.181 200.479 224.48 200.773C223.779 201.066 222.974 201.213 222.065 201.213C220.73 201.213 219.655 200.934 218.841 200.375C218.027 199.812 217.541 199.028 217.385 198.024L219.892 197.783C220.006 198.275 220.247 198.647 220.616 198.898C220.986 199.149 221.466 199.274 222.058 199.274C222.669 199.274 223.159 199.149 223.528 198.898C223.902 198.647 224.089 198.337 224.089 197.967C224.089 197.655 223.969 197.397 223.727 197.193C223.491 196.99 223.121 196.833 222.619 196.724L220.759 196.334C219.712 196.116 218.938 195.749 218.436 195.233C217.934 194.712 217.686 194.054 217.69 193.259C217.686 192.586 217.868 192.004 218.237 191.511C218.611 191.014 219.13 190.631 219.793 190.361C220.46 190.086 221.23 189.949 222.101 189.949C223.379 189.949 224.385 190.221 225.119 190.766C225.858 191.31 226.315 192.046 226.49 192.974ZM234.37 190.091V192.08H227.921V190.091H234.37ZM229.533 201V189.061C229.533 188.327 229.685 187.716 229.988 187.229C230.296 186.741 230.708 186.376 231.224 186.135C231.74 185.893 232.313 185.773 232.942 185.773C233.388 185.773 233.783 185.808 234.129 185.879C234.474 185.95 234.73 186.014 234.896 186.071L234.384 188.06C234.275 188.027 234.138 187.993 233.972 187.96C233.807 187.922 233.622 187.903 233.418 187.903C232.94 187.903 232.602 188.019 232.403 188.251C232.209 188.479 232.112 188.805 232.112 189.232V201H229.533ZM243.337 196.412V190.091H245.908V201H243.415V199.061H243.301C243.055 199.672 242.65 200.171 242.087 200.56C241.528 200.948 240.839 201.142 240.02 201.142C239.305 201.142 238.673 200.983 238.124 200.666C237.579 200.344 237.153 199.878 236.845 199.267C236.537 198.652 236.384 197.908 236.384 197.037V190.091H238.955V196.639C238.955 197.33 239.144 197.88 239.523 198.287C239.902 198.694 240.399 198.898 241.014 198.898C241.393 198.898 241.76 198.805 242.115 198.621C242.47 198.436 242.761 198.161 242.989 197.797C243.221 197.428 243.337 196.966 243.337 196.412ZM251.123 186.455V201H248.551V186.455H251.123ZM256.337 186.455V201H253.766V186.455H256.337ZM260.579 205.091C260.229 205.091 259.904 205.063 259.606 205.006C259.313 204.954 259.078 204.892 258.903 204.821L259.5 202.818C259.874 202.927 260.208 202.979 260.501 202.974C260.795 202.97 261.053 202.877 261.275 202.697C261.502 202.522 261.694 202.229 261.85 201.817L262.071 201.227L258.115 190.091H260.842L263.356 198.33H263.47L265.991 190.091H268.725L264.358 202.321C264.154 202.899 263.884 203.393 263.548 203.805C263.212 204.222 262.8 204.539 262.312 204.757C261.829 204.98 261.252 205.091 260.579 205.091ZM273.651 186.455L273.417 196.724H271.13L270.902 186.455H273.651ZM272.273 201.156C271.842 201.156 271.473 201.005 271.165 200.702C270.862 200.399 270.711 200.029 270.711 199.594C270.711 199.168 270.862 198.803 271.165 198.5C271.473 198.197 271.842 198.045 272.273 198.045C272.694 198.045 273.059 198.197 273.367 198.5C273.679 198.803 273.836 199.168 273.836 199.594C273.836 199.883 273.762 200.145 273.615 200.382C273.473 200.619 273.284 200.808 273.047 200.95C272.815 201.088 272.557 201.156 272.273 201.156ZM279.823 186.455L279.588 196.724H277.301L277.074 186.455H279.823ZM278.445 201.156C278.014 201.156 277.645 201.005 277.337 200.702C277.034 200.399 276.882 200.029 276.882 199.594C276.882 199.168 277.034 198.803 277.337 198.5C277.645 198.197 278.014 198.045 278.445 198.045C278.866 198.045 279.231 198.197 279.539 198.5C279.851 198.803 280.007 199.168 280.007 199.594C280.007 199.883 279.934 200.145 279.787 200.382C279.645 200.619 279.456 200.808 279.219 200.95C278.987 201.088 278.729 201.156 278.445 201.156Z" fill="black"/>
</svg>
