<svg width="1420" height="225" viewBox="0 0 1420 225" fill="none" xmlns="http://www.w3.org/2000/svg">
<g clip-path="url(#clip0_1616_3798)">
<rect x="24" y="9" width="325" height="90" rx="15" fill="#212429"/>
<path d="M141.532 47.048V52.64H147.628V54.44H141.532V60.2H148.348V62H139.348V45.248H148.348V47.048H141.532ZM158.061 48.608C159.661 48.608 160.957 49.096 161.949 50.072C162.941 51.032 163.437 52.424 163.437 54.248V62H161.277V54.56C161.277 53.248 160.949 52.248 160.293 51.56C159.637 50.856 158.741 50.504 157.605 50.504C156.453 50.504 155.533 50.864 154.845 51.584C154.173 52.304 153.837 53.352 153.837 54.728V62H151.653V48.848H153.837V50.72C154.269 50.048 154.853 49.528 155.589 49.16C156.341 48.792 157.165 48.608 158.061 48.608ZM166.188 55.376C166.188 54.032 166.46 52.856 167.004 51.848C167.548 50.824 168.292 50.032 169.236 49.472C170.196 48.912 171.26 48.632 172.428 48.632C173.58 48.632 174.58 48.88 175.428 49.376C176.276 49.872 176.908 50.496 177.324 51.248V48.848H179.532V62H177.324V59.552C176.892 60.32 176.244 60.96 175.38 61.472C174.532 61.968 173.54 62.216 172.404 62.216C171.236 62.216 170.18 61.928 169.236 61.352C168.292 60.776 167.548 59.968 167.004 58.928C166.46 57.888 166.188 56.704 166.188 55.376ZM177.324 55.4C177.324 54.408 177.124 53.544 176.724 52.808C176.324 52.072 175.78 51.512 175.092 51.128C174.42 50.728 173.676 50.528 172.86 50.528C172.044 50.528 171.3 50.72 170.628 51.104C169.956 51.488 169.42 52.048 169.02 52.784C168.62 53.52 168.42 54.384 168.42 55.376C168.42 56.384 168.62 57.264 169.02 58.016C169.42 58.752 169.956 59.32 170.628 59.72C171.3 60.104 172.044 60.296 172.86 60.296C173.676 60.296 174.42 60.104 175.092 59.72C175.78 59.32 176.324 58.752 176.724 58.016C177.124 57.264 177.324 56.392 177.324 55.4ZM185.407 51.296C185.855 50.512 186.511 49.872 187.375 49.376C188.239 48.88 189.223 48.632 190.327 48.632C191.511 48.632 192.575 48.912 193.519 49.472C194.463 50.032 195.207 50.824 195.751 51.848C196.295 52.856 196.567 54.032 196.567 55.376C196.567 56.704 196.295 57.888 195.751 58.928C195.207 59.968 194.455 60.776 193.495 61.352C192.551 61.928 191.495 62.216 190.327 62.216C189.191 62.216 188.191 61.968 187.327 61.472C186.479 60.976 185.839 60.344 185.407 59.576V62H183.223V44.24H185.407V51.296ZM194.335 55.376C194.335 54.384 194.135 53.52 193.735 52.784C193.335 52.048 192.791 51.488 192.103 51.104C191.431 50.72 190.687 50.528 189.871 50.528C189.071 50.528 188.327 50.728 187.639 51.128C186.967 51.512 186.423 52.08 186.007 52.832C185.607 53.568 185.407 54.424 185.407 55.4C185.407 56.392 185.607 57.264 186.007 58.016C186.423 58.752 186.967 59.32 187.639 59.72C188.327 60.104 189.071 60.296 189.871 60.296C190.687 60.296 191.431 60.104 192.103 59.72C192.791 59.32 193.335 58.752 193.735 58.016C194.135 57.264 194.335 56.384 194.335 55.376ZM201.626 44.24V62H199.442V44.24H201.626ZM217.348 54.92C217.348 55.336 217.324 55.776 217.276 56.24H206.764C206.844 57.536 207.284 58.552 208.084 59.288C208.9 60.008 209.884 60.368 211.036 60.368C211.98 60.368 212.764 60.152 213.388 59.72C214.028 59.272 214.476 58.68 214.732 57.944H217.084C216.732 59.208 216.028 60.24 214.972 61.04C213.916 61.824 212.604 62.216 211.036 62.216C209.788 62.216 208.668 61.936 207.676 61.376C206.7 60.816 205.932 60.024 205.372 59C204.812 57.96 204.532 56.76 204.532 55.4C204.532 54.04 204.804 52.848 205.348 51.824C205.892 50.8 206.652 50.016 207.628 49.472C208.62 48.912 209.756 48.632 211.036 48.632C212.284 48.632 213.388 48.904 214.348 49.448C215.308 49.992 216.044 50.744 216.556 51.704C217.084 52.648 217.348 53.72 217.348 54.92ZM215.092 54.464C215.092 53.632 214.908 52.92 214.54 52.328C214.172 51.72 213.668 51.264 213.028 50.96C212.404 50.64 211.708 50.48 210.94 50.48C209.836 50.48 208.892 50.832 208.108 51.536C207.34 52.24 206.9 53.216 206.788 54.464H215.092ZM219.415 55.376C219.415 54.032 219.687 52.856 220.231 51.848C220.775 50.824 221.519 50.032 222.463 49.472C223.423 48.912 224.495 48.632 225.679 48.632C226.703 48.632 227.655 48.872 228.535 49.352C229.415 49.816 230.087 50.432 230.551 51.2V44.24H232.759V62H230.551V59.528C230.119 60.312 229.479 60.96 228.631 61.472C227.783 61.968 226.791 62.216 225.655 62.216C224.487 62.216 223.423 61.928 222.463 61.352C221.519 60.776 220.775 59.968 220.231 58.928C219.687 57.888 219.415 56.704 219.415 55.376ZM230.551 55.4C230.551 54.408 230.351 53.544 229.951 52.808C229.551 52.072 229.007 51.512 228.319 51.128C227.647 50.728 226.903 50.528 226.087 50.528C225.271 50.528 224.527 50.72 223.855 51.104C223.183 51.488 222.647 52.048 222.247 52.784C221.847 53.52 221.647 54.384 221.647 55.376C221.647 56.384 221.847 57.264 222.247 58.016C222.647 58.752 223.183 59.32 223.855 59.72C224.527 60.104 225.271 60.296 226.087 60.296C226.903 60.296 227.647 60.104 228.319 59.72C229.007 59.32 229.551 58.752 229.951 58.016C230.351 57.264 230.551 56.392 230.551 55.4Z" fill="#DAF067"/>
<rect x="374" y="10" width="323" height="88" rx="14" stroke="#212429" stroke-width="2"/>
<path d="M490.532 47.048V52.64H496.628V54.44H490.532V60.2H497.348V62H488.348V45.248H497.348V47.048H490.532ZM507.061 48.608C508.661 48.608 509.957 49.096 510.949 50.072C511.941 51.032 512.437 52.424 512.437 54.248V62H510.277V54.56C510.277 53.248 509.949 52.248 509.293 51.56C508.637 50.856 507.741 50.504 506.605 50.504C505.453 50.504 504.533 50.864 503.845 51.584C503.173 52.304 502.837 53.352 502.837 54.728V62H500.653V48.848H502.837V50.72C503.269 50.048 503.853 49.528 504.589 49.16C505.341 48.792 506.165 48.608 507.061 48.608ZM515.188 55.376C515.188 54.032 515.46 52.856 516.004 51.848C516.548 50.824 517.292 50.032 518.236 49.472C519.196 48.912 520.26 48.632 521.428 48.632C522.58 48.632 523.58 48.88 524.428 49.376C525.276 49.872 525.908 50.496 526.324 51.248V48.848H528.532V62H526.324V59.552C525.892 60.32 525.244 60.96 524.38 61.472C523.532 61.968 522.54 62.216 521.404 62.216C520.236 62.216 519.18 61.928 518.236 61.352C517.292 60.776 516.548 59.968 516.004 58.928C515.46 57.888 515.188 56.704 515.188 55.376ZM526.324 55.4C526.324 54.408 526.124 53.544 525.724 52.808C525.324 52.072 524.78 51.512 524.092 51.128C523.42 50.728 522.676 50.528 521.86 50.528C521.044 50.528 520.3 50.72 519.628 51.104C518.956 51.488 518.42 52.048 518.02 52.784C517.62 53.52 517.42 54.384 517.42 55.376C517.42 56.384 517.62 57.264 518.02 58.016C518.42 58.752 518.956 59.32 519.628 59.72C520.3 60.104 521.044 60.296 521.86 60.296C522.676 60.296 523.42 60.104 524.092 59.72C524.78 59.32 525.324 58.752 525.724 58.016C526.124 57.264 526.324 56.392 526.324 55.4ZM534.407 51.296C534.855 50.512 535.511 49.872 536.375 49.376C537.239 48.88 538.223 48.632 539.327 48.632C540.511 48.632 541.575 48.912 542.519 49.472C543.463 50.032 544.207 50.824 544.751 51.848C545.295 52.856 545.567 54.032 545.567 55.376C545.567 56.704 545.295 57.888 544.751 58.928C544.207 59.968 543.455 60.776 542.495 61.352C541.551 61.928 540.495 62.216 539.327 62.216C538.191 62.216 537.191 61.968 536.327 61.472C535.479 60.976 534.839 60.344 534.407 59.576V62H532.223V44.24H534.407V51.296ZM543.335 55.376C543.335 54.384 543.135 53.52 542.735 52.784C542.335 52.048 541.791 51.488 541.103 51.104C540.431 50.72 539.687 50.528 538.871 50.528C538.071 50.528 537.327 50.728 536.639 51.128C535.967 51.512 535.423 52.08 535.007 52.832C534.607 53.568 534.407 54.424 534.407 55.4C534.407 56.392 534.607 57.264 535.007 58.016C535.423 58.752 535.967 59.32 536.639 59.72C537.327 60.104 538.071 60.296 538.871 60.296C539.687 60.296 540.431 60.104 541.103 59.72C541.791 59.32 542.335 58.752 542.735 58.016C543.135 57.264 543.335 56.384 543.335 55.376ZM550.626 44.24V62H548.442V44.24H550.626ZM566.348 54.92C566.348 55.336 566.324 55.776 566.276 56.24H555.764C555.844 57.536 556.284 58.552 557.084 59.288C557.9 60.008 558.884 60.368 560.036 60.368C560.98 60.368 561.764 60.152 562.388 59.72C563.028 59.272 563.476 58.68 563.732 57.944H566.084C565.732 59.208 565.028 60.24 563.972 61.04C562.916 61.824 561.604 62.216 560.036 62.216C558.788 62.216 557.668 61.936 556.676 61.376C555.7 60.816 554.932 60.024 554.372 59C553.812 57.96 553.532 56.76 553.532 55.4C553.532 54.04 553.804 52.848 554.348 51.824C554.892 50.8 555.652 50.016 556.628 49.472C557.62 48.912 558.756 48.632 560.036 48.632C561.284 48.632 562.388 48.904 563.348 49.448C564.308 49.992 565.044 50.744 565.556 51.704C566.084 52.648 566.348 53.72 566.348 54.92ZM564.092 54.464C564.092 53.632 563.908 52.92 563.54 52.328C563.172 51.72 562.668 51.264 562.028 50.96C561.404 50.64 560.708 50.48 559.94 50.48C558.836 50.48 557.892 50.832 557.108 51.536C556.34 52.24 555.9 53.216 555.788 54.464H564.092ZM568.415 55.376C568.415 54.032 568.687 52.856 569.231 51.848C569.775 50.824 570.519 50.032 571.463 49.472C572.423 48.912 573.495 48.632 574.679 48.632C575.703 48.632 576.655 48.872 577.535 49.352C578.415 49.816 579.087 50.432 579.551 51.2V44.24H581.759V62H579.551V59.528C579.119 60.312 578.479 60.96 577.631 61.472C576.783 61.968 575.791 62.216 574.655 62.216C573.487 62.216 572.423 61.928 571.463 61.352C570.519 60.776 569.775 59.968 569.231 58.928C568.687 57.888 568.415 56.704 568.415 55.376ZM579.551 55.4C579.551 54.408 579.351 53.544 578.951 52.808C578.551 52.072 578.007 51.512 577.319 51.128C576.647 50.728 575.903 50.528 575.087 50.528C574.271 50.528 573.527 50.72 572.855 51.104C572.183 51.488 571.647 52.048 571.247 52.784C570.847 53.52 570.647 54.384 570.647 55.376C570.647 56.384 570.847 57.264 571.247 58.016C571.647 58.752 572.183 59.32 572.855 59.72C573.527 60.104 574.271 60.296 575.087 60.296C575.903 60.296 576.647 60.104 577.319 59.72C578.007 59.32 578.551 58.752 578.951 58.016C579.351 57.264 579.551 56.392 579.551 55.4Z" fill="#212429"/>
<rect x="722" y="9" width="325" height="90" rx="15" fill="#212429"/>
<path d="M843.5 53.9962C843.5 55.2454 842.492 56.2538 841.242 56.2538H832.761V64.7424C832.761 65.9841 831.745 67 830.504 67C829.262 67 828.246 65.9841 828.246 64.7424V56.2538H819.758C818.516 56.2538 817.5 55.2454 817.5 53.9962C817.5 52.747 818.516 51.7386 819.758 51.7386H828.246V43.2576C828.246 42.0084 829.255 41 830.504 41C831.753 41 832.761 42.0084 832.761 43.2576V51.7386H841.242C842.492 51.7386 843.5 52.7546 843.5 53.9962Z" fill="#DAF067"/>
<path d="M857.532 47.048V52.64H863.628V54.44H857.532V60.2H864.348V62H855.348V45.248H864.348V47.048H857.532ZM874.061 48.608C875.661 48.608 876.957 49.096 877.949 50.072C878.941 51.032 879.437 52.424 879.437 54.248V62H877.277V54.56C877.277 53.248 876.949 52.248 876.293 51.56C875.637 50.856 874.741 50.504 873.605 50.504C872.453 50.504 871.533 50.864 870.845 51.584C870.173 52.304 869.837 53.352 869.837 54.728V62H867.653V48.848H869.837V50.72C870.269 50.048 870.853 49.528 871.589 49.16C872.341 48.792 873.165 48.608 874.061 48.608ZM882.188 55.376C882.188 54.032 882.46 52.856 883.004 51.848C883.548 50.824 884.292 50.032 885.236 49.472C886.196 48.912 887.26 48.632 888.428 48.632C889.58 48.632 890.58 48.88 891.428 49.376C892.276 49.872 892.908 50.496 893.324 51.248V48.848H895.532V62H893.324V59.552C892.892 60.32 892.244 60.96 891.38 61.472C890.532 61.968 889.54 62.216 888.404 62.216C887.236 62.216 886.18 61.928 885.236 61.352C884.292 60.776 883.548 59.968 883.004 58.928C882.46 57.888 882.188 56.704 882.188 55.376ZM893.324 55.4C893.324 54.408 893.124 53.544 892.724 52.808C892.324 52.072 891.78 51.512 891.092 51.128C890.42 50.728 889.676 50.528 888.86 50.528C888.044 50.528 887.3 50.72 886.628 51.104C885.956 51.488 885.42 52.048 885.02 52.784C884.62 53.52 884.42 54.384 884.42 55.376C884.42 56.384 884.62 57.264 885.02 58.016C885.42 58.752 885.956 59.32 886.628 59.72C887.3 60.104 888.044 60.296 888.86 60.296C889.676 60.296 890.42 60.104 891.092 59.72C891.78 59.32 892.324 58.752 892.724 58.016C893.124 57.264 893.324 56.392 893.324 55.4ZM901.407 51.296C901.855 50.512 902.511 49.872 903.375 49.376C904.239 48.88 905.223 48.632 906.327 48.632C907.511 48.632 908.575 48.912 909.519 49.472C910.463 50.032 911.207 50.824 911.751 51.848C912.295 52.856 912.567 54.032 912.567 55.376C912.567 56.704 912.295 57.888 911.751 58.928C911.207 59.968 910.455 60.776 909.495 61.352C908.551 61.928 907.495 62.216 906.327 62.216C905.191 62.216 904.191 61.968 903.327 61.472C902.479 60.976 901.839 60.344 901.407 59.576V62H899.223V44.24H901.407V51.296ZM910.335 55.376C910.335 54.384 910.135 53.52 909.735 52.784C909.335 52.048 908.791 51.488 908.103 51.104C907.431 50.72 906.687 50.528 905.871 50.528C905.071 50.528 904.327 50.728 903.639 51.128C902.967 51.512 902.423 52.08 902.007 52.832C901.607 53.568 901.407 54.424 901.407 55.4C901.407 56.392 901.607 57.264 902.007 58.016C902.423 58.752 902.967 59.32 903.639 59.72C904.327 60.104 905.071 60.296 905.871 60.296C906.687 60.296 907.431 60.104 908.103 59.72C908.791 59.32 909.335 58.752 909.735 58.016C910.135 57.264 910.335 56.384 910.335 55.376ZM917.626 44.24V62H915.442V44.24H917.626ZM933.348 54.92C933.348 55.336 933.324 55.776 933.276 56.24H922.764C922.844 57.536 923.284 58.552 924.084 59.288C924.9 60.008 925.884 60.368 927.036 60.368C927.98 60.368 928.764 60.152 929.388 59.72C930.028 59.272 930.476 58.68 930.732 57.944H933.084C932.732 59.208 932.028 60.24 930.972 61.04C929.916 61.824 928.604 62.216 927.036 62.216C925.788 62.216 924.668 61.936 923.676 61.376C922.7 60.816 921.932 60.024 921.372 59C920.812 57.96 920.532 56.76 920.532 55.4C920.532 54.04 920.804 52.848 921.348 51.824C921.892 50.8 922.652 50.016 923.628 49.472C924.62 48.912 925.756 48.632 927.036 48.632C928.284 48.632 929.388 48.904 930.348 49.448C931.308 49.992 932.044 50.744 932.556 51.704C933.084 52.648 933.348 53.72 933.348 54.92ZM931.092 54.464C931.092 53.632 930.908 52.92 930.54 52.328C930.172 51.72 929.668 51.264 929.028 50.96C928.404 50.64 927.708 50.48 926.94 50.48C925.836 50.48 924.892 50.832 924.108 51.536C923.34 52.24 922.9 53.216 922.788 54.464H931.092ZM935.415 55.376C935.415 54.032 935.687 52.856 936.231 51.848C936.775 50.824 937.519 50.032 938.463 49.472C939.423 48.912 940.495 48.632 941.679 48.632C942.703 48.632 943.655 48.872 944.535 49.352C945.415 49.816 946.087 50.432 946.551 51.2V44.24H948.759V62H946.551V59.528C946.119 60.312 945.479 60.96 944.631 61.472C943.783 61.968 942.791 62.216 941.655 62.216C940.487 62.216 939.423 61.928 938.463 61.352C937.519 60.776 936.775 59.968 936.231 58.928C935.687 57.888 935.415 56.704 935.415 55.376ZM946.551 55.4C946.551 54.408 946.351 53.544 945.951 52.808C945.551 52.072 945.007 51.512 944.319 51.128C943.647 50.728 942.903 50.528 942.087 50.528C941.271 50.528 940.527 50.72 939.855 51.104C939.183 51.488 938.647 52.048 938.247 52.784C937.847 53.52 937.647 54.384 937.647 55.376C937.647 56.384 937.847 57.264 938.247 58.016C938.647 58.752 939.183 59.32 939.855 59.72C940.527 60.104 941.271 60.296 942.087 60.296C942.903 60.296 943.647 60.104 944.319 59.72C945.007 59.32 945.551 58.752 945.951 58.016C946.351 57.264 946.551 56.392 946.551 55.4Z" fill="#DAF067"/>
<rect x="1072" y="10" width="323" height="88" rx="14" stroke="#212429" stroke-width="2"/>
<path d="M1192.5 53.9962C1192.5 55.2454 1191.49 56.2538 1190.24 56.2538H1181.76V64.7424C1181.76 65.9841 1180.75 67 1179.5 67C1178.26 67 1177.25 65.9841 1177.25 64.7424V56.2538H1168.76C1167.52 56.2538 1166.5 55.2454 1166.5 53.9962C1166.5 52.747 1167.52 51.7386 1168.76 51.7386H1177.25V43.2576C1177.25 42.0084 1178.25 41 1179.5 41C1180.75 41 1181.76 42.0084 1181.76 43.2576V51.7386H1190.24C1191.49 51.7386 1192.5 52.7546 1192.5 53.9962Z" fill="#212429"/>
<path d="M1206.53 47.048V52.64H1212.63V54.44H1206.53V60.2H1213.35V62H1204.35V45.248H1213.35V47.048H1206.53ZM1223.06 48.608C1224.66 48.608 1225.96 49.096 1226.95 50.072C1227.94 51.032 1228.44 52.424 1228.44 54.248V62H1226.28V54.56C1226.28 53.248 1225.95 52.248 1225.29 51.56C1224.64 50.856 1223.74 50.504 1222.6 50.504C1221.45 50.504 1220.53 50.864 1219.84 51.584C1219.17 52.304 1218.84 53.352 1218.84 54.728V62H1216.65V48.848H1218.84V50.72C1219.27 50.048 1219.85 49.528 1220.59 49.16C1221.34 48.792 1222.16 48.608 1223.06 48.608ZM1231.19 55.376C1231.19 54.032 1231.46 52.856 1232 51.848C1232.55 50.824 1233.29 50.032 1234.24 49.472C1235.2 48.912 1236.26 48.632 1237.43 48.632C1238.58 48.632 1239.58 48.88 1240.43 49.376C1241.28 49.872 1241.91 50.496 1242.32 51.248V48.848H1244.53V62H1242.32V59.552C1241.89 60.32 1241.24 60.96 1240.38 61.472C1239.53 61.968 1238.54 62.216 1237.4 62.216C1236.24 62.216 1235.18 61.928 1234.24 61.352C1233.29 60.776 1232.55 59.968 1232 58.928C1231.46 57.888 1231.19 56.704 1231.19 55.376ZM1242.32 55.4C1242.32 54.408 1242.12 53.544 1241.72 52.808C1241.32 52.072 1240.78 51.512 1240.09 51.128C1239.42 50.728 1238.68 50.528 1237.86 50.528C1237.04 50.528 1236.3 50.72 1235.63 51.104C1234.96 51.488 1234.42 52.048 1234.02 52.784C1233.62 53.52 1233.42 54.384 1233.42 55.376C1233.42 56.384 1233.62 57.264 1234.02 58.016C1234.42 58.752 1234.96 59.32 1235.63 59.72C1236.3 60.104 1237.04 60.296 1237.86 60.296C1238.68 60.296 1239.42 60.104 1240.09 59.72C1240.78 59.32 1241.32 58.752 1241.72 58.016C1242.12 57.264 1242.32 56.392 1242.32 55.4ZM1250.41 51.296C1250.86 50.512 1251.51 49.872 1252.38 49.376C1253.24 48.88 1254.22 48.632 1255.33 48.632C1256.51 48.632 1257.58 48.912 1258.52 49.472C1259.46 50.032 1260.21 50.824 1260.75 51.848C1261.3 52.856 1261.57 54.032 1261.57 55.376C1261.57 56.704 1261.3 57.888 1260.75 58.928C1260.21 59.968 1259.45 60.776 1258.49 61.352C1257.55 61.928 1256.5 62.216 1255.33 62.216C1254.19 62.216 1253.19 61.968 1252.33 61.472C1251.48 60.976 1250.84 60.344 1250.41 59.576V62H1248.22V44.24H1250.41V51.296ZM1259.34 55.376C1259.34 54.384 1259.14 53.52 1258.74 52.784C1258.34 52.048 1257.79 51.488 1257.1 51.104C1256.43 50.72 1255.69 50.528 1254.87 50.528C1254.07 50.528 1253.33 50.728 1252.64 51.128C1251.97 51.512 1251.42 52.08 1251.01 52.832C1250.61 53.568 1250.41 54.424 1250.41 55.4C1250.41 56.392 1250.61 57.264 1251.01 58.016C1251.42 58.752 1251.97 59.32 1252.64 59.72C1253.33 60.104 1254.07 60.296 1254.87 60.296C1255.69 60.296 1256.43 60.104 1257.1 59.72C1257.79 59.32 1258.34 58.752 1258.74 58.016C1259.14 57.264 1259.34 56.384 1259.34 55.376ZM1266.63 44.24V62H1264.44V44.24H1266.63ZM1282.35 54.92C1282.35 55.336 1282.32 55.776 1282.28 56.24H1271.76C1271.84 57.536 1272.28 58.552 1273.08 59.288C1273.9 60.008 1274.88 60.368 1276.04 60.368C1276.98 60.368 1277.76 60.152 1278.39 59.72C1279.03 59.272 1279.48 58.68 1279.73 57.944H1282.08C1281.73 59.208 1281.03 60.24 1279.97 61.04C1278.92 61.824 1277.6 62.216 1276.04 62.216C1274.79 62.216 1273.67 61.936 1272.68 61.376C1271.7 60.816 1270.93 60.024 1270.37 59C1269.81 57.96 1269.53 56.76 1269.53 55.4C1269.53 54.04 1269.8 52.848 1270.35 51.824C1270.89 50.8 1271.65 50.016 1272.63 49.472C1273.62 48.912 1274.76 48.632 1276.04 48.632C1277.28 48.632 1278.39 48.904 1279.35 49.448C1280.31 49.992 1281.04 50.744 1281.56 51.704C1282.08 52.648 1282.35 53.72 1282.35 54.92ZM1280.09 54.464C1280.09 53.632 1279.91 52.92 1279.54 52.328C1279.17 51.72 1278.67 51.264 1278.03 50.96C1277.4 50.64 1276.71 50.48 1275.94 50.48C1274.84 50.48 1273.89 50.832 1273.11 51.536C1272.34 52.24 1271.9 53.216 1271.79 54.464H1280.09ZM1284.41 55.376C1284.41 54.032 1284.69 52.856 1285.23 51.848C1285.77 50.824 1286.52 50.032 1287.46 49.472C1288.42 48.912 1289.49 48.632 1290.68 48.632C1291.7 48.632 1292.65 48.872 1293.53 49.352C1294.41 49.816 1295.09 50.432 1295.55 51.2V44.24H1297.76V62H1295.55V59.528C1295.12 60.312 1294.48 60.96 1293.63 61.472C1292.78 61.968 1291.79 62.216 1290.65 62.216C1289.49 62.216 1288.42 61.928 1287.46 61.352C1286.52 60.776 1285.77 59.968 1285.23 58.928C1284.69 57.888 1284.41 56.704 1284.41 55.376ZM1295.55 55.4C1295.55 54.408 1295.35 53.544 1294.95 52.808C1294.55 52.072 1294.01 51.512 1293.32 51.128C1292.65 50.728 1291.9 50.528 1291.09 50.528C1290.27 50.528 1289.53 50.72 1288.85 51.104C1288.18 51.488 1287.65 52.048 1287.25 52.784C1286.85 53.52 1286.65 54.384 1286.65 55.376C1286.65 56.384 1286.85 57.264 1287.25 58.016C1287.65 58.752 1288.18 59.32 1288.85 59.72C1289.53 60.104 1290.27 60.296 1291.09 60.296C1291.9 60.296 1292.65 60.104 1293.32 59.72C1294.01 59.32 1294.55 58.752 1294.95 58.016C1295.35 57.264 1295.55 56.392 1295.55 55.4Z" fill="#212429"/>
<rect x="24" y="123" width="325" height="90" rx="15" fill="#DBDBDB"/>
<path d="M141.056 159.272C142.88 159.272 144.456 159.616 145.784 160.304C147.128 160.976 148.152 161.944 148.856 163.208C149.576 164.472 149.936 165.96 149.936 167.672C149.936 169.384 149.576 170.872 148.856 172.136C148.152 173.384 147.128 174.344 145.784 175.016C144.456 175.672 142.88 176 141.056 176H135.848V159.272H141.056ZM141.056 174.2C143.216 174.2 144.864 173.632 146 172.496C147.136 171.344 147.704 169.736 147.704 167.672C147.704 165.592 147.128 163.968 145.976 162.8C144.84 161.632 143.2 161.048 141.056 161.048H138.032V174.2H141.056ZM153.945 160.712C153.529 160.712 153.177 160.568 152.889 160.28C152.601 159.992 152.457 159.64 152.457 159.224C152.457 158.808 152.601 158.456 152.889 158.168C153.177 157.88 153.529 157.736 153.945 157.736C154.345 157.736 154.681 157.88 154.953 158.168C155.241 158.456 155.385 158.808 155.385 159.224C155.385 159.64 155.241 159.992 154.953 160.28C154.681 160.568 154.345 160.712 153.945 160.712ZM155.001 162.848V176H152.817V162.848H155.001ZM163.379 176.216C162.371 176.216 161.467 176.048 160.667 175.712C159.867 175.36 159.235 174.88 158.771 174.272C158.307 173.648 158.051 172.936 158.003 172.136H160.259C160.323 172.792 160.627 173.328 161.171 173.744C161.731 174.16 162.459 174.368 163.355 174.368C164.187 174.368 164.843 174.184 165.323 173.816C165.803 173.448 166.043 172.984 166.043 172.424C166.043 171.848 165.787 171.424 165.275 171.152C164.763 170.864 163.971 170.584 162.899 170.312C161.923 170.056 161.123 169.8 160.499 169.544C159.891 169.272 159.363 168.88 158.915 168.368C158.483 167.84 158.267 167.152 158.267 166.304C158.267 165.632 158.467 165.016 158.867 164.456C159.267 163.896 159.835 163.456 160.571 163.136C161.307 162.8 162.147 162.632 163.091 162.632C164.547 162.632 165.723 163 166.619 163.736C167.515 164.472 167.995 165.48 168.059 166.76H165.875C165.827 166.072 165.547 165.52 165.035 165.104C164.539 164.688 163.867 164.48 163.019 164.48C162.235 164.48 161.611 164.648 161.147 164.984C160.683 165.32 160.451 165.76 160.451 166.304C160.451 166.736 160.587 167.096 160.859 167.384C161.147 167.656 161.499 167.88 161.915 168.056C162.347 168.216 162.939 168.4 163.691 168.608C164.635 168.864 165.403 169.12 165.995 169.376C166.587 169.616 167.091 169.984 167.507 170.48C167.939 170.976 168.163 171.624 168.179 172.424C168.179 173.144 167.979 173.792 167.579 174.368C167.179 174.944 166.611 175.4 165.875 175.736C165.155 176.056 164.323 176.216 163.379 176.216ZM170.446 169.376C170.446 168.032 170.718 166.856 171.262 165.848C171.806 164.824 172.55 164.032 173.494 163.472C174.454 162.912 175.518 162.632 176.686 162.632C177.838 162.632 178.838 162.88 179.686 163.376C180.534 163.872 181.166 164.496 181.582 165.248V162.848H183.79V176H181.582V173.552C181.15 174.32 180.502 174.96 179.638 175.472C178.79 175.968 177.798 176.216 176.662 176.216C175.494 176.216 174.438 175.928 173.494 175.352C172.55 174.776 171.806 173.968 171.262 172.928C170.718 171.888 170.446 170.704 170.446 169.376ZM181.582 169.4C181.582 168.408 181.382 167.544 180.982 166.808C180.582 166.072 180.038 165.512 179.35 165.128C178.678 164.728 177.934 164.528 177.118 164.528C176.302 164.528 175.558 164.72 174.886 165.104C174.214 165.488 173.678 166.048 173.278 166.784C172.878 167.52 172.678 168.384 172.678 169.376C172.678 170.384 172.878 171.264 173.278 172.016C173.678 172.752 174.214 173.32 174.886 173.72C175.558 174.104 176.302 174.296 177.118 174.296C177.934 174.296 178.678 174.104 179.35 173.72C180.038 173.32 180.582 172.752 180.982 172.016C181.382 171.264 181.582 170.392 181.582 169.4ZM189.665 165.296C190.113 164.512 190.769 163.872 191.633 163.376C192.497 162.88 193.481 162.632 194.585 162.632C195.769 162.632 196.833 162.912 197.777 163.472C198.721 164.032 199.465 164.824 200.009 165.848C200.553 166.856 200.825 168.032 200.825 169.376C200.825 170.704 200.553 171.888 200.009 172.928C199.465 173.968 198.713 174.776 197.753 175.352C196.809 175.928 195.753 176.216 194.585 176.216C193.449 176.216 192.449 175.968 191.585 175.472C190.737 174.976 190.097 174.344 189.665 173.576V176H187.481V158.24H189.665V165.296ZM198.593 169.376C198.593 168.384 198.393 167.52 197.993 166.784C197.593 166.048 197.049 165.488 196.361 165.104C195.689 164.72 194.945 164.528 194.129 164.528C193.329 164.528 192.585 164.728 191.897 165.128C191.225 165.512 190.681 166.08 190.265 166.832C189.865 167.568 189.665 168.424 189.665 169.4C189.665 170.392 189.865 171.264 190.265 172.016C190.681 172.752 191.225 173.32 191.897 173.72C192.585 174.104 193.329 174.296 194.129 174.296C194.945 174.296 195.689 174.104 196.361 173.72C197.049 173.32 197.593 172.752 197.993 172.016C198.393 171.264 198.593 170.384 198.593 169.376ZM205.884 158.24V176H203.7V158.24H205.884ZM221.606 168.92C221.606 169.336 221.582 169.776 221.534 170.24H211.022C211.102 171.536 211.542 172.552 212.342 173.288C213.158 174.008 214.142 174.368 215.294 174.368C216.238 174.368 217.022 174.152 217.646 173.72C218.286 173.272 218.734 172.68 218.99 171.944H221.342C220.99 173.208 220.286 174.24 219.23 175.04C218.174 175.824 216.862 176.216 215.294 176.216C214.046 176.216 212.926 175.936 211.934 175.376C210.958 174.816 210.19 174.024 209.63 173C209.07 171.96 208.79 170.76 208.79 169.4C208.79 168.04 209.062 166.848 209.606 165.824C210.15 164.8 210.91 164.016 211.886 163.472C212.878 162.912 214.014 162.632 215.294 162.632C216.542 162.632 217.646 162.904 218.606 163.448C219.566 163.992 220.302 164.744 220.814 165.704C221.342 166.648 221.606 167.72 221.606 168.92ZM219.35 168.464C219.35 167.632 219.166 166.92 218.798 166.328C218.43 165.72 217.926 165.264 217.286 164.96C216.662 164.64 215.966 164.48 215.198 164.48C214.094 164.48 213.15 164.832 212.366 165.536C211.598 166.24 211.158 167.216 211.046 168.464H219.35ZM223.673 169.376C223.673 168.032 223.945 166.856 224.489 165.848C225.033 164.824 225.777 164.032 226.721 163.472C227.681 162.912 228.753 162.632 229.937 162.632C230.961 162.632 231.913 162.872 232.793 163.352C233.673 163.816 234.345 164.432 234.809 165.2V158.24H237.017V176H234.809V173.528C234.377 174.312 233.737 174.96 232.889 175.472C232.041 175.968 231.049 176.216 229.913 176.216C228.745 176.216 227.681 175.928 226.721 175.352C225.777 174.776 225.033 173.968 224.489 172.928C223.945 171.888 223.673 170.704 223.673 169.376ZM234.809 169.4C234.809 168.408 234.609 167.544 234.209 166.808C233.809 166.072 233.265 165.512 232.577 165.128C231.905 164.728 231.161 164.528 230.345 164.528C229.529 164.528 228.785 164.72 228.113 165.104C227.441 165.488 226.905 166.048 226.505 166.784C226.105 167.52 225.905 168.384 225.905 169.376C225.905 170.384 226.105 171.264 226.505 172.016C226.905 172.752 227.441 173.32 228.113 173.72C228.785 174.104 229.529 174.296 230.345 174.296C231.161 174.296 231.905 174.104 232.577 173.72C233.265 173.32 233.809 172.752 234.209 172.016C234.609 171.264 234.809 170.392 234.809 169.4Z" fill="#7F8287"/>
<rect x="374" y="124" width="323" height="88" rx="14" stroke="#9F9F9F" stroke-width="2"/>
<path d="M490.056 159.272C491.88 159.272 493.456 159.616 494.784 160.304C496.128 160.976 497.152 161.944 497.856 163.208C498.576 164.472 498.936 165.96 498.936 167.672C498.936 169.384 498.576 170.872 497.856 172.136C497.152 173.384 496.128 174.344 494.784 175.016C493.456 175.672 491.88 176 490.056 176H484.848V159.272H490.056ZM490.056 174.2C492.216 174.2 493.864 173.632 495 172.496C496.136 171.344 496.704 169.736 496.704 167.672C496.704 165.592 496.128 163.968 494.976 162.8C493.84 161.632 492.2 161.048 490.056 161.048H487.032V174.2H490.056ZM502.945 160.712C502.529 160.712 502.177 160.568 501.889 160.28C501.601 159.992 501.457 159.64 501.457 159.224C501.457 158.808 501.601 158.456 501.889 158.168C502.177 157.88 502.529 157.736 502.945 157.736C503.345 157.736 503.681 157.88 503.953 158.168C504.241 158.456 504.385 158.808 504.385 159.224C504.385 159.64 504.241 159.992 503.953 160.28C503.681 160.568 503.345 160.712 502.945 160.712ZM504.001 162.848V176H501.817V162.848H504.001ZM512.379 176.216C511.371 176.216 510.467 176.048 509.667 175.712C508.867 175.36 508.235 174.88 507.771 174.272C507.307 173.648 507.051 172.936 507.003 172.136H509.259C509.323 172.792 509.627 173.328 510.171 173.744C510.731 174.16 511.459 174.368 512.355 174.368C513.187 174.368 513.843 174.184 514.323 173.816C514.803 173.448 515.043 172.984 515.043 172.424C515.043 171.848 514.787 171.424 514.275 171.152C513.763 170.864 512.971 170.584 511.899 170.312C510.923 170.056 510.123 169.8 509.499 169.544C508.891 169.272 508.363 168.88 507.915 168.368C507.483 167.84 507.267 167.152 507.267 166.304C507.267 165.632 507.467 165.016 507.867 164.456C508.267 163.896 508.835 163.456 509.571 163.136C510.307 162.8 511.147 162.632 512.091 162.632C513.547 162.632 514.723 163 515.619 163.736C516.515 164.472 516.995 165.48 517.059 166.76H514.875C514.827 166.072 514.547 165.52 514.035 165.104C513.539 164.688 512.867 164.48 512.019 164.48C511.235 164.48 510.611 164.648 510.147 164.984C509.683 165.32 509.451 165.76 509.451 166.304C509.451 166.736 509.587 167.096 509.859 167.384C510.147 167.656 510.499 167.88 510.915 168.056C511.347 168.216 511.939 168.4 512.691 168.608C513.635 168.864 514.403 169.12 514.995 169.376C515.587 169.616 516.091 169.984 516.507 170.48C516.939 170.976 517.163 171.624 517.179 172.424C517.179 173.144 516.979 173.792 516.579 174.368C516.179 174.944 515.611 175.4 514.875 175.736C514.155 176.056 513.323 176.216 512.379 176.216ZM519.446 169.376C519.446 168.032 519.718 166.856 520.262 165.848C520.806 164.824 521.55 164.032 522.494 163.472C523.454 162.912 524.518 162.632 525.686 162.632C526.838 162.632 527.838 162.88 528.686 163.376C529.534 163.872 530.166 164.496 530.582 165.248V162.848H532.79V176H530.582V173.552C530.15 174.32 529.502 174.96 528.638 175.472C527.79 175.968 526.798 176.216 525.662 176.216C524.494 176.216 523.438 175.928 522.494 175.352C521.55 174.776 520.806 173.968 520.262 172.928C519.718 171.888 519.446 170.704 519.446 169.376ZM530.582 169.4C530.582 168.408 530.382 167.544 529.982 166.808C529.582 166.072 529.038 165.512 528.35 165.128C527.678 164.728 526.934 164.528 526.118 164.528C525.302 164.528 524.558 164.72 523.886 165.104C523.214 165.488 522.678 166.048 522.278 166.784C521.878 167.52 521.678 168.384 521.678 169.376C521.678 170.384 521.878 171.264 522.278 172.016C522.678 172.752 523.214 173.32 523.886 173.72C524.558 174.104 525.302 174.296 526.118 174.296C526.934 174.296 527.678 174.104 528.35 173.72C529.038 173.32 529.582 172.752 529.982 172.016C530.382 171.264 530.582 170.392 530.582 169.4ZM538.665 165.296C539.113 164.512 539.769 163.872 540.633 163.376C541.497 162.88 542.481 162.632 543.585 162.632C544.769 162.632 545.833 162.912 546.777 163.472C547.721 164.032 548.465 164.824 549.009 165.848C549.553 166.856 549.825 168.032 549.825 169.376C549.825 170.704 549.553 171.888 549.009 172.928C548.465 173.968 547.713 174.776 546.753 175.352C545.809 175.928 544.753 176.216 543.585 176.216C542.449 176.216 541.449 175.968 540.585 175.472C539.737 174.976 539.097 174.344 538.665 173.576V176H536.481V158.24H538.665V165.296ZM547.593 169.376C547.593 168.384 547.393 167.52 546.993 166.784C546.593 166.048 546.049 165.488 545.361 165.104C544.689 164.72 543.945 164.528 543.129 164.528C542.329 164.528 541.585 164.728 540.897 165.128C540.225 165.512 539.681 166.08 539.265 166.832C538.865 167.568 538.665 168.424 538.665 169.4C538.665 170.392 538.865 171.264 539.265 172.016C539.681 172.752 540.225 173.32 540.897 173.72C541.585 174.104 542.329 174.296 543.129 174.296C543.945 174.296 544.689 174.104 545.361 173.72C546.049 173.32 546.593 172.752 546.993 172.016C547.393 171.264 547.593 170.384 547.593 169.376ZM554.884 158.24V176H552.7V158.24H554.884ZM570.606 168.92C570.606 169.336 570.582 169.776 570.534 170.24H560.022C560.102 171.536 560.542 172.552 561.342 173.288C562.158 174.008 563.142 174.368 564.294 174.368C565.238 174.368 566.022 174.152 566.646 173.72C567.286 173.272 567.734 172.68 567.99 171.944H570.342C569.99 173.208 569.286 174.24 568.23 175.04C567.174 175.824 565.862 176.216 564.294 176.216C563.046 176.216 561.926 175.936 560.934 175.376C559.958 174.816 559.19 174.024 558.63 173C558.07 171.96 557.79 170.76 557.79 169.4C557.79 168.04 558.062 166.848 558.606 165.824C559.15 164.8 559.91 164.016 560.886 163.472C561.878 162.912 563.014 162.632 564.294 162.632C565.542 162.632 566.646 162.904 567.606 163.448C568.566 163.992 569.302 164.744 569.814 165.704C570.342 166.648 570.606 167.72 570.606 168.92ZM568.35 168.464C568.35 167.632 568.166 166.92 567.798 166.328C567.43 165.72 566.926 165.264 566.286 164.96C565.662 164.64 564.966 164.48 564.198 164.48C563.094 164.48 562.15 164.832 561.366 165.536C560.598 166.24 560.158 167.216 560.046 168.464H568.35ZM572.673 169.376C572.673 168.032 572.945 166.856 573.489 165.848C574.033 164.824 574.777 164.032 575.721 163.472C576.681 162.912 577.753 162.632 578.937 162.632C579.961 162.632 580.913 162.872 581.793 163.352C582.673 163.816 583.345 164.432 583.809 165.2V158.24H586.017V176H583.809V173.528C583.377 174.312 582.737 174.96 581.889 175.472C581.041 175.968 580.049 176.216 578.913 176.216C577.745 176.216 576.681 175.928 575.721 175.352C574.777 174.776 574.033 173.968 573.489 172.928C572.945 171.888 572.673 170.704 572.673 169.376ZM583.809 169.4C583.809 168.408 583.609 167.544 583.209 166.808C582.809 166.072 582.265 165.512 581.577 165.128C580.905 164.728 580.161 164.528 579.345 164.528C578.529 164.528 577.785 164.72 577.113 165.104C576.441 165.488 575.905 166.048 575.505 166.784C575.105 167.52 574.905 168.384 574.905 169.376C574.905 170.384 575.105 171.264 575.505 172.016C575.905 172.752 576.441 173.32 577.113 173.72C577.785 174.104 578.529 174.296 579.345 174.296C580.161 174.296 580.905 174.104 581.577 173.72C582.265 173.32 582.809 172.752 583.209 172.016C583.609 171.264 583.809 170.392 583.809 169.4Z" fill="#9F9F9F"/>
<rect x="722" y="123" width="325" height="90" rx="15" fill="#DBDBDB"/>
<path d="M840 167.996C840 169.245 838.992 170.254 837.742 170.254H829.261V178.742C829.261 179.984 828.245 181 827.004 181C825.762 181 824.746 179.984 824.746 178.742V170.254H816.258C815.016 170.254 814 169.245 814 167.996C814 166.747 815.016 165.739 816.258 165.739H824.746V157.258C824.746 156.008 825.755 155 827.004 155C828.253 155 829.261 156.008 829.261 157.258V165.739H837.742C838.992 165.739 840 166.755 840 167.996Z" fill="#7F8287"/>
<path d="M857.056 159.272C858.88 159.272 860.456 159.616 861.784 160.304C863.128 160.976 864.152 161.944 864.856 163.208C865.576 164.472 865.936 165.96 865.936 167.672C865.936 169.384 865.576 170.872 864.856 172.136C864.152 173.384 863.128 174.344 861.784 175.016C860.456 175.672 858.88 176 857.056 176H851.848V159.272H857.056ZM857.056 174.2C859.216 174.2 860.864 173.632 862 172.496C863.136 171.344 863.704 169.736 863.704 167.672C863.704 165.592 863.128 163.968 861.976 162.8C860.84 161.632 859.2 161.048 857.056 161.048H854.032V174.2H857.056ZM869.945 160.712C869.529 160.712 869.177 160.568 868.889 160.28C868.601 159.992 868.457 159.64 868.457 159.224C868.457 158.808 868.601 158.456 868.889 158.168C869.177 157.88 869.529 157.736 869.945 157.736C870.345 157.736 870.681 157.88 870.953 158.168C871.241 158.456 871.385 158.808 871.385 159.224C871.385 159.64 871.241 159.992 870.953 160.28C870.681 160.568 870.345 160.712 869.945 160.712ZM871.001 162.848V176H868.817V162.848H871.001ZM879.379 176.216C878.371 176.216 877.467 176.048 876.667 175.712C875.867 175.36 875.235 174.88 874.771 174.272C874.307 173.648 874.051 172.936 874.003 172.136H876.259C876.323 172.792 876.627 173.328 877.171 173.744C877.731 174.16 878.459 174.368 879.355 174.368C880.187 174.368 880.843 174.184 881.323 173.816C881.803 173.448 882.043 172.984 882.043 172.424C882.043 171.848 881.787 171.424 881.275 171.152C880.763 170.864 879.971 170.584 878.899 170.312C877.923 170.056 877.123 169.8 876.499 169.544C875.891 169.272 875.363 168.88 874.915 168.368C874.483 167.84 874.267 167.152 874.267 166.304C874.267 165.632 874.467 165.016 874.867 164.456C875.267 163.896 875.835 163.456 876.571 163.136C877.307 162.8 878.147 162.632 879.091 162.632C880.547 162.632 881.723 163 882.619 163.736C883.515 164.472 883.995 165.48 884.059 166.76H881.875C881.827 166.072 881.547 165.52 881.035 165.104C880.539 164.688 879.867 164.48 879.019 164.48C878.235 164.48 877.611 164.648 877.147 164.984C876.683 165.32 876.451 165.76 876.451 166.304C876.451 166.736 876.587 167.096 876.859 167.384C877.147 167.656 877.499 167.88 877.915 168.056C878.347 168.216 878.939 168.4 879.691 168.608C880.635 168.864 881.403 169.12 881.995 169.376C882.587 169.616 883.091 169.984 883.507 170.48C883.939 170.976 884.163 171.624 884.179 172.424C884.179 173.144 883.979 173.792 883.579 174.368C883.179 174.944 882.611 175.4 881.875 175.736C881.155 176.056 880.323 176.216 879.379 176.216ZM886.446 169.376C886.446 168.032 886.718 166.856 887.262 165.848C887.806 164.824 888.55 164.032 889.494 163.472C890.454 162.912 891.518 162.632 892.686 162.632C893.838 162.632 894.838 162.88 895.686 163.376C896.534 163.872 897.166 164.496 897.582 165.248V162.848H899.79V176H897.582V173.552C897.15 174.32 896.502 174.96 895.638 175.472C894.79 175.968 893.798 176.216 892.662 176.216C891.494 176.216 890.438 175.928 889.494 175.352C888.55 174.776 887.806 173.968 887.262 172.928C886.718 171.888 886.446 170.704 886.446 169.376ZM897.582 169.4C897.582 168.408 897.382 167.544 896.982 166.808C896.582 166.072 896.038 165.512 895.35 165.128C894.678 164.728 893.934 164.528 893.118 164.528C892.302 164.528 891.558 164.72 890.886 165.104C890.214 165.488 889.678 166.048 889.278 166.784C888.878 167.52 888.678 168.384 888.678 169.376C888.678 170.384 888.878 171.264 889.278 172.016C889.678 172.752 890.214 173.32 890.886 173.72C891.558 174.104 892.302 174.296 893.118 174.296C893.934 174.296 894.678 174.104 895.35 173.72C896.038 173.32 896.582 172.752 896.982 172.016C897.382 171.264 897.582 170.392 897.582 169.4ZM905.665 165.296C906.113 164.512 906.769 163.872 907.633 163.376C908.497 162.88 909.481 162.632 910.585 162.632C911.769 162.632 912.833 162.912 913.777 163.472C914.721 164.032 915.465 164.824 916.009 165.848C916.553 166.856 916.825 168.032 916.825 169.376C916.825 170.704 916.553 171.888 916.009 172.928C915.465 173.968 914.713 174.776 913.753 175.352C912.809 175.928 911.753 176.216 910.585 176.216C909.449 176.216 908.449 175.968 907.585 175.472C906.737 174.976 906.097 174.344 905.665 173.576V176H903.481V158.24H905.665V165.296ZM914.593 169.376C914.593 168.384 914.393 167.52 913.993 166.784C913.593 166.048 913.049 165.488 912.361 165.104C911.689 164.72 910.945 164.528 910.129 164.528C909.329 164.528 908.585 164.728 907.897 165.128C907.225 165.512 906.681 166.08 906.265 166.832C905.865 167.568 905.665 168.424 905.665 169.4C905.665 170.392 905.865 171.264 906.265 172.016C906.681 172.752 907.225 173.32 907.897 173.72C908.585 174.104 909.329 174.296 910.129 174.296C910.945 174.296 911.689 174.104 912.361 173.72C913.049 173.32 913.593 172.752 913.993 172.016C914.393 171.264 914.593 170.384 914.593 169.376ZM921.884 158.24V176H919.7V158.24H921.884ZM937.606 168.92C937.606 169.336 937.582 169.776 937.534 170.24H927.022C927.102 171.536 927.542 172.552 928.342 173.288C929.158 174.008 930.142 174.368 931.294 174.368C932.238 174.368 933.022 174.152 933.646 173.72C934.286 173.272 934.734 172.68 934.99 171.944H937.342C936.99 173.208 936.286 174.24 935.23 175.04C934.174 175.824 932.862 176.216 931.294 176.216C930.046 176.216 928.926 175.936 927.934 175.376C926.958 174.816 926.19 174.024 925.63 173C925.07 171.96 924.79 170.76 924.79 169.4C924.79 168.04 925.062 166.848 925.606 165.824C926.15 164.8 926.91 164.016 927.886 163.472C928.878 162.912 930.014 162.632 931.294 162.632C932.542 162.632 933.646 162.904 934.606 163.448C935.566 163.992 936.302 164.744 936.814 165.704C937.342 166.648 937.606 167.72 937.606 168.92ZM935.35 168.464C935.35 167.632 935.166 166.92 934.798 166.328C934.43 165.72 933.926 165.264 933.286 164.96C932.662 164.64 931.966 164.48 931.198 164.48C930.094 164.48 929.15 164.832 928.366 165.536C927.598 166.24 927.158 167.216 927.046 168.464H935.35ZM939.673 169.376C939.673 168.032 939.945 166.856 940.489 165.848C941.033 164.824 941.777 164.032 942.721 163.472C943.681 162.912 944.753 162.632 945.937 162.632C946.961 162.632 947.913 162.872 948.793 163.352C949.673 163.816 950.345 164.432 950.809 165.2V158.24H953.017V176H950.809V173.528C950.377 174.312 949.737 174.96 948.889 175.472C948.041 175.968 947.049 176.216 945.913 176.216C944.745 176.216 943.681 175.928 942.721 175.352C941.777 174.776 941.033 173.968 940.489 172.928C939.945 171.888 939.673 170.704 939.673 169.376ZM950.809 169.4C950.809 168.408 950.609 167.544 950.209 166.808C949.809 166.072 949.265 165.512 948.577 165.128C947.905 164.728 947.161 164.528 946.345 164.528C945.529 164.528 944.785 164.72 944.113 165.104C943.441 165.488 942.905 166.048 942.505 166.784C942.105 167.52 941.905 168.384 941.905 169.376C941.905 170.384 942.105 171.264 942.505 172.016C942.905 172.752 943.441 173.32 944.113 173.72C944.785 174.104 945.529 174.296 946.345 174.296C947.161 174.296 947.905 174.104 948.577 173.72C949.265 173.32 949.809 172.752 950.209 172.016C950.609 171.264 950.809 170.392 950.809 169.4Z" fill="#7F8287"/>
<rect x="1072" y="124" width="323" height="88" rx="14" stroke="#9F9F9F" stroke-width="2"/>
<path d="M1189 167.996C1189 169.245 1187.99 170.254 1186.74 170.254H1178.26V178.742C1178.26 179.984 1177.25 181 1176 181C1174.76 181 1173.75 179.984 1173.75 178.742V170.254H1165.26C1164.02 170.254 1163 169.245 1163 167.996C1163 166.747 1164.02 165.739 1165.26 165.739H1173.75V157.258C1173.75 156.008 1174.75 155 1176 155C1177.25 155 1178.26 156.008 1178.26 157.258V165.739H1186.74C1187.99 165.739 1189 166.755 1189 167.996Z" fill="#9F9F9F"/>
<path d="M1206.06 159.272C1207.88 159.272 1209.46 159.616 1210.78 160.304C1212.13 160.976 1213.15 161.944 1213.86 163.208C1214.58 164.472 1214.94 165.96 1214.94 167.672C1214.94 169.384 1214.58 170.872 1213.86 172.136C1213.15 173.384 1212.13 174.344 1210.78 175.016C1209.46 175.672 1207.88 176 1206.06 176H1200.85V159.272H1206.06ZM1206.06 174.2C1208.22 174.2 1209.86 173.632 1211 172.496C1212.14 171.344 1212.7 169.736 1212.7 167.672C1212.7 165.592 1212.13 163.968 1210.98 162.8C1209.84 161.632 1208.2 161.048 1206.06 161.048H1203.03V174.2H1206.06ZM1218.94 160.712C1218.53 160.712 1218.18 160.568 1217.89 160.28C1217.6 159.992 1217.46 159.64 1217.46 159.224C1217.46 158.808 1217.6 158.456 1217.89 158.168C1218.18 157.88 1218.53 157.736 1218.94 157.736C1219.34 157.736 1219.68 157.88 1219.95 158.168C1220.24 158.456 1220.38 158.808 1220.38 159.224C1220.38 159.64 1220.24 159.992 1219.95 160.28C1219.68 160.568 1219.34 160.712 1218.94 160.712ZM1220 162.848V176H1217.82V162.848H1220ZM1228.38 176.216C1227.37 176.216 1226.47 176.048 1225.67 175.712C1224.87 175.36 1224.24 174.88 1223.77 174.272C1223.31 173.648 1223.05 172.936 1223 172.136H1225.26C1225.32 172.792 1225.63 173.328 1226.17 173.744C1226.73 174.16 1227.46 174.368 1228.36 174.368C1229.19 174.368 1229.84 174.184 1230.32 173.816C1230.8 173.448 1231.04 172.984 1231.04 172.424C1231.04 171.848 1230.79 171.424 1230.28 171.152C1229.76 170.864 1228.97 170.584 1227.9 170.312C1226.92 170.056 1226.12 169.8 1225.5 169.544C1224.89 169.272 1224.36 168.88 1223.92 168.368C1223.48 167.84 1223.27 167.152 1223.27 166.304C1223.27 165.632 1223.47 165.016 1223.87 164.456C1224.27 163.896 1224.84 163.456 1225.57 163.136C1226.31 162.8 1227.15 162.632 1228.09 162.632C1229.55 162.632 1230.72 163 1231.62 163.736C1232.52 164.472 1233 165.48 1233.06 166.76H1230.88C1230.83 166.072 1230.55 165.52 1230.04 165.104C1229.54 164.688 1228.87 164.48 1228.02 164.48C1227.24 164.48 1226.61 164.648 1226.15 164.984C1225.68 165.32 1225.45 165.76 1225.45 166.304C1225.45 166.736 1225.59 167.096 1225.86 167.384C1226.15 167.656 1226.5 167.88 1226.92 168.056C1227.35 168.216 1227.94 168.4 1228.69 168.608C1229.64 168.864 1230.4 169.12 1231 169.376C1231.59 169.616 1232.09 169.984 1232.51 170.48C1232.94 170.976 1233.16 171.624 1233.18 172.424C1233.18 173.144 1232.98 173.792 1232.58 174.368C1232.18 174.944 1231.61 175.4 1230.88 175.736C1230.16 176.056 1229.32 176.216 1228.38 176.216ZM1235.45 169.376C1235.45 168.032 1235.72 166.856 1236.26 165.848C1236.81 164.824 1237.55 164.032 1238.49 163.472C1239.45 162.912 1240.52 162.632 1241.69 162.632C1242.84 162.632 1243.84 162.88 1244.69 163.376C1245.53 163.872 1246.17 164.496 1246.58 165.248V162.848H1248.79V176H1246.58V173.552C1246.15 174.32 1245.5 174.96 1244.64 175.472C1243.79 175.968 1242.8 176.216 1241.66 176.216C1240.49 176.216 1239.44 175.928 1238.49 175.352C1237.55 174.776 1236.81 173.968 1236.26 172.928C1235.72 171.888 1235.45 170.704 1235.45 169.376ZM1246.58 169.4C1246.58 168.408 1246.38 167.544 1245.98 166.808C1245.58 166.072 1245.04 165.512 1244.35 165.128C1243.68 164.728 1242.93 164.528 1242.12 164.528C1241.3 164.528 1240.56 164.72 1239.89 165.104C1239.21 165.488 1238.68 166.048 1238.28 166.784C1237.88 167.52 1237.68 168.384 1237.68 169.376C1237.68 170.384 1237.88 171.264 1238.28 172.016C1238.68 172.752 1239.21 173.32 1239.89 173.72C1240.56 174.104 1241.3 174.296 1242.12 174.296C1242.93 174.296 1243.68 174.104 1244.35 173.72C1245.04 173.32 1245.58 172.752 1245.98 172.016C1246.38 171.264 1246.58 170.392 1246.58 169.4ZM1254.66 165.296C1255.11 164.512 1255.77 163.872 1256.63 163.376C1257.5 162.88 1258.48 162.632 1259.58 162.632C1260.77 162.632 1261.83 162.912 1262.78 163.472C1263.72 164.032 1264.46 164.824 1265.01 165.848C1265.55 166.856 1265.82 168.032 1265.82 169.376C1265.82 170.704 1265.55 171.888 1265.01 172.928C1264.46 173.968 1263.71 174.776 1262.75 175.352C1261.81 175.928 1260.75 176.216 1259.58 176.216C1258.45 176.216 1257.45 175.968 1256.58 175.472C1255.74 174.976 1255.1 174.344 1254.66 173.576V176H1252.48V158.24H1254.66V165.296ZM1263.59 169.376C1263.59 168.384 1263.39 167.52 1262.99 166.784C1262.59 166.048 1262.05 165.488 1261.36 165.104C1260.69 164.72 1259.94 164.528 1259.13 164.528C1258.33 164.528 1257.58 164.728 1256.9 165.128C1256.22 165.512 1255.68 166.08 1255.26 166.832C1254.86 167.568 1254.66 168.424 1254.66 169.4C1254.66 170.392 1254.86 171.264 1255.26 172.016C1255.68 172.752 1256.22 173.32 1256.9 173.72C1257.58 174.104 1258.33 174.296 1259.13 174.296C1259.94 174.296 1260.69 174.104 1261.36 173.72C1262.05 173.32 1262.59 172.752 1262.99 172.016C1263.39 171.264 1263.59 170.384 1263.59 169.376ZM1270.88 158.24V176H1268.7V158.24H1270.88ZM1286.61 168.92C1286.61 169.336 1286.58 169.776 1286.53 170.24H1276.02C1276.1 171.536 1276.54 172.552 1277.34 173.288C1278.16 174.008 1279.14 174.368 1280.29 174.368C1281.24 174.368 1282.02 174.152 1282.65 173.72C1283.29 173.272 1283.73 172.68 1283.99 171.944H1286.34C1285.99 173.208 1285.29 174.24 1284.23 175.04C1283.17 175.824 1281.86 176.216 1280.29 176.216C1279.05 176.216 1277.93 175.936 1276.93 175.376C1275.96 174.816 1275.19 174.024 1274.63 173C1274.07 171.96 1273.79 170.76 1273.79 169.4C1273.79 168.04 1274.06 166.848 1274.61 165.824C1275.15 164.8 1275.91 164.016 1276.89 163.472C1277.88 162.912 1279.01 162.632 1280.29 162.632C1281.54 162.632 1282.65 162.904 1283.61 163.448C1284.57 163.992 1285.3 164.744 1285.81 165.704C1286.34 166.648 1286.61 167.72 1286.61 168.92ZM1284.35 168.464C1284.35 167.632 1284.17 166.92 1283.8 166.328C1283.43 165.72 1282.93 165.264 1282.29 164.96C1281.66 164.64 1280.97 164.48 1280.2 164.48C1279.09 164.48 1278.15 164.832 1277.37 165.536C1276.6 166.24 1276.16 167.216 1276.05 168.464H1284.35ZM1288.67 169.376C1288.67 168.032 1288.94 166.856 1289.49 165.848C1290.03 164.824 1290.78 164.032 1291.72 163.472C1292.68 162.912 1293.75 162.632 1294.94 162.632C1295.96 162.632 1296.91 162.872 1297.79 163.352C1298.67 163.816 1299.34 164.432 1299.81 165.2V158.24H1302.02V176H1299.81V173.528C1299.38 174.312 1298.74 174.96 1297.89 175.472C1297.04 175.968 1296.05 176.216 1294.91 176.216C1293.74 176.216 1292.68 175.928 1291.72 175.352C1290.78 174.776 1290.03 173.968 1289.49 172.928C1288.94 171.888 1288.67 170.704 1288.67 169.376ZM1299.81 169.4C1299.81 168.408 1299.61 167.544 1299.21 166.808C1298.81 166.072 1298.26 165.512 1297.58 165.128C1296.9 164.728 1296.16 164.528 1295.34 164.528C1294.53 164.528 1293.78 164.72 1293.11 165.104C1292.44 165.488 1291.9 166.048 1291.5 166.784C1291.1 167.52 1290.9 168.384 1290.9 169.376C1290.9 170.384 1291.1 171.264 1291.5 172.016C1291.9 172.752 1292.44 173.32 1293.11 173.72C1293.78 174.104 1294.53 174.296 1295.34 174.296C1296.16 174.296 1296.9 174.104 1297.58 173.72C1298.26 173.32 1298.81 172.752 1299.21 172.016C1299.61 171.264 1299.81 170.392 1299.81 169.4Z" fill="#9F9F9F"/>
</g>
<rect x="0.5" y="0.5" width="1419" height="224" rx="4.5" stroke="#9747FF" stroke-dasharray="10 5"/>
<defs>
<clipPath id="clip0_1616_3798">
<rect width="1420" height="225" rx="5" fill="white"/>
</clipPath>
</defs>
</svg>
