<svg width="172" height="129" viewBox="0 0 172 129" fill="none" xmlns="http://www.w3.org/2000/svg">
<rect width="172" height="129" rx="10" fill="#DAECF5"/>
<path d="M17.828 26.108C17.148 26.108 16.536 26.02 15.992 25.844C15.448 25.668 14.976 25.42 14.576 25.1L14.96 24.212C15.24 24.42 15.524 24.596 15.812 24.74C16.1 24.876 16.408 24.98 16.736 25.052C17.072 25.116 17.436 25.148 17.828 25.148C18.524 25.148 19.036 25.024 19.364 24.776C19.7 24.52 19.868 24.184 19.868 23.768C19.868 23.408 19.752 23.132 19.52 22.94C19.288 22.748 18.884 22.596 18.308 22.484L17.024 22.22C16.248 22.06 15.668 21.8 15.284 21.44C14.908 21.072 14.72 20.576 14.72 19.952C14.72 19.448 14.852 19.008 15.116 18.632C15.388 18.248 15.76 17.952 16.232 17.744C16.712 17.536 17.272 17.432 17.912 17.432C18.504 17.432 19.052 17.52 19.556 17.696C20.06 17.872 20.484 18.132 20.828 18.476L20.444 19.328C20.084 19 19.696 18.764 19.28 18.62C18.872 18.468 18.408 18.392 17.888 18.392C17.256 18.392 16.756 18.528 16.388 18.8C16.02 19.072 15.836 19.44 15.836 19.904C15.836 20.272 15.952 20.564 16.184 20.78C16.416 20.988 16.8 21.148 17.336 21.26L18.62 21.512C19.436 21.672 20.032 21.924 20.408 22.268C20.792 22.612 20.984 23.088 20.984 23.696C20.984 24.176 20.856 24.6 20.6 24.968C20.344 25.328 19.98 25.608 19.508 25.808C19.036 26.008 18.476 26.108 17.828 26.108ZM22.4472 26V17.168H23.5392V21.272H23.3832C23.5592 20.808 23.8432 20.456 24.2352 20.216C24.6272 19.976 25.0792 19.856 25.5912 19.856C26.3192 19.856 26.8552 20.052 27.1992 20.444C27.5512 20.836 27.7272 21.428 27.7272 22.22V26H26.6352V22.28C26.6352 21.744 26.5312 21.356 26.3232 21.116C26.1152 20.868 25.7752 20.744 25.3032 20.744C24.7752 20.744 24.3472 20.908 24.0192 21.236C23.6992 21.564 23.5392 22 23.5392 22.544V26H22.4472ZM32.0576 26.108C31.4656 26.108 30.9536 25.984 30.5216 25.736C30.0896 25.48 29.7536 25.12 29.5136 24.656C29.2736 24.184 29.1536 23.624 29.1536 22.976C29.1536 22.336 29.2736 21.784 29.5136 21.32C29.7536 20.848 30.0896 20.488 30.5216 20.24C30.9536 19.984 31.4656 19.856 32.0576 19.856C32.6496 19.856 33.1616 19.984 33.5936 20.24C34.0336 20.488 34.3696 20.848 34.6016 21.32C34.8416 21.784 34.9616 22.336 34.9616 22.976C34.9616 23.624 34.8416 24.184 34.6016 24.656C34.3696 25.12 34.0336 25.48 33.5936 25.736C33.1616 25.984 32.6496 26.108 32.0576 26.108ZM32.0576 25.244C32.6016 25.244 33.0376 25.052 33.3656 24.668C33.6936 24.284 33.8576 23.72 33.8576 22.976C33.8576 22.232 33.6936 21.672 33.3656 21.296C33.0376 20.92 32.6016 20.732 32.0576 20.732C31.5056 20.732 31.0656 20.92 30.7376 21.296C30.4176 21.672 30.2576 22.232 30.2576 22.976C30.2576 23.72 30.4176 24.284 30.7376 24.668C31.0656 25.052 31.5056 25.244 32.0576 25.244ZM38.5756 26.108C37.8476 26.108 37.2996 25.912 36.9316 25.52C36.5716 25.128 36.3916 24.524 36.3916 23.708V19.964H37.4836V23.684C37.4836 24.212 37.5916 24.6 37.8076 24.848C38.0236 25.096 38.3596 25.22 38.8156 25.22C39.3116 25.22 39.7116 25.056 40.0156 24.728C40.3276 24.392 40.4836 23.948 40.4836 23.396V19.964H41.5756V26H40.5196V24.668H40.6756C40.5076 25.124 40.2396 25.48 39.8716 25.736C39.5036 25.984 39.0716 26.108 38.5756 26.108ZM43.412 26V17.168H44.504V26H43.412ZM48.634 26.108C48.106 26.108 47.642 25.984 47.242 25.736C46.842 25.488 46.53 25.128 46.306 24.656C46.082 24.184 45.97 23.624 45.97 22.976C45.97 22.328 46.082 21.772 46.306 21.308C46.53 20.836 46.842 20.476 47.242 20.228C47.642 19.98 48.106 19.856 48.634 19.856C49.162 19.856 49.622 19.988 50.014 20.252C50.414 20.516 50.682 20.88 50.818 21.344H50.674V17.168H51.766V26H50.686V24.596H50.818C50.69 25.068 50.426 25.44 50.026 25.712C49.634 25.976 49.17 26.108 48.634 26.108ZM48.886 25.244C49.43 25.244 49.866 25.052 50.194 24.668C50.53 24.284 50.698 23.72 50.698 22.976C50.698 22.232 50.53 21.672 50.194 21.296C49.866 20.92 49.43 20.732 48.886 20.732C48.342 20.732 47.902 20.92 47.566 21.296C47.238 21.672 47.074 22.232 47.074 22.976C47.074 23.72 47.238 24.284 47.566 24.668C47.902 25.052 48.342 25.244 48.886 25.244ZM56.3436 26.108C55.3836 26.108 54.6236 25.832 54.0636 25.28C53.5116 24.728 53.2356 23.968 53.2356 23C53.2356 22.36 53.3556 21.808 53.5956 21.344C53.8436 20.872 54.1836 20.508 54.6156 20.252C55.0476 19.988 55.5516 19.856 56.1276 19.856C56.6796 19.856 57.1476 19.976 57.5316 20.216C57.9156 20.448 58.2076 20.78 58.4076 21.212C58.6076 21.644 58.7076 22.156 58.7076 22.748V23.108H54.0876V22.46H57.9636L57.7596 22.616C57.7596 21.992 57.6196 21.508 57.3396 21.164C57.0676 20.82 56.6636 20.648 56.1276 20.648C55.5436 20.648 55.0916 20.852 54.7716 21.26C54.4516 21.66 54.2916 22.208 54.2916 22.904V23.012C54.2916 23.748 54.4716 24.304 54.8316 24.68C55.1996 25.056 55.7076 25.244 56.3556 25.244C56.7156 25.244 57.0516 25.192 57.3636 25.088C57.6756 24.984 57.9756 24.812 58.2636 24.572L58.6236 25.328C58.3516 25.576 58.0116 25.768 57.6036 25.904C57.2036 26.04 56.7836 26.108 56.3436 26.108ZM60.1227 26V21.44C60.1227 21.2 60.1147 20.956 60.0987 20.708C60.0907 20.452 60.0707 20.204 60.0387 19.964H61.0947L61.2267 21.476L61.0467 21.488C61.1267 21.12 61.2627 20.816 61.4547 20.576C61.6547 20.328 61.8907 20.148 62.1627 20.036C62.4427 19.916 62.7307 19.856 63.0267 19.856C63.1547 19.856 63.2627 19.86 63.3507 19.868C63.4387 19.876 63.5267 19.896 63.6147 19.928L63.5907 20.9C63.4707 20.852 63.3587 20.824 63.2547 20.816C63.1587 20.8 63.0387 20.792 62.8947 20.792C62.5427 20.792 62.2387 20.872 61.9827 21.032C61.7347 21.192 61.5427 21.404 61.4067 21.668C61.2787 21.932 61.2147 22.216 61.2147 22.52V26H60.1227ZM69.7801 26.108C69.2921 26.108 68.8361 26.044 68.4121 25.916C67.9961 25.788 67.6521 25.604 67.3801 25.364L67.7281 24.608C68.0241 24.832 68.3481 25.004 68.7001 25.124C69.0601 25.236 69.4281 25.292 69.8041 25.292C70.2601 25.292 70.6041 25.208 70.8361 25.04C71.0761 24.872 71.1961 24.648 71.1961 24.368C71.1961 24.144 71.1201 23.964 70.9681 23.828C70.8161 23.692 70.5761 23.592 70.2481 23.528L69.1081 23.3C68.5961 23.18 68.2081 22.988 67.9441 22.724C67.6881 22.452 67.5601 22.104 67.5601 21.68C67.5601 21.328 67.6561 21.016 67.8481 20.744C68.0401 20.464 68.3121 20.248 68.6641 20.096C69.0241 19.936 69.4441 19.856 69.9241 19.856C70.3641 19.856 70.7721 19.92 71.1481 20.048C71.5321 20.176 71.8481 20.364 72.0961 20.612L71.7361 21.344C71.4881 21.128 71.2081 20.964 70.8961 20.852C70.5921 20.732 70.2801 20.672 69.9601 20.672C69.4961 20.672 69.1521 20.764 68.9281 20.948C68.7041 21.124 68.5921 21.356 68.5921 21.644C68.5921 21.86 68.6601 22.04 68.7961 22.184C68.9321 22.32 69.1521 22.424 69.4561 22.496L70.5961 22.724C71.1321 22.836 71.5361 23.02 71.8081 23.276C72.0801 23.532 72.2161 23.872 72.2161 24.296C72.2161 24.672 72.1121 24.996 71.9041 25.268C71.7041 25.54 71.4201 25.748 71.0521 25.892C70.6921 26.036 70.2681 26.108 69.7801 26.108ZM75.9024 26.108C75.2704 26.108 74.7904 25.936 74.4624 25.592C74.1424 25.24 73.9824 24.712 73.9824 24.008V20.804H72.8064V19.964H73.9824V18.344L75.0744 18.044V19.964H76.7784V20.804H75.0744V23.912C75.0744 24.376 75.1544 24.708 75.3144 24.908C75.4824 25.1 75.7224 25.196 76.0344 25.196C76.1944 25.196 76.3304 25.184 76.4424 25.16C76.5624 25.128 76.6704 25.092 76.7664 25.052V25.952C76.6464 26 76.5064 26.036 76.3464 26.06C76.1944 26.092 76.0464 26.108 75.9024 26.108ZM77.9117 26V21.44C77.9117 21.2 77.9037 20.956 77.8877 20.708C77.8797 20.452 77.8597 20.204 77.8277 19.964H78.8837L79.0157 21.476L78.8357 21.488C78.9157 21.12 79.0517 20.816 79.2437 20.576C79.4437 20.328 79.6797 20.148 79.9517 20.036C80.2317 19.916 80.5197 19.856 80.8157 19.856C80.9437 19.856 81.0517 19.86 81.1397 19.868C81.2277 19.876 81.3157 19.896 81.4037 19.928L81.3797 20.9C81.2597 20.852 81.1477 20.824 81.0437 20.816C80.9477 20.8 80.8277 20.792 80.6837 20.792C80.3317 20.792 80.0277 20.872 79.7717 21.032C79.5237 21.192 79.3317 21.404 79.1957 21.668C79.0677 21.932 79.0037 22.216 79.0037 22.52V26H77.9117ZM85.0311 26.108C84.0711 26.108 83.3111 25.832 82.7511 25.28C82.1991 24.728 81.9231 23.968 81.9231 23C81.9231 22.36 82.0431 21.808 82.2831 21.344C82.5311 20.872 82.8711 20.508 83.3031 20.252C83.7351 19.988 84.2391 19.856 84.8151 19.856C85.3671 19.856 85.8351 19.976 86.2191 20.216C86.6031 20.448 86.8951 20.78 87.0951 21.212C87.2951 21.644 87.3951 22.156 87.3951 22.748V23.108H82.7751V22.46H86.6511L86.4471 22.616C86.4471 21.992 86.3071 21.508 86.0271 21.164C85.7551 20.82 85.3511 20.648 84.8151 20.648C84.2311 20.648 83.7791 20.852 83.4591 21.26C83.1391 21.66 82.9791 22.208 82.9791 22.904V23.012C82.9791 23.748 83.1591 24.304 83.5191 24.68C83.8871 25.056 84.3951 25.244 85.0431 25.244C85.4031 25.244 85.7391 25.192 86.0511 25.088C86.3631 24.984 86.6631 24.812 86.9511 24.572L87.3111 25.328C87.0391 25.576 86.6991 25.768 86.2911 25.904C85.8911 26.04 85.4711 26.108 85.0311 26.108ZM91.0664 26.108C90.4344 26.108 89.9544 25.936 89.6264 25.592C89.3064 25.24 89.1464 24.712 89.1464 24.008V20.804H87.9704V19.964H89.1464V18.344L90.2384 18.044V19.964H91.9424V20.804H90.2384V23.912C90.2384 24.376 90.3184 24.708 90.4784 24.908C90.6464 25.1 90.8864 25.196 91.1984 25.196C91.3584 25.196 91.4944 25.184 91.6064 25.16C91.7264 25.128 91.8344 25.092 91.9304 25.052V25.952C91.8104 26 91.6704 26.036 91.5104 26.06C91.3584 26.092 91.2104 26.108 91.0664 26.108ZM95.6212 26.108C95.0212 26.108 94.5012 25.984 94.0612 25.736C93.6212 25.48 93.2772 25.116 93.0292 24.644C92.7892 24.164 92.6692 23.596 92.6692 22.94C92.6692 22.292 92.7932 21.74 93.0412 21.284C93.2892 20.82 93.6332 20.468 94.0732 20.228C94.5132 19.98 95.0292 19.856 95.6212 19.856C96.0132 19.856 96.3932 19.924 96.7612 20.06C97.1292 20.188 97.4292 20.376 97.6612 20.624L97.2892 21.392C97.0572 21.168 96.8012 21.004 96.5212 20.9C96.2412 20.788 95.9652 20.732 95.6932 20.732C95.1012 20.732 94.6372 20.924 94.3012 21.308C93.9652 21.684 93.7972 22.232 93.7972 22.952C93.7972 23.68 93.9652 24.24 94.3012 24.632C94.6372 25.024 95.1012 25.22 95.6932 25.22C95.9572 25.22 96.2292 25.168 96.5092 25.064C96.7892 24.96 97.0492 24.796 97.2892 24.572L97.6612 25.328C97.4212 25.584 97.1132 25.78 96.7372 25.916C96.3692 26.044 95.9972 26.108 95.6212 26.108ZM98.994 26V17.168H100.086V21.272H99.93C100.106 20.808 100.39 20.456 100.782 20.216C101.174 19.976 101.626 19.856 102.138 19.856C102.866 19.856 103.402 20.052 103.746 20.444C104.098 20.836 104.274 21.428 104.274 22.22V26H103.182V22.28C103.182 21.744 103.078 21.356 102.87 21.116C102.662 20.868 102.322 20.744 101.85 20.744C101.322 20.744 100.894 20.908 100.566 21.236C100.246 21.564 100.086 22 100.086 22.544V26H98.994Z" fill="black"/>
<path d="M159.134 16.9389C159.329 17.0945 159.501 17.2811 159.677 17.4563C159.713 17.4911 159.748 17.5258 159.783 17.5605C159.877 17.6544 159.972 17.7484 160.067 17.8423C160.126 17.9011 160.185 17.9598 160.244 18.0185C160.409 18.1814 160.573 18.3443 160.737 18.5072C160.747 18.5176 160.758 18.528 160.769 18.5387C160.779 18.5491 160.79 18.5596 160.8 18.5703C160.822 18.5914 160.843 18.6125 160.864 18.6336C160.875 18.6441 160.885 18.6545 160.896 18.6653C161.067 18.8353 161.238 19.0051 161.41 19.1748C161.586 19.3494 161.762 19.5241 161.938 19.699C162.037 19.797 162.136 19.895 162.234 19.9928C162.327 20.0848 162.42 20.1768 162.513 20.269C162.547 20.3028 162.581 20.3366 162.615 20.3702C162.661 20.4162 162.708 20.4624 162.754 20.5086C162.768 20.5219 162.781 20.5352 162.795 20.5489C162.933 20.687 162.997 20.8061 163 21.0022C162.995 21.3694 162.66 21.5943 162.416 21.8376C162.381 21.8724 162.346 21.9072 162.311 21.942C162.216 22.0362 162.122 22.1303 162.027 22.2243C161.968 22.2831 161.909 22.3419 161.85 22.4007C161.686 22.5638 161.522 22.7269 161.358 22.8899C161.347 22.9003 161.337 22.9107 161.326 22.9214C161.316 22.9319 161.305 22.9423 161.294 22.953C161.273 22.9741 161.252 22.9952 161.231 23.0164C161.22 23.0268 161.21 23.0373 161.199 23.0481C161.028 23.2181 160.857 23.3882 160.686 23.5584C160.51 23.7335 160.334 23.9085 160.158 24.0833C160.06 24.1813 159.961 24.2794 159.862 24.3777C159.77 24.4699 159.677 24.562 159.584 24.654C159.55 24.6878 159.516 24.7216 159.483 24.7555C159.436 24.8018 159.39 24.8478 159.343 24.8939C159.33 24.9073 159.316 24.9207 159.303 24.9346C159.164 25.0713 159.044 25.1356 158.846 25.1382C158.613 25.1346 158.508 25.0503 158.346 24.8921C158.315 24.8623 158.284 24.8334 158.252 24.8046C158.088 24.6529 157.961 24.5006 157.952 24.2676C157.967 23.9776 158.183 23.8084 158.378 23.6153C158.398 23.5956 158.418 23.5759 158.438 23.5562C158.491 23.5032 158.544 23.4503 158.598 23.3974C158.654 23.3419 158.71 23.2864 158.766 23.2309C158.871 23.1259 158.977 23.021 159.083 22.9162C159.203 22.7967 159.324 22.6772 159.444 22.5576C159.692 22.3119 159.939 22.0663 160.187 21.8207C160.166 21.8207 160.166 21.8207 160.145 21.8206C159.315 21.8191 158.485 21.8173 157.656 21.8153C157.556 21.815 157.456 21.8148 157.357 21.8145C157.327 21.8145 157.327 21.8145 157.297 21.8144C156.975 21.8136 156.654 21.813 156.333 21.8124C156.004 21.8118 155.674 21.8111 155.345 21.8102C155.141 21.8096 154.938 21.8092 154.735 21.8089C154.595 21.8087 154.456 21.8084 154.316 21.8079C154.236 21.8077 154.155 21.8075 154.075 21.8074C154.001 21.8074 153.928 21.8072 153.854 21.8069C153.815 21.8067 153.776 21.8068 153.736 21.8068C153.522 21.8055 153.332 21.7945 153.167 21.6463C153.052 21.5075 153.005 21.3849 153.004 21.2072C153.003 21.191 153.003 21.1749 153.003 21.1582C153.003 21.124 153.003 21.0899 153.002 21.0557C153.002 21.0039 153.001 20.9522 153 20.9005C152.998 20.7012 153.003 20.5381 153.147 20.3849C153.338 20.2029 153.555 20.2099 153.805 20.2097C153.833 20.2097 153.86 20.2096 153.888 20.2095C153.963 20.2092 154.038 20.209 154.114 20.2089C154.195 20.2088 154.276 20.2085 154.357 20.2082C154.498 20.2078 154.639 20.2075 154.78 20.2072C154.983 20.2067 155.187 20.2062 155.39 20.2056C155.72 20.2047 156.05 20.2039 156.38 20.2031C156.701 20.2023 157.022 20.2015 157.342 20.2006C157.372 20.2006 157.372 20.2006 157.402 20.2005C157.501 20.2002 157.601 20.2 157.7 20.1997C158.522 20.1975 159.345 20.1954 160.168 20.1934C160.157 20.183 160.146 20.1726 160.136 20.1619C159.878 19.9083 159.622 19.6544 159.365 19.4003C159.241 19.2774 159.117 19.1546 158.992 19.0319C158.884 18.925 158.776 18.8179 158.668 18.7107C158.61 18.6539 158.553 18.5973 158.496 18.5408C158.441 18.4875 158.387 18.434 158.334 18.3804C158.314 18.3609 158.294 18.3414 158.274 18.322C158.103 18.1544 157.965 17.9983 157.955 17.7526C157.954 17.7326 157.953 17.7126 157.952 17.692C157.986 17.4775 158.12 17.3279 158.274 17.1823C158.29 17.1657 158.307 17.149 158.324 17.1319C158.54 16.9218 158.837 16.7607 159.134 16.9389Z" fill="#063F5C"/>
<path d="M16.512 46.064C15.6213 46.064 14.912 45.824 14.384 45.344L14.632 44.84C14.9147 45.08 15.2027 45.2507 15.496 45.352C15.7893 45.4533 16.1307 45.504 16.52 45.504C16.9787 45.504 17.3307 45.416 17.576 45.24C17.8267 45.0587 17.952 44.8053 17.952 44.48C17.952 44.288 17.8907 44.1333 17.768 44.016C17.6507 43.8933 17.4933 43.7973 17.296 43.728C17.104 43.6587 16.8453 43.5867 16.52 43.512C16.0827 43.416 15.7227 43.312 15.44 43.2C15.1573 43.088 14.928 42.928 14.752 42.72C14.576 42.5067 14.488 42.2293 14.488 41.888C14.488 41.5627 14.5733 41.2773 14.744 41.032C14.9147 40.7813 15.1547 40.5867 15.464 40.448C15.7787 40.3093 16.144 40.24 16.56 40.24C16.9547 40.24 17.3227 40.3013 17.664 40.424C18.0053 40.5467 18.2933 40.7253 18.528 40.96L18.272 41.464C18.0053 41.2347 17.7333 41.0667 17.456 40.96C17.184 40.8533 16.8853 40.8 16.56 40.8C16.1173 40.8 15.7707 40.896 15.52 41.088C15.2693 41.2747 15.144 41.5333 15.144 41.864C15.144 42.152 15.2533 42.368 15.472 42.512C15.6907 42.656 16.0267 42.7813 16.48 42.888C16.9707 43.0053 17.3547 43.1147 17.632 43.216C17.9147 43.312 18.1493 43.4613 18.336 43.664C18.5227 43.8613 18.616 44.1253 18.616 44.456C18.616 44.776 18.5307 45.0587 18.36 45.304C18.1893 45.544 17.944 45.7307 17.624 45.864C17.3093 45.9973 16.9387 46.064 16.512 46.064ZM22.9764 43.968H20.0244C20.0297 44.48 20.147 44.8667 20.3764 45.128C20.611 45.3893 20.9497 45.52 21.3924 45.52C21.8617 45.52 22.2937 45.3627 22.6884 45.048L22.9044 45.52C22.7284 45.6853 22.5017 45.816 22.2244 45.912C21.9524 46.008 21.6724 46.056 21.3844 46.056C20.755 46.056 20.2617 45.872 19.9044 45.504C19.547 45.1307 19.3684 44.6213 19.3684 43.976C19.3684 43.5653 19.4484 43.2027 19.6084 42.888C19.7684 42.568 19.9924 42.32 20.2804 42.144C20.5684 41.968 20.8964 41.88 21.2644 41.88C21.7977 41.88 22.2164 42.056 22.5204 42.408C22.8244 42.7547 22.9764 43.2347 22.9764 43.848V43.968ZM21.2724 42.384C20.9364 42.384 20.6617 42.4853 20.4484 42.688C20.2404 42.8907 20.107 43.176 20.0484 43.544H22.3924C22.3604 43.1653 22.2484 42.8773 22.0564 42.68C21.8697 42.4827 21.6084 42.384 21.2724 42.384ZM24.8005 42.488V44.688C24.8005 44.9867 24.8618 45.1973 24.9845 45.32C25.1072 45.4373 25.2805 45.496 25.5045 45.496C25.6538 45.496 25.7978 45.472 25.9365 45.424V45.976C25.7712 46.0293 25.5845 46.056 25.3765 46.056C24.9925 46.056 24.6912 45.9493 24.4725 45.736C24.2592 45.5173 24.1525 45.1973 24.1525 44.776V42.488H23.3685V41.976H24.1525V40.944L24.8005 40.712V41.976H25.9525V42.488H24.8005Z" fill="black"/>
<path d="M115.704 40.304H119.224V40.856H116.352V42.832H119.064V43.384H116.352V46H115.704V40.304ZM121.718 46.056C121.339 46.056 121.006 45.9707 120.718 45.8C120.43 45.6293 120.206 45.3867 120.046 45.072C119.891 44.7573 119.814 44.3893 119.814 43.968C119.814 43.5467 119.891 43.1787 120.046 42.864C120.206 42.5493 120.43 42.3067 120.718 42.136C121.006 41.9653 121.339 41.88 121.718 41.88C122.096 41.88 122.43 41.9653 122.718 42.136C123.006 42.3067 123.227 42.5493 123.382 42.864C123.542 43.1787 123.622 43.5467 123.622 43.968C123.622 44.3893 123.542 44.7573 123.382 45.072C123.227 45.3867 123.006 45.6293 122.718 45.8C122.43 45.9707 122.096 46.056 121.718 46.056ZM121.718 45.52C122.118 45.52 122.424 45.3893 122.638 45.128C122.851 44.8613 122.958 44.4747 122.958 43.968C122.958 43.4773 122.848 43.0987 122.63 42.832C122.411 42.56 122.107 42.424 121.718 42.424C121.323 42.424 121.016 42.56 120.798 42.832C120.579 43.0987 120.47 43.4773 120.47 43.968C120.47 44.4747 120.576 44.8613 120.79 45.128C121.008 45.3893 121.318 45.52 121.718 45.52ZM126.504 41.88C126.637 41.88 126.76 41.896 126.872 41.928L126.856 42.52C126.733 42.4773 126.592 42.456 126.432 42.456C126.042 42.456 125.752 42.5787 125.56 42.824C125.373 43.064 125.28 43.3573 125.28 43.704V46H124.632V43.104C124.632 42.688 124.61 42.312 124.568 41.976H125.184L125.248 42.72C125.349 42.448 125.512 42.24 125.736 42.096C125.96 41.952 126.216 41.88 126.504 41.88ZM131.994 41.88C132.885 41.88 133.33 42.4107 133.33 43.472V46H132.682V43.504C132.682 43.1253 132.616 42.8507 132.482 42.68C132.354 42.5093 132.144 42.424 131.85 42.424C131.509 42.424 131.242 42.5387 131.05 42.768C130.858 42.9973 130.762 43.3093 130.762 43.704V46H130.114V43.504C130.114 43.1307 130.048 42.8587 129.914 42.688C129.781 42.512 129.568 42.424 129.274 42.424C128.933 42.424 128.664 42.5387 128.466 42.768C128.274 42.9973 128.178 43.3093 128.178 43.704V46H127.53V43.104C127.53 42.688 127.509 42.312 127.466 41.976H128.082L128.146 42.68C128.258 42.424 128.424 42.2267 128.642 42.088C128.866 41.9493 129.125 41.88 129.418 41.88C129.738 41.88 130 41.944 130.202 42.072C130.405 42.2 130.554 42.3973 130.65 42.664C130.773 42.424 130.952 42.2347 131.186 42.096C131.426 41.952 131.696 41.88 131.994 41.88ZM138.007 46.056C137.33 46.056 136.794 45.8827 136.399 45.536L136.615 45.056C136.834 45.2267 137.055 45.3493 137.279 45.424C137.503 45.4987 137.754 45.536 138.031 45.536C138.335 45.536 138.565 45.4853 138.719 45.384C138.879 45.2773 138.959 45.1253 138.959 44.928C138.959 44.768 138.906 44.64 138.799 44.544C138.693 44.448 138.517 44.3733 138.271 44.32L137.591 44.16C137.255 44.0853 136.994 43.952 136.807 43.76C136.626 43.568 136.535 43.3387 136.535 43.072C136.535 42.72 136.677 42.4347 136.959 42.216C137.242 41.992 137.615 41.88 138.079 41.88C138.362 41.88 138.629 41.9253 138.879 42.016C139.13 42.1067 139.341 42.2373 139.511 42.408L139.295 42.88C138.917 42.5653 138.511 42.408 138.079 42.408C137.791 42.408 137.567 42.464 137.407 42.576C137.253 42.6827 137.175 42.8347 137.175 43.032C137.175 43.1973 137.223 43.328 137.319 43.424C137.421 43.52 137.581 43.5947 137.799 43.648L138.479 43.816C138.853 43.9013 139.13 44.0347 139.311 44.216C139.493 44.392 139.583 44.624 139.583 44.912C139.583 45.2587 139.442 45.536 139.159 45.744C138.877 45.952 138.493 46.056 138.007 46.056ZM142.304 46.056C141.915 46.056 141.574 45.9707 141.28 45.8C140.992 45.6293 140.768 45.3893 140.608 45.08C140.454 44.7653 140.376 44.4 140.376 43.984C140.376 43.568 140.456 43.2027 140.616 42.888C140.776 42.568 141.003 42.32 141.296 42.144C141.595 41.968 141.942 41.88 142.336 41.88C142.608 41.88 142.87 41.928 143.12 42.024C143.376 42.1147 143.587 42.2427 143.752 42.408L143.536 42.888C143.334 42.728 143.136 42.6107 142.944 42.536C142.758 42.4613 142.566 42.424 142.368 42.424C141.958 42.424 141.635 42.5627 141.4 42.84C141.166 43.112 141.048 43.4933 141.048 43.984C141.048 44.4693 141.163 44.848 141.392 45.12C141.627 45.3867 141.952 45.52 142.368 45.52C142.566 45.52 142.758 45.4827 142.944 45.408C143.136 45.3333 143.334 45.216 143.536 45.056L143.752 45.536C143.582 45.696 143.366 45.824 143.104 45.92C142.848 46.0107 142.582 46.056 142.304 46.056ZM146.241 46.056C145.862 46.056 145.529 45.9707 145.241 45.8C144.953 45.6293 144.729 45.3867 144.569 45.072C144.414 44.7573 144.337 44.3893 144.337 43.968C144.337 43.5467 144.414 43.1787 144.569 42.864C144.729 42.5493 144.953 42.3067 145.241 42.136C145.529 41.9653 145.862 41.88 146.241 41.88C146.62 41.88 146.953 41.9653 147.241 42.136C147.529 42.3067 147.75 42.5493 147.905 42.864C148.065 43.1787 148.145 43.5467 148.145 43.968C148.145 44.3893 148.065 44.7573 147.905 45.072C147.75 45.3867 147.529 45.6293 147.241 45.8C146.953 45.9707 146.62 46.056 146.241 46.056ZM146.241 45.52C146.641 45.52 146.948 45.3893 147.161 45.128C147.374 44.8613 147.481 44.4747 147.481 43.968C147.481 43.4773 147.372 43.0987 147.153 42.832C146.934 42.56 146.63 42.424 146.241 42.424C145.846 42.424 145.54 42.56 145.321 42.832C145.102 43.0987 144.993 43.4773 144.993 43.968C144.993 44.4747 145.1 44.8613 145.313 45.128C145.532 45.3893 145.841 45.52 146.241 45.52ZM151.027 41.88C151.161 41.88 151.283 41.896 151.395 41.928L151.379 42.52C151.257 42.4773 151.115 42.456 150.955 42.456C150.566 42.456 150.275 42.5787 150.083 42.824C149.897 43.064 149.803 43.3573 149.803 43.704V46H149.155V43.104C149.155 42.688 149.134 42.312 149.091 41.976H149.707L149.771 42.72C149.873 42.448 150.035 42.24 150.259 42.096C150.483 41.952 150.739 41.88 151.027 41.88ZM155.344 43.968H152.392C152.397 44.48 152.514 44.8667 152.744 45.128C152.978 45.3893 153.317 45.52 153.76 45.52C154.229 45.52 154.661 45.3627 155.056 45.048L155.272 45.52C155.096 45.6853 154.869 45.816 154.592 45.912C154.32 46.008 154.04 46.056 153.752 46.056C153.122 46.056 152.629 45.872 152.272 45.504C151.914 45.1307 151.736 44.6213 151.736 43.976C151.736 43.5653 151.816 43.2027 151.976 42.888C152.136 42.568 152.36 42.32 152.648 42.144C152.936 41.968 153.264 41.88 153.632 41.88C154.165 41.88 154.584 42.056 154.888 42.408C155.192 42.7547 155.344 43.2347 155.344 43.848V43.968ZM153.64 42.384C153.304 42.384 153.029 42.4853 152.816 42.688C152.608 42.8907 152.474 43.176 152.416 43.544H154.76C154.728 43.1653 154.616 42.8773 154.424 42.68C154.237 42.4827 153.976 42.384 153.64 42.384Z" fill="black"/>
<path d="M24.8 89.324C21.752 89.324 19.424 88.208 17.816 85.976C16.232 83.72 15.44 80.444 15.44 76.148C15.44 71.924 16.232 68.696 17.816 66.464C19.424 64.232 21.752 63.116 24.8 63.116C27.848 63.116 30.164 64.232 31.748 66.464C33.356 68.672 34.16 71.9 34.16 76.148C34.16 80.42 33.356 83.684 31.748 85.94C30.164 88.196 27.848 89.324 24.8 89.324ZM24.8 85.688C26.456 85.688 27.656 84.932 28.4 83.42C29.168 81.884 29.552 79.46 29.552 76.148C29.552 72.884 29.168 70.508 28.4 69.02C27.656 67.508 26.456 66.752 24.8 66.752C23.144 66.752 21.932 67.508 21.164 69.02C20.42 70.508 20.048 72.884 20.048 76.148C20.048 79.46 20.42 81.884 21.164 83.42C21.932 84.932 23.144 85.688 24.8 85.688ZM34.6859 91.124L44.0099 61.892H47.8619L38.4659 91.124H34.6859ZM66.7054 85.22V89H49.4974V85.58L58.2094 76.184C59.2414 75.056 59.9974 74.024 60.4774 73.088C60.9574 72.152 61.1974 71.228 61.1974 70.316C61.1974 69.14 60.8494 68.252 60.1534 67.652C59.4814 67.052 58.5094 66.752 57.2374 66.752C54.9814 66.752 52.6654 67.64 50.2894 69.416L48.7414 66.032C49.7494 65.12 51.0454 64.4 52.6294 63.872C54.2134 63.32 55.8094 63.044 57.4174 63.044C59.9854 63.044 62.0134 63.68 63.5014 64.952C65.0134 66.2 65.7694 67.892 65.7694 70.028C65.7694 71.492 65.4454 72.872 64.7974 74.168C64.1734 75.464 63.1174 76.916 61.6294 78.524L55.3294 85.22H66.7054Z" fill="black"/>
<path d="M125.727 79.09C124.88 79.09 124.233 78.78 123.787 78.16C123.347 77.5333 123.127 76.6233 123.127 75.43C123.127 74.2567 123.347 73.36 123.787 72.74C124.233 72.12 124.88 71.81 125.727 71.81C126.573 71.81 127.217 72.12 127.657 72.74C128.103 73.3533 128.327 74.25 128.327 75.43C128.327 76.6167 128.103 77.5233 127.657 78.15C127.217 78.7767 126.573 79.09 125.727 79.09ZM125.727 78.08C126.187 78.08 126.52 77.87 126.727 77.45C126.94 77.0233 127.047 76.35 127.047 75.43C127.047 74.5233 126.94 73.8633 126.727 73.45C126.52 73.03 126.187 72.82 125.727 72.82C125.267 72.82 124.93 73.03 124.717 73.45C124.51 73.8633 124.407 74.5233 124.407 75.43C124.407 76.35 124.51 77.0233 124.717 77.45C124.93 77.87 125.267 78.08 125.727 78.08ZM130.953 76.13C130.393 76.13 129.953 75.9467 129.633 75.58C129.319 75.2067 129.163 74.6633 129.163 73.95C129.163 73.2433 129.319 72.7067 129.633 72.34C129.953 71.9667 130.393 71.78 130.953 71.78C131.519 71.78 131.963 71.9667 132.283 72.34C132.603 72.7067 132.763 73.2433 132.763 73.95C132.763 74.6633 132.603 75.2067 132.283 75.58C131.963 75.9467 131.519 76.13 130.953 76.13ZM130.883 79L135.003 71.88H136.113L131.983 79H130.883ZM130.953 75.32C131.213 75.32 131.403 75.2133 131.523 75C131.643 74.7867 131.703 74.4367 131.703 73.95C131.703 73.4767 131.639 73.1333 131.513 72.92C131.393 72.7 131.206 72.59 130.953 72.59C130.706 72.59 130.523 72.7 130.403 72.92C130.283 73.1333 130.223 73.4767 130.223 73.95C130.223 74.43 130.283 74.78 130.403 75C130.523 75.2133 130.706 75.32 130.953 75.32ZM136.033 79.07C135.466 79.07 135.023 78.8867 134.703 78.52C134.389 78.1467 134.233 77.6 134.233 76.88C134.233 76.1733 134.389 75.6367 134.703 75.27C135.023 74.9033 135.466 74.72 136.033 74.72C136.599 74.72 137.039 74.9033 137.353 75.27C137.673 75.6367 137.833 76.1767 137.833 76.89C137.833 77.6033 137.673 78.1467 137.353 78.52C137.039 78.8867 136.599 79.07 136.033 79.07ZM136.033 78.26C136.286 78.26 136.473 78.1533 136.593 77.94C136.713 77.72 136.773 77.37 136.773 76.89C136.773 76.4167 136.709 76.0733 136.583 75.86C136.463 75.64 136.279 75.53 136.033 75.53C135.779 75.53 135.593 75.64 135.473 75.86C135.353 76.0733 135.293 76.4167 135.293 76.89C135.293 77.37 135.353 77.72 135.473 77.94C135.593 78.1533 135.779 78.26 136.033 78.26Z" fill="black"/>
<circle cx="130.5" cy="75.5" r="22.5" stroke="#063F5C" stroke-width="10"/>
<mask id="path-9-inside-1_4540_2382" fill="white">
<path d="M115.916 98.8144C122.028 102.637 129.396 103.908 136.435 102.352C143.473 100.796 149.62 96.539 153.551 90.4966C157.482 84.4541 158.884 77.1097 157.453 70.0443C156.023 62.9789 151.876 56.7576 145.905 52.7196C139.933 48.6815 132.615 47.1496 125.525 48.4537C118.435 49.7578 112.141 53.7936 107.997 59.6923C103.854 65.5909 102.192 72.8808 103.369 79.9926C104.547 87.1044 108.47 93.4695 114.294 97.7176L120.131 89.7151C116.405 86.9971 113.895 82.9247 113.141 78.3745C112.388 73.8242 113.451 69.16 116.103 65.386C118.754 61.6119 122.781 59.0298 127.317 58.1954C131.853 57.361 136.535 58.3411 140.356 60.9247C144.177 63.5083 146.83 67.4888 147.745 72.0094C148.66 76.5299 147.764 81.229 145.248 85.095C142.733 88.9611 138.801 91.685 134.297 92.6803C129.794 93.6756 125.079 92.8629 121.169 90.4169L115.916 98.8144Z"/>
</mask>
<path d="M115.916 98.8144C122.028 102.637 129.396 103.908 136.435 102.352C143.473 100.796 149.62 96.539 153.551 90.4966C157.482 84.4541 158.884 77.1097 157.453 70.0443C156.023 62.9789 151.876 56.7576 145.905 52.7196C139.933 48.6815 132.615 47.1496 125.525 48.4537C118.435 49.7578 112.141 53.7936 107.997 59.6923C103.854 65.5909 102.192 72.8808 103.369 79.9926C104.547 87.1044 108.47 93.4695 114.294 97.7176L120.131 89.7151C116.405 86.9971 113.895 82.9247 113.141 78.3745C112.388 73.8242 113.451 69.16 116.103 65.386C118.754 61.6119 122.781 59.0298 127.317 58.1954C131.853 57.361 136.535 58.3411 140.356 60.9247C144.177 63.5083 146.83 67.4888 147.745 72.0094C148.66 76.5299 147.764 81.229 145.248 85.095C142.733 88.9611 138.801 91.685 134.297 92.6803C129.794 93.6756 125.079 92.8629 121.169 90.4169L115.916 98.8144Z" fill="#78A7BE" stroke="#78A7BE" stroke-width="20" mask="url(#path-9-inside-1_4540_2382)"/>
<rect x="14" y="103" width="67" height="12" rx="6" fill="#78A7BE"/>
<rect x="14" y="103" width="37" height="12" rx="6" fill="#063F5C"/>
</svg>
