<svg width="438" height="265" viewBox="0 0 438 265" fill="none" xmlns="http://www.w3.org/2000/svg">
<rect x="0.5" y="0.5" width="437" height="264" rx="4.5" stroke="#8A38F5" stroke-dasharray="10 5"/>
<path d="M23.024 142.88V154H21.2V142.88H23.024ZM29.8668 145.04C30.5601 145.04 31.1788 145.184 31.7228 145.472C32.2774 145.76 32.7094 146.187 33.0188 146.752C33.3281 147.317 33.4828 148 33.4828 148.8V154H31.6748V149.072C31.6748 148.283 31.4774 147.68 31.0828 147.264C30.6881 146.837 30.1494 146.624 29.4668 146.624C28.7841 146.624 28.2401 146.837 27.8348 147.264C27.4401 147.68 27.2428 148.283 27.2428 149.072V154H25.4188V145.184H27.2428V146.192C27.5414 145.829 27.9201 145.547 28.3788 145.344C28.8481 145.141 29.3441 145.04 29.8668 145.04ZM37.6334 146.48C37.9427 146.075 38.364 145.733 38.8974 145.456C39.4307 145.179 40.0334 145.04 40.7054 145.04C41.4734 145.04 42.172 145.232 42.8014 145.616C43.4414 145.989 43.9427 146.517 44.3054 147.2C44.668 147.883 44.8494 148.667 44.8494 149.552C44.8494 150.437 44.668 151.232 44.3054 151.936C43.9427 152.629 43.4414 153.173 42.8014 153.568C42.172 153.952 41.4734 154.144 40.7054 154.144C40.0334 154.144 39.436 154.011 38.9134 153.744C38.3907 153.467 37.964 153.125 37.6334 152.72V158.192H35.8094V145.184H37.6334V146.48ZM42.9934 149.552C42.9934 148.944 42.8654 148.421 42.6094 147.984C42.364 147.536 42.0334 147.2 41.6174 146.976C41.212 146.741 40.7747 146.624 40.3054 146.624C39.8467 146.624 39.4094 146.741 38.9934 146.976C38.588 147.211 38.2574 147.552 38.0014 148C37.756 148.448 37.6334 148.976 37.6334 149.584C37.6334 150.192 37.756 150.725 38.0014 151.184C38.2574 151.632 38.588 151.973 38.9934 152.208C39.4094 152.443 39.8467 152.56 40.3054 152.56C40.7747 152.56 41.212 152.443 41.6174 152.208C42.0334 151.963 42.364 151.611 42.6094 151.152C42.8654 150.693 42.9934 150.16 42.9934 149.552ZM54.6371 145.184V154H52.8131V152.96C52.5251 153.323 52.1465 153.611 51.6771 153.824C51.2185 154.027 50.7278 154.128 50.2051 154.128C49.5118 154.128 48.8878 153.984 48.3331 153.696C47.7891 153.408 47.3571 152.981 47.0371 152.416C46.7278 151.851 46.5731 151.168 46.5731 150.368V145.184H48.3811V150.096C48.3811 150.885 48.5785 151.493 48.9731 151.92C49.3678 152.336 49.9065 152.544 50.5891 152.544C51.2718 152.544 51.8105 152.336 52.2051 151.92C52.6105 151.493 52.8131 150.885 52.8131 150.096V145.184H54.6371ZM59.1718 146.672V151.552C59.1718 151.883 59.2464 152.123 59.3958 152.272C59.5558 152.411 59.8224 152.48 60.1958 152.48H61.3158V154H59.8758C59.0544 154 58.4251 153.808 57.9878 153.424C57.5504 153.04 57.3318 152.416 57.3318 151.552V146.672H56.2918V145.184H57.3318V142.992H59.1718V145.184H61.3158V146.672H59.1718ZM68.9771 142.16V154H67.1531V142.16H68.9771ZM70.7639 149.552C70.7639 148.667 70.9452 147.883 71.3079 147.2C71.6812 146.517 72.1825 145.989 72.8119 145.616C73.4519 145.232 74.1559 145.04 74.9239 145.04C75.6172 145.04 76.2199 145.179 76.7319 145.456C77.2545 145.723 77.6705 146.059 77.9799 146.464V145.184H79.8199V154H77.9799V152.688C77.6705 153.104 77.2492 153.451 76.7159 153.728C76.1825 154.005 75.5745 154.144 74.8919 154.144C74.1345 154.144 73.4412 153.952 72.8119 153.568C72.1825 153.173 71.6812 152.629 71.3079 151.936C70.9452 151.232 70.7639 150.437 70.7639 149.552ZM77.9799 149.584C77.9799 148.976 77.8519 148.448 77.5959 148C77.3505 147.552 77.0252 147.211 76.6199 146.976C76.2145 146.741 75.7772 146.624 75.3079 146.624C74.8385 146.624 74.4012 146.741 73.9959 146.976C73.5905 147.2 73.2599 147.536 73.0039 147.984C72.7585 148.421 72.6359 148.944 72.6359 149.552C72.6359 150.16 72.7585 150.693 73.0039 151.152C73.2599 151.611 73.5905 151.963 73.9959 152.208C74.4119 152.443 74.8492 152.56 75.3079 152.56C75.7772 152.56 76.2145 152.443 76.6199 152.208C77.0252 151.973 77.3505 151.632 77.5959 151.184C77.8519 150.725 77.9799 150.192 77.9799 149.584ZM84.0396 146.496C84.349 146.069 84.7703 145.723 85.3036 145.456C85.8476 145.179 86.4503 145.04 87.1116 145.04C87.8903 145.04 88.5943 145.227 89.2236 145.6C89.853 145.973 90.349 146.507 90.7116 147.2C91.0743 147.883 91.2556 148.667 91.2556 149.552C91.2556 150.437 91.0743 151.232 90.7116 151.936C90.349 152.629 89.8476 153.173 89.2076 153.568C88.5783 153.952 87.8796 154.144 87.1116 154.144C86.429 154.144 85.821 154.011 85.2876 153.744C84.765 153.477 84.349 153.136 84.0396 152.72V154H82.2156V142.16H84.0396V146.496ZM89.3996 149.552C89.3996 148.944 89.2716 148.421 89.0156 147.984C88.7703 147.536 88.4396 147.2 88.0236 146.976C87.6183 146.741 87.181 146.624 86.7116 146.624C86.253 146.624 85.8156 146.741 85.3996 146.976C84.9943 147.211 84.6636 147.552 84.4076 148C84.1623 148.448 84.0396 148.976 84.0396 149.584C84.0396 150.192 84.1623 150.725 84.4076 151.184C84.6636 151.632 84.9943 151.973 85.3996 152.208C85.8156 152.443 86.253 152.56 86.7116 152.56C87.181 152.56 87.6183 152.443 88.0236 152.208C88.4396 151.963 88.7703 151.611 89.0156 151.152C89.2716 150.693 89.3996 150.16 89.3996 149.552ZM101.139 149.376C101.139 149.707 101.118 150.005 101.075 150.272H94.3394C94.3927 150.976 94.654 151.541 95.1234 151.968C95.5927 152.395 96.1687 152.608 96.8514 152.608C97.8327 152.608 98.526 152.197 98.9314 151.376H100.899C100.633 152.187 100.147 152.853 99.4434 153.376C98.75 153.888 97.886 154.144 96.8514 154.144C96.0087 154.144 95.2514 153.957 94.5794 153.584C93.918 153.2 93.3954 152.667 93.0114 151.984C92.638 151.291 92.4514 150.491 92.4514 149.584C92.4514 148.677 92.6327 147.883 92.9954 147.2C93.3687 146.507 93.886 145.973 94.5474 145.6C95.2194 145.227 95.9874 145.04 96.8514 145.04C97.6834 145.04 98.4247 145.221 99.0754 145.584C99.726 145.947 100.233 146.459 100.595 147.12C100.958 147.771 101.139 148.523 101.139 149.376ZM99.2354 148.8C99.2247 148.128 98.9847 147.589 98.5154 147.184C98.046 146.779 97.4647 146.576 96.7714 146.576C96.142 146.576 95.6034 146.779 95.1554 147.184C94.7074 147.579 94.4407 148.117 94.3554 148.8H99.2354ZM104.758 142.16V154H102.934V142.16H104.758Z" fill="#212429"/>
<path d="M295.248 239.352V242.616H299.088V244.104H295.248V247.512H299.568V249H293.424V237.864H299.568V239.352H295.248ZM303.639 241.464C303.906 241.016 304.258 240.669 304.695 240.424C305.143 240.168 305.671 240.04 306.279 240.04V241.928H305.815C305.1 241.928 304.556 242.109 304.183 242.472C303.82 242.835 303.639 243.464 303.639 244.36V249H301.815V240.184H303.639V241.464ZM309.78 241.464C310.046 241.016 310.398 240.669 310.836 240.424C311.284 240.168 311.812 240.04 312.42 240.04V241.928H311.956C311.241 241.928 310.697 242.109 310.324 242.472C309.961 242.835 309.78 243.464 309.78 244.36V249H307.956V240.184H309.78V241.464ZM317.92 249.144C317.088 249.144 316.336 248.957 315.664 248.584C314.992 248.2 314.464 247.667 314.08 246.984C313.696 246.291 313.504 245.491 313.504 244.584C313.504 243.688 313.702 242.893 314.096 242.2C314.491 241.507 315.03 240.973 315.712 240.6C316.395 240.227 317.158 240.04 318 240.04C318.843 240.04 319.606 240.227 320.288 240.6C320.971 240.973 321.51 241.507 321.904 242.2C322.299 242.893 322.496 243.688 322.496 244.584C322.496 245.48 322.294 246.275 321.888 246.968C321.483 247.661 320.928 248.2 320.224 248.584C319.531 248.957 318.763 249.144 317.92 249.144ZM317.92 247.56C318.39 247.56 318.827 247.448 319.232 247.224C319.648 247 319.984 246.664 320.24 246.216C320.496 245.768 320.624 245.224 320.624 244.584C320.624 243.944 320.502 243.405 320.256 242.968C320.011 242.52 319.686 242.184 319.28 241.96C318.875 241.736 318.438 241.624 317.968 241.624C317.499 241.624 317.062 241.736 316.656 241.96C316.262 242.184 315.947 242.52 315.712 242.968C315.478 243.405 315.36 243.944 315.36 244.584C315.36 245.533 315.6 246.269 316.08 246.792C316.571 247.304 317.184 247.56 317.92 247.56ZM326.123 241.464C326.39 241.016 326.742 240.669 327.179 240.424C327.627 240.168 328.155 240.04 328.763 240.04V241.928H328.299C327.585 241.928 327.041 242.109 326.667 242.472C326.305 242.835 326.123 243.464 326.123 244.36V249H324.299V240.184H326.123V241.464ZM345.268 240.04C345.962 240.04 346.58 240.184 347.124 240.472C347.679 240.76 348.111 241.187 348.42 241.752C348.74 242.317 348.9 243 348.9 243.8V249H347.092V244.072C347.092 243.283 346.895 242.68 346.5 242.264C346.106 241.837 345.567 241.624 344.884 241.624C344.202 241.624 343.658 241.837 343.252 242.264C342.858 242.68 342.66 243.283 342.66 244.072V249H340.852V244.072C340.852 243.283 340.655 242.68 340.26 242.264C339.866 241.837 339.327 241.624 338.644 241.624C337.962 241.624 337.418 241.837 337.012 242.264C336.618 242.68 336.42 243.283 336.42 244.072V249H334.596V240.184H336.42V241.192C336.719 240.829 337.098 240.547 337.556 240.344C338.015 240.141 338.506 240.04 339.028 240.04C339.732 240.04 340.362 240.189 340.916 240.488C341.471 240.787 341.898 241.219 342.196 241.784C342.463 241.251 342.879 240.829 343.444 240.52C344.01 240.2 344.618 240.04 345.268 240.04ZM359.301 244.376C359.301 244.707 359.28 245.005 359.237 245.272H352.501C352.555 245.976 352.816 246.541 353.285 246.968C353.755 247.395 354.331 247.608 355.013 247.608C355.995 247.608 356.688 247.197 357.093 246.376H359.061C358.795 247.187 358.309 247.853 357.605 248.376C356.912 248.888 356.048 249.144 355.013 249.144C354.171 249.144 353.413 248.957 352.741 248.584C352.08 248.2 351.557 247.667 351.173 246.984C350.8 246.291 350.613 245.491 350.613 244.584C350.613 243.677 350.795 242.883 351.157 242.2C351.531 241.507 352.048 240.973 352.709 240.6C353.381 240.227 354.149 240.04 355.013 240.04C355.845 240.04 356.587 240.221 357.237 240.584C357.888 240.947 358.395 241.459 358.757 242.12C359.12 242.771 359.301 243.523 359.301 244.376ZM357.397 243.8C357.387 243.128 357.147 242.589 356.677 242.184C356.208 241.779 355.627 241.576 354.933 241.576C354.304 241.576 353.765 241.779 353.317 242.184C352.869 242.579 352.603 243.117 352.517 243.8H357.397ZM364.296 249.144C363.603 249.144 362.979 249.021 362.424 248.776C361.88 248.52 361.448 248.179 361.128 247.752C360.808 247.315 360.638 246.829 360.616 246.296H362.504C362.536 246.669 362.712 246.984 363.032 247.24C363.363 247.485 363.774 247.608 364.264 247.608C364.776 247.608 365.171 247.512 365.448 247.32C365.736 247.117 365.88 246.861 365.88 246.552C365.88 246.221 365.72 245.976 365.4 245.816C365.091 245.656 364.595 245.48 363.912 245.288C363.251 245.107 362.712 244.931 362.296 244.76C361.88 244.589 361.518 244.328 361.208 243.976C360.91 243.624 360.76 243.16 360.76 242.584C360.76 242.115 360.899 241.688 361.176 241.304C361.454 240.909 361.848 240.6 362.36 240.376C362.883 240.152 363.48 240.04 364.152 240.04C365.155 240.04 365.96 240.296 366.568 240.808C367.187 241.309 367.518 241.997 367.56 242.872H365.736C365.704 242.477 365.544 242.163 365.256 241.928C364.968 241.693 364.579 241.576 364.088 241.576C363.608 241.576 363.24 241.667 362.984 241.848C362.728 242.029 362.6 242.269 362.6 242.568C362.6 242.803 362.686 243 362.856 243.16C363.027 243.32 363.235 243.448 363.48 243.544C363.726 243.629 364.088 243.741 364.568 243.88C365.208 244.051 365.731 244.227 366.136 244.408C366.552 244.579 366.91 244.835 367.208 245.176C367.507 245.517 367.662 245.971 367.672 246.536C367.672 247.037 367.534 247.485 367.256 247.88C366.979 248.275 366.584 248.584 366.072 248.808C365.571 249.032 364.979 249.144 364.296 249.144ZM372.843 249.144C372.15 249.144 371.526 249.021 370.971 248.776C370.427 248.52 369.995 248.179 369.675 247.752C369.355 247.315 369.185 246.829 369.163 246.296H371.051C371.083 246.669 371.259 246.984 371.579 247.24C371.91 247.485 372.321 247.608 372.811 247.608C373.323 247.608 373.718 247.512 373.995 247.32C374.283 247.117 374.427 246.861 374.427 246.552C374.427 246.221 374.267 245.976 373.947 245.816C373.638 245.656 373.142 245.48 372.459 245.288C371.798 245.107 371.259 244.931 370.843 244.76C370.427 244.589 370.065 244.328 369.755 243.976C369.457 243.624 369.307 243.16 369.307 242.584C369.307 242.115 369.446 241.688 369.723 241.304C370.001 240.909 370.395 240.6 370.907 240.376C371.43 240.152 372.027 240.04 372.699 240.04C373.702 240.04 374.507 240.296 375.115 240.808C375.734 241.309 376.065 241.997 376.107 242.872H374.283C374.251 242.477 374.091 242.163 373.803 241.928C373.515 241.693 373.126 241.576 372.635 241.576C372.155 241.576 371.787 241.667 371.531 241.848C371.275 242.029 371.147 242.269 371.147 242.568C371.147 242.803 371.233 243 371.403 243.16C371.574 243.32 371.782 243.448 372.027 243.544C372.273 243.629 372.635 243.741 373.115 243.88C373.755 244.051 374.278 244.227 374.683 244.408C375.099 244.579 375.457 244.835 375.755 245.176C376.054 245.517 376.209 245.971 376.219 246.536C376.219 247.037 376.081 247.485 375.803 247.88C375.526 248.275 375.131 248.584 374.619 248.808C374.118 249.032 373.526 249.144 372.843 249.144ZM377.582 244.552C377.582 243.667 377.763 242.883 378.126 242.2C378.499 241.517 379.001 240.989 379.63 240.616C380.27 240.232 380.974 240.04 381.742 240.04C382.435 240.04 383.038 240.179 383.55 240.456C384.073 240.723 384.489 241.059 384.798 241.464V240.184H386.638V249H384.798V247.688C384.489 248.104 384.067 248.451 383.534 248.728C383.001 249.005 382.393 249.144 381.71 249.144C380.953 249.144 380.259 248.952 379.63 248.568C379.001 248.173 378.499 247.629 378.126 246.936C377.763 246.232 377.582 245.437 377.582 244.552ZM384.798 244.584C384.798 243.976 384.67 243.448 384.414 243C384.169 242.552 383.843 242.211 383.438 241.976C383.033 241.741 382.595 241.624 382.126 241.624C381.657 241.624 381.219 241.741 380.814 241.976C380.409 242.2 380.078 242.536 379.822 242.984C379.577 243.421 379.454 243.944 379.454 244.552C379.454 245.16 379.577 245.693 379.822 246.152C380.078 246.611 380.409 246.963 380.814 247.208C381.23 247.443 381.667 247.56 382.126 247.56C382.595 247.56 383.033 247.443 383.438 247.208C383.843 246.973 384.169 246.632 384.414 246.184C384.67 245.725 384.798 245.192 384.798 244.584ZM392.586 240.04C393.269 240.04 393.871 240.179 394.394 240.456C394.927 240.723 395.343 241.059 395.642 241.464V240.184H397.482V249.144C397.482 249.955 397.311 250.675 396.97 251.304C396.629 251.944 396.133 252.445 395.482 252.808C394.842 253.171 394.074 253.352 393.178 253.352C391.983 253.352 390.991 253.069 390.202 252.504C389.413 251.949 388.965 251.192 388.858 250.232H390.666C390.805 250.691 391.098 251.059 391.546 251.336C392.005 251.624 392.549 251.768 393.178 251.768C393.914 251.768 394.506 251.544 394.954 251.096C395.413 250.648 395.642 249.997 395.642 249.144V247.672C395.333 248.088 394.911 248.44 394.378 248.728C393.855 249.005 393.258 249.144 392.586 249.144C391.818 249.144 391.114 248.952 390.474 248.568C389.845 248.173 389.343 247.629 388.97 246.936C388.607 246.232 388.426 245.437 388.426 244.552C388.426 243.667 388.607 242.883 388.97 242.2C389.343 241.517 389.845 240.989 390.474 240.616C391.114 240.232 391.818 240.04 392.586 240.04ZM395.642 244.584C395.642 243.976 395.514 243.448 395.258 243C395.013 242.552 394.687 242.211 394.282 241.976C393.877 241.741 393.439 241.624 392.97 241.624C392.501 241.624 392.063 241.741 391.658 241.976C391.253 242.2 390.922 242.536 390.666 242.984C390.421 243.421 390.298 243.944 390.298 244.552C390.298 245.16 390.421 245.693 390.666 246.152C390.922 246.611 391.253 246.963 391.658 247.208C392.074 247.443 392.511 247.56 392.97 247.56C393.439 247.56 393.877 247.443 394.282 247.208C394.687 246.973 395.013 246.632 395.258 246.184C395.514 245.725 395.642 245.192 395.642 244.584ZM407.958 244.376C407.958 244.707 407.936 245.005 407.894 245.272H401.158C401.211 245.976 401.472 246.541 401.942 246.968C402.411 247.395 402.987 247.608 403.67 247.608C404.651 247.608 405.344 247.197 405.75 246.376H407.718C407.451 247.187 406.966 247.853 406.262 248.376C405.568 248.888 404.704 249.144 403.67 249.144C402.827 249.144 402.07 248.957 401.398 248.584C400.736 248.2 400.214 247.667 399.83 246.984C399.456 246.291 399.27 245.491 399.27 244.584C399.27 243.677 399.451 242.883 399.814 242.2C400.187 241.507 400.704 240.973 401.366 240.6C402.038 240.227 402.806 240.04 403.67 240.04C404.502 240.04 405.243 240.221 405.894 240.584C406.544 240.947 407.051 241.459 407.414 242.12C407.776 242.771 407.958 243.523 407.958 244.376ZM406.054 243.8C406.043 243.128 405.803 242.589 405.334 242.184C404.864 241.779 404.283 241.576 403.59 241.576C402.96 241.576 402.422 241.779 401.974 242.184C401.526 242.579 401.259 243.117 401.174 243.8H406.054Z" fill="#B3261E"/>
<mask id="path-4-inside-1_4867_1589" fill="white">
<path d="M20 182C20 174.268 26.268 168 34 168H404C411.732 168 418 174.268 418 182V208C418 215.732 411.732 222 404 222H34C26.268 222 20 215.732 20 208V182Z"/>
</mask>
<path d="M20 182C20 174.268 26.268 168 34 168H404C411.732 168 418 174.268 418 182V208C418 215.732 411.732 222 404 222H34C26.268 222 20 215.732 20 208V182Z" fill="#FBFBFB"/>
<path d="M20 168H418H20ZM420 208C420 216.837 412.837 224 404 224H36C27.1634 224 20 216.837 20 208C20 214.627 26.268 220 34 220H404C410.627 220 416 214.627 416 208H420ZM20 222V168V222ZM404 168C412.837 168 420 175.163 420 184V208C420 216.837 412.837 224 404 224V220C410.627 220 416 214.627 416 208V182C416 174.268 410.627 168 404 168Z" fill="#B3261E" mask="url(#path-4-inside-1_4867_1589)"/>
<path d="M47.024 189.88V201H45.2V189.88H47.024ZM53.8668 192.04C54.5601 192.04 55.1788 192.184 55.7228 192.472C56.2774 192.76 56.7094 193.187 57.0188 193.752C57.3281 194.317 57.4828 195 57.4828 195.8V201H55.6748V196.072C55.6748 195.283 55.4774 194.68 55.0828 194.264C54.6881 193.837 54.1494 193.624 53.4668 193.624C52.7841 193.624 52.2401 193.837 51.8348 194.264C51.4401 194.68 51.2428 195.283 51.2428 196.072V201H49.4188V192.184H51.2428V193.192C51.5414 192.829 51.9201 192.547 52.3788 192.344C52.8481 192.141 53.3441 192.04 53.8668 192.04ZM61.6334 193.48C61.9427 193.075 62.364 192.733 62.8974 192.456C63.4307 192.179 64.0334 192.04 64.7054 192.04C65.4734 192.04 66.172 192.232 66.8014 192.616C67.4414 192.989 67.9427 193.517 68.3054 194.2C68.668 194.883 68.8494 195.667 68.8494 196.552C68.8494 197.437 68.668 198.232 68.3054 198.936C67.9427 199.629 67.4414 200.173 66.8014 200.568C66.172 200.952 65.4734 201.144 64.7054 201.144C64.0334 201.144 63.436 201.011 62.9134 200.744C62.3907 200.467 61.964 200.125 61.6334 199.72V205.192H59.8094V192.184H61.6334V193.48ZM66.9934 196.552C66.9934 195.944 66.8654 195.421 66.6094 194.984C66.364 194.536 66.0334 194.2 65.6174 193.976C65.212 193.741 64.7747 193.624 64.3054 193.624C63.8467 193.624 63.4094 193.741 62.9934 193.976C62.588 194.211 62.2574 194.552 62.0014 195C61.756 195.448 61.6334 195.976 61.6334 196.584C61.6334 197.192 61.756 197.725 62.0014 198.184C62.2574 198.632 62.588 198.973 62.9934 199.208C63.4094 199.443 63.8467 199.56 64.3054 199.56C64.7747 199.56 65.212 199.443 65.6174 199.208C66.0334 198.963 66.364 198.611 66.6094 198.152C66.8654 197.693 66.9934 197.16 66.9934 196.552ZM78.6371 192.184V201H76.8131V199.96C76.5251 200.323 76.1465 200.611 75.6771 200.824C75.2185 201.027 74.7278 201.128 74.2051 201.128C73.5118 201.128 72.8878 200.984 72.3331 200.696C71.7891 200.408 71.3571 199.981 71.0371 199.416C70.7278 198.851 70.5731 198.168 70.5731 197.368V192.184H72.3811V197.096C72.3811 197.885 72.5785 198.493 72.9731 198.92C73.3678 199.336 73.9065 199.544 74.5891 199.544C75.2718 199.544 75.8105 199.336 76.2051 198.92C76.6105 198.493 76.8131 197.885 76.8131 197.096V192.184H78.6371ZM83.1718 193.672V198.552C83.1718 198.883 83.2464 199.123 83.3958 199.272C83.5558 199.411 83.8224 199.48 84.1958 199.48H85.3158V201H83.8758C83.0544 201 82.4251 200.808 81.9878 200.424C81.5504 200.04 81.3318 199.416 81.3318 198.552V193.672H80.2918V192.184H81.3318V189.992H83.1718V192.184H85.3158V193.672H83.1718ZM98.9291 193.192C98.9291 193.757 98.7958 194.291 98.5291 194.792C98.2625 195.293 97.8358 195.704 97.2491 196.024C96.6625 196.333 95.9105 196.488 94.9931 196.488H92.9771V201H91.1531V189.88H94.9931C95.8465 189.88 96.5665 190.029 97.1531 190.328C97.7505 190.616 98.1931 191.011 98.4811 191.512C98.7798 192.013 98.9291 192.573 98.9291 193.192ZM94.9931 195C95.6865 195 96.2038 194.845 96.5451 194.536C96.8865 194.216 97.0571 193.768 97.0571 193.192C97.0571 191.976 96.3691 191.368 94.9931 191.368H92.9771V195H94.9931ZM102.493 189.16V201H100.669V189.16H102.493ZM104.28 196.552C104.28 195.667 104.461 194.883 104.824 194.2C105.197 193.517 105.698 192.989 106.328 192.616C106.968 192.232 107.672 192.04 108.44 192.04C109.133 192.04 109.736 192.179 110.248 192.456C110.77 192.723 111.186 193.059 111.496 193.464V192.184H113.336V201H111.496V199.688C111.186 200.104 110.765 200.451 110.232 200.728C109.698 201.005 109.09 201.144 108.408 201.144C107.65 201.144 106.957 200.952 106.328 200.568C105.698 200.173 105.197 199.629 104.824 198.936C104.461 198.232 104.28 197.437 104.28 196.552ZM111.496 196.584C111.496 195.976 111.368 195.448 111.112 195C110.866 194.552 110.541 194.211 110.136 193.976C109.73 193.741 109.293 193.624 108.824 193.624C108.354 193.624 107.917 193.741 107.512 193.976C107.106 194.2 106.776 194.536 106.52 194.984C106.274 195.421 106.152 195.944 106.152 196.552C106.152 197.16 106.274 197.693 106.52 198.152C106.776 198.611 107.106 198.963 107.512 199.208C107.928 199.443 108.365 199.56 108.824 199.56C109.293 199.56 109.73 199.443 110.136 199.208C110.541 198.973 110.866 198.632 111.112 198.184C111.368 197.725 111.496 197.192 111.496 196.584ZM115.123 196.584C115.123 195.677 115.305 194.883 115.667 194.2C116.041 193.507 116.553 192.973 117.203 192.6C117.854 192.227 118.601 192.04 119.443 192.04C120.51 192.04 121.39 192.296 122.083 192.808C122.787 193.309 123.262 194.029 123.507 194.968H121.539C121.379 194.531 121.123 194.189 120.771 193.944C120.419 193.699 119.977 193.576 119.443 193.576C118.697 193.576 118.099 193.843 117.651 194.376C117.214 194.899 116.995 195.635 116.995 196.584C116.995 197.533 117.214 198.275 117.651 198.808C118.099 199.341 118.697 199.608 119.443 199.608C120.499 199.608 121.198 199.144 121.539 198.216H123.507C123.251 199.112 122.771 199.827 122.067 200.36C121.363 200.883 120.489 201.144 119.443 201.144C118.601 201.144 117.854 200.957 117.203 200.584C116.553 200.2 116.041 199.667 115.667 198.984C115.305 198.291 115.123 197.491 115.123 196.584ZM133.405 196.376C133.405 196.707 133.384 197.005 133.341 197.272H126.605C126.658 197.976 126.92 198.541 127.389 198.968C127.858 199.395 128.434 199.608 129.117 199.608C130.098 199.608 130.792 199.197 131.197 198.376H133.165C132.898 199.187 132.413 199.853 131.709 200.376C131.016 200.888 130.152 201.144 129.117 201.144C128.274 201.144 127.517 200.957 126.845 200.584C126.184 200.2 125.661 199.667 125.277 198.984C124.904 198.291 124.717 197.491 124.717 196.584C124.717 195.677 124.898 194.883 125.261 194.2C125.634 193.507 126.152 192.973 126.813 192.6C127.485 192.227 128.253 192.04 129.117 192.04C129.949 192.04 130.69 192.221 131.341 192.584C131.992 192.947 132.498 193.459 132.861 194.12C133.224 194.771 133.405 195.523 133.405 196.376ZM131.501 195.8C131.49 195.128 131.25 194.589 130.781 194.184C130.312 193.779 129.73 193.576 129.037 193.576C128.408 193.576 127.869 193.779 127.421 194.184C126.973 194.579 126.706 195.117 126.621 195.8H131.501ZM139.76 192.04C140.432 192.04 141.029 192.184 141.552 192.472C142.085 192.76 142.501 193.187 142.8 193.752C143.109 194.317 143.264 195 143.264 195.8V201H141.456V196.072C141.456 195.283 141.259 194.68 140.864 194.264C140.469 193.837 139.931 193.624 139.248 193.624C138.565 193.624 138.021 193.837 137.616 194.264C137.221 194.68 137.024 195.283 137.024 196.072V201H135.2V189.16H137.024V193.208C137.333 192.835 137.723 192.547 138.192 192.344C138.672 192.141 139.195 192.04 139.76 192.04ZM149.415 201.144C148.583 201.144 147.831 200.957 147.159 200.584C146.487 200.2 145.959 199.667 145.575 198.984C145.191 198.291 144.999 197.491 144.999 196.584C144.999 195.688 145.196 194.893 145.591 194.2C145.985 193.507 146.524 192.973 147.207 192.6C147.889 192.227 148.652 192.04 149.495 192.04C150.337 192.04 151.1 192.227 151.783 192.6C152.465 192.973 153.004 193.507 153.399 194.2C153.793 194.893 153.991 195.688 153.991 196.584C153.991 197.48 153.788 198.275 153.383 198.968C152.977 199.661 152.423 200.2 151.719 200.584C151.025 200.957 150.257 201.144 149.415 201.144ZM149.415 199.56C149.884 199.56 150.321 199.448 150.727 199.224C151.143 199 151.479 198.664 151.735 198.216C151.991 197.768 152.119 197.224 152.119 196.584C152.119 195.944 151.996 195.405 151.751 194.968C151.505 194.52 151.18 194.184 150.775 193.96C150.369 193.736 149.932 193.624 149.463 193.624C148.993 193.624 148.556 193.736 148.151 193.96C147.756 194.184 147.441 194.52 147.207 194.968C146.972 195.405 146.855 195.944 146.855 196.584C146.855 197.533 147.095 198.269 147.575 198.792C148.065 199.304 148.679 199.56 149.415 199.56ZM157.618 189.16V201H155.794V189.16H157.618ZM159.405 196.552C159.405 195.667 159.586 194.883 159.949 194.2C160.322 193.517 160.823 192.989 161.453 192.616C162.093 192.232 162.802 192.04 163.581 192.04C164.157 192.04 164.722 192.168 165.277 192.424C165.842 192.669 166.29 193 166.621 193.416V189.16H168.461V201H166.621V199.672C166.322 200.099 165.906 200.451 165.373 200.728C164.85 201.005 164.247 201.144 163.565 201.144C162.797 201.144 162.093 200.952 161.453 200.568C160.823 200.173 160.322 199.629 159.949 198.936C159.586 198.232 159.405 197.437 159.405 196.552ZM166.621 196.584C166.621 195.976 166.493 195.448 166.237 195C165.991 194.552 165.666 194.211 165.261 193.976C164.855 193.741 164.418 193.624 163.949 193.624C163.479 193.624 163.042 193.741 162.637 193.976C162.231 194.2 161.901 194.536 161.645 194.984C161.399 195.421 161.277 195.944 161.277 196.552C161.277 197.16 161.399 197.693 161.645 198.152C161.901 198.611 162.231 198.963 162.637 199.208C163.053 199.443 163.49 199.56 163.949 199.56C164.418 199.56 164.855 199.443 165.261 199.208C165.666 198.973 165.991 198.632 166.237 198.184C166.493 197.725 166.621 197.192 166.621 196.584ZM178.936 196.376C178.936 196.707 178.915 197.005 178.872 197.272H172.136C172.19 197.976 172.451 198.541 172.92 198.968C173.39 199.395 173.966 199.608 174.648 199.608C175.63 199.608 176.323 199.197 176.728 198.376H178.696C178.43 199.187 177.944 199.853 177.24 200.376C176.547 200.888 175.683 201.144 174.648 201.144C173.806 201.144 173.048 200.957 172.376 200.584C171.715 200.2 171.192 199.667 170.808 198.984C170.435 198.291 170.248 197.491 170.248 196.584C170.248 195.677 170.43 194.883 170.792 194.2C171.166 193.507 171.683 192.973 172.344 192.6C173.016 192.227 173.784 192.04 174.648 192.04C175.48 192.04 176.222 192.221 176.872 192.584C177.523 192.947 178.03 193.459 178.392 194.12C178.755 194.771 178.936 195.523 178.936 196.376ZM177.032 195.8C177.022 195.128 176.782 194.589 176.312 194.184C175.843 193.779 175.262 193.576 174.568 193.576C173.939 193.576 173.4 193.779 172.952 194.184C172.504 194.579 172.238 195.117 172.152 195.8H177.032ZM182.555 193.464C182.822 193.016 183.174 192.669 183.611 192.424C184.059 192.168 184.587 192.04 185.195 192.04V193.928H184.731C184.017 193.928 183.473 194.109 183.099 194.472C182.737 194.835 182.555 195.464 182.555 196.36V201H180.731V192.184H182.555V193.464Z" fill="#BBBBBB"/>
<circle cx="383.5" cy="192.5" r="11.5" fill="#B3261E"/>
<path d="M388.186 195.29C388.713 195.817 388.713 196.666 388.186 197.187C387.924 197.452 387.58 197.582 387.241 197.582C386.901 197.582 386.551 197.452 386.289 197.187L383.501 194.399L380.711 197.187C380.446 197.452 380.104 197.582 379.759 197.582C379.415 197.582 379.073 197.452 378.814 197.187C378.287 196.666 378.287 195.814 378.814 195.29L381.604 192.502L378.814 189.711C378.287 189.185 378.287 188.335 378.814 187.814C379.335 187.287 380.187 187.287 380.711 187.814L383.501 190.605L386.289 187.814C386.816 187.287 387.662 187.287 388.186 187.814C388.713 188.335 388.713 189.187 388.186 189.711L385.399 192.502L388.186 195.29Z" fill="white"/>
<path d="M23.024 16.88V28H21.2V16.88H23.024ZM29.8668 19.04C30.5601 19.04 31.1788 19.184 31.7228 19.472C32.2774 19.76 32.7094 20.1867 33.0188 20.752C33.3281 21.3173 33.4828 22 33.4828 22.8V28H31.6748V23.072C31.6748 22.2827 31.4774 21.68 31.0828 21.264C30.6881 20.8373 30.1494 20.624 29.4668 20.624C28.7841 20.624 28.2401 20.8373 27.8348 21.264C27.4401 21.68 27.2428 22.2827 27.2428 23.072V28H25.4188V19.184H27.2428V20.192C27.5414 19.8293 27.9201 19.5467 28.3788 19.344C28.8481 19.1413 29.3441 19.04 29.8668 19.04ZM37.6334 20.48C37.9427 20.0747 38.364 19.7333 38.8974 19.456C39.4307 19.1787 40.0334 19.04 40.7054 19.04C41.4734 19.04 42.172 19.232 42.8014 19.616C43.4414 19.9893 43.9427 20.5173 44.3054 21.2C44.668 21.8827 44.8494 22.6667 44.8494 23.552C44.8494 24.4373 44.668 25.232 44.3054 25.936C43.9427 26.6293 43.4414 27.1733 42.8014 27.568C42.172 27.952 41.4734 28.144 40.7054 28.144C40.0334 28.144 39.436 28.0107 38.9134 27.744C38.3907 27.4667 37.964 27.1253 37.6334 26.72V32.192H35.8094V19.184H37.6334V20.48ZM42.9934 23.552C42.9934 22.944 42.8654 22.4213 42.6094 21.984C42.364 21.536 42.0334 21.2 41.6174 20.976C41.212 20.7413 40.7747 20.624 40.3054 20.624C39.8467 20.624 39.4094 20.7413 38.9934 20.976C38.588 21.2107 38.2574 21.552 38.0014 22C37.756 22.448 37.6334 22.976 37.6334 23.584C37.6334 24.192 37.756 24.7253 38.0014 25.184C38.2574 25.632 38.588 25.9733 38.9934 26.208C39.4094 26.4427 39.8467 26.56 40.3054 26.56C40.7747 26.56 41.212 26.4427 41.6174 26.208C42.0334 25.9627 42.364 25.6107 42.6094 25.152C42.8654 24.6933 42.9934 24.16 42.9934 23.552ZM54.6371 19.184V28H52.8131V26.96C52.5251 27.3227 52.1465 27.6107 51.6771 27.824C51.2185 28.0267 50.7278 28.128 50.2051 28.128C49.5118 28.128 48.8878 27.984 48.3331 27.696C47.7891 27.408 47.3571 26.9813 47.0371 26.416C46.7278 25.8507 46.5731 25.168 46.5731 24.368V19.184H48.3811V24.096C48.3811 24.8853 48.5785 25.4933 48.9731 25.92C49.3678 26.336 49.9065 26.544 50.5891 26.544C51.2718 26.544 51.8105 26.336 52.2051 25.92C52.6105 25.4933 52.8131 24.8853 52.8131 24.096V19.184H54.6371ZM59.1718 20.672V25.552C59.1718 25.8827 59.2464 26.1227 59.3958 26.272C59.5558 26.4107 59.8224 26.48 60.1958 26.48H61.3158V28H59.8758C59.0544 28 58.4251 27.808 57.9878 27.424C57.5504 27.04 57.3318 26.416 57.3318 25.552V20.672H56.2918V19.184H57.3318V16.992H59.1718V19.184H61.3158V20.672H59.1718ZM68.9771 16.16V28H67.1531V16.16H68.9771ZM70.7639 23.552C70.7639 22.6667 70.9452 21.8827 71.3079 21.2C71.6812 20.5173 72.1825 19.9893 72.8119 19.616C73.4519 19.232 74.1559 19.04 74.9239 19.04C75.6172 19.04 76.2199 19.1787 76.7319 19.456C77.2545 19.7227 77.6705 20.0587 77.9799 20.464V19.184H79.8199V28H77.9799V26.688C77.6705 27.104 77.2492 27.4507 76.7159 27.728C76.1825 28.0053 75.5745 28.144 74.8919 28.144C74.1345 28.144 73.4412 27.952 72.8119 27.568C72.1825 27.1733 71.6812 26.6293 71.3079 25.936C70.9452 25.232 70.7639 24.4373 70.7639 23.552ZM77.9799 23.584C77.9799 22.976 77.8519 22.448 77.5959 22C77.3505 21.552 77.0252 21.2107 76.6199 20.976C76.2145 20.7413 75.7772 20.624 75.3079 20.624C74.8385 20.624 74.4012 20.7413 73.9959 20.976C73.5905 21.2 73.2599 21.536 73.0039 21.984C72.7585 22.4213 72.6359 22.944 72.6359 23.552C72.6359 24.16 72.7585 24.6933 73.0039 25.152C73.2599 25.6107 73.5905 25.9627 73.9959 26.208C74.4119 26.4427 74.8492 26.56 75.3079 26.56C75.7772 26.56 76.2145 26.4427 76.6199 26.208C77.0252 25.9733 77.3505 25.632 77.5959 25.184C77.8519 24.7253 77.9799 24.192 77.9799 23.584ZM84.0396 20.496C84.349 20.0693 84.7703 19.7227 85.3036 19.456C85.8476 19.1787 86.4503 19.04 87.1116 19.04C87.8903 19.04 88.5943 19.2267 89.2236 19.6C89.853 19.9733 90.349 20.5067 90.7116 21.2C91.0743 21.8827 91.2556 22.6667 91.2556 23.552C91.2556 24.4373 91.0743 25.232 90.7116 25.936C90.349 26.6293 89.8476 27.1733 89.2076 27.568C88.5783 27.952 87.8796 28.144 87.1116 28.144C86.429 28.144 85.821 28.0107 85.2876 27.744C84.765 27.4773 84.349 27.136 84.0396 26.72V28H82.2156V16.16H84.0396V20.496ZM89.3996 23.552C89.3996 22.944 89.2716 22.4213 89.0156 21.984C88.7703 21.536 88.4396 21.2 88.0236 20.976C87.6183 20.7413 87.181 20.624 86.7116 20.624C86.253 20.624 85.8156 20.7413 85.3996 20.976C84.9943 21.2107 84.6636 21.552 84.4076 22C84.1623 22.448 84.0396 22.976 84.0396 23.584C84.0396 24.192 84.1623 24.7253 84.4076 25.184C84.6636 25.632 84.9943 25.9733 85.3996 26.208C85.8156 26.4427 86.253 26.56 86.7116 26.56C87.181 26.56 87.6183 26.4427 88.0236 26.208C88.4396 25.9627 88.7703 25.6107 89.0156 25.152C89.2716 24.6933 89.3996 24.16 89.3996 23.552ZM101.139 23.376C101.139 23.7067 101.118 24.0053 101.075 24.272H94.3394C94.3927 24.976 94.654 25.5413 95.1234 25.968C95.5927 26.3947 96.1687 26.608 96.8514 26.608C97.8327 26.608 98.526 26.1973 98.9314 25.376H100.899C100.633 26.1867 100.147 26.8533 99.4434 27.376C98.75 27.888 97.886 28.144 96.8514 28.144C96.0087 28.144 95.2514 27.9573 94.5794 27.584C93.918 27.2 93.3954 26.6667 93.0114 25.984C92.638 25.2907 92.4514 24.4907 92.4514 23.584C92.4514 22.6773 92.6327 21.8827 92.9954 21.2C93.3687 20.5067 93.886 19.9733 94.5474 19.6C95.2194 19.2267 95.9874 19.04 96.8514 19.04C97.6834 19.04 98.4247 19.2213 99.0754 19.584C99.726 19.9467 100.233 20.4587 100.595 21.12C100.958 21.7707 101.139 22.5227 101.139 23.376ZM99.2354 22.8C99.2247 22.128 98.9847 21.5893 98.5154 21.184C98.046 20.7787 97.4647 20.576 96.7714 20.576C96.142 20.576 95.6034 20.7787 95.1554 21.184C94.7074 21.5787 94.4407 22.1173 94.3554 22.8H99.2354ZM104.758 16.16V28H102.934V16.16H104.758Z" fill="#212429"/>
<path d="M268.088 123.112C267.342 123.112 266.67 122.984 266.072 122.728C265.475 122.461 265.006 122.088 264.664 121.608C264.323 121.128 264.152 120.568 264.152 119.928H266.104C266.147 120.408 266.334 120.803 266.664 121.112C267.006 121.421 267.48 121.576 268.088 121.576C268.718 121.576 269.208 121.427 269.56 121.128C269.912 120.819 270.088 120.424 270.088 119.944C270.088 119.571 269.976 119.267 269.752 119.032C269.539 118.797 269.267 118.616 268.936 118.488C268.616 118.36 268.168 118.221 267.592 118.072C266.867 117.88 266.275 117.688 265.816 117.496C265.368 117.293 264.984 116.984 264.664 116.568C264.344 116.152 264.184 115.597 264.184 114.904C264.184 114.264 264.344 113.704 264.664 113.224C264.984 112.744 265.432 112.376 266.008 112.12C266.584 111.864 267.251 111.736 268.008 111.736C269.086 111.736 269.966 112.008 270.648 112.552C271.342 113.085 271.726 113.821 271.8 114.76H269.784C269.752 114.355 269.56 114.008 269.208 113.72C268.856 113.432 268.392 113.288 267.816 113.288C267.294 113.288 266.867 113.421 266.536 113.688C266.206 113.955 266.04 114.339 266.04 114.84C266.04 115.181 266.142 115.464 266.344 115.688C266.558 115.901 266.824 116.072 267.144 116.2C267.464 116.328 267.902 116.467 268.456 116.616C269.192 116.819 269.79 117.021 270.248 117.224C270.718 117.427 271.112 117.741 271.432 118.168C271.763 118.584 271.928 119.144 271.928 119.848C271.928 120.413 271.774 120.947 271.464 121.448C271.166 121.949 270.723 122.355 270.136 122.664C269.56 122.963 268.878 123.112 268.088 123.112ZM282.065 114.184V123H280.241V121.96C279.953 122.323 279.574 122.611 279.105 122.824C278.646 123.027 278.155 123.128 277.633 123.128C276.939 123.128 276.315 122.984 275.761 122.696C275.217 122.408 274.785 121.981 274.465 121.416C274.155 120.851 274.001 120.168 274.001 119.368V114.184H275.809V119.096C275.809 119.885 276.006 120.493 276.401 120.92C276.795 121.336 277.334 121.544 278.017 121.544C278.699 121.544 279.238 121.336 279.633 120.92C280.038 120.493 280.241 119.885 280.241 119.096V114.184H282.065ZM283.863 118.584C283.863 117.677 284.045 116.883 284.407 116.2C284.781 115.507 285.293 114.973 285.943 114.6C286.594 114.227 287.341 114.04 288.183 114.04C289.25 114.04 290.13 114.296 290.823 114.808C291.527 115.309 292.002 116.029 292.247 116.968H290.279C290.119 116.531 289.863 116.189 289.511 115.944C289.159 115.699 288.717 115.576 288.183 115.576C287.437 115.576 286.839 115.843 286.391 116.376C285.954 116.899 285.735 117.635 285.735 118.584C285.735 119.533 285.954 120.275 286.391 120.808C286.839 121.341 287.437 121.608 288.183 121.608C289.239 121.608 289.938 121.144 290.279 120.216H292.247C291.991 121.112 291.511 121.827 290.807 122.36C290.103 122.883 289.229 123.144 288.183 123.144C287.341 123.144 286.594 122.957 285.943 122.584C285.293 122.2 284.781 121.667 284.407 120.984C284.045 120.291 283.863 119.491 283.863 118.584ZM293.457 118.584C293.457 117.677 293.638 116.883 294.001 116.2C294.374 115.507 294.886 114.973 295.537 114.6C296.188 114.227 296.934 114.04 297.777 114.04C298.844 114.04 299.724 114.296 300.417 114.808C301.121 115.309 301.596 116.029 301.841 116.968H299.873C299.713 116.531 299.457 116.189 299.105 115.944C298.753 115.699 298.31 115.576 297.777 115.576C297.03 115.576 296.433 115.843 295.985 116.376C295.548 116.899 295.329 117.635 295.329 118.584C295.329 119.533 295.548 120.275 295.985 120.808C296.433 121.341 297.03 121.608 297.777 121.608C298.833 121.608 299.532 121.144 299.873 120.216H301.841C301.585 121.112 301.105 121.827 300.401 122.36C299.697 122.883 298.822 123.144 297.777 123.144C296.934 123.144 296.188 122.957 295.537 122.584C294.886 122.2 294.374 121.667 294.001 120.984C293.638 120.291 293.457 119.491 293.457 118.584ZM311.739 118.376C311.739 118.707 311.718 119.005 311.675 119.272H304.939C304.992 119.976 305.254 120.541 305.723 120.968C306.192 121.395 306.768 121.608 307.451 121.608C308.432 121.608 309.126 121.197 309.531 120.376H311.499C311.232 121.187 310.747 121.853 310.043 122.376C309.35 122.888 308.486 123.144 307.451 123.144C306.608 123.144 305.851 122.957 305.179 122.584C304.518 122.2 303.995 121.667 303.611 120.984C303.238 120.291 303.051 119.491 303.051 118.584C303.051 117.677 303.232 116.883 303.595 116.2C303.968 115.507 304.486 114.973 305.147 114.6C305.819 114.227 306.587 114.04 307.451 114.04C308.283 114.04 309.024 114.221 309.675 114.584C310.326 114.947 310.832 115.459 311.195 116.12C311.558 116.771 311.739 117.523 311.739 118.376ZM309.835 117.8C309.824 117.128 309.584 116.589 309.115 116.184C308.646 115.779 308.064 115.576 307.371 115.576C306.742 115.576 306.203 115.779 305.755 116.184C305.307 116.579 305.04 117.117 304.955 117.8H309.835ZM316.734 123.144C316.041 123.144 315.417 123.021 314.862 122.776C314.318 122.52 313.886 122.179 313.566 121.752C313.246 121.315 313.075 120.829 313.054 120.296H314.942C314.974 120.669 315.15 120.984 315.47 121.24C315.801 121.485 316.211 121.608 316.702 121.608C317.214 121.608 317.609 121.512 317.886 121.32C318.174 121.117 318.318 120.861 318.318 120.552C318.318 120.221 318.158 119.976 317.838 119.816C317.529 119.656 317.033 119.48 316.35 119.288C315.689 119.107 315.15 118.931 314.734 118.76C314.318 118.589 313.955 118.328 313.646 117.976C313.347 117.624 313.198 117.16 313.198 116.584C313.198 116.115 313.337 115.688 313.614 115.304C313.891 114.909 314.286 114.6 314.798 114.376C315.321 114.152 315.918 114.04 316.59 114.04C317.593 114.04 318.398 114.296 319.006 114.808C319.625 115.309 319.955 115.997 319.998 116.872H318.174C318.142 116.477 317.982 116.163 317.694 115.928C317.406 115.693 317.017 115.576 316.526 115.576C316.046 115.576 315.678 115.667 315.422 115.848C315.166 116.029 315.038 116.269 315.038 116.568C315.038 116.803 315.123 117 315.294 117.16C315.465 117.32 315.673 117.448 315.918 117.544C316.163 117.629 316.526 117.741 317.006 117.88C317.646 118.051 318.169 118.227 318.574 118.408C318.99 118.579 319.347 118.835 319.646 119.176C319.945 119.517 320.099 119.971 320.11 120.536C320.11 121.037 319.971 121.485 319.694 121.88C319.417 122.275 319.022 122.584 318.51 122.808C318.009 123.032 317.417 123.144 316.734 123.144ZM325.281 123.144C324.587 123.144 323.963 123.021 323.409 122.776C322.865 122.52 322.433 122.179 322.113 121.752C321.793 121.315 321.622 120.829 321.601 120.296H323.489C323.521 120.669 323.697 120.984 324.017 121.24C324.347 121.485 324.758 121.608 325.249 121.608C325.761 121.608 326.155 121.512 326.433 121.32C326.721 121.117 326.865 120.861 326.865 120.552C326.865 120.221 326.705 119.976 326.385 119.816C326.075 119.656 325.579 119.48 324.897 119.288C324.235 119.107 323.697 118.931 323.281 118.76C322.865 118.589 322.502 118.328 322.193 117.976C321.894 117.624 321.745 117.16 321.745 116.584C321.745 116.115 321.883 115.688 322.161 115.304C322.438 114.909 322.833 114.6 323.345 114.376C323.867 114.152 324.465 114.04 325.137 114.04C326.139 114.04 326.945 114.296 327.553 114.808C328.171 115.309 328.502 115.997 328.545 116.872H326.721C326.689 116.477 326.529 116.163 326.241 115.928C325.953 115.693 325.563 115.576 325.073 115.576C324.593 115.576 324.225 115.667 323.969 115.848C323.713 116.029 323.585 116.269 323.585 116.568C323.585 116.803 323.67 117 323.841 117.16C324.011 117.32 324.219 117.448 324.465 117.544C324.71 117.629 325.073 117.741 325.553 117.88C326.193 118.051 326.715 118.227 327.121 118.408C327.537 118.579 327.894 118.835 328.193 119.176C328.491 119.517 328.646 119.971 328.657 120.536C328.657 121.037 328.518 121.485 328.241 121.88C327.963 122.275 327.569 122.584 327.057 122.808C326.555 123.032 325.963 123.144 325.281 123.144ZM345.456 114.04C346.149 114.04 346.768 114.184 347.312 114.472C347.867 114.76 348.299 115.187 348.608 115.752C348.928 116.317 349.088 117 349.088 117.8V123H347.28V118.072C347.28 117.283 347.083 116.68 346.688 116.264C346.293 115.837 345.755 115.624 345.072 115.624C344.389 115.624 343.845 115.837 343.44 116.264C343.045 116.68 342.848 117.283 342.848 118.072V123H341.04V118.072C341.04 117.283 340.843 116.68 340.448 116.264C340.053 115.837 339.515 115.624 338.832 115.624C338.149 115.624 337.605 115.837 337.2 116.264C336.805 116.68 336.608 117.283 336.608 118.072V123H334.784V114.184H336.608V115.192C336.907 114.829 337.285 114.547 337.744 114.344C338.203 114.141 338.693 114.04 339.216 114.04C339.92 114.04 340.549 114.189 341.104 114.488C341.659 114.787 342.085 115.219 342.384 115.784C342.651 115.251 343.067 114.829 343.632 114.52C344.197 114.2 344.805 114.04 345.456 114.04ZM359.489 118.376C359.489 118.707 359.468 119.005 359.425 119.272H352.689C352.742 119.976 353.004 120.541 353.473 120.968C353.942 121.395 354.518 121.608 355.201 121.608C356.182 121.608 356.876 121.197 357.281 120.376H359.249C358.982 121.187 358.497 121.853 357.793 122.376C357.1 122.888 356.236 123.144 355.201 123.144C354.358 123.144 353.601 122.957 352.929 122.584C352.268 122.2 351.745 121.667 351.361 120.984C350.988 120.291 350.801 119.491 350.801 118.584C350.801 117.677 350.982 116.883 351.345 116.2C351.718 115.507 352.236 114.973 352.897 114.6C353.569 114.227 354.337 114.04 355.201 114.04C356.033 114.04 356.774 114.221 357.425 114.584C358.076 114.947 358.582 115.459 358.945 116.12C359.308 116.771 359.489 117.523 359.489 118.376ZM357.585 117.8C357.574 117.128 357.334 116.589 356.865 116.184C356.396 115.779 355.814 115.576 355.121 115.576C354.492 115.576 353.953 115.779 353.505 116.184C353.057 116.579 352.79 117.117 352.705 117.8H357.585ZM364.484 123.144C363.791 123.144 363.167 123.021 362.612 122.776C362.068 122.52 361.636 122.179 361.316 121.752C360.996 121.315 360.825 120.829 360.804 120.296H362.692C362.724 120.669 362.9 120.984 363.22 121.24C363.551 121.485 363.961 121.608 364.452 121.608C364.964 121.608 365.359 121.512 365.636 121.32C365.924 121.117 366.068 120.861 366.068 120.552C366.068 120.221 365.908 119.976 365.588 119.816C365.279 119.656 364.783 119.48 364.1 119.288C363.439 119.107 362.9 118.931 362.484 118.76C362.068 118.589 361.705 118.328 361.396 117.976C361.097 117.624 360.948 117.16 360.948 116.584C360.948 116.115 361.087 115.688 361.364 115.304C361.641 114.909 362.036 114.6 362.548 114.376C363.071 114.152 363.668 114.04 364.34 114.04C365.343 114.04 366.148 114.296 366.756 114.808C367.375 115.309 367.705 115.997 367.748 116.872H365.924C365.892 116.477 365.732 116.163 365.444 115.928C365.156 115.693 364.767 115.576 364.276 115.576C363.796 115.576 363.428 115.667 363.172 115.848C362.916 116.029 362.788 116.269 362.788 116.568C362.788 116.803 362.873 117 363.044 117.16C363.215 117.32 363.423 117.448 363.668 117.544C363.913 117.629 364.276 117.741 364.756 117.88C365.396 118.051 365.919 118.227 366.324 118.408C366.74 118.579 367.097 118.835 367.396 119.176C367.695 119.517 367.849 119.971 367.86 120.536C367.86 121.037 367.721 121.485 367.444 121.88C367.167 122.275 366.772 122.584 366.26 122.808C365.759 123.032 365.167 123.144 364.484 123.144ZM373.031 123.144C372.337 123.144 371.713 123.021 371.159 122.776C370.615 122.52 370.183 122.179 369.863 121.752C369.543 121.315 369.372 120.829 369.351 120.296H371.239C371.271 120.669 371.447 120.984 371.767 121.24C372.097 121.485 372.508 121.608 372.999 121.608C373.511 121.608 373.905 121.512 374.183 121.32C374.471 121.117 374.615 120.861 374.615 120.552C374.615 120.221 374.455 119.976 374.135 119.816C373.825 119.656 373.329 119.48 372.647 119.288C371.985 119.107 371.447 118.931 371.031 118.76C370.615 118.589 370.252 118.328 369.943 117.976C369.644 117.624 369.495 117.16 369.495 116.584C369.495 116.115 369.633 115.688 369.911 115.304C370.188 114.909 370.583 114.6 371.095 114.376C371.617 114.152 372.215 114.04 372.887 114.04C373.889 114.04 374.695 114.296 375.303 114.808C375.921 115.309 376.252 115.997 376.295 116.872H374.471C374.439 116.477 374.279 116.163 373.991 115.928C373.703 115.693 373.313 115.576 372.823 115.576C372.343 115.576 371.975 115.667 371.719 115.848C371.463 116.029 371.335 116.269 371.335 116.568C371.335 116.803 371.42 117 371.591 117.16C371.761 117.32 371.969 117.448 372.215 117.544C372.46 117.629 372.823 117.741 373.303 117.88C373.943 118.051 374.465 118.227 374.871 118.408C375.287 118.579 375.644 118.835 375.943 119.176C376.241 119.517 376.396 119.971 376.407 120.536C376.407 121.037 376.268 121.485 375.991 121.88C375.713 122.275 375.319 122.584 374.807 122.808C374.305 123.032 373.713 123.144 373.031 123.144ZM377.77 118.552C377.77 117.667 377.951 116.883 378.314 116.2C378.687 115.517 379.188 114.989 379.818 114.616C380.458 114.232 381.162 114.04 381.93 114.04C382.623 114.04 383.226 114.179 383.738 114.456C384.26 114.723 384.676 115.059 384.986 115.464V114.184H386.826V123H384.986V121.688C384.676 122.104 384.255 122.451 383.722 122.728C383.188 123.005 382.58 123.144 381.898 123.144C381.14 123.144 380.447 122.952 379.818 122.568C379.188 122.173 378.687 121.629 378.314 120.936C377.951 120.232 377.77 119.437 377.77 118.552ZM384.986 118.584C384.986 117.976 384.858 117.448 384.602 117C384.356 116.552 384.031 116.211 383.626 115.976C383.22 115.741 382.783 115.624 382.314 115.624C381.844 115.624 381.407 115.741 381.002 115.976C380.596 116.2 380.266 116.536 380.01 116.984C379.764 117.421 379.642 117.944 379.642 118.552C379.642 119.16 379.764 119.693 380.01 120.152C380.266 120.611 380.596 120.963 381.002 121.208C381.418 121.443 381.855 121.56 382.314 121.56C382.783 121.56 383.22 121.443 383.626 121.208C384.031 120.973 384.356 120.632 384.602 120.184C384.858 119.725 384.986 119.192 384.986 118.584ZM392.773 114.04C393.456 114.04 394.059 114.179 394.581 114.456C395.115 114.723 395.531 115.059 395.829 115.464V114.184H397.669V123.144C397.669 123.955 397.499 124.675 397.157 125.304C396.816 125.944 396.32 126.445 395.669 126.808C395.029 127.171 394.261 127.352 393.365 127.352C392.171 127.352 391.179 127.069 390.389 126.504C389.6 125.949 389.152 125.192 389.045 124.232H390.853C390.992 124.691 391.285 125.059 391.733 125.336C392.192 125.624 392.736 125.768 393.365 125.768C394.101 125.768 394.693 125.544 395.141 125.096C395.6 124.648 395.829 123.997 395.829 123.144V121.672C395.52 122.088 395.099 122.44 394.565 122.728C394.043 123.005 393.445 123.144 392.773 123.144C392.005 123.144 391.301 122.952 390.661 122.568C390.032 122.173 389.531 121.629 389.157 120.936C388.795 120.232 388.613 119.437 388.613 118.552C388.613 117.667 388.795 116.883 389.157 116.2C389.531 115.517 390.032 114.989 390.661 114.616C391.301 114.232 392.005 114.04 392.773 114.04ZM395.829 118.584C395.829 117.976 395.701 117.448 395.445 117C395.2 116.552 394.875 116.211 394.469 115.976C394.064 115.741 393.627 115.624 393.157 115.624C392.688 115.624 392.251 115.741 391.845 115.976C391.44 116.2 391.109 116.536 390.853 116.984C390.608 117.421 390.485 117.944 390.485 118.552C390.485 119.16 390.608 119.693 390.853 120.152C391.109 120.611 391.44 120.963 391.845 121.208C392.261 121.443 392.699 121.56 393.157 121.56C393.627 121.56 394.064 121.443 394.469 121.208C394.875 120.973 395.2 120.632 395.445 120.184C395.701 119.725 395.829 119.192 395.829 118.584ZM408.145 118.376C408.145 118.707 408.124 119.005 408.081 119.272H401.345C401.398 119.976 401.66 120.541 402.129 120.968C402.598 121.395 403.174 121.608 403.857 121.608C404.838 121.608 405.532 121.197 405.937 120.376H407.905C407.638 121.187 407.153 121.853 406.449 122.376C405.756 122.888 404.892 123.144 403.857 123.144C403.014 123.144 402.257 122.957 401.585 122.584C400.924 122.2 400.401 121.667 400.017 120.984C399.644 120.291 399.457 119.491 399.457 118.584C399.457 117.677 399.638 116.883 400.001 116.2C400.374 115.507 400.892 114.973 401.553 114.6C402.225 114.227 402.993 114.04 403.857 114.04C404.689 114.04 405.43 114.221 406.081 114.584C406.732 114.947 407.238 115.459 407.601 116.12C407.964 116.771 408.145 117.523 408.145 118.376ZM406.241 117.8C406.23 117.128 405.99 116.589 405.521 116.184C405.052 115.779 404.47 115.576 403.777 115.576C403.148 115.576 402.609 115.779 402.161 116.184C401.713 116.579 401.446 117.117 401.361 117.8H406.241Z" fill="#2F6D3F"/>
<mask id="path-11-inside-2_4867_1589" fill="white">
<path d="M20 56C20 48.268 26.268 42 34 42H404C411.732 42 418 48.268 418 56V82C418 89.732 411.732 96 404 96H34C26.268 96 20 89.732 20 82V56Z"/>
</mask>
<path d="M20 56C20 48.268 26.268 42 34 42H404C411.732 42 418 48.268 418 56V82C418 89.732 411.732 96 404 96H34C26.268 96 20 89.732 20 82V56Z" fill="#FBFBFB"/>
<path d="M20 42H418H20ZM420 82C420 90.8366 412.837 98 404 98H36C27.1634 98 20 90.8366 20 82C20 88.6274 26.268 94 34 94H404C410.627 94 416 88.6274 416 82H420ZM20 96V42V96ZM404 42C412.837 42 420 49.1634 420 58V82C420 90.8366 412.837 98 404 98V94C410.627 94 416 88.6274 416 82V56C416 48.268 410.627 42 404 42Z" fill="#2F6D3F" mask="url(#path-11-inside-2_4867_1589)"/>
<path d="M47.024 63.88V75H45.2V63.88H47.024ZM53.8668 66.04C54.5601 66.04 55.1788 66.184 55.7228 66.472C56.2774 66.76 56.7094 67.1867 57.0188 67.752C57.3281 68.3173 57.4828 69 57.4828 69.8V75H55.6748V70.072C55.6748 69.2827 55.4774 68.68 55.0828 68.264C54.6881 67.8373 54.1494 67.624 53.4668 67.624C52.7841 67.624 52.2401 67.8373 51.8348 68.264C51.4401 68.68 51.2428 69.2827 51.2428 70.072V75H49.4188V66.184H51.2428V67.192C51.5414 66.8293 51.9201 66.5467 52.3788 66.344C52.8481 66.1413 53.3441 66.04 53.8668 66.04ZM61.6334 67.48C61.9427 67.0747 62.364 66.7333 62.8974 66.456C63.4307 66.1787 64.0334 66.04 64.7054 66.04C65.4734 66.04 66.172 66.232 66.8014 66.616C67.4414 66.9893 67.9427 67.5173 68.3054 68.2C68.668 68.8827 68.8494 69.6667 68.8494 70.552C68.8494 71.4373 68.668 72.232 68.3054 72.936C67.9427 73.6293 67.4414 74.1733 66.8014 74.568C66.172 74.952 65.4734 75.144 64.7054 75.144C64.0334 75.144 63.436 75.0107 62.9134 74.744C62.3907 74.4667 61.964 74.1253 61.6334 73.72V79.192H59.8094V66.184H61.6334V67.48ZM66.9934 70.552C66.9934 69.944 66.8654 69.4213 66.6094 68.984C66.364 68.536 66.0334 68.2 65.6174 67.976C65.212 67.7413 64.7747 67.624 64.3054 67.624C63.8467 67.624 63.4094 67.7413 62.9934 67.976C62.588 68.2107 62.2574 68.552 62.0014 69C61.756 69.448 61.6334 69.976 61.6334 70.584C61.6334 71.192 61.756 71.7253 62.0014 72.184C62.2574 72.632 62.588 72.9733 62.9934 73.208C63.4094 73.4427 63.8467 73.56 64.3054 73.56C64.7747 73.56 65.212 73.4427 65.6174 73.208C66.0334 72.9627 66.364 72.6107 66.6094 72.152C66.8654 71.6933 66.9934 71.16 66.9934 70.552ZM78.6371 66.184V75H76.8131V73.96C76.5251 74.3227 76.1465 74.6107 75.6771 74.824C75.2185 75.0267 74.7278 75.128 74.2051 75.128C73.5118 75.128 72.8878 74.984 72.3331 74.696C71.7891 74.408 71.3571 73.9813 71.0371 73.416C70.7278 72.8507 70.5731 72.168 70.5731 71.368V66.184H72.3811V71.096C72.3811 71.8853 72.5785 72.4933 72.9731 72.92C73.3678 73.336 73.9065 73.544 74.5891 73.544C75.2718 73.544 75.8105 73.336 76.2051 72.92C76.6105 72.4933 76.8131 71.8853 76.8131 71.096V66.184H78.6371ZM83.1718 67.672V72.552C83.1718 72.8827 83.2464 73.1227 83.3958 73.272C83.5558 73.4107 83.8224 73.48 84.1958 73.48H85.3158V75H83.8758C83.0544 75 82.4251 74.808 81.9878 74.424C81.5504 74.04 81.3318 73.416 81.3318 72.552V67.672H80.2918V66.184H81.3318V63.992H83.1718V66.184H85.3158V67.672H83.1718ZM98.9291 67.192C98.9291 67.7573 98.7958 68.2907 98.5291 68.792C98.2625 69.2933 97.8358 69.704 97.2491 70.024C96.6625 70.3333 95.9105 70.488 94.9931 70.488H92.9771V75H91.1531V63.88H94.9931C95.8465 63.88 96.5665 64.0293 97.1531 64.328C97.7505 64.616 98.1931 65.0107 98.4811 65.512C98.7798 66.0133 98.9291 66.5733 98.9291 67.192ZM94.9931 69C95.6865 69 96.2038 68.8453 96.5451 68.536C96.8865 68.216 97.0571 67.768 97.0571 67.192C97.0571 65.976 96.3691 65.368 94.9931 65.368H92.9771V69H94.9931ZM102.493 63.16V75H100.669V63.16H102.493ZM104.28 70.552C104.28 69.6667 104.461 68.8827 104.824 68.2C105.197 67.5173 105.698 66.9893 106.328 66.616C106.968 66.232 107.672 66.04 108.44 66.04C109.133 66.04 109.736 66.1787 110.248 66.456C110.77 66.7227 111.186 67.0587 111.496 67.464V66.184H113.336V75H111.496V73.688C111.186 74.104 110.765 74.4507 110.232 74.728C109.698 75.0053 109.09 75.144 108.408 75.144C107.65 75.144 106.957 74.952 106.328 74.568C105.698 74.1733 105.197 73.6293 104.824 72.936C104.461 72.232 104.28 71.4373 104.28 70.552ZM111.496 70.584C111.496 69.976 111.368 69.448 111.112 69C110.866 68.552 110.541 68.2107 110.136 67.976C109.73 67.7413 109.293 67.624 108.824 67.624C108.354 67.624 107.917 67.7413 107.512 67.976C107.106 68.2 106.776 68.536 106.52 68.984C106.274 69.4213 106.152 69.944 106.152 70.552C106.152 71.16 106.274 71.6933 106.52 72.152C106.776 72.6107 107.106 72.9627 107.512 73.208C107.928 73.4427 108.365 73.56 108.824 73.56C109.293 73.56 109.73 73.4427 110.136 73.208C110.541 72.9733 110.866 72.632 111.112 72.184C111.368 71.7253 111.496 71.192 111.496 70.584ZM115.123 70.584C115.123 69.6773 115.305 68.8827 115.667 68.2C116.041 67.5067 116.553 66.9733 117.203 66.6C117.854 66.2267 118.601 66.04 119.443 66.04C120.51 66.04 121.39 66.296 122.083 66.808C122.787 67.3093 123.262 68.0293 123.507 68.968H121.539C121.379 68.5307 121.123 68.1893 120.771 67.944C120.419 67.6987 119.977 67.576 119.443 67.576C118.697 67.576 118.099 67.8427 117.651 68.376C117.214 68.8987 116.995 69.6347 116.995 70.584C116.995 71.5333 117.214 72.2747 117.651 72.808C118.099 73.3413 118.697 73.608 119.443 73.608C120.499 73.608 121.198 73.144 121.539 72.216H123.507C123.251 73.112 122.771 73.8267 122.067 74.36C121.363 74.8827 120.489 75.144 119.443 75.144C118.601 75.144 117.854 74.9573 117.203 74.584C116.553 74.2 116.041 73.6667 115.667 72.984C115.305 72.2907 115.123 71.4907 115.123 70.584ZM133.405 70.376C133.405 70.7067 133.384 71.0053 133.341 71.272H126.605C126.658 71.976 126.92 72.5413 127.389 72.968C127.858 73.3947 128.434 73.608 129.117 73.608C130.098 73.608 130.792 73.1973 131.197 72.376H133.165C132.898 73.1867 132.413 73.8533 131.709 74.376C131.016 74.888 130.152 75.144 129.117 75.144C128.274 75.144 127.517 74.9573 126.845 74.584C126.184 74.2 125.661 73.6667 125.277 72.984C124.904 72.2907 124.717 71.4907 124.717 70.584C124.717 69.6773 124.898 68.8827 125.261 68.2C125.634 67.5067 126.152 66.9733 126.813 66.6C127.485 66.2267 128.253 66.04 129.117 66.04C129.949 66.04 130.69 66.2213 131.341 66.584C131.992 66.9467 132.498 67.4587 132.861 68.12C133.224 68.7707 133.405 69.5227 133.405 70.376ZM131.501 69.8C131.49 69.128 131.25 68.5893 130.781 68.184C130.312 67.7787 129.73 67.576 129.037 67.576C128.408 67.576 127.869 67.7787 127.421 68.184C126.973 68.5787 126.706 69.1173 126.621 69.8H131.501ZM139.76 66.04C140.432 66.04 141.029 66.184 141.552 66.472C142.085 66.76 142.501 67.1867 142.8 67.752C143.109 68.3173 143.264 69 143.264 69.8V75H141.456V70.072C141.456 69.2827 141.259 68.68 140.864 68.264C140.469 67.8373 139.931 67.624 139.248 67.624C138.565 67.624 138.021 67.8373 137.616 68.264C137.221 68.68 137.024 69.2827 137.024 70.072V75H135.2V63.16H137.024V67.208C137.333 66.8347 137.723 66.5467 138.192 66.344C138.672 66.1413 139.195 66.04 139.76 66.04ZM149.415 75.144C148.583 75.144 147.831 74.9573 147.159 74.584C146.487 74.2 145.959 73.6667 145.575 72.984C145.191 72.2907 144.999 71.4907 144.999 70.584C144.999 69.688 145.196 68.8933 145.591 68.2C145.985 67.5067 146.524 66.9733 147.207 66.6C147.889 66.2267 148.652 66.04 149.495 66.04C150.337 66.04 151.1 66.2267 151.783 66.6C152.465 66.9733 153.004 67.5067 153.399 68.2C153.793 68.8933 153.991 69.688 153.991 70.584C153.991 71.48 153.788 72.2747 153.383 72.968C152.977 73.6613 152.423 74.2 151.719 74.584C151.025 74.9573 150.257 75.144 149.415 75.144ZM149.415 73.56C149.884 73.56 150.321 73.448 150.727 73.224C151.143 73 151.479 72.664 151.735 72.216C151.991 71.768 152.119 71.224 152.119 70.584C152.119 69.944 151.996 69.4053 151.751 68.968C151.505 68.52 151.18 68.184 150.775 67.96C150.369 67.736 149.932 67.624 149.463 67.624C148.993 67.624 148.556 67.736 148.151 67.96C147.756 68.184 147.441 68.52 147.207 68.968C146.972 69.4053 146.855 69.944 146.855 70.584C146.855 71.5333 147.095 72.2693 147.575 72.792C148.065 73.304 148.679 73.56 149.415 73.56ZM157.618 63.16V75H155.794V63.16H157.618ZM159.405 70.552C159.405 69.6667 159.586 68.8827 159.949 68.2C160.322 67.5173 160.823 66.9893 161.453 66.616C162.093 66.232 162.802 66.04 163.581 66.04C164.157 66.04 164.722 66.168 165.277 66.424C165.842 66.6693 166.29 67 166.621 67.416V63.16H168.461V75H166.621V73.672C166.322 74.0987 165.906 74.4507 165.373 74.728C164.85 75.0053 164.247 75.144 163.565 75.144C162.797 75.144 162.093 74.952 161.453 74.568C160.823 74.1733 160.322 73.6293 159.949 72.936C159.586 72.232 159.405 71.4373 159.405 70.552ZM166.621 70.584C166.621 69.976 166.493 69.448 166.237 69C165.991 68.552 165.666 68.2107 165.261 67.976C164.855 67.7413 164.418 67.624 163.949 67.624C163.479 67.624 163.042 67.7413 162.637 67.976C162.231 68.2 161.901 68.536 161.645 68.984C161.399 69.4213 161.277 69.944 161.277 70.552C161.277 71.16 161.399 71.6933 161.645 72.152C161.901 72.6107 162.231 72.9627 162.637 73.208C163.053 73.4427 163.49 73.56 163.949 73.56C164.418 73.56 164.855 73.4427 165.261 73.208C165.666 72.9733 165.991 72.632 166.237 72.184C166.493 71.7253 166.621 71.192 166.621 70.584ZM178.936 70.376C178.936 70.7067 178.915 71.0053 178.872 71.272H172.136C172.19 71.976 172.451 72.5413 172.92 72.968C173.39 73.3947 173.966 73.608 174.648 73.608C175.63 73.608 176.323 73.1973 176.728 72.376H178.696C178.43 73.1867 177.944 73.8533 177.24 74.376C176.547 74.888 175.683 75.144 174.648 75.144C173.806 75.144 173.048 74.9573 172.376 74.584C171.715 74.2 171.192 73.6667 170.808 72.984C170.435 72.2907 170.248 71.4907 170.248 70.584C170.248 69.6773 170.43 68.8827 170.792 68.2C171.166 67.5067 171.683 66.9733 172.344 66.6C173.016 66.2267 173.784 66.04 174.648 66.04C175.48 66.04 176.222 66.2213 176.872 66.584C177.523 66.9467 178.03 67.4587 178.392 68.12C178.755 68.7707 178.936 69.5227 178.936 70.376ZM177.032 69.8C177.022 69.128 176.782 68.5893 176.312 68.184C175.843 67.7787 175.262 67.576 174.568 67.576C173.939 67.576 173.4 67.7787 172.952 68.184C172.504 68.5787 172.238 69.1173 172.152 69.8H177.032ZM182.555 67.464C182.822 67.016 183.174 66.6693 183.611 66.424C184.059 66.168 184.587 66.04 185.195 66.04V67.928H184.731C184.017 67.928 183.473 68.1093 183.099 68.472C182.737 68.8347 182.555 69.464 182.555 70.36V75H180.731V66.184H182.555V67.464Z" fill="#BBBBBB"/>
<circle cx="384.5" cy="68.5" r="11.5" fill="#2F6D3F"/>
<path fill-rule="evenodd" clip-rule="evenodd" d="M390.354 64.5182C390.928 65.0927 390.928 66.024 390.354 66.5984L382.895 74.0571L378.913 70.0752C378.339 69.5007 378.339 68.5694 378.913 67.995C379.488 67.4205 380.419 67.4205 380.994 67.995L382.895 69.8967L388.274 64.5182C388.848 63.9438 389.78 63.9438 390.354 64.5182Z" fill="white"/>
</svg>
