<svg width="406" height="440" viewBox="0 0 406 440" fill="none" xmlns="http://www.w3.org/2000/svg">
<rect x="0.5" y="0.5" width="405" height="439" rx="4.5" stroke="#8A38F5" stroke-dasharray="10 5"/>
<rect x="20" y="20" width="366" height="400" rx="28" fill="#212429"/>
<path d="M61.6113 378.071H118.611" stroke="#E0E1E3" stroke-linecap="round" stroke-linejoin="round"/>
<path opacity="0.2" d="M110.611 115.893C110.611 110.37 115.088 105.893 120.611 105.893V105.893C126.134 105.893 130.611 110.37 130.611 115.893V355.727H110.611V115.893Z" fill="#C1C7D0"/>
<g clip-path="url(#clip0_4867_429)">
<path d="M110.611 194.788C110.611 189.265 115.088 184.788 120.611 184.788V184.788C126.134 184.788 130.611 189.265 130.611 194.788V366.998H110.611V194.788Z" fill="url(#paint0_radial_4867_429)"/>
<line x1="154.539" y1="137.715" x2="26.7065" y2="265.547" stroke="#E8E6EF" stroke-width="2.66667"/>
<line x1="159.335" y1="142.512" x2="31.5034" y2="270.344" stroke="#E8E6EF" stroke-width="2.66667"/>
<line x1="164.133" y1="147.31" x2="36.3008" y2="275.141" stroke="#E8E6EF" stroke-width="2.66667"/>
<line x1="168.93" y1="152.106" x2="41.0977" y2="279.938" stroke="#E8E6EF" stroke-width="2.66667"/>
<line x1="173.727" y1="156.904" x2="45.895" y2="284.736" stroke="#E8E6EF" stroke-width="2.66667"/>
<line x1="178.524" y1="161.701" x2="50.6919" y2="289.533" stroke="#E8E6EF" stroke-width="2.66667"/>
<line x1="183.321" y1="166.498" x2="55.4893" y2="294.33" stroke="#E8E6EF" stroke-width="2.66667"/>
<line x1="188.118" y1="171.295" x2="60.2861" y2="299.127" stroke="#E8E6EF" stroke-width="2.66667"/>
<line x1="192.915" y1="176.092" x2="65.0835" y2="303.924" stroke="#E8E6EF" stroke-width="2.66667"/>
<line x1="197.712" y1="180.889" x2="69.8804" y2="308.721" stroke="#E8E6EF" stroke-width="2.66667"/>
<line x1="202.51" y1="185.686" x2="74.6777" y2="313.518" stroke="#E8E6EF" stroke-width="2.66667"/>
<line x1="207.307" y1="190.483" x2="79.4746" y2="318.315" stroke="#E8E6EF" stroke-width="2.66667"/>
<line x1="212.104" y1="195.281" x2="84.272" y2="323.113" stroke="#E8E6EF" stroke-width="2.66667"/>
<line x1="216.901" y1="200.078" x2="89.0688" y2="327.91" stroke="#E8E6EF" stroke-width="2.66667"/>
<line x1="221.698" y1="204.875" x2="93.8662" y2="332.707" stroke="#E8E6EF" stroke-width="2.66667"/>
<line x1="226.495" y1="209.672" x2="98.6631" y2="337.504" stroke="#E8E6EF" stroke-width="2.66667"/>
<line x1="231.292" y1="214.469" x2="103.46" y2="342.301" stroke="#E8E6EF" stroke-width="2.66667"/>
<line x1="236.089" y1="219.266" x2="108.257" y2="347.098" stroke="#E8E6EF" stroke-width="2.66667"/>
</g>
<path d="M111.562 395.013C111.289 395.013 111.042 394.973 110.822 394.893C110.609 394.813 110.419 394.71 110.252 394.583C110.086 394.45 109.946 394.303 109.832 394.143C109.719 393.976 109.629 393.81 109.562 393.643L110.352 393.243C110.479 393.503 110.639 393.713 110.832 393.873C111.032 394.033 111.276 394.113 111.562 394.113C111.796 394.113 112.019 394.06 112.232 393.953C112.446 393.846 112.622 393.67 112.762 393.423C112.902 393.17 112.972 392.84 112.972 392.433V387.893H113.952V392.783C113.952 393.15 113.886 393.473 113.752 393.753C113.626 394.026 113.449 394.26 113.222 394.453C113.002 394.64 112.749 394.78 112.462 394.873C112.176 394.966 111.876 395.013 111.562 395.013ZM118.476 394.893L118.436 394.023V392.283C118.436 391.916 118.393 391.61 118.306 391.363C118.226 391.116 118.1 390.93 117.926 390.803C117.76 390.676 117.536 390.613 117.256 390.613C116.996 390.613 116.77 390.666 116.576 390.773C116.39 390.88 116.233 391.046 116.106 391.273L115.266 390.953C115.386 390.726 115.536 390.526 115.716 390.353C115.896 390.173 116.113 390.033 116.366 389.933C116.62 389.826 116.916 389.773 117.256 389.773C117.73 389.773 118.123 389.866 118.436 390.053C118.75 390.24 118.983 390.51 119.136 390.863C119.296 391.216 119.373 391.653 119.366 392.173L119.356 394.893H118.476ZM117.006 395.013C116.413 395.013 115.95 394.88 115.616 394.613C115.29 394.34 115.126 393.963 115.126 393.483C115.126 392.97 115.296 392.58 115.636 392.313C115.983 392.04 116.463 391.903 117.076 391.903H118.466V392.653H117.336C116.876 392.653 116.553 392.726 116.366 392.873C116.18 393.013 116.086 393.21 116.086 393.463C116.086 393.696 116.173 393.88 116.346 394.013C116.526 394.14 116.773 394.203 117.086 394.203C117.36 394.203 117.596 394.146 117.796 394.033C117.996 393.913 118.153 393.746 118.266 393.533C118.38 393.32 118.436 393.076 118.436 392.803H118.766C118.766 393.483 118.62 394.023 118.326 394.423C118.04 394.816 117.6 395.013 117.006 395.013ZM120.563 394.893V389.893H121.453L121.513 390.813V394.893H120.563ZM124.023 394.893V392.333H124.973V394.893H124.023ZM124.023 392.333C124.023 391.88 123.969 391.536 123.863 391.303C123.763 391.063 123.619 390.896 123.433 390.803C123.253 390.71 123.043 390.66 122.803 390.653C122.396 390.653 122.079 390.796 121.853 391.083C121.626 391.37 121.513 391.773 121.513 392.293H121.103C121.103 391.766 121.179 391.316 121.333 390.943C121.493 390.563 121.716 390.273 122.003 390.073C122.296 389.873 122.643 389.773 123.043 389.773C123.436 389.773 123.776 389.853 124.063 390.013C124.356 390.173 124.579 390.423 124.733 390.763C124.893 391.096 124.973 391.536 124.973 392.083V392.333H124.023Z" fill="#878A94"/>
<path d="M158.006 393.728V386.728H162.246V387.628H158.986V389.828H161.826V390.728H158.986V393.728H158.006ZM165.387 393.848C164.9 393.848 164.47 393.738 164.097 393.518C163.723 393.291 163.43 392.981 163.217 392.588C163.003 392.194 162.897 391.741 162.897 391.228C162.897 390.714 163.003 390.261 163.217 389.868C163.43 389.474 163.723 389.168 164.097 388.948C164.477 388.721 164.91 388.608 165.397 388.608C165.857 388.608 166.26 388.724 166.607 388.958C166.953 389.184 167.223 389.511 167.417 389.938C167.617 390.358 167.717 390.854 167.717 391.428H163.677L163.857 391.278C163.857 391.631 163.927 391.938 164.067 392.198C164.207 392.458 164.397 392.658 164.637 392.798C164.877 392.931 165.15 392.998 165.457 392.998C165.79 392.998 166.067 392.921 166.287 392.768C166.513 392.608 166.69 392.408 166.817 392.168L167.637 392.548C167.503 392.808 167.33 393.038 167.117 393.238C166.903 393.431 166.65 393.581 166.357 393.688C166.07 393.794 165.747 393.848 165.387 393.848ZM163.917 390.828L163.727 390.678H166.887L166.707 390.828C166.707 390.534 166.647 390.284 166.527 390.078C166.407 389.864 166.247 389.704 166.047 389.598C165.847 389.484 165.623 389.428 165.377 389.428C165.137 389.428 164.903 389.484 164.677 389.598C164.457 389.704 164.273 389.861 164.127 390.068C163.987 390.274 163.917 390.528 163.917 390.828ZM168.655 393.728V386.728H169.605V392.798L169.555 393.728H168.655ZM171.245 393.848C170.825 393.848 170.459 393.738 170.145 393.518C169.839 393.298 169.602 392.991 169.435 392.598C169.269 392.204 169.185 391.748 169.185 391.228C169.185 390.701 169.269 390.244 169.435 389.858C169.602 389.464 169.839 389.158 170.145 388.938C170.459 388.718 170.825 388.608 171.245 388.608C171.692 388.608 172.085 388.718 172.425 388.938C172.765 389.158 173.029 389.464 173.215 389.858C173.409 390.244 173.505 390.701 173.505 391.228C173.505 391.748 173.409 392.204 173.215 392.598C173.029 392.991 172.765 393.298 172.425 393.518C172.085 393.738 171.692 393.848 171.245 393.848ZM171.015 392.988C171.315 392.988 171.579 392.914 171.805 392.768C172.032 392.614 172.209 392.408 172.335 392.148C172.469 391.881 172.535 391.574 172.535 391.228C172.535 390.881 172.472 390.578 172.345 390.318C172.219 390.051 172.042 389.844 171.815 389.698C171.589 389.544 171.325 389.468 171.025 389.468C170.752 389.468 170.505 389.544 170.285 389.698C170.072 389.844 169.905 390.051 169.785 390.318C169.665 390.584 169.605 390.888 169.605 391.228C169.605 391.574 169.665 391.881 169.785 392.148C169.905 392.408 170.072 392.614 170.285 392.768C170.499 392.914 170.742 392.988 171.015 392.988Z" fill="#878A94"/>
<path d="M207.826 393.728V386.728H208.866L211.186 390.158L213.496 386.728H214.536V393.728H213.556V388.308L211.176 391.818L208.806 388.318V393.728H207.826ZM219.152 393.728L219.112 392.858V391.118C219.112 390.751 219.069 390.444 218.982 390.198C218.902 389.951 218.775 389.764 218.602 389.638C218.435 389.511 218.212 389.448 217.932 389.448C217.672 389.448 217.445 389.501 217.252 389.608C217.065 389.714 216.909 389.881 216.782 390.108L215.942 389.788C216.062 389.561 216.212 389.361 216.392 389.188C216.572 389.008 216.789 388.868 217.042 388.768C217.295 388.661 217.592 388.608 217.932 388.608C218.405 388.608 218.799 388.701 219.112 388.888C219.425 389.074 219.659 389.344 219.812 389.698C219.972 390.051 220.049 390.488 220.042 391.008L220.032 393.728H219.152ZM217.682 393.848C217.089 393.848 216.625 393.714 216.292 393.448C215.965 393.174 215.802 392.798 215.802 392.318C215.802 391.804 215.972 391.414 216.312 391.148C216.659 390.874 217.139 390.738 217.752 390.738H219.142V391.488H218.012C217.552 391.488 217.229 391.561 217.042 391.708C216.855 391.848 216.762 392.044 216.762 392.298C216.762 392.531 216.849 392.714 217.022 392.848C217.202 392.974 217.449 393.038 217.762 393.038C218.035 393.038 218.272 392.981 218.472 392.868C218.672 392.748 218.829 392.581 218.942 392.368C219.055 392.154 219.112 391.911 219.112 391.638H219.442C219.442 392.318 219.295 392.858 219.002 393.258C218.715 393.651 218.275 393.848 217.682 393.848ZM221.818 391.038C221.818 390.498 221.922 390.058 222.128 389.718C222.335 389.378 222.602 389.124 222.928 388.958C223.255 388.791 223.598 388.708 223.958 388.708V389.608C223.658 389.608 223.372 389.654 223.098 389.748C222.832 389.834 222.612 389.981 222.438 390.188C222.272 390.388 222.188 390.661 222.188 391.008L221.818 391.038ZM221.238 393.728V388.728H222.188V393.728H221.238Z" fill="#878A94"/>
<path d="M261.086 393.728L258.316 386.728H259.316L262.136 393.728H261.086ZM255.446 393.728L258.266 386.728H259.266L256.496 393.728H255.446ZM256.776 391.858V390.978H260.806V391.858H256.776ZM262.931 395.728V388.728H263.821L263.881 389.648V395.728H262.931ZM265.521 393.848C265.101 393.848 264.734 393.738 264.421 393.518C264.114 393.298 263.878 392.991 263.711 392.598C263.544 392.204 263.461 391.748 263.461 391.228C263.461 390.701 263.544 390.244 263.711 389.858C263.878 389.464 264.114 389.158 264.421 388.938C264.734 388.718 265.101 388.608 265.521 388.608C265.968 388.608 266.361 388.718 266.701 388.938C267.041 389.158 267.304 389.464 267.491 389.858C267.684 390.244 267.781 390.701 267.781 391.228C267.781 391.748 267.684 392.204 267.491 392.598C267.304 392.991 267.041 393.298 266.701 393.518C266.361 393.738 265.968 393.848 265.521 393.848ZM265.291 392.988C265.591 392.988 265.854 392.914 266.081 392.768C266.308 392.614 266.484 392.408 266.611 392.148C266.744 391.881 266.811 391.574 266.811 391.228C266.811 390.881 266.748 390.578 266.621 390.318C266.494 390.051 266.318 389.844 266.091 389.698C265.864 389.544 265.601 389.468 265.301 389.468C265.028 389.468 264.781 389.544 264.561 389.698C264.348 389.844 264.181 390.051 264.061 390.318C263.941 390.584 263.881 390.888 263.881 391.228C263.881 391.574 263.941 391.881 264.061 392.148C264.181 392.408 264.348 392.614 264.561 392.768C264.774 392.914 265.018 392.988 265.291 392.988ZM269.398 391.038C269.398 390.498 269.502 390.058 269.708 389.718C269.915 389.378 270.182 389.124 270.508 388.958C270.835 388.791 271.178 388.708 271.538 388.708V389.608C271.238 389.608 270.952 389.654 270.678 389.748C270.412 389.834 270.192 389.981 270.018 390.188C269.852 390.388 269.768 390.661 269.768 391.008L269.398 391.038ZM268.818 393.728V388.728H269.768V393.728H268.818Z" fill="#878A94"/>
<path d="M118.611 378.071H180.389" stroke="#E0E1E3" stroke-linecap="round" stroke-linejoin="round"/>
<path opacity="0.2" d="M159.611 105.401C159.611 99.8785 164.088 95.4014 169.611 95.4014V95.4014C175.134 95.4014 179.611 99.8785 179.611 105.401V353.14H159.611V105.401Z" fill="#C1C7D0"/>
<g clip-path="url(#clip1_4867_429)">
<path d="M159.611 188.543C159.611 183.02 164.088 178.543 169.611 178.543V178.543C175.134 178.543 179.611 183.02 179.611 188.543V366.997H159.611V188.543Z" fill="url(#paint1_radial_4867_429)"/>
<line x1="203.539" y1="131.47" x2="75.7065" y2="259.302" stroke="#E8E6EF" stroke-width="2.66667"/>
<line x1="208.335" y1="136.267" x2="80.5034" y2="264.099" stroke="#E8E6EF" stroke-width="2.66667"/>
<line x1="213.133" y1="141.064" x2="85.3008" y2="268.896" stroke="#E8E6EF" stroke-width="2.66667"/>
<line x1="217.93" y1="145.861" x2="90.0977" y2="273.693" stroke="#E8E6EF" stroke-width="2.66667"/>
<line x1="222.727" y1="150.659" x2="94.895" y2="278.491" stroke="#E8E6EF" stroke-width="2.66667"/>
<line x1="227.524" y1="155.456" x2="99.6919" y2="283.287" stroke="#E8E6EF" stroke-width="2.66667"/>
<line x1="232.321" y1="160.253" x2="104.489" y2="288.085" stroke="#E8E6EF" stroke-width="2.66667"/>
<line x1="237.118" y1="165.05" x2="109.286" y2="292.882" stroke="#E8E6EF" stroke-width="2.66667"/>
<line x1="241.915" y1="169.847" x2="114.083" y2="297.679" stroke="#E8E6EF" stroke-width="2.66667"/>
<line x1="246.712" y1="174.644" x2="118.88" y2="302.476" stroke="#E8E6EF" stroke-width="2.66667"/>
<line x1="251.51" y1="179.441" x2="123.678" y2="307.273" stroke="#E8E6EF" stroke-width="2.66667"/>
<line x1="256.307" y1="184.238" x2="128.475" y2="312.07" stroke="#E8E6EF" stroke-width="2.66667"/>
<line x1="261.104" y1="189.036" x2="133.272" y2="316.868" stroke="#E8E6EF" stroke-width="2.66667"/>
<line x1="265.901" y1="193.832" x2="138.069" y2="321.664" stroke="#E8E6EF" stroke-width="2.66667"/>
<line x1="270.698" y1="198.63" x2="142.866" y2="326.462" stroke="#E8E6EF" stroke-width="2.66667"/>
<line x1="275.495" y1="203.427" x2="147.663" y2="331.259" stroke="#E8E6EF" stroke-width="2.66667"/>
<line x1="280.292" y1="208.224" x2="152.46" y2="336.056" stroke="#E8E6EF" stroke-width="2.66667"/>
<line x1="285.089" y1="213.021" x2="157.257" y2="340.853" stroke="#E8E6EF" stroke-width="2.66667"/>
</g>
<path d="M179.611 378.071H241.389" stroke="#E0E1E3" stroke-linecap="round" stroke-linejoin="round"/>
<path opacity="0.2" d="M209.861 54.6538C209.861 49.4761 214.059 45.2788 219.236 45.2788V45.2788C224.414 45.2788 228.611 49.4761 228.611 54.6538V350.583H209.861V54.6538Z" fill="#C1C7D0"/>
<g clip-path="url(#clip2_4867_429)">
<path d="M208.611 153.139C208.611 147.961 212.809 143.764 217.986 143.764V143.764C223.164 143.764 227.361 147.961 227.361 153.139V366.998H208.611V153.139Z" fill="url(#paint2_radial_4867_429)"/>
<line x1="252.539" y1="96.6913" x2="124.707" y2="224.523" stroke="#E8E6EF" stroke-width="2.66667"/>
<line x1="257.335" y1="101.488" x2="129.503" y2="229.32" stroke="#E8E6EF" stroke-width="2.66667"/>
<line x1="262.133" y1="106.286" x2="134.301" y2="234.118" stroke="#E8E6EF" stroke-width="2.66667"/>
<line x1="266.93" y1="111.082" x2="139.098" y2="238.914" stroke="#E8E6EF" stroke-width="2.66667"/>
<line x1="271.727" y1="115.88" x2="143.895" y2="243.712" stroke="#E8E6EF" stroke-width="2.66667"/>
<line x1="276.524" y1="120.677" x2="148.692" y2="248.509" stroke="#E8E6EF" stroke-width="2.66667"/>
<line x1="281.321" y1="125.474" x2="153.489" y2="253.306" stroke="#E8E6EF" stroke-width="2.66667"/>
<line x1="286.118" y1="130.271" x2="158.286" y2="258.103" stroke="#E8E6EF" stroke-width="2.66667"/>
<line x1="290.915" y1="135.068" x2="163.083" y2="262.9" stroke="#E8E6EF" stroke-width="2.66667"/>
<line x1="295.712" y1="139.865" x2="167.88" y2="267.697" stroke="#E8E6EF" stroke-width="2.66667"/>
<line x1="300.51" y1="144.663" x2="172.678" y2="272.494" stroke="#E8E6EF" stroke-width="2.66667"/>
<line x1="305.307" y1="149.459" x2="177.475" y2="277.291" stroke="#E8E6EF" stroke-width="2.66667"/>
<line x1="310.104" y1="154.257" x2="182.272" y2="282.089" stroke="#E8E6EF" stroke-width="2.66667"/>
<line x1="314.901" y1="159.054" x2="187.069" y2="286.886" stroke="#E8E6EF" stroke-width="2.66667"/>
<line x1="319.698" y1="163.851" x2="191.866" y2="291.683" stroke="#E8E6EF" stroke-width="2.66667"/>
<line x1="324.495" y1="168.648" x2="196.663" y2="296.48" stroke="#E8E6EF" stroke-width="2.66667"/>
<line x1="329.292" y1="173.445" x2="201.46" y2="301.277" stroke="#E8E6EF" stroke-width="2.66667"/>
<line x1="334.089" y1="178.242" x2="206.257" y2="306.074" stroke="#E8E6EF" stroke-width="2.66667"/>
</g>
<path d="M241.611 378.071H303.389" stroke="#E0E1E3" stroke-linecap="round" stroke-linejoin="round"/>
<path opacity="0.2" d="M256.611 91.4141C256.611 85.8912 261.088 81.4141 266.611 81.4141V81.4141C272.134 81.4141 276.611 85.8912 276.611 91.4141V352.427H256.611V91.4141Z" fill="#C1C7D0"/>
<g clip-path="url(#clip3_4867_429)">
<path d="M256.611 178.837C256.611 173.315 261.088 168.837 266.611 168.837V168.837C272.134 168.837 276.611 173.315 276.611 178.837V366.998H256.611V178.837Z" fill="url(#paint3_radial_4867_429)"/>
<line x1="300.539" y1="121.765" x2="172.707" y2="249.597" stroke="#E8E6EF" stroke-width="2.66667"/>
<line x1="305.335" y1="126.561" x2="177.503" y2="254.393" stroke="#E8E6EF" stroke-width="2.66667"/>
<line x1="310.133" y1="131.359" x2="182.301" y2="259.191" stroke="#E8E6EF" stroke-width="2.66667"/>
<line x1="314.93" y1="136.156" x2="187.098" y2="263.988" stroke="#E8E6EF" stroke-width="2.66667"/>
<line x1="319.727" y1="140.953" x2="191.895" y2="268.785" stroke="#E8E6EF" stroke-width="2.66667"/>
<line x1="324.524" y1="145.75" x2="196.692" y2="273.582" stroke="#E8E6EF" stroke-width="2.66667"/>
<line x1="329.321" y1="150.547" x2="201.489" y2="278.379" stroke="#E8E6EF" stroke-width="2.66667"/>
<line x1="334.118" y1="155.344" x2="206.286" y2="283.176" stroke="#E8E6EF" stroke-width="2.66667"/>
<line x1="338.915" y1="160.142" x2="211.083" y2="287.973" stroke="#E8E6EF" stroke-width="2.66667"/>
<line x1="343.712" y1="164.938" x2="215.88" y2="292.77" stroke="#E8E6EF" stroke-width="2.66667"/>
<line x1="348.51" y1="169.736" x2="220.678" y2="297.568" stroke="#E8E6EF" stroke-width="2.66667"/>
<line x1="353.307" y1="174.533" x2="225.475" y2="302.365" stroke="#E8E6EF" stroke-width="2.66667"/>
<line x1="358.104" y1="179.33" x2="230.272" y2="307.162" stroke="#E8E6EF" stroke-width="2.66667"/>
<line x1="362.901" y1="184.127" x2="235.069" y2="311.959" stroke="#E8E6EF" stroke-width="2.66667"/>
<line x1="367.698" y1="188.924" x2="239.866" y2="316.756" stroke="#E8E6EF" stroke-width="2.66667"/>
<line x1="372.495" y1="193.721" x2="244.663" y2="321.553" stroke="#E8E6EF" stroke-width="2.66667"/>
<line x1="377.292" y1="198.518" x2="249.46" y2="326.35" stroke="#E8E6EF" stroke-width="2.66667"/>
<line x1="382.089" y1="203.315" x2="254.257" y2="331.147" stroke="#E8E6EF" stroke-width="2.66667"/>
</g>
<path opacity="0.2" d="M303.611 175.341C303.611 169.818 308.088 165.341 313.611 165.341V165.341C319.134 165.341 323.611 169.818 323.611 175.341V356.709H303.611V175.341Z" fill="#C1C7D0"/>
<g clip-path="url(#clip4_4867_429)">
<path d="M303.611 237.072C303.611 231.549 308.088 227.072 313.611 227.072V227.072C319.134 227.072 323.611 231.549 323.611 237.072V366.998H303.611V237.072Z" fill="url(#paint4_radial_4867_429)"/>
<line x1="347.539" y1="179.999" x2="219.707" y2="307.831" stroke="#E8E6EF" stroke-width="2.66667"/>
<line x1="352.335" y1="184.796" x2="224.503" y2="312.628" stroke="#E8E6EF" stroke-width="2.66667"/>
<line x1="357.133" y1="189.594" x2="229.301" y2="317.426" stroke="#E8E6EF" stroke-width="2.66667"/>
<line x1="361.93" y1="194.391" x2="234.098" y2="322.223" stroke="#E8E6EF" stroke-width="2.66667"/>
<line x1="366.727" y1="199.188" x2="238.895" y2="327.02" stroke="#E8E6EF" stroke-width="2.66667"/>
<line x1="371.524" y1="203.985" x2="243.692" y2="331.817" stroke="#E8E6EF" stroke-width="2.66667"/>
<line x1="376.321" y1="208.782" x2="248.489" y2="336.614" stroke="#E8E6EF" stroke-width="2.66667"/>
<line x1="381.118" y1="213.579" x2="253.286" y2="341.411" stroke="#E8E6EF" stroke-width="2.66667"/>
<line x1="385.915" y1="218.376" x2="258.083" y2="346.208" stroke="#E8E6EF" stroke-width="2.66667"/>
<line x1="390.712" y1="223.173" x2="262.88" y2="351.005" stroke="#E8E6EF" stroke-width="2.66667"/>
<line x1="395.51" y1="227.971" x2="267.678" y2="355.803" stroke="#E8E6EF" stroke-width="2.66667"/>
<line x1="400.307" y1="232.768" x2="272.475" y2="360.599" stroke="#E8E6EF" stroke-width="2.66667"/>
<line x1="405.104" y1="237.565" x2="277.272" y2="365.397" stroke="#E8E6EF" stroke-width="2.66667"/>
<line x1="409.901" y1="242.362" x2="282.069" y2="370.194" stroke="#E8E6EF" stroke-width="2.66667"/>
<line x1="414.698" y1="247.159" x2="286.866" y2="374.991" stroke="#E8E6EF" stroke-width="2.66667"/>
<line x1="419.495" y1="251.956" x2="291.663" y2="379.788" stroke="#E8E6EF" stroke-width="2.66667"/>
<line x1="424.292" y1="256.753" x2="296.46" y2="384.585" stroke="#E8E6EF" stroke-width="2.66667"/>
<line x1="429.089" y1="261.55" x2="301.257" y2="389.382" stroke="#E8E6EF" stroke-width="2.66667"/>
</g>
<path d="M271.611 378.071H333.389" stroke="#E0E1E3" stroke-linecap="round" stroke-linejoin="round"/>
<path d="M72.7213 131.546V125.076L72.8113 124.546H73.6813V131.546H72.7213ZM71.1713 126.456V125.566C71.318 125.573 71.488 125.526 71.6813 125.426C71.8813 125.326 72.0813 125.196 72.2813 125.036C72.4813 124.876 72.658 124.709 72.8113 124.536L73.4213 125.196C73.1947 125.436 72.958 125.653 72.7113 125.846C72.4647 126.039 72.2113 126.193 71.9513 126.306C71.698 126.419 71.438 126.469 71.1713 126.456ZM77.9815 131.666C77.4415 131.666 76.9615 131.513 76.5415 131.206C76.1215 130.893 75.7915 130.466 75.5515 129.926C75.3182 129.379 75.2015 128.753 75.2015 128.046C75.2015 127.339 75.3182 126.716 75.5515 126.176C75.7915 125.629 76.1182 125.203 76.5315 124.896C76.9515 124.583 77.4348 124.426 77.9815 124.426C78.5282 124.426 79.0082 124.583 79.4215 124.896C79.8415 125.203 80.1715 125.629 80.4115 126.176C80.6515 126.716 80.7715 127.339 80.7715 128.046C80.7715 128.753 80.6515 129.379 80.4115 129.926C80.1782 130.466 79.8515 130.893 79.4315 131.206C79.0115 131.513 78.5282 131.666 77.9815 131.666ZM77.9815 130.766C78.3348 130.766 78.6482 130.649 78.9215 130.416C79.2015 130.183 79.4182 129.863 79.5715 129.456C79.7248 129.049 79.8015 128.579 79.8015 128.046C79.8015 127.513 79.7248 127.043 79.5715 126.636C79.4182 126.223 79.2015 125.899 78.9215 125.666C78.6482 125.433 78.3348 125.316 77.9815 125.316C77.6282 125.316 77.3148 125.433 77.0415 125.666C76.7682 125.899 76.5548 126.223 76.4015 126.636C76.2482 127.043 76.1715 127.513 76.1715 128.046C76.1715 128.579 76.2482 129.053 76.4015 129.466C76.5548 129.873 76.7682 130.193 77.0415 130.426C77.3148 130.653 77.6282 130.766 77.9815 130.766ZM84.4073 131.666C83.8673 131.666 83.3873 131.513 82.9673 131.206C82.5473 130.893 82.2173 130.466 81.9773 129.926C81.7439 129.379 81.6273 128.753 81.6273 128.046C81.6273 127.339 81.7439 126.716 81.9773 126.176C82.2173 125.629 82.5439 125.203 82.9573 124.896C83.3773 124.583 83.8606 124.426 84.4073 124.426C84.9539 124.426 85.4339 124.583 85.8473 124.896C86.2673 125.203 86.5973 125.629 86.8373 126.176C87.0773 126.716 87.1973 127.339 87.1973 128.046C87.1973 128.753 87.0773 129.379 86.8373 129.926C86.6039 130.466 86.2773 130.893 85.8573 131.206C85.4373 131.513 84.9539 131.666 84.4073 131.666ZM84.4073 130.766C84.7606 130.766 85.0739 130.649 85.3473 130.416C85.6273 130.183 85.8439 129.863 85.9973 129.456C86.1506 129.049 86.2273 128.579 86.2273 128.046C86.2273 127.513 86.1506 127.043 85.9973 126.636C85.8439 126.223 85.6273 125.899 85.3473 125.666C85.0739 125.433 84.7606 125.316 84.4073 125.316C84.0539 125.316 83.7406 125.433 83.4673 125.666C83.1939 125.899 82.9806 126.223 82.8273 126.636C82.6739 127.043 82.5973 127.513 82.5973 128.046C82.5973 128.579 82.6739 129.053 82.8273 129.466C82.9806 129.873 83.1939 130.193 83.4673 130.426C83.7406 130.653 84.0539 130.766 84.4073 130.766ZM88.573 131.546L93.543 124.546H94.583L89.583 131.546H88.573ZM93.523 131.706C93.2164 131.706 92.943 131.633 92.703 131.486C92.463 131.339 92.2764 131.139 92.143 130.886C92.0097 130.633 91.943 130.346 91.943 130.026C91.943 129.693 92.0097 129.403 92.143 129.156C92.2764 128.903 92.463 128.706 92.703 128.566C92.943 128.419 93.2164 128.346 93.523 128.346C93.8297 128.346 94.0997 128.419 94.333 128.566C94.573 128.706 94.7597 128.903 94.893 129.156C95.0264 129.403 95.093 129.693 95.093 130.026C95.093 130.346 95.0264 130.633 94.893 130.886C94.7597 131.139 94.573 131.339 94.333 131.486C94.0997 131.633 93.8297 131.706 93.523 131.706ZM93.523 130.996C93.763 130.996 93.9564 130.906 94.103 130.726C94.2564 130.539 94.333 130.306 94.333 130.026C94.333 129.746 94.2564 129.513 94.103 129.326C93.9564 129.139 93.763 129.046 93.523 129.046C93.283 129.046 93.0864 129.139 92.933 129.326C92.7797 129.513 92.703 129.746 92.703 130.026C92.703 130.306 92.7797 130.539 92.933 130.726C93.0864 130.906 93.283 130.996 93.523 130.996ZM89.653 127.746C89.3464 127.746 89.073 127.676 88.833 127.536C88.5997 127.389 88.4164 127.189 88.283 126.936C88.1497 126.676 88.083 126.386 88.083 126.066C88.083 125.733 88.1497 125.443 88.283 125.196C88.4164 124.943 88.5997 124.746 88.833 124.606C89.073 124.459 89.3464 124.386 89.653 124.386C89.9664 124.386 90.2397 124.459 90.473 124.606C90.713 124.746 90.8997 124.943 91.033 125.196C91.1664 125.443 91.233 125.733 91.233 126.066C91.233 126.386 91.1664 126.676 91.033 126.936C90.8997 127.189 90.713 127.389 90.473 127.536C90.2397 127.676 89.9664 127.746 89.653 127.746ZM89.653 127.036C89.893 127.036 90.0897 126.946 90.243 126.766C90.3964 126.579 90.473 126.346 90.473 126.066C90.473 125.786 90.3964 125.556 90.243 125.376C90.0897 125.189 89.893 125.096 89.653 125.096C89.4197 125.096 89.2264 125.189 89.073 125.376C88.9197 125.556 88.843 125.786 88.843 126.066C88.843 126.346 88.9197 126.579 89.073 126.766C89.2264 126.946 89.4197 127.036 89.653 127.036Z" fill="#878A94"/>
<path d="M71.4613 189.071L74.7613 182.761L75.7313 182.861L72.5513 189.071H71.4613ZM71.0013 182.971V182.071H75.7313V182.861L74.8813 182.971H71.0013ZM78.9413 189.191C78.6479 189.191 78.3479 189.147 78.0413 189.061C77.7413 188.967 77.4613 188.831 77.2013 188.651C76.9413 188.464 76.7346 188.227 76.5813 187.941L77.4113 187.561C77.6246 187.827 77.8579 188.024 78.1113 188.151C78.3646 188.271 78.6279 188.331 78.9013 188.331C79.3346 188.331 79.6846 188.201 79.9513 187.941C80.2179 187.681 80.3513 187.334 80.3513 186.901C80.3513 186.481 80.2213 186.137 79.9613 185.871C79.7013 185.604 79.3613 185.471 78.9413 185.471C78.7013 185.471 78.4713 185.524 78.2513 185.631C78.0313 185.731 77.8613 185.857 77.7413 186.011L76.8513 185.811L77.2113 182.071H81.0013V182.971H78.0713L77.8613 185.041C78.0479 184.934 78.2546 184.847 78.4813 184.781C78.7079 184.714 78.9379 184.681 79.1713 184.681C79.5913 184.681 79.9646 184.774 80.2913 184.961C80.6179 185.147 80.8746 185.407 81.0613 185.741C81.2546 186.067 81.3513 186.444 81.3513 186.871C81.3513 187.331 81.2479 187.734 81.0413 188.081C80.8346 188.427 80.5513 188.701 80.1913 188.901C79.8313 189.094 79.4146 189.191 78.9413 189.191ZM82.743 189.071L87.713 182.071H88.753L83.753 189.071H82.743ZM87.693 189.231C87.3863 189.231 87.113 189.157 86.873 189.011C86.633 188.864 86.4463 188.664 86.313 188.411C86.1796 188.157 86.113 187.871 86.113 187.551C86.113 187.217 86.1796 186.927 86.313 186.681C86.4463 186.427 86.633 186.231 86.873 186.091C87.113 185.944 87.3863 185.871 87.693 185.871C87.9996 185.871 88.2696 185.944 88.503 186.091C88.743 186.231 88.9296 186.427 89.063 186.681C89.1963 186.927 89.263 187.217 89.263 187.551C89.263 187.871 89.1963 188.157 89.063 188.411C88.9296 188.664 88.743 188.864 88.503 189.011C88.2696 189.157 87.9996 189.231 87.693 189.231ZM87.693 188.521C87.933 188.521 88.1263 188.431 88.273 188.251C88.4263 188.064 88.503 187.831 88.503 187.551C88.503 187.271 88.4263 187.037 88.273 186.851C88.1263 186.664 87.933 186.571 87.693 186.571C87.453 186.571 87.2563 186.664 87.103 186.851C86.9496 187.037 86.873 187.271 86.873 187.551C86.873 187.831 86.9496 188.064 87.103 188.251C87.2563 188.431 87.453 188.521 87.693 188.521ZM83.823 185.271C83.5163 185.271 83.243 185.201 83.003 185.061C82.7696 184.914 82.5863 184.714 82.453 184.461C82.3196 184.201 82.253 183.911 82.253 183.591C82.253 183.257 82.3196 182.967 82.453 182.721C82.5863 182.467 82.7696 182.271 83.003 182.131C83.243 181.984 83.5163 181.911 83.823 181.911C84.1363 181.911 84.4096 181.984 84.643 182.131C84.883 182.271 85.0696 182.467 85.203 182.721C85.3363 182.967 85.403 183.257 85.403 183.591C85.403 183.911 85.3363 184.201 85.203 184.461C85.0696 184.714 84.883 184.914 84.643 185.061C84.4096 185.201 84.1363 185.271 83.823 185.271ZM83.823 184.561C84.063 184.561 84.2596 184.471 84.413 184.291C84.5663 184.104 84.643 183.871 84.643 183.591C84.643 183.311 84.5663 183.081 84.413 182.901C84.2596 182.714 84.063 182.621 83.823 182.621C83.5896 182.621 83.3963 182.714 83.243 182.901C83.0896 183.081 83.013 183.311 83.013 183.591C83.013 183.871 83.0896 184.104 83.243 184.291C83.3963 184.471 83.5896 184.561 83.823 184.561Z" fill="#878A94"/>
<path d="M73.5213 246.715C73.228 246.715 72.928 246.672 72.6213 246.585C72.3213 246.492 72.0413 246.355 71.7813 246.175C71.5213 245.989 71.3147 245.752 71.1613 245.465L71.9913 245.085C72.2047 245.352 72.438 245.549 72.6913 245.675C72.9447 245.795 73.208 245.855 73.4813 245.855C73.9147 245.855 74.2647 245.725 74.5313 245.465C74.798 245.205 74.9313 244.859 74.9313 244.425C74.9313 244.005 74.8013 243.662 74.5413 243.395C74.2813 243.129 73.9413 242.995 73.5213 242.995C73.2813 242.995 73.0513 243.049 72.8313 243.155C72.6113 243.255 72.4413 243.382 72.3213 243.535L71.4313 243.335L71.7913 239.595H75.5813V240.495H72.6513L72.4413 242.565C72.628 242.459 72.8347 242.372 73.0613 242.305C73.288 242.239 73.518 242.205 73.7513 242.205C74.1713 242.205 74.5447 242.299 74.8713 242.485C75.198 242.672 75.4547 242.932 75.6413 243.265C75.8347 243.592 75.9313 243.969 75.9313 244.395C75.9313 244.855 75.828 245.259 75.6213 245.605C75.4147 245.952 75.1313 246.225 74.7713 246.425C74.4113 246.619 73.9947 246.715 73.5213 246.715ZM79.583 246.715C79.043 246.715 78.563 246.562 78.143 246.255C77.723 245.942 77.393 245.515 77.153 244.975C76.9197 244.429 76.803 243.802 76.803 243.095C76.803 242.389 76.9197 241.765 77.153 241.225C77.393 240.679 77.7197 240.252 78.133 239.945C78.553 239.632 79.0364 239.475 79.583 239.475C80.1297 239.475 80.6097 239.632 81.023 239.945C81.443 240.252 81.773 240.679 82.013 241.225C82.253 241.765 82.373 242.389 82.373 243.095C82.373 243.802 82.253 244.429 82.013 244.975C81.7797 245.515 81.453 245.942 81.033 246.255C80.613 246.562 80.1297 246.715 79.583 246.715ZM79.583 245.815C79.9364 245.815 80.2497 245.699 80.523 245.465C80.803 245.232 81.0197 244.912 81.173 244.505C81.3264 244.099 81.403 243.629 81.403 243.095C81.403 242.562 81.3264 242.092 81.173 241.685C81.0197 241.272 80.803 240.949 80.523 240.715C80.2497 240.482 79.9364 240.365 79.583 240.365C79.2297 240.365 78.9164 240.482 78.643 240.715C78.3697 240.949 78.1564 241.272 78.003 241.685C77.8497 242.092 77.773 242.562 77.773 243.095C77.773 243.629 77.8497 244.102 78.003 244.515C78.1564 244.922 78.3697 245.242 78.643 245.475C78.9164 245.702 79.2297 245.815 79.583 245.815ZM83.7488 246.595L88.7188 239.595H89.7588L84.7588 246.595H83.7488ZM88.6988 246.755C88.3922 246.755 88.1188 246.682 87.8788 246.535C87.6388 246.389 87.4522 246.189 87.3188 245.935C87.1855 245.682 87.1188 245.395 87.1188 245.075C87.1188 244.742 87.1855 244.452 87.3188 244.205C87.4522 243.952 87.6388 243.755 87.8788 243.615C88.1188 243.469 88.3922 243.395 88.6988 243.395C89.0055 243.395 89.2755 243.469 89.5088 243.615C89.7488 243.755 89.9355 243.952 90.0688 244.205C90.2022 244.452 90.2688 244.742 90.2688 245.075C90.2688 245.395 90.2022 245.682 90.0688 245.935C89.9355 246.189 89.7488 246.389 89.5088 246.535C89.2755 246.682 89.0055 246.755 88.6988 246.755ZM88.6988 246.045C88.9388 246.045 89.1322 245.955 89.2788 245.775C89.4322 245.589 89.5088 245.355 89.5088 245.075C89.5088 244.795 89.4322 244.562 89.2788 244.375C89.1322 244.189 88.9388 244.095 88.6988 244.095C88.4588 244.095 88.2622 244.189 88.1088 244.375C87.9555 244.562 87.8788 244.795 87.8788 245.075C87.8788 245.355 87.9555 245.589 88.1088 245.775C88.2622 245.955 88.4588 246.045 88.6988 246.045ZM84.8288 242.795C84.5222 242.795 84.2488 242.725 84.0088 242.585C83.7755 242.439 83.5922 242.239 83.4588 241.985C83.3255 241.725 83.2588 241.435 83.2588 241.115C83.2588 240.782 83.3255 240.492 83.4588 240.245C83.5922 239.992 83.7755 239.795 84.0088 239.655C84.2488 239.509 84.5222 239.435 84.8288 239.435C85.1422 239.435 85.4155 239.509 85.6488 239.655C85.8888 239.795 86.0755 239.992 86.2088 240.245C86.3422 240.492 86.4088 240.782 86.4088 241.115C86.4088 241.435 86.3422 241.725 86.2088 241.985C86.0755 242.239 85.8888 242.439 85.6488 242.585C85.4155 242.725 85.1422 242.795 84.8288 242.795ZM84.8288 242.085C85.0688 242.085 85.2655 241.995 85.4188 241.815C85.5722 241.629 85.6488 241.395 85.6488 241.115C85.6488 240.835 85.5722 240.605 85.4188 240.425C85.2655 240.239 85.0688 240.145 84.8288 240.145C84.5955 240.145 84.4022 240.239 84.2488 240.425C84.0955 240.605 84.0188 240.835 84.0188 241.115C84.0188 241.395 84.0955 241.629 84.2488 241.815C84.4022 241.995 84.5955 242.085 84.8288 242.085Z" fill="#878A94"/>
<path d="M71.1713 304.12V303.33C71.1713 303.123 71.218 302.91 71.3113 302.69C71.4113 302.463 71.5513 302.24 71.7313 302.02C71.918 301.8 72.138 301.597 72.3913 301.41L73.7413 300.41C73.9013 300.297 74.0447 300.167 74.1713 300.02C74.3047 299.867 74.408 299.71 74.4813 299.55C74.5613 299.383 74.6013 299.22 74.6013 299.06C74.6013 298.847 74.548 298.653 74.4413 298.48C74.3347 298.3 74.1847 298.16 73.9913 298.06C73.798 297.953 73.568 297.9 73.3013 297.9C73.048 297.9 72.8247 297.95 72.6313 298.05C72.4447 298.143 72.288 298.27 72.1613 298.43C72.0347 298.59 71.9447 298.76 71.8913 298.94L70.8813 298.75C70.9547 298.443 71.098 298.157 71.3113 297.89C71.5247 297.623 71.798 297.41 72.1313 297.25C72.4647 297.083 72.8413 297 73.2613 297C73.7413 297 74.1547 297.09 74.5013 297.27C74.8547 297.443 75.128 297.687 75.3213 298C75.5147 298.307 75.6113 298.66 75.6113 299.06C75.6113 299.447 75.5047 299.803 75.2913 300.13C75.0847 300.457 74.7847 300.773 74.3913 301.08L73.1413 302.02C72.8947 302.207 72.698 302.4 72.5513 302.6C72.4113 302.8 72.3247 303.013 72.2913 303.24H75.7013V304.12H71.1713ZM79.1659 304.24C78.8725 304.24 78.5725 304.197 78.2659 304.11C77.9659 304.017 77.6859 303.88 77.4259 303.7C77.1659 303.513 76.9592 303.277 76.8059 302.99L77.6359 302.61C77.8492 302.877 78.0825 303.073 78.3359 303.2C78.5892 303.32 78.8525 303.38 79.1259 303.38C79.5592 303.38 79.9092 303.25 80.1759 302.99C80.4425 302.73 80.5759 302.383 80.5759 301.95C80.5759 301.53 80.4459 301.187 80.1859 300.92C79.9259 300.653 79.5859 300.52 79.1659 300.52C78.9259 300.52 78.6959 300.573 78.4759 300.68C78.2559 300.78 78.0859 300.907 77.9659 301.06L77.0759 300.86L77.4359 297.12H81.2259V298.02H78.2959L78.0859 300.09C78.2725 299.983 78.4792 299.897 78.7059 299.83C78.9325 299.763 79.1625 299.73 79.3959 299.73C79.8159 299.73 80.1892 299.823 80.5159 300.01C80.8425 300.197 81.0992 300.457 81.2859 300.79C81.4792 301.117 81.5759 301.493 81.5759 301.92C81.5759 302.38 81.4725 302.783 81.2659 303.13C81.0592 303.477 80.7759 303.75 80.4159 303.95C80.0559 304.143 79.6392 304.24 79.1659 304.24ZM82.9676 304.12L87.9376 297.12H88.9776L83.9776 304.12H82.9676ZM87.9176 304.28C87.6109 304.28 87.3376 304.207 87.0976 304.06C86.8576 303.913 86.6709 303.713 86.5376 303.46C86.4042 303.207 86.3376 302.92 86.3376 302.6C86.3376 302.267 86.4042 301.977 86.5376 301.73C86.6709 301.477 86.8576 301.28 87.0976 301.14C87.3376 300.993 87.6109 300.92 87.9176 300.92C88.2242 300.92 88.4942 300.993 88.7276 301.14C88.9676 301.28 89.1542 301.477 89.2876 301.73C89.4209 301.977 89.4876 302.267 89.4876 302.6C89.4876 302.92 89.4209 303.207 89.2876 303.46C89.1542 303.713 88.9676 303.913 88.7276 304.06C88.4942 304.207 88.2242 304.28 87.9176 304.28ZM87.9176 303.57C88.1576 303.57 88.3509 303.48 88.4976 303.3C88.6509 303.113 88.7276 302.88 88.7276 302.6C88.7276 302.32 88.6509 302.087 88.4976 301.9C88.3509 301.713 88.1576 301.62 87.9176 301.62C87.6776 301.62 87.4809 301.713 87.3276 301.9C87.1742 302.087 87.0976 302.32 87.0976 302.6C87.0976 302.88 87.1742 303.113 87.3276 303.3C87.4809 303.48 87.6776 303.57 87.9176 303.57ZM84.0476 300.32C83.7409 300.32 83.4676 300.25 83.2276 300.11C82.9942 299.963 82.8109 299.763 82.6776 299.51C82.5442 299.25 82.4776 298.96 82.4776 298.64C82.4776 298.307 82.5442 298.017 82.6776 297.77C82.8109 297.517 82.9942 297.32 83.2276 297.18C83.4676 297.033 83.7409 296.96 84.0476 296.96C84.3609 296.96 84.6342 297.033 84.8676 297.18C85.1076 297.32 85.2942 297.517 85.4276 297.77C85.5609 298.017 85.6276 298.307 85.6276 298.64C85.6276 298.96 85.5609 299.25 85.4276 299.51C85.2942 299.763 85.1076 299.963 84.8676 300.11C84.6342 300.25 84.3609 300.32 84.0476 300.32ZM84.0476 299.61C84.2876 299.61 84.4842 299.52 84.6376 299.34C84.7909 299.153 84.8676 298.92 84.8676 298.64C84.8676 298.36 84.7909 298.13 84.6376 297.95C84.4842 297.763 84.2876 297.67 84.0476 297.67C83.8142 297.67 83.6209 297.763 83.4676 297.95C83.3142 298.13 83.2376 298.36 83.2376 298.64C83.2376 298.92 83.3142 299.153 83.4676 299.34C83.6209 299.52 83.8142 299.61 84.0476 299.61Z" fill="#878A94"/>
<path d="M73.8213 361.765C73.2813 361.765 72.8013 361.612 72.3813 361.305C71.9613 360.992 71.6313 360.565 71.3913 360.025C71.158 359.478 71.0413 358.852 71.0413 358.145C71.0413 357.438 71.158 356.815 71.3913 356.275C71.6313 355.728 71.958 355.302 72.3713 354.995C72.7913 354.682 73.2747 354.525 73.8213 354.525C74.368 354.525 74.848 354.682 75.2613 354.995C75.6813 355.302 76.0113 355.728 76.2513 356.275C76.4913 356.815 76.6113 357.438 76.6113 358.145C76.6113 358.852 76.4913 359.478 76.2513 360.025C76.018 360.565 75.6913 360.992 75.2713 361.305C74.8513 361.612 74.368 361.765 73.8213 361.765ZM73.8213 360.865C74.1747 360.865 74.488 360.748 74.7613 360.515C75.0413 360.282 75.258 359.962 75.4113 359.555C75.5647 359.148 75.6413 358.678 75.6413 358.145C75.6413 357.612 75.5647 357.142 75.4113 356.735C75.258 356.322 75.0413 355.998 74.7613 355.765C74.488 355.532 74.1747 355.415 73.8213 355.415C73.468 355.415 73.1547 355.532 72.8813 355.765C72.608 355.998 72.3947 356.322 72.2413 356.735C72.088 357.142 72.0113 357.612 72.0113 358.145C72.0113 358.678 72.088 359.152 72.2413 359.565C72.3947 359.972 72.608 360.292 72.8813 360.525C73.1547 360.752 73.468 360.865 73.8213 360.865ZM77.9871 361.645L82.9571 354.645H83.9971L78.9971 361.645H77.9871ZM82.9371 361.805C82.6304 361.805 82.3571 361.732 82.1171 361.585C81.8771 361.438 81.6904 361.238 81.5571 360.985C81.4238 360.732 81.3571 360.445 81.3571 360.125C81.3571 359.792 81.4238 359.502 81.5571 359.255C81.6904 359.002 81.8771 358.805 82.1171 358.665C82.3571 358.518 82.6304 358.445 82.9371 358.445C83.2438 358.445 83.5138 358.518 83.7471 358.665C83.9871 358.805 84.1738 359.002 84.3071 359.255C84.4404 359.502 84.5071 359.792 84.5071 360.125C84.5071 360.445 84.4404 360.732 84.3071 360.985C84.1738 361.238 83.9871 361.438 83.7471 361.585C83.5138 361.732 83.2438 361.805 82.9371 361.805ZM82.9371 361.095C83.1771 361.095 83.3704 361.005 83.5171 360.825C83.6704 360.638 83.7471 360.405 83.7471 360.125C83.7471 359.845 83.6704 359.612 83.5171 359.425C83.3704 359.238 83.1771 359.145 82.9371 359.145C82.6971 359.145 82.5004 359.238 82.3471 359.425C82.1938 359.612 82.1171 359.845 82.1171 360.125C82.1171 360.405 82.1938 360.638 82.3471 360.825C82.5004 361.005 82.6971 361.095 82.9371 361.095ZM79.0671 357.845C78.7604 357.845 78.4871 357.775 78.2471 357.635C78.0138 357.488 77.8304 357.288 77.6971 357.035C77.5638 356.775 77.4971 356.485 77.4971 356.165C77.4971 355.832 77.5638 355.542 77.6971 355.295C77.8304 355.042 78.0138 354.845 78.2471 354.705C78.4871 354.558 78.7604 354.485 79.0671 354.485C79.3804 354.485 79.6538 354.558 79.8871 354.705C80.1271 354.845 80.3138 355.042 80.4471 355.295C80.5804 355.542 80.6471 355.832 80.6471 356.165C80.6471 356.485 80.5804 356.775 80.4471 357.035C80.3138 357.288 80.1271 357.488 79.8871 357.635C79.6538 357.775 79.3804 357.845 79.0671 357.845ZM79.0671 357.135C79.3071 357.135 79.5038 357.045 79.6571 356.865C79.8104 356.678 79.8871 356.445 79.8871 356.165C79.8871 355.885 79.8104 355.655 79.6571 355.475C79.5038 355.288 79.3071 355.195 79.0671 355.195C78.8338 355.195 78.6404 355.288 78.4871 355.475C78.3338 355.655 78.2571 355.885 78.2571 356.165C78.2571 356.445 78.3338 356.678 78.4871 356.865C78.6404 357.045 78.8338 357.135 79.0671 357.135Z" fill="#878A94"/>
<path d="M304.913 393.728V386.728H305.953L308.273 390.158L310.583 386.728H311.623V393.728H310.643V388.308L308.263 391.818L305.893 388.318V393.728H304.913ZM316.239 393.728L316.199 392.858V391.118C316.199 390.751 316.156 390.444 316.069 390.198C315.989 389.951 315.862 389.764 315.689 389.638C315.522 389.511 315.299 389.448 315.019 389.448C314.759 389.448 314.532 389.501 314.339 389.608C314.152 389.714 313.996 389.881 313.869 390.108L313.029 389.788C313.149 389.561 313.299 389.361 313.479 389.188C313.659 389.008 313.876 388.868 314.129 388.768C314.382 388.661 314.679 388.608 315.019 388.608C315.492 388.608 315.886 388.701 316.199 388.888C316.512 389.074 316.746 389.344 316.899 389.698C317.059 390.051 317.136 390.488 317.129 391.008L317.119 393.728H316.239ZM314.769 393.848C314.176 393.848 313.712 393.714 313.379 393.448C313.052 393.174 312.889 392.798 312.889 392.318C312.889 391.804 313.059 391.414 313.399 391.148C313.746 390.874 314.226 390.738 314.839 390.738H316.229V391.488H315.099C314.639 391.488 314.316 391.561 314.129 391.708C313.942 391.848 313.849 392.044 313.849 392.298C313.849 392.531 313.936 392.714 314.109 392.848C314.289 392.974 314.536 393.038 314.849 393.038C315.122 393.038 315.359 392.981 315.559 392.868C315.759 392.748 315.916 392.581 316.029 392.368C316.142 392.154 316.199 391.911 316.199 391.638H316.529C316.529 392.318 316.382 392.858 316.089 393.258C315.802 393.651 315.362 393.848 314.769 393.848ZM318.847 395.848C318.701 395.848 318.537 395.821 318.357 395.768C318.184 395.714 318.004 395.644 317.817 395.558L318.167 394.778C318.314 394.844 318.441 394.894 318.547 394.928C318.661 394.961 318.751 394.978 318.817 394.978C318.984 394.978 319.124 394.931 319.237 394.838C319.357 394.744 319.454 394.614 319.527 394.448L320.107 393.078L321.887 388.728H322.907L320.537 394.348C320.411 394.654 320.277 394.921 320.137 395.148C319.997 395.374 319.824 395.548 319.617 395.668C319.417 395.788 319.161 395.848 318.847 395.848ZM319.847 393.728L317.657 388.728H318.667L320.477 393.068L320.767 393.728H319.847Z" fill="#878A94"/>
<defs>
<radialGradient id="paint0_radial_4867_429" cx="0" cy="0" r="1" gradientUnits="userSpaceOnUse" gradientTransform="translate(120.611 275.893) rotate(90) scale(91.105 10)">
<stop stop-color="#E3F98E"/>
<stop offset="1" stop-color="#E3FF77"/>
</radialGradient>
<radialGradient id="paint1_radial_4867_429" cx="0" cy="0" r="1" gradientUnits="userSpaceOnUse" gradientTransform="translate(169.611 272.77) rotate(90) scale(94.2272 10)">
<stop stop-color="#E3F98E"/>
<stop offset="1" stop-color="#E3FF77"/>
</radialGradient>
<radialGradient id="paint2_radial_4867_429" cx="0" cy="0" r="1" gradientUnits="userSpaceOnUse" gradientTransform="translate(217.986 255.381) rotate(90) scale(111.617 9.375)">
<stop stop-color="#E3F98E"/>
<stop offset="1" stop-color="#E3FF77"/>
</radialGradient>
<radialGradient id="paint3_radial_4867_429" cx="0" cy="0" r="1" gradientUnits="userSpaceOnUse" gradientTransform="translate(266.611 267.917) rotate(90) scale(99.0801 10)">
<stop stop-color="#E3F98E"/>
<stop offset="1" stop-color="#E3FF77"/>
</radialGradient>
<radialGradient id="paint4_radial_4867_429" cx="0" cy="0" r="1" gradientUnits="userSpaceOnUse" gradientTransform="translate(313.611 297.035) rotate(90) scale(69.9627 10)">
<stop stop-color="#E3F98E"/>
<stop offset="1" stop-color="#E3FF77"/>
</radialGradient>
<clipPath id="clip0_4867_429">
<path d="M110.611 194.788C110.611 189.265 115.088 184.788 120.611 184.788V184.788C126.134 184.788 130.611 189.265 130.611 194.788V366.998H110.611V194.788Z" fill="white"/>
</clipPath>
<clipPath id="clip1_4867_429">
<path d="M159.611 188.543C159.611 183.02 164.088 178.543 169.611 178.543V178.543C175.134 178.543 179.611 183.02 179.611 188.543V366.997H159.611V188.543Z" fill="white"/>
</clipPath>
<clipPath id="clip2_4867_429">
<path d="M208.611 153.139C208.611 147.961 212.809 143.764 217.986 143.764V143.764C223.164 143.764 227.361 147.961 227.361 153.139V366.998H208.611V153.139Z" fill="white"/>
</clipPath>
<clipPath id="clip3_4867_429">
<path d="M256.611 178.837C256.611 173.315 261.088 168.837 266.611 168.837V168.837C272.134 168.837 276.611 173.315 276.611 178.837V366.998H256.611V178.837Z" fill="white"/>
</clipPath>
<clipPath id="clip4_4867_429">
<path d="M303.611 237.072C303.611 231.549 308.088 227.072 313.611 227.072V227.072C319.134 227.072 323.611 231.549 323.611 237.072V366.998H303.611V237.072Z" fill="white"/>
</clipPath>
</defs>
</svg>
