<svg width="1420" height="225" viewBox="0 0 1420 225" fill="none" xmlns="http://www.w3.org/2000/svg">
<g clip-path="url(#clip0_1624_1131)">
<rect x="24" y="11" width="325" height="90" rx="15" fill="#D6E680"/>
<path d="M166.236 47.272V64H164.052V56.416H155.532V64H153.348V47.272H155.532V54.616H164.052V47.272H166.236ZM175.701 64.216C174.469 64.216 173.349 63.936 172.341 63.376C171.349 62.816 170.565 62.024 169.989 61C169.429 59.96 169.149 58.76 169.149 57.4C169.149 56.056 169.437 54.872 170.013 53.848C170.605 52.808 171.405 52.016 172.413 51.472C173.421 50.912 174.549 50.632 175.797 50.632C177.045 50.632 178.173 50.912 179.181 51.472C180.189 52.016 180.981 52.8 181.557 53.824C182.149 54.848 182.445 56.04 182.445 57.4C182.445 58.76 182.141 59.96 181.533 61C180.941 62.024 180.133 62.816 179.109 63.376C178.085 63.936 176.949 64.216 175.701 64.216ZM175.701 62.296C176.485 62.296 177.221 62.112 177.909 61.744C178.597 61.376 179.149 60.824 179.565 60.088C179.997 59.352 180.213 58.456 180.213 57.4C180.213 56.344 180.005 55.448 179.589 54.712C179.173 53.976 178.629 53.432 177.957 53.08C177.285 52.712 176.557 52.528 175.773 52.528C174.973 52.528 174.237 52.712 173.565 53.08C172.909 53.432 172.381 53.976 171.981 54.712C171.581 55.448 171.381 56.344 171.381 57.4C171.381 58.472 171.573 59.376 171.957 60.112C172.357 60.848 172.885 61.4 173.541 61.768C174.197 62.12 174.917 62.296 175.701 62.296ZM190.213 61.984L194.293 50.848H196.621L191.461 64H188.917L183.757 50.848H186.109L190.213 61.984ZM210.77 56.92C210.77 57.336 210.746 57.776 210.698 58.24H200.186C200.266 59.536 200.706 60.552 201.506 61.288C202.322 62.008 203.306 62.368 204.458 62.368C205.402 62.368 206.186 62.152 206.81 61.72C207.45 61.272 207.898 60.68 208.154 59.944H210.506C210.154 61.208 209.45 62.24 208.394 63.04C207.338 63.824 206.026 64.216 204.458 64.216C203.21 64.216 202.09 63.936 201.098 63.376C200.122 62.816 199.354 62.024 198.794 61C198.234 59.96 197.954 58.76 197.954 57.4C197.954 56.04 198.226 54.848 198.77 53.824C199.314 52.8 200.074 52.016 201.05 51.472C202.042 50.912 203.178 50.632 204.458 50.632C205.706 50.632 206.81 50.904 207.77 51.448C208.73 51.992 209.466 52.744 209.978 53.704C210.506 54.648 210.77 55.72 210.77 56.92ZM208.514 56.464C208.514 55.632 208.33 54.92 207.962 54.328C207.594 53.72 207.09 53.264 206.45 52.96C205.826 52.64 205.13 52.48 204.362 52.48C203.258 52.48 202.314 52.832 201.53 53.536C200.762 54.24 200.322 55.216 200.21 56.464H208.514ZM215.837 52.984C216.221 52.232 216.765 51.648 217.469 51.232C218.189 50.816 219.061 50.608 220.085 50.608V52.864H219.509C217.061 52.864 215.837 54.192 215.837 56.848V64H213.653V50.848H215.837V52.984Z" fill="#212429"/>
<rect x="374" y="12" width="323" height="88" rx="14" fill="#F0F2E4"/>
<rect x="374" y="12" width="323" height="88" rx="14" stroke="#212429" stroke-width="2"/>
<path d="M515.236 47.272V64H513.052V56.416H504.532V64H502.348V47.272H504.532V54.616H513.052V47.272H515.236ZM524.701 64.216C523.469 64.216 522.349 63.936 521.341 63.376C520.349 62.816 519.565 62.024 518.989 61C518.429 59.96 518.149 58.76 518.149 57.4C518.149 56.056 518.437 54.872 519.013 53.848C519.605 52.808 520.405 52.016 521.413 51.472C522.421 50.912 523.549 50.632 524.797 50.632C526.045 50.632 527.173 50.912 528.181 51.472C529.189 52.016 529.981 52.8 530.557 53.824C531.149 54.848 531.445 56.04 531.445 57.4C531.445 58.76 531.141 59.96 530.533 61C529.941 62.024 529.133 62.816 528.109 63.376C527.085 63.936 525.949 64.216 524.701 64.216ZM524.701 62.296C525.485 62.296 526.221 62.112 526.909 61.744C527.597 61.376 528.149 60.824 528.565 60.088C528.997 59.352 529.213 58.456 529.213 57.4C529.213 56.344 529.005 55.448 528.589 54.712C528.173 53.976 527.629 53.432 526.957 53.08C526.285 52.712 525.557 52.528 524.773 52.528C523.973 52.528 523.237 52.712 522.565 53.08C521.909 53.432 521.381 53.976 520.981 54.712C520.581 55.448 520.381 56.344 520.381 57.4C520.381 58.472 520.573 59.376 520.957 60.112C521.357 60.848 521.885 61.4 522.541 61.768C523.197 62.12 523.917 62.296 524.701 62.296ZM539.213 61.984L543.293 50.848H545.621L540.461 64H537.917L532.757 50.848H535.109L539.213 61.984ZM559.77 56.92C559.77 57.336 559.746 57.776 559.698 58.24H549.186C549.266 59.536 549.706 60.552 550.506 61.288C551.322 62.008 552.306 62.368 553.458 62.368C554.402 62.368 555.186 62.152 555.81 61.72C556.45 61.272 556.898 60.68 557.154 59.944H559.506C559.154 61.208 558.45 62.24 557.394 63.04C556.338 63.824 555.026 64.216 553.458 64.216C552.21 64.216 551.09 63.936 550.098 63.376C549.122 62.816 548.354 62.024 547.794 61C547.234 59.96 546.954 58.76 546.954 57.4C546.954 56.04 547.226 54.848 547.77 53.824C548.314 52.8 549.074 52.016 550.05 51.472C551.042 50.912 552.178 50.632 553.458 50.632C554.706 50.632 555.81 50.904 556.77 51.448C557.73 51.992 558.466 52.744 558.978 53.704C559.506 54.648 559.77 55.72 559.77 56.92ZM557.514 56.464C557.514 55.632 557.33 54.92 556.962 54.328C556.594 53.72 556.09 53.264 555.45 52.96C554.826 52.64 554.13 52.48 553.362 52.48C552.258 52.48 551.314 52.832 550.53 53.536C549.762 54.24 549.322 55.216 549.21 56.464H557.514ZM564.837 52.984C565.221 52.232 565.765 51.648 566.469 51.232C567.189 50.816 568.061 50.608 569.085 50.608V52.864H568.509C566.061 52.864 564.837 54.192 564.837 56.848V64H562.653V50.848H564.837V52.984Z" fill="#212429"/>
<rect x="722" y="11" width="325" height="90" rx="15" fill="#D6E680"/>
<path d="M857.5 55.9962C857.5 57.2454 856.492 58.2538 855.242 58.2538H846.761V66.7424C846.761 67.9841 845.745 69 844.504 69C843.262 69 842.246 67.9841 842.246 66.7424V58.2538H833.758C832.516 58.2538 831.5 57.2454 831.5 55.9962C831.5 54.747 832.516 53.7386 833.758 53.7386H842.246V45.2576C842.246 44.0084 843.255 43 844.504 43C845.753 43 846.761 44.0084 846.761 45.2576V53.7386H855.242C856.492 53.7386 857.5 54.7546 857.5 55.9962Z" fill="#212429"/>
<path d="M882.236 47.272V64H880.052V56.416H871.532V64H869.348V47.272H871.532V54.616H880.052V47.272H882.236ZM891.701 64.216C890.469 64.216 889.349 63.936 888.341 63.376C887.349 62.816 886.565 62.024 885.989 61C885.429 59.96 885.149 58.76 885.149 57.4C885.149 56.056 885.437 54.872 886.013 53.848C886.605 52.808 887.405 52.016 888.413 51.472C889.421 50.912 890.549 50.632 891.797 50.632C893.045 50.632 894.173 50.912 895.181 51.472C896.189 52.016 896.981 52.8 897.557 53.824C898.149 54.848 898.445 56.04 898.445 57.4C898.445 58.76 898.141 59.96 897.533 61C896.941 62.024 896.133 62.816 895.109 63.376C894.085 63.936 892.949 64.216 891.701 64.216ZM891.701 62.296C892.485 62.296 893.221 62.112 893.909 61.744C894.597 61.376 895.149 60.824 895.565 60.088C895.997 59.352 896.213 58.456 896.213 57.4C896.213 56.344 896.005 55.448 895.589 54.712C895.173 53.976 894.629 53.432 893.957 53.08C893.285 52.712 892.557 52.528 891.773 52.528C890.973 52.528 890.237 52.712 889.565 53.08C888.909 53.432 888.381 53.976 887.981 54.712C887.581 55.448 887.381 56.344 887.381 57.4C887.381 58.472 887.573 59.376 887.957 60.112C888.357 60.848 888.885 61.4 889.541 61.768C890.197 62.12 890.917 62.296 891.701 62.296ZM906.213 61.984L910.293 50.848H912.621L907.461 64H904.917L899.757 50.848H902.109L906.213 61.984ZM926.77 56.92C926.77 57.336 926.746 57.776 926.698 58.24H916.186C916.266 59.536 916.706 60.552 917.506 61.288C918.322 62.008 919.306 62.368 920.458 62.368C921.402 62.368 922.186 62.152 922.81 61.72C923.45 61.272 923.898 60.68 924.154 59.944H926.506C926.154 61.208 925.45 62.24 924.394 63.04C923.338 63.824 922.026 64.216 920.458 64.216C919.21 64.216 918.09 63.936 917.098 63.376C916.122 62.816 915.354 62.024 914.794 61C914.234 59.96 913.954 58.76 913.954 57.4C913.954 56.04 914.226 54.848 914.77 53.824C915.314 52.8 916.074 52.016 917.05 51.472C918.042 50.912 919.178 50.632 920.458 50.632C921.706 50.632 922.81 50.904 923.77 51.448C924.73 51.992 925.466 52.744 925.978 53.704C926.506 54.648 926.77 55.72 926.77 56.92ZM924.514 56.464C924.514 55.632 924.33 54.92 923.962 54.328C923.594 53.72 923.09 53.264 922.45 52.96C921.826 52.64 921.13 52.48 920.362 52.48C919.258 52.48 918.314 52.832 917.53 53.536C916.762 54.24 916.322 55.216 916.21 56.464H924.514ZM931.837 52.984C932.221 52.232 932.765 51.648 933.469 51.232C934.189 50.816 935.061 50.608 936.085 50.608V52.864H935.509C933.061 52.864 931.837 54.192 931.837 56.848V64H929.653V50.848H931.837V52.984Z" fill="#212429"/>
<rect x="1072" y="12" width="323" height="88" rx="14" fill="#F0F2E4"/>
<rect x="1072" y="12" width="323" height="88" rx="14" stroke="#212429" stroke-width="2"/>
<path d="M1202 55.9962C1202 57.2454 1200.99 58.2538 1199.74 58.2538H1191.26V66.7424C1191.26 67.9841 1190.25 69 1189 69C1187.76 69 1186.75 67.9841 1186.75 66.7424V58.2538H1178.26C1177.02 58.2538 1176 57.2454 1176 55.9962C1176 54.747 1177.02 53.7386 1178.26 53.7386H1186.75V45.2576C1186.75 44.0084 1187.75 43 1189 43C1190.25 43 1191.26 44.0084 1191.26 45.2576V53.7386H1199.74C1200.99 53.7386 1202 54.7546 1202 55.9962Z" fill="#212429"/>
<path d="M1235.74 47.272V64H1233.55V56.416H1225.03V64H1222.85V47.272H1225.03V54.616H1233.55V47.272H1235.74ZM1245.2 64.216C1243.97 64.216 1242.85 63.936 1241.84 63.376C1240.85 62.816 1240.07 62.024 1239.49 61C1238.93 59.96 1238.65 58.76 1238.65 57.4C1238.65 56.056 1238.94 54.872 1239.51 53.848C1240.11 52.808 1240.91 52.016 1241.91 51.472C1242.92 50.912 1244.05 50.632 1245.3 50.632C1246.55 50.632 1247.67 50.912 1248.68 51.472C1249.69 52.016 1250.48 52.8 1251.06 53.824C1251.65 54.848 1251.95 56.04 1251.95 57.4C1251.95 58.76 1251.64 59.96 1251.03 61C1250.44 62.024 1249.63 62.816 1248.61 63.376C1247.59 63.936 1246.45 64.216 1245.2 64.216ZM1245.2 62.296C1245.99 62.296 1246.72 62.112 1247.41 61.744C1248.1 61.376 1248.65 60.824 1249.07 60.088C1249.5 59.352 1249.71 58.456 1249.71 57.4C1249.71 56.344 1249.51 55.448 1249.09 54.712C1248.67 53.976 1248.13 53.432 1247.46 53.08C1246.79 52.712 1246.06 52.528 1245.27 52.528C1244.47 52.528 1243.74 52.712 1243.07 53.08C1242.41 53.432 1241.88 53.976 1241.48 54.712C1241.08 55.448 1240.88 56.344 1240.88 57.4C1240.88 58.472 1241.07 59.376 1241.46 60.112C1241.86 60.848 1242.39 61.4 1243.04 61.768C1243.7 62.12 1244.42 62.296 1245.2 62.296ZM1259.71 61.984L1263.79 50.848H1266.12L1260.96 64H1258.42L1253.26 50.848H1255.61L1259.71 61.984ZM1280.27 56.92C1280.27 57.336 1280.25 57.776 1280.2 58.24H1269.69C1269.77 59.536 1270.21 60.552 1271.01 61.288C1271.82 62.008 1272.81 62.368 1273.96 62.368C1274.9 62.368 1275.69 62.152 1276.31 61.72C1276.95 61.272 1277.4 60.68 1277.65 59.944H1280.01C1279.65 61.208 1278.95 62.24 1277.89 63.04C1276.84 63.824 1275.53 64.216 1273.96 64.216C1272.71 64.216 1271.59 63.936 1270.6 63.376C1269.62 62.816 1268.85 62.024 1268.29 61C1267.73 59.96 1267.45 58.76 1267.45 57.4C1267.45 56.04 1267.73 54.848 1268.27 53.824C1268.81 52.8 1269.57 52.016 1270.55 51.472C1271.54 50.912 1272.68 50.632 1273.96 50.632C1275.21 50.632 1276.31 50.904 1277.27 51.448C1278.23 51.992 1278.97 52.744 1279.48 53.704C1280.01 54.648 1280.27 55.72 1280.27 56.92ZM1278.01 56.464C1278.01 55.632 1277.83 54.92 1277.46 54.328C1277.09 53.72 1276.59 53.264 1275.95 52.96C1275.33 52.64 1274.63 52.48 1273.86 52.48C1272.76 52.48 1271.81 52.832 1271.03 53.536C1270.26 54.24 1269.82 55.216 1269.71 56.464H1278.01ZM1285.34 52.984C1285.72 52.232 1286.26 51.648 1286.97 51.232C1287.69 50.816 1288.56 50.608 1289.58 50.608V52.864H1289.01C1286.56 52.864 1285.34 54.192 1285.34 56.848V64H1283.15V50.848H1285.34V52.984Z" fill="#212429"/>
<rect x="24" y="125" width="325" height="90" rx="15" fill="#C5DC4A"/>
<path d="M141.152 178.168C140.048 178.168 139.056 177.976 138.176 177.592C137.312 177.192 136.632 176.648 136.136 175.96C135.64 175.256 135.384 174.448 135.368 173.536H137.696C137.776 174.32 138.096 174.984 138.656 175.528C139.232 176.056 140.064 176.32 141.152 176.32C142.192 176.32 143.008 176.064 143.6 175.552C144.208 175.024 144.512 174.352 144.512 173.536C144.512 172.896 144.336 172.376 143.984 171.976C143.632 171.576 143.192 171.272 142.664 171.064C142.136 170.856 141.424 170.632 140.528 170.392C139.424 170.104 138.536 169.816 137.864 169.528C137.208 169.24 136.64 168.792 136.16 168.184C135.696 167.56 135.464 166.728 135.464 165.688C135.464 164.776 135.696 163.968 136.16 163.264C136.624 162.56 137.272 162.016 138.104 161.632C138.952 161.248 139.92 161.056 141.008 161.056C142.576 161.056 143.856 161.448 144.848 162.232C145.856 163.016 146.424 164.056 146.552 165.352H144.152C144.072 164.712 143.736 164.152 143.144 163.672C142.552 163.176 141.768 162.928 140.792 162.928C139.88 162.928 139.136 163.168 138.56 163.648C137.984 164.112 137.696 164.768 137.696 165.616C137.696 166.224 137.864 166.72 138.2 167.104C138.552 167.488 138.976 167.784 139.472 167.992C139.984 168.184 140.696 168.408 141.608 168.664C142.712 168.968 143.6 169.272 144.272 169.576C144.944 169.864 145.52 170.32 146 170.944C146.48 171.552 146.72 172.384 146.72 173.44C146.72 174.256 146.504 175.024 146.072 175.744C145.64 176.464 145 177.048 144.152 177.496C143.304 177.944 142.304 178.168 141.152 178.168ZM161.934 170.92C161.934 171.336 161.91 171.776 161.862 172.24H151.35C151.43 173.536 151.87 174.552 152.67 175.288C153.486 176.008 154.47 176.368 155.622 176.368C156.566 176.368 157.35 176.152 157.974 175.72C158.614 175.272 159.062 174.68 159.318 173.944H161.67C161.318 175.208 160.614 176.24 159.558 177.04C158.502 177.824 157.19 178.216 155.622 178.216C154.374 178.216 153.254 177.936 152.262 177.376C151.286 176.816 150.518 176.024 149.958 175C149.398 173.96 149.118 172.76 149.118 171.4C149.118 170.04 149.39 168.848 149.934 167.824C150.478 166.8 151.238 166.016 152.214 165.472C153.206 164.912 154.342 164.632 155.622 164.632C156.87 164.632 157.974 164.904 158.934 165.448C159.894 165.992 160.63 166.744 161.142 167.704C161.67 168.648 161.934 169.72 161.934 170.92ZM159.678 170.464C159.678 169.632 159.494 168.92 159.126 168.328C158.758 167.72 158.254 167.264 157.614 166.96C156.99 166.64 156.294 166.48 155.526 166.48C154.422 166.48 153.478 166.832 152.694 167.536C151.926 168.24 151.486 169.216 151.374 170.464H159.678ZM167.001 160.24V178H164.817V160.24H167.001ZM182.723 170.92C182.723 171.336 182.699 171.776 182.651 172.24H172.139C172.219 173.536 172.659 174.552 173.459 175.288C174.275 176.008 175.259 176.368 176.411 176.368C177.355 176.368 178.139 176.152 178.763 175.72C179.403 175.272 179.851 174.68 180.107 173.944H182.459C182.107 175.208 181.403 176.24 180.347 177.04C179.291 177.824 177.979 178.216 176.411 178.216C175.163 178.216 174.043 177.936 173.051 177.376C172.075 176.816 171.307 176.024 170.747 175C170.187 173.96 169.907 172.76 169.907 171.4C169.907 170.04 170.179 168.848 170.723 167.824C171.267 166.8 172.027 166.016 173.003 165.472C173.995 164.912 175.131 164.632 176.411 164.632C177.659 164.632 178.763 164.904 179.723 165.448C180.683 165.992 181.419 166.744 181.931 167.704C182.459 168.648 182.723 169.72 182.723 170.92ZM180.467 170.464C180.467 169.632 180.283 168.92 179.915 168.328C179.547 167.72 179.043 167.264 178.403 166.96C177.779 166.64 177.083 166.48 176.315 166.48C175.211 166.48 174.267 166.832 173.483 167.536C172.715 168.24 172.275 169.216 172.163 170.464H180.467ZM184.79 171.4C184.79 170.04 185.062 168.856 185.606 167.848C186.15 166.824 186.902 166.032 187.862 165.472C188.838 164.912 189.95 164.632 191.198 164.632C192.814 164.632 194.142 165.024 195.182 165.808C196.238 166.592 196.934 167.68 197.27 169.072H194.918C194.694 168.272 194.254 167.64 193.598 167.176C192.958 166.712 192.158 166.48 191.198 166.48C189.95 166.48 188.942 166.912 188.174 167.776C187.406 168.624 187.022 169.832 187.022 171.4C187.022 172.984 187.406 174.208 188.174 175.072C188.942 175.936 189.95 176.368 191.198 176.368C192.158 176.368 192.958 176.144 193.598 175.696C194.238 175.248 194.678 174.608 194.918 173.776H197.27C196.918 175.12 196.214 176.2 195.158 177.016C194.102 177.816 192.782 178.216 191.198 178.216C189.95 178.216 188.838 177.936 187.862 177.376C186.902 176.816 186.15 176.024 185.606 175C185.062 173.976 184.79 172.776 184.79 171.4ZM202.848 166.648V174.4C202.848 175.04 202.984 175.496 203.256 175.768C203.528 176.024 204 176.152 204.672 176.152H206.28V178H204.312C203.096 178 202.184 177.72 201.576 177.16C200.968 176.6 200.664 175.68 200.664 174.4V166.648H198.96V164.848H200.664V161.536H202.848V164.848H206.28V166.648H202.848ZM220.926 170.92C220.926 171.336 220.902 171.776 220.854 172.24H210.342C210.422 173.536 210.862 174.552 211.662 175.288C212.478 176.008 213.462 176.368 214.614 176.368C215.558 176.368 216.342 176.152 216.966 175.72C217.606 175.272 218.054 174.68 218.31 173.944H220.662C220.31 175.208 219.606 176.24 218.55 177.04C217.494 177.824 216.182 178.216 214.614 178.216C213.366 178.216 212.246 177.936 211.254 177.376C210.278 176.816 209.51 176.024 208.95 175C208.39 173.96 208.11 172.76 208.11 171.4C208.11 170.04 208.382 168.848 208.926 167.824C209.47 166.8 210.23 166.016 211.206 165.472C212.198 164.912 213.334 164.632 214.614 164.632C215.862 164.632 216.966 164.904 217.926 165.448C218.886 165.992 219.622 166.744 220.134 167.704C220.662 168.648 220.926 169.72 220.926 170.92ZM218.67 170.464C218.67 169.632 218.486 168.92 218.118 168.328C217.75 167.72 217.246 167.264 216.606 166.96C215.982 166.64 215.286 166.48 214.518 166.48C213.414 166.48 212.47 166.832 211.686 167.536C210.918 168.24 210.478 169.216 210.366 170.464H218.67ZM222.993 171.376C222.993 170.032 223.265 168.856 223.809 167.848C224.353 166.824 225.097 166.032 226.041 165.472C227.001 164.912 228.073 164.632 229.257 164.632C230.281 164.632 231.233 164.872 232.113 165.352C232.993 165.816 233.665 166.432 234.129 167.2V160.24H236.337V178H234.129V175.528C233.697 176.312 233.057 176.96 232.209 177.472C231.361 177.968 230.369 178.216 229.233 178.216C228.065 178.216 227.001 177.928 226.041 177.352C225.097 176.776 224.353 175.968 223.809 174.928C223.265 173.888 222.993 172.704 222.993 171.376ZM234.129 171.4C234.129 170.408 233.929 169.544 233.529 168.808C233.129 168.072 232.585 167.512 231.897 167.128C231.225 166.728 230.481 166.528 229.665 166.528C228.849 166.528 228.105 166.72 227.433 167.104C226.761 167.488 226.225 168.048 225.825 168.784C225.425 169.52 225.225 170.384 225.225 171.376C225.225 172.384 225.425 173.264 225.825 174.016C226.225 174.752 226.761 175.32 227.433 175.72C228.105 176.104 228.849 176.296 229.665 176.296C230.481 176.296 231.225 176.104 231.897 175.72C232.585 175.32 233.129 174.752 233.529 174.016C233.929 173.264 234.129 172.392 234.129 171.4Z" fill="#212429"/>
<rect x="373.5" y="125.5" width="324" height="89" rx="14.5" fill="#C5DC4A"/>
<rect x="373.5" y="125.5" width="324" height="89" rx="14.5" stroke="#212429"/>
<path d="M490.152 178.168C489.048 178.168 488.056 177.976 487.176 177.592C486.312 177.192 485.632 176.648 485.136 175.96C484.64 175.256 484.384 174.448 484.368 173.536H486.696C486.776 174.32 487.096 174.984 487.656 175.528C488.232 176.056 489.064 176.32 490.152 176.32C491.192 176.32 492.008 176.064 492.6 175.552C493.208 175.024 493.512 174.352 493.512 173.536C493.512 172.896 493.336 172.376 492.984 171.976C492.632 171.576 492.192 171.272 491.664 171.064C491.136 170.856 490.424 170.632 489.528 170.392C488.424 170.104 487.536 169.816 486.864 169.528C486.208 169.24 485.64 168.792 485.16 168.184C484.696 167.56 484.464 166.728 484.464 165.688C484.464 164.776 484.696 163.968 485.16 163.264C485.624 162.56 486.272 162.016 487.104 161.632C487.952 161.248 488.92 161.056 490.008 161.056C491.576 161.056 492.856 161.448 493.848 162.232C494.856 163.016 495.424 164.056 495.552 165.352H493.152C493.072 164.712 492.736 164.152 492.144 163.672C491.552 163.176 490.768 162.928 489.792 162.928C488.88 162.928 488.136 163.168 487.56 163.648C486.984 164.112 486.696 164.768 486.696 165.616C486.696 166.224 486.864 166.72 487.2 167.104C487.552 167.488 487.976 167.784 488.472 167.992C488.984 168.184 489.696 168.408 490.608 168.664C491.712 168.968 492.6 169.272 493.272 169.576C493.944 169.864 494.52 170.32 495 170.944C495.48 171.552 495.72 172.384 495.72 173.44C495.72 174.256 495.504 175.024 495.072 175.744C494.64 176.464 494 177.048 493.152 177.496C492.304 177.944 491.304 178.168 490.152 178.168ZM510.934 170.92C510.934 171.336 510.91 171.776 510.862 172.24H500.35C500.43 173.536 500.87 174.552 501.67 175.288C502.486 176.008 503.47 176.368 504.622 176.368C505.566 176.368 506.35 176.152 506.974 175.72C507.614 175.272 508.062 174.68 508.318 173.944H510.67C510.318 175.208 509.614 176.24 508.558 177.04C507.502 177.824 506.19 178.216 504.622 178.216C503.374 178.216 502.254 177.936 501.262 177.376C500.286 176.816 499.518 176.024 498.958 175C498.398 173.96 498.118 172.76 498.118 171.4C498.118 170.04 498.39 168.848 498.934 167.824C499.478 166.8 500.238 166.016 501.214 165.472C502.206 164.912 503.342 164.632 504.622 164.632C505.87 164.632 506.974 164.904 507.934 165.448C508.894 165.992 509.63 166.744 510.142 167.704C510.67 168.648 510.934 169.72 510.934 170.92ZM508.678 170.464C508.678 169.632 508.494 168.92 508.126 168.328C507.758 167.72 507.254 167.264 506.614 166.96C505.99 166.64 505.294 166.48 504.526 166.48C503.422 166.48 502.478 166.832 501.694 167.536C500.926 168.24 500.486 169.216 500.374 170.464H508.678ZM516.001 160.24V178H513.817V160.24H516.001ZM531.723 170.92C531.723 171.336 531.699 171.776 531.651 172.24H521.139C521.219 173.536 521.659 174.552 522.459 175.288C523.275 176.008 524.259 176.368 525.411 176.368C526.355 176.368 527.139 176.152 527.763 175.72C528.403 175.272 528.851 174.68 529.107 173.944H531.459C531.107 175.208 530.403 176.24 529.347 177.04C528.291 177.824 526.979 178.216 525.411 178.216C524.163 178.216 523.043 177.936 522.051 177.376C521.075 176.816 520.307 176.024 519.747 175C519.187 173.96 518.907 172.76 518.907 171.4C518.907 170.04 519.179 168.848 519.723 167.824C520.267 166.8 521.027 166.016 522.003 165.472C522.995 164.912 524.131 164.632 525.411 164.632C526.659 164.632 527.763 164.904 528.723 165.448C529.683 165.992 530.419 166.744 530.931 167.704C531.459 168.648 531.723 169.72 531.723 170.92ZM529.467 170.464C529.467 169.632 529.283 168.92 528.915 168.328C528.547 167.72 528.043 167.264 527.403 166.96C526.779 166.64 526.083 166.48 525.315 166.48C524.211 166.48 523.267 166.832 522.483 167.536C521.715 168.24 521.275 169.216 521.163 170.464H529.467ZM533.79 171.4C533.79 170.04 534.062 168.856 534.606 167.848C535.15 166.824 535.902 166.032 536.862 165.472C537.838 164.912 538.95 164.632 540.198 164.632C541.814 164.632 543.142 165.024 544.182 165.808C545.238 166.592 545.934 167.68 546.27 169.072H543.918C543.694 168.272 543.254 167.64 542.598 167.176C541.958 166.712 541.158 166.48 540.198 166.48C538.95 166.48 537.942 166.912 537.174 167.776C536.406 168.624 536.022 169.832 536.022 171.4C536.022 172.984 536.406 174.208 537.174 175.072C537.942 175.936 538.95 176.368 540.198 176.368C541.158 176.368 541.958 176.144 542.598 175.696C543.238 175.248 543.678 174.608 543.918 173.776H546.27C545.918 175.12 545.214 176.2 544.158 177.016C543.102 177.816 541.782 178.216 540.198 178.216C538.95 178.216 537.838 177.936 536.862 177.376C535.902 176.816 535.15 176.024 534.606 175C534.062 173.976 533.79 172.776 533.79 171.4ZM551.848 166.648V174.4C551.848 175.04 551.984 175.496 552.256 175.768C552.528 176.024 553 176.152 553.672 176.152H555.28V178H553.312C552.096 178 551.184 177.72 550.576 177.16C549.968 176.6 549.664 175.68 549.664 174.4V166.648H547.96V164.848H549.664V161.536H551.848V164.848H555.28V166.648H551.848ZM569.926 170.92C569.926 171.336 569.902 171.776 569.854 172.24H559.342C559.422 173.536 559.862 174.552 560.662 175.288C561.478 176.008 562.462 176.368 563.614 176.368C564.558 176.368 565.342 176.152 565.966 175.72C566.606 175.272 567.054 174.68 567.31 173.944H569.662C569.31 175.208 568.606 176.24 567.55 177.04C566.494 177.824 565.182 178.216 563.614 178.216C562.366 178.216 561.246 177.936 560.254 177.376C559.278 176.816 558.51 176.024 557.95 175C557.39 173.96 557.11 172.76 557.11 171.4C557.11 170.04 557.382 168.848 557.926 167.824C558.47 166.8 559.23 166.016 560.206 165.472C561.198 164.912 562.334 164.632 563.614 164.632C564.862 164.632 565.966 164.904 566.926 165.448C567.886 165.992 568.622 166.744 569.134 167.704C569.662 168.648 569.926 169.72 569.926 170.92ZM567.67 170.464C567.67 169.632 567.486 168.92 567.118 168.328C566.75 167.72 566.246 167.264 565.606 166.96C564.982 166.64 564.286 166.48 563.518 166.48C562.414 166.48 561.47 166.832 560.686 167.536C559.918 168.24 559.478 169.216 559.366 170.464H567.67ZM571.993 171.376C571.993 170.032 572.265 168.856 572.809 167.848C573.353 166.824 574.097 166.032 575.041 165.472C576.001 164.912 577.073 164.632 578.257 164.632C579.281 164.632 580.233 164.872 581.113 165.352C581.993 165.816 582.665 166.432 583.129 167.2V160.24H585.337V178H583.129V175.528C582.697 176.312 582.057 176.96 581.209 177.472C580.361 177.968 579.369 178.216 578.233 178.216C577.065 178.216 576.001 177.928 575.041 177.352C574.097 176.776 573.353 175.968 572.809 174.928C572.265 173.888 571.993 172.704 571.993 171.376ZM583.129 171.4C583.129 170.408 582.929 169.544 582.529 168.808C582.129 168.072 581.585 167.512 580.897 167.128C580.225 166.728 579.481 166.528 578.665 166.528C577.849 166.528 577.105 166.72 576.433 167.104C575.761 167.488 575.225 168.048 574.825 168.784C574.425 169.52 574.225 170.384 574.225 171.376C574.225 172.384 574.425 173.264 574.825 174.016C575.225 174.752 575.761 175.32 576.433 175.72C577.105 176.104 577.849 176.296 578.665 176.296C579.481 176.296 580.225 176.104 580.897 175.72C581.585 175.32 582.129 174.752 582.529 174.016C582.929 173.264 583.129 172.392 583.129 171.4Z" fill="#212429"/>
<rect x="722" y="125" width="325" height="90" rx="15" fill="#C5DC4A"/>
<path d="M840 169.996C840 171.245 838.992 172.254 837.742 172.254H829.261V180.742C829.261 181.984 828.245 183 827.004 183C825.762 183 824.746 181.984 824.746 180.742V172.254H816.258C815.016 172.254 814 171.245 814 169.996C814 168.747 815.016 167.739 816.258 167.739H824.746V159.258C824.746 158.008 825.755 157 827.004 157C828.253 157 829.261 158.008 829.261 159.258V167.739H837.742C838.992 167.739 840 168.755 840 169.996Z" fill="#212429"/>
<path d="M857.152 178.168C856.048 178.168 855.056 177.976 854.176 177.592C853.312 177.192 852.632 176.648 852.136 175.96C851.64 175.256 851.384 174.448 851.368 173.536H853.696C853.776 174.32 854.096 174.984 854.656 175.528C855.232 176.056 856.064 176.32 857.152 176.32C858.192 176.32 859.008 176.064 859.6 175.552C860.208 175.024 860.512 174.352 860.512 173.536C860.512 172.896 860.336 172.376 859.984 171.976C859.632 171.576 859.192 171.272 858.664 171.064C858.136 170.856 857.424 170.632 856.528 170.392C855.424 170.104 854.536 169.816 853.864 169.528C853.208 169.24 852.64 168.792 852.16 168.184C851.696 167.56 851.464 166.728 851.464 165.688C851.464 164.776 851.696 163.968 852.16 163.264C852.624 162.56 853.272 162.016 854.104 161.632C854.952 161.248 855.92 161.056 857.008 161.056C858.576 161.056 859.856 161.448 860.848 162.232C861.856 163.016 862.424 164.056 862.552 165.352H860.152C860.072 164.712 859.736 164.152 859.144 163.672C858.552 163.176 857.768 162.928 856.792 162.928C855.88 162.928 855.136 163.168 854.56 163.648C853.984 164.112 853.696 164.768 853.696 165.616C853.696 166.224 853.864 166.72 854.2 167.104C854.552 167.488 854.976 167.784 855.472 167.992C855.984 168.184 856.696 168.408 857.608 168.664C858.712 168.968 859.6 169.272 860.272 169.576C860.944 169.864 861.52 170.32 862 170.944C862.48 171.552 862.72 172.384 862.72 173.44C862.72 174.256 862.504 175.024 862.072 175.744C861.64 176.464 861 177.048 860.152 177.496C859.304 177.944 858.304 178.168 857.152 178.168ZM877.934 170.92C877.934 171.336 877.91 171.776 877.862 172.24H867.35C867.43 173.536 867.87 174.552 868.67 175.288C869.486 176.008 870.47 176.368 871.622 176.368C872.566 176.368 873.35 176.152 873.974 175.72C874.614 175.272 875.062 174.68 875.318 173.944H877.67C877.318 175.208 876.614 176.24 875.558 177.04C874.502 177.824 873.19 178.216 871.622 178.216C870.374 178.216 869.254 177.936 868.262 177.376C867.286 176.816 866.518 176.024 865.958 175C865.398 173.96 865.118 172.76 865.118 171.4C865.118 170.04 865.39 168.848 865.934 167.824C866.478 166.8 867.238 166.016 868.214 165.472C869.206 164.912 870.342 164.632 871.622 164.632C872.87 164.632 873.974 164.904 874.934 165.448C875.894 165.992 876.63 166.744 877.142 167.704C877.67 168.648 877.934 169.72 877.934 170.92ZM875.678 170.464C875.678 169.632 875.494 168.92 875.126 168.328C874.758 167.72 874.254 167.264 873.614 166.96C872.99 166.64 872.294 166.48 871.526 166.48C870.422 166.48 869.478 166.832 868.694 167.536C867.926 168.24 867.486 169.216 867.374 170.464H875.678ZM883.001 160.24V178H880.817V160.24H883.001ZM898.723 170.92C898.723 171.336 898.699 171.776 898.651 172.24H888.139C888.219 173.536 888.659 174.552 889.459 175.288C890.275 176.008 891.259 176.368 892.411 176.368C893.355 176.368 894.139 176.152 894.763 175.72C895.403 175.272 895.851 174.68 896.107 173.944H898.459C898.107 175.208 897.403 176.24 896.347 177.04C895.291 177.824 893.979 178.216 892.411 178.216C891.163 178.216 890.043 177.936 889.051 177.376C888.075 176.816 887.307 176.024 886.747 175C886.187 173.96 885.907 172.76 885.907 171.4C885.907 170.04 886.179 168.848 886.723 167.824C887.267 166.8 888.027 166.016 889.003 165.472C889.995 164.912 891.131 164.632 892.411 164.632C893.659 164.632 894.763 164.904 895.723 165.448C896.683 165.992 897.419 166.744 897.931 167.704C898.459 168.648 898.723 169.72 898.723 170.92ZM896.467 170.464C896.467 169.632 896.283 168.92 895.915 168.328C895.547 167.72 895.043 167.264 894.403 166.96C893.779 166.64 893.083 166.48 892.315 166.48C891.211 166.48 890.267 166.832 889.483 167.536C888.715 168.24 888.275 169.216 888.163 170.464H896.467ZM900.79 171.4C900.79 170.04 901.062 168.856 901.606 167.848C902.15 166.824 902.902 166.032 903.862 165.472C904.838 164.912 905.95 164.632 907.198 164.632C908.814 164.632 910.142 165.024 911.182 165.808C912.238 166.592 912.934 167.68 913.27 169.072H910.918C910.694 168.272 910.254 167.64 909.598 167.176C908.958 166.712 908.158 166.48 907.198 166.48C905.95 166.48 904.942 166.912 904.174 167.776C903.406 168.624 903.022 169.832 903.022 171.4C903.022 172.984 903.406 174.208 904.174 175.072C904.942 175.936 905.95 176.368 907.198 176.368C908.158 176.368 908.958 176.144 909.598 175.696C910.238 175.248 910.678 174.608 910.918 173.776H913.27C912.918 175.12 912.214 176.2 911.158 177.016C910.102 177.816 908.782 178.216 907.198 178.216C905.95 178.216 904.838 177.936 903.862 177.376C902.902 176.816 902.15 176.024 901.606 175C901.062 173.976 900.79 172.776 900.79 171.4ZM918.848 166.648V174.4C918.848 175.04 918.984 175.496 919.256 175.768C919.528 176.024 920 176.152 920.672 176.152H922.28V178H920.312C919.096 178 918.184 177.72 917.576 177.16C916.968 176.6 916.664 175.68 916.664 174.4V166.648H914.96V164.848H916.664V161.536H918.848V164.848H922.28V166.648H918.848ZM936.926 170.92C936.926 171.336 936.902 171.776 936.854 172.24H926.342C926.422 173.536 926.862 174.552 927.662 175.288C928.478 176.008 929.462 176.368 930.614 176.368C931.558 176.368 932.342 176.152 932.966 175.72C933.606 175.272 934.054 174.68 934.31 173.944H936.662C936.31 175.208 935.606 176.24 934.55 177.04C933.494 177.824 932.182 178.216 930.614 178.216C929.366 178.216 928.246 177.936 927.254 177.376C926.278 176.816 925.51 176.024 924.95 175C924.39 173.96 924.11 172.76 924.11 171.4C924.11 170.04 924.382 168.848 924.926 167.824C925.47 166.8 926.23 166.016 927.206 165.472C928.198 164.912 929.334 164.632 930.614 164.632C931.862 164.632 932.966 164.904 933.926 165.448C934.886 165.992 935.622 166.744 936.134 167.704C936.662 168.648 936.926 169.72 936.926 170.92ZM934.67 170.464C934.67 169.632 934.486 168.92 934.118 168.328C933.75 167.72 933.246 167.264 932.606 166.96C931.982 166.64 931.286 166.48 930.518 166.48C929.414 166.48 928.47 166.832 927.686 167.536C926.918 168.24 926.478 169.216 926.366 170.464H934.67ZM938.993 171.376C938.993 170.032 939.265 168.856 939.809 167.848C940.353 166.824 941.097 166.032 942.041 165.472C943.001 164.912 944.073 164.632 945.257 164.632C946.281 164.632 947.233 164.872 948.113 165.352C948.993 165.816 949.665 166.432 950.129 167.2V160.24H952.337V178H950.129V175.528C949.697 176.312 949.057 176.96 948.209 177.472C947.361 177.968 946.369 178.216 945.233 178.216C944.065 178.216 943.001 177.928 942.041 177.352C941.097 176.776 940.353 175.968 939.809 174.928C939.265 173.888 938.993 172.704 938.993 171.376ZM950.129 171.4C950.129 170.408 949.929 169.544 949.529 168.808C949.129 168.072 948.585 167.512 947.897 167.128C947.225 166.728 946.481 166.528 945.665 166.528C944.849 166.528 944.105 166.72 943.433 167.104C942.761 167.488 942.225 168.048 941.825 168.784C941.425 169.52 941.225 170.384 941.225 171.376C941.225 172.384 941.425 173.264 941.825 174.016C942.225 174.752 942.761 175.32 943.433 175.72C944.105 176.104 944.849 176.296 945.665 176.296C946.481 176.296 947.225 176.104 947.897 175.72C948.585 175.32 949.129 174.752 949.529 174.016C949.929 173.264 950.129 172.392 950.129 171.4Z" fill="#212429"/>
<rect x="1071.5" y="125.5" width="324" height="89" rx="14.5" fill="#C5DC4A"/>
<rect x="1071.5" y="125.5" width="324" height="89" rx="14.5" stroke="#212429"/>
<path d="M1189 169.996C1189 171.245 1187.99 172.254 1186.74 172.254H1178.26V180.742C1178.26 181.984 1177.25 183 1176 183C1174.76 183 1173.75 181.984 1173.75 180.742V172.254H1165.26C1164.02 172.254 1163 171.245 1163 169.996C1163 168.747 1164.02 167.739 1165.26 167.739H1173.75V159.258C1173.75 158.008 1174.75 157 1176 157C1177.25 157 1178.26 158.008 1178.26 159.258V167.739H1186.74C1187.99 167.739 1189 168.755 1189 169.996Z" fill="#212429"/>
<path d="M1206.15 178.168C1205.05 178.168 1204.06 177.976 1203.18 177.592C1202.31 177.192 1201.63 176.648 1201.14 175.96C1200.64 175.256 1200.38 174.448 1200.37 173.536H1202.7C1202.78 174.32 1203.1 174.984 1203.66 175.528C1204.23 176.056 1205.06 176.32 1206.15 176.32C1207.19 176.32 1208.01 176.064 1208.6 175.552C1209.21 175.024 1209.51 174.352 1209.51 173.536C1209.51 172.896 1209.34 172.376 1208.98 171.976C1208.63 171.576 1208.19 171.272 1207.66 171.064C1207.14 170.856 1206.42 170.632 1205.53 170.392C1204.42 170.104 1203.54 169.816 1202.86 169.528C1202.21 169.24 1201.64 168.792 1201.16 168.184C1200.7 167.56 1200.46 166.728 1200.46 165.688C1200.46 164.776 1200.7 163.968 1201.16 163.264C1201.62 162.56 1202.27 162.016 1203.1 161.632C1203.95 161.248 1204.92 161.056 1206.01 161.056C1207.58 161.056 1208.86 161.448 1209.85 162.232C1210.86 163.016 1211.42 164.056 1211.55 165.352H1209.15C1209.07 164.712 1208.74 164.152 1208.14 163.672C1207.55 163.176 1206.77 162.928 1205.79 162.928C1204.88 162.928 1204.14 163.168 1203.56 163.648C1202.98 164.112 1202.7 164.768 1202.7 165.616C1202.7 166.224 1202.86 166.72 1203.2 167.104C1203.55 167.488 1203.98 167.784 1204.47 167.992C1204.98 168.184 1205.7 168.408 1206.61 168.664C1207.71 168.968 1208.6 169.272 1209.27 169.576C1209.94 169.864 1210.52 170.32 1211 170.944C1211.48 171.552 1211.72 172.384 1211.72 173.44C1211.72 174.256 1211.5 175.024 1211.07 175.744C1210.64 176.464 1210 177.048 1209.15 177.496C1208.3 177.944 1207.3 178.168 1206.15 178.168ZM1226.93 170.92C1226.93 171.336 1226.91 171.776 1226.86 172.24H1216.35C1216.43 173.536 1216.87 174.552 1217.67 175.288C1218.49 176.008 1219.47 176.368 1220.62 176.368C1221.57 176.368 1222.35 176.152 1222.97 175.72C1223.61 175.272 1224.06 174.68 1224.32 173.944H1226.67C1226.32 175.208 1225.61 176.24 1224.56 177.04C1223.5 177.824 1222.19 178.216 1220.62 178.216C1219.37 178.216 1218.25 177.936 1217.26 177.376C1216.29 176.816 1215.52 176.024 1214.96 175C1214.4 173.96 1214.12 172.76 1214.12 171.4C1214.12 170.04 1214.39 168.848 1214.93 167.824C1215.48 166.8 1216.24 166.016 1217.21 165.472C1218.21 164.912 1219.34 164.632 1220.62 164.632C1221.87 164.632 1222.97 164.904 1223.93 165.448C1224.89 165.992 1225.63 166.744 1226.14 167.704C1226.67 168.648 1226.93 169.72 1226.93 170.92ZM1224.68 170.464C1224.68 169.632 1224.49 168.92 1224.13 168.328C1223.76 167.72 1223.25 167.264 1222.61 166.96C1221.99 166.64 1221.29 166.48 1220.53 166.48C1219.42 166.48 1218.48 166.832 1217.69 167.536C1216.93 168.24 1216.49 169.216 1216.37 170.464H1224.68ZM1232 160.24V178H1229.82V160.24H1232ZM1247.72 170.92C1247.72 171.336 1247.7 171.776 1247.65 172.24H1237.14C1237.22 173.536 1237.66 174.552 1238.46 175.288C1239.28 176.008 1240.26 176.368 1241.41 176.368C1242.36 176.368 1243.14 176.152 1243.76 175.72C1244.4 175.272 1244.85 174.68 1245.11 173.944H1247.46C1247.11 175.208 1246.4 176.24 1245.35 177.04C1244.29 177.824 1242.98 178.216 1241.41 178.216C1240.16 178.216 1239.04 177.936 1238.05 177.376C1237.08 176.816 1236.31 176.024 1235.75 175C1235.19 173.96 1234.91 172.76 1234.91 171.4C1234.91 170.04 1235.18 168.848 1235.72 167.824C1236.27 166.8 1237.03 166.016 1238 165.472C1239 164.912 1240.13 164.632 1241.41 164.632C1242.66 164.632 1243.76 164.904 1244.72 165.448C1245.68 165.992 1246.42 166.744 1246.93 167.704C1247.46 168.648 1247.72 169.72 1247.72 170.92ZM1245.47 170.464C1245.47 169.632 1245.28 168.92 1244.92 168.328C1244.55 167.72 1244.04 167.264 1243.4 166.96C1242.78 166.64 1242.08 166.48 1241.32 166.48C1240.21 166.48 1239.27 166.832 1238.48 167.536C1237.72 168.24 1237.28 169.216 1237.16 170.464H1245.47ZM1249.79 171.4C1249.79 170.04 1250.06 168.856 1250.61 167.848C1251.15 166.824 1251.9 166.032 1252.86 165.472C1253.84 164.912 1254.95 164.632 1256.2 164.632C1257.81 164.632 1259.14 165.024 1260.18 165.808C1261.24 166.592 1261.93 167.68 1262.27 169.072H1259.92C1259.69 168.272 1259.25 167.64 1258.6 167.176C1257.96 166.712 1257.16 166.48 1256.2 166.48C1254.95 166.48 1253.94 166.912 1253.17 167.776C1252.41 168.624 1252.02 169.832 1252.02 171.4C1252.02 172.984 1252.41 174.208 1253.17 175.072C1253.94 175.936 1254.95 176.368 1256.2 176.368C1257.16 176.368 1257.96 176.144 1258.6 175.696C1259.24 175.248 1259.68 174.608 1259.92 173.776H1262.27C1261.92 175.12 1261.21 176.2 1260.16 177.016C1259.1 177.816 1257.78 178.216 1256.2 178.216C1254.95 178.216 1253.84 177.936 1252.86 177.376C1251.9 176.816 1251.15 176.024 1250.61 175C1250.06 173.976 1249.79 172.776 1249.79 171.4ZM1267.85 166.648V174.4C1267.85 175.04 1267.98 175.496 1268.26 175.768C1268.53 176.024 1269 176.152 1269.67 176.152H1271.28V178H1269.31C1268.1 178 1267.18 177.72 1266.58 177.16C1265.97 176.6 1265.66 175.68 1265.66 174.4V166.648H1263.96V164.848H1265.66V161.536H1267.85V164.848H1271.28V166.648H1267.85ZM1285.93 170.92C1285.93 171.336 1285.9 171.776 1285.85 172.24H1275.34C1275.42 173.536 1275.86 174.552 1276.66 175.288C1277.48 176.008 1278.46 176.368 1279.61 176.368C1280.56 176.368 1281.34 176.152 1281.97 175.72C1282.61 175.272 1283.05 174.68 1283.31 173.944H1285.66C1285.31 175.208 1284.61 176.24 1283.55 177.04C1282.49 177.824 1281.18 178.216 1279.61 178.216C1278.37 178.216 1277.25 177.936 1276.25 177.376C1275.28 176.816 1274.51 176.024 1273.95 175C1273.39 173.96 1273.11 172.76 1273.11 171.4C1273.11 170.04 1273.38 168.848 1273.93 167.824C1274.47 166.8 1275.23 166.016 1276.21 165.472C1277.2 164.912 1278.33 164.632 1279.61 164.632C1280.86 164.632 1281.97 164.904 1282.93 165.448C1283.89 165.992 1284.62 166.744 1285.13 167.704C1285.66 168.648 1285.93 169.72 1285.93 170.92ZM1283.67 170.464C1283.67 169.632 1283.49 168.92 1283.12 168.328C1282.75 167.72 1282.25 167.264 1281.61 166.96C1280.98 166.64 1280.29 166.48 1279.52 166.48C1278.41 166.48 1277.47 166.832 1276.69 167.536C1275.92 168.24 1275.48 169.216 1275.37 170.464H1283.67ZM1287.99 171.376C1287.99 170.032 1288.26 168.856 1288.81 167.848C1289.35 166.824 1290.1 166.032 1291.04 165.472C1292 164.912 1293.07 164.632 1294.26 164.632C1295.28 164.632 1296.23 164.872 1297.11 165.352C1297.99 165.816 1298.66 166.432 1299.13 167.2V160.24H1301.34V178H1299.13V175.528C1298.7 176.312 1298.06 176.96 1297.21 177.472C1296.36 177.968 1295.37 178.216 1294.23 178.216C1293.06 178.216 1292 177.928 1291.04 177.352C1290.1 176.776 1289.35 175.968 1288.81 174.928C1288.26 173.888 1287.99 172.704 1287.99 171.376ZM1299.13 171.4C1299.13 170.408 1298.93 169.544 1298.53 168.808C1298.13 168.072 1297.58 167.512 1296.9 167.128C1296.22 166.728 1295.48 166.528 1294.66 166.528C1293.85 166.528 1293.1 166.72 1292.43 167.104C1291.76 167.488 1291.22 168.048 1290.82 168.784C1290.42 169.52 1290.22 170.384 1290.22 171.376C1290.22 172.384 1290.42 173.264 1290.82 174.016C1291.22 174.752 1291.76 175.32 1292.43 175.72C1293.1 176.104 1293.85 176.296 1294.66 176.296C1295.48 176.296 1296.22 176.104 1296.9 175.72C1297.58 175.32 1298.13 174.752 1298.53 174.016C1298.93 173.264 1299.13 172.392 1299.13 171.4Z" fill="#212429"/>
</g>
<rect x="0.5" y="0.5" width="1419" height="224" rx="4.5" stroke="#9747FF" stroke-dasharray="10 5"/>
<defs>
<clipPath id="clip0_1624_1131">
<rect width="1420" height="225" rx="5" fill="white"/>
</clipPath>
</defs>
</svg>
