<svg width="514" height="438" viewBox="0 0 514 438" fill="none" xmlns="http://www.w3.org/2000/svg">
<rect x="1" y="1" width="512" height="436" rx="8" stroke="#9747FF" stroke-width="2" stroke-dasharray="8 8"/>
<rect width="444" height="77" transform="translate(36 26)" fill="#3EC5D6"/>
<path d="M101.335 59.0552C101.335 55.7144 104.11 52.9948 107.513 53C110.906 53.0052 113.665 55.7248 113.665 59.0552C113.665 62.396 110.89 65.1156 107.487 65.1104C104.094 65.1051 101.335 62.3855 101.335 59.0552Z" fill="#FFFCF1"/>
<path d="M96.5053 75.648C96.5851 75.1521 96.6436 74.6562 96.7499 74.1655C97.5368 70.5272 100.69 67.5727 104.438 66.962C104.96 66.8785 105.491 66.8367 106.018 66.8263C107.017 66.8054 108.022 66.8106 109.022 66.8263C113.286 66.868 117.035 69.7181 118.151 73.7636C118.359 74.5048 118.454 75.267 118.497 76.0343C118.524 76.4832 118.38 76.8069 117.955 77H97.037C96.7978 76.8852 96.617 76.7077 96.5 76.4728C96.5 76.2013 96.5 75.9299 96.5 75.6585L96.5053 75.648Z" fill="#FFFCF1"/>
<path d="M131.532 57V48.54H132.648V52.236H137.568V48.54H138.696V57H137.568V53.184H132.648V57H131.532ZM143.371 57.108C142.411 57.108 141.651 56.832 141.091 56.28C140.539 55.728 140.263 54.968 140.263 54C140.263 53.36 140.383 52.808 140.623 52.344C140.871 51.872 141.211 51.508 141.643 51.252C142.075 50.988 142.579 50.856 143.155 50.856C143.707 50.856 144.175 50.976 144.559 51.216C144.943 51.448 145.235 51.78 145.435 52.212C145.635 52.644 145.735 53.156 145.735 53.748V54.108H141.115V53.46H144.991L144.787 53.616C144.787 52.992 144.647 52.508 144.367 52.164C144.095 51.82 143.691 51.648 143.155 51.648C142.571 51.648 142.119 51.852 141.799 52.26C141.479 52.66 141.319 53.208 141.319 53.904V54.012C141.319 54.748 141.499 55.304 141.859 55.68C142.227 56.056 142.735 56.244 143.383 56.244C143.743 56.244 144.079 56.192 144.391 56.088C144.703 55.984 145.003 55.812 145.291 55.572L145.651 56.328C145.379 56.576 145.039 56.768 144.631 56.904C144.231 57.04 143.811 57.108 143.371 57.108ZM147.162 57V48.168H148.254V57H147.162ZM150.08 57V48.168H151.172V57H150.08ZM155.542 57.108C154.95 57.108 154.438 56.984 154.006 56.736C153.574 56.48 153.238 56.12 152.998 55.656C152.758 55.184 152.638 54.624 152.638 53.976C152.638 53.336 152.758 52.784 152.998 52.32C153.238 51.848 153.574 51.488 154.006 51.24C154.438 50.984 154.95 50.856 155.542 50.856C156.134 50.856 156.646 50.984 157.078 51.24C157.518 51.488 157.854 51.848 158.086 52.32C158.326 52.784 158.446 53.336 158.446 53.976C158.446 54.624 158.326 55.184 158.086 55.656C157.854 56.12 157.518 56.48 157.078 56.736C156.646 56.984 156.134 57.108 155.542 57.108ZM155.542 56.244C156.086 56.244 156.522 56.052 156.85 55.668C157.178 55.284 157.342 54.72 157.342 53.976C157.342 53.232 157.178 52.672 156.85 52.296C156.522 51.92 156.086 51.732 155.542 51.732C154.99 51.732 154.55 51.92 154.222 52.296C153.902 52.672 153.742 53.232 153.742 53.976C153.742 54.72 153.902 55.284 154.222 55.668C154.55 56.052 154.99 56.244 155.542 56.244ZM160.026 58.428L159.534 58.044C159.758 57.812 159.91 57.592 159.99 57.384C160.07 57.184 160.11 56.976 160.11 56.76L160.35 57H159.474V55.668H160.806V56.592C160.806 56.936 160.75 57.252 160.638 57.54C160.526 57.836 160.322 58.132 160.026 58.428Z" fill="white"/>
<path d="M141.5 76.66H134.54L133.1 80H130.5L136.94 65.76H139.04L145.5 80H142.92L141.5 76.66ZM140.64 74.66L138.02 68.56L135.4 74.66H140.64ZM150.384 80.16C148.558 80.16 147.104 79.7333 146.024 78.88L146.724 77.12C147.804 77.92 149.038 78.32 150.424 78.32C151.024 78.32 151.484 78.22 151.804 78.02C152.138 77.82 152.304 77.54 152.304 77.18C152.304 76.8733 152.191 76.6333 151.964 76.46C151.738 76.2733 151.351 76.1133 150.804 75.98L149.124 75.6C147.284 75.2 146.364 74.26 146.364 72.78C146.364 72.1667 146.538 71.6267 146.884 71.16C147.231 70.68 147.718 70.3067 148.344 70.04C148.971 69.7733 149.698 69.64 150.524 69.64C151.244 69.64 151.938 69.7533 152.604 69.98C153.271 70.1933 153.858 70.5067 154.364 70.92L153.624 72.62C152.611 71.8733 151.571 71.5 150.504 71.5C149.931 71.5 149.484 71.6067 149.164 71.82C148.844 72.0333 148.684 72.3267 148.684 72.7C148.684 72.9933 148.778 73.2267 148.964 73.4C149.164 73.5733 149.498 73.72 149.964 73.84L151.684 74.22C152.684 74.4467 153.411 74.8 153.864 75.28C154.331 75.7467 154.564 76.36 154.564 77.12C154.564 78.0533 154.191 78.7933 153.444 79.34C152.698 79.8867 151.678 80.16 150.384 80.16ZM159.786 71.78V76.3C159.786 77.4867 160.339 78.08 161.446 78.08C161.753 78.08 162.086 78.0267 162.446 77.92V79.9C162.006 80.06 161.473 80.14 160.846 80.14C159.699 80.14 158.819 79.82 158.206 79.18C157.593 78.54 157.286 77.62 157.286 76.42V71.78H155.346V69.9H157.286V67.44L159.786 66.6V69.9H162.466V71.78H159.786ZM169.624 69.66C170.011 69.66 170.344 69.7133 170.624 69.82L170.604 72.1C170.178 71.9267 169.738 71.84 169.284 71.84C168.431 71.84 167.778 72.0867 167.324 72.58C166.884 73.0733 166.664 73.7267 166.664 74.54V80H164.184V72.76C164.184 71.6933 164.131 70.74 164.024 69.9H166.364L166.564 71.68C166.818 71.0267 167.218 70.5267 167.764 70.18C168.311 69.8333 168.931 69.66 169.624 69.66ZM172.016 69.9H174.496V80H172.016V69.9ZM174.636 65.32V67.78H171.856V65.32H174.636ZM186.891 65.28V80H184.431V78.38C184.124 78.94 183.684 79.38 183.111 79.7C182.538 80.0067 181.884 80.16 181.151 80.16C180.284 80.16 179.511 79.94 178.831 79.5C178.151 79.06 177.618 78.44 177.231 77.64C176.858 76.8267 176.671 75.9 176.671 74.86C176.671 73.82 176.858 72.9067 177.231 72.12C177.604 71.3333 178.131 70.7267 178.811 70.3C179.491 69.86 180.271 69.64 181.151 69.64C181.871 69.64 182.511 69.7933 183.071 70.1C183.644 70.3933 184.084 70.8133 184.391 71.36V65.28H186.891ZM181.811 78.2C182.638 78.2 183.278 77.9133 183.731 77.34C184.198 76.7667 184.431 75.9533 184.431 74.9C184.431 73.8467 184.204 73.0333 183.751 72.46C183.298 71.8867 182.658 71.6 181.831 71.6C180.991 71.6 180.338 71.8867 179.871 72.46C179.418 73.02 179.191 73.82 179.191 74.86C179.191 75.9133 179.418 76.7333 179.871 77.32C180.338 77.9067 180.984 78.2 181.811 78.2Z" fill="white"/>
<path d="M408.257 53C408.412 53 408.571 53 408.725 53C408.751 53.0154 408.772 53.036 408.797 53.0515C409.266 53.247 409.477 53.566 409.487 54.0857C409.487 54.3585 409.497 54.6312 409.487 54.9039C409.477 55.0789 409.528 55.1458 409.708 55.1766C412.95 55.7324 415.415 58.6603 415.482 62.041C415.502 63.0238 415.487 64.0118 415.487 64.9946C415.487 66.2707 415.78 67.4645 416.413 68.5709C416.809 69.2604 417.319 69.847 417.9 70.3822C418.595 71.0254 418.687 72.0545 418.142 72.7955C417.751 73.3203 417.221 73.5262 416.588 73.5262C411.195 73.5262 405.797 73.5262 400.405 73.5262C400.343 73.5262 400.281 73.5262 400.22 73.5262C399.376 73.4799 398.717 72.9344 398.547 72.106C398.398 71.3701 398.65 70.7784 399.196 70.2844C400.575 69.034 401.367 67.4645 401.47 65.5761C401.532 64.5161 401.485 63.4458 401.511 62.3806C401.527 61.8609 401.547 61.336 401.65 60.8317C402.252 57.8678 404.424 55.7169 407.331 55.1766C407.47 55.1509 407.511 55.0943 407.506 54.9554C407.501 54.6363 407.496 54.3122 407.506 53.9931C407.521 53.566 407.732 53.2727 408.103 53.0926C408.159 53.0669 408.211 53.036 408.262 53.0051L408.257 53Z" fill="#FFFCF1"/>
<path d="M404.841 74.0146H412.132C411.957 75.2908 410.655 76.9631 408.551 76.9992C406.523 77.0352 405.067 75.4709 404.841 74.0146Z" fill="#FFFCF1"/>
<rect width="444" height="77" transform="translate(36 127)" fill="#3EC5D6"/>
<path d="M101.732 172.607C101.342 172.295 100.998 171.922 100.645 171.572C100.575 171.502 100.505 171.433 100.435 171.363C100.245 171.176 100.056 170.988 99.8664 170.8C99.748 170.682 99.6296 170.565 99.5112 170.447C99.1828 170.122 98.8545 169.796 98.5263 169.47C98.5054 169.449 98.4845 169.428 98.4629 169.407C98.4419 169.386 98.4209 169.365 98.3993 169.344C98.3568 169.302 98.3143 169.259 98.2718 169.217C98.2507 169.196 98.2296 169.175 98.2079 169.154C97.8656 168.814 97.5231 168.474 97.1804 168.135C96.828 167.786 96.4758 167.436 96.1237 167.086C95.9263 166.89 95.7289 166.694 95.5311 166.499C95.3454 166.315 95.1599 166.131 94.9747 165.946C94.9067 165.879 94.8386 165.811 94.7704 165.744C94.6772 165.652 94.5845 165.56 94.4919 165.467C94.4648 165.441 94.4378 165.414 94.4099 165.387C94.1346 165.11 94.0052 164.872 94 164.48C94.0099 163.746 94.6791 163.296 95.1685 162.809C95.2384 162.74 95.3083 162.67 95.3782 162.6C95.5673 162.412 95.7564 162.224 95.9456 162.036C96.0639 161.918 96.1821 161.801 96.3003 161.683C96.6282 161.357 96.9561 161.031 97.2842 160.705C97.3051 160.684 97.3261 160.663 97.3476 160.641C97.3686 160.621 97.3896 160.6 97.4112 160.578C97.4536 160.536 97.4961 160.494 97.5386 160.452C97.5597 160.431 97.5808 160.41 97.6025 160.388C97.9446 160.048 98.2865 159.708 98.6282 159.368C98.9797 159.017 99.3315 158.667 99.6835 158.318C99.8808 158.122 100.078 157.925 100.275 157.729C100.46 157.545 100.646 157.36 100.831 157.176C100.899 157.109 100.967 157.041 101.035 156.973C101.128 156.881 101.221 156.789 101.314 156.697C101.34 156.67 101.367 156.643 101.395 156.615C101.673 156.342 101.912 156.213 102.307 156.208C102.775 156.215 102.984 156.384 103.308 156.7C103.37 156.76 103.433 156.818 103.496 156.875C103.824 157.179 104.078 157.483 104.097 157.949C104.065 158.529 103.634 158.867 103.243 159.254C103.204 159.293 103.164 159.333 103.125 159.372C103.018 159.478 102.911 159.584 102.804 159.69C102.692 159.801 102.581 159.912 102.469 160.023C102.257 160.233 102.046 160.442 101.834 160.652C101.593 160.891 101.352 161.13 101.112 161.369C100.617 161.861 100.121 162.352 99.626 162.843C99.668 162.843 99.668 162.843 99.7108 162.843C101.37 162.846 103.03 162.85 104.689 162.854C104.888 162.854 105.087 162.855 105.287 162.855C105.346 162.855 105.346 162.855 105.407 162.856C106.049 162.857 106.691 162.858 107.334 162.86C107.993 162.861 108.652 162.862 109.311 162.864C109.717 162.865 110.124 162.866 110.531 162.867C110.81 162.867 111.088 162.868 111.367 162.869C111.528 162.869 111.689 162.869 111.85 162.869C111.997 162.87 112.145 162.87 112.292 162.871C112.37 162.871 112.449 162.871 112.527 162.871C112.957 162.873 113.336 162.895 113.666 163.192C113.896 163.469 113.991 163.715 113.993 164.07C113.993 164.102 113.994 164.135 113.994 164.168C113.995 164.236 113.995 164.305 113.995 164.373C113.996 164.477 113.997 164.58 113.999 164.683C114.003 165.082 113.995 165.408 113.706 165.715C113.325 166.079 112.89 166.065 112.389 166.065C112.334 166.065 112.279 166.065 112.224 166.065C112.074 166.066 111.923 166.066 111.773 166.067C111.61 166.067 111.448 166.067 111.285 166.068C111.004 166.069 110.722 166.069 110.441 166.07C110.034 166.071 109.627 166.072 109.22 166.073C108.56 166.075 107.9 166.077 107.239 166.078C106.598 166.08 105.957 166.081 105.315 166.083C105.256 166.083 105.256 166.083 105.196 166.083C104.997 166.084 104.799 166.084 104.601 166.085C102.955 166.089 101.31 166.094 99.665 166.098C99.6861 166.118 99.7071 166.139 99.7289 166.161C100.243 166.668 100.757 167.176 101.27 167.684C101.518 167.93 101.766 168.175 102.015 168.421C102.232 168.634 102.449 168.849 102.665 169.063C102.779 169.177 102.894 169.29 103.009 169.403C103.117 169.509 103.225 169.616 103.333 169.724C103.372 169.763 103.412 169.802 103.451 169.84C103.794 170.176 104.069 170.488 104.089 170.979C104.092 171.019 104.094 171.059 104.096 171.1C104.027 171.529 103.759 171.829 103.453 172.12C103.419 172.153 103.386 172.186 103.351 172.221C102.919 172.641 102.327 172.963 101.732 172.607Z" fill="#FFFCF1"/>
<path d="M132.956 157.744H139.136C140.669 157.744 141.863 158.118 142.716 158.864C143.569 159.598 143.996 160.604 143.996 161.884C143.996 163.164 143.563 164.178 142.696 164.924C141.843 165.671 140.656 166.044 139.136 166.044H135.536V171.984H132.956V157.744ZM138.836 164.044C139.729 164.044 140.403 163.864 140.856 163.504C141.323 163.131 141.556 162.598 141.556 161.904C141.556 161.198 141.329 160.664 140.876 160.304C140.423 159.931 139.743 159.744 138.836 159.744H135.536V164.044H138.836ZM151.341 161.644C151.728 161.644 152.061 161.698 152.341 161.804L152.321 164.084C151.894 163.911 151.454 163.824 151.001 163.824C150.148 163.824 149.494 164.071 149.041 164.564C148.601 165.058 148.381 165.711 148.381 166.524V171.984H145.901V164.744C145.901 163.678 145.848 162.724 145.741 161.884H148.081L148.281 163.664C148.534 163.011 148.934 162.511 149.481 162.164C150.028 161.818 150.648 161.644 151.341 161.644ZM158.118 172.144C157.091 172.144 156.184 171.931 155.398 171.504C154.624 171.078 154.024 170.471 153.598 169.684C153.184 168.884 152.978 167.951 152.978 166.884C152.978 165.818 153.184 164.891 153.598 164.104C154.024 163.304 154.624 162.691 155.398 162.264C156.184 161.838 157.091 161.624 158.118 161.624C159.131 161.624 160.024 161.838 160.798 162.264C161.571 162.691 162.164 163.304 162.578 164.104C163.004 164.891 163.218 165.818 163.218 166.884C163.218 167.951 163.004 168.884 162.578 169.684C162.164 170.471 161.571 171.078 160.798 171.504C160.024 171.931 159.131 172.144 158.118 172.144ZM158.098 170.184C158.951 170.184 159.598 169.911 160.038 169.364C160.491 168.804 160.718 167.978 160.718 166.884C160.718 165.804 160.491 164.984 160.038 164.424C159.584 163.851 158.944 163.564 158.118 163.564C157.278 163.564 156.631 163.851 156.178 164.424C155.724 164.984 155.498 165.804 155.498 166.884C155.498 167.978 155.718 168.804 156.158 169.364C156.611 169.911 157.258 170.184 158.098 170.184ZM175.134 161.884V171.664C175.134 173.238 174.7 174.431 173.834 175.244C172.967 176.058 171.694 176.464 170.014 176.464C168.454 176.464 167.08 176.138 165.894 175.484L166.294 173.584C167.52 174.224 168.74 174.544 169.954 174.544C171.754 174.544 172.654 173.651 172.654 171.864V169.864C172.347 170.411 171.9 170.858 171.314 171.204C170.727 171.538 170.067 171.704 169.334 171.704C168.454 171.704 167.667 171.498 166.974 171.084C166.294 170.658 165.76 170.064 165.374 169.304C165 168.531 164.814 167.651 164.814 166.664C164.814 165.678 165 164.804 165.374 164.044C165.76 163.271 166.294 162.678 166.974 162.264C167.667 161.838 168.454 161.624 169.334 161.624C170.08 161.624 170.74 161.784 171.314 162.104C171.9 162.411 172.347 162.844 172.654 163.404V161.884H175.134ZM169.994 169.744C170.82 169.744 171.467 169.471 171.934 168.924C172.414 168.378 172.654 167.624 172.654 166.664C172.654 165.704 172.42 164.951 171.954 164.404C171.487 163.858 170.834 163.584 169.994 163.584C169.167 163.584 168.514 163.858 168.034 164.404C167.567 164.951 167.334 165.704 167.334 166.664C167.334 167.624 167.567 168.378 168.034 168.924C168.514 169.471 169.167 169.744 169.994 169.744ZM183.275 161.644C183.661 161.644 183.995 161.698 184.275 161.804L184.255 164.084C183.828 163.911 183.388 163.824 182.935 163.824C182.081 163.824 181.428 164.071 180.975 164.564C180.535 165.058 180.315 165.711 180.315 166.524V171.984H177.835V164.744C177.835 163.678 177.781 162.724 177.675 161.884H180.015L180.215 163.664C180.468 163.011 180.868 162.511 181.415 162.164C181.961 161.818 182.581 161.644 183.275 161.644ZM195.131 161.884V171.984H192.671V170.364C192.365 170.924 191.925 171.364 191.351 171.684C190.778 171.991 190.125 172.144 189.391 172.144C188.511 172.144 187.731 171.931 187.051 171.504C186.371 171.078 185.845 170.471 185.471 169.684C185.098 168.898 184.911 167.984 184.911 166.944C184.911 165.904 185.098 164.984 185.471 164.184C185.858 163.371 186.391 162.744 187.071 162.304C187.751 161.851 188.525 161.624 189.391 161.624C190.125 161.624 190.778 161.784 191.351 162.104C191.925 162.411 192.365 162.844 192.671 163.404V161.884H195.131ZM190.071 170.184C190.898 170.184 191.538 169.898 191.991 169.324C192.445 168.751 192.671 167.944 192.671 166.904C192.671 165.838 192.445 165.018 191.991 164.444C191.538 163.871 190.891 163.584 190.051 163.584C189.225 163.584 188.578 163.884 188.111 164.484C187.658 165.071 187.431 165.891 187.431 166.944C187.431 167.984 187.658 168.784 188.111 169.344C188.578 169.904 189.231 170.184 190.071 170.184ZM209.774 161.624C210.921 161.624 211.774 161.971 212.334 162.664C212.894 163.344 213.174 164.384 213.174 165.784V171.984H210.674V165.864C210.674 165.064 210.541 164.491 210.274 164.144C210.021 163.784 209.594 163.604 208.994 163.604C208.301 163.604 207.754 163.851 207.354 164.344C206.967 164.824 206.774 165.491 206.774 166.344V171.984H204.274V165.864C204.274 165.078 204.134 164.504 203.854 164.144C203.587 163.784 203.161 163.604 202.574 163.604C201.881 163.604 201.334 163.851 200.934 164.344C200.534 164.824 200.334 165.491 200.334 166.344V171.984H197.854V164.744C197.854 163.678 197.801 162.724 197.694 161.884H200.034L200.214 163.484C200.507 162.884 200.927 162.424 201.474 162.104C202.034 161.784 202.674 161.624 203.394 161.624C204.941 161.624 205.947 162.264 206.414 163.544C206.734 162.944 207.187 162.478 207.774 162.144C208.374 161.798 209.041 161.624 209.774 161.624ZM230.991 157.264V171.984H228.531V170.364C228.224 170.924 227.784 171.364 227.211 171.684C226.637 171.991 225.984 172.144 225.251 172.144C224.384 172.144 223.611 171.924 222.931 171.484C222.251 171.044 221.717 170.424 221.331 169.624C220.957 168.811 220.771 167.884 220.771 166.844C220.771 165.804 220.957 164.891 221.331 164.104C221.704 163.318 222.231 162.711 222.911 162.284C223.591 161.844 224.371 161.624 225.251 161.624C225.971 161.624 226.611 161.778 227.171 162.084C227.744 162.378 228.184 162.798 228.491 163.344V157.264H230.991ZM225.911 170.184C226.737 170.184 227.377 169.898 227.831 169.324C228.297 168.751 228.531 167.938 228.531 166.884C228.531 165.831 228.304 165.018 227.851 164.444C227.397 163.871 226.757 163.584 225.931 163.584C225.091 163.584 224.437 163.871 223.971 164.444C223.517 165.004 223.291 165.804 223.291 166.844C223.291 167.898 223.517 168.718 223.971 169.304C224.437 169.891 225.084 170.184 225.911 170.184ZM242.554 167.064H235.594C235.647 168.144 235.914 168.944 236.394 169.464C236.887 169.971 237.614 170.224 238.574 170.224C239.68 170.224 240.707 169.864 241.654 169.144L242.374 170.864C241.894 171.251 241.3 171.564 240.594 171.804C239.9 172.031 239.194 172.144 238.474 172.144C236.82 172.144 235.52 171.678 234.574 170.744C233.627 169.811 233.154 168.531 233.154 166.904C233.154 165.878 233.36 164.964 233.774 164.164C234.187 163.364 234.767 162.744 235.514 162.304C236.26 161.851 237.107 161.624 238.054 161.624C239.44 161.624 240.534 162.078 241.334 162.984C242.147 163.878 242.554 165.111 242.554 166.684V167.064ZM238.114 163.424C237.447 163.424 236.9 163.624 236.474 164.024C236.06 164.411 235.794 164.978 235.674 165.724H240.374C240.294 164.964 240.06 164.391 239.674 164.004C239.3 163.618 238.78 163.424 238.114 163.424ZM247.714 163.764V168.284C247.714 169.471 248.267 170.064 249.374 170.064C249.68 170.064 250.014 170.011 250.374 169.904V171.884C249.934 172.044 249.4 172.124 248.774 172.124C247.627 172.124 246.747 171.804 246.134 171.164C245.52 170.524 245.214 169.604 245.214 168.404V163.764H243.274V161.884H245.214V159.424L247.714 158.584V161.884H250.394V163.764H247.714ZM261.772 161.884V171.984H259.312V170.364C259.005 170.924 258.565 171.364 257.992 171.684C257.419 171.991 256.765 172.144 256.032 172.144C255.152 172.144 254.372 171.931 253.692 171.504C253.012 171.078 252.485 170.471 252.112 169.684C251.739 168.898 251.552 167.984 251.552 166.944C251.552 165.904 251.739 164.984 252.112 164.184C252.499 163.371 253.032 162.744 253.712 162.304C254.392 161.851 255.165 161.624 256.032 161.624C256.765 161.624 257.419 161.784 257.992 162.104C258.565 162.411 259.005 162.844 259.312 163.404V161.884H261.772ZM256.712 170.184C257.539 170.184 258.179 169.898 258.632 169.324C259.085 168.751 259.312 167.944 259.312 166.904C259.312 165.838 259.085 165.018 258.632 164.444C258.179 163.871 257.532 163.584 256.692 163.584C255.865 163.584 255.219 163.884 254.752 164.484C254.299 165.071 254.072 165.891 254.072 166.944C254.072 167.984 254.299 168.784 254.752 169.344C255.219 169.904 255.872 170.184 256.712 170.184ZM264.495 161.884H266.975V171.984H264.495V161.884ZM267.115 157.304V159.764H264.335V157.304H267.115ZM269.71 157.264H272.19V171.984H269.71V157.264ZM278.624 172.144C276.798 172.144 275.344 171.718 274.264 170.864L274.964 169.104C276.044 169.904 277.278 170.304 278.664 170.304C279.264 170.304 279.724 170.204 280.044 170.004C280.378 169.804 280.544 169.524 280.544 169.164C280.544 168.858 280.431 168.618 280.204 168.444C279.978 168.258 279.591 168.098 279.044 167.964L277.364 167.584C275.524 167.184 274.604 166.244 274.604 164.764C274.604 164.151 274.778 163.611 275.124 163.144C275.471 162.664 275.958 162.291 276.584 162.024C277.211 161.758 277.938 161.624 278.764 161.624C279.484 161.624 280.178 161.738 280.844 161.964C281.511 162.178 282.098 162.491 282.604 162.904L281.864 164.604C280.851 163.858 279.811 163.484 278.744 163.484C278.171 163.484 277.724 163.591 277.404 163.804C277.084 164.018 276.924 164.311 276.924 164.684C276.924 164.978 277.018 165.211 277.204 165.384C277.404 165.558 277.738 165.704 278.204 165.824L279.924 166.204C280.924 166.431 281.651 166.784 282.104 167.264C282.571 167.731 282.804 168.344 282.804 169.104C282.804 170.038 282.431 170.778 281.684 171.324C280.938 171.871 279.918 172.144 278.624 172.144Z" fill="white"/>
<rect width="444" height="77" transform="translate(36 228)" fill="#3EC5D6"/>
<path d="M102.232 274.122C101.842 273.811 101.498 273.438 101.145 273.087C101.075 273.018 101.005 272.948 100.935 272.879C100.745 272.691 100.556 272.503 100.366 272.315C100.248 272.198 100.13 272.08 100.011 271.963C99.6828 271.637 99.3545 271.311 99.0263 270.986C99.0054 270.965 98.9845 270.944 98.9629 270.923C98.9419 270.902 98.9209 270.881 98.8993 270.859C98.8568 270.817 98.8143 270.775 98.7718 270.733C98.7507 270.712 98.7296 270.691 98.7079 270.669C98.3656 270.329 98.0231 269.99 97.6804 269.65C97.328 269.301 96.9758 268.952 96.6237 268.602C96.4263 268.406 96.2289 268.21 96.0311 268.014C95.8454 267.83 95.6599 267.646 95.4747 267.462C95.4067 267.394 95.3386 267.327 95.2704 267.26C95.1772 267.168 95.0845 267.075 94.9919 266.983C94.9648 266.956 94.9378 266.93 94.9099 266.902C94.6346 266.626 94.5052 266.388 94.5 265.996C94.5099 265.261 95.1791 264.811 95.6685 264.325C95.7384 264.255 95.8083 264.186 95.8782 264.116C96.0673 263.928 96.2564 263.739 96.4456 263.551C96.5639 263.434 96.6821 263.316 96.8003 263.199C97.1282 262.872 97.4561 262.546 97.7842 262.22C97.8051 262.199 97.8261 262.179 97.8476 262.157C97.8686 262.136 97.8896 262.115 97.9112 262.094C97.9536 262.052 97.9961 262.01 98.0386 261.967C98.0597 261.946 98.0808 261.925 98.1025 261.904C98.4446 261.564 98.7865 261.224 99.1282 260.883C99.4797 260.533 99.8315 260.183 100.183 259.833C100.381 259.637 100.578 259.441 100.775 259.245C100.96 259.06 101.146 258.876 101.331 258.692C101.399 258.624 101.467 258.557 101.535 258.489C101.628 258.396 101.721 258.304 101.814 258.212C101.84 258.185 101.867 258.159 101.895 258.131C102.173 257.857 102.412 257.729 102.807 257.724C103.275 257.731 103.484 257.899 103.808 258.216C103.87 258.275 103.933 258.333 103.996 258.391C104.324 258.694 104.578 258.999 104.597 259.465C104.565 260.045 104.134 260.383 103.743 260.769C103.704 260.809 103.664 260.848 103.625 260.888C103.518 260.994 103.411 261.099 103.304 261.205C103.192 261.316 103.081 261.427 102.969 261.538C102.757 261.748 102.546 261.958 102.334 262.168C102.093 262.407 101.852 262.646 101.612 262.885C101.117 263.376 100.621 263.867 100.126 264.359C100.168 264.359 100.168 264.359 100.211 264.359C101.87 264.362 103.53 264.365 105.189 264.369C105.388 264.37 105.587 264.37 105.787 264.371C105.846 264.371 105.846 264.371 105.907 264.371C106.549 264.373 107.191 264.374 107.834 264.375C108.493 264.376 109.152 264.378 109.811 264.38C110.217 264.381 110.624 264.382 111.031 264.382C111.31 264.383 111.588 264.383 111.867 264.384C112.028 264.385 112.189 264.385 112.35 264.385C112.497 264.385 112.645 264.386 112.792 264.386C112.87 264.387 112.949 264.386 113.027 264.386C113.457 264.389 113.836 264.411 114.166 264.707C114.396 264.985 114.491 265.23 114.493 265.586C114.493 265.618 114.494 265.65 114.494 265.684C114.495 265.752 114.495 265.82 114.495 265.889C114.496 265.992 114.497 266.096 114.499 266.199C114.503 266.598 114.495 266.924 114.206 267.23C113.825 267.594 113.39 267.58 112.889 267.581C112.834 267.581 112.779 267.581 112.724 267.581C112.574 267.582 112.423 267.582 112.273 267.582C112.11 267.582 111.948 267.583 111.785 267.584C111.504 267.584 111.222 267.585 110.941 267.586C110.534 267.587 110.127 267.588 109.72 267.589C109.06 267.591 108.4 267.592 107.739 267.594C107.098 267.595 106.457 267.597 105.815 267.599C105.756 267.599 105.756 267.599 105.696 267.599C105.497 267.6 105.299 267.6 105.101 267.601C103.455 267.605 101.81 267.609 100.165 267.613C100.186 267.634 100.207 267.655 100.229 267.676C100.743 268.183 101.257 268.691 101.77 269.199C102.018 269.445 102.266 269.691 102.515 269.936C102.732 270.15 102.949 270.364 103.165 270.579C103.279 270.692 103.394 270.805 103.509 270.918C103.617 271.025 103.725 271.132 103.833 271.239C103.872 271.278 103.912 271.317 103.951 271.356C104.294 271.691 104.569 272.003 104.589 272.495C104.592 272.535 104.594 272.575 104.596 272.616C104.527 273.045 104.259 273.344 103.953 273.635C103.919 273.669 103.886 273.702 103.851 273.736C103.419 274.156 102.827 274.479 102.232 274.122Z" fill="#FFFCF1"/>
<path d="M146.1 259.26L139.76 273.5H137.66L131.32 259.26H134L138.74 270.26L143.48 259.26H146.1ZM147.274 263.4H149.754V273.5H147.274V263.4ZM149.894 258.82V261.28H147.114V258.82H149.894ZM162.149 258.78V273.5H159.689V271.88C159.382 272.44 158.942 272.88 158.369 273.2C157.796 273.507 157.142 273.66 156.409 273.66C155.542 273.66 154.769 273.44 154.089 273C153.409 272.56 152.876 271.94 152.489 271.14C152.116 270.327 151.929 269.4 151.929 268.36C151.929 267.32 152.116 266.407 152.489 265.62C152.862 264.833 153.389 264.227 154.069 263.8C154.749 263.36 155.529 263.14 156.409 263.14C157.129 263.14 157.769 263.293 158.329 263.6C158.902 263.893 159.342 264.313 159.649 264.86V258.78H162.149ZM157.069 271.7C157.896 271.7 158.536 271.413 158.989 270.84C159.456 270.267 159.689 269.453 159.689 268.4C159.689 267.347 159.462 266.533 159.009 265.96C158.556 265.387 157.916 265.1 157.089 265.1C156.249 265.1 155.596 265.387 155.129 265.96C154.676 266.52 154.449 267.32 154.449 268.36C154.449 269.413 154.676 270.233 155.129 270.82C155.596 271.407 156.242 271.7 157.069 271.7ZM173.712 268.58H166.752C166.805 269.66 167.072 270.46 167.552 270.98C168.045 271.487 168.772 271.74 169.732 271.74C170.838 271.74 171.865 271.38 172.812 270.66L173.532 272.38C173.052 272.767 172.458 273.08 171.752 273.32C171.058 273.547 170.352 273.66 169.632 273.66C167.978 273.66 166.678 273.193 165.732 272.26C164.785 271.327 164.312 270.047 164.312 268.42C164.312 267.393 164.518 266.48 164.932 265.68C165.345 264.88 165.925 264.26 166.672 263.82C167.418 263.367 168.265 263.14 169.212 263.14C170.598 263.14 171.692 263.593 172.492 264.5C173.305 265.393 173.712 266.627 173.712 268.2V268.58ZM169.272 264.94C168.605 264.94 168.058 265.14 167.632 265.54C167.218 265.927 166.952 266.493 166.832 267.24H171.532C171.452 266.48 171.218 265.907 170.832 265.52C170.458 265.133 169.938 264.94 169.272 264.94ZM180.409 273.66C179.382 273.66 178.475 273.447 177.689 273.02C176.915 272.593 176.315 271.987 175.889 271.2C175.475 270.4 175.269 269.467 175.269 268.4C175.269 267.333 175.475 266.407 175.889 265.62C176.315 264.82 176.915 264.207 177.689 263.78C178.475 263.353 179.382 263.14 180.409 263.14C181.422 263.14 182.315 263.353 183.089 263.78C183.862 264.207 184.455 264.82 184.869 265.62C185.295 266.407 185.509 267.333 185.509 268.4C185.509 269.467 185.295 270.4 184.869 271.2C184.455 271.987 183.862 272.593 183.089 273.02C182.315 273.447 181.422 273.66 180.409 273.66ZM180.389 271.7C181.242 271.7 181.889 271.427 182.329 270.88C182.782 270.32 183.009 269.493 183.009 268.4C183.009 267.32 182.782 266.5 182.329 265.94C181.875 265.367 181.235 265.08 180.409 265.08C179.569 265.08 178.922 265.367 178.469 265.94C178.015 266.5 177.789 267.32 177.789 268.4C177.789 269.493 178.009 270.32 178.449 270.88C178.902 271.427 179.549 271.7 180.389 271.7ZM193.333 259.26H195.913V271.38H202.573V273.5H193.333V259.26ZM204.344 263.4H206.824V273.5H204.344V263.4ZM206.964 258.82V261.28H204.184V258.82H206.964ZM215.319 263.14C216.199 263.14 216.973 263.36 217.639 263.8C218.319 264.227 218.846 264.833 219.219 265.62C219.593 266.407 219.779 267.32 219.779 268.36C219.779 269.4 219.586 270.327 219.199 271.14C218.826 271.94 218.299 272.56 217.619 273C216.953 273.44 216.186 273.66 215.319 273.66C214.573 273.66 213.906 273.5 213.319 273.18C212.746 272.86 212.313 272.413 212.019 271.84V273.5H209.559V258.78H212.039V264.92C212.346 264.36 212.786 263.927 213.359 263.62C213.933 263.3 214.586 263.14 215.319 263.14ZM214.659 271.7C215.486 271.7 216.126 271.407 216.579 270.82C217.033 270.233 217.259 269.413 217.259 268.36C217.259 267.32 217.033 266.52 216.579 265.96C216.126 265.387 215.479 265.1 214.639 265.1C213.799 265.1 213.153 265.387 212.699 265.96C212.246 266.533 212.019 267.347 212.019 268.4C212.019 269.467 212.246 270.287 212.699 270.86C213.153 271.42 213.806 271.7 214.659 271.7ZM227.402 263.16C227.788 263.16 228.122 263.213 228.402 263.32L228.382 265.6C227.955 265.427 227.515 265.34 227.062 265.34C226.208 265.34 225.555 265.587 225.102 266.08C224.662 266.573 224.442 267.227 224.442 268.04V273.5H221.962V266.26C221.962 265.193 221.908 264.24 221.802 263.4H224.142L224.342 265.18C224.595 264.527 224.995 264.027 225.542 263.68C226.088 263.333 226.708 263.16 227.402 263.16ZM239.258 263.4V273.5H236.798V271.88C236.492 272.44 236.052 272.88 235.478 273.2C234.905 273.507 234.252 273.66 233.518 273.66C232.638 273.66 231.858 273.447 231.178 273.02C230.498 272.593 229.972 271.987 229.598 271.2C229.225 270.413 229.038 269.5 229.038 268.46C229.038 267.42 229.225 266.5 229.598 265.7C229.985 264.887 230.518 264.26 231.198 263.82C231.878 263.367 232.652 263.14 233.518 263.14C234.252 263.14 234.905 263.3 235.478 263.62C236.052 263.927 236.492 264.36 236.798 264.92V263.4H239.258ZM234.198 271.7C235.025 271.7 235.665 271.413 236.118 270.84C236.572 270.267 236.798 269.46 236.798 268.42C236.798 267.353 236.572 266.533 236.118 265.96C235.665 265.387 235.018 265.1 234.178 265.1C233.352 265.1 232.705 265.4 232.238 266C231.785 266.587 231.558 267.407 231.558 268.46C231.558 269.5 231.785 270.3 232.238 270.86C232.705 271.42 233.358 271.7 234.198 271.7ZM247.421 263.16C247.808 263.16 248.141 263.213 248.421 263.32L248.401 265.6C247.974 265.427 247.534 265.34 247.081 265.34C246.228 265.34 245.574 265.587 245.121 266.08C244.681 266.573 244.461 267.227 244.461 268.04V273.5H241.981V266.26C241.981 265.193 241.928 264.24 241.821 263.4H244.161L244.361 265.18C244.614 264.527 245.014 264.027 245.561 263.68C246.108 263.333 246.728 263.16 247.421 263.16ZM259.979 263.4L255.279 274.18C254.745 275.433 254.065 276.347 253.239 276.92C252.412 277.493 251.392 277.873 250.179 278.06L249.619 276.14C250.565 275.927 251.272 275.653 251.739 275.32C252.219 275 252.605 274.52 252.899 273.88L253.219 273.14L249.019 263.4H251.639L254.539 270.66L257.499 263.4H259.979Z" fill="white"/>
<path d="M409.257 254C409.412 254 409.571 254 409.725 254C409.751 254.015 409.772 254.036 409.797 254.051C410.266 254.247 410.477 254.566 410.487 255.086C410.487 255.358 410.497 255.631 410.487 255.904C410.477 256.079 410.528 256.146 410.708 256.177C413.95 256.732 416.415 259.66 416.482 263.041C416.502 264.024 416.487 265.012 416.487 265.995C416.487 267.271 416.78 268.465 417.413 269.571C417.809 270.26 418.319 270.847 418.9 271.382C419.595 272.025 419.687 273.055 419.142 273.795C418.751 274.32 418.221 274.526 417.588 274.526C412.195 274.526 406.797 274.526 401.405 274.526C401.343 274.526 401.281 274.526 401.22 274.526C400.376 274.48 399.717 273.934 399.547 273.106C399.398 272.37 399.65 271.778 400.196 271.284C401.575 270.034 402.367 268.465 402.47 266.576C402.532 265.516 402.485 264.446 402.511 263.381C402.527 262.861 402.547 262.336 402.65 261.832C403.252 258.868 405.424 256.717 408.331 256.177C408.47 256.151 408.511 256.094 408.506 255.955C408.501 255.636 408.496 255.312 408.506 254.993C408.521 254.566 408.732 254.273 409.103 254.093C409.159 254.067 409.211 254.036 409.262 254.005L409.257 254Z" fill="#FFFCF1"/>
<path d="M405.841 275.015H413.132C412.957 276.291 411.655 277.963 409.551 277.999C407.523 278.035 406.067 276.471 405.841 275.015Z" fill="#FFFCF1"/>
<rect width="444" height="77" transform="translate(36 329)" fill="#3EC5D6"/>
<path d="M99.232 375.622C98.8424 375.311 98.4981 374.938 98.145 374.587C98.0749 374.518 98.0048 374.448 97.9347 374.379C97.7452 374.191 97.5558 374.003 97.3664 373.815C97.248 373.698 97.1296 373.58 97.0112 373.463C96.6828 373.137 96.3545 372.811 96.0263 372.486C96.0054 372.465 95.9845 372.444 95.9629 372.423C95.9419 372.402 95.9209 372.381 95.8993 372.359C95.8568 372.317 95.8143 372.275 95.7718 372.233C95.7507 372.212 95.7296 372.191 95.7079 372.169C95.3656 371.829 95.0231 371.49 94.6804 371.15C94.328 370.801 93.9758 370.452 93.6237 370.102C93.4263 369.906 93.2289 369.71 93.0311 369.514C92.8454 369.33 92.6599 369.146 92.4747 368.962C92.4067 368.894 92.3386 368.827 92.2704 368.76C92.1772 368.668 92.0845 368.575 91.9919 368.483C91.9648 368.456 91.9378 368.43 91.9099 368.402C91.6346 368.126 91.5052 367.888 91.5 367.496C91.5099 366.761 92.1791 366.311 92.6685 365.825C92.7384 365.755 92.8083 365.686 92.8782 365.616C93.0673 365.428 93.2564 365.239 93.4456 365.051C93.5639 364.934 93.6821 364.816 93.8003 364.699C94.1282 364.372 94.4561 364.046 94.7842 363.72C94.8051 363.699 94.8261 363.679 94.8476 363.657C94.8686 363.636 94.8896 363.615 94.9112 363.594C94.9536 363.552 94.9961 363.51 95.0386 363.467C95.0597 363.446 95.0808 363.425 95.1025 363.404C95.4446 363.064 95.7865 362.724 96.1282 362.383C96.4797 362.033 96.8315 361.683 97.1835 361.333C97.3808 361.137 97.5781 360.941 97.7751 360.745C97.9602 360.56 98.1456 360.376 98.3312 360.192C98.3992 360.124 98.4671 360.057 98.535 359.989C98.6276 359.896 98.7205 359.804 98.8136 359.712C98.8403 359.685 98.8671 359.659 98.8946 359.631C99.1727 359.357 99.4124 359.229 99.8073 359.224C100.275 359.231 100.484 359.399 100.808 359.716C100.87 359.775 100.933 359.833 100.996 359.891C101.324 360.194 101.578 360.499 101.597 360.965C101.565 361.545 101.134 361.883 100.743 362.269C100.704 362.309 100.664 362.348 100.625 362.388C100.518 362.494 100.411 362.599 100.304 362.705C100.192 362.816 100.081 362.927 99.9687 363.038C99.7573 363.248 99.5458 363.458 99.3343 363.668C99.0933 363.907 98.8524 364.146 98.6116 364.385C98.1165 364.876 97.6213 365.367 97.126 365.859C97.168 365.859 97.168 365.859 97.2108 365.859C98.8702 365.862 100.53 365.865 102.189 365.869C102.388 365.87 102.587 365.87 102.787 365.871C102.846 365.871 102.846 365.871 102.907 365.871C103.549 365.873 104.191 365.874 104.834 365.875C105.493 365.876 106.152 365.878 106.811 365.88C107.217 365.881 107.624 365.882 108.031 365.882C108.31 365.883 108.588 365.883 108.867 365.884C109.028 365.885 109.189 365.885 109.35 365.885C109.497 365.885 109.645 365.886 109.792 365.886C109.87 365.887 109.949 365.886 110.027 365.886C110.457 365.889 110.836 365.911 111.166 366.207C111.396 366.485 111.491 366.73 111.493 367.086C111.493 367.118 111.494 367.15 111.494 367.184C111.495 367.252 111.495 367.32 111.495 367.389C111.496 367.492 111.497 367.596 111.499 367.699C111.503 368.098 111.495 368.424 111.206 368.73C110.825 369.094 110.39 369.08 109.889 369.081C109.834 369.081 109.779 369.081 109.724 369.081C109.574 369.082 109.423 369.082 109.273 369.082C109.11 369.082 108.948 369.083 108.785 369.084C108.504 369.084 108.222 369.085 107.941 369.086C107.534 369.087 107.127 369.088 106.72 369.089C106.06 369.091 105.4 369.092 104.739 369.094C104.098 369.095 103.457 369.097 102.815 369.099C102.756 369.099 102.756 369.099 102.696 369.099C102.497 369.1 102.299 369.1 102.101 369.101C100.455 369.105 98.8102 369.109 97.165 369.113C97.1861 369.134 97.2071 369.155 97.2289 369.176C97.743 369.683 98.2567 370.191 98.7699 370.699C99.0181 370.945 99.2665 371.191 99.5152 371.436C99.732 371.65 99.9486 371.864 100.165 372.079C100.279 372.192 100.394 372.305 100.509 372.418C100.617 372.525 100.725 372.632 100.833 372.739C100.872 372.778 100.912 372.817 100.951 372.856C101.294 373.191 101.569 373.503 101.589 373.995C101.592 374.035 101.594 374.075 101.596 374.116C101.527 374.545 101.259 374.844 100.953 375.135C100.919 375.169 100.886 375.202 100.851 375.236C100.419 375.656 99.8265 375.979 99.232 375.622Z" fill="#FFFCF1"/>
<path d="M143.1 360.76L136.76 375H134.66L128.32 360.76H131L135.74 371.76L140.48 360.76H143.1ZM144.274 364.9H146.754V375H144.274V364.9ZM146.894 360.32V362.78H144.114V360.32H146.894ZM159.149 360.28V375H156.689V373.38C156.382 373.94 155.942 374.38 155.369 374.7C154.796 375.007 154.142 375.16 153.409 375.16C152.542 375.16 151.769 374.94 151.089 374.5C150.409 374.06 149.876 373.44 149.489 372.64C149.116 371.827 148.929 370.9 148.929 369.86C148.929 368.82 149.116 367.907 149.489 367.12C149.862 366.333 150.389 365.727 151.069 365.3C151.749 364.86 152.529 364.64 153.409 364.64C154.129 364.64 154.769 364.793 155.329 365.1C155.902 365.393 156.342 365.813 156.649 366.36V360.28H159.149ZM154.069 373.2C154.896 373.2 155.536 372.913 155.989 372.34C156.456 371.767 156.689 370.953 156.689 369.9C156.689 368.847 156.462 368.033 156.009 367.46C155.556 366.887 154.916 366.6 154.089 366.6C153.249 366.6 152.596 366.887 152.129 367.46C151.676 368.02 151.449 368.82 151.449 369.86C151.449 370.913 151.676 371.733 152.129 372.32C152.596 372.907 153.242 373.2 154.069 373.2ZM170.712 370.08H163.752C163.805 371.16 164.072 371.96 164.552 372.48C165.045 372.987 165.772 373.24 166.732 373.24C167.838 373.24 168.865 372.88 169.812 372.16L170.532 373.88C170.052 374.267 169.458 374.58 168.752 374.82C168.058 375.047 167.352 375.16 166.632 375.16C164.978 375.16 163.678 374.693 162.732 373.76C161.785 372.827 161.312 371.547 161.312 369.92C161.312 368.893 161.518 367.98 161.932 367.18C162.345 366.38 162.925 365.76 163.672 365.32C164.418 364.867 165.265 364.64 166.212 364.64C167.598 364.64 168.692 365.093 169.492 366C170.305 366.893 170.712 368.127 170.712 369.7V370.08ZM166.272 366.44C165.605 366.44 165.058 366.64 164.632 367.04C164.218 367.427 163.952 367.993 163.832 368.74H168.532C168.452 367.98 168.218 367.407 167.832 367.02C167.458 366.633 166.938 366.44 166.272 366.44ZM177.409 375.16C176.382 375.16 175.475 374.947 174.689 374.52C173.915 374.093 173.315 373.487 172.889 372.7C172.475 371.9 172.269 370.967 172.269 369.9C172.269 368.833 172.475 367.907 172.889 367.12C173.315 366.32 173.915 365.707 174.689 365.28C175.475 364.853 176.382 364.64 177.409 364.64C178.422 364.64 179.315 364.853 180.089 365.28C180.862 365.707 181.455 366.32 181.869 367.12C182.295 367.907 182.509 368.833 182.509 369.9C182.509 370.967 182.295 371.9 181.869 372.7C181.455 373.487 180.862 374.093 180.089 374.52C179.315 374.947 178.422 375.16 177.409 375.16ZM177.389 373.2C178.242 373.2 178.889 372.927 179.329 372.38C179.782 371.82 180.009 370.993 180.009 369.9C180.009 368.82 179.782 368 179.329 367.44C178.875 366.867 178.235 366.58 177.409 366.58C176.569 366.58 175.922 366.867 175.469 367.44C175.015 368 174.789 368.82 174.789 369.9C174.789 370.993 175.009 371.82 175.449 372.38C175.902 372.927 176.549 373.2 177.389 373.2ZM190.333 360.76H192.913V372.88H199.573V375H190.333V360.76ZM201.344 364.9H203.824V375H201.344V364.9ZM203.964 360.32V362.78H201.184V360.32H203.964ZM212.319 364.64C213.199 364.64 213.973 364.86 214.639 365.3C215.319 365.727 215.846 366.333 216.219 367.12C216.593 367.907 216.779 368.82 216.779 369.86C216.779 370.9 216.586 371.827 216.199 372.64C215.826 373.44 215.299 374.06 214.619 374.5C213.953 374.94 213.186 375.16 212.319 375.16C211.573 375.16 210.906 375 210.319 374.68C209.746 374.36 209.313 373.913 209.019 373.34V375H206.559V360.28H209.039V366.42C209.346 365.86 209.786 365.427 210.359 365.12C210.933 364.8 211.586 364.64 212.319 364.64ZM211.659 373.2C212.486 373.2 213.126 372.907 213.579 372.32C214.033 371.733 214.259 370.913 214.259 369.86C214.259 368.82 214.033 368.02 213.579 367.46C213.126 366.887 212.479 366.6 211.639 366.6C210.799 366.6 210.153 366.887 209.699 367.46C209.246 368.033 209.019 368.847 209.019 369.9C209.019 370.967 209.246 371.787 209.699 372.36C210.153 372.92 210.806 373.2 211.659 373.2ZM224.402 364.66C224.788 364.66 225.122 364.713 225.402 364.82L225.382 367.1C224.955 366.927 224.515 366.84 224.062 366.84C223.208 366.84 222.555 367.087 222.102 367.58C221.662 368.073 221.442 368.727 221.442 369.54V375H218.962V367.76C218.962 366.693 218.908 365.74 218.802 364.9H221.142L221.342 366.68C221.595 366.027 221.995 365.527 222.542 365.18C223.088 364.833 223.708 364.66 224.402 364.66ZM236.258 364.9V375H233.798V373.38C233.492 373.94 233.052 374.38 232.478 374.7C231.905 375.007 231.252 375.16 230.518 375.16C229.638 375.16 228.858 374.947 228.178 374.52C227.498 374.093 226.972 373.487 226.598 372.7C226.225 371.913 226.038 371 226.038 369.96C226.038 368.92 226.225 368 226.598 367.2C226.985 366.387 227.518 365.76 228.198 365.32C228.878 364.867 229.652 364.64 230.518 364.64C231.252 364.64 231.905 364.8 232.478 365.12C233.052 365.427 233.492 365.86 233.798 366.42V364.9H236.258ZM231.198 373.2C232.025 373.2 232.665 372.913 233.118 372.34C233.572 371.767 233.798 370.96 233.798 369.92C233.798 368.853 233.572 368.033 233.118 367.46C232.665 366.887 232.018 366.6 231.178 366.6C230.352 366.6 229.705 366.9 229.238 367.5C228.785 368.087 228.558 368.907 228.558 369.96C228.558 371 228.785 371.8 229.238 372.36C229.705 372.92 230.358 373.2 231.198 373.2ZM244.421 364.66C244.808 364.66 245.141 364.713 245.421 364.82L245.401 367.1C244.974 366.927 244.534 366.84 244.081 366.84C243.228 366.84 242.574 367.087 242.121 367.58C241.681 368.073 241.461 368.727 241.461 369.54V375H238.981V367.76C238.981 366.693 238.928 365.74 238.821 364.9H241.161L241.361 366.68C241.614 366.027 242.014 365.527 242.561 365.18C243.108 364.833 243.728 364.66 244.421 364.66ZM256.979 364.9L252.279 375.68C251.745 376.933 251.065 377.847 250.239 378.42C249.412 378.993 248.392 379.373 247.179 379.56L246.619 377.64C247.565 377.427 248.272 377.153 248.739 376.82C249.219 376.5 249.605 376.02 249.899 375.38L250.219 374.64L246.019 364.9H248.639L251.539 372.16L254.499 364.9H256.979Z" fill="white"/>
<path d="M397.588 373.644C396.713 373.644 395.892 373.527 395.124 373.292C394.367 373.057 393.721 372.721 393.188 372.284L393.892 370.78C394.447 371.196 395.023 371.505 395.62 371.708C396.228 371.9 396.889 371.996 397.604 371.996C398.393 371.996 399.001 371.857 399.428 371.58C399.865 371.303 400.084 370.913 400.084 370.412C400.084 369.985 399.881 369.66 399.476 369.436C399.081 369.201 398.425 368.983 397.508 368.78C396.079 368.471 395.039 368.071 394.388 367.58C393.737 367.089 393.412 366.375 393.412 365.436C393.412 364.764 393.593 364.167 393.956 363.644C394.319 363.121 394.831 362.711 395.492 362.412C396.164 362.113 396.937 361.964 397.812 361.964C398.612 361.964 399.369 362.087 400.084 362.332C400.809 362.567 401.401 362.897 401.86 363.324L401.172 364.828C400.159 364.017 399.039 363.612 397.812 363.612C397.076 363.612 396.495 363.767 396.068 364.076C395.641 364.375 395.428 364.785 395.428 365.308C395.428 365.756 395.615 366.097 395.988 366.332C396.372 366.567 397.023 366.785 397.94 366.988C398.889 367.212 399.663 367.457 400.26 367.724C400.857 367.98 401.316 368.316 401.636 368.732C401.956 369.137 402.116 369.649 402.116 370.268C402.116 370.951 401.935 371.548 401.572 372.06C401.209 372.561 400.687 372.951 400.004 373.228C399.321 373.505 398.516 373.644 397.588 373.644ZM409.405 373.5L405.869 369.772V373.5H403.885V361.724H405.869V368.988L409.197 365.436H411.613L407.981 369.292L411.901 373.5H409.405ZM412.697 365.42H414.681V373.5H412.697V365.42ZM414.793 361.756V363.724H412.569V361.756H414.793ZM421.477 365.212C422.171 365.212 422.784 365.393 423.317 365.756C423.861 366.108 424.283 366.609 424.581 367.26C424.891 367.9 425.045 368.636 425.045 369.468C425.045 370.3 424.896 371.031 424.597 371.66C424.299 372.289 423.877 372.775 423.333 373.116C422.8 373.457 422.181 373.628 421.477 373.628C420.891 373.628 420.368 373.505 419.909 373.26C419.451 373.004 419.099 372.652 418.853 372.204V376.956H416.869V367.708C416.869 366.855 416.827 366.092 416.741 365.42H418.613L418.773 366.812C418.987 366.311 419.333 365.921 419.813 365.644C420.293 365.356 420.848 365.212 421.477 365.212ZM420.933 372.06C421.605 372.06 422.123 371.836 422.485 371.388C422.848 370.94 423.029 370.3 423.029 369.468C423.029 368.625 422.848 367.969 422.485 367.5C422.123 367.02 421.611 366.78 420.949 366.78C420.267 366.78 419.744 367.009 419.381 367.468C419.019 367.927 418.837 368.583 418.837 369.436C418.837 370.279 419.019 370.929 419.381 371.388C419.744 371.836 420.261 372.06 420.933 372.06Z" fill="#FFFCF1"/>
</svg>
