<svg width="1043" height="764" viewBox="0 0 1043 764" fill="none" xmlns="http://www.w3.org/2000/svg">
<rect x="0.5" y="1.05664" width="1041.5" height="762" rx="4.5" stroke="#8A38F5" stroke-dasharray="10 5"/>
<rect x="20" y="20.5566" width="1002.5" height="723" rx="40" fill="#212429"/>
<path d="M168.509 208.224V234.288C168.454 234.462 168.389 234.648 168.324 234.833C167.899 236.064 166.766 236.891 165.47 236.924C164.806 236.946 164.13 236.924 163.466 236.935H162.322V249.101C162.322 249.362 162.115 249.569 161.854 249.569H156.408C156.147 249.569 155.94 249.362 155.94 249.101V236.968H130.932V249.101C130.932 249.362 130.726 249.569 130.464 249.569H125.018C124.757 249.569 124.55 249.362 124.55 249.101V236.935H121.675C119.681 236.924 118.353 235.595 118.353 233.613V208.878C118.353 206.917 119.681 205.578 121.642 205.578C123.493 205.567 125.356 205.578 127.218 205.578H127.719V201.373C127.001 201.373 126.314 201.395 125.628 201.373C125.051 201.352 124.637 200.916 124.626 200.371C124.615 199.816 125.04 199.315 125.617 199.315C127.741 199.293 129.865 199.293 131.989 199.315C132.577 199.315 132.98 199.805 132.969 200.382C132.947 200.938 132.555 201.341 131.967 201.373C131.717 201.395 131.477 201.384 131.227 201.384H129.876V205.545H142.347V201.384C141.65 201.384 140.986 201.384 140.31 201.373C139.689 201.363 139.243 200.905 139.254 200.328C139.265 199.772 139.7 199.315 140.299 199.315C142.38 199.293 144.471 199.293 146.562 199.304C147.118 199.315 147.499 199.663 147.586 200.175C147.706 200.807 147.248 201.352 146.551 201.373C145.876 201.395 145.201 201.384 144.525 201.384V205.545H156.985V201.384C156.332 201.384 155.722 201.384 155.101 201.373C154.862 201.373 154.611 201.33 154.393 201.232C153.979 201.025 153.805 200.502 153.925 200.045C154.056 199.598 154.469 199.304 155.014 199.304H160.994C161.745 199.304 162.224 199.696 162.235 200.317C162.257 200.96 161.778 201.373 160.994 201.384H159.131V205.578H159.687C161.582 205.578 163.477 205.567 165.372 205.578C166.766 205.589 167.932 206.449 168.356 207.756C168.411 207.919 168.465 208.072 168.509 208.224Z" fill="#E2FF70"/>
<path d="M233.151 199.033C233.478 199.033 233.815 199.033 234.142 199.033C234.197 199.066 234.24 199.109 234.295 199.142C235.286 199.556 235.732 200.231 235.754 201.331C235.754 201.909 235.776 202.486 235.754 203.063C235.732 203.433 235.841 203.575 236.223 203.64C243.084 204.817 248.301 211.014 248.443 218.17C248.487 220.25 248.454 222.341 248.454 224.422C248.454 227.123 249.075 229.65 250.414 231.991C251.253 233.451 252.331 234.693 253.562 235.825C255.032 237.187 255.229 239.365 254.074 240.934C253.246 242.045 252.124 242.48 250.785 242.48C239.37 242.48 227.945 242.48 216.53 242.48C216.4 242.48 216.269 242.48 216.138 242.48C214.352 242.382 212.958 241.228 212.598 239.474C212.283 237.917 212.816 236.664 213.971 235.618C216.89 232.972 218.567 229.65 218.785 225.653C218.916 223.409 218.818 221.143 218.872 218.889C218.905 217.789 218.948 216.678 219.166 215.61C220.44 209.337 225.037 204.784 231.191 203.64C231.485 203.586 231.572 203.466 231.561 203.172C231.55 202.497 231.539 201.811 231.561 201.135C231.594 200.231 232.04 199.61 232.824 199.229C232.944 199.175 233.053 199.109 233.162 199.044L233.151 199.033Z" fill="#E2FF70"/>
<path d="M225.919 243.515H241.352C240.982 246.216 238.227 249.756 233.772 249.832C229.481 249.908 226.398 246.597 225.919 243.515Z" fill="#E2FF70"/>
<path d="M298.831 246.473C298.995 245.438 299.114 244.403 299.332 243.38C300.944 235.788 307.403 229.623 315.082 228.349C316.149 228.175 317.238 228.088 318.316 228.066C320.364 228.022 322.423 228.033 324.47 228.066C333.205 228.153 340.884 234.1 343.171 242.541C343.596 244.088 343.792 245.678 343.879 247.279C343.934 248.215 343.64 248.891 342.768 249.294H299.92C299.43 249.054 299.06 248.684 298.82 248.194C298.82 247.627 298.82 247.061 298.82 246.495L298.831 246.473Z" fill="#E2FF70"/>
<path d="M308.732 212.208C308.732 205.237 314.417 199.562 321.388 199.573C328.337 199.584 333.99 205.259 333.99 212.208C333.99 219.178 328.304 224.853 321.334 224.842C314.385 224.831 308.732 219.157 308.732 212.208Z" fill="#E2FF70"/>
<path d="M437.115 216.368V238.947C437.115 238.947 437.071 238.99 437.061 239.023C436.407 241.626 434.828 242.868 432.137 242.868C419.046 242.868 405.965 242.868 392.873 242.868C392.709 242.868 392.557 242.868 392.394 242.868C389.812 242.781 387.906 240.831 387.906 238.26C387.906 231.083 387.906 223.916 387.906 216.738C387.906 216.619 387.928 216.51 387.95 216.368C388.037 216.412 388.081 216.434 388.124 216.466C394.768 220.899 401.423 225.321 408.067 229.754C411.051 231.736 414.003 231.747 416.987 229.754C422.934 225.8 428.87 221.836 434.806 217.882C435.579 217.37 436.353 216.869 437.137 216.368H437.115Z" fill="#E2FF70"/>
<path d="M437.115 209.931V211.183C436.81 212.436 436.2 213.482 435.1 214.211C428.423 218.655 421.758 223.11 415.07 227.543C413.36 228.676 411.596 228.643 409.886 227.51C403.22 223.077 396.565 218.644 389.899 214.2C388.407 213.209 387.699 211.783 387.928 210.007C388.168 208.101 389.289 206.849 391.097 206.217C391.37 206.119 391.642 206.064 391.914 205.999C405.627 205.999 419.34 205.999 433.063 205.999C433.15 206.032 433.237 206.075 433.325 206.086C435.078 206.435 436.244 207.448 436.864 209.114C436.962 209.375 437.028 209.659 437.104 209.931H437.115Z" fill="#E2FF70"/>
<path d="M481.148 208.431C481.148 208.006 481.148 207.592 481.148 207.167C481.18 207.058 481.224 206.96 481.246 206.851C481.496 205.697 482.063 204.749 482.999 204.041C484.589 202.832 486.299 202.756 488.118 203.519C494.087 206.013 500.067 208.485 506.035 210.958C513.202 213.931 520.358 216.904 527.524 219.867C528.821 220.401 529.844 221.207 530.378 222.525C531.456 225.171 530.28 227.818 527.535 228.962C518.103 232.872 508.682 236.793 499.25 240.692C495.002 242.445 490.732 244.123 486.474 245.844H485.406C484.284 245.604 483.261 245.179 482.455 244.319C481.736 243.567 481.387 242.652 481.148 241.672C481.148 241.247 481.148 240.833 481.148 240.409C481.169 240.387 481.202 240.365 481.202 240.332C481.866 237.697 482.52 235.05 483.184 232.403C483.729 230.236 484.295 228.068 484.851 225.868H485.439C490.917 225.868 496.385 225.868 501.864 225.868C502.038 225.868 502.223 225.868 502.397 225.868C503.192 225.803 503.759 225.171 503.737 224.376C503.715 223.527 503.084 222.971 502.103 222.971C496.548 222.971 490.994 222.971 485.439 222.971C485.243 222.971 485.058 222.971 484.862 222.971C484.807 222.819 484.764 222.699 484.742 222.568C483.99 219.616 483.239 216.665 482.487 213.713C482.041 211.949 481.583 210.195 481.137 208.431H481.148Z" fill="#E2FF70"/>
<path d="M616.991 248.545H615.488C615.488 248.545 615.401 248.491 615.357 248.48C613.375 248.218 611.872 247.184 610.63 245.659C608.506 243.034 606.633 240.246 604.901 237.359C604.803 237.196 604.694 237.032 604.596 236.858C604.477 236.924 604.4 236.956 604.324 237C600.153 239.374 595.709 240.126 590.971 239.342C583.379 238.078 576.855 231.881 575.287 224.365C575.069 223.331 574.949 222.274 574.775 221.229C574.775 220.39 574.775 219.562 574.775 218.724C574.808 218.582 574.84 218.429 574.862 218.288C575.015 217.318 575.102 216.338 575.33 215.38C577.803 205.196 587.692 198.781 598.007 200.643C610.358 202.876 617.492 216.186 612.515 227.731C612.166 228.548 611.741 229.343 611.349 230.149C612.144 230.639 612.95 231.118 613.735 231.619C616.218 233.209 618.701 234.821 620.858 236.847C622.764 238.634 623.406 240.888 622.775 243.415C622.143 245.92 620.498 247.532 618.015 248.273C617.688 248.371 617.34 248.436 617.002 248.523L616.991 248.545ZM594.445 207.668C587.638 207.668 582.083 213.234 582.105 220.02C582.127 226.827 587.66 232.349 594.467 232.338C601.253 232.338 606.775 226.805 606.775 220.02C606.775 213.212 601.242 207.668 594.434 207.679L594.445 207.668Z" fill="#E2FF70"/>
<path d="M689.004 201.934C676.866 201.934 667.009 212.003 667.009 224.439C667.009 236.875 676.855 246.934 689.004 246.934C701.153 246.934 711.009 236.864 711.009 224.439C711.009 212.014 701.164 201.934 689.004 201.934ZM698.239 235.615C697.971 235.9 697.596 236.042 697.243 236.042C696.889 236.042 696.514 235.911 696.246 235.615L688.029 227.211C687.911 227.091 687.804 226.937 687.74 226.784C687.429 226.532 687.236 226.126 687.236 225.688V210.787C687.236 209.987 687.879 209.34 688.65 209.34C689.422 209.34 690.065 209.987 690.065 210.787V225.206L698.25 233.577C698.807 234.147 698.807 235.056 698.25 235.615H698.239Z" fill="#E2FF70"/>
<path d="M774.386 249.873H773.787C772.708 248.773 771.608 247.706 770.563 246.584C766.293 241.966 762.405 237.065 759.301 231.564C757.602 228.558 756.196 225.432 755.467 222.034C755.282 221.152 755.162 220.248 755.009 219.355C755.009 218.494 755.009 217.634 755.009 216.773C755.042 216.643 755.086 216.523 755.096 216.392C755.249 214.497 755.695 212.667 756.414 210.914C759.66 202.952 767.731 198.094 776.27 199.118C782.315 199.848 787.02 202.865 790.266 208.016C792.662 211.818 793.566 215.989 792.978 220.466C792.575 223.472 791.54 226.271 790.222 228.972C788.131 233.285 785.441 237.206 782.467 240.953C779.962 244.101 777.294 247.107 774.386 249.884V249.873ZM774.102 209.313C769.234 209.324 765.345 213.234 765.345 218.102C765.345 222.905 769.299 226.816 774.146 226.805C778.906 226.794 782.838 222.851 782.827 218.091C782.827 213.245 778.906 209.302 774.102 209.313Z" fill="#E2FF70"/>
<path fill-rule="evenodd" clip-rule="evenodd" d="M837.152 224.434L853.132 241.039C854.28 242.232 856.142 242.232 857.291 241.039C858.439 239.845 858.439 237.911 857.291 236.717L845.469 224.434L857.291 212.15C858.439 210.956 858.439 209.022 857.291 207.829C856.142 206.635 854.28 206.635 853.132 207.829L837.152 224.434Z" fill="#E2FF70"/>
<path fill-rule="evenodd" clip-rule="evenodd" d="M924.152 224.434L907.411 241.039C906.208 242.232 904.257 242.232 903.054 241.039C901.851 239.845 901.851 237.911 903.054 236.717L915.439 224.434L903.054 212.15C901.851 210.956 901.851 209.022 903.054 207.829C904.257 206.635 906.208 206.635 907.411 207.829L924.152 224.434Z" fill="#E2FF70"/>
<path fill-rule="evenodd" clip-rule="evenodd" d="M144.841 320.337L128.71 336.317C127.551 337.465 127.551 339.327 128.71 340.476C129.869 341.624 131.749 341.624 132.908 340.476L144.841 328.654L156.774 340.476C157.933 341.624 159.812 341.624 160.971 340.476C162.131 339.327 162.131 337.465 160.971 336.317L144.841 320.337Z" fill="#E2FF70"/>
<path fill-rule="evenodd" clip-rule="evenodd" d="M222.841 341.337L206.71 325.357C205.551 324.208 205.551 322.347 206.71 321.198C207.869 320.05 209.749 320.05 210.908 321.198L222.841 333.02L234.774 321.198C235.933 320.05 237.812 320.05 238.971 321.198C240.131 322.347 240.131 324.208 238.971 325.357L222.841 341.337Z" fill="#E2FF70"/>
<path d="M321.841 330.831C321.841 332.657 320.367 334.131 318.541 334.131H306.146V346.537C306.146 348.352 304.661 349.837 302.846 349.837C301.032 349.837 299.547 348.352 299.547 346.537V334.131H287.14C285.326 334.131 283.841 332.657 283.841 330.831C283.841 329.006 285.326 327.532 287.14 327.532H299.547V315.136C299.547 313.311 301.021 311.837 302.846 311.837C304.672 311.837 306.146 313.311 306.146 315.136V327.532H318.541C320.367 327.532 321.841 329.017 321.841 330.831Z" fill="#E2FF70"/>
<path d="M378.312 355.065H377.277C377.201 355.032 377.136 355 377.059 354.978C375.698 354.618 374.826 353.638 374.696 352.244C374.63 351.525 374.652 350.795 374.652 350.077C374.652 349.761 374.598 349.63 374.238 349.554C370.056 348.573 367.366 346.003 366.2 341.864C366.015 341.2 365.95 340.514 365.841 339.827C365.841 339.13 365.841 338.444 365.841 337.747C365.884 337.595 365.928 337.453 365.961 337.301C366.342 335.667 367.54 334.73 369.163 334.817C370.677 334.894 371.853 336.048 372.016 337.638C372.082 338.237 372.06 338.836 372.071 339.435C372.125 341.494 373.552 343.258 375.589 343.498C376.939 343.661 378.323 343.585 379.684 343.52C382.32 343.389 383.725 340.928 383.376 338.608C383.137 337.017 382.211 335.972 380.73 335.384C377.985 334.294 375.251 333.184 372.507 332.073C368.161 330.319 365.569 326.137 365.961 321.508C366.364 316.759 369.49 313.154 374.129 312.141C374.576 312.043 374.674 311.879 374.663 311.465C374.641 310.714 374.641 309.952 374.728 309.2C374.914 307.73 376.21 306.63 377.702 306.608C379.259 306.586 380.534 307.621 380.773 309.124C380.85 309.636 380.839 310.158 380.86 310.681C380.871 311.128 380.86 311.585 380.86 312.032C382.843 312.348 384.531 313.143 385.98 314.417C388.899 316.977 389.955 320.266 389.596 324.056C389.432 325.755 388.093 326.888 386.426 326.855C384.847 326.812 383.605 325.581 383.485 323.915C383.442 323.25 383.453 322.586 383.409 321.932C383.289 320.092 381.852 318.425 380.044 318.175C378.464 317.957 376.874 317.935 375.295 318.262C373.476 318.643 372.3 319.95 372.082 321.769C371.853 323.675 372.724 325.331 374.413 326.115C375.436 326.594 376.493 326.997 377.539 327.433C379.706 328.348 381.961 329.11 384.041 330.199C388.256 332.41 390.238 336.353 389.432 340.873C388.735 344.783 386.59 347.648 382.821 349.151C382.2 349.401 381.525 349.51 380.839 349.695C380.839 350.436 380.86 351.198 380.839 351.95C380.795 353.388 380.011 354.477 378.747 354.902C378.606 354.956 378.464 355.01 378.312 355.065Z" fill="#E2FF70"/>
<path d="M448.402 316.525C448.185 316.525 447.967 316.525 447.738 316.525C443.861 316.525 439.994 316.525 436.117 316.525C434.32 316.525 433.154 314.771 433.884 313.181C434.341 312.168 435.191 311.754 436.269 311.754C440.07 311.754 443.861 311.754 447.662 311.765C448.196 311.765 448.446 311.635 448.697 311.133C450.025 308.432 452.225 306.984 455.242 307.027C458.238 307.071 460.372 308.585 461.636 311.297C461.81 311.678 462.006 311.765 462.387 311.765C467.79 311.765 473.181 311.765 478.583 311.765C478.965 311.765 479.379 311.798 479.738 311.907C480.849 312.255 481.481 313.355 481.317 314.543C481.165 315.61 480.206 316.481 479.084 316.525C478.453 316.547 477.821 316.525 477.189 316.525C472.255 316.525 467.321 316.525 462.387 316.525C462.039 316.525 461.832 316.579 461.669 316.95C460.525 319.64 457.922 321.393 455.09 321.295C452.019 321.187 449.818 319.694 448.555 316.873C448.511 316.775 448.468 316.677 448.402 316.536V316.525Z" fill="#E2FF70"/>
<path d="M443.643 345.127C444.068 344.005 444.689 343.025 445.582 342.219C449.209 338.94 454.927 340.149 456.876 344.636C457.04 345.029 457.236 345.137 457.65 345.137C464.718 345.127 471.798 345.137 478.867 345.137C479.891 345.137 480.675 345.573 481.11 346.499C481.524 347.359 481.426 348.209 480.849 348.971C480.337 349.647 479.629 349.908 478.801 349.908C477.429 349.908 476.046 349.908 474.673 349.908C468.999 349.908 463.313 349.908 457.639 349.908C457.225 349.908 457.04 350.039 456.855 350.42C455.558 353.165 453.369 354.668 450.33 354.646C447.313 354.635 445.146 353.132 443.872 350.398C443.687 350.006 443.49 349.908 443.087 349.908C440.8 349.93 438.513 349.93 436.215 349.908C434.821 349.908 433.786 348.982 433.699 347.719C433.601 346.281 434.635 345.148 436.084 345.137C438.393 345.127 440.702 345.137 443.011 345.137C443.218 345.137 443.414 345.137 443.643 345.137V345.127Z" fill="#E2FF70"/>
<path d="M447.967 328.451C451.898 328.451 455.819 328.451 459.751 328.451C460.154 328.451 460.361 328.364 460.546 327.961C461.821 325.205 464.01 323.691 467.049 323.691C470.109 323.691 472.299 325.216 473.584 328.005C473.747 328.364 473.922 328.462 474.281 328.451C475.882 328.44 477.483 328.429 479.084 328.451C480.25 328.473 481.197 329.377 481.328 330.477C481.469 331.697 480.783 332.775 479.629 333.091C479.335 333.178 479.008 333.178 478.692 333.178C477.2 333.178 475.708 333.189 474.226 333.178C473.9 333.178 473.747 333.276 473.606 333.581C472.32 336.391 470.131 337.938 467.038 337.927C463.977 337.927 461.788 336.391 460.525 333.592C460.34 333.189 460.089 333.178 459.741 333.178C451.997 333.178 444.253 333.178 436.509 333.178C436.138 333.178 435.757 333.178 435.408 333.08C434.232 332.764 433.546 331.642 433.72 330.412C433.884 329.29 434.853 328.44 436.073 328.44C440.037 328.429 444.002 328.44 447.967 328.44V328.451Z" fill="#E2FF70"/>
<path d="M562.347 337.395C560.996 330.261 557.958 323.965 552.947 318.672C552.784 318.498 552.479 318.378 552.25 318.367C546.783 318.345 541.315 318.345 535.847 318.367C535.608 318.367 535.314 318.498 535.15 318.672C531.621 322.299 529.149 326.59 527.406 331.306C526.099 334.824 525.282 338.462 525.37 342.242C525.457 345.607 526.274 348.766 528.332 351.489C530.434 354.266 533.31 355.682 536.751 355.736C541.783 355.813 546.804 355.802 551.836 355.736C556.324 355.682 559.918 353.003 561.574 348.635C562.173 347.045 562.51 345.4 562.652 343.712C562.652 343.57 562.706 343.429 562.739 343.287V340.27C562.608 339.312 562.521 338.342 562.336 337.395H562.347ZM542.491 334.585C542.992 334.813 543.515 335.02 544.027 335.238C545.094 335.685 546.195 336.066 547.218 336.6C549.288 337.689 550.257 339.617 549.865 341.839C549.527 343.755 548.471 345.161 546.619 345.901C546.314 346.021 545.988 346.075 545.65 346.163C545.65 346.533 545.65 346.903 545.65 347.273C545.628 347.981 545.247 348.515 544.626 348.722C544.55 348.744 544.485 348.777 544.419 348.798H543.907C543.907 348.798 543.842 348.766 543.798 348.755C543.134 348.581 542.698 348.101 542.644 347.415C542.611 347.067 542.622 346.707 542.622 346.348C542.622 346.195 542.589 346.13 542.426 346.086C540.378 345.607 539.05 344.344 538.483 342.318C538.396 341.991 538.363 341.653 538.309 341.316V340.292C538.331 340.216 538.353 340.15 538.363 340.074C538.549 339.268 539.137 338.811 539.932 338.854C540.672 338.898 541.25 339.453 541.337 340.237C541.37 340.532 541.359 340.826 541.359 341.12C541.38 342.133 542.088 342.993 543.08 343.113C543.744 343.189 544.419 343.156 545.095 343.113C546.391 343.048 547.077 341.839 546.913 340.706C546.794 339.922 546.336 339.41 545.617 339.127C544.267 338.593 542.927 338.048 541.576 337.504C539.442 336.643 538.167 334.585 538.363 332.319C538.559 329.988 540.095 328.213 542.372 327.723C542.589 327.679 542.633 327.592 542.633 327.396C542.633 327.026 542.633 326.656 542.666 326.285C542.753 325.566 543.395 325.022 544.125 325.011C544.888 325.011 545.519 325.512 545.639 326.242C545.683 326.492 545.672 326.754 545.683 327.004C545.683 327.222 545.683 327.451 545.683 327.668C546.652 327.821 547.48 328.213 548.199 328.845C549.636 330.108 550.148 331.72 549.974 333.583C549.898 334.421 549.233 334.977 548.416 334.955C547.643 334.933 547.033 334.334 546.979 333.506C546.957 333.18 546.968 332.853 546.946 332.537C546.892 331.633 546.184 330.816 545.291 330.696C544.517 330.587 543.733 330.577 542.96 330.74C542.067 330.925 541.489 331.568 541.38 332.461C541.272 333.397 541.696 334.214 542.524 334.596L542.491 334.585Z" fill="#E2FF70"/>
<path d="M554.276 305.885C554.396 305.928 554.516 305.961 554.646 306.005C556.019 306.408 556.912 307.312 557.239 308.706C557.554 310.067 557.206 311.276 556.149 312.191C554.984 313.204 553.764 314.141 552.555 315.088C552.435 315.186 552.228 315.23 552.065 315.23C546.728 315.23 541.391 315.23 536.054 315.23C535.869 315.23 535.64 315.143 535.488 315.034C534.366 314.152 533.244 313.269 532.144 312.354C531 311.418 530.554 310.187 530.87 308.749C531.196 307.279 532.133 306.331 533.614 305.972C533.691 305.95 533.767 305.917 533.832 305.885C540.65 305.885 547.458 305.885 554.276 305.885Z" fill="#E2FF70"/>
<path d="M633.889 354.467C632.854 354.38 631.797 354.348 630.774 354.184C621.08 352.594 614.687 347.083 611.517 337.825C611.06 336.496 610.82 335.08 610.472 333.675C610.199 333.937 609.905 334.242 609.589 334.536C609.099 334.993 608.217 335.102 607.596 334.808C607.041 334.547 606.649 333.915 606.757 333.272C606.823 332.913 606.997 332.521 607.248 332.259C608.391 331.061 609.568 329.907 610.744 328.741C611.376 328.12 612.399 328.099 613.031 328.709C614.251 329.896 615.46 331.105 616.647 332.325C617.268 332.967 617.235 333.882 616.625 334.514C615.994 335.156 615.09 335.189 614.393 334.59C614.218 334.438 614.055 334.274 613.804 334.035C614.088 335.952 614.578 337.683 615.395 339.306C618.521 345.547 623.465 349.555 630.349 350.873C641.252 352.953 651.784 345.809 654.049 334.95C656.391 323.698 648.865 312.6 637.527 310.715C630.817 309.605 624.925 311.456 619.969 316.107C618.902 317.109 617.998 318.274 617.061 319.396C616.451 320.137 615.427 320.409 614.73 319.919C613.968 319.396 613.772 318.351 614.338 317.534C616.386 314.571 619 312.197 622.104 310.4C626.842 307.666 631.972 306.653 637.363 307.492C645.26 308.711 651.239 312.861 654.855 319.995C658.885 327.968 658.548 335.962 653.831 343.576C650.226 349.414 644.835 352.823 638.104 354.054C636.982 354.26 635.827 354.293 634.684 354.402C634.52 354.424 634.357 354.446 634.183 354.467H633.878H633.889Z" fill="#E2FF70"/>
<path d="M648.799 330.876C648.799 339.11 642.101 345.786 633.878 345.775C625.655 345.765 618.967 339.055 618.989 330.843C619.011 322.62 625.72 315.943 633.943 315.976C642.155 316.008 648.81 322.674 648.799 330.886V330.876ZM632.168 327.358C632.168 328.49 632.168 329.612 632.168 330.745C632.168 331.235 632.309 331.671 632.669 332.019C633.812 333.163 634.956 334.317 636.111 335.45C636.786 336.114 637.962 336.104 638.583 335.472C639.237 334.786 639.193 333.893 638.441 333.141C637.581 332.27 636.688 331.409 635.838 330.516C635.664 330.331 635.533 330.037 635.533 329.786C635.512 327.717 635.533 325.637 635.512 323.567C635.512 322.718 634.891 322.032 634.085 321.923C633.301 321.825 632.56 322.326 632.342 323.142C632.244 323.513 632.19 323.894 632.179 324.275C632.157 325.299 632.179 326.334 632.179 327.358H632.168Z" fill="#E2FF70"/>
<path d="M740.41 353.078H705.252C705.252 353.078 705.208 353.024 705.176 353.024C702.758 352.37 701.658 350.944 701.658 348.439C701.658 340.662 701.658 332.885 701.658 325.109C701.658 324.912 701.658 324.727 701.658 324.531H744.016C744.016 324.771 744.016 324.967 744.016 325.163C744.016 332.907 744.016 340.651 744.016 348.395C744.016 348.624 744.016 348.863 744.005 349.092C743.928 350.878 742.698 352.425 740.977 352.915C740.792 352.969 740.606 353.035 740.421 353.089L740.41 353.078ZM711.199 341.435C710.839 341.435 710.469 341.435 710.11 341.435C708.912 341.468 708.062 342.317 708.029 343.515C708.008 344.223 708.018 344.942 708.029 345.65C708.051 346.848 708.868 347.72 710.066 347.774C710.807 347.818 711.558 347.807 712.299 347.774C713.486 347.72 714.303 346.892 714.368 345.716C714.401 344.975 714.412 344.223 714.368 343.483C714.303 342.263 713.432 341.457 712.201 341.435C711.874 341.435 711.537 341.435 711.21 341.435H711.199ZM726.012 344.648C726.012 344.267 726.012 343.886 726.012 343.505C725.979 342.35 725.118 341.479 723.964 341.446C723.223 341.424 722.472 341.424 721.731 341.446C720.555 341.479 719.683 342.361 719.662 343.548C719.651 344.223 719.662 344.899 719.662 345.585C719.673 346.827 720.5 347.731 721.742 347.785C722.472 347.818 723.202 347.818 723.92 347.785C725.162 347.731 726.001 346.837 726.012 345.596C726.012 345.28 726.012 344.964 726.012 344.648ZM737.655 332.983C737.655 332.635 737.655 332.286 737.655 331.938C737.633 330.685 736.794 329.814 735.542 329.77C734.834 329.748 734.115 329.748 733.407 329.77C732.209 329.814 731.359 330.652 731.305 331.85C731.272 332.58 731.272 333.31 731.305 334.029C731.359 335.26 732.22 336.087 733.44 336.109C734.137 336.12 734.834 336.12 735.52 336.109C736.773 336.076 737.611 335.227 737.644 333.963C737.644 333.637 737.644 333.299 737.644 332.972L737.655 332.983ZM722.82 336.12C723.18 336.12 723.55 336.12 723.909 336.12C725.118 336.087 725.99 335.205 726.012 333.996C726.022 333.321 726.012 332.646 726.012 331.959C726.001 330.718 725.162 329.825 723.92 329.77C723.191 329.737 722.461 329.737 721.742 329.77C720.522 329.825 719.683 330.718 719.662 331.927C719.662 332.635 719.651 333.354 719.662 334.061C719.694 335.194 720.555 336.066 721.677 336.109C722.058 336.131 722.439 336.109 722.82 336.109V336.12ZM711.166 336.109C711.515 336.109 711.863 336.12 712.212 336.109C713.443 336.076 714.303 335.27 714.368 334.04C714.401 333.31 714.401 332.58 714.368 331.861C714.314 330.663 713.475 329.825 712.277 329.77C711.547 329.737 710.818 329.737 710.099 329.77C708.879 329.825 708.051 330.696 708.029 331.927C708.018 332.667 708.008 333.419 708.029 334.16C708.073 335.216 708.922 336.055 709.979 336.109C710.371 336.131 710.774 336.109 711.166 336.109ZM734.518 341.435C734.169 341.435 733.821 341.435 733.472 341.435C732.22 341.457 731.349 342.285 731.305 343.537C731.272 344.245 731.283 344.964 731.305 345.672C731.349 346.87 732.187 347.72 733.385 347.774C734.126 347.807 734.877 347.818 735.618 347.774C736.827 347.709 737.633 346.848 737.655 345.639C737.666 344.91 737.677 344.18 737.655 343.461C737.611 342.328 736.762 341.479 735.618 341.435C735.259 341.424 734.888 341.435 734.529 341.435H734.518Z" fill="#E2FF70"/>
<path d="M738.722 311.799C740.574 311.625 742.121 312.028 743.221 313.541C743.678 314.173 743.972 314.87 743.983 315.654C744.005 317.822 743.994 319.989 744.005 322.157C744.005 322.2 743.983 322.255 743.961 322.331H701.658C701.658 322.124 701.658 321.95 701.658 321.776C701.658 319.968 701.723 318.17 701.647 316.362C701.538 313.618 703.662 311.603 706.265 311.766C706.472 311.777 706.69 311.766 706.908 311.766C706.951 312.398 706.94 312.997 707.038 313.574C707.42 315.752 709.326 317.19 711.591 317.027C713.65 316.885 715.327 315.099 715.403 312.953C715.414 312.572 715.403 312.202 715.403 311.788H730.26C730.26 312.158 730.249 312.55 730.26 312.942C730.369 316.112 733.723 318.051 736.501 316.526C737.906 315.763 738.624 314.533 738.712 312.942C738.733 312.561 738.712 312.191 738.712 311.788L738.722 311.799Z" fill="#E2FF70"/>
<path d="M713.301 311.723C713.301 312.115 713.312 312.518 713.301 312.91C713.258 313.988 712.419 314.86 711.362 314.936C710.273 315.023 709.249 314.293 709.13 313.193C709.032 312.246 709.032 311.276 709.13 310.329C709.239 309.25 710.23 308.531 711.308 308.586C712.365 308.64 713.236 309.501 713.29 310.568C713.312 310.949 713.29 311.331 713.29 311.712L713.301 311.723Z" fill="#E2FF70"/>
<path d="M732.373 311.745C732.373 311.385 732.373 311.015 732.373 310.656C732.405 309.556 733.255 308.663 734.333 308.597C735.433 308.521 736.435 309.262 736.544 310.362C736.642 311.287 736.642 312.246 736.544 313.172C736.435 314.272 735.433 315.012 734.333 314.936C733.255 314.871 732.405 313.989 732.362 312.878C732.351 312.496 732.362 312.115 732.362 311.734L732.373 311.745Z" fill="#E2FF70"/>
<path d="M805.27 351.892C804.54 351.783 803.81 351.707 803.081 351.576C799.922 351.021 797.112 349.692 794.661 347.645C791.361 344.878 789.183 341.382 788.388 337.134C787.19 330.73 788.889 325.142 793.42 320.459C794.901 318.934 797.308 318.956 798.822 320.415C800.336 321.875 800.434 324.282 798.975 325.818C797.406 327.462 796.35 329.336 795.925 331.568C794.814 337.352 798.942 343.168 804.769 344.007C810.563 344.834 815.802 341.153 816.87 335.424C817.534 331.841 816.543 328.693 814.049 326.046C813.297 325.251 812.84 324.358 812.829 323.258C812.807 321.657 813.711 320.263 815.192 319.62C816.619 318.999 818.286 319.304 819.407 320.426C821.433 322.441 822.914 324.794 823.84 327.495C824.352 328.987 824.668 330.534 824.766 332.113C824.766 332.233 824.81 332.353 824.831 332.472V334.444C824.81 334.574 824.766 334.705 824.755 334.836C824.657 336.317 824.407 337.777 823.906 339.171C821.477 345.913 816.782 350.084 809.746 351.555C809.028 351.707 808.287 351.762 807.557 351.871H805.259L805.27 351.892Z" fill="#E2FF70"/>
<path d="M802.558 321.537C802.558 318.902 802.547 316.277 802.558 313.641C802.569 311.397 804.399 309.676 806.631 309.785C808.592 309.872 810.269 311.528 810.28 313.488C810.302 318.891 810.302 324.293 810.28 329.684C810.28 331.732 808.494 333.388 806.414 333.388C804.344 333.388 802.58 331.721 802.558 329.684C802.525 326.972 802.558 324.26 802.558 321.548V321.537Z" fill="#E2FF70"/>
<path d="M914.664 322.611V349.122C914.631 349.198 914.598 349.285 914.577 349.361C913.945 352.052 912.05 353.566 909.316 353.576C906.648 353.576 903.979 353.576 901.311 353.576C899.121 353.576 897.705 352.15 897.695 349.96C897.695 346.987 897.695 344.024 897.695 341.051C897.695 339.831 897.008 339.156 895.778 339.156C893.109 339.156 890.441 339.156 887.772 339.156C886.465 339.156 885.812 339.809 885.812 341.105C885.812 344.057 885.812 347.009 885.812 349.96C885.812 352.15 884.385 353.576 882.196 353.576C879.505 353.576 876.826 353.576 874.136 353.576C873.853 353.576 873.569 353.576 873.286 353.533C870.574 353.108 868.842 351.05 868.842 348.261C868.842 340.06 868.853 331.858 868.832 323.657C868.832 321.98 869.485 320.825 870.923 319.965C877.142 316.261 883.361 312.547 889.548 308.79C891.083 307.853 892.477 307.875 894.002 308.801C900.091 312.493 906.19 316.153 912.3 319.779C913.444 320.466 914.337 321.272 914.653 322.6L914.664 322.611Z" fill="#E2FF70"/>
<circle cx="125.397" cy="437.042" r="23.4172" fill="#E2FF70"/>
<path fill-rule="evenodd" clip-rule="evenodd" d="M137.317 428.934C138.487 430.104 138.487 432 137.317 433.17L122.129 448.358L114.021 440.249C112.851 439.08 112.851 437.183 114.021 436.014C115.191 434.844 117.087 434.844 118.257 436.014L122.129 439.886L133.081 428.934C134.251 427.764 136.147 427.764 137.317 428.934Z" fill="#212429"/>
<circle cx="216.231" cy="437.042" r="23.4172" fill="#E2FF70"/>
<path d="M225.773 442.723C226.846 443.796 226.846 445.525 225.773 446.587C225.24 447.126 224.538 447.39 223.847 447.39C223.157 447.39 222.443 447.126 221.91 446.587L216.233 440.909L210.551 446.587C210.012 447.126 209.315 447.39 208.614 447.39C207.912 447.39 207.215 447.126 206.688 446.587C205.615 445.525 205.615 443.79 206.688 442.723L212.37 437.046L206.688 431.363C205.615 430.291 205.615 428.561 206.688 427.5C207.749 426.427 209.484 426.427 210.551 427.5L216.233 433.183L221.91 427.5C222.983 426.427 224.706 426.427 225.773 427.5C226.846 428.561 226.846 430.296 225.773 431.363L220.096 437.046L225.773 442.723Z" fill="#212429"/>
<path d="M304.408 413.659C305.224 413.659 306.041 413.659 306.858 413.659C307.435 413.725 308.013 413.79 308.59 413.856C310.736 414.084 311.988 415.435 312.064 417.591C312.064 417.929 312.119 418.278 312.206 418.615C312.99 421.752 316.388 423.266 319.286 421.763C321.235 420.75 322.891 421.12 324.22 422.863C325.483 424.519 326.507 426.316 327.291 428.254C328.021 430.041 327.465 431.761 325.832 432.796C322.52 434.909 322.52 439.201 325.842 441.314C327.454 442.337 328.021 444.069 327.302 445.823C326.529 447.729 325.483 449.471 324.307 451.149C323.054 452.913 321.028 453.392 319.22 452.325C318.284 451.77 317.238 451.628 316.16 451.824C313.72 452.26 312.097 454.166 312.043 456.671C311.999 458.512 310.79 459.906 308.982 460.189C306.825 460.526 304.658 460.526 302.501 460.232C300.443 459.949 299.278 458.61 299.212 456.529C299.212 456.192 299.158 455.843 299.071 455.505C298.297 452.347 294.856 450.844 291.947 452.369C290.074 453.349 288.364 452.979 287.079 451.29C285.598 449.341 284.389 447.239 283.648 444.886V443.851C283.931 442.599 284.715 441.771 285.772 441.063C288.604 439.157 288.604 434.942 285.772 433.047C284.715 432.339 283.931 431.522 283.648 430.258V429.126C284.432 426.871 285.576 424.802 287.013 422.907C288.386 421.109 290.009 420.739 292.013 421.774C292.982 422.275 294.006 422.46 295.073 422.275C297.513 421.85 299.147 419.922 299.212 417.439C299.256 415.587 300.454 414.182 302.251 413.91C302.959 413.801 303.678 413.725 304.397 413.638L304.408 413.659ZM312.576 437.207C312.707 433.428 309.679 430.258 305.813 430.106C302.033 429.953 298.82 433.025 298.689 436.902C298.559 440.693 301.63 443.895 305.508 444.004C309.287 444.113 312.446 441.074 312.576 437.207Z" fill="#E2FF70"/>
<path d="M420.785 454.502C420.545 455.014 420.382 455.58 420.066 456.048C419.434 456.963 418.509 457.442 417.387 457.497C417.245 457.497 417.104 457.497 416.951 457.497C403.129 457.497 389.319 457.497 375.497 457.497C373.667 457.497 372.295 456.582 371.838 454.992C371.533 453.968 371.533 452.901 371.838 451.866C372.262 450.341 373.635 449.328 375.236 449.328C377.893 449.317 380.54 449.328 383.198 449.328C394.264 449.328 405.33 449.328 416.396 449.328C419.031 449.328 419.914 449.938 420.796 452.4V454.513L420.785 454.502Z" fill="#E2FF70"/>
<path d="M391.105 430.91C391.105 430.66 391.105 430.464 391.105 430.279C391.105 426.663 391.105 423.058 391.105 419.442C391.105 417.59 392.107 416.588 393.937 416.588C395.484 416.588 397.041 416.588 398.588 416.588C400.276 416.588 401.311 417.623 401.311 419.3C401.311 422.96 401.311 426.619 401.311 430.279C401.311 430.464 401.311 430.66 401.311 430.9C401.529 430.9 401.703 430.9 401.866 430.9C403.511 430.9 405.156 430.9 406.811 430.9C407.519 430.9 408.064 431.172 408.347 431.825C408.641 432.49 408.467 433.067 407.977 433.579C404.459 437.26 400.941 440.953 397.412 444.634C396.649 445.44 395.756 445.429 394.983 444.634C391.465 440.964 387.958 437.282 384.451 433.612C383.949 433.089 383.753 432.501 384.058 431.825C384.352 431.172 384.897 430.9 385.605 430.91C387.413 430.91 389.221 430.91 391.094 430.91H391.105Z" fill="#E2FF70"/>
<path d="M503.241 448.023C505.314 450.096 505.314 453.439 503.241 455.491C502.21 456.533 500.853 457.043 499.518 457.043C498.183 457.043 496.805 456.533 495.774 455.491L484.801 444.517L473.818 455.491C472.776 456.533 471.43 457.043 470.073 457.043C468.717 457.043 467.371 456.533 466.351 455.491C464.278 453.439 464.278 450.086 466.351 448.023L477.334 437.05L466.351 426.065C464.278 423.992 464.278 420.649 466.351 418.598C468.402 416.525 471.756 416.525 473.818 418.598L484.801 429.582L495.774 418.598C497.847 416.525 501.179 416.525 503.241 418.598C505.314 420.649 505.314 424.003 503.241 426.065L492.268 437.05L503.241 448.023Z" fill="#E2FF70"/>
<path d="M567.166 411.8C567.754 411.8 568.353 411.8 568.942 411.8C568.996 411.822 569.061 411.865 569.116 411.876C572.427 412.432 574.649 414.272 575.76 417.442C575.869 417.736 576.021 417.79 576.294 417.79C577.328 417.79 578.374 417.725 579.398 417.856C584.092 418.498 587.272 422.191 587.294 426.939C587.294 428.225 587.294 429.499 587.294 430.784C587.294 438.376 587.327 445.967 587.272 453.559C587.24 458.329 583.253 462.25 578.472 462.272C571.523 462.305 564.574 462.305 557.625 462.272C552.833 462.25 548.846 458.308 548.825 453.515C548.781 444.53 548.792 435.533 548.825 426.547C548.836 422.583 551.613 419.13 555.436 418.084C556.841 417.703 558.268 417.79 559.695 417.79C560.054 417.79 560.239 417.703 560.359 417.333C561.045 415.296 562.319 413.717 564.247 412.769C565.162 412.323 566.186 412.105 567.166 411.789V411.8ZM565.848 443.168C564.356 441.676 562.984 440.282 561.601 438.909C561.405 438.713 561.198 438.517 560.958 438.376C560.054 437.831 558.856 438.082 558.213 438.909C557.549 439.759 557.614 440.946 558.398 441.741C560.272 443.626 562.156 445.499 564.051 447.372C565.238 448.549 566.382 448.549 567.558 447.372C570.859 444.072 574.148 440.772 577.448 437.472C577.59 437.33 577.731 437.199 577.851 437.047C578.385 436.339 578.483 435.566 578.102 434.781C577.72 433.986 577.056 433.594 576.163 433.583C575.477 433.583 574.954 433.91 574.485 434.378C571.73 437.156 568.974 439.922 566.219 442.689C566.088 442.82 566.001 442.972 565.859 443.168H565.848ZM568.07 419.914C569.247 419.914 570.205 418.945 570.194 417.78C570.194 416.614 569.225 415.656 568.059 415.645C566.872 415.645 565.892 416.636 565.914 417.812C565.936 418.988 566.894 419.914 568.081 419.903L568.07 419.914Z" fill="#E2FF70"/>
<path d="M655.091 423.744C656.082 423.744 657.063 423.744 658.054 423.744C658.13 423.766 658.206 423.809 658.282 423.82C659.72 424.049 661.201 424.158 662.606 424.517C670.035 426.434 676.112 430.595 681.406 436.008C682.037 436.651 681.983 437.489 681.329 438.165C677.288 442.314 672.692 445.669 667.344 447.978C664.208 449.329 660.951 450.178 657.531 450.32C653.86 450.472 650.332 449.775 646.933 448.447C641.248 446.214 636.368 442.761 632.088 438.437C631.772 438.121 631.565 437.707 631.304 437.337C631.304 437.141 631.304 436.945 631.304 436.749C631.565 436.379 631.772 435.965 632.088 435.649C635.247 432.425 638.797 429.702 642.773 427.567C645.811 425.933 648.992 424.692 652.423 424.125C653.305 423.984 654.209 423.875 655.091 423.755V423.744ZM666.93 437.054C666.941 431.368 662.291 426.707 656.594 426.696C650.909 426.685 646.236 431.325 646.214 437.021C646.204 442.707 650.854 447.368 656.551 447.379C662.236 447.39 666.909 442.75 666.93 437.054Z" fill="#E2FF70"/>
<path d="M659.84 430.486C657.967 432.414 657.564 434.276 658.576 436.172C659.557 438.001 661.397 438.775 663.739 438.339C663.783 439.809 662.182 442.881 659.099 443.981C655.897 445.135 652.292 443.97 650.419 441.138C648.513 438.274 648.817 434.56 651.159 432.011C653.381 429.604 657.052 428.95 659.84 430.486Z" fill="#E2FF70"/>
<path d="M725.851 454.988C725.851 447.571 725.851 440.154 725.851 432.726C725.861 432.704 725.894 432.682 725.894 432.66C726.384 430.972 727.365 430.231 729.118 430.231C733.181 430.231 737.254 430.231 741.317 430.231C741.611 430.231 741.905 430.231 742.188 430.286C743.669 430.602 744.573 431.8 744.573 433.434C744.573 440.143 744.573 446.863 744.573 453.572C744.573 453.877 744.573 454.182 744.573 454.487C744.497 456.186 743.256 457.439 741.589 457.439C737.33 457.439 733.083 457.439 728.824 457.439C727.463 457.439 726.341 456.557 725.96 455.261C725.927 455.163 725.883 455.065 725.851 454.966V454.988Z" fill="#E2FF70"/>
<path d="M725.851 424.36C725.851 422.607 725.851 420.853 725.851 419.099C725.894 418.969 725.949 418.827 725.992 418.696C726.264 417.89 726.776 417.291 727.55 416.921C727.8 416.801 728.062 416.725 728.323 416.627C740.293 416.627 752.252 416.627 764.222 416.627C764.255 416.649 764.287 416.681 764.32 416.692C765.91 417.139 766.694 418.184 766.694 419.84C766.694 421.093 766.694 422.334 766.694 423.587C766.694 425.613 765.464 426.832 763.438 426.832C759.049 426.832 754.659 426.832 750.281 426.832C743.168 426.832 736.056 426.832 728.944 426.832C727.452 426.832 726.33 425.972 725.938 424.578C725.916 424.502 725.883 424.436 725.851 424.36Z" fill="#E2FF70"/>
<path d="M757.339 430.242C759.386 430.242 761.434 430.285 763.481 430.231C765.42 430.176 766.76 431.69 766.705 433.444C766.651 435.296 766.705 437.136 766.694 438.988C766.694 440.883 765.431 442.146 763.547 442.146C759.397 442.146 755.247 442.146 751.108 442.146C749.246 442.146 747.983 440.883 747.972 439.01C747.972 437.125 747.972 435.23 747.972 433.346C747.972 431.494 749.235 430.242 751.087 430.242C753.178 430.242 755.258 430.242 757.349 430.242H757.339Z" fill="#E2FF70"/>
<path d="M757.36 445.555C759.408 445.555 761.456 445.555 763.503 445.555C765.464 445.555 766.694 446.786 766.694 448.735C766.694 450.598 766.694 452.46 766.694 454.323C766.694 456.185 765.431 457.459 763.569 457.459C759.408 457.459 755.247 457.459 751.087 457.459C749.257 457.459 747.983 456.185 747.972 454.344C747.972 452.438 747.961 450.543 747.972 448.637C747.983 446.807 749.235 445.555 751.065 445.544C753.167 445.544 755.269 445.544 757.371 445.544L757.36 445.555Z" fill="#E2FF70"/>
<path d="M834.223 450.723C829.278 450.723 824.322 450.723 819.377 450.723C816.72 450.723 814.661 449.623 813.485 447.205C813.125 446.464 812.907 445.571 812.907 444.743C812.864 437.413 812.875 430.094 812.886 422.764C812.886 419.638 815.478 416.969 818.615 416.806C818.909 416.795 819.192 416.784 819.486 416.784C829.332 416.784 839.178 416.784 849.024 416.784C851.137 416.784 852.924 417.459 854.285 419.093C855.167 420.15 855.625 421.391 855.625 422.775C855.625 430.105 855.636 437.424 855.625 444.754C855.625 447.924 852.989 450.625 849.787 450.712C847.086 450.777 844.374 450.745 841.672 450.745C839.189 450.745 836.706 450.745 834.223 450.745V450.723ZM835.366 433.753C835.366 435.398 835.355 437.032 835.366 438.677C835.366 439.613 836.052 440.299 836.978 440.321C838.154 440.343 839.342 440.354 840.518 440.321C842.881 440.245 844.951 438.382 845.136 436.03C845.256 434.516 845.256 432.98 845.136 431.477C844.951 429.135 842.871 427.273 840.507 427.197C839.418 427.164 838.318 427.186 837.218 427.186C835.987 427.186 835.355 427.807 835.344 429.037C835.344 430.606 835.344 432.185 835.344 433.753H835.366ZM829.811 435.954C829.844 436.052 829.855 436.084 829.855 436.117C829.855 436.901 829.833 437.696 829.877 438.48C829.899 438.829 829.964 439.199 830.116 439.504C830.454 440.158 831.227 440.452 831.914 440.267C832.654 440.071 833.133 439.482 833.144 438.687C833.144 436.389 833.144 434.102 833.144 431.804C833.144 431.597 833.123 431.39 833.079 431.194C832.578 428.689 830.356 426.979 827.829 427.175C825.291 427.382 823.353 429.44 823.298 432.087C823.255 434.244 823.287 436.4 823.298 438.557C823.298 438.687 823.32 438.829 823.342 438.96C823.505 439.798 824.257 440.365 825.084 440.299C825.89 440.234 826.544 439.57 826.566 438.731C826.587 437.979 826.566 437.228 826.577 436.476C826.577 436.302 826.598 436.117 826.609 435.943H829.811V435.954Z" fill="#E2FF70"/>
<path d="M834.255 457.301C827.077 457.301 819.911 457.301 812.733 457.301C812.461 457.301 812.178 457.301 811.916 457.247C811.208 457.083 810.696 456.408 810.707 455.656C810.707 454.894 811.197 454.251 811.927 454.077C812.156 454.023 812.406 454.012 812.635 454.012C827.056 454.012 841.465 454.012 855.886 454.012C857.073 454.012 857.814 454.654 857.814 455.667C857.814 456.539 857.171 457.236 856.289 457.29C856.082 457.301 855.875 457.29 855.668 457.29C848.523 457.29 841.389 457.29 834.244 457.29L834.255 457.301Z" fill="#E2FF70"/>
<path d="M838.688 430.464C839.287 430.464 839.853 430.442 840.409 430.464C841.248 430.508 841.89 431.172 841.923 432.054C841.956 433.176 841.966 434.309 841.923 435.431C841.89 436.378 841.193 436.999 840.256 437.021C839.744 437.021 839.233 437.021 838.688 437.021V430.453V430.464Z" fill="#E2FF70"/>
<path d="M826.598 432.61C826.511 431.782 826.685 431.118 827.393 430.693C827.949 430.356 828.537 430.356 829.093 430.704C829.779 431.14 829.964 431.793 829.833 432.599H826.609L826.598 432.61Z" fill="#E2FF70"/>
<path d="M940.525 420.366C940.253 421.4 939.719 422.195 938.608 422.446C938.369 422.5 938.118 422.511 937.879 422.511C926.725 422.511 915.561 422.511 904.408 422.511C903.123 422.511 902.143 421.792 901.881 420.671C901.62 419.549 902.132 418.394 903.178 417.937C903.581 417.762 904.049 417.686 904.495 417.675C906.783 417.654 909.059 417.675 911.346 417.664C912.74 417.664 913.22 417.229 913.361 415.867C913.546 414.07 914.832 412.861 916.64 412.85C919.646 412.829 922.641 412.829 925.647 412.85C927.488 412.85 928.762 414.07 928.936 415.911C929.056 417.163 929.579 417.654 930.821 417.664C933.01 417.664 935.199 417.664 937.388 417.664C939.284 417.664 939.861 418.057 940.514 419.788V420.355L940.525 420.366Z" fill="#E2FF70"/>
<path d="M921.181 427.369C925.886 427.369 930.581 427.369 935.286 427.369C937.203 427.369 938.172 428.349 938.031 430.255C937.737 434.1 937.41 437.934 937.083 441.779C936.8 445.21 936.462 448.63 936.234 452.061C935.896 457.147 931.855 461.123 926.758 461.21C923.022 461.264 919.275 461.264 915.539 461.21C910.442 461.133 906.412 457.158 906.064 452.072C905.769 447.737 905.345 443.413 904.985 439.089C904.735 436.115 904.473 433.142 904.256 430.168C904.125 428.415 905.127 427.391 906.891 427.391C911.651 427.391 916.411 427.391 921.17 427.391L921.181 427.369Z" fill="#E2FF70"/>
<circle cx="521.252" cy="541.714" r="23.4172" fill="#E2FF70"/>
<path d="M523.703 530.536C523.703 531.735 523.582 533.267 523.339 535.13C523.097 536.981 522.746 539.394 522.286 542.367L521.942 544.569C521.929 544.659 521.903 544.888 521.865 545.258C521.84 545.629 521.776 545.96 521.674 546.254C521.584 546.535 521.457 546.675 521.291 546.675C521.061 546.675 520.901 546.535 520.812 546.254C520.735 545.973 520.684 545.699 520.659 545.431C520.646 545.15 520.633 544.965 520.621 544.876C520.557 544.327 520.455 543.618 520.314 542.75C520.187 541.87 520.091 541.238 520.027 540.855C519.631 538.289 519.325 536.209 519.108 534.614C518.904 533.005 518.802 531.633 518.802 530.497C518.802 529.744 519.006 529.202 519.414 528.87C519.836 528.538 520.436 528.372 521.214 528.372C521.954 528.372 522.554 528.551 523.014 528.908C523.473 529.266 523.703 529.808 523.703 530.536ZM521.291 549.356C521.712 549.356 522.101 549.464 522.459 549.681C522.829 549.898 523.122 550.192 523.339 550.562C523.556 550.919 523.665 551.308 523.665 551.73C523.665 552.381 523.429 552.929 522.956 553.376C522.497 553.823 521.942 554.046 521.291 554.046C520.652 554.046 520.104 553.823 519.644 553.376C519.197 552.917 518.974 552.368 518.974 551.73C518.974 551.079 519.197 550.523 519.644 550.064C520.091 549.592 520.64 549.356 521.291 549.356Z" fill="#212429"/>
<path fill-rule="evenodd" clip-rule="evenodd" d="M523.609 535.165L523.609 535.166C523.366 537.019 523.015 539.434 522.555 542.409L522.555 542.409L522.211 544.609C522.199 544.693 522.174 544.915 522.136 545.282C522.109 545.668 522.042 546.022 521.932 546.34C521.837 546.635 521.651 546.947 521.291 546.947C521.115 546.947 520.952 546.892 520.819 546.774C520.69 546.661 520.607 546.507 520.552 546.336L520.549 546.326L520.549 546.326C520.469 546.031 520.415 545.741 520.388 545.456L520.386 545.443L520.387 545.443C520.374 545.16 520.361 544.988 520.351 544.914L520.35 544.907L520.35 544.907C520.287 544.364 520.185 543.66 520.045 542.794L520.045 542.789L520.045 542.789C519.917 541.909 519.822 541.279 519.758 540.9L519.758 540.896L519.758 540.896C519.362 538.33 519.055 536.248 518.838 534.65L518.838 534.648L518.838 534.648C518.633 533.032 518.529 531.648 518.529 530.497C518.529 529.699 518.747 529.061 519.243 528.658L519.246 528.656L519.246 528.656C519.732 528.272 520.401 528.1 521.214 528.1C521.998 528.1 522.662 528.289 523.181 528.693C523.723 529.115 523.975 529.747 523.975 530.535C523.975 531.752 523.852 533.296 523.609 535.165ZM521.673 546.254C521.776 545.96 521.839 545.628 521.865 545.258C521.903 544.888 521.929 544.658 521.941 544.569L522.286 542.367C522.746 539.393 523.097 536.981 523.339 535.13C523.582 533.267 523.703 531.735 523.703 530.535C523.703 529.808 523.473 529.265 523.014 528.908C522.554 528.551 521.954 528.372 521.214 528.372C520.435 528.372 519.835 528.538 519.414 528.87C519.006 529.202 518.802 529.744 518.802 530.497C518.802 531.633 518.904 533.005 519.108 534.613C519.325 536.209 519.631 538.289 520.027 540.855C520.091 541.238 520.186 541.87 520.314 542.75C520.454 543.618 520.557 544.327 520.62 544.875C520.633 544.965 520.646 545.15 520.659 545.431C520.684 545.699 520.735 545.973 520.812 546.254C520.901 546.535 521.061 546.675 521.291 546.675C521.456 546.675 521.584 546.535 521.673 546.254ZM519.449 553.566L519.449 553.566C518.953 553.056 518.702 552.439 518.702 551.73C518.702 551.01 518.951 550.386 519.447 549.875C519.945 549.35 520.565 549.083 521.291 549.083C521.76 549.083 522.198 549.205 522.598 549.447C523.007 549.687 523.333 550.013 523.573 550.422C523.815 550.822 523.937 551.26 523.937 551.73C523.937 552.455 523.67 553.075 523.145 553.573C522.634 554.069 522.01 554.318 521.291 554.318C520.581 554.318 519.964 554.067 519.454 553.571L519.449 553.566ZM522.956 553.376C523.428 552.929 523.665 552.38 523.665 551.73C523.665 551.308 523.556 550.919 523.339 550.562C523.122 550.191 522.829 549.898 522.458 549.681C522.101 549.464 521.712 549.355 521.291 549.355C520.64 549.355 520.091 549.592 519.644 550.064C519.197 550.523 518.974 551.079 518.974 551.73C518.974 552.368 519.197 552.917 519.644 553.376C520.103 553.823 520.652 554.046 521.291 554.046C521.941 554.046 522.497 553.823 522.956 553.376Z" fill="#212429"/>
</svg>
