<svg width="372" height="368" viewBox="0 0 372 368" fill="none" xmlns="http://www.w3.org/2000/svg">
<rect x="265" y="32" width="78" height="306" fill="#D9D9D9" fill-opacity="0.2"/>
<rect x="26" y="32" width="77" height="306" fill="#D9D9D9" fill-opacity="0.2"/>
<rect x="343" y="32" width="77" height="317" transform="rotate(90 343 32)" fill="#D9D9D9" fill-opacity="0.2"/>
<rect x="343" y="261" width="77" height="317" transform="rotate(90 343 261)" fill="#D9D9D9" fill-opacity="0.2"/>
<path d="M130.886 183.357L204.227 109.314H241.256L103.25 247.086V209.571L130.886 183.372V183.357Z" fill="#FFFCF1"/>
<path d="M265.407 260.534L222.544 260.458L184.491 222.405L146.365 260.531H103.25L163.336 201.235L184.506 180.065L205.69 201.235L265.407 260.534Z" fill="#FFFCF1"/>
<path d="M132.535 158.491C146.149 158.491 157.186 147.454 157.186 133.839C157.186 120.224 146.149 109.188 132.535 109.188C118.92 109.188 107.883 120.224 107.883 133.839C107.883 147.454 118.92 158.491 132.535 158.491Z" fill="#FFFCF1"/>
<g filter="url(#filter0_d_4547_2442)">
<path d="M363.667 31C363.667 29.5272 362.473 28.3333 361 28.3333C359.527 28.3333 358.333 29.5272 358.333 31C358.333 32.4728 359.527 33.6667 361 33.6667C362.473 33.6667 363.667 32.4728 363.667 31ZM9.66666 31C9.66666 29.5273 8.47275 28.3334 7 28.3334C5.52725 28.3334 4.33334 29.5273 4.33334 31C4.33334 32.4728 5.52725 33.6667 7 33.6667C8.47275 33.6667 9.66666 32.4728 9.66666 31ZM361 31L361 30.5L360.006 30.5L360.006 31L360.006 31.5L361 31.5L361 31ZM358.017 31L358.017 30.5L356.028 30.5L356.028 31L356.028 31.5L358.017 31.5L358.017 31ZM354.039 31L354.039 30.5L352.051 30.5L352.051 31L352.051 31.5L354.039 31.5L354.039 31ZM350.062 31L350.062 30.5L348.073 30.5L348.073 31L348.073 31.5L350.062 31.5L350.062 31ZM346.084 31L346.084 30.5L344.096 30.5L344.096 31L344.096 31.5L346.084 31.5L346.084 31ZM342.107 31L342.107 30.5L340.118 30.5L340.118 31L340.118 31.5L342.107 31.5L342.107 31ZM338.129 31L338.129 30.5L336.14 30.5L336.14 31L336.14 31.5L338.129 31.5L338.129 31ZM334.152 31L334.152 30.5L332.163 30.5L332.163 31L332.163 31.5L334.152 31.5L334.152 31ZM330.174 31L330.174 30.5L328.185 30.5L328.185 31L328.185 31.5L330.174 31.5L330.174 31ZM326.197 31L326.197 30.5L324.208 30.5L324.208 31L324.208 31.5L326.197 31.5L326.197 31ZM322.219 31L322.219 30.5L320.23 30.5L320.23 31L320.23 31.5L322.219 31.5L322.219 31ZM318.242 31L318.242 30.5L316.253 30.5L316.253 31L316.253 31.5L318.242 31.5L318.242 31ZM314.264 31L314.264 30.5L312.275 30.5L312.275 31L312.275 31.5L314.264 31.5L314.264 31ZM310.287 31L310.287 30.5L308.298 30.5L308.298 31L308.298 31.5L310.287 31.5L310.287 31ZM306.309 31L306.309 30.5L304.32 30.5L304.32 31L304.32 31.5L306.309 31.5L306.309 31ZM302.331 31L302.331 30.5L300.343 30.5L300.343 31L300.343 31.5L302.331 31.5L302.331 31ZM298.354 31L298.354 30.5L296.365 30.5L296.365 31L296.365 31.5L298.354 31.5L298.354 31ZM294.376 31L294.376 30.5L292.388 30.5L292.388 31L292.388 31.5L294.376 31.5L294.376 31ZM290.399 31L290.399 30.5L288.41 30.5L288.41 31L288.41 31.5L290.399 31.5L290.399 31ZM286.421 31L286.421 30.5L284.433 30.5L284.433 31L284.433 31.5L286.421 31.5L286.421 31ZM282.444 31L282.444 30.5L280.455 30.5L280.455 31L280.455 31.5L282.444 31.5L282.444 31ZM278.466 31L278.466 30.5L276.478 30.5L276.478 31L276.478 31.5L278.466 31.5L278.466 31ZM274.489 31L274.489 30.5L272.5 30.5L272.5 31L272.5 31.5L274.489 31.5L274.489 31ZM270.511 31L270.511 30.5L268.522 30.5L268.522 31L268.522 31.5L270.511 31.5L270.511 31ZM266.534 31L266.534 30.5L264.545 30.5L264.545 31L264.545 31.5L266.534 31.5L266.534 31ZM262.556 31L262.556 30.5L260.567 30.5L260.567 31L260.567 31.5L262.556 31.5L262.556 31ZM258.579 31L258.579 30.5L256.59 30.5L256.59 31L256.59 31.5L258.579 31.5L258.579 31ZM254.601 31L254.601 30.5L252.612 30.5L252.612 31L252.612 31.5L254.601 31.5L254.601 31ZM250.624 31L250.624 30.5L248.635 30.5L248.635 31L248.635 31.5L250.624 31.5L250.624 31ZM246.646 31L246.646 30.5L244.657 30.5L244.657 31L244.657 31.5L246.646 31.5L246.646 31ZM242.669 31L242.669 30.5L240.68 30.5L240.68 31L240.68 31.5L242.669 31.5L242.669 31ZM238.691 31L238.691 30.5L236.702 30.5L236.702 31L236.702 31.5L238.691 31.5L238.691 31ZM234.714 31L234.714 30.5L232.725 30.5L232.725 31L232.725 31.5L234.714 31.5L234.714 31ZM230.736 31L230.736 30.5L228.747 30.5L228.747 31L228.747 31.5L230.736 31.5L230.736 31ZM226.758 31L226.758 30.5L224.77 30.5L224.77 31L224.77 31.5L226.758 31.5L226.758 31ZM222.781 31L222.781 30.5L220.792 30.5L220.792 31L220.792 31.5L222.781 31.5L222.781 31ZM218.803 31L218.803 30.5L216.815 30.5L216.815 31L216.815 31.5L218.803 31.5L218.803 31ZM214.826 31L214.826 30.5L212.837 30.5L212.837 31L212.837 31.5L214.826 31.5L214.826 31ZM210.848 31L210.848 30.5L208.86 30.5L208.86 31L208.86 31.5L210.848 31.5L210.848 31ZM206.871 31L206.871 30.5L204.882 30.5L204.882 31L204.882 31.5L206.871 31.5L206.871 31ZM202.893 31L202.893 30.5L200.904 30.5L200.904 31L200.904 31.5L202.893 31.5L202.893 31ZM198.916 31L198.916 30.5L196.927 30.5L196.927 31L196.927 31.5L198.916 31.5L198.916 31ZM194.938 31L194.938 30.5L192.949 30.5L192.949 31L192.949 31.5L194.938 31.5L194.938 31ZM190.961 31L190.961 30.5L188.972 30.5L188.972 31L188.972 31.5L190.961 31.5L190.961 31ZM186.983 31L186.983 30.5L184.994 30.5L184.994 31L184.994 31.5L186.983 31.5L186.983 31ZM183.006 31L183.006 30.5L181.017 30.5L181.017 31L181.017 31.5L183.006 31.5L183.006 31ZM179.028 31L179.028 30.5L177.039 30.5L177.039 31L177.039 31.5L179.028 31.5L179.028 31ZM175.05 31L175.05 30.5L173.062 30.5L173.062 31L173.062 31.5L175.05 31.5L175.05 31ZM171.073 31L171.073 30.5L169.084 30.5L169.084 31L169.084 31.5L171.073 31.5L171.073 31ZM167.095 31L167.095 30.5L165.107 30.5L165.107 31L165.107 31.5L167.095 31.5L167.095 31ZM163.118 31L163.118 30.5L161.129 30.5L161.129 31L161.129 31.5L163.118 31.5L163.118 31ZM159.14 31L159.14 30.5L157.152 30.5L157.152 31L157.152 31.5L159.14 31.5L159.14 31ZM155.163 31L155.163 30.5L153.174 30.5L153.174 31L153.174 31.5L155.163 31.5L155.163 31ZM151.185 31L151.185 30.5L149.196 30.5L149.196 31L149.196 31.5L151.185 31.5L151.185 31ZM147.208 31L147.208 30.5L145.219 30.5L145.219 31L145.219 31.5L147.208 31.5L147.208 31ZM143.23 31L143.23 30.5L141.241 30.5L141.241 31L141.241 31.5L143.23 31.5L143.23 31ZM139.253 31L139.253 30.5L137.264 30.5L137.264 31L137.264 31.5L139.253 31.5L139.253 31ZM135.275 31L135.275 30.5L133.286 30.5L133.286 31L133.286 31.5L135.275 31.5L135.275 31ZM131.298 31L131.298 30.5L129.309 30.5L129.309 31L129.309 31.5L131.298 31.5L131.298 31ZM127.32 31L127.32 30.5L125.331 30.5L125.331 31L125.331 31.5L127.32 31.5L127.32 31ZM123.342 31L123.342 30.5L121.354 30.5L121.354 31L121.354 31.5L123.342 31.5L123.342 31ZM119.365 31L119.365 30.5L117.376 30.5L117.376 31L117.376 31.5L119.365 31.5L119.365 31ZM115.387 31L115.387 30.5L113.399 30.5L113.399 31L113.399 31.5L115.387 31.5L115.387 31ZM111.41 31L111.41 30.5L109.421 30.5L109.421 31L109.421 31.5L111.41 31.5L111.41 31ZM107.432 31L107.432 30.5L105.444 30.5L105.444 31L105.444 31.5L107.432 31.5L107.432 31ZM103.455 31L103.455 30.5L101.466 30.5L101.466 31L101.466 31.5L103.455 31.5L103.455 31ZM99.4772 31L99.4772 30.5L97.4884 30.5L97.4884 31L97.4884 31.5L99.4772 31.5L99.4772 31ZM95.4997 31L95.4997 30.5L93.5109 30.5L93.5109 31L93.5109 31.5L95.4997 31.5L95.4997 31ZM91.5221 31L91.5221 30.5L89.5334 30.5L89.5334 31L89.5334 31.5L91.5221 31.5L91.5221 31ZM87.5446 31L87.5446 30.5L85.5558 30.5L85.5558 31L85.5558 31.5L87.5446 31.5L87.5446 31ZM83.567 31L83.567 30.5L81.5783 30.5L81.5783 31L81.5783 31.5L83.567 31.5L83.567 31ZM79.5895 31L79.5895 30.5L77.6007 30.5L77.6007 31L77.6007 31.5L79.5895 31.5L79.5895 31ZM75.612 31L75.612 30.5L73.6232 30.5L73.6232 31L73.6232 31.5L75.612 31.5L75.612 31ZM71.6344 31L71.6344 30.5L69.6457 30.5L69.6457 31L69.6457 31.5L71.6344 31.5L71.6344 31ZM67.6569 31L67.6569 30.5L65.6681 30.5L65.6681 31L65.6681 31.5L67.6569 31.5L67.6569 31ZM63.6794 31L63.6794 30.5L61.6906 30.5L61.6906 31L61.6906 31.5L63.6794 31.5L63.6794 31ZM59.7018 31L59.7018 30.5L57.713 30.5L57.713 31L57.713 31.5L59.7018 31.5L59.7018 31ZM55.7243 31L55.7243 30.5L53.7355 30.5L53.7355 31L53.7355 31.5L55.7243 31.5L55.7243 31ZM51.7467 31L51.7467 30.5L49.758 30.5L49.758 31L49.758 31.5L51.7467 31.5L51.7467 31ZM47.7692 31L47.7692 30.5L45.7804 30.5L45.7804 31L45.7804 31.5L47.7692 31.5L47.7692 31ZM43.7917 31L43.7917 30.5L41.8029 30.5L41.8029 31L41.8029 31.5L43.7917 31.5L43.7917 31ZM39.8141 31L39.8141 30.5L37.8253 30.5L37.8253 31L37.8253 31.5L39.8141 31.5L39.8141 31ZM35.8366 31L35.8366 30.5L33.8478 30.5L33.8478 31L33.8478 31.5L35.8366 31.5L35.8366 31ZM31.859 31L31.859 30.5L29.8703 30.5L29.8703 31L29.8703 31.5L31.859 31.5L31.859 31ZM27.8815 31L27.8815 30.5L25.8927 30.5L25.8927 31L25.8927 31.5L27.8815 31.5L27.8815 31ZM23.904 31L23.904 30.5L21.9152 30.5L21.9152 31L21.9152 31.5L23.904 31.5L23.904 31ZM19.9264 31L19.9264 30.5L17.9377 30.5L17.9377 31L17.9377 31.5L19.9264 31.5L19.9264 31ZM15.9489 31L15.9489 30.5L13.9601 30.5L13.9601 31L13.9601 31.5L15.9489 31.5L15.9489 31ZM11.9713 31L11.9713 30.5L9.98257 30.5L9.98257 31L9.98257 31.5L11.9713 31.5L11.9713 31ZM7.9938 31L7.9938 30.5L7 30.5L7 31L7 31.5L7.9938 31.5L7.9938 31Z" fill="white"/>
</g>
<g filter="url(#filter1_d_4547_2442)">
<path d="M363.667 261C363.667 259.527 362.473 258.333 361 258.333C359.527 258.333 358.333 259.527 358.333 261C358.333 262.473 359.527 263.667 361 263.667C362.473 263.667 363.667 262.473 363.667 261ZM9.66666 261C9.66666 259.527 8.47275 258.333 7 258.333C5.52725 258.333 4.33334 259.527 4.33334 261C4.33334 262.473 5.52725 263.667 7 263.667C8.47275 263.667 9.66666 262.473 9.66666 261ZM361 261L361 260.5L360.006 260.5L360.006 261L360.006 261.5L361 261.5L361 261ZM358.017 261L358.017 260.5L356.028 260.5L356.028 261L356.028 261.5L358.017 261.5L358.017 261ZM354.039 261L354.039 260.5L352.051 260.5L352.051 261L352.051 261.5L354.039 261.5L354.039 261ZM350.062 261L350.062 260.5L348.073 260.5L348.073 261L348.073 261.5L350.062 261.5L350.062 261ZM346.084 261L346.084 260.5L344.096 260.5L344.096 261L344.096 261.5L346.084 261.5L346.084 261ZM342.107 261L342.107 260.5L340.118 260.5L340.118 261L340.118 261.5L342.107 261.5L342.107 261ZM338.129 261L338.129 260.5L336.14 260.5L336.14 261L336.14 261.5L338.129 261.5L338.129 261ZM334.152 261L334.152 260.5L332.163 260.5L332.163 261L332.163 261.5L334.152 261.5L334.152 261ZM330.174 261L330.174 260.5L328.185 260.5L328.185 261L328.185 261.5L330.174 261.5L330.174 261ZM326.197 261L326.197 260.5L324.208 260.5L324.208 261L324.208 261.5L326.197 261.5L326.197 261ZM322.219 261L322.219 260.5L320.23 260.5L320.23 261L320.23 261.5L322.219 261.5L322.219 261ZM318.242 261L318.242 260.5L316.253 260.5L316.253 261L316.253 261.5L318.242 261.5L318.242 261ZM314.264 261L314.264 260.5L312.275 260.5L312.275 261L312.275 261.5L314.264 261.5L314.264 261ZM310.287 261L310.287 260.5L308.298 260.5L308.298 261L308.298 261.5L310.287 261.5L310.287 261ZM306.309 261L306.309 260.5L304.32 260.5L304.32 261L304.32 261.5L306.309 261.5L306.309 261ZM302.331 261L302.331 260.5L300.343 260.5L300.343 261L300.343 261.5L302.331 261.5L302.331 261ZM298.354 261L298.354 260.5L296.365 260.5L296.365 261L296.365 261.5L298.354 261.5L298.354 261ZM294.376 261L294.376 260.5L292.388 260.5L292.388 261L292.388 261.5L294.376 261.5L294.376 261ZM290.399 261L290.399 260.5L288.41 260.5L288.41 261L288.41 261.5L290.399 261.5L290.399 261ZM286.421 261L286.421 260.5L284.433 260.5L284.433 261L284.433 261.5L286.421 261.5L286.421 261ZM282.444 261L282.444 260.5L280.455 260.5L280.455 261L280.455 261.5L282.444 261.5L282.444 261ZM278.466 261L278.466 260.5L276.478 260.5L276.478 261L276.478 261.5L278.466 261.5L278.466 261ZM274.489 261L274.489 260.5L272.5 260.5L272.5 261L272.5 261.5L274.489 261.5L274.489 261ZM270.511 261L270.511 260.5L268.522 260.5L268.522 261L268.522 261.5L270.511 261.5L270.511 261ZM266.534 261L266.534 260.5L264.545 260.5L264.545 261L264.545 261.5L266.534 261.5L266.534 261ZM262.556 261L262.556 260.5L260.567 260.5L260.567 261L260.567 261.5L262.556 261.5L262.556 261ZM258.579 261L258.579 260.5L256.59 260.5L256.59 261L256.59 261.5L258.579 261.5L258.579 261ZM254.601 261L254.601 260.5L252.612 260.5L252.612 261L252.612 261.5L254.601 261.5L254.601 261ZM250.624 261L250.624 260.5L248.635 260.5L248.635 261L248.635 261.5L250.624 261.5L250.624 261ZM246.646 261L246.646 260.5L244.657 260.5L244.657 261L244.657 261.5L246.646 261.5L246.646 261ZM242.669 261L242.669 260.5L240.68 260.5L240.68 261L240.68 261.5L242.669 261.5L242.669 261ZM238.691 261L238.691 260.5L236.702 260.5L236.702 261L236.702 261.5L238.691 261.5L238.691 261ZM234.714 261L234.714 260.5L232.725 260.5L232.725 261L232.725 261.5L234.714 261.5L234.714 261ZM230.736 261L230.736 260.5L228.747 260.5L228.747 261L228.747 261.5L230.736 261.5L230.736 261ZM226.758 261L226.758 260.5L224.77 260.5L224.77 261L224.77 261.5L226.758 261.5L226.758 261ZM222.781 261L222.781 260.5L220.792 260.5L220.792 261L220.792 261.5L222.781 261.5L222.781 261ZM218.803 261L218.803 260.5L216.815 260.5L216.815 261L216.815 261.5L218.803 261.5L218.803 261ZM214.826 261L214.826 260.5L212.837 260.5L212.837 261L212.837 261.5L214.826 261.5L214.826 261ZM210.848 261L210.848 260.5L208.86 260.5L208.86 261L208.86 261.5L210.848 261.5L210.848 261ZM206.871 261L206.871 260.5L204.882 260.5L204.882 261L204.882 261.5L206.871 261.5L206.871 261ZM202.893 261L202.893 260.5L200.904 260.5L200.904 261L200.904 261.5L202.893 261.5L202.893 261ZM198.916 261L198.916 260.5L196.927 260.5L196.927 261L196.927 261.5L198.916 261.5L198.916 261ZM194.938 261L194.938 260.5L192.949 260.5L192.949 261L192.949 261.5L194.938 261.5L194.938 261ZM190.961 261L190.961 260.5L188.972 260.5L188.972 261L188.972 261.5L190.961 261.5L190.961 261ZM186.983 261L186.983 260.5L184.994 260.5L184.994 261L184.994 261.5L186.983 261.5L186.983 261ZM183.006 261L183.006 260.5L181.017 260.5L181.017 261L181.017 261.5L183.006 261.5L183.006 261ZM179.028 261L179.028 260.5L177.039 260.5L177.039 261L177.039 261.5L179.028 261.5L179.028 261ZM175.05 261L175.05 260.5L173.062 260.5L173.062 261L173.062 261.5L175.05 261.5L175.05 261ZM171.073 261L171.073 260.5L169.084 260.5L169.084 261L169.084 261.5L171.073 261.5L171.073 261ZM167.095 261L167.095 260.5L165.107 260.5L165.107 261L165.107 261.5L167.095 261.5L167.095 261ZM163.118 261L163.118 260.5L161.129 260.5L161.129 261L161.129 261.5L163.118 261.5L163.118 261ZM159.14 261L159.14 260.5L157.152 260.5L157.152 261L157.152 261.5L159.14 261.5L159.14 261ZM155.163 261L155.163 260.5L153.174 260.5L153.174 261L153.174 261.5L155.163 261.5L155.163 261ZM151.185 261L151.185 260.5L149.196 260.5L149.196 261L149.196 261.5L151.185 261.5L151.185 261ZM147.208 261L147.208 260.5L145.219 260.5L145.219 261L145.219 261.5L147.208 261.5L147.208 261ZM143.23 261L143.23 260.5L141.241 260.5L141.241 261L141.241 261.5L143.23 261.5L143.23 261ZM139.253 261L139.253 260.5L137.264 260.5L137.264 261L137.264 261.5L139.253 261.5L139.253 261ZM135.275 261L135.275 260.5L133.286 260.5L133.286 261L133.286 261.5L135.275 261.5L135.275 261ZM131.298 261L131.298 260.5L129.309 260.5L129.309 261L129.309 261.5L131.298 261.5L131.298 261ZM127.32 261L127.32 260.5L125.331 260.5L125.331 261L125.331 261.5L127.32 261.5L127.32 261ZM123.342 261L123.342 260.5L121.354 260.5L121.354 261L121.354 261.5L123.342 261.5L123.342 261ZM119.365 261L119.365 260.5L117.376 260.5L117.376 261L117.376 261.5L119.365 261.5L119.365 261ZM115.387 261L115.387 260.5L113.399 260.5L113.399 261L113.399 261.5L115.387 261.5L115.387 261ZM111.41 261L111.41 260.5L109.421 260.5L109.421 261L109.421 261.5L111.41 261.5L111.41 261ZM107.432 261L107.432 260.5L105.444 260.5L105.444 261L105.444 261.5L107.432 261.5L107.432 261ZM103.455 261L103.455 260.5L101.466 260.5L101.466 261L101.466 261.5L103.455 261.5L103.455 261ZM99.4772 261L99.4772 260.5L97.4884 260.5L97.4884 261L97.4884 261.5L99.4772 261.5L99.4772 261ZM95.4997 261L95.4997 260.5L93.5109 260.5L93.5109 261L93.5109 261.5L95.4997 261.5L95.4997 261ZM91.5221 261L91.5221 260.5L89.5334 260.5L89.5334 261L89.5334 261.5L91.5221 261.5L91.5221 261ZM87.5446 261L87.5446 260.5L85.5558 260.5L85.5558 261L85.5558 261.5L87.5446 261.5L87.5446 261ZM83.567 261L83.567 260.5L81.5783 260.5L81.5783 261L81.5783 261.5L83.567 261.5L83.567 261ZM79.5895 261L79.5895 260.5L77.6007 260.5L77.6007 261L77.6007 261.5L79.5895 261.5L79.5895 261ZM75.612 261L75.612 260.5L73.6232 260.5L73.6232 261L73.6232 261.5L75.612 261.5L75.612 261ZM71.6344 261L71.6344 260.5L69.6457 260.5L69.6457 261L69.6457 261.5L71.6344 261.5L71.6344 261ZM67.6569 261L67.6569 260.5L65.6681 260.5L65.6681 261L65.6681 261.5L67.6569 261.5L67.6569 261ZM63.6794 261L63.6794 260.5L61.6906 260.5L61.6906 261L61.6906 261.5L63.6794 261.5L63.6794 261ZM59.7018 261L59.7018 260.5L57.713 260.5L57.713 261L57.713 261.5L59.7018 261.5L59.7018 261ZM55.7243 261L55.7243 260.5L53.7355 260.5L53.7355 261L53.7355 261.5L55.7243 261.5L55.7243 261ZM51.7467 261L51.7467 260.5L49.758 260.5L49.758 261L49.758 261.5L51.7467 261.5L51.7467 261ZM47.7692 261L47.7692 260.5L45.7804 260.5L45.7804 261L45.7804 261.5L47.7692 261.5L47.7692 261ZM43.7917 261L43.7917 260.5L41.8029 260.5L41.8029 261L41.8029 261.5L43.7917 261.5L43.7917 261ZM39.8141 261L39.8141 260.5L37.8253 260.5L37.8253 261L37.8253 261.5L39.8141 261.5L39.8141 261ZM35.8366 261L35.8366 260.5L33.8478 260.5L33.8478 261L33.8478 261.5L35.8366 261.5L35.8366 261ZM31.859 261L31.859 260.5L29.8703 260.5L29.8703 261L29.8703 261.5L31.859 261.5L31.859 261ZM27.8815 261L27.8815 260.5L25.8927 260.5L25.8927 261L25.8927 261.5L27.8815 261.5L27.8815 261ZM23.904 261L23.904 260.5L21.9152 260.5L21.9152 261L21.9152 261.5L23.904 261.5L23.904 261ZM19.9264 261L19.9264 260.5L17.9377 260.5L17.9377 261L17.9377 261.5L19.9264 261.5L19.9264 261ZM15.9489 261L15.9489 260.5L13.9601 260.5L13.9601 261L13.9601 261.5L15.9489 261.5L15.9489 261ZM11.9713 261L11.9713 260.5L9.98257 260.5L9.98257 261L9.98257 261.5L11.9713 261.5L11.9713 261ZM7.9938 261L7.9938 260.5L7 260.5L7 261L7 261.5L7.9938 261.5L7.9938 261Z" fill="white"/>
</g>
<g filter="url(#filter2_d_4547_2442)">
<path d="M343 359.667C344.473 359.667 345.667 358.473 345.667 357C345.667 355.527 344.473 354.333 343 354.333C341.527 354.333 340.333 355.527 340.333 357C340.333 358.473 341.527 359.667 343 359.667ZM343 5.66666C344.473 5.66666 345.667 4.47275 345.667 3C345.667 1.52725 344.473 0.333343 343 0.333344C341.527 0.333344 340.333 1.52725 340.333 3C340.333 4.47275 341.527 5.66666 343 5.66666ZM343 357L343.5 357L343.5 356.006L343 356.006L342.5 356.006L342.5 357L343 357ZM343 354.017L343.5 354.017L343.5 352.028L343 352.028L342.5 352.028L342.5 354.017L343 354.017ZM343 350.039L343.5 350.039L343.5 348.051L343 348.051L342.5 348.051L342.5 350.039L343 350.039ZM343 346.062L343.5 346.062L343.5 344.073L343 344.073L342.5 344.073L342.5 346.062L343 346.062ZM343 342.084L343.5 342.084L343.5 340.096L343 340.096L342.5 340.096L342.5 342.084L343 342.084ZM343 338.107L343.5 338.107L343.5 336.118L343 336.118L342.5 336.118L342.5 338.107L343 338.107ZM343 334.129L343.5 334.129L343.5 332.14L343 332.14L342.5 332.14L342.5 334.129L343 334.129ZM343 330.152L343.5 330.152L343.5 328.163L343 328.163L342.5 328.163L342.5 330.152L343 330.152ZM343 326.174L343.5 326.174L343.5 324.185L343 324.185L342.5 324.185L342.5 326.174L343 326.174ZM343 322.197L343.5 322.197L343.5 320.208L343 320.208L342.5 320.208L342.5 322.197L343 322.197ZM343 318.219L343.5 318.219L343.5 316.23L343 316.23L342.5 316.23L342.5 318.219L343 318.219ZM343 314.242L343.5 314.242L343.5 312.253L343 312.253L342.5 312.253L342.5 314.242L343 314.242ZM343 310.264L343.5 310.264L343.5 308.275L343 308.275L342.5 308.275L342.5 310.264L343 310.264ZM343 306.287L343.5 306.287L343.5 304.298L343 304.298L342.5 304.298L342.5 306.287L343 306.287ZM343 302.309L343.5 302.309L343.5 300.32L343 300.32L342.5 300.32L342.5 302.309L343 302.309ZM343 298.331L343.5 298.331L343.5 296.343L343 296.343L342.5 296.343L342.5 298.331L343 298.331ZM343 294.354L343.5 294.354L343.5 292.365L343 292.365L342.5 292.365L342.5 294.354L343 294.354ZM343 290.376L343.5 290.376L343.5 288.388L343 288.388L342.5 288.388L342.5 290.376L343 290.376ZM343 286.399L343.5 286.399L343.5 284.41L343 284.41L342.5 284.41L342.5 286.399L343 286.399ZM343 282.421L343.5 282.421L343.5 280.433L343 280.433L342.5 280.433L342.5 282.421L343 282.421ZM343 278.444L343.5 278.444L343.5 276.455L343 276.455L342.5 276.455L342.5 278.444L343 278.444ZM343 274.466L343.5 274.466L343.5 272.478L343 272.478L342.5 272.478L342.5 274.466L343 274.466ZM343 270.489L343.5 270.489L343.5 268.5L343 268.5L342.5 268.5L342.5 270.489L343 270.489ZM343 266.511L343.5 266.511L343.5 264.522L343 264.522L342.5 264.522L342.5 266.511L343 266.511ZM343 262.534L343.5 262.534L343.5 260.545L343 260.545L342.5 260.545L342.5 262.534L343 262.534ZM343 258.556L343.5 258.556L343.5 256.567L343 256.567L342.5 256.567L342.5 258.556L343 258.556ZM343 254.579L343.5 254.579L343.5 252.59L343 252.59L342.5 252.59L342.5 254.579L343 254.579ZM343 250.601L343.5 250.601L343.5 248.612L343 248.612L342.5 248.612L342.5 250.601L343 250.601ZM343 246.624L343.5 246.624L343.5 244.635L343 244.635L342.5 244.635L342.5 246.624L343 246.624ZM343 242.646L343.5 242.646L343.5 240.657L343 240.657L342.5 240.657L342.5 242.646L343 242.646ZM343 238.669L343.5 238.669L343.5 236.68L343 236.68L342.5 236.68L342.5 238.669L343 238.669ZM343 234.691L343.5 234.691L343.5 232.702L343 232.702L342.5 232.702L342.5 234.691L343 234.691ZM343 230.714L343.5 230.714L343.5 228.725L343 228.725L342.5 228.725L342.5 230.714L343 230.714ZM343 226.736L343.5 226.736L343.5 224.747L343 224.747L342.5 224.747L342.5 226.736L343 226.736ZM343 222.758L343.5 222.758L343.5 220.77L343 220.77L342.5 220.77L342.5 222.758L343 222.758ZM343 218.781L343.5 218.781L343.5 216.792L343 216.792L342.5 216.792L342.5 218.781L343 218.781ZM343 214.803L343.5 214.803L343.5 212.815L343 212.815L342.5 212.815L342.5 214.803L343 214.803ZM343 210.826L343.5 210.826L343.5 208.837L343 208.837L342.5 208.837L342.5 210.826L343 210.826ZM343 206.848L343.5 206.848L343.5 204.86L343 204.86L342.5 204.86L342.5 206.848L343 206.848ZM343 202.871L343.5 202.871L343.5 200.882L343 200.882L342.5 200.882L342.5 202.871L343 202.871ZM343 198.893L343.5 198.893L343.5 196.904L343 196.904L342.5 196.904L342.5 198.893L343 198.893ZM343 194.916L343.5 194.916L343.5 192.927L343 192.927L342.5 192.927L342.5 194.916L343 194.916ZM343 190.938L343.5 190.938L343.5 188.949L343 188.949L342.5 188.949L342.5 190.938L343 190.938ZM343 186.961L343.5 186.961L343.5 184.972L343 184.972L342.5 184.972L342.5 186.961L343 186.961ZM343 182.983L343.5 182.983L343.5 180.994L343 180.994L342.5 180.994L342.5 182.983L343 182.983ZM343 179.006L343.5 179.006L343.5 177.017L343 177.017L342.5 177.017L342.5 179.006L343 179.006ZM343 175.028L343.5 175.028L343.5 173.039L343 173.039L342.5 173.039L342.5 175.028L343 175.028ZM343 171.05L343.5 171.05L343.5 169.062L343 169.062L342.5 169.062L342.5 171.05L343 171.05ZM343 167.073L343.5 167.073L343.5 165.084L343 165.084L342.5 165.084L342.5 167.073L343 167.073ZM343 163.095L343.5 163.095L343.5 161.107L343 161.107L342.5 161.107L342.5 163.095L343 163.095ZM343 159.118L343.5 159.118L343.5 157.129L343 157.129L342.5 157.129L342.5 159.118L343 159.118ZM343 155.14L343.5 155.14L343.5 153.152L343 153.152L342.5 153.152L342.5 155.14L343 155.14ZM343 151.163L343.5 151.163L343.5 149.174L343 149.174L342.5 149.174L342.5 151.163L343 151.163ZM343 147.185L343.5 147.185L343.5 145.196L343 145.196L342.5 145.196L342.5 147.185L343 147.185ZM343 143.208L343.5 143.208L343.5 141.219L343 141.219L342.5 141.219L342.5 143.208L343 143.208ZM343 139.23L343.5 139.23L343.5 137.241L343 137.241L342.5 137.241L342.5 139.23L343 139.23ZM343 135.253L343.5 135.253L343.5 133.264L343 133.264L342.5 133.264L342.5 135.253L343 135.253ZM343 131.275L343.5 131.275L343.5 129.286L343 129.286L342.5 129.286L342.5 131.275L343 131.275ZM343 127.298L343.5 127.298L343.5 125.309L343 125.309L342.5 125.309L342.5 127.298L343 127.298ZM343 123.32L343.5 123.32L343.5 121.331L343 121.331L342.5 121.331L342.5 123.32L343 123.32ZM343 119.342L343.5 119.342L343.5 117.354L343 117.354L342.5 117.354L342.5 119.342L343 119.342ZM343 115.365L343.5 115.365L343.5 113.376L343 113.376L342.5 113.376L342.5 115.365L343 115.365ZM343 111.387L343.5 111.387L343.5 109.399L343 109.399L342.5 109.399L342.5 111.387L343 111.387ZM343 107.41L343.5 107.41L343.5 105.421L343 105.421L342.5 105.421L342.5 107.41L343 107.41ZM343 103.432L343.5 103.432L343.5 101.444L343 101.444L342.5 101.444L342.5 103.432L343 103.432ZM343 99.4547L343.5 99.4547L343.5 97.466L343 97.466L342.5 97.466L342.5 99.4547L343 99.4547ZM343 95.4772L343.5 95.4772L343.5 93.4884L343 93.4884L342.5 93.4884L342.5 95.4772L343 95.4772ZM343 91.4997L343.5 91.4997L343.5 89.5109L343 89.5109L342.5 89.5109L342.5 91.4997L343 91.4997ZM343 87.5221L343.5 87.5221L343.5 85.5334L343 85.5334L342.5 85.5334L342.5 87.5221L343 87.5221ZM343 83.5446L343.5 83.5446L343.5 81.5558L343 81.5558L342.5 81.5558L342.5 83.5446L343 83.5446ZM343 79.567L343.5 79.567L343.5 77.5783L343 77.5783L342.5 77.5783L342.5 79.567L343 79.567ZM343 75.5895L343.5 75.5895L343.5 73.6007L343 73.6007L342.5 73.6007L342.5 75.5895L343 75.5895ZM343 71.612L343.5 71.612L343.5 69.6232L343 69.6232L342.5 69.6232L342.5 71.612L343 71.612ZM343 67.6344L343.5 67.6344L343.5 65.6457L343 65.6457L342.5 65.6457L342.5 67.6344L343 67.6344ZM343 63.6569L343.5 63.6569L343.5 61.6681L343 61.6681L342.5 61.6681L342.5 63.6569L343 63.6569ZM343 59.6794L343.5 59.6794L343.5 57.6906L343 57.6906L342.5 57.6906L342.5 59.6794L343 59.6794ZM343 55.7018L343.5 55.7018L343.5 53.713L343 53.713L342.5 53.713L342.5 55.7018L343 55.7018ZM343 51.7243L343.5 51.7243L343.5 49.7355L343 49.7355L342.5 49.7355L342.5 51.7243L343 51.7243ZM343 47.7467L343.5 47.7467L343.5 45.758L343 45.758L342.5 45.758L342.5 47.7467L343 47.7467ZM343 43.7692L343.5 43.7692L343.5 41.7804L343 41.7804L342.5 41.7804L342.5 43.7692L343 43.7692ZM343 39.7917L343.5 39.7917L343.5 37.8029L343 37.8029L342.5 37.8029L342.5 39.7917L343 39.7917ZM343 35.8141L343.5 35.8141L343.5 33.8253L343 33.8253L342.5 33.8253L342.5 35.8141L343 35.8141ZM343 31.8366L343.5 31.8366L343.5 29.8478L343 29.8478L342.5 29.8478L342.5 31.8366L343 31.8366ZM343 27.859L343.5 27.859L343.5 25.8703L343 25.8703L342.5 25.8703L342.5 27.859L343 27.859ZM343 23.8815L343.5 23.8815L343.5 21.8927L343 21.8927L342.5 21.8927L342.5 23.8815L343 23.8815ZM343 19.904L343.5 19.904L343.5 17.9152L343 17.9152L342.5 17.9152L342.5 19.904L343 19.904ZM343 15.9264L343.5 15.9264L343.5 13.9377L343 13.9377L342.5 13.9377L342.5 15.9264L343 15.9264ZM343 11.9489L343.5 11.9489L343.5 9.96011L343 9.96011L342.5 9.96011L342.5 11.9489L343 11.9489ZM343 7.97134L343.5 7.97134L343.5 5.98257L343 5.98257L342.5 5.98257L342.5 7.97134L343 7.97134ZM343 3.9938L343.5 3.9938L343.5 3L343 3L342.5 3L342.5 3.9938L343 3.9938Z" fill="white"/>
</g>
<g filter="url(#filter3_d_4547_2442)">
<path d="M103 359.667C104.473 359.667 105.667 358.473 105.667 357C105.667 355.527 104.473 354.333 103 354.333C101.527 354.333 100.333 355.527 100.333 357C100.333 358.473 101.527 359.667 103 359.667ZM103 5.66666C104.473 5.66666 105.667 4.47275 105.667 3C105.667 1.52725 104.473 0.333343 103 0.333344C101.527 0.333344 100.333 1.52725 100.333 3C100.333 4.47275 101.527 5.66666 103 5.66666ZM103 357L103.5 357L103.5 356.006L103 356.006L102.5 356.006L102.5 357L103 357ZM103 354.017L103.5 354.017L103.5 352.028L103 352.028L102.5 352.028L102.5 354.017L103 354.017ZM103 350.039L103.5 350.039L103.5 348.051L103 348.051L102.5 348.051L102.5 350.039L103 350.039ZM103 346.062L103.5 346.062L103.5 344.073L103 344.073L102.5 344.073L102.5 346.062L103 346.062ZM103 342.084L103.5 342.084L103.5 340.096L103 340.096L102.5 340.096L102.5 342.084L103 342.084ZM103 338.107L103.5 338.107L103.5 336.118L103 336.118L102.5 336.118L102.5 338.107L103 338.107ZM103 334.129L103.5 334.129L103.5 332.14L103 332.14L102.5 332.14L102.5 334.129L103 334.129ZM103 330.152L103.5 330.152L103.5 328.163L103 328.163L102.5 328.163L102.5 330.152L103 330.152ZM103 326.174L103.5 326.174L103.5 324.185L103 324.185L102.5 324.185L102.5 326.174L103 326.174ZM103 322.197L103.5 322.197L103.5 320.208L103 320.208L102.5 320.208L102.5 322.197L103 322.197ZM103 318.219L103.5 318.219L103.5 316.23L103 316.23L102.5 316.23L102.5 318.219L103 318.219ZM103 314.242L103.5 314.242L103.5 312.253L103 312.253L102.5 312.253L102.5 314.242L103 314.242ZM103 310.264L103.5 310.264L103.5 308.275L103 308.275L102.5 308.275L102.5 310.264L103 310.264ZM103 306.287L103.5 306.287L103.5 304.298L103 304.298L102.5 304.298L102.5 306.287L103 306.287ZM103 302.309L103.5 302.309L103.5 300.32L103 300.32L102.5 300.32L102.5 302.309L103 302.309ZM103 298.331L103.5 298.331L103.5 296.343L103 296.343L102.5 296.343L102.5 298.331L103 298.331ZM103 294.354L103.5 294.354L103.5 292.365L103 292.365L102.5 292.365L102.5 294.354L103 294.354ZM103 290.376L103.5 290.376L103.5 288.388L103 288.388L102.5 288.388L102.5 290.376L103 290.376ZM103 286.399L103.5 286.399L103.5 284.41L103 284.41L102.5 284.41L102.5 286.399L103 286.399ZM103 282.421L103.5 282.421L103.5 280.433L103 280.433L102.5 280.433L102.5 282.421L103 282.421ZM103 278.444L103.5 278.444L103.5 276.455L103 276.455L102.5 276.455L102.5 278.444L103 278.444ZM103 274.466L103.5 274.466L103.5 272.478L103 272.478L102.5 272.478L102.5 274.466L103 274.466ZM103 270.489L103.5 270.489L103.5 268.5L103 268.5L102.5 268.5L102.5 270.489L103 270.489ZM103 266.511L103.5 266.511L103.5 264.522L103 264.522L102.5 264.522L102.5 266.511L103 266.511ZM103 262.534L103.5 262.534L103.5 260.545L103 260.545L102.5 260.545L102.5 262.534L103 262.534ZM103 258.556L103.5 258.556L103.5 256.567L103 256.567L102.5 256.567L102.5 258.556L103 258.556ZM103 254.579L103.5 254.579L103.5 252.59L103 252.59L102.5 252.59L102.5 254.579L103 254.579ZM103 250.601L103.5 250.601L103.5 248.612L103 248.612L102.5 248.612L102.5 250.601L103 250.601ZM103 246.624L103.5 246.624L103.5 244.635L103 244.635L102.5 244.635L102.5 246.624L103 246.624ZM103 242.646L103.5 242.646L103.5 240.657L103 240.657L102.5 240.657L102.5 242.646L103 242.646ZM103 238.669L103.5 238.669L103.5 236.68L103 236.68L102.5 236.68L102.5 238.669L103 238.669ZM103 234.691L103.5 234.691L103.5 232.702L103 232.702L102.5 232.702L102.5 234.691L103 234.691ZM103 230.714L103.5 230.714L103.5 228.725L103 228.725L102.5 228.725L102.5 230.714L103 230.714ZM103 226.736L103.5 226.736L103.5 224.747L103 224.747L102.5 224.747L102.5 226.736L103 226.736ZM103 222.758L103.5 222.758L103.5 220.77L103 220.77L102.5 220.77L102.5 222.758L103 222.758ZM103 218.781L103.5 218.781L103.5 216.792L103 216.792L102.5 216.792L102.5 218.781L103 218.781ZM103 214.803L103.5 214.803L103.5 212.815L103 212.815L102.5 212.815L102.5 214.803L103 214.803ZM103 210.826L103.5 210.826L103.5 208.837L103 208.837L102.5 208.837L102.5 210.826L103 210.826ZM103 206.848L103.5 206.848L103.5 204.86L103 204.86L102.5 204.86L102.5 206.848L103 206.848ZM103 202.871L103.5 202.871L103.5 200.882L103 200.882L102.5 200.882L102.5 202.871L103 202.871ZM103 198.893L103.5 198.893L103.5 196.904L103 196.904L102.5 196.904L102.5 198.893L103 198.893ZM103 194.916L103.5 194.916L103.5 192.927L103 192.927L102.5 192.927L102.5 194.916L103 194.916ZM103 190.938L103.5 190.938L103.5 188.949L103 188.949L102.5 188.949L102.5 190.938L103 190.938ZM103 186.961L103.5 186.961L103.5 184.972L103 184.972L102.5 184.972L102.5 186.961L103 186.961ZM103 182.983L103.5 182.983L103.5 180.994L103 180.994L102.5 180.994L102.5 182.983L103 182.983ZM103 179.006L103.5 179.006L103.5 177.017L103 177.017L102.5 177.017L102.5 179.006L103 179.006ZM103 175.028L103.5 175.028L103.5 173.039L103 173.039L102.5 173.039L102.5 175.028L103 175.028ZM103 171.05L103.5 171.05L103.5 169.062L103 169.062L102.5 169.062L102.5 171.05L103 171.05ZM103 167.073L103.5 167.073L103.5 165.084L103 165.084L102.5 165.084L102.5 167.073L103 167.073ZM103 163.095L103.5 163.095L103.5 161.107L103 161.107L102.5 161.107L102.5 163.095L103 163.095ZM103 159.118L103.5 159.118L103.5 157.129L103 157.129L102.5 157.129L102.5 159.118L103 159.118ZM103 155.14L103.5 155.14L103.5 153.152L103 153.152L102.5 153.152L102.5 155.14L103 155.14ZM103 151.163L103.5 151.163L103.5 149.174L103 149.174L102.5 149.174L102.5 151.163L103 151.163ZM103 147.185L103.5 147.185L103.5 145.196L103 145.196L102.5 145.196L102.5 147.185L103 147.185ZM103 143.208L103.5 143.208L103.5 141.219L103 141.219L102.5 141.219L102.5 143.208L103 143.208ZM103 139.23L103.5 139.23L103.5 137.241L103 137.241L102.5 137.241L102.5 139.23L103 139.23ZM103 135.253L103.5 135.253L103.5 133.264L103 133.264L102.5 133.264L102.5 135.253L103 135.253ZM103 131.275L103.5 131.275L103.5 129.286L103 129.286L102.5 129.286L102.5 131.275L103 131.275ZM103 127.298L103.5 127.298L103.5 125.309L103 125.309L102.5 125.309L102.5 127.298L103 127.298ZM103 123.32L103.5 123.32L103.5 121.331L103 121.331L102.5 121.331L102.5 123.32L103 123.32ZM103 119.342L103.5 119.342L103.5 117.354L103 117.354L102.5 117.354L102.5 119.342L103 119.342ZM103 115.365L103.5 115.365L103.5 113.376L103 113.376L102.5 113.376L102.5 115.365L103 115.365ZM103 111.387L103.5 111.387L103.5 109.399L103 109.399L102.5 109.399L102.5 111.387L103 111.387ZM103 107.41L103.5 107.41L103.5 105.421L103 105.421L102.5 105.421L102.5 107.41L103 107.41ZM103 103.432L103.5 103.432L103.5 101.444L103 101.444L102.5 101.444L102.5 103.432L103 103.432ZM103 99.4547L103.5 99.4547L103.5 97.466L103 97.466L102.5 97.466L102.5 99.4547L103 99.4547ZM103 95.4772L103.5 95.4772L103.5 93.4884L103 93.4884L102.5 93.4884L102.5 95.4772L103 95.4772ZM103 91.4997L103.5 91.4997L103.5 89.5109L103 89.5109L102.5 89.5109L102.5 91.4997L103 91.4997ZM103 87.5221L103.5 87.5221L103.5 85.5334L103 85.5334L102.5 85.5334L102.5 87.5221L103 87.5221ZM103 83.5446L103.5 83.5446L103.5 81.5558L103 81.5558L102.5 81.5558L102.5 83.5446L103 83.5446ZM103 79.567L103.5 79.567L103.5 77.5783L103 77.5783L102.5 77.5783L102.5 79.567L103 79.567ZM103 75.5895L103.5 75.5895L103.5 73.6007L103 73.6007L102.5 73.6007L102.5 75.5895L103 75.5895ZM103 71.612L103.5 71.612L103.5 69.6232L103 69.6232L102.5 69.6232L102.5 71.612L103 71.612ZM103 67.6344L103.5 67.6344L103.5 65.6457L103 65.6457L102.5 65.6457L102.5 67.6344L103 67.6344ZM103 63.6569L103.5 63.6569L103.5 61.6681L103 61.6681L102.5 61.6681L102.5 63.6569L103 63.6569ZM103 59.6794L103.5 59.6794L103.5 57.6906L103 57.6906L102.5 57.6906L102.5 59.6794L103 59.6794ZM103 55.7018L103.5 55.7018L103.5 53.713L103 53.713L102.5 53.713L102.5 55.7018L103 55.7018ZM103 51.7243L103.5 51.7243L103.5 49.7355L103 49.7355L102.5 49.7355L102.5 51.7243L103 51.7243ZM103 47.7467L103.5 47.7467L103.5 45.758L103 45.758L102.5 45.758L102.5 47.7467L103 47.7467ZM103 43.7692L103.5 43.7692L103.5 41.7804L103 41.7804L102.5 41.7804L102.5 43.7692L103 43.7692ZM103 39.7917L103.5 39.7917L103.5 37.8029L103 37.8029L102.5 37.8029L102.5 39.7917L103 39.7917ZM103 35.8141L103.5 35.8141L103.5 33.8253L103 33.8253L102.5 33.8253L102.5 35.8141L103 35.8141ZM103 31.8366L103.5 31.8366L103.5 29.8478L103 29.8478L102.5 29.8478L102.5 31.8366L103 31.8366ZM103 27.859L103.5 27.859L103.5 25.8703L103 25.8703L102.5 25.8703L102.5 27.859L103 27.859ZM103 23.8815L103.5 23.8815L103.5 21.8927L103 21.8927L102.5 21.8927L102.5 23.8815L103 23.8815ZM103 19.904L103.5 19.904L103.5 17.9152L103 17.9152L102.5 17.9152L102.5 19.904L103 19.904ZM103 15.9264L103.5 15.9264L103.5 13.9377L103 13.9377L102.5 13.9377L102.5 15.9264L103 15.9264ZM103 11.9489L103.5 11.9489L103.5 9.96011L103 9.96011L102.5 9.96011L102.5 11.9489L103 11.9489ZM103 7.97134L103.5 7.97134L103.5 5.98257L103 5.98257L102.5 5.98257L102.5 7.97134L103 7.97134ZM103 3.9938L103.5 3.9938L103.5 3L103 3L102.5 3L102.5 3.9938L103 3.9938Z" fill="white"/>
</g>
<g filter="url(#filter4_d_4547_2442)">
<path d="M363.667 108C363.667 106.527 362.473 105.333 361 105.333C359.527 105.333 358.333 106.527 358.333 108C358.333 109.473 359.527 110.667 361 110.667C362.473 110.667 363.667 109.473 363.667 108ZM9.66666 108C9.66666 106.527 8.47275 105.333 7 105.333C5.52725 105.333 4.33334 106.527 4.33334 108C4.33334 109.473 5.52725 110.667 7 110.667C8.47275 110.667 9.66666 109.473 9.66666 108ZM361 108L361 107.5L360.006 107.5L360.006 108L360.006 108.5L361 108.5L361 108ZM358.017 108L358.017 107.5L356.028 107.5L356.028 108L356.028 108.5L358.017 108.5L358.017 108ZM354.039 108L354.039 107.5L352.051 107.5L352.051 108L352.051 108.5L354.039 108.5L354.039 108ZM350.062 108L350.062 107.5L348.073 107.5L348.073 108L348.073 108.5L350.062 108.5L350.062 108ZM346.084 108L346.084 107.5L344.096 107.5L344.096 108L344.096 108.5L346.084 108.5L346.084 108ZM342.107 108L342.107 107.5L340.118 107.5L340.118 108L340.118 108.5L342.107 108.5L342.107 108ZM338.129 108L338.129 107.5L336.14 107.5L336.14 108L336.14 108.5L338.129 108.5L338.129 108ZM334.152 108L334.152 107.5L332.163 107.5L332.163 108L332.163 108.5L334.152 108.5L334.152 108ZM330.174 108L330.174 107.5L328.185 107.5L328.185 108L328.185 108.5L330.174 108.5L330.174 108ZM326.197 108L326.197 107.5L324.208 107.5L324.208 108L324.208 108.5L326.197 108.5L326.197 108ZM322.219 108L322.219 107.5L320.23 107.5L320.23 108L320.23 108.5L322.219 108.5L322.219 108ZM318.242 108L318.242 107.5L316.253 107.5L316.253 108L316.253 108.5L318.242 108.5L318.242 108ZM314.264 108L314.264 107.5L312.275 107.5L312.275 108L312.275 108.5L314.264 108.5L314.264 108ZM310.287 108L310.287 107.5L308.298 107.5L308.298 108L308.298 108.5L310.287 108.5L310.287 108ZM306.309 108L306.309 107.5L304.32 107.5L304.32 108L304.32 108.5L306.309 108.5L306.309 108ZM302.331 108L302.331 107.5L300.343 107.5L300.343 108L300.343 108.5L302.331 108.5L302.331 108ZM298.354 108L298.354 107.5L296.365 107.5L296.365 108L296.365 108.5L298.354 108.5L298.354 108ZM294.376 108L294.376 107.5L292.388 107.5L292.388 108L292.388 108.5L294.376 108.5L294.376 108ZM290.399 108L290.399 107.5L288.41 107.5L288.41 108L288.41 108.5L290.399 108.5L290.399 108ZM286.421 108L286.421 107.5L284.433 107.5L284.433 108L284.433 108.5L286.421 108.5L286.421 108ZM282.444 108L282.444 107.5L280.455 107.5L280.455 108L280.455 108.5L282.444 108.5L282.444 108ZM278.466 108L278.466 107.5L276.478 107.5L276.478 108L276.478 108.5L278.466 108.5L278.466 108ZM274.489 108L274.489 107.5L272.5 107.5L272.5 108L272.5 108.5L274.489 108.5L274.489 108ZM270.511 108L270.511 107.5L268.522 107.5L268.522 108L268.522 108.5L270.511 108.5L270.511 108ZM266.534 108L266.534 107.5L264.545 107.5L264.545 108L264.545 108.5L266.534 108.5L266.534 108ZM262.556 108L262.556 107.5L260.567 107.5L260.567 108L260.567 108.5L262.556 108.5L262.556 108ZM258.579 108L258.579 107.5L256.59 107.5L256.59 108L256.59 108.5L258.579 108.5L258.579 108ZM254.601 108L254.601 107.5L252.612 107.5L252.612 108L252.612 108.5L254.601 108.5L254.601 108ZM250.624 108L250.624 107.5L248.635 107.5L248.635 108L248.635 108.5L250.624 108.5L250.624 108ZM246.646 108L246.646 107.5L244.657 107.5L244.657 108L244.657 108.5L246.646 108.5L246.646 108ZM242.669 108L242.669 107.5L240.68 107.5L240.68 108L240.68 108.5L242.669 108.5L242.669 108ZM238.691 108L238.691 107.5L236.702 107.5L236.702 108L236.702 108.5L238.691 108.5L238.691 108ZM234.714 108L234.714 107.5L232.725 107.5L232.725 108L232.725 108.5L234.714 108.5L234.714 108ZM230.736 108L230.736 107.5L228.747 107.5L228.747 108L228.747 108.5L230.736 108.5L230.736 108ZM226.758 108L226.758 107.5L224.77 107.5L224.77 108L224.77 108.5L226.758 108.5L226.758 108ZM222.781 108L222.781 107.5L220.792 107.5L220.792 108L220.792 108.5L222.781 108.5L222.781 108ZM218.803 108L218.803 107.5L216.815 107.5L216.815 108L216.815 108.5L218.803 108.5L218.803 108ZM214.826 108L214.826 107.5L212.837 107.5L212.837 108L212.837 108.5L214.826 108.5L214.826 108ZM210.848 108L210.848 107.5L208.86 107.5L208.86 108L208.86 108.5L210.848 108.5L210.848 108ZM206.871 108L206.871 107.5L204.882 107.5L204.882 108L204.882 108.5L206.871 108.5L206.871 108ZM202.893 108L202.893 107.5L200.904 107.5L200.904 108L200.904 108.5L202.893 108.5L202.893 108ZM198.916 108L198.916 107.5L196.927 107.5L196.927 108L196.927 108.5L198.916 108.5L198.916 108ZM194.938 108L194.938 107.5L192.949 107.5L192.949 108L192.949 108.5L194.938 108.5L194.938 108ZM190.961 108L190.961 107.5L188.972 107.5L188.972 108L188.972 108.5L190.961 108.5L190.961 108ZM186.983 108L186.983 107.5L184.994 107.5L184.994 108L184.994 108.5L186.983 108.5L186.983 108ZM183.006 108L183.006 107.5L181.017 107.5L181.017 108L181.017 108.5L183.006 108.5L183.006 108ZM179.028 108L179.028 107.5L177.039 107.5L177.039 108L177.039 108.5L179.028 108.5L179.028 108ZM175.05 108L175.05 107.5L173.062 107.5L173.062 108L173.062 108.5L175.05 108.5L175.05 108ZM171.073 108L171.073 107.5L169.084 107.5L169.084 108L169.084 108.5L171.073 108.5L171.073 108ZM167.095 108L167.095 107.5L165.107 107.5L165.107 108L165.107 108.5L167.095 108.5L167.095 108ZM163.118 108L163.118 107.5L161.129 107.5L161.129 108L161.129 108.5L163.118 108.5L163.118 108ZM159.14 108L159.14 107.5L157.152 107.5L157.152 108L157.152 108.5L159.14 108.5L159.14 108ZM155.163 108L155.163 107.5L153.174 107.5L153.174 108L153.174 108.5L155.163 108.5L155.163 108ZM151.185 108L151.185 107.5L149.196 107.5L149.196 108L149.196 108.5L151.185 108.5L151.185 108ZM147.208 108L147.208 107.5L145.219 107.5L145.219 108L145.219 108.5L147.208 108.5L147.208 108ZM143.23 108L143.23 107.5L141.241 107.5L141.241 108L141.241 108.5L143.23 108.5L143.23 108ZM139.253 108L139.253 107.5L137.264 107.5L137.264 108L137.264 108.5L139.253 108.5L139.253 108ZM135.275 108L135.275 107.5L133.286 107.5L133.286 108L133.286 108.5L135.275 108.5L135.275 108ZM131.298 108L131.298 107.5L129.309 107.5L129.309 108L129.309 108.5L131.298 108.5L131.298 108ZM127.32 108L127.32 107.5L125.331 107.5L125.331 108L125.331 108.5L127.32 108.5L127.32 108ZM123.342 108L123.342 107.5L121.354 107.5L121.354 108L121.354 108.5L123.342 108.5L123.342 108ZM119.365 108L119.365 107.5L117.376 107.5L117.376 108L117.376 108.5L119.365 108.5L119.365 108ZM115.387 108L115.387 107.5L113.399 107.5L113.399 108L113.399 108.5L115.387 108.5L115.387 108ZM111.41 108L111.41 107.5L109.421 107.5L109.421 108L109.421 108.5L111.41 108.5L111.41 108ZM107.432 108L107.432 107.5L105.444 107.5L105.444 108L105.444 108.5L107.432 108.5L107.432 108ZM103.455 108L103.455 107.5L101.466 107.5L101.466 108L101.466 108.5L103.455 108.5L103.455 108ZM99.4772 108L99.4772 107.5L97.4884 107.5L97.4884 108L97.4884 108.5L99.4772 108.5L99.4772 108ZM95.4997 108L95.4997 107.5L93.5109 107.5L93.5109 108L93.5109 108.5L95.4997 108.5L95.4997 108ZM91.5221 108L91.5221 107.5L89.5334 107.5L89.5334 108L89.5334 108.5L91.5221 108.5L91.5221 108ZM87.5446 108L87.5446 107.5L85.5558 107.5L85.5558 108L85.5558 108.5L87.5446 108.5L87.5446 108ZM83.567 108L83.567 107.5L81.5783 107.5L81.5783 108L81.5783 108.5L83.567 108.5L83.567 108ZM79.5895 108L79.5895 107.5L77.6007 107.5L77.6007 108L77.6007 108.5L79.5895 108.5L79.5895 108ZM75.612 108L75.612 107.5L73.6232 107.5L73.6232 108L73.6232 108.5L75.612 108.5L75.612 108ZM71.6344 108L71.6344 107.5L69.6457 107.5L69.6457 108L69.6457 108.5L71.6344 108.5L71.6344 108ZM67.6569 108L67.6569 107.5L65.6681 107.5L65.6681 108L65.6681 108.5L67.6569 108.5L67.6569 108ZM63.6794 108L63.6794 107.5L61.6906 107.5L61.6906 108L61.6906 108.5L63.6794 108.5L63.6794 108ZM59.7018 108L59.7018 107.5L57.713 107.5L57.713 108L57.713 108.5L59.7018 108.5L59.7018 108ZM55.7243 108L55.7243 107.5L53.7355 107.5L53.7355 108L53.7355 108.5L55.7243 108.5L55.7243 108ZM51.7467 108L51.7467 107.5L49.758 107.5L49.758 108L49.758 108.5L51.7467 108.5L51.7467 108ZM47.7692 108L47.7692 107.5L45.7804 107.5L45.7804 108L45.7804 108.5L47.7692 108.5L47.7692 108ZM43.7917 108L43.7917 107.5L41.8029 107.5L41.8029 108L41.8029 108.5L43.7917 108.5L43.7917 108ZM39.8141 108L39.8141 107.5L37.8253 107.5L37.8253 108L37.8253 108.5L39.8141 108.5L39.8141 108ZM35.8366 108L35.8366 107.5L33.8478 107.5L33.8478 108L33.8478 108.5L35.8366 108.5L35.8366 108ZM31.859 108L31.859 107.5L29.8703 107.5L29.8703 108L29.8703 108.5L31.859 108.5L31.859 108ZM27.8815 108L27.8815 107.5L25.8927 107.5L25.8927 108L25.8927 108.5L27.8815 108.5L27.8815 108ZM23.904 108L23.904 107.5L21.9152 107.5L21.9152 108L21.9152 108.5L23.904 108.5L23.904 108ZM19.9264 108L19.9264 107.5L17.9377 107.5L17.9377 108L17.9377 108.5L19.9264 108.5L19.9264 108ZM15.9489 108L15.9489 107.5L13.9601 107.5L13.9601 108L13.9601 108.5L15.9489 108.5L15.9489 108ZM11.9713 108L11.9713 107.5L9.98257 107.5L9.98257 108L9.98257 108.5L11.9713 108.5L11.9713 108ZM7.9938 108L7.9938 107.5L7 107.5L7 108L7 108.5L7.9938 108.5L7.9938 108Z" fill="white"/>
</g>
<g filter="url(#filter5_d_4547_2442)">
<path d="M363.667 338C363.667 336.527 362.473 335.333 361 335.333C359.527 335.333 358.333 336.527 358.333 338C358.333 339.473 359.527 340.667 361 340.667C362.473 340.667 363.667 339.473 363.667 338ZM9.66666 338C9.66666 336.527 8.47275 335.333 7 335.333C5.52725 335.333 4.33334 336.527 4.33334 338C4.33334 339.473 5.52725 340.667 7 340.667C8.47275 340.667 9.66666 339.473 9.66666 338ZM361 338L361 337.5L360.006 337.5L360.006 338L360.006 338.5L361 338.5L361 338ZM358.017 338L358.017 337.5L356.028 337.5L356.028 338L356.028 338.5L358.017 338.5L358.017 338ZM354.039 338L354.039 337.5L352.051 337.5L352.051 338L352.051 338.5L354.039 338.5L354.039 338ZM350.062 338L350.062 337.5L348.073 337.5L348.073 338L348.073 338.5L350.062 338.5L350.062 338ZM346.084 338L346.084 337.5L344.096 337.5L344.096 338L344.096 338.5L346.084 338.5L346.084 338ZM342.107 338L342.107 337.5L340.118 337.5L340.118 338L340.118 338.5L342.107 338.5L342.107 338ZM338.129 338L338.129 337.5L336.14 337.5L336.14 338L336.14 338.5L338.129 338.5L338.129 338ZM334.152 338L334.152 337.5L332.163 337.5L332.163 338L332.163 338.5L334.152 338.5L334.152 338ZM330.174 338L330.174 337.5L328.185 337.5L328.185 338L328.185 338.5L330.174 338.5L330.174 338ZM326.197 338L326.197 337.5L324.208 337.5L324.208 338L324.208 338.5L326.197 338.5L326.197 338ZM322.219 338L322.219 337.5L320.23 337.5L320.23 338L320.23 338.5L322.219 338.5L322.219 338ZM318.242 338L318.242 337.5L316.253 337.5L316.253 338L316.253 338.5L318.242 338.5L318.242 338ZM314.264 338L314.264 337.5L312.275 337.5L312.275 338L312.275 338.5L314.264 338.5L314.264 338ZM310.287 338L310.287 337.5L308.298 337.5L308.298 338L308.298 338.5L310.287 338.5L310.287 338ZM306.309 338L306.309 337.5L304.32 337.5L304.32 338L304.32 338.5L306.309 338.5L306.309 338ZM302.331 338L302.331 337.5L300.343 337.5L300.343 338L300.343 338.5L302.331 338.5L302.331 338ZM298.354 338L298.354 337.5L296.365 337.5L296.365 338L296.365 338.5L298.354 338.5L298.354 338ZM294.376 338L294.376 337.5L292.388 337.5L292.388 338L292.388 338.5L294.376 338.5L294.376 338ZM290.399 338L290.399 337.5L288.41 337.5L288.41 338L288.41 338.5L290.399 338.5L290.399 338ZM286.421 338L286.421 337.5L284.433 337.5L284.433 338L284.433 338.5L286.421 338.5L286.421 338ZM282.444 338L282.444 337.5L280.455 337.5L280.455 338L280.455 338.5L282.444 338.5L282.444 338ZM278.466 338L278.466 337.5L276.478 337.5L276.478 338L276.478 338.5L278.466 338.5L278.466 338ZM274.489 338L274.489 337.5L272.5 337.5L272.5 338L272.5 338.5L274.489 338.5L274.489 338ZM270.511 338L270.511 337.5L268.522 337.5L268.522 338L268.522 338.5L270.511 338.5L270.511 338ZM266.534 338L266.534 337.5L264.545 337.5L264.545 338L264.545 338.5L266.534 338.5L266.534 338ZM262.556 338L262.556 337.5L260.567 337.5L260.567 338L260.567 338.5L262.556 338.5L262.556 338ZM258.579 338L258.579 337.5L256.59 337.5L256.59 338L256.59 338.5L258.579 338.5L258.579 338ZM254.601 338L254.601 337.5L252.612 337.5L252.612 338L252.612 338.5L254.601 338.5L254.601 338ZM250.624 338L250.624 337.5L248.635 337.5L248.635 338L248.635 338.5L250.624 338.5L250.624 338ZM246.646 338L246.646 337.5L244.657 337.5L244.657 338L244.657 338.5L246.646 338.5L246.646 338ZM242.669 338L242.669 337.5L240.68 337.5L240.68 338L240.68 338.5L242.669 338.5L242.669 338ZM238.691 338L238.691 337.5L236.702 337.5L236.702 338L236.702 338.5L238.691 338.5L238.691 338ZM234.714 338L234.714 337.5L232.725 337.5L232.725 338L232.725 338.5L234.714 338.5L234.714 338ZM230.736 338L230.736 337.5L228.747 337.5L228.747 338L228.747 338.5L230.736 338.5L230.736 338ZM226.758 338L226.758 337.5L224.77 337.5L224.77 338L224.77 338.5L226.758 338.5L226.758 338ZM222.781 338L222.781 337.5L220.792 337.5L220.792 338L220.792 338.5L222.781 338.5L222.781 338ZM218.803 338L218.803 337.5L216.815 337.5L216.815 338L216.815 338.5L218.803 338.5L218.803 338ZM214.826 338L214.826 337.5L212.837 337.5L212.837 338L212.837 338.5L214.826 338.5L214.826 338ZM210.848 338L210.848 337.5L208.86 337.5L208.86 338L208.86 338.5L210.848 338.5L210.848 338ZM206.871 338L206.871 337.5L204.882 337.5L204.882 338L204.882 338.5L206.871 338.5L206.871 338ZM202.893 338L202.893 337.5L200.904 337.5L200.904 338L200.904 338.5L202.893 338.5L202.893 338ZM198.916 338L198.916 337.5L196.927 337.5L196.927 338L196.927 338.5L198.916 338.5L198.916 338ZM194.938 338L194.938 337.5L192.949 337.5L192.949 338L192.949 338.5L194.938 338.5L194.938 338ZM190.961 338L190.961 337.5L188.972 337.5L188.972 338L188.972 338.5L190.961 338.5L190.961 338ZM186.983 338L186.983 337.5L184.994 337.5L184.994 338L184.994 338.5L186.983 338.5L186.983 338ZM183.006 338L183.006 337.5L181.017 337.5L181.017 338L181.017 338.5L183.006 338.5L183.006 338ZM179.028 338L179.028 337.5L177.039 337.5L177.039 338L177.039 338.5L179.028 338.5L179.028 338ZM175.05 338L175.05 337.5L173.062 337.5L173.062 338L173.062 338.5L175.05 338.5L175.05 338ZM171.073 338L171.073 337.5L169.084 337.5L169.084 338L169.084 338.5L171.073 338.5L171.073 338ZM167.095 338L167.095 337.5L165.107 337.5L165.107 338L165.107 338.5L167.095 338.5L167.095 338ZM163.118 338L163.118 337.5L161.129 337.5L161.129 338L161.129 338.5L163.118 338.5L163.118 338ZM159.14 338L159.14 337.5L157.152 337.5L157.152 338L157.152 338.5L159.14 338.5L159.14 338ZM155.163 338L155.163 337.5L153.174 337.5L153.174 338L153.174 338.5L155.163 338.5L155.163 338ZM151.185 338L151.185 337.5L149.196 337.5L149.196 338L149.196 338.5L151.185 338.5L151.185 338ZM147.208 338L147.208 337.5L145.219 337.5L145.219 338L145.219 338.5L147.208 338.5L147.208 338ZM143.23 338L143.23 337.5L141.241 337.5L141.241 338L141.241 338.5L143.23 338.5L143.23 338ZM139.253 338L139.253 337.5L137.264 337.5L137.264 338L137.264 338.5L139.253 338.5L139.253 338ZM135.275 338L135.275 337.5L133.286 337.5L133.286 338L133.286 338.5L135.275 338.5L135.275 338ZM131.298 338L131.298 337.5L129.309 337.5L129.309 338L129.309 338.5L131.298 338.5L131.298 338ZM127.32 338L127.32 337.5L125.331 337.5L125.331 338L125.331 338.5L127.32 338.5L127.32 338ZM123.342 338L123.342 337.5L121.354 337.5L121.354 338L121.354 338.5L123.342 338.5L123.342 338ZM119.365 338L119.365 337.5L117.376 337.5L117.376 338L117.376 338.5L119.365 338.5L119.365 338ZM115.387 338L115.387 337.5L113.399 337.5L113.399 338L113.399 338.5L115.387 338.5L115.387 338ZM111.41 338L111.41 337.5L109.421 337.5L109.421 338L109.421 338.5L111.41 338.5L111.41 338ZM107.432 338L107.432 337.5L105.444 337.5L105.444 338L105.444 338.5L107.432 338.5L107.432 338ZM103.455 338L103.455 337.5L101.466 337.5L101.466 338L101.466 338.5L103.455 338.5L103.455 338ZM99.4772 338L99.4772 337.5L97.4884 337.5L97.4884 338L97.4884 338.5L99.4772 338.5L99.4772 338ZM95.4997 338L95.4997 337.5L93.5109 337.5L93.5109 338L93.5109 338.5L95.4997 338.5L95.4997 338ZM91.5221 338L91.5221 337.5L89.5334 337.5L89.5334 338L89.5334 338.5L91.5221 338.5L91.5221 338ZM87.5446 338L87.5446 337.5L85.5558 337.5L85.5558 338L85.5558 338.5L87.5446 338.5L87.5446 338ZM83.567 338L83.567 337.5L81.5783 337.5L81.5783 338L81.5783 338.5L83.567 338.5L83.567 338ZM79.5895 338L79.5895 337.5L77.6007 337.5L77.6007 338L77.6007 338.5L79.5895 338.5L79.5895 338ZM75.612 338L75.612 337.5L73.6232 337.5L73.6232 338L73.6232 338.5L75.612 338.5L75.612 338ZM71.6344 338L71.6344 337.5L69.6457 337.5L69.6457 338L69.6457 338.5L71.6344 338.5L71.6344 338ZM67.6569 338L67.6569 337.5L65.6681 337.5L65.6681 338L65.6681 338.5L67.6569 338.5L67.6569 338ZM63.6794 338L63.6794 337.5L61.6906 337.5L61.6906 338L61.6906 338.5L63.6794 338.5L63.6794 338ZM59.7018 338L59.7018 337.5L57.713 337.5L57.713 338L57.713 338.5L59.7018 338.5L59.7018 338ZM55.7243 338L55.7243 337.5L53.7355 337.5L53.7355 338L53.7355 338.5L55.7243 338.5L55.7243 338ZM51.7467 338L51.7467 337.5L49.758 337.5L49.758 338L49.758 338.5L51.7467 338.5L51.7467 338ZM47.7692 338L47.7692 337.5L45.7804 337.5L45.7804 338L45.7804 338.5L47.7692 338.5L47.7692 338ZM43.7917 338L43.7917 337.5L41.8029 337.5L41.8029 338L41.8029 338.5L43.7917 338.5L43.7917 338ZM39.8141 338L39.8141 337.5L37.8253 337.5L37.8253 338L37.8253 338.5L39.8141 338.5L39.8141 338ZM35.8366 338L35.8366 337.5L33.8478 337.5L33.8478 338L33.8478 338.5L35.8366 338.5L35.8366 338ZM31.859 338L31.859 337.5L29.8703 337.5L29.8703 338L29.8703 338.5L31.859 338.5L31.859 338ZM27.8815 338L27.8815 337.5L25.8927 337.5L25.8927 338L25.8927 338.5L27.8815 338.5L27.8815 338ZM23.904 338L23.904 337.5L21.9152 337.5L21.9152 338L21.9152 338.5L23.904 338.5L23.904 338ZM19.9264 338L19.9264 337.5L17.9377 337.5L17.9377 338L17.9377 338.5L19.9264 338.5L19.9264 338ZM15.9489 338L15.9489 337.5L13.9601 337.5L13.9601 338L13.9601 338.5L15.9489 338.5L15.9489 338ZM11.9713 338L11.9713 337.5L9.98257 337.5L9.98257 338L9.98257 338.5L11.9713 338.5L11.9713 338ZM7.9938 338L7.9938 337.5L7 337.5L7 338L7 338.5L7.9938 338.5L7.9938 338Z" fill="white"/>
</g>
<g filter="url(#filter6_d_4547_2442)">
<path d="M266 359.667C267.473 359.667 268.667 358.473 268.667 357C268.667 355.527 267.473 354.333 266 354.333C264.527 354.333 263.333 355.527 263.333 357C263.333 358.473 264.527 359.667 266 359.667ZM266 5.66666C267.473 5.66666 268.667 4.47275 268.667 3C268.667 1.52725 267.473 0.333343 266 0.333344C264.527 0.333344 263.333 1.52725 263.333 3C263.333 4.47275 264.527 5.66666 266 5.66666ZM266 357L266.5 357L266.5 356.006L266 356.006L265.5 356.006L265.5 357L266 357ZM266 354.017L266.5 354.017L266.5 352.028L266 352.028L265.5 352.028L265.5 354.017L266 354.017ZM266 350.039L266.5 350.039L266.5 348.051L266 348.051L265.5 348.051L265.5 350.039L266 350.039ZM266 346.062L266.5 346.062L266.5 344.073L266 344.073L265.5 344.073L265.5 346.062L266 346.062ZM266 342.084L266.5 342.084L266.5 340.096L266 340.096L265.5 340.096L265.5 342.084L266 342.084ZM266 338.107L266.5 338.107L266.5 336.118L266 336.118L265.5 336.118L265.5 338.107L266 338.107ZM266 334.129L266.5 334.129L266.5 332.14L266 332.14L265.5 332.14L265.5 334.129L266 334.129ZM266 330.152L266.5 330.152L266.5 328.163L266 328.163L265.5 328.163L265.5 330.152L266 330.152ZM266 326.174L266.5 326.174L266.5 324.185L266 324.185L265.5 324.185L265.5 326.174L266 326.174ZM266 322.197L266.5 322.197L266.5 320.208L266 320.208L265.5 320.208L265.5 322.197L266 322.197ZM266 318.219L266.5 318.219L266.5 316.23L266 316.23L265.5 316.23L265.5 318.219L266 318.219ZM266 314.242L266.5 314.242L266.5 312.253L266 312.253L265.5 312.253L265.5 314.242L266 314.242ZM266 310.264L266.5 310.264L266.5 308.275L266 308.275L265.5 308.275L265.5 310.264L266 310.264ZM266 306.287L266.5 306.287L266.5 304.298L266 304.298L265.5 304.298L265.5 306.287L266 306.287ZM266 302.309L266.5 302.309L266.5 300.32L266 300.32L265.5 300.32L265.5 302.309L266 302.309ZM266 298.331L266.5 298.331L266.5 296.343L266 296.343L265.5 296.343L265.5 298.331L266 298.331ZM266 294.354L266.5 294.354L266.5 292.365L266 292.365L265.5 292.365L265.5 294.354L266 294.354ZM266 290.376L266.5 290.376L266.5 288.388L266 288.388L265.5 288.388L265.5 290.376L266 290.376ZM266 286.399L266.5 286.399L266.5 284.41L266 284.41L265.5 284.41L265.5 286.399L266 286.399ZM266 282.421L266.5 282.421L266.5 280.433L266 280.433L265.5 280.433L265.5 282.421L266 282.421ZM266 278.444L266.5 278.444L266.5 276.455L266 276.455L265.5 276.455L265.5 278.444L266 278.444ZM266 274.466L266.5 274.466L266.5 272.478L266 272.478L265.5 272.478L265.5 274.466L266 274.466ZM266 270.489L266.5 270.489L266.5 268.5L266 268.5L265.5 268.5L265.5 270.489L266 270.489ZM266 266.511L266.5 266.511L266.5 264.522L266 264.522L265.5 264.522L265.5 266.511L266 266.511ZM266 262.534L266.5 262.534L266.5 260.545L266 260.545L265.5 260.545L265.5 262.534L266 262.534ZM266 258.556L266.5 258.556L266.5 256.567L266 256.567L265.5 256.567L265.5 258.556L266 258.556ZM266 254.579L266.5 254.579L266.5 252.59L266 252.59L265.5 252.59L265.5 254.579L266 254.579ZM266 250.601L266.5 250.601L266.5 248.612L266 248.612L265.5 248.612L265.5 250.601L266 250.601ZM266 246.624L266.5 246.624L266.5 244.635L266 244.635L265.5 244.635L265.5 246.624L266 246.624ZM266 242.646L266.5 242.646L266.5 240.657L266 240.657L265.5 240.657L265.5 242.646L266 242.646ZM266 238.669L266.5 238.669L266.5 236.68L266 236.68L265.5 236.68L265.5 238.669L266 238.669ZM266 234.691L266.5 234.691L266.5 232.702L266 232.702L265.5 232.702L265.5 234.691L266 234.691ZM266 230.714L266.5 230.714L266.5 228.725L266 228.725L265.5 228.725L265.5 230.714L266 230.714ZM266 226.736L266.5 226.736L266.5 224.747L266 224.747L265.5 224.747L265.5 226.736L266 226.736ZM266 222.758L266.5 222.758L266.5 220.77L266 220.77L265.5 220.77L265.5 222.758L266 222.758ZM266 218.781L266.5 218.781L266.5 216.792L266 216.792L265.5 216.792L265.5 218.781L266 218.781ZM266 214.803L266.5 214.803L266.5 212.815L266 212.815L265.5 212.815L265.5 214.803L266 214.803ZM266 210.826L266.5 210.826L266.5 208.837L266 208.837L265.5 208.837L265.5 210.826L266 210.826ZM266 206.848L266.5 206.848L266.5 204.86L266 204.86L265.5 204.86L265.5 206.848L266 206.848ZM266 202.871L266.5 202.871L266.5 200.882L266 200.882L265.5 200.882L265.5 202.871L266 202.871ZM266 198.893L266.5 198.893L266.5 196.904L266 196.904L265.5 196.904L265.5 198.893L266 198.893ZM266 194.916L266.5 194.916L266.5 192.927L266 192.927L265.5 192.927L265.5 194.916L266 194.916ZM266 190.938L266.5 190.938L266.5 188.949L266 188.949L265.5 188.949L265.5 190.938L266 190.938ZM266 186.961L266.5 186.961L266.5 184.972L266 184.972L265.5 184.972L265.5 186.961L266 186.961ZM266 182.983L266.5 182.983L266.5 180.994L266 180.994L265.5 180.994L265.5 182.983L266 182.983ZM266 179.006L266.5 179.006L266.5 177.017L266 177.017L265.5 177.017L265.5 179.006L266 179.006ZM266 175.028L266.5 175.028L266.5 173.039L266 173.039L265.5 173.039L265.5 175.028L266 175.028ZM266 171.05L266.5 171.05L266.5 169.062L266 169.062L265.5 169.062L265.5 171.05L266 171.05ZM266 167.073L266.5 167.073L266.5 165.084L266 165.084L265.5 165.084L265.5 167.073L266 167.073ZM266 163.095L266.5 163.095L266.5 161.107L266 161.107L265.5 161.107L265.5 163.095L266 163.095ZM266 159.118L266.5 159.118L266.5 157.129L266 157.129L265.5 157.129L265.5 159.118L266 159.118ZM266 155.14L266.5 155.14L266.5 153.152L266 153.152L265.5 153.152L265.5 155.14L266 155.14ZM266 151.163L266.5 151.163L266.5 149.174L266 149.174L265.5 149.174L265.5 151.163L266 151.163ZM266 147.185L266.5 147.185L266.5 145.196L266 145.196L265.5 145.196L265.5 147.185L266 147.185ZM266 143.208L266.5 143.208L266.5 141.219L266 141.219L265.5 141.219L265.5 143.208L266 143.208ZM266 139.23L266.5 139.23L266.5 137.241L266 137.241L265.5 137.241L265.5 139.23L266 139.23ZM266 135.253L266.5 135.253L266.5 133.264L266 133.264L265.5 133.264L265.5 135.253L266 135.253ZM266 131.275L266.5 131.275L266.5 129.286L266 129.286L265.5 129.286L265.5 131.275L266 131.275ZM266 127.298L266.5 127.298L266.5 125.309L266 125.309L265.5 125.309L265.5 127.298L266 127.298ZM266 123.32L266.5 123.32L266.5 121.331L266 121.331L265.5 121.331L265.5 123.32L266 123.32ZM266 119.342L266.5 119.342L266.5 117.354L266 117.354L265.5 117.354L265.5 119.342L266 119.342ZM266 115.365L266.5 115.365L266.5 113.376L266 113.376L265.5 113.376L265.5 115.365L266 115.365ZM266 111.387L266.5 111.387L266.5 109.399L266 109.399L265.5 109.399L265.5 111.387L266 111.387ZM266 107.41L266.5 107.41L266.5 105.421L266 105.421L265.5 105.421L265.5 107.41L266 107.41ZM266 103.432L266.5 103.432L266.5 101.444L266 101.444L265.5 101.444L265.5 103.432L266 103.432ZM266 99.4547L266.5 99.4547L266.5 97.466L266 97.466L265.5 97.466L265.5 99.4547L266 99.4547ZM266 95.4772L266.5 95.4772L266.5 93.4884L266 93.4884L265.5 93.4884L265.5 95.4772L266 95.4772ZM266 91.4997L266.5 91.4997L266.5 89.5109L266 89.5109L265.5 89.5109L265.5 91.4997L266 91.4997ZM266 87.5221L266.5 87.5221L266.5 85.5334L266 85.5334L265.5 85.5334L265.5 87.5221L266 87.5221ZM266 83.5446L266.5 83.5446L266.5 81.5558L266 81.5558L265.5 81.5558L265.5 83.5446L266 83.5446ZM266 79.567L266.5 79.567L266.5 77.5783L266 77.5783L265.5 77.5783L265.5 79.567L266 79.567ZM266 75.5895L266.5 75.5895L266.5 73.6007L266 73.6007L265.5 73.6007L265.5 75.5895L266 75.5895ZM266 71.612L266.5 71.612L266.5 69.6232L266 69.6232L265.5 69.6232L265.5 71.612L266 71.612ZM266 67.6344L266.5 67.6344L266.5 65.6457L266 65.6457L265.5 65.6457L265.5 67.6344L266 67.6344ZM266 63.6569L266.5 63.6569L266.5 61.6681L266 61.6681L265.5 61.6681L265.5 63.6569L266 63.6569ZM266 59.6794L266.5 59.6794L266.5 57.6906L266 57.6906L265.5 57.6906L265.5 59.6794L266 59.6794ZM266 55.7018L266.5 55.7018L266.5 53.713L266 53.713L265.5 53.713L265.5 55.7018L266 55.7018ZM266 51.7243L266.5 51.7243L266.5 49.7355L266 49.7355L265.5 49.7355L265.5 51.7243L266 51.7243ZM266 47.7467L266.5 47.7467L266.5 45.758L266 45.758L265.5 45.758L265.5 47.7467L266 47.7467ZM266 43.7692L266.5 43.7692L266.5 41.7804L266 41.7804L265.5 41.7804L265.5 43.7692L266 43.7692ZM266 39.7917L266.5 39.7917L266.5 37.8029L266 37.8029L265.5 37.8029L265.5 39.7917L266 39.7917ZM266 35.8141L266.5 35.8141L266.5 33.8253L266 33.8253L265.5 33.8253L265.5 35.8141L266 35.8141ZM266 31.8366L266.5 31.8366L266.5 29.8478L266 29.8478L265.5 29.8478L265.5 31.8366L266 31.8366ZM266 27.859L266.5 27.859L266.5 25.8703L266 25.8703L265.5 25.8703L265.5 27.859L266 27.859ZM266 23.8815L266.5 23.8815L266.5 21.8927L266 21.8927L265.5 21.8927L265.5 23.8815L266 23.8815ZM266 19.904L266.5 19.904L266.5 17.9152L266 17.9152L265.5 17.9152L265.5 19.904L266 19.904ZM266 15.9264L266.5 15.9264L266.5 13.9377L266 13.9377L265.5 13.9377L265.5 15.9264L266 15.9264ZM266 11.9489L266.5 11.9489L266.5 9.96011L266 9.96011L265.5 9.96011L265.5 11.9489L266 11.9489ZM266 7.97134L266.5 7.97134L266.5 5.98257L266 5.98257L265.5 5.98257L265.5 7.97134L266 7.97134ZM266 3.9938L266.5 3.9938L266.5 3L266 3L265.5 3L265.5 3.9938L266 3.9938Z" fill="white"/>
</g>
<g filter="url(#filter7_d_4547_2442)">
<path d="M26 359.667C27.4728 359.667 28.6667 358.473 28.6667 357C28.6667 355.527 27.4728 354.333 26 354.333C24.5272 354.333 23.3333 355.527 23.3333 357C23.3333 358.473 24.5272 359.667 26 359.667ZM26 5.66666C27.4727 5.66666 28.6666 4.47275 28.6666 3C28.6666 1.52725 27.4727 0.333343 26 0.333344C24.5272 0.333344 23.3333 1.52725 23.3333 3C23.3333 4.47275 24.5272 5.66666 26 5.66666ZM26 357L26.5 357L26.5 356.006L26 356.006L25.5 356.006L25.5 357L26 357ZM26 354.017L26.5 354.017L26.5 352.028L26 352.028L25.5 352.028L25.5 354.017L26 354.017ZM26 350.039L26.5 350.039L26.5 348.051L26 348.051L25.5 348.051L25.5 350.039L26 350.039ZM26 346.062L26.5 346.062L26.5 344.073L26 344.073L25.5 344.073L25.5 346.062L26 346.062ZM26 342.084L26.5 342.084L26.5 340.096L26 340.096L25.5 340.096L25.5 342.084L26 342.084ZM26 338.107L26.5 338.107L26.5 336.118L26 336.118L25.5 336.118L25.5 338.107L26 338.107ZM26 334.129L26.5 334.129L26.5 332.14L26 332.14L25.5 332.14L25.5 334.129L26 334.129ZM26 330.152L26.5 330.152L26.5 328.163L26 328.163L25.5 328.163L25.5 330.152L26 330.152ZM26 326.174L26.5 326.174L26.5 324.185L26 324.185L25.5 324.185L25.5 326.174L26 326.174ZM26 322.197L26.5 322.197L26.5 320.208L26 320.208L25.5 320.208L25.5 322.197L26 322.197ZM26 318.219L26.5 318.219L26.5 316.23L26 316.23L25.5 316.23L25.5 318.219L26 318.219ZM26 314.242L26.5 314.242L26.5 312.253L26 312.253L25.5 312.253L25.5 314.242L26 314.242ZM26 310.264L26.5 310.264L26.5 308.275L26 308.275L25.5 308.275L25.5 310.264L26 310.264ZM26 306.287L26.5 306.287L26.5 304.298L26 304.298L25.5 304.298L25.5 306.287L26 306.287ZM26 302.309L26.5 302.309L26.5 300.32L26 300.32L25.5 300.32L25.5 302.309L26 302.309ZM26 298.331L26.5 298.331L26.5 296.343L26 296.343L25.5 296.343L25.5 298.331L26 298.331ZM26 294.354L26.5 294.354L26.5 292.365L26 292.365L25.5 292.365L25.5 294.354L26 294.354ZM26 290.376L26.5 290.376L26.5 288.388L26 288.388L25.5 288.388L25.5 290.376L26 290.376ZM26 286.399L26.5 286.399L26.5 284.41L26 284.41L25.5 284.41L25.5 286.399L26 286.399ZM26 282.421L26.5 282.421L26.5 280.433L26 280.433L25.5 280.433L25.5 282.421L26 282.421ZM26 278.444L26.5 278.444L26.5 276.455L26 276.455L25.5 276.455L25.5 278.444L26 278.444ZM26 274.466L26.5 274.466L26.5 272.478L26 272.478L25.5 272.478L25.5 274.466L26 274.466ZM26 270.489L26.5 270.489L26.5 268.5L26 268.5L25.5 268.5L25.5 270.489L26 270.489ZM26 266.511L26.5 266.511L26.5 264.522L26 264.522L25.5 264.522L25.5 266.511L26 266.511ZM26 262.534L26.5 262.534L26.5 260.545L26 260.545L25.5 260.545L25.5 262.534L26 262.534ZM26 258.556L26.5 258.556L26.5 256.567L26 256.567L25.5 256.567L25.5 258.556L26 258.556ZM26 254.579L26.5 254.579L26.5 252.59L26 252.59L25.5 252.59L25.5 254.579L26 254.579ZM26 250.601L26.5 250.601L26.5 248.612L26 248.612L25.5 248.612L25.5 250.601L26 250.601ZM26 246.624L26.5 246.624L26.5 244.635L26 244.635L25.5 244.635L25.5 246.624L26 246.624ZM26 242.646L26.5 242.646L26.5 240.657L26 240.657L25.5 240.657L25.5 242.646L26 242.646ZM26 238.669L26.5 238.669L26.5 236.68L26 236.68L25.5 236.68L25.5 238.669L26 238.669ZM26 234.691L26.5 234.691L26.5 232.702L26 232.702L25.5 232.702L25.5 234.691L26 234.691ZM26 230.714L26.5 230.714L26.5 228.725L26 228.725L25.5 228.725L25.5 230.714L26 230.714ZM26 226.736L26.5 226.736L26.5 224.747L26 224.747L25.5 224.747L25.5 226.736L26 226.736ZM26 222.758L26.5 222.758L26.5 220.77L26 220.77L25.5 220.77L25.5 222.758L26 222.758ZM26 218.781L26.5 218.781L26.5 216.792L26 216.792L25.5 216.792L25.5 218.781L26 218.781ZM26 214.803L26.5 214.803L26.5 212.815L26 212.815L25.5 212.815L25.5 214.803L26 214.803ZM26 210.826L26.5 210.826L26.5 208.837L26 208.837L25.5 208.837L25.5 210.826L26 210.826ZM26 206.848L26.5 206.848L26.5 204.86L26 204.86L25.5 204.86L25.5 206.848L26 206.848ZM26 202.871L26.5 202.871L26.5 200.882L26 200.882L25.5 200.882L25.5 202.871L26 202.871ZM26 198.893L26.5 198.893L26.5 196.904L26 196.904L25.5 196.904L25.5 198.893L26 198.893ZM26 194.916L26.5 194.916L26.5 192.927L26 192.927L25.5 192.927L25.5 194.916L26 194.916ZM26 190.938L26.5 190.938L26.5 188.949L26 188.949L25.5 188.949L25.5 190.938L26 190.938ZM26 186.961L26.5 186.961L26.5 184.972L26 184.972L25.5 184.972L25.5 186.961L26 186.961ZM26 182.983L26.5 182.983L26.5 180.994L26 180.994L25.5 180.994L25.5 182.983L26 182.983ZM26 179.006L26.5 179.006L26.5 177.017L26 177.017L25.5 177.017L25.5 179.006L26 179.006ZM26 175.028L26.5 175.028L26.5 173.039L26 173.039L25.5 173.039L25.5 175.028L26 175.028ZM26 171.05L26.5 171.05L26.5 169.062L26 169.062L25.5 169.062L25.5 171.05L26 171.05ZM26 167.073L26.5 167.073L26.5 165.084L26 165.084L25.5 165.084L25.5 167.073L26 167.073ZM26 163.095L26.5 163.095L26.5 161.107L26 161.107L25.5 161.107L25.5 163.095L26 163.095ZM26 159.118L26.5 159.118L26.5 157.129L26 157.129L25.5 157.129L25.5 159.118L26 159.118ZM26 155.14L26.5 155.14L26.5 153.152L26 153.152L25.5 153.152L25.5 155.14L26 155.14ZM26 151.163L26.5 151.163L26.5 149.174L26 149.174L25.5 149.174L25.5 151.163L26 151.163ZM26 147.185L26.5 147.185L26.5 145.196L26 145.196L25.5 145.196L25.5 147.185L26 147.185ZM26 143.208L26.5 143.208L26.5 141.219L26 141.219L25.5 141.219L25.5 143.208L26 143.208ZM26 139.23L26.5 139.23L26.5 137.241L26 137.241L25.5 137.241L25.5 139.23L26 139.23ZM26 135.253L26.5 135.253L26.5 133.264L26 133.264L25.5 133.264L25.5 135.253L26 135.253ZM26 131.275L26.5 131.275L26.5 129.286L26 129.286L25.5 129.286L25.5 131.275L26 131.275ZM26 127.298L26.5 127.298L26.5 125.309L26 125.309L25.5 125.309L25.5 127.298L26 127.298ZM26 123.32L26.5 123.32L26.5 121.331L26 121.331L25.5 121.331L25.5 123.32L26 123.32ZM26 119.342L26.5 119.342L26.5 117.354L26 117.354L25.5 117.354L25.5 119.342L26 119.342ZM26 115.365L26.5 115.365L26.5 113.376L26 113.376L25.5 113.376L25.5 115.365L26 115.365ZM26 111.387L26.5 111.387L26.5 109.399L26 109.399L25.5 109.399L25.5 111.387L26 111.387ZM26 107.41L26.5 107.41L26.5 105.421L26 105.421L25.5 105.421L25.5 107.41L26 107.41ZM26 103.432L26.5 103.432L26.5 101.444L26 101.444L25.5 101.444L25.5 103.432L26 103.432ZM26 99.4547L26.5 99.4547L26.5 97.466L26 97.466L25.5 97.466L25.5 99.4547L26 99.4547ZM26 95.4772L26.5 95.4772L26.5 93.4884L26 93.4884L25.5 93.4884L25.5 95.4772L26 95.4772ZM26 91.4997L26.5 91.4997L26.5 89.5109L26 89.5109L25.5 89.5109L25.5 91.4997L26 91.4997ZM26 87.5221L26.5 87.5221L26.5 85.5334L26 85.5334L25.5 85.5334L25.5 87.5221L26 87.5221ZM26 83.5446L26.5 83.5446L26.5 81.5558L26 81.5558L25.5 81.5558L25.5 83.5446L26 83.5446ZM26 79.567L26.5 79.567L26.5 77.5783L26 77.5783L25.5 77.5783L25.5 79.567L26 79.567ZM26 75.5895L26.5 75.5895L26.5 73.6007L26 73.6007L25.5 73.6007L25.5 75.5895L26 75.5895ZM26 71.612L26.5 71.612L26.5 69.6232L26 69.6232L25.5 69.6232L25.5 71.612L26 71.612ZM26 67.6344L26.5 67.6344L26.5 65.6457L26 65.6457L25.5 65.6457L25.5 67.6344L26 67.6344ZM26 63.6569L26.5 63.6569L26.5 61.6681L26 61.6681L25.5 61.6681L25.5 63.6569L26 63.6569ZM26 59.6794L26.5 59.6794L26.5 57.6906L26 57.6906L25.5 57.6906L25.5 59.6794L26 59.6794ZM26 55.7018L26.5 55.7018L26.5 53.713L26 53.713L25.5 53.713L25.5 55.7018L26 55.7018ZM26 51.7243L26.5 51.7243L26.5 49.7355L26 49.7355L25.5 49.7355L25.5 51.7243L26 51.7243ZM26 47.7467L26.5 47.7467L26.5 45.758L26 45.758L25.5 45.758L25.5 47.7467L26 47.7467ZM26 43.7692L26.5 43.7692L26.5 41.7804L26 41.7804L25.5 41.7804L25.5 43.7692L26 43.7692ZM26 39.7917L26.5 39.7917L26.5 37.8029L26 37.8029L25.5 37.8029L25.5 39.7917L26 39.7917ZM26 35.8141L26.5 35.8141L26.5 33.8253L26 33.8253L25.5 33.8253L25.5 35.8141L26 35.8141ZM26 31.8366L26.5 31.8366L26.5 29.8478L26 29.8478L25.5 29.8478L25.5 31.8366L26 31.8366ZM26 27.859L26.5 27.859L26.5 25.8703L26 25.8703L25.5 25.8703L25.5 27.859L26 27.859ZM26 23.8815L26.5 23.8815L26.5 21.8927L26 21.8927L25.5 21.8927L25.5 23.8815L26 23.8815ZM26 19.904L26.5 19.904L26.5 17.9152L26 17.9152L25.5 17.9152L25.5 19.904L26 19.904ZM26 15.9264L26.5 15.9264L26.5 13.9377L26 13.9377L25.5 13.9377L25.5 15.9264L26 15.9264ZM26 11.9489L26.5 11.9489L26.5 9.96011L26 9.96011L25.5 9.96011L25.5 11.9489L26 11.9489ZM26 7.97134L26.5 7.97134L26.5 5.98257L26 5.98257L25.5 5.98257L25.5 7.97134L26 7.97134ZM26 3.9938L26.5 3.9938L26.5 3L26 3L25.5 3L25.5 3.9938L26 3.9938Z" fill="white"/>
</g>
<path d="M300.88 362L303.7 358.532V359.216L301.036 355.94H302.812L304.552 358.184H304.012L305.752 355.94H307.516L304.876 359.216V358.532L307.684 362H305.896L304.012 359.588H304.552L302.656 362H300.88Z" fill="white"/>
<path d="M360.88 300L363.7 296.532V297.216L361.036 293.94H362.812L364.552 296.184H364.012L365.752 293.94H367.516L364.876 297.216V296.532L367.684 300H365.896L364.012 297.588H364.552L362.656 300H360.88Z" fill="white"/>
<path d="M300.88 16L303.7 12.532V13.216L301.036 9.94H302.812L304.552 12.184H304.012L305.752 9.94H307.516L304.876 13.216V12.532L307.684 16H305.896L304.012 13.588H304.552L302.656 16H300.88Z" fill="white"/>
<path d="M364.88 75L367.7 71.532V72.216L365.036 68.94H366.812L368.552 71.184H368.012L369.752 68.94H371.516L368.876 72.216V71.532L371.684 75H369.896L368.012 72.588H368.552L366.656 75H364.88Z" fill="white"/>
<path d="M60.88 359L63.7 355.532V356.216L61.036 352.94H62.812L64.552 355.184H64.012L65.752 352.94H67.516L64.876 356.216V355.532L67.684 359H65.896L64.012 356.588H64.552L62.656 359H60.88Z" fill="white"/>
<path d="M3.88 299L6.7 295.532V296.216L4.036 292.94H5.812L7.552 295.184H7.012L8.752 292.94H10.516L7.876 296.216V295.532L10.684 299H8.896L7.012 296.588H7.552L5.656 299H3.88Z" fill="white"/>
<path d="M3.88 72L6.7 68.532V69.216L4.036 65.94H5.812L7.552 68.184H7.012L8.752 65.94H10.516L7.876 69.216V68.532L10.684 72H8.896L7.012 69.588H7.552L5.656 72H3.88Z" fill="white"/>
<path d="M60.88 13L63.7 9.532V10.216L61.036 6.94H62.812L64.552 9.184H64.012L65.752 6.94H67.516L64.876 10.216V9.532L67.684 13H65.896L64.012 10.588H64.552L62.656 13H60.88Z" fill="white"/>
<defs>
<filter id="filter0_d_4547_2442" x="0.333008" y="28.3333" width="367.334" height="13.3335" filterUnits="userSpaceOnUse" color-interpolation-filters="sRGB">
<feFlood flood-opacity="0" result="BackgroundImageFix"/>
<feColorMatrix in="SourceAlpha" type="matrix" values="0 0 0 0 0 0 0 0 0 0 0 0 0 0 0 0 0 0 127 0" result="hardAlpha"/>
<feOffset dy="4"/>
<feGaussianBlur stdDeviation="2"/>
<feComposite in2="hardAlpha" operator="out"/>
<feColorMatrix type="matrix" values="0 0 0 0 0 0 0 0 0 0 0 0 0 0 0 0 0 0 0.25 0"/>
<feBlend mode="normal" in2="BackgroundImageFix" result="effect1_dropShadow_4547_2442"/>
<feBlend mode="normal" in="SourceGraphic" in2="effect1_dropShadow_4547_2442" result="shape"/>
</filter>
<filter id="filter1_d_4547_2442" x="0.333008" y="258.333" width="367.334" height="13.3335" filterUnits="userSpaceOnUse" color-interpolation-filters="sRGB">
<feFlood flood-opacity="0" result="BackgroundImageFix"/>
<feColorMatrix in="SourceAlpha" type="matrix" values="0 0 0 0 0 0 0 0 0 0 0 0 0 0 0 0 0 0 127 0" result="hardAlpha"/>
<feOffset dy="4"/>
<feGaussianBlur stdDeviation="2"/>
<feComposite in2="hardAlpha" operator="out"/>
<feColorMatrix type="matrix" values="0 0 0 0 0 0 0 0 0 0 0 0 0 0 0 0 0 0 0.25 0"/>
<feBlend mode="normal" in2="BackgroundImageFix" result="effect1_dropShadow_4547_2442"/>
<feBlend mode="normal" in="SourceGraphic" in2="effect1_dropShadow_4547_2442" result="shape"/>
</filter>
<filter id="filter2_d_4547_2442" x="336.333" y="0.333252" width="13.334" height="367.333" filterUnits="userSpaceOnUse" color-interpolation-filters="sRGB">
<feFlood flood-opacity="0" result="BackgroundImageFix"/>
<feColorMatrix in="SourceAlpha" type="matrix" values="0 0 0 0 0 0 0 0 0 0 0 0 0 0 0 0 0 0 127 0" result="hardAlpha"/>
<feOffset dy="4"/>
<feGaussianBlur stdDeviation="2"/>
<feComposite in2="hardAlpha" operator="out"/>
<feColorMatrix type="matrix" values="0 0 0 0 0 0 0 0 0 0 0 0 0 0 0 0 0 0 0.25 0"/>
<feBlend mode="normal" in2="BackgroundImageFix" result="effect1_dropShadow_4547_2442"/>
<feBlend mode="normal" in="SourceGraphic" in2="effect1_dropShadow_4547_2442" result="shape"/>
</filter>
<filter id="filter3_d_4547_2442" x="96.333" y="0.333252" width="13.334" height="367.333" filterUnits="userSpaceOnUse" color-interpolation-filters="sRGB">
<feFlood flood-opacity="0" result="BackgroundImageFix"/>
<feColorMatrix in="SourceAlpha" type="matrix" values="0 0 0 0 0 0 0 0 0 0 0 0 0 0 0 0 0 0 127 0" result="hardAlpha"/>
<feOffset dy="4"/>
<feGaussianBlur stdDeviation="2"/>
<feComposite in2="hardAlpha" operator="out"/>
<feColorMatrix type="matrix" values="0 0 0 0 0 0 0 0 0 0 0 0 0 0 0 0 0 0 0.25 0"/>
<feBlend mode="normal" in2="BackgroundImageFix" result="effect1_dropShadow_4547_2442"/>
<feBlend mode="normal" in="SourceGraphic" in2="effect1_dropShadow_4547_2442" result="shape"/>
</filter>
<filter id="filter4_d_4547_2442" x="0.333008" y="105.333" width="367.334" height="13.3335" filterUnits="userSpaceOnUse" color-interpolation-filters="sRGB">
<feFlood flood-opacity="0" result="BackgroundImageFix"/>
<feColorMatrix in="SourceAlpha" type="matrix" values="0 0 0 0 0 0 0 0 0 0 0 0 0 0 0 0 0 0 127 0" result="hardAlpha"/>
<feOffset dy="4"/>
<feGaussianBlur stdDeviation="2"/>
<feComposite in2="hardAlpha" operator="out"/>
<feColorMatrix type="matrix" values="0 0 0 0 0 0 0 0 0 0 0 0 0 0 0 0 0 0 0.25 0"/>
<feBlend mode="normal" in2="BackgroundImageFix" result="effect1_dropShadow_4547_2442"/>
<feBlend mode="normal" in="SourceGraphic" in2="effect1_dropShadow_4547_2442" result="shape"/>
</filter>
<filter id="filter5_d_4547_2442" x="0.333008" y="335.333" width="367.334" height="13.333" filterUnits="userSpaceOnUse" color-interpolation-filters="sRGB">
<feFlood flood-opacity="0" result="BackgroundImageFix"/>
<feColorMatrix in="SourceAlpha" type="matrix" values="0 0 0 0 0 0 0 0 0 0 0 0 0 0 0 0 0 0 127 0" result="hardAlpha"/>
<feOffset dy="4"/>
<feGaussianBlur stdDeviation="2"/>
<feComposite in2="hardAlpha" operator="out"/>
<feColorMatrix type="matrix" values="0 0 0 0 0 0 0 0 0 0 0 0 0 0 0 0 0 0 0.25 0"/>
<feBlend mode="normal" in2="BackgroundImageFix" result="effect1_dropShadow_4547_2442"/>
<feBlend mode="normal" in="SourceGraphic" in2="effect1_dropShadow_4547_2442" result="shape"/>
</filter>
<filter id="filter6_d_4547_2442" x="259.333" y="0.333252" width="13.334" height="367.333" filterUnits="userSpaceOnUse" color-interpolation-filters="sRGB">
<feFlood flood-opacity="0" result="BackgroundImageFix"/>
<feColorMatrix in="SourceAlpha" type="matrix" values="0 0 0 0 0 0 0 0 0 0 0 0 0 0 0 0 0 0 127 0" result="hardAlpha"/>
<feOffset dy="4"/>
<feGaussianBlur stdDeviation="2"/>
<feComposite in2="hardAlpha" operator="out"/>
<feColorMatrix type="matrix" values="0 0 0 0 0 0 0 0 0 0 0 0 0 0 0 0 0 0 0.25 0"/>
<feBlend mode="normal" in2="BackgroundImageFix" result="effect1_dropShadow_4547_2442"/>
<feBlend mode="normal" in="SourceGraphic" in2="effect1_dropShadow_4547_2442" result="shape"/>
</filter>
<filter id="filter7_d_4547_2442" x="19.333" y="0.333252" width="13.334" height="367.333" filterUnits="userSpaceOnUse" color-interpolation-filters="sRGB">
<feFlood flood-opacity="0" result="BackgroundImageFix"/>
<feColorMatrix in="SourceAlpha" type="matrix" values="0 0 0 0 0 0 0 0 0 0 0 0 0 0 0 0 0 0 127 0" result="hardAlpha"/>
<feOffset dy="4"/>
<feGaussianBlur stdDeviation="2"/>
<feComposite in2="hardAlpha" operator="out"/>
<feColorMatrix type="matrix" values="0 0 0 0 0 0 0 0 0 0 0 0 0 0 0 0 0 0 0.25 0"/>
<feBlend mode="normal" in2="BackgroundImageFix" result="effect1_dropShadow_4547_2442"/>
<feBlend mode="normal" in="SourceGraphic" in2="effect1_dropShadow_4547_2442" result="shape"/>
</filter>
</defs>
</svg>
