<svg width="409" height="226" viewBox="0 0 409 226" fill="none" xmlns="http://www.w3.org/2000/svg">
<rect x="41" y="31" width="327" height="48" rx="24" fill="#D04244"/>
<path d="M61 55C61 50.5817 64.5817 47 69 47C73.4183 47 77 50.5817 77 55C77 59.4183 73.4183 63 69 63C64.5817 63 61 59.4183 61 55Z" stroke="white" stroke-width="1.5"/>
<path d="M107.773 53H106.364C106.28 52.5947 106.134 52.2386 105.926 51.9318C105.722 51.625 105.472 51.3674 105.176 51.1591C104.884 50.947 104.561 50.7879 104.205 50.6818C103.848 50.5758 103.477 50.5227 103.091 50.5227C102.386 50.5227 101.748 50.7008 101.176 51.0568C100.608 51.4129 100.155 51.9375 99.8182 52.6307C99.4848 53.3239 99.3182 54.1742 99.3182 55.1818C99.3182 56.1894 99.4848 57.0398 99.8182 57.733C100.155 58.4261 100.608 58.9508 101.176 59.3068C101.748 59.6629 102.386 59.8409 103.091 59.8409C103.477 59.8409 103.848 59.7879 104.205 59.6818C104.561 59.5758 104.884 59.4186 105.176 59.2102C105.472 58.9981 105.722 58.7386 105.926 58.4318C106.134 58.1212 106.28 57.7652 106.364 57.3636H107.773C107.667 57.9583 107.473 58.4905 107.193 58.9602C106.913 59.4299 106.564 59.8295 106.148 60.1591C105.731 60.4848 105.263 60.733 104.744 60.9034C104.229 61.0739 103.678 61.1591 103.091 61.1591C102.098 61.1591 101.216 60.9167 100.443 60.4318C99.6705 59.947 99.0625 59.2576 98.6193 58.3636C98.1761 57.4697 97.9545 56.4091 97.9545 55.1818C97.9545 53.9545 98.1761 52.8939 98.6193 52C99.0625 51.1061 99.6705 50.4167 100.443 49.9318C101.216 49.447 102.098 49.2045 103.091 49.2045C103.678 49.2045 104.229 49.2898 104.744 49.4602C105.263 49.6307 105.731 49.8807 106.148 50.2102C106.564 50.536 106.913 50.9337 107.193 51.4034C107.473 51.8693 107.667 52.4015 107.773 53ZM113.413 61.1818C112.625 61.1818 111.934 60.9943 111.339 60.6193C110.749 60.2443 110.286 59.7197 109.953 59.0455C109.624 58.3712 109.459 57.5833 109.459 56.6818C109.459 55.7727 109.624 54.9792 109.953 54.3011C110.286 53.6231 110.749 53.0966 111.339 52.7216C111.934 52.3466 112.625 52.1591 113.413 52.1591C114.201 52.1591 114.891 52.3466 115.482 52.7216C116.076 53.0966 116.538 53.6231 116.868 54.3011C117.201 54.9792 117.368 55.7727 117.368 56.6818C117.368 57.5833 117.201 58.3712 116.868 59.0455C116.538 59.7197 116.076 60.2443 115.482 60.6193C114.891 60.9943 114.201 61.1818 113.413 61.1818ZM113.413 59.9773C114.012 59.9773 114.504 59.8239 114.891 59.517C115.277 59.2102 115.563 58.8068 115.749 58.3068C115.934 57.8068 116.027 57.2652 116.027 56.6818C116.027 56.0985 115.934 55.5549 115.749 55.0511C115.563 54.5473 115.277 54.1402 114.891 53.8295C114.504 53.5189 114.012 53.3636 113.413 53.3636C112.815 53.3636 112.322 53.5189 111.936 53.8295C111.55 54.1402 111.264 54.5473 111.078 55.0511C110.893 55.5549 110.8 56.0985 110.8 56.6818C110.8 57.2652 110.893 57.8068 111.078 58.3068C111.264 58.8068 111.55 59.2102 111.936 59.517C112.322 59.8239 112.815 59.9773 113.413 59.9773ZM120.756 55.75V61H119.415V52.2727H120.71V53.6364H120.824C121.028 53.1932 121.339 52.8371 121.756 52.5682C122.172 52.2955 122.71 52.1591 123.369 52.1591C123.96 52.1591 124.477 52.2803 124.92 52.5227C125.364 52.7614 125.708 53.125 125.955 53.6136C126.201 54.0985 126.324 54.7121 126.324 55.4545V61H124.983V55.5455C124.983 54.8598 124.805 54.3258 124.449 53.9432C124.093 53.5568 123.604 53.3636 122.983 53.3636C122.555 53.3636 122.172 53.4564 121.835 53.642C121.502 53.8277 121.239 54.0985 121.045 54.4545C120.852 54.8106 120.756 55.2424 120.756 55.75ZM130.115 55.75V61H128.774V52.2727H130.07V53.6364H130.183C130.388 53.1932 130.698 52.8371 131.115 52.5682C131.532 52.2955 132.07 52.1591 132.729 52.1591C133.32 52.1591 133.837 52.2803 134.28 52.5227C134.723 52.7614 135.068 53.125 135.314 53.6136C135.56 54.0985 135.683 54.7121 135.683 55.4545V61H134.342V55.5455C134.342 54.8598 134.164 54.3258 133.808 53.9432C133.452 53.5568 132.964 53.3636 132.342 53.3636C131.914 53.3636 131.532 53.4564 131.195 53.642C130.861 53.8277 130.598 54.0985 130.405 54.4545C130.212 54.8106 130.115 55.2424 130.115 55.75ZM141.793 61.1818C140.952 61.1818 140.226 60.9962 139.616 60.625C139.01 60.25 138.543 59.7273 138.213 59.0568C137.887 58.3826 137.724 57.5985 137.724 56.7045C137.724 55.8106 137.887 55.0227 138.213 54.3409C138.543 53.6553 139.001 53.1212 139.588 52.7386C140.179 52.3523 140.868 52.1591 141.656 52.1591C142.111 52.1591 142.56 52.2348 143.003 52.3864C143.446 52.5379 143.849 52.7841 144.213 53.125C144.577 53.4621 144.866 53.9091 145.082 54.4659C145.298 55.0227 145.406 55.7083 145.406 56.5227V57.0909H138.679V55.9318H144.043C144.043 55.4394 143.944 55 143.747 54.6136C143.554 54.2273 143.277 53.9223 142.918 53.6989C142.562 53.4754 142.141 53.3636 141.656 53.3636C141.122 53.3636 140.66 53.4962 140.27 53.7614C139.884 54.0227 139.586 54.3636 139.378 54.7841C139.17 55.2045 139.065 55.6553 139.065 56.1364V56.9091C139.065 57.5682 139.179 58.1269 139.406 58.5852C139.637 59.0398 139.957 59.3864 140.366 59.625C140.776 59.8598 141.251 59.9773 141.793 59.9773C142.145 59.9773 142.463 59.928 142.747 59.8295C143.035 59.7273 143.283 59.5758 143.491 59.375C143.7 59.1705 143.861 58.9167 143.974 58.6136L145.27 58.9773C145.134 59.4167 144.904 59.803 144.582 60.1364C144.26 60.4659 143.863 60.7235 143.389 60.9091C142.916 61.0909 142.384 61.1818 141.793 61.1818ZM150.991 61.1818C150.173 61.1818 149.469 60.9886 148.878 60.6023C148.287 60.2159 147.832 59.6837 147.514 59.0057C147.196 58.3277 147.037 57.553 147.037 56.6818C147.037 55.7955 147.2 55.0133 147.526 54.3352C147.855 53.6534 148.313 53.1212 148.901 52.7386C149.491 52.3523 150.181 52.1591 150.969 52.1591C151.582 52.1591 152.135 52.2727 152.628 52.5C153.12 52.7273 153.524 53.0455 153.838 53.4545C154.152 53.8636 154.348 54.3409 154.423 54.8864H153.082C152.98 54.4886 152.753 54.1364 152.401 53.8295C152.052 53.5189 151.582 53.3636 150.991 53.3636C150.469 53.3636 150.01 53.5 149.616 53.7727C149.226 54.0417 148.921 54.4223 148.702 54.9148C148.486 55.4034 148.378 55.9773 148.378 56.6364C148.378 57.3106 148.484 57.8977 148.696 58.3977C148.912 58.8977 149.215 59.286 149.605 59.5625C149.999 59.839 150.461 59.9773 150.991 59.9773C151.34 59.9773 151.656 59.9167 151.94 59.7955C152.224 59.6742 152.465 59.5 152.662 59.2727C152.859 59.0455 152.999 58.7727 153.082 58.4545H154.423C154.348 58.9697 154.16 59.4337 153.861 59.8466C153.565 60.2557 153.173 60.5814 152.685 60.8239C152.2 61.0625 151.635 61.1818 150.991 61.1818ZM160.179 52.2727V53.4091H155.656V52.2727H160.179ZM156.974 50.1818H158.315V58.5C158.315 58.8788 158.37 59.1629 158.48 59.3523C158.594 59.5379 158.738 59.6629 158.912 59.7273C159.09 59.7879 159.277 59.8182 159.474 59.8182C159.622 59.8182 159.743 59.8106 159.838 59.7955C159.933 59.7765 160.009 59.7614 160.065 59.75L160.338 60.9545C160.247 60.9886 160.12 61.0227 159.957 61.0568C159.795 61.0947 159.588 61.1136 159.338 61.1136C158.959 61.1136 158.588 61.0322 158.224 60.8693C157.865 60.7064 157.565 60.4583 157.327 60.125C157.092 59.7917 156.974 59.3712 156.974 58.8636V50.1818ZM162.196 61V52.2727H163.537V61H162.196ZM162.878 50.8182C162.616 50.8182 162.391 50.7292 162.202 50.5511C162.016 50.3731 161.923 50.1591 161.923 49.9091C161.923 49.6591 162.016 49.4451 162.202 49.267C162.391 49.089 162.616 49 162.878 49C163.139 49 163.363 49.089 163.548 49.267C163.738 49.4451 163.832 49.6591 163.832 49.9091C163.832 50.1591 163.738 50.3731 163.548 50.5511C163.363 50.7292 163.139 50.8182 162.878 50.8182ZM169.538 61.1818C168.75 61.1818 168.059 60.9943 167.464 60.6193C166.874 60.2443 166.411 59.7197 166.078 59.0455C165.749 58.3712 165.584 57.5833 165.584 56.6818C165.584 55.7727 165.749 54.9792 166.078 54.3011C166.411 53.6231 166.874 53.0966 167.464 52.7216C168.059 52.3466 168.75 52.1591 169.538 52.1591C170.326 52.1591 171.016 52.3466 171.607 52.7216C172.201 53.0966 172.663 53.6231 172.993 54.3011C173.326 54.9792 173.493 55.7727 173.493 56.6818C173.493 57.5833 173.326 58.3712 172.993 59.0455C172.663 59.7197 172.201 60.2443 171.607 60.6193C171.016 60.9943 170.326 61.1818 169.538 61.1818ZM169.538 59.9773C170.137 59.9773 170.629 59.8239 171.016 59.517C171.402 59.2102 171.688 58.8068 171.874 58.3068C172.059 57.8068 172.152 57.2652 172.152 56.6818C172.152 56.0985 172.059 55.5549 171.874 55.0511C171.688 54.5473 171.402 54.1402 171.016 53.8295C170.629 53.5189 170.137 53.3636 169.538 53.3636C168.94 53.3636 168.447 53.5189 168.061 53.8295C167.675 54.1402 167.389 54.5473 167.203 55.0511C167.018 55.5549 166.925 56.0985 166.925 56.6818C166.925 57.2652 167.018 57.8068 167.203 58.3068C167.389 58.8068 167.675 59.2102 168.061 59.517C168.447 59.8239 168.94 59.9773 169.538 59.9773ZM176.881 55.75V61H175.54V52.2727H176.835V53.6364H176.949C177.153 53.1932 177.464 52.8371 177.881 52.5682C178.297 52.2955 178.835 52.1591 179.494 52.1591C180.085 52.1591 180.602 52.2803 181.045 52.5227C181.489 52.7614 181.833 53.125 182.08 53.6136C182.326 54.0985 182.449 54.7121 182.449 55.4545V61H181.108V55.5455C181.108 54.8598 180.93 54.3258 180.574 53.9432C180.218 53.5568 179.729 53.3636 179.108 53.3636C178.68 53.3636 178.297 53.4564 177.96 53.642C177.627 53.8277 177.364 54.0985 177.17 54.4545C176.977 54.8106 176.881 55.2424 176.881 55.75ZM193.195 52.2727V53.4091H188.672V52.2727H193.195ZM189.99 50.1818H191.331V58.5C191.331 58.8788 191.386 59.1629 191.496 59.3523C191.609 59.5379 191.753 59.6629 191.928 59.7273C192.106 59.7879 192.293 59.8182 192.49 59.8182C192.638 59.8182 192.759 59.8106 192.854 59.7955C192.948 59.7765 193.024 59.7614 193.081 59.75L193.354 60.9545C193.263 60.9886 193.136 61.0227 192.973 61.0568C192.81 61.0947 192.604 61.1136 192.354 61.1136C191.975 61.1136 191.604 61.0322 191.24 60.8693C190.88 60.7064 190.581 60.4583 190.342 60.125C190.107 59.7917 189.99 59.3712 189.99 58.8636V50.1818ZM195.212 61V52.2727H196.553V61H195.212ZM195.893 50.8182C195.632 50.8182 195.407 50.7292 195.217 50.5511C195.032 50.3731 194.939 50.1591 194.939 49.9091C194.939 49.6591 195.032 49.4451 195.217 49.267C195.407 49.089 195.632 49 195.893 49C196.155 49 196.378 49.089 196.564 49.267C196.753 49.4451 196.848 49.6591 196.848 49.9091C196.848 50.1591 196.753 50.3731 196.564 50.5511C196.378 50.7292 196.155 50.8182 195.893 50.8182ZM199.009 61V52.2727H200.304V53.6364H200.418C200.599 53.1705 200.893 52.8087 201.298 52.5511C201.704 52.2898 202.19 52.1591 202.759 52.1591C203.334 52.1591 203.813 52.2898 204.196 52.5511C204.582 52.8087 204.884 53.1705 205.099 53.6364H205.19C205.414 53.1856 205.749 52.8277 206.196 52.5625C206.643 52.2936 207.179 52.1591 207.804 52.1591C208.584 52.1591 209.223 52.4034 209.719 52.892C210.215 53.3769 210.463 54.1326 210.463 55.1591V61H209.122V55.1591C209.122 54.5152 208.946 54.0549 208.594 53.7784C208.241 53.5019 207.827 53.3636 207.349 53.3636C206.736 53.3636 206.26 53.5492 205.923 53.9205C205.586 54.2879 205.418 54.7538 205.418 55.3182V61H204.054V55.0227C204.054 54.5265 203.893 54.1269 203.571 53.8239C203.249 53.517 202.834 53.3636 202.327 53.3636C201.978 53.3636 201.652 53.4564 201.349 53.642C201.05 53.8277 200.808 54.0852 200.622 54.4148C200.44 54.7405 200.349 55.1174 200.349 55.5455V61H199.009ZM216.574 61.1818C215.733 61.1818 215.008 60.9962 214.398 60.625C213.792 60.25 213.324 59.7273 212.994 59.0568C212.669 58.3826 212.506 57.5985 212.506 56.7045C212.506 55.8106 212.669 55.0227 212.994 54.3409C213.324 53.6553 213.782 53.1212 214.369 52.7386C214.96 52.3523 215.65 52.1591 216.438 52.1591C216.892 52.1591 217.341 52.2348 217.784 52.3864C218.227 52.5379 218.631 52.7841 218.994 53.125C219.358 53.4621 219.648 53.9091 219.864 54.4659C220.08 55.0227 220.188 55.7083 220.188 56.5227V57.0909H213.46V55.9318H218.824C218.824 55.4394 218.725 55 218.528 54.6136C218.335 54.2273 218.059 53.9223 217.699 53.6989C217.343 53.4754 216.922 53.3636 216.438 53.3636C215.903 53.3636 215.441 53.4962 215.051 53.7614C214.665 54.0227 214.367 54.3636 214.159 54.7841C213.951 55.2045 213.847 55.6553 213.847 56.1364V56.9091C213.847 57.5682 213.96 58.1269 214.188 58.5852C214.419 59.0398 214.739 59.3864 215.148 59.625C215.557 59.8598 216.032 59.9773 216.574 59.9773C216.926 59.9773 217.244 59.928 217.528 59.8295C217.816 59.7273 218.064 59.5758 218.273 59.375C218.481 59.1705 218.642 58.9167 218.756 58.6136L220.051 58.9773C219.915 59.4167 219.686 59.803 219.364 60.1364C219.042 60.4659 218.644 60.7235 218.17 60.9091C217.697 61.0909 217.165 61.1818 216.574 61.1818ZM225.773 61.1818C224.985 61.1818 224.294 60.9943 223.699 60.6193C223.108 60.2443 222.646 59.7197 222.312 59.0455C221.983 58.3712 221.818 57.5833 221.818 56.6818C221.818 55.7727 221.983 54.9792 222.312 54.3011C222.646 53.6231 223.108 53.0966 223.699 52.7216C224.294 52.3466 224.985 52.1591 225.773 52.1591C226.561 52.1591 227.25 52.3466 227.841 52.7216C228.436 53.0966 228.898 53.6231 229.227 54.3011C229.561 54.9792 229.727 55.7727 229.727 56.6818C229.727 57.5833 229.561 58.3712 229.227 59.0455C228.898 59.7197 228.436 60.2443 227.841 60.6193C227.25 60.9943 226.561 61.1818 225.773 61.1818ZM225.773 59.9773C226.371 59.9773 226.864 59.8239 227.25 59.517C227.636 59.2102 227.922 58.8068 228.108 58.3068C228.294 57.8068 228.386 57.2652 228.386 56.6818C228.386 56.0985 228.294 55.5549 228.108 55.0511C227.922 54.5473 227.636 54.1402 227.25 53.8295C226.864 53.5189 226.371 53.3636 225.773 53.3636C225.174 53.3636 224.682 53.5189 224.295 53.8295C223.909 54.1402 223.623 54.5473 223.438 55.0511C223.252 55.5549 223.159 56.0985 223.159 56.6818C223.159 57.2652 223.252 57.8068 223.438 58.3068C223.623 58.8068 223.909 59.2102 224.295 59.517C224.682 59.8239 225.174 59.9773 225.773 59.9773ZM237.274 57.4318V52.2727H238.615V61H237.274V59.5227H237.183C236.979 59.9659 236.661 60.3428 236.229 60.6534C235.797 60.9602 235.251 61.1136 234.592 61.1136C234.047 61.1136 233.562 60.9943 233.138 60.7557C232.714 60.5133 232.38 60.1496 232.138 59.6648C231.895 59.1761 231.774 58.5606 231.774 57.8182V52.2727H233.115V57.7273C233.115 58.3636 233.293 58.8712 233.649 59.25C234.009 59.6288 234.467 59.8182 235.024 59.8182C235.357 59.8182 235.696 59.733 236.041 59.5625C236.39 59.392 236.681 59.1307 236.916 58.7784C237.155 58.4261 237.274 57.9773 237.274 57.4318ZM244.866 52.2727V53.4091H240.344V52.2727H244.866ZM241.662 50.1818H243.003V58.5C243.003 58.8788 243.058 59.1629 243.168 59.3523C243.281 59.5379 243.425 59.6629 243.599 59.7273C243.777 59.7879 243.965 59.8182 244.162 59.8182C244.31 59.8182 244.431 59.8106 244.526 59.7955C244.62 59.7765 244.696 59.7614 244.753 59.75L245.026 60.9545C244.935 60.9886 244.808 61.0227 244.645 61.0568C244.482 61.0947 244.276 61.1136 244.026 61.1136C243.647 61.1136 243.276 61.0322 242.912 60.8693C242.552 60.7064 242.253 60.4583 242.014 60.125C241.779 59.7917 241.662 59.3712 241.662 58.8636V50.1818Z" fill="white"/>
<path d="M294.862 61V49.3636H298.794C299.703 49.3636 300.449 49.5189 301.033 49.8295C301.616 50.1364 302.048 50.5587 302.328 51.0966C302.608 51.6345 302.749 52.2462 302.749 52.9318C302.749 53.6174 302.608 54.2254 302.328 54.7557C302.048 55.286 301.618 55.7027 301.038 56.0057C300.459 56.3049 299.718 56.4545 298.817 56.4545H295.635V55.1818H298.771C299.393 55.1818 299.893 55.0909 300.271 54.9091C300.654 54.7273 300.93 54.4697 301.101 54.1364C301.275 53.7992 301.362 53.3977 301.362 52.9318C301.362 52.4659 301.275 52.0587 301.101 51.7102C300.927 51.3617 300.648 51.0928 300.266 50.9034C299.883 50.7102 299.377 50.6136 298.749 50.6136H296.271V61H294.862ZM300.339 55.7727L303.203 61H301.567L298.749 55.7727H300.339ZM305.097 61V49.3636H312.119V50.6136H306.506V54.5455H311.756V55.7955H306.506V59.75H312.21V61H305.097ZM314.023 50.6136V49.3636H322.75V50.6136H319.091V61H317.682V50.6136H314.023ZM324.925 61V49.3636H328.857C329.766 49.3636 330.512 49.5189 331.095 49.8295C331.679 50.1364 332.11 50.5587 332.391 51.0966C332.671 51.6345 332.811 52.2462 332.811 52.9318C332.811 53.6174 332.671 54.2254 332.391 54.7557C332.11 55.286 331.68 55.7027 331.101 56.0057C330.521 56.3049 329.781 56.4545 328.879 56.4545H325.697V55.1818H328.834C329.455 55.1818 329.955 55.0909 330.334 54.9091C330.716 54.7273 330.993 54.4697 331.163 54.1364C331.338 53.7992 331.425 53.3977 331.425 52.9318C331.425 52.4659 331.338 52.0587 331.163 51.7102C330.989 51.3617 330.711 51.0928 330.328 50.9034C329.946 50.7102 329.44 50.6136 328.811 50.6136H326.334V61H324.925ZM330.402 55.7727L333.266 61H331.629L328.811 55.7727H330.402ZM333.768 49.3636H335.382L338.609 54.7955H338.746L341.973 49.3636H343.587L339.382 56.2045V61H337.973V56.2045L333.768 49.3636Z" fill="#E3E5E6"/>
<rect x="41" y="89" width="327" height="48" rx="24" fill="#8DAA2E"/>
<path d="M61 113C61 108.582 64.5817 105 69 105C73.4183 105 77 108.582 77 113C77 117.418 73.4183 121 69 121C64.5817 121 61 117.418 61 113Z" stroke="white" stroke-width="1.5"/>
<path d="M98.8864 119H97.4091L101.682 107.364H103.136L107.409 119H105.932L102.455 109.205H102.364L98.8864 119ZM99.4318 114.455H105.386V115.705H99.4318V114.455ZM112.585 119.182C111.767 119.182 111.063 118.989 110.472 118.602C109.881 118.216 109.426 117.684 109.108 117.006C108.79 116.328 108.631 115.553 108.631 114.682C108.631 113.795 108.794 113.013 109.119 112.335C109.449 111.653 109.907 111.121 110.494 110.739C111.085 110.352 111.775 110.159 112.562 110.159C113.176 110.159 113.729 110.273 114.222 110.5C114.714 110.727 115.117 111.045 115.432 111.455C115.746 111.864 115.941 112.341 116.017 112.886H114.676C114.574 112.489 114.347 112.136 113.994 111.83C113.646 111.519 113.176 111.364 112.585 111.364C112.063 111.364 111.604 111.5 111.21 111.773C110.82 112.042 110.515 112.422 110.295 112.915C110.08 113.403 109.972 113.977 109.972 114.636C109.972 115.311 110.078 115.898 110.29 116.398C110.506 116.898 110.809 117.286 111.199 117.562C111.593 117.839 112.055 117.977 112.585 117.977C112.934 117.977 113.25 117.917 113.534 117.795C113.818 117.674 114.059 117.5 114.256 117.273C114.453 117.045 114.593 116.773 114.676 116.455H116.017C115.941 116.97 115.754 117.434 115.455 117.847C115.159 118.256 114.767 118.581 114.278 118.824C113.794 119.062 113.229 119.182 112.585 119.182ZM121.523 119.182C120.705 119.182 120 118.989 119.409 118.602C118.818 118.216 118.364 117.684 118.045 117.006C117.727 116.328 117.568 115.553 117.568 114.682C117.568 113.795 117.731 113.013 118.057 112.335C118.386 111.653 118.845 111.121 119.432 110.739C120.023 110.352 120.712 110.159 121.5 110.159C122.114 110.159 122.667 110.273 123.159 110.5C123.652 110.727 124.055 111.045 124.369 111.455C124.684 111.864 124.879 112.341 124.955 112.886H123.614C123.511 112.489 123.284 112.136 122.932 111.83C122.583 111.519 122.114 111.364 121.523 111.364C121 111.364 120.542 111.5 120.148 111.773C119.758 112.042 119.453 112.422 119.233 112.915C119.017 113.403 118.909 113.977 118.909 114.636C118.909 115.311 119.015 115.898 119.227 116.398C119.443 116.898 119.746 117.286 120.136 117.562C120.53 117.839 120.992 117.977 121.523 117.977C121.871 117.977 122.188 117.917 122.472 117.795C122.756 117.674 122.996 117.5 123.193 117.273C123.39 117.045 123.53 116.773 123.614 116.455H124.955C124.879 116.97 124.691 117.434 124.392 117.847C124.097 118.256 123.705 118.581 123.216 118.824C122.731 119.062 122.167 119.182 121.523 119.182ZM130.46 119.182C129.672 119.182 128.981 118.994 128.386 118.619C127.795 118.244 127.333 117.72 127 117.045C126.67 116.371 126.506 115.583 126.506 114.682C126.506 113.773 126.67 112.979 127 112.301C127.333 111.623 127.795 111.097 128.386 110.722C128.981 110.347 129.672 110.159 130.46 110.159C131.248 110.159 131.938 110.347 132.528 110.722C133.123 111.097 133.585 111.623 133.915 112.301C134.248 112.979 134.415 113.773 134.415 114.682C134.415 115.583 134.248 116.371 133.915 117.045C133.585 117.72 133.123 118.244 132.528 118.619C131.938 118.994 131.248 119.182 130.46 119.182ZM130.46 117.977C131.059 117.977 131.551 117.824 131.938 117.517C132.324 117.21 132.61 116.807 132.795 116.307C132.981 115.807 133.074 115.265 133.074 114.682C133.074 114.098 132.981 113.555 132.795 113.051C132.61 112.547 132.324 112.14 131.938 111.83C131.551 111.519 131.059 111.364 130.46 111.364C129.862 111.364 129.369 111.519 128.983 111.83C128.597 112.14 128.311 112.547 128.125 113.051C127.939 113.555 127.847 114.098 127.847 114.682C127.847 115.265 127.939 115.807 128.125 116.307C128.311 116.807 128.597 117.21 128.983 117.517C129.369 117.824 129.862 117.977 130.46 117.977ZM141.962 115.432V110.273H143.303V119H141.962V117.523H141.871C141.666 117.966 141.348 118.343 140.916 118.653C140.484 118.96 139.939 119.114 139.28 119.114C138.734 119.114 138.25 118.994 137.825 118.756C137.401 118.513 137.068 118.15 136.825 117.665C136.583 117.176 136.462 116.561 136.462 115.818V110.273H137.803V115.727C137.803 116.364 137.981 116.871 138.337 117.25C138.696 117.629 139.155 117.818 139.712 117.818C140.045 117.818 140.384 117.733 140.729 117.562C141.077 117.392 141.369 117.131 141.604 116.778C141.842 116.426 141.962 115.977 141.962 115.432ZM147.099 113.75V119H145.759V110.273H147.054V111.636H147.168C147.372 111.193 147.683 110.837 148.099 110.568C148.516 110.295 149.054 110.159 149.713 110.159C150.304 110.159 150.821 110.28 151.264 110.523C151.707 110.761 152.052 111.125 152.298 111.614C152.545 112.098 152.668 112.712 152.668 113.455V119H151.327V113.545C151.327 112.86 151.149 112.326 150.793 111.943C150.437 111.557 149.948 111.364 149.327 111.364C148.899 111.364 148.516 111.456 148.179 111.642C147.846 111.828 147.582 112.098 147.389 112.455C147.196 112.811 147.099 113.242 147.099 113.75ZM158.913 110.273V111.409H154.391V110.273H158.913ZM155.709 108.182H157.05V116.5C157.05 116.879 157.105 117.163 157.214 117.352C157.328 117.538 157.472 117.663 157.646 117.727C157.824 117.788 158.012 117.818 158.209 117.818C158.357 117.818 158.478 117.811 158.572 117.795C158.667 117.777 158.743 117.761 158.8 117.75L159.072 118.955C158.982 118.989 158.855 119.023 158.692 119.057C158.529 119.095 158.322 119.114 158.072 119.114C157.694 119.114 157.322 119.032 156.959 118.869C156.599 118.706 156.3 118.458 156.061 118.125C155.826 117.792 155.709 117.371 155.709 116.864V108.182ZM168.976 119.182C168.158 119.182 167.453 118.989 166.862 118.602C166.271 118.216 165.817 117.684 165.499 117.006C165.18 116.328 165.021 115.553 165.021 114.682C165.021 113.795 165.184 113.013 165.51 112.335C165.839 111.653 166.298 111.121 166.885 110.739C167.476 110.352 168.165 110.159 168.953 110.159C169.567 110.159 170.12 110.273 170.612 110.5C171.105 110.727 171.508 111.045 171.822 111.455C172.137 111.864 172.332 112.341 172.408 112.886H171.067C170.964 112.489 170.737 112.136 170.385 111.83C170.036 111.519 169.567 111.364 168.976 111.364C168.453 111.364 167.995 111.5 167.601 111.773C167.211 112.042 166.906 112.422 166.686 112.915C166.47 113.403 166.362 113.977 166.362 114.636C166.362 115.311 166.468 115.898 166.68 116.398C166.896 116.898 167.199 117.286 167.589 117.562C167.983 117.839 168.446 117.977 168.976 117.977C169.324 117.977 169.641 117.917 169.925 117.795C170.209 117.674 170.449 117.5 170.646 117.273C170.843 117.045 170.983 116.773 171.067 116.455H172.408C172.332 116.97 172.144 117.434 171.845 117.847C171.55 118.256 171.158 118.581 170.669 118.824C170.184 119.062 169.62 119.182 168.976 119.182ZM174.368 119V110.273H175.663V111.591H175.754C175.913 111.159 176.201 110.809 176.618 110.54C177.035 110.271 177.504 110.136 178.027 110.136C178.125 110.136 178.249 110.138 178.396 110.142C178.544 110.146 178.656 110.152 178.732 110.159V111.523C178.686 111.511 178.582 111.494 178.419 111.472C178.26 111.445 178.091 111.432 177.913 111.432C177.489 111.432 177.11 111.521 176.777 111.699C176.447 111.873 176.186 112.116 175.993 112.426C175.804 112.733 175.709 113.083 175.709 113.477V119H174.368ZM183.714 119.182C182.874 119.182 182.148 118.996 181.538 118.625C180.932 118.25 180.464 117.727 180.135 117.057C179.809 116.383 179.646 115.598 179.646 114.705C179.646 113.811 179.809 113.023 180.135 112.341C180.464 111.655 180.923 111.121 181.51 110.739C182.101 110.352 182.79 110.159 183.578 110.159C184.033 110.159 184.482 110.235 184.925 110.386C185.368 110.538 185.771 110.784 186.135 111.125C186.499 111.462 186.788 111.909 187.004 112.466C187.22 113.023 187.328 113.708 187.328 114.523V115.091H180.601V113.932H185.964C185.964 113.439 185.866 113 185.669 112.614C185.476 112.227 185.199 111.922 184.839 111.699C184.483 111.475 184.063 111.364 183.578 111.364C183.044 111.364 182.582 111.496 182.192 111.761C181.805 112.023 181.508 112.364 181.3 112.784C181.091 113.205 180.987 113.655 180.987 114.136V114.909C180.987 115.568 181.101 116.127 181.328 116.585C181.559 117.04 181.879 117.386 182.288 117.625C182.697 117.86 183.173 117.977 183.714 117.977C184.067 117.977 184.385 117.928 184.669 117.83C184.957 117.727 185.205 117.576 185.413 117.375C185.622 117.17 185.783 116.917 185.896 116.614L187.192 116.977C187.055 117.417 186.826 117.803 186.504 118.136C186.182 118.466 185.785 118.723 185.311 118.909C184.838 119.091 184.305 119.182 183.714 119.182ZM191.936 119.205C191.383 119.205 190.881 119.1 190.43 118.892C189.98 118.68 189.622 118.375 189.357 117.977C189.091 117.576 188.959 117.091 188.959 116.523C188.959 116.023 189.057 115.617 189.254 115.307C189.451 114.992 189.714 114.746 190.044 114.568C190.374 114.39 190.737 114.258 191.135 114.17C191.536 114.08 191.94 114.008 192.345 113.955C192.875 113.886 193.305 113.835 193.635 113.801C193.968 113.763 194.211 113.701 194.362 113.614C194.518 113.527 194.595 113.375 194.595 113.159V113.114C194.595 112.553 194.442 112.117 194.135 111.807C193.832 111.496 193.372 111.341 192.754 111.341C192.114 111.341 191.612 111.481 191.249 111.761C190.885 112.042 190.629 112.341 190.482 112.659L189.209 112.205C189.436 111.674 189.739 111.261 190.118 110.966C190.5 110.667 190.917 110.458 191.368 110.341C191.822 110.22 192.269 110.159 192.709 110.159C192.989 110.159 193.311 110.193 193.675 110.261C194.042 110.326 194.396 110.46 194.737 110.665C195.082 110.869 195.368 111.178 195.595 111.591C195.822 112.004 195.936 112.557 195.936 113.25V119H194.595V117.818H194.527C194.436 118.008 194.285 118.21 194.072 118.426C193.86 118.642 193.578 118.826 193.226 118.977C192.874 119.129 192.444 119.205 191.936 119.205ZM192.141 118C192.671 118 193.118 117.896 193.482 117.688C193.849 117.479 194.125 117.21 194.311 116.881C194.5 116.551 194.595 116.205 194.595 115.841V114.614C194.538 114.682 194.413 114.744 194.22 114.801C194.031 114.854 193.811 114.902 193.561 114.943C193.315 114.981 193.074 115.015 192.839 115.045C192.608 115.072 192.421 115.095 192.277 115.114C191.929 115.159 191.603 115.233 191.3 115.335C191 115.434 190.758 115.583 190.572 115.784C190.391 115.981 190.3 116.25 190.3 116.591C190.3 117.057 190.472 117.409 190.817 117.648C191.165 117.883 191.607 118 192.141 118ZM202.179 110.273V111.409H197.656V110.273H202.179ZM198.974 108.182H200.315V116.5C200.315 116.879 200.37 117.163 200.48 117.352C200.594 117.538 200.738 117.663 200.912 117.727C201.09 117.788 201.277 117.818 201.474 117.818C201.622 117.818 201.743 117.811 201.838 117.795C201.933 117.777 202.009 117.761 202.065 117.75L202.338 118.955C202.247 118.989 202.12 119.023 201.957 119.057C201.795 119.095 201.588 119.114 201.338 119.114C200.959 119.114 200.588 119.032 200.224 118.869C199.865 118.706 199.565 118.458 199.327 118.125C199.092 117.792 198.974 117.371 198.974 116.864V108.182ZM207.761 119.182C206.92 119.182 206.195 118.996 205.585 118.625C204.979 118.25 204.511 117.727 204.182 117.057C203.856 116.383 203.693 115.598 203.693 114.705C203.693 113.811 203.856 113.023 204.182 112.341C204.511 111.655 204.97 111.121 205.557 110.739C206.148 110.352 206.837 110.159 207.625 110.159C208.08 110.159 208.528 110.235 208.972 110.386C209.415 110.538 209.818 110.784 210.182 111.125C210.545 111.462 210.835 111.909 211.051 112.466C211.267 113.023 211.375 113.708 211.375 114.523V115.091H204.648V113.932H210.011C210.011 113.439 209.913 113 209.716 112.614C209.523 112.227 209.246 111.922 208.886 111.699C208.53 111.475 208.11 111.364 207.625 111.364C207.091 111.364 206.629 111.496 206.239 111.761C205.852 112.023 205.555 112.364 205.347 112.784C205.138 113.205 205.034 113.655 205.034 114.136V114.909C205.034 115.568 205.148 116.127 205.375 116.585C205.606 117.04 205.926 117.386 206.335 117.625C206.744 117.86 207.22 117.977 207.761 117.977C208.114 117.977 208.432 117.928 208.716 117.83C209.004 117.727 209.252 117.576 209.46 117.375C209.669 117.17 209.83 116.917 209.943 116.614L211.239 116.977C211.102 117.417 210.873 117.803 210.551 118.136C210.229 118.466 209.831 118.723 209.358 118.909C208.884 119.091 208.352 119.182 207.761 119.182ZM216.71 119.182C215.983 119.182 215.341 118.998 214.784 118.631C214.227 118.259 213.792 117.737 213.477 117.062C213.163 116.384 213.006 115.583 213.006 114.659C213.006 113.742 213.163 112.947 213.477 112.273C213.792 111.598 214.229 111.078 214.79 110.71C215.35 110.343 215.998 110.159 216.733 110.159C217.301 110.159 217.75 110.254 218.08 110.443C218.413 110.629 218.667 110.841 218.841 111.08C219.019 111.314 219.157 111.508 219.256 111.659H219.369V107.364H220.71V119H219.415V117.659H219.256C219.157 117.818 219.017 118.019 218.835 118.261C218.653 118.5 218.394 118.714 218.057 118.903C217.72 119.089 217.271 119.182 216.71 119.182ZM216.892 117.977C217.43 117.977 217.884 117.837 218.256 117.557C218.627 117.273 218.909 116.881 219.102 116.381C219.295 115.877 219.392 115.295 219.392 114.636C219.392 113.985 219.297 113.415 219.108 112.926C218.919 112.434 218.638 112.051 218.267 111.778C217.896 111.502 217.438 111.364 216.892 111.364C216.324 111.364 215.85 111.509 215.472 111.801C215.097 112.089 214.814 112.481 214.625 112.977C214.439 113.47 214.347 114.023 214.347 114.636C214.347 115.258 214.441 115.822 214.631 116.33C214.824 116.833 215.108 117.235 215.483 117.534C215.862 117.83 216.331 117.977 216.892 117.977ZM234.034 112.227L232.83 112.568C232.754 112.367 232.642 112.172 232.494 111.983C232.35 111.79 232.153 111.631 231.903 111.506C231.653 111.381 231.333 111.318 230.943 111.318C230.409 111.318 229.964 111.441 229.608 111.688C229.256 111.93 229.08 112.239 229.08 112.614C229.08 112.947 229.201 113.21 229.443 113.403C229.686 113.597 230.064 113.758 230.58 113.886L231.875 114.205C232.655 114.394 233.237 114.684 233.619 115.074C234.002 115.46 234.193 115.958 234.193 116.568C234.193 117.068 234.049 117.515 233.761 117.909C233.477 118.303 233.08 118.614 232.568 118.841C232.057 119.068 231.462 119.182 230.784 119.182C229.894 119.182 229.157 118.989 228.574 118.602C227.991 118.216 227.621 117.652 227.466 116.909L228.739 116.591C228.86 117.061 229.089 117.413 229.426 117.648C229.767 117.883 230.212 118 230.761 118C231.386 118 231.883 117.867 232.25 117.602C232.621 117.333 232.807 117.011 232.807 116.636C232.807 116.333 232.701 116.08 232.489 115.875C232.277 115.667 231.951 115.511 231.511 115.409L230.057 115.068C229.258 114.879 228.67 114.585 228.295 114.188C227.924 113.786 227.739 113.284 227.739 112.682C227.739 112.189 227.877 111.754 228.153 111.375C228.434 110.996 228.814 110.699 229.295 110.483C229.78 110.267 230.33 110.159 230.943 110.159C231.807 110.159 232.485 110.348 232.977 110.727C233.473 111.106 233.826 111.606 234.034 112.227ZM241.712 115.432V110.273H243.053V119H241.712V117.523H241.621C241.416 117.966 241.098 118.343 240.666 118.653C240.234 118.96 239.689 119.114 239.03 119.114C238.484 119.114 238 118.994 237.575 118.756C237.151 118.513 236.818 118.15 236.575 117.665C236.333 117.176 236.212 116.561 236.212 115.818V110.273H237.553V115.727C237.553 116.364 237.731 116.871 238.087 117.25C238.446 117.629 238.905 117.818 239.462 117.818C239.795 117.818 240.134 117.733 240.479 117.562C240.827 117.392 241.119 117.131 241.354 116.778C241.592 116.426 241.712 115.977 241.712 115.432ZM249.054 119.182C248.236 119.182 247.531 118.989 246.94 118.602C246.349 118.216 245.895 117.684 245.577 117.006C245.259 116.328 245.099 115.553 245.099 114.682C245.099 113.795 245.262 113.013 245.588 112.335C245.918 111.653 246.376 111.121 246.963 110.739C247.554 110.352 248.243 110.159 249.031 110.159C249.645 110.159 250.198 110.273 250.69 110.5C251.183 110.727 251.586 111.045 251.901 111.455C252.215 111.864 252.41 112.341 252.486 112.886H251.145C251.043 112.489 250.815 112.136 250.463 111.83C250.115 111.519 249.645 111.364 249.054 111.364C248.531 111.364 248.073 111.5 247.679 111.773C247.289 112.042 246.984 112.422 246.764 112.915C246.548 113.403 246.44 113.977 246.44 114.636C246.44 115.311 246.546 115.898 246.759 116.398C246.974 116.898 247.277 117.286 247.668 117.562C248.062 117.839 248.524 117.977 249.054 117.977C249.402 117.977 249.719 117.917 250.003 117.795C250.287 117.674 250.527 117.5 250.724 117.273C250.921 117.045 251.062 116.773 251.145 116.455H252.486C252.41 116.97 252.223 117.434 251.923 117.847C251.628 118.256 251.236 118.581 250.747 118.824C250.262 119.062 249.698 119.182 249.054 119.182ZM257.991 119.182C257.173 119.182 256.469 118.989 255.878 118.602C255.287 118.216 254.832 117.684 254.514 117.006C254.196 116.328 254.037 115.553 254.037 114.682C254.037 113.795 254.2 113.013 254.526 112.335C254.855 111.653 255.313 111.121 255.901 110.739C256.491 110.352 257.181 110.159 257.969 110.159C258.582 110.159 259.135 110.273 259.628 110.5C260.12 110.727 260.524 111.045 260.838 111.455C261.152 111.864 261.348 112.341 261.423 112.886H260.082C259.98 112.489 259.753 112.136 259.401 111.83C259.052 111.519 258.582 111.364 257.991 111.364C257.469 111.364 257.01 111.5 256.616 111.773C256.226 112.042 255.921 112.422 255.702 112.915C255.486 113.403 255.378 113.977 255.378 114.636C255.378 115.311 255.484 115.898 255.696 116.398C255.912 116.898 256.215 117.286 256.605 117.562C256.999 117.839 257.461 117.977 257.991 117.977C258.34 117.977 258.656 117.917 258.94 117.795C259.224 117.674 259.465 117.5 259.662 117.273C259.859 117.045 259.999 116.773 260.082 116.455H261.423C261.348 116.97 261.16 117.434 260.861 117.847C260.565 118.256 260.173 118.581 259.685 118.824C259.2 119.062 258.635 119.182 257.991 119.182ZM267.043 119.182C266.202 119.182 265.476 118.996 264.866 118.625C264.26 118.25 263.793 117.727 263.463 117.057C263.137 116.383 262.974 115.598 262.974 114.705C262.974 113.811 263.137 113.023 263.463 112.341C263.793 111.655 264.251 111.121 264.838 110.739C265.429 110.352 266.118 110.159 266.906 110.159C267.361 110.159 267.81 110.235 268.253 110.386C268.696 110.538 269.099 110.784 269.463 111.125C269.827 111.462 270.116 111.909 270.332 112.466C270.548 113.023 270.656 113.708 270.656 114.523V115.091H263.929V113.932H269.293C269.293 113.439 269.194 113 268.997 112.614C268.804 112.227 268.527 111.922 268.168 111.699C267.812 111.475 267.391 111.364 266.906 111.364C266.372 111.364 265.91 111.496 265.52 111.761C265.134 112.023 264.836 112.364 264.628 112.784C264.42 113.205 264.315 113.655 264.315 114.136V114.909C264.315 115.568 264.429 116.127 264.656 116.585C264.887 117.04 265.207 117.386 265.616 117.625C266.026 117.86 266.501 117.977 267.043 117.977C267.395 117.977 267.713 117.928 267.997 117.83C268.285 117.727 268.533 117.576 268.741 117.375C268.95 117.17 269.111 116.917 269.224 116.614L270.52 116.977C270.384 117.417 270.154 117.803 269.832 118.136C269.51 118.466 269.113 118.723 268.639 118.909C268.166 119.091 267.634 119.182 267.043 119.182ZM278.878 112.227L277.673 112.568C277.598 112.367 277.486 112.172 277.338 111.983C277.194 111.79 276.997 111.631 276.747 111.506C276.497 111.381 276.177 111.318 275.787 111.318C275.253 111.318 274.808 111.441 274.452 111.688C274.099 111.93 273.923 112.239 273.923 112.614C273.923 112.947 274.045 113.21 274.287 113.403C274.529 113.597 274.908 113.758 275.423 113.886L276.719 114.205C277.499 114.394 278.08 114.684 278.463 115.074C278.846 115.46 279.037 115.958 279.037 116.568C279.037 117.068 278.893 117.515 278.605 117.909C278.321 118.303 277.923 118.614 277.412 118.841C276.901 119.068 276.306 119.182 275.628 119.182C274.738 119.182 274.001 118.989 273.418 118.602C272.834 118.216 272.465 117.652 272.31 116.909L273.582 116.591C273.704 117.061 273.933 117.413 274.27 117.648C274.611 117.883 275.056 118 275.605 118C276.23 118 276.726 117.867 277.094 117.602C277.465 117.333 277.651 117.011 277.651 116.636C277.651 116.333 277.545 116.08 277.332 115.875C277.12 115.667 276.795 115.511 276.355 115.409L274.901 115.068C274.101 114.879 273.514 114.585 273.139 114.188C272.768 113.786 272.582 113.284 272.582 112.682C272.582 112.189 272.721 111.754 272.997 111.375C273.277 110.996 273.658 110.699 274.139 110.483C274.624 110.267 275.173 110.159 275.787 110.159C276.651 110.159 277.329 110.348 277.821 110.727C278.317 111.106 278.67 111.606 278.878 112.227ZM287.237 112.227L286.033 112.568C285.957 112.367 285.845 112.172 285.697 111.983C285.554 111.79 285.357 111.631 285.107 111.506C284.857 111.381 284.536 111.318 284.146 111.318C283.612 111.318 283.167 111.441 282.811 111.688C282.459 111.93 282.283 112.239 282.283 112.614C282.283 112.947 282.404 113.21 282.646 113.403C282.889 113.597 283.268 113.758 283.783 113.886L285.078 114.205C285.858 114.394 286.44 114.684 286.822 115.074C287.205 115.46 287.396 115.958 287.396 116.568C287.396 117.068 287.252 117.515 286.964 117.909C286.68 118.303 286.283 118.614 285.771 118.841C285.26 119.068 284.665 119.182 283.987 119.182C283.097 119.182 282.36 118.989 281.777 118.602C281.194 118.216 280.824 117.652 280.669 116.909L281.942 116.591C282.063 117.061 282.292 117.413 282.629 117.648C282.97 117.883 283.415 118 283.964 118C284.589 118 285.086 117.867 285.453 117.602C285.824 117.333 286.01 117.011 286.01 116.636C286.01 116.333 285.904 116.08 285.692 115.875C285.48 115.667 285.154 115.511 284.714 115.409L283.26 115.068C282.461 114.879 281.874 114.585 281.499 114.188C281.127 113.786 280.942 113.284 280.942 112.682C280.942 112.189 281.08 111.754 281.357 111.375C281.637 110.996 282.018 110.699 282.499 110.483C282.983 110.267 283.533 110.159 284.146 110.159C285.01 110.159 285.688 110.348 286.18 110.727C286.677 111.106 287.029 111.606 287.237 112.227ZM293.301 110.273V111.409H288.597V110.273H293.301ZM290.006 119V109.068C290.006 108.568 290.123 108.152 290.358 107.818C290.593 107.485 290.898 107.235 291.273 107.068C291.648 106.902 292.044 106.818 292.46 106.818C292.79 106.818 293.059 106.845 293.267 106.898C293.475 106.951 293.631 107 293.733 107.045L293.347 108.205C293.278 108.182 293.184 108.153 293.062 108.119C292.945 108.085 292.79 108.068 292.597 108.068C292.153 108.068 291.833 108.18 291.636 108.403C291.443 108.627 291.347 108.955 291.347 109.386V119H290.006ZM300.68 115.432V110.273H302.021V119H300.68V117.523H300.589C300.385 117.966 300.067 118.343 299.635 118.653C299.203 118.96 298.658 119.114 297.999 119.114C297.453 119.114 296.968 118.994 296.544 118.756C296.12 118.513 295.786 118.15 295.544 117.665C295.302 117.176 295.18 116.561 295.18 115.818V110.273H296.521V115.727C296.521 116.364 296.699 116.871 297.055 117.25C297.415 117.629 297.874 117.818 298.43 117.818C298.764 117.818 299.103 117.733 299.447 117.562C299.796 117.392 300.088 117.131 300.322 116.778C300.561 116.426 300.68 115.977 300.68 115.432ZM305.818 107.364V119H304.477V107.364H305.818ZM309.615 107.364V119H308.274V107.364H309.615ZM312.935 122.273C312.707 122.273 312.505 122.254 312.327 122.216C312.149 122.182 312.026 122.148 311.957 122.114L312.298 120.932C312.624 121.015 312.912 121.045 313.162 121.023C313.412 121 313.634 120.888 313.827 120.688C314.024 120.491 314.204 120.17 314.366 119.727L314.616 119.045L311.389 110.273H312.844L315.253 117.227H315.344L317.753 110.273H319.207L315.503 120.273C315.336 120.723 315.13 121.097 314.884 121.392C314.637 121.691 314.351 121.913 314.026 122.057C313.704 122.201 313.34 122.273 312.935 122.273Z" fill="white"/>
<rect x="41" y="147" width="327" height="48" rx="24" fill="#DE9615"/>
<path d="M61 171C61 166.582 64.5817 163 69 163C73.4183 163 77 166.582 77 171C77 175.418 73.4183 179 69 179C64.5817 179 61 175.418 61 171Z" stroke="white" stroke-width="1.5"/>
<path d="M98.4091 177V165.364H105.386V166.614H99.8182V170.545H104.864V171.795H99.8182V177H98.4091ZM110.186 177.205C109.633 177.205 109.131 177.1 108.68 176.892C108.23 176.68 107.872 176.375 107.607 175.977C107.341 175.576 107.209 175.091 107.209 174.523C107.209 174.023 107.307 173.617 107.504 173.307C107.701 172.992 107.964 172.746 108.294 172.568C108.624 172.39 108.987 172.258 109.385 172.17C109.786 172.08 110.19 172.008 110.595 171.955C111.125 171.886 111.555 171.835 111.885 171.801C112.218 171.763 112.461 171.701 112.612 171.614C112.768 171.527 112.845 171.375 112.845 171.159V171.114C112.845 170.553 112.692 170.117 112.385 169.807C112.082 169.496 111.622 169.341 111.004 169.341C110.364 169.341 109.862 169.481 109.499 169.761C109.135 170.042 108.879 170.341 108.732 170.659L107.459 170.205C107.686 169.674 107.989 169.261 108.368 168.966C108.75 168.667 109.167 168.458 109.618 168.341C110.072 168.22 110.519 168.159 110.959 168.159C111.239 168.159 111.561 168.193 111.925 168.261C112.292 168.326 112.646 168.46 112.987 168.665C113.332 168.869 113.618 169.178 113.845 169.591C114.072 170.004 114.186 170.557 114.186 171.25V177H112.845V175.818H112.777C112.686 176.008 112.535 176.21 112.322 176.426C112.11 176.642 111.828 176.826 111.476 176.977C111.124 177.129 110.694 177.205 110.186 177.205ZM110.391 176C110.921 176 111.368 175.896 111.732 175.688C112.099 175.479 112.375 175.21 112.561 174.881C112.75 174.551 112.845 174.205 112.845 173.841V172.614C112.788 172.682 112.663 172.744 112.47 172.801C112.281 172.854 112.061 172.902 111.811 172.943C111.565 172.981 111.324 173.015 111.089 173.045C110.858 173.072 110.671 173.095 110.527 173.114C110.179 173.159 109.853 173.233 109.55 173.335C109.25 173.434 109.008 173.583 108.822 173.784C108.641 173.981 108.55 174.25 108.55 174.591C108.55 175.057 108.722 175.409 109.067 175.648C109.415 175.883 109.857 176 110.391 176ZM116.634 177V168.273H117.974V177H116.634ZM117.315 166.818C117.054 166.818 116.829 166.729 116.639 166.551C116.454 166.373 116.361 166.159 116.361 165.909C116.361 165.659 116.454 165.445 116.639 165.267C116.829 165.089 117.054 165 117.315 165C117.577 165 117.8 165.089 117.986 165.267C118.175 165.445 118.27 165.659 118.27 165.909C118.27 166.159 118.175 166.373 117.986 166.551C117.8 166.729 117.577 166.818 117.315 166.818ZM121.771 165.364V177H120.43V165.364H121.771ZM127.886 177.182C127.045 177.182 126.32 176.996 125.71 176.625C125.104 176.25 124.636 175.727 124.307 175.057C123.981 174.383 123.818 173.598 123.818 172.705C123.818 171.811 123.981 171.023 124.307 170.341C124.636 169.655 125.095 169.121 125.682 168.739C126.273 168.352 126.962 168.159 127.75 168.159C128.205 168.159 128.653 168.235 129.097 168.386C129.54 168.538 129.943 168.784 130.307 169.125C130.67 169.462 130.96 169.909 131.176 170.466C131.392 171.023 131.5 171.708 131.5 172.523V173.091H124.773V171.932H130.136C130.136 171.439 130.038 171 129.841 170.614C129.648 170.227 129.371 169.922 129.011 169.699C128.655 169.475 128.235 169.364 127.75 169.364C127.216 169.364 126.754 169.496 126.364 169.761C125.977 170.023 125.68 170.364 125.472 170.784C125.263 171.205 125.159 171.655 125.159 172.136V172.909C125.159 173.568 125.273 174.127 125.5 174.585C125.731 175.04 126.051 175.386 126.46 175.625C126.869 175.86 127.345 175.977 127.886 175.977C128.239 175.977 128.557 175.928 128.841 175.83C129.129 175.727 129.377 175.576 129.585 175.375C129.794 175.17 129.955 174.917 130.068 174.614L131.364 174.977C131.227 175.417 130.998 175.803 130.676 176.136C130.354 176.466 129.956 176.723 129.483 176.909C129.009 177.091 128.477 177.182 127.886 177.182ZM136.835 177.182C136.108 177.182 135.466 176.998 134.909 176.631C134.352 176.259 133.917 175.737 133.602 175.062C133.288 174.384 133.131 173.583 133.131 172.659C133.131 171.742 133.288 170.947 133.602 170.273C133.917 169.598 134.354 169.078 134.915 168.71C135.475 168.343 136.123 168.159 136.858 168.159C137.426 168.159 137.875 168.254 138.205 168.443C138.538 168.629 138.792 168.841 138.966 169.08C139.144 169.314 139.282 169.508 139.381 169.659H139.494V165.364H140.835V177H139.54V175.659H139.381C139.282 175.818 139.142 176.019 138.96 176.261C138.778 176.5 138.519 176.714 138.182 176.903C137.845 177.089 137.396 177.182 136.835 177.182ZM137.017 175.977C137.555 175.977 138.009 175.837 138.381 175.557C138.752 175.273 139.034 174.881 139.227 174.381C139.42 173.877 139.517 173.295 139.517 172.636C139.517 171.985 139.422 171.415 139.233 170.926C139.044 170.434 138.763 170.051 138.392 169.778C138.021 169.502 137.563 169.364 137.017 169.364C136.449 169.364 135.975 169.509 135.597 169.801C135.222 170.089 134.939 170.481 134.75 170.977C134.564 171.47 134.472 172.023 134.472 172.636C134.472 173.258 134.566 173.822 134.756 174.33C134.949 174.833 135.233 175.235 135.608 175.534C135.987 175.83 136.456 175.977 137.017 175.977ZM151.773 168.273V169.409H147.25V168.273H151.773ZM148.568 166.182H149.909V174.5C149.909 174.879 149.964 175.163 150.074 175.352C150.188 175.538 150.331 175.663 150.506 175.727C150.684 175.788 150.871 175.818 151.068 175.818C151.216 175.818 151.337 175.811 151.432 175.795C151.527 175.777 151.602 175.761 151.659 175.75L151.932 176.955C151.841 176.989 151.714 177.023 151.551 177.057C151.388 177.095 151.182 177.114 150.932 177.114C150.553 177.114 150.182 177.032 149.818 176.869C149.458 176.706 149.159 176.458 148.92 176.125C148.686 175.792 148.568 175.371 148.568 174.864V166.182ZM157.241 177.182C156.454 177.182 155.762 176.994 155.168 176.619C154.577 176.244 154.115 175.72 153.781 175.045C153.452 174.371 153.287 173.583 153.287 172.682C153.287 171.773 153.452 170.979 153.781 170.301C154.115 169.623 154.577 169.097 155.168 168.722C155.762 168.347 156.454 168.159 157.241 168.159C158.029 168.159 158.719 168.347 159.31 168.722C159.904 169.097 160.366 169.623 160.696 170.301C161.029 170.979 161.196 171.773 161.196 172.682C161.196 173.583 161.029 174.371 160.696 175.045C160.366 175.72 159.904 176.244 159.31 176.619C158.719 176.994 158.029 177.182 157.241 177.182ZM157.241 175.977C157.84 175.977 158.332 175.824 158.719 175.517C159.105 175.21 159.391 174.807 159.577 174.307C159.762 173.807 159.855 173.265 159.855 172.682C159.855 172.098 159.762 171.555 159.577 171.051C159.391 170.547 159.105 170.14 158.719 169.83C158.332 169.519 157.84 169.364 157.241 169.364C156.643 169.364 156.151 169.519 155.764 169.83C155.378 170.14 155.092 170.547 154.906 171.051C154.721 171.555 154.628 172.098 154.628 172.682C154.628 173.265 154.721 173.807 154.906 174.307C155.092 174.807 155.378 175.21 155.764 175.517C156.151 175.824 156.643 175.977 157.241 175.977ZM169.084 165.364V177H167.743V165.364H169.084ZM175.085 177.182C174.297 177.182 173.606 176.994 173.011 176.619C172.42 176.244 171.958 175.72 171.625 175.045C171.295 174.371 171.131 173.583 171.131 172.682C171.131 171.773 171.295 170.979 171.625 170.301C171.958 169.623 172.42 169.097 173.011 168.722C173.606 168.347 174.297 168.159 175.085 168.159C175.873 168.159 176.563 168.347 177.153 168.722C177.748 169.097 178.21 169.623 178.54 170.301C178.873 170.979 179.04 171.773 179.04 172.682C179.04 173.583 178.873 174.371 178.54 175.045C178.21 175.72 177.748 176.244 177.153 176.619C176.563 176.994 175.873 177.182 175.085 177.182ZM175.085 175.977C175.684 175.977 176.176 175.824 176.562 175.517C176.949 175.21 177.235 174.807 177.42 174.307C177.606 173.807 177.699 173.265 177.699 172.682C177.699 172.098 177.606 171.555 177.42 171.051C177.235 170.547 176.949 170.14 176.562 169.83C176.176 169.519 175.684 169.364 175.085 169.364C174.487 169.364 173.994 169.519 173.608 169.83C173.222 170.14 172.936 170.547 172.75 171.051C172.564 171.555 172.472 172.098 172.472 172.682C172.472 173.265 172.564 173.807 172.75 174.307C172.936 174.807 173.222 175.21 173.608 175.517C173.994 175.824 174.487 175.977 175.085 175.977ZM183.655 177.205C183.102 177.205 182.6 177.1 182.149 176.892C181.698 176.68 181.34 176.375 181.075 175.977C180.81 175.576 180.678 175.091 180.678 174.523C180.678 174.023 180.776 173.617 180.973 173.307C181.17 172.992 181.433 172.746 181.763 172.568C182.092 172.39 182.456 172.258 182.854 172.17C183.255 172.08 183.659 172.008 184.064 171.955C184.594 171.886 185.024 171.835 185.354 171.801C185.687 171.763 185.929 171.701 186.081 171.614C186.236 171.527 186.314 171.375 186.314 171.159V171.114C186.314 170.553 186.161 170.117 185.854 169.807C185.551 169.496 185.09 169.341 184.473 169.341C183.833 169.341 183.331 169.481 182.967 169.761C182.604 170.042 182.348 170.341 182.2 170.659L180.928 170.205C181.155 169.674 181.458 169.261 181.837 168.966C182.219 168.667 182.636 168.458 183.087 168.341C183.541 168.22 183.988 168.159 184.428 168.159C184.708 168.159 185.03 168.193 185.393 168.261C185.761 168.326 186.115 168.46 186.456 168.665C186.801 168.869 187.087 169.178 187.314 169.591C187.541 170.004 187.655 170.557 187.655 171.25V177H186.314V175.818H186.246C186.155 176.008 186.003 176.21 185.791 176.426C185.579 176.642 185.297 176.826 184.945 176.977C184.592 177.129 184.162 177.205 183.655 177.205ZM183.859 176C184.39 176 184.837 175.896 185.2 175.688C185.568 175.479 185.844 175.21 186.03 174.881C186.219 174.551 186.314 174.205 186.314 173.841V172.614C186.257 172.682 186.132 172.744 185.939 172.801C185.75 172.854 185.53 172.902 185.28 172.943C185.034 172.981 184.793 173.015 184.558 173.045C184.327 173.072 184.14 173.095 183.996 173.114C183.647 173.159 183.321 173.233 183.018 173.335C182.719 173.434 182.477 173.583 182.291 173.784C182.109 173.981 182.018 174.25 182.018 174.591C182.018 175.057 182.191 175.409 182.536 175.648C182.884 175.883 183.325 176 183.859 176ZM193.398 177.182C192.67 177.182 192.028 176.998 191.472 176.631C190.915 176.259 190.479 175.737 190.165 175.062C189.85 174.384 189.693 173.583 189.693 172.659C189.693 171.742 189.85 170.947 190.165 170.273C190.479 169.598 190.917 169.078 191.477 168.71C192.038 168.343 192.686 168.159 193.42 168.159C193.989 168.159 194.438 168.254 194.767 168.443C195.1 168.629 195.354 168.841 195.528 169.08C195.706 169.314 195.845 169.508 195.943 169.659H196.057V165.364H197.398V177H196.102V175.659H195.943C195.845 175.818 195.705 176.019 195.523 176.261C195.341 176.5 195.081 176.714 194.744 176.903C194.407 177.089 193.958 177.182 193.398 177.182ZM193.58 175.977C194.117 175.977 194.572 175.837 194.943 175.557C195.314 175.273 195.597 174.881 195.79 174.381C195.983 173.877 196.08 173.295 196.08 172.636C196.08 171.985 195.985 171.415 195.795 170.926C195.606 170.434 195.326 170.051 194.955 169.778C194.583 169.502 194.125 169.364 193.58 169.364C193.011 169.364 192.538 169.509 192.159 169.801C191.784 170.089 191.502 170.481 191.312 170.977C191.127 171.47 191.034 172.023 191.034 172.636C191.034 173.258 191.129 173.822 191.318 174.33C191.511 174.833 191.795 175.235 192.17 175.534C192.549 175.83 193.019 175.977 193.58 175.977ZM208.085 177.182C207.267 177.182 206.563 176.989 205.972 176.602C205.381 176.216 204.926 175.684 204.608 175.006C204.29 174.328 204.131 173.553 204.131 172.682C204.131 171.795 204.294 171.013 204.619 170.335C204.949 169.653 205.407 169.121 205.994 168.739C206.585 168.352 207.275 168.159 208.062 168.159C208.676 168.159 209.229 168.273 209.722 168.5C210.214 168.727 210.617 169.045 210.932 169.455C211.246 169.864 211.441 170.341 211.517 170.886H210.176C210.074 170.489 209.847 170.136 209.494 169.83C209.146 169.519 208.676 169.364 208.085 169.364C207.563 169.364 207.104 169.5 206.71 169.773C206.32 170.042 206.015 170.422 205.795 170.915C205.58 171.403 205.472 171.977 205.472 172.636C205.472 173.311 205.578 173.898 205.79 174.398C206.006 174.898 206.309 175.286 206.699 175.562C207.093 175.839 207.555 175.977 208.085 175.977C208.434 175.977 208.75 175.917 209.034 175.795C209.318 175.674 209.559 175.5 209.756 175.273C209.953 175.045 210.093 174.773 210.176 174.455H211.517C211.441 174.97 211.254 175.434 210.955 175.847C210.659 176.256 210.267 176.581 209.778 176.824C209.294 177.062 208.729 177.182 208.085 177.182ZM217.023 177.182C216.235 177.182 215.544 176.994 214.949 176.619C214.358 176.244 213.896 175.72 213.562 175.045C213.233 174.371 213.068 173.583 213.068 172.682C213.068 171.773 213.233 170.979 213.562 170.301C213.896 169.623 214.358 169.097 214.949 168.722C215.544 168.347 216.235 168.159 217.023 168.159C217.811 168.159 218.5 168.347 219.091 168.722C219.686 169.097 220.148 169.623 220.477 170.301C220.811 170.979 220.977 171.773 220.977 172.682C220.977 173.583 220.811 174.371 220.477 175.045C220.148 175.72 219.686 176.244 219.091 176.619C218.5 176.994 217.811 177.182 217.023 177.182ZM217.023 175.977C217.621 175.977 218.114 175.824 218.5 175.517C218.886 175.21 219.172 174.807 219.358 174.307C219.544 173.807 219.636 173.265 219.636 172.682C219.636 172.098 219.544 171.555 219.358 171.051C219.172 170.547 218.886 170.14 218.5 169.83C218.114 169.519 217.621 169.364 217.023 169.364C216.424 169.364 215.932 169.519 215.545 169.83C215.159 170.14 214.873 170.547 214.688 171.051C214.502 171.555 214.409 172.098 214.409 172.682C214.409 173.265 214.502 173.807 214.688 174.307C214.873 174.807 215.159 175.21 215.545 175.517C215.932 175.824 216.424 175.977 217.023 175.977ZM224.365 171.75V177H223.024V168.273H224.32V169.636H224.433C224.638 169.193 224.948 168.837 225.365 168.568C225.782 168.295 226.32 168.159 226.979 168.159C227.57 168.159 228.087 168.28 228.53 168.523C228.973 168.761 229.318 169.125 229.564 169.614C229.81 170.098 229.933 170.712 229.933 171.455V177H228.592V171.545C228.592 170.86 228.414 170.326 228.058 169.943C227.702 169.557 227.214 169.364 226.592 169.364C226.164 169.364 225.782 169.456 225.445 169.642C225.111 169.828 224.848 170.098 224.655 170.455C224.462 170.811 224.365 171.242 224.365 171.75ZM236.179 168.273V169.409H231.656V168.273H236.179ZM232.974 166.182H234.315V174.5C234.315 174.879 234.37 175.163 234.48 175.352C234.594 175.538 234.738 175.663 234.912 175.727C235.09 175.788 235.277 175.818 235.474 175.818C235.622 175.818 235.743 175.811 235.838 175.795C235.933 175.777 236.009 175.761 236.065 175.75L236.338 176.955C236.247 176.989 236.12 177.023 235.957 177.057C235.795 177.095 235.588 177.114 235.338 177.114C234.959 177.114 234.588 177.032 234.224 176.869C233.865 176.706 233.565 176.458 233.327 176.125C233.092 175.792 232.974 175.371 232.974 174.864V166.182ZM241.761 177.182C240.92 177.182 240.195 176.996 239.585 176.625C238.979 176.25 238.511 175.727 238.182 175.057C237.856 174.383 237.693 173.598 237.693 172.705C237.693 171.811 237.856 171.023 238.182 170.341C238.511 169.655 238.97 169.121 239.557 168.739C240.148 168.352 240.837 168.159 241.625 168.159C242.08 168.159 242.528 168.235 242.972 168.386C243.415 168.538 243.818 168.784 244.182 169.125C244.545 169.462 244.835 169.909 245.051 170.466C245.267 171.023 245.375 171.708 245.375 172.523V173.091H238.648V171.932H244.011C244.011 171.439 243.913 171 243.716 170.614C243.523 170.227 243.246 169.922 242.886 169.699C242.53 169.475 242.11 169.364 241.625 169.364C241.091 169.364 240.629 169.496 240.239 169.761C239.852 170.023 239.555 170.364 239.347 170.784C239.138 171.205 239.034 171.655 239.034 172.136V172.909C239.034 173.568 239.148 174.127 239.375 174.585C239.606 175.04 239.926 175.386 240.335 175.625C240.744 175.86 241.22 175.977 241.761 175.977C242.114 175.977 242.432 175.928 242.716 175.83C243.004 175.727 243.252 175.576 243.46 175.375C243.669 175.17 243.83 174.917 243.943 174.614L245.239 174.977C245.102 175.417 244.873 175.803 244.551 176.136C244.229 176.466 243.831 176.723 243.358 176.909C242.884 177.091 242.352 177.182 241.761 177.182ZM248.756 171.75V177H247.415V168.273H248.71V169.636H248.824C249.028 169.193 249.339 168.837 249.756 168.568C250.172 168.295 250.71 168.159 251.369 168.159C251.96 168.159 252.477 168.28 252.92 168.523C253.364 168.761 253.708 169.125 253.955 169.614C254.201 170.098 254.324 170.712 254.324 171.455V177H252.983V171.545C252.983 170.86 252.805 170.326 252.449 169.943C252.093 169.557 251.604 169.364 250.983 169.364C250.555 169.364 250.172 169.456 249.835 169.642C249.502 169.828 249.239 170.098 249.045 170.455C248.852 170.811 248.756 171.242 248.756 171.75ZM260.57 168.273V169.409H256.047V168.273H260.57ZM257.365 166.182H258.706V174.5C258.706 174.879 258.761 175.163 258.871 175.352C258.984 175.538 259.128 175.663 259.303 175.727C259.481 175.788 259.668 175.818 259.865 175.818C260.013 175.818 260.134 175.811 260.229 175.795C260.323 175.777 260.399 175.761 260.456 175.75L260.729 176.955C260.638 176.989 260.511 177.023 260.348 177.057C260.185 177.095 259.979 177.114 259.729 177.114C259.35 177.114 258.979 177.032 258.615 176.869C258.255 176.706 257.956 176.458 257.717 176.125C257.482 175.792 257.365 175.371 257.365 174.864V166.182Z" fill="white"/>
<path d="M324 171C324 166.582 327.582 163 332 163C336.418 163 340 166.582 340 171C340 175.418 336.418 179 332 179C327.582 179 324 175.418 324 171Z" stroke="white" stroke-width="1.5"/>
<rect x="1" y="1" width="407" height="224" rx="8" stroke="#9747FF" stroke-width="2" stroke-dasharray="8 8"/>
</svg>
