<svg width="521" height="366" viewBox="0 0 521 366" fill="none" xmlns="http://www.w3.org/2000/svg">
<rect width="521" height="366" rx="28" fill="#063F5C"/>
<path d="M80.2706 310.063H79.1154C79.1154 310.063 79.0484 310.021 79.0149 310.013C77.4914 309.812 76.3362 309.017 75.3819 307.844C73.7495 305.826 72.3097 303.683 70.9787 301.464C70.9033 301.338 70.8196 301.213 70.7443 301.079C70.6522 301.129 70.5936 301.154 70.535 301.188C67.3289 303.013 63.9135 303.591 60.272 302.988C54.4374 302.017 49.4231 297.252 48.2177 291.475C48.0502 290.679 47.9582 289.867 47.8242 289.063C47.8242 288.419 47.8242 287.782 47.8242 287.137C47.8493 287.029 47.8744 286.911 47.8912 286.803C48.0084 286.057 48.0753 285.304 48.2511 284.567C50.1514 276.738 57.7523 271.806 65.6798 273.238C75.1726 274.955 80.6557 285.187 76.8301 294.062C76.5622 294.69 76.2357 295.301 75.9344 295.921C76.5455 296.298 77.1649 296.666 77.7676 297.051C79.6763 298.274 81.5849 299.513 83.2423 301.07C84.7073 302.444 85.2012 304.177 84.7156 306.12C84.2301 308.045 82.9661 309.285 81.0575 309.854C80.8063 309.929 80.5385 309.98 80.279 310.047L80.2706 310.063ZM62.9424 278.639C57.7105 278.639 53.4412 282.917 53.458 288.134C53.4747 293.367 57.7272 297.612 62.9592 297.604C68.1744 297.604 72.4185 293.35 72.4185 288.134C72.4185 282.901 68.166 278.639 62.934 278.647L62.9424 278.639Z" fill="#FFFCF1"/>
<path d="M165.915 207.483C166.277 207.756 166.593 208.07 166.911 208.393C167.009 208.49 167.009 208.49 167.109 208.588C167.784 209.266 168.289 209.944 168.311 210.935C168.307 212.515 167.439 213.241 166.372 214.309C166.28 214.402 166.187 214.494 166.095 214.587C165.843 214.841 165.59 215.094 165.338 215.347C165.121 215.564 164.905 215.782 164.688 215.999C163.975 216.715 163.261 217.431 162.548 218.146C162.362 218.332 162.176 218.518 161.99 218.705C160.835 219.862 159.68 221.02 158.525 222.177C158.258 222.444 157.99 222.712 157.723 222.979C157.657 223.046 157.591 223.112 157.522 223.181C156.445 224.259 155.37 225.339 154.294 226.418C153.189 227.528 152.084 228.636 150.977 229.744C150.356 230.365 149.735 230.987 149.116 231.61C148.588 232.141 148.06 232.67 147.531 233.198C147.261 233.467 146.992 233.737 146.723 234.008C146.478 234.257 146.231 234.504 145.983 234.75C145.893 234.839 145.804 234.928 145.716 235.018C145.148 235.596 144.671 235.996 143.842 236.048C143.773 236.039 143.704 236.03 143.633 236.021C143.528 236.009 143.528 236.009 143.422 235.997C142.897 235.866 142.548 235.591 142.171 235.214C142.124 235.168 142.077 235.122 142.029 235.074C141.874 234.92 141.72 234.765 141.565 234.61C141.454 234.499 141.342 234.388 141.231 234.278C140.928 233.977 140.627 233.675 140.325 233.373C140.073 233.121 139.821 232.869 139.569 232.618C138.973 232.023 138.379 231.429 137.784 230.833C137.172 230.22 136.558 229.608 135.944 228.996C135.416 228.47 134.889 227.944 134.363 227.416C134.049 227.102 133.734 226.788 133.419 226.474C133.122 226.179 132.827 225.883 132.532 225.586C132.424 225.478 132.315 225.37 132.207 225.262C131.412 224.474 130.826 223.816 130.815 222.638C130.819 221.482 131.257 220.849 132.054 220.047C132.183 219.916 132.308 219.78 132.432 219.644C133.16 218.866 133.94 218.352 135.019 218.278C136.239 218.301 136.983 218.948 137.802 219.775C137.867 219.84 137.931 219.905 137.998 219.972C138.21 220.183 138.421 220.396 138.632 220.608C138.779 220.756 138.927 220.904 139.074 221.052C139.461 221.439 139.847 221.827 140.233 222.215C140.628 222.612 141.023 223.008 141.418 223.404C142.193 224.18 142.966 224.956 143.739 225.733C144.019 225.609 144.208 225.465 144.423 225.249C144.487 225.186 144.551 225.122 144.616 225.057C144.72 224.952 144.72 224.952 144.826 224.845C144.9 224.771 144.974 224.696 145.05 224.62C145.256 224.414 145.461 224.208 145.665 224.001C145.886 223.779 146.108 223.557 146.329 223.335C146.713 222.95 147.097 222.565 147.48 222.179C148.035 221.621 148.59 221.064 149.146 220.507C150.048 219.603 150.95 218.698 151.852 217.793C151.906 217.739 151.96 217.685 152.016 217.629C152.781 216.86 153.547 216.092 154.312 215.323C154.393 215.242 154.393 215.242 154.475 215.159C154.529 215.105 154.583 215.051 154.638 214.995C155.536 214.093 156.434 213.192 157.333 212.292C157.887 211.737 158.441 211.181 158.994 210.624C159.373 210.242 159.753 209.861 160.133 209.481C160.352 209.262 160.571 209.042 160.79 208.821C161.026 208.582 161.265 208.344 161.503 208.107C161.571 208.037 161.64 207.967 161.71 207.896C162.929 206.688 164.484 206.503 165.915 207.483Z" fill="#FFFCF1"/>
<path d="M212.967 200.123C212.967 199.798 212.967 199.482 212.967 199.158C212.992 199.074 213.026 199 213.042 198.916C213.234 198.034 213.666 197.311 214.382 196.77C215.596 195.846 216.903 195.788 218.292 196.37C222.852 198.276 227.42 200.164 231.979 202.053C237.454 204.325 242.92 206.596 248.395 208.859C249.385 209.267 250.167 209.882 250.575 210.889C251.399 212.911 250.5 214.933 248.403 215.806C241.198 218.793 234.001 221.789 226.796 224.767C223.551 226.107 220.289 227.388 217.036 228.703H216.221C215.364 228.52 214.581 228.195 213.966 227.538C213.417 226.964 213.15 226.265 212.967 225.516C212.967 225.192 212.967 224.876 212.967 224.551C212.984 224.534 213.009 224.518 213.009 224.493C213.516 222.479 214.016 220.458 214.523 218.436C214.939 216.78 215.372 215.124 215.796 213.444H216.245C220.431 213.444 224.607 213.444 228.792 213.444C228.926 213.444 229.067 213.444 229.2 213.444C229.808 213.394 230.24 212.911 230.224 212.304C230.207 211.655 229.724 211.23 228.975 211.23C224.732 211.23 220.489 211.23 216.245 211.23C216.096 211.23 215.954 211.23 215.805 211.23C215.763 211.114 215.73 211.022 215.713 210.923C215.139 208.668 214.565 206.413 213.991 204.158C213.65 202.81 213.3 201.471 212.959 200.123H212.967Z" fill="#FFFCF1"/>
<path d="M366.695 202.703C367.228 202.698 367.761 202.692 368.31 202.687C368.884 202.69 369.458 202.694 370.049 202.697C370.64 202.696 371.231 202.694 371.839 202.692C373.088 202.69 374.337 202.693 375.586 202.702C377.186 202.712 378.784 202.706 380.384 202.695C381.911 202.687 383.439 202.693 384.967 202.697C385.827 202.692 385.827 202.692 386.706 202.687C387.505 202.695 387.505 202.695 388.321 202.703C388.79 202.705 389.258 202.706 389.741 202.708C391.302 202.993 391.829 203.448 392.762 204.699C392.99 205.705 392.99 205.705 392.994 206.819C393 207.238 393.005 207.657 393.011 208.088C393.007 208.537 393.004 208.987 393 209.449C393.003 210.145 393.003 210.145 393.005 210.856C393.006 211.836 393.003 212.817 392.996 213.797C392.986 215.298 392.996 216.799 393.007 218.3C393.006 219.253 393.004 220.206 393 221.158C393.004 221.608 393.007 222.057 393.011 222.52C393.005 222.938 393 223.357 392.994 223.789C392.992 224.156 392.991 224.524 392.99 224.902C392.671 226.309 392.135 226.823 390.967 227.676C389.741 227.9 389.741 227.9 388.321 227.904C387.521 227.913 387.521 227.913 386.706 227.921C386.132 227.918 385.558 227.914 384.967 227.91C384.376 227.912 383.785 227.914 383.177 227.915C381.928 227.918 380.679 227.914 379.43 227.906C377.83 227.896 376.232 227.902 374.632 227.912C373.105 227.92 371.577 227.915 370.049 227.91C369.475 227.914 368.901 227.918 368.31 227.921C367.777 227.916 367.244 227.91 366.695 227.904C366.226 227.903 365.757 227.902 365.274 227.9C363.714 227.614 363.187 227.16 362.254 225.908C362.026 224.902 362.026 224.902 362.022 223.789C362.014 223.161 362.014 223.161 362.005 222.52C362.009 222.07 362.012 221.621 362.016 221.158C362.014 220.694 362.012 220.23 362.011 219.752C362.009 218.772 362.013 217.791 362.02 216.811C362.03 215.309 362.02 213.809 362.009 212.308C362.01 211.355 362.012 210.402 362.016 209.449C362.012 209 362.009 208.551 362.005 208.088C362.011 207.669 362.016 207.25 362.022 206.819C362.023 206.451 362.025 206.084 362.026 205.705C362.597 203.186 364.307 202.711 366.695 202.703ZM373.47 210.885C372.762 212.281 372.957 213.774 372.965 215.304C372.964 215.63 372.962 215.955 372.96 216.291C372.925 218.064 372.925 218.064 373.47 219.722C375.492 219.456 376.996 218.677 378.77 217.706C379.038 217.561 379.306 217.415 379.582 217.265C380.238 216.909 380.892 216.549 381.546 216.188C381.546 215.604 381.546 215.021 381.546 214.42C380.454 213.828 379.36 213.239 378.265 212.653C377.955 212.484 377.646 212.316 377.327 212.142C375.504 211.15 375.504 211.15 373.47 210.885Z" fill="#FFFCF1"/>
<path d="M397.111 209.899C398.282 210.284 398.282 210.284 399.29 210.778C399.334 213.935 399.365 217.092 399.386 220.25C399.395 221.324 399.407 222.399 399.422 223.473C399.443 225.016 399.453 226.56 399.46 228.103C399.469 228.584 399.478 229.065 399.488 229.56C399.488 230.233 399.488 230.233 399.488 230.919C399.492 231.313 399.496 231.707 399.5 232.113C399.213 233.567 398.733 234.066 397.547 234.931C396.295 235.142 396.295 235.142 394.828 235.13C394.278 235.13 393.729 235.13 393.162 235.13C392.565 235.121 391.967 235.111 391.37 235.102C390.756 235.099 390.143 235.096 389.53 235.095C387.919 235.088 386.308 235.071 384.698 235.051C383.053 235.033 381.408 235.025 379.763 235.016C376.537 234.998 373.312 234.968 370.087 234.931C369.596 233.915 369.596 233.915 369.215 232.735C369.503 232.3 369.79 231.865 370.087 231.417C371.168 231.259 371.168 231.259 372.546 231.268C373.061 231.268 373.576 231.268 374.106 231.268C374.943 231.278 374.943 231.278 375.797 231.289C376.367 231.291 376.936 231.293 377.523 231.294C379.038 231.299 380.553 231.312 382.068 231.327C383.613 231.34 385.159 231.346 386.704 231.353C389.737 231.367 392.77 231.39 395.803 231.417C395.8 231.161 395.797 230.904 395.794 230.64C395.766 227.976 395.746 225.312 395.731 222.647C395.725 221.652 395.716 220.657 395.705 219.662C395.689 218.234 395.681 216.806 395.676 215.378C395.669 214.931 395.662 214.485 395.655 214.024C395.655 213.611 395.655 213.198 395.655 212.772C395.652 212.407 395.649 212.043 395.646 211.667C395.698 211.373 395.75 211.08 395.803 210.778C396.235 210.488 396.666 210.198 397.111 209.899Z" fill="#FFFCF1"/>
<path d="M148.966 275.549C149.649 275.549 150.332 275.549 151.015 275.549C151.497 275.603 151.98 275.656 152.462 275.71C154.255 275.897 155.302 277.003 155.366 278.77C155.366 279.046 155.412 279.332 155.484 279.608C156.14 282.178 158.98 283.418 161.402 282.187C163.032 281.357 164.415 281.66 165.526 283.088C166.582 284.444 167.438 285.916 168.093 287.504C168.703 288.967 168.239 290.377 166.873 291.224C164.106 292.955 164.106 296.47 166.882 298.201C168.23 299.039 168.703 300.458 168.102 301.894C167.456 303.455 166.582 304.883 165.599 306.257C164.552 307.702 162.859 308.094 161.347 307.22C160.564 306.765 159.69 306.649 158.789 306.81C156.75 307.167 155.393 308.728 155.348 310.78C155.312 312.288 154.301 313.43 152.79 313.661C150.987 313.938 149.176 313.938 147.373 313.697C145.652 313.465 144.678 312.368 144.624 310.664C144.624 310.387 144.578 310.102 144.505 309.825C143.859 307.238 140.982 306.007 138.551 307.256C136.986 308.059 135.556 307.755 134.482 306.373C133.244 304.776 132.233 303.054 131.614 301.127V300.279C131.851 299.253 132.506 298.575 133.39 297.995C135.756 296.434 135.756 292.982 133.39 291.429C132.506 290.849 131.851 290.18 131.614 289.145V288.218C132.27 286.371 133.226 284.676 134.427 283.123C135.574 281.651 136.931 281.348 138.606 282.196C139.416 282.606 140.272 282.758 141.164 282.606C143.203 282.258 144.569 280.679 144.624 278.645C144.66 277.128 145.661 275.977 147.164 275.754C147.755 275.665 148.356 275.603 148.957 275.531L148.966 275.549ZM155.794 294.837C155.903 291.742 153.372 289.145 150.141 289.02C146.982 288.896 144.296 291.411 144.187 294.587C144.077 297.692 146.645 300.315 149.886 300.404C153.045 300.493 155.685 298.004 155.794 294.837Z" fill="#FFFCF1"/>
<path d="M302.339 60.2923C302.402 60.2922 302.465 60.2921 302.53 60.292C309.024 60.2979 315.324 63.2364 319.892 67.7975C320.016 67.9241 320.139 68.051 320.262 68.1781C320.487 68.4038 320.712 68.6278 320.94 68.85C321.443 69.3426 321.918 69.8397 322.355 70.3927C322.532 70.6133 322.714 70.8265 322.9 71.0394C324.135 72.468 324.135 72.468 324.13 73.5517C323.995 74.1846 323.537 74.677 323.132 75.1654C323.085 75.2234 323.037 75.2814 322.988 75.3411C322.841 75.5192 322.693 75.6965 322.546 75.8736C322.5 75.9281 322.455 75.9826 322.408 76.0387C321.936 76.6027 321.457 77.1466 320.929 77.6594C320.793 77.7954 320.672 77.9323 320.553 78.0829C320.334 78.341 320.099 78.549 319.842 78.7677C319.683 78.9069 319.537 79.0514 319.39 79.2034C319.005 79.594 318.576 79.9282 318.148 80.2711C318.055 80.3485 317.962 80.426 317.869 80.5036C314.147 83.5825 309.578 85.5492 304.787 86.1062C304.712 86.1149 304.638 86.1236 304.561 86.1326C303.875 86.2043 303.188 86.2112 302.498 86.2119C302.435 86.212 302.372 86.212 302.308 86.2121C295.813 86.2062 289.513 83.2678 284.945 78.7066C284.822 78.58 284.698 78.4532 284.575 78.3261C284.351 78.1003 284.125 77.8764 283.897 77.6541C283.395 77.1616 282.919 76.6644 282.482 76.1115C282.306 75.8909 282.123 75.6776 281.938 75.4647C280.703 74.0361 280.703 74.0361 280.708 72.9524C280.842 72.3195 281.301 71.8271 281.705 71.3387C281.753 71.2807 281.801 71.2227 281.85 71.163C281.996 70.985 282.144 70.8076 282.292 70.6305C282.337 70.576 282.383 70.5216 282.429 70.4655C282.901 69.9014 283.381 69.3576 283.909 68.8447C284.045 68.7087 284.165 68.5718 284.285 68.4212C284.503 68.1632 284.739 67.9551 284.996 67.7364C285.155 67.5972 285.301 67.4527 285.447 67.3007C285.833 66.9101 286.262 66.5759 286.689 66.233C286.783 66.1557 286.876 66.0781 286.969 66.0005C290.69 62.9216 295.259 60.955 300.051 60.398C300.162 60.3849 300.162 60.3849 300.276 60.3715C300.963 60.2999 301.65 60.2929 302.339 60.2923ZM295.626 67.2046C293.97 69.1623 293.187 71.5403 293.37 74.0977C293.534 75.9338 294.262 77.7019 295.484 79.0872C295.544 79.1583 295.604 79.2295 295.666 79.3029C297.138 81.0076 299.33 82.1024 301.573 82.3007C304.094 82.4564 306.275 81.7627 308.254 80.1865C308.316 80.1378 308.378 80.0891 308.441 80.0389C310.157 78.6194 311.219 76.368 311.467 74.1823C311.606 71.6988 311.029 69.3151 309.353 67.417C309.293 67.3458 309.233 67.2746 309.171 67.2013C307.699 65.4966 305.508 64.4018 303.264 64.2035C300.381 64.0254 297.581 65.0085 295.626 67.2046Z" fill="#FFFCF1"/>
<path d="M302.403 68.3099C302.484 68.3105 302.565 68.311 302.649 68.3116C303.6 68.333 304.411 68.5817 305.209 69.108C305.272 69.1485 305.334 69.1891 305.398 69.2309C306.411 69.95 307.105 71.1025 307.324 72.3215C307.469 73.827 307.256 75.1587 306.309 76.3807C305.49 77.3647 304.353 78.055 303.066 78.1751C301.586 78.2677 300.288 77.9948 299.125 77.0169C298.097 76.0448 297.525 74.8866 297.474 73.4714C297.457 71.9728 297.896 70.8212 298.927 69.7214C299.876 68.7857 301.074 68.2953 302.403 68.3099Z" fill="#FFFCF1"/>
<path d="M51.7242 136.123C52.5267 136.546 53.126 137.176 53.7545 137.816C53.888 137.95 54.0216 138.084 54.1553 138.217C54.5154 138.577 54.8736 138.938 55.2314 139.301C55.6067 139.68 55.9837 140.057 56.3605 140.434C57.0726 141.148 57.7831 141.864 58.4931 142.58C59.302 143.396 60.1126 144.21 60.9233 145.023C62.59 146.696 64.2544 148.371 65.9175 150.048C66.3474 149.865 66.6221 149.614 66.9502 149.284C67.0597 149.175 67.1692 149.065 67.2821 148.953C67.4025 148.831 67.523 148.709 67.6434 148.587C67.7709 148.459 67.8985 148.332 68.0261 148.204C68.3006 147.928 68.5748 147.653 68.8487 147.377C69.2821 146.94 69.7164 146.504 70.1508 146.069C71.1516 145.065 72.1512 144.06 73.1507 143.055C74.0663 142.135 74.9821 141.215 75.8988 140.295C76.3304 139.863 76.7613 139.429 77.1918 138.996C77.4602 138.725 77.7291 138.456 77.9981 138.186C78.1225 138.061 78.2466 137.936 78.3705 137.811C78.5401 137.64 78.7106 137.469 78.8811 137.299C78.9762 137.203 79.0712 137.108 79.169 137.009C79.8986 136.352 80.5471 136.087 81.5166 136.021C82.3224 136.087 82.9463 136.454 83.4817 137.049C83.9658 137.74 84.1076 138.37 84.0291 139.212C83.8822 139.887 83.572 140.305 83.1022 140.805C83.0434 140.867 82.9846 140.93 82.9241 140.995C82.2645 141.696 81.5866 142.379 80.9065 143.059C80.7661 143.2 80.6257 143.341 80.4853 143.482C80.1086 143.861 79.7315 144.238 79.3543 144.616C79.1181 144.853 78.8819 145.09 78.6457 145.326C77.9048 146.069 77.1636 146.811 76.4221 147.553C75.5694 148.406 74.7175 149.26 73.8663 150.115C73.2053 150.779 72.5436 151.442 71.8815 152.104C71.4871 152.498 71.0931 152.893 70.6997 153.289C70.3304 153.66 69.9602 154.03 69.5894 154.4C69.4539 154.536 69.3188 154.671 69.184 154.807C67.3638 156.643 67.3638 156.643 66.0686 156.729C64.2753 156.686 63.0669 154.955 61.885 153.778C61.7393 153.633 61.5936 153.488 61.4478 153.344C60.974 152.873 60.5008 152.402 60.0276 151.93C59.8637 151.767 59.6999 151.604 59.536 151.441C58.8545 150.762 58.1731 150.083 57.4922 149.403C56.5204 148.433 55.5475 147.464 54.5733 146.497C53.8857 145.814 53.1992 145.13 52.5136 144.445C52.1051 144.037 51.6962 143.629 51.2859 143.223C50.9004 142.841 50.5163 142.458 50.1333 142.073C49.9931 141.933 49.8523 141.794 49.7111 141.654C48.808 140.764 47.9307 139.889 47.8242 138.56C47.8665 137.871 48.0913 137.298 48.5044 136.746C49.4422 135.937 50.5529 135.567 51.7242 136.123Z" fill="#FFFCF1"/>
<path d="M165.633 158.777C167.51 160.655 167.51 163.682 165.633 165.54C164.699 166.484 163.47 166.946 162.261 166.946C161.052 166.946 159.804 166.484 158.87 165.54L148.933 155.602L138.986 165.54C138.042 166.484 136.823 166.946 135.595 166.946C134.366 166.946 133.147 166.484 132.223 165.54C130.346 163.682 130.346 160.645 132.223 158.777L142.171 148.839L132.223 138.892C130.346 137.014 130.346 133.987 132.223 132.129C134.081 130.251 137.118 130.251 138.986 132.129L148.933 142.077L158.87 132.129C160.748 130.251 163.765 130.251 165.633 132.129C167.51 133.987 167.51 137.024 165.633 138.892L155.695 148.839L165.633 158.777Z" fill="#FFFCF1"/>
<path d="M84.4729 67.0478V88.4105C84.4467 88.4719 84.4206 88.5422 84.4032 88.6036C83.8981 90.7715 82.3826 91.9914 80.1966 92.0002C78.0628 92.0002 75.9291 92.0002 73.7953 92.0002C72.0447 92.0002 70.9125 90.8505 70.9038 89.0863C70.9038 86.6903 70.9038 84.303 70.9038 81.9069C70.9038 80.9239 70.3551 80.3797 69.371 80.3797C67.2372 80.3797 65.1034 80.3797 62.9696 80.3797C61.9245 80.3797 61.402 80.9063 61.402 81.9508C61.402 84.3293 61.402 86.7078 61.402 89.0863C61.402 90.8505 60.2611 92.0002 58.5105 92.0002C56.3593 92.0002 54.2168 92.0002 52.0656 92.0002C51.8392 92.0002 51.6128 92.0002 51.3863 91.9651C49.2177 91.6228 47.8329 89.964 47.8329 87.7171C47.8329 81.1082 47.8416 74.4993 47.8242 67.8904C47.8242 66.5387 48.3468 65.6084 49.4964 64.915C54.4694 61.9309 59.4424 58.938 64.3893 55.91C65.6173 55.1552 66.7321 55.1728 67.9514 55.9188C72.8198 58.8941 77.697 61.8431 82.5829 64.7658C83.4974 65.3188 84.2116 65.9682 84.4641 67.039L84.4729 67.0478Z" fill="#FFFCF1"/>
<path d="M231.184 130.727C235.953 130.601 240.811 132.29 244.313 135.57C245.199 136.412 246.059 137.261 246.771 138.258C246.829 138.337 246.888 138.417 246.948 138.499C248.063 140.06 248.97 141.798 249.537 143.633C249.556 143.694 249.575 143.755 249.595 143.818C251.054 148.487 250.658 153.656 248.388 158.004C248.336 158.103 248.283 158.201 248.231 158.3C248.204 158.35 248.178 158.4 248.151 158.451C247.338 159.989 246.277 161.341 245.081 162.6C245.023 162.662 245.023 162.662 244.964 162.724C244.356 163.362 243.714 163.92 243.007 164.443C242.963 164.476 242.919 164.509 242.874 164.543C242.202 165.043 241.506 165.488 240.779 165.902C240.734 165.928 240.688 165.955 240.641 165.982C236.447 168.385 231.278 168.766 226.659 167.524C224.235 166.839 222.005 165.706 220.039 164.136C219.994 164.1 219.95 164.065 219.904 164.028C218.765 163.108 217.693 162.068 216.829 160.884C216.736 160.758 216.642 160.633 216.547 160.509C215.97 159.742 215.5 158.913 215.046 158.07C215.014 158.011 214.983 157.952 214.95 157.892C214.062 156.212 213.515 154.331 213.202 152.464C213.193 152.408 213.183 152.352 213.174 152.295C213.05 151.537 213.001 150.773 212.972 150.007C212.967 149.882 212.967 149.882 212.962 149.755C212.922 147.594 213.28 145.447 213.971 143.403C213.987 143.352 214.004 143.301 214.021 143.249C214.668 141.306 215.687 139.47 216.966 137.874C217.052 137.764 217.052 137.764 217.14 137.653C218.118 136.451 219.238 135.319 220.5 134.418C220.581 134.359 220.663 134.3 220.747 134.239C223.814 132.061 227.421 130.839 231.184 130.727ZM230.717 138.104C230.104 138.869 229.851 139.74 229.948 140.715C230.082 141.633 230.527 142.434 231.254 143.019C232.123 143.639 232.97 143.8 234.02 143.71C234.854 143.553 235.615 143.074 236.144 142.409C236.769 141.452 236.936 140.494 236.738 139.374C236.441 138.38 235.765 137.648 234.865 137.158C233.387 136.481 231.791 136.963 230.717 138.104ZM226.628 148.899C226.452 149.124 226.452 149.124 226.415 149.392C226.692 149.727 226.912 149.835 227.332 149.93C227.766 150.042 228.031 150.137 228.335 150.467C228.699 151.195 228.25 152.311 228.062 153.047C228.026 153.192 227.99 153.337 227.954 153.481C227.86 153.86 227.764 154.239 227.669 154.618C227.516 155.224 227.364 155.83 227.213 156.437C227.16 156.647 227.107 156.857 227.054 157.067C226.654 158.609 226.654 158.609 227.061 160.111C227.431 160.638 227.939 160.931 228.566 161.064C230.79 161.231 233.152 160.648 234.895 159.193C235.071 159.015 235.173 158.845 235.249 158.607C235.191 158.351 235.191 158.351 234.917 158.228C234.572 158.064 234.212 157.955 233.846 157.849C233.61 157.752 233.489 157.65 233.328 157.455C233.154 156.931 233.259 156.399 233.391 155.876C233.406 155.815 233.421 155.753 233.436 155.689C233.485 155.488 233.535 155.287 233.585 155.085C233.619 154.945 233.653 154.804 233.688 154.663C233.777 154.293 233.868 153.923 233.959 153.554C234.052 153.178 234.143 152.802 234.235 152.426C234.338 152.003 234.441 151.58 234.545 151.158C234.561 151.093 234.576 151.029 234.593 150.963C234.622 150.844 234.651 150.724 234.681 150.605C234.908 149.677 235.076 148.64 234.557 147.78C234.143 147.262 233.591 146.972 232.944 146.858C230.97 146.661 227.982 147.332 226.628 148.899Z" fill="#FFFCF1"/>
<path d="M283.008 131.578C283.064 131.577 283.121 131.577 283.178 131.577C283.368 131.576 283.557 131.577 283.747 131.577C283.883 131.577 284.02 131.577 284.157 131.576C284.533 131.576 284.91 131.576 285.286 131.576C285.692 131.576 286.098 131.576 286.504 131.575C287.299 131.574 288.094 131.574 288.89 131.574C289.536 131.574 290.182 131.574 290.828 131.574C290.92 131.574 291.012 131.574 291.107 131.574C291.293 131.574 291.48 131.574 291.667 131.573C292.92 131.573 294.174 131.573 295.427 131.573C295.476 131.573 295.525 131.573 295.576 131.573C295.824 131.573 296.073 131.573 296.321 131.573C296.371 131.573 296.42 131.573 296.471 131.573C296.571 131.573 296.671 131.573 296.77 131.573C298.324 131.574 299.877 131.573 301.431 131.572C303.175 131.57 304.92 131.569 306.664 131.57C307.588 131.57 308.512 131.57 309.436 131.569C310.223 131.568 311.01 131.568 311.796 131.569C312.198 131.569 312.599 131.569 313.001 131.568C313.368 131.567 313.735 131.568 314.103 131.569C314.236 131.569 314.369 131.569 314.502 131.568C314.683 131.567 314.863 131.568 315.044 131.569C315.096 131.568 315.148 131.568 315.201 131.567C315.634 131.572 315.908 131.692 316.226 131.984C316.559 132.359 316.682 132.598 316.693 133.11C316.696 133.187 316.698 133.265 316.701 133.345C316.635 133.897 316.295 134.322 315.974 134.757C315.892 134.871 315.81 134.984 315.728 135.098C315.686 135.156 315.644 135.215 315.6 135.275C315.389 135.57 315.183 135.869 314.978 136.169C314.663 136.626 314.345 137.08 314.021 137.531C313.706 137.969 313.4 138.413 313.1 138.861C312.796 139.315 312.485 139.761 312.162 140.202C311.887 140.579 311.62 140.962 311.353 141.346C311.097 141.716 310.836 142.082 310.573 142.447C310.256 142.89 309.947 143.339 309.643 143.792C309.339 144.245 309.028 144.691 308.706 145.132C308.318 145.662 307.945 146.203 307.571 146.743C307.142 147.361 306.712 147.977 306.275 148.588C305.817 149.227 305.367 149.871 304.924 150.52C304.86 150.613 304.797 150.706 304.733 150.799C304.141 151.658 304.001 152.462 304.007 153.494C304.007 153.61 304.006 153.726 304.006 153.842C304.005 154.09 304.004 154.338 304.005 154.586C304.006 154.979 304.004 155.372 304.003 155.765C304.001 156.386 304 157.007 304 157.629C303.999 158.742 303.997 159.855 303.994 160.968C303.993 161.358 303.992 161.748 303.992 162.138C303.992 162.381 303.992 162.624 303.991 162.867C303.991 162.979 303.991 163.091 303.991 163.203C303.995 164.611 303.995 164.611 303.55 165.178C303.235 165.483 302.872 165.61 302.472 165.761C302.399 165.79 302.327 165.818 302.252 165.846C302.015 165.938 301.777 166.029 301.539 166.12C301.375 166.183 301.211 166.247 301.046 166.31C300.624 166.473 300.201 166.635 299.779 166.797C299.457 166.92 299.136 167.043 298.815 167.167C298.19 167.407 297.566 167.646 296.94 167.885C296.884 167.907 296.827 167.928 296.768 167.951C296.212 168.162 295.638 168.333 295.052 168.114C294.634 167.861 294.314 167.512 294.167 167.036C294.154 166.838 294.148 166.648 294.149 166.45C294.149 166.392 294.149 166.333 294.148 166.273C294.148 166.076 294.148 165.88 294.148 165.684C294.148 165.543 294.147 165.402 294.147 165.261C294.146 164.958 294.146 164.654 294.146 164.351C294.146 163.871 294.144 163.391 294.143 162.911C294.139 161.717 294.137 160.524 294.136 159.331C294.135 158.405 294.133 157.478 294.13 156.552C294.128 156.075 294.128 155.598 294.128 155.121C294.128 154.824 294.127 154.526 294.126 154.229C294.125 154.091 294.125 153.954 294.125 153.817C294.129 152.382 293.832 151.349 292.959 150.202C292.68 149.835 292.417 149.459 292.161 149.075C291.823 148.568 291.475 148.069 291.12 147.574C290.863 147.216 290.609 146.856 290.358 146.493C290.07 146.079 289.779 145.667 289.485 145.256C289.117 144.743 288.757 144.225 288.399 143.704C288.126 143.307 287.848 142.914 287.567 142.523C287.253 142.087 286.949 141.644 286.65 141.197C286.332 140.721 286.001 140.259 285.658 139.801C285.384 139.435 285.125 139.059 284.87 138.679C284.628 138.318 284.377 137.964 284.123 137.611C283.764 137.111 283.417 136.603 283.074 136.091C282.831 135.73 282.582 135.376 282.325 135.025C281.307 133.636 281.307 133.636 281.399 132.81C281.544 132.271 281.836 131.962 282.289 131.663C282.527 131.568 282.756 131.576 283.008 131.578Z" fill="#FFFCF1"/>
<path d="M366.371 129.181C366.371 128.628 366.819 128.181 367.371 128.181C375.926 128.181 384.491 128.181 393.287 128.181C393.839 128.181 394.287 128.628 394.287 129.181C394.287 129.23 394.287 129.279 394.287 129.328C394.287 129.88 393.839 130.328 393.287 130.328C393.144 130.328 393 130.328 392.855 130.328C392.46 130.328 392.14 130.649 392.14 131.044V131.044C391.944 134.279 390.925 137.472 388.847 139.991C388.799 140.05 388.799 140.05 388.751 140.11C388.039 140.98 387.255 141.793 386.4 142.525C386.268 142.642 386.143 142.764 386.02 142.89C385.849 143.064 385.672 143.228 385.487 143.387C384.631 144.133 383.78 145.027 383.667 146.208C383.614 147.353 384.06 148.114 384.803 148.952C385.202 149.384 385.612 149.789 386.058 150.173C386.194 150.294 386.322 150.419 386.449 150.549C386.613 150.716 386.781 150.872 386.959 151.023C387.656 151.627 388.282 152.292 388.847 153.019C388.905 153.091 388.963 153.163 389.023 153.237C390.914 155.602 391.927 158.663 392.109 161.683C392.143 162.234 392.587 162.682 393.14 162.682C393.189 162.682 393.238 162.682 393.287 162.682C393.839 162.682 394.287 163.13 394.287 163.682C394.287 163.731 394.287 163.78 394.287 163.829C394.287 164.382 393.839 164.829 393.287 164.829C384.732 164.829 376.168 164.829 367.371 164.829C366.819 164.829 366.371 164.382 366.371 163.829C366.371 163.78 366.371 163.731 366.371 163.682C366.371 163.13 366.819 162.682 367.371 162.682C367.514 162.682 367.658 162.682 367.803 162.682C368.198 162.682 368.518 162.361 368.518 161.966V161.966C368.714 158.731 369.733 155.538 371.811 153.019C371.843 152.98 371.875 152.941 371.907 152.9C372.619 152.03 373.403 151.217 374.258 150.485C374.39 150.368 374.515 150.246 374.639 150.12C374.81 149.946 374.986 149.782 375.171 149.623C376.027 148.877 376.878 147.983 376.991 146.802C377.044 145.657 376.598 144.896 375.855 144.058C375.456 143.626 375.046 143.221 374.6 142.837C374.465 142.716 374.336 142.59 374.209 142.461C374.045 142.294 373.877 142.138 373.699 141.987C373.002 141.383 372.377 140.718 371.811 139.991C371.724 139.883 371.724 139.883 371.635 139.773C369.744 137.408 368.732 134.347 368.549 131.327C368.515 130.776 368.071 130.328 367.518 130.328C367.469 130.328 367.42 130.328 367.371 130.328C366.819 130.328 366.371 129.88 366.371 129.328C366.371 129.279 366.371 129.23 366.371 129.181ZM371.778 130.328C371.21 130.328 370.745 130.801 370.788 131.367C370.812 131.684 370.848 131.959 370.93 132.578C370.942 132.646 370.954 132.713 370.967 132.782C371.087 133.417 371.255 134.038 371.446 134.653C371.574 135.064 371.958 135.339 372.389 135.339C377.628 135.339 382.873 135.339 388.257 135.339C388.693 135.339 389.081 135.056 389.207 134.639C389.402 133.995 389.576 133.357 389.706 132.69C389.729 132.573 389.729 132.573 389.753 132.453C389.816 132.09 389.849 131.736 389.871 131.378C389.906 130.807 389.441 130.328 388.869 130.328C383.226 130.328 377.574 130.328 371.778 130.328ZM379.216 147.364C379.197 147.364 379.181 147.377 379.176 147.395C379.164 147.445 379.152 147.496 379.139 147.548C378.635 149.465 377.34 150.784 375.871 152.052C375.728 152.177 375.594 152.309 375.462 152.446C375.283 152.628 375.102 152.797 374.907 152.961C374.062 153.693 373.113 154.746 372.472 155.858C372.087 156.526 372.723 157.139 373.435 156.845C373.467 156.832 373.498 156.819 373.529 156.806C373.712 156.73 373.894 156.655 374.076 156.581C374.733 156.31 375.39 156.037 376.045 155.763C376.241 155.681 376.437 155.6 376.632 155.518C376.817 155.441 377.001 155.363 377.185 155.286C377.301 155.237 377.417 155.189 377.533 155.141C377.583 155.12 377.633 155.098 377.684 155.077C377.978 154.954 378.273 154.849 378.571 154.749C378.979 154.611 379.255 154.232 379.255 153.801C379.255 151.692 379.255 149.576 379.255 147.404C379.255 147.382 379.238 147.364 379.216 147.364V147.364ZM381.442 147.364C381.421 147.364 381.403 147.381 381.403 147.403C381.403 149.518 381.403 151.634 381.403 153.801C381.403 154.232 381.678 154.614 382.087 154.75C382.215 154.793 382.345 154.836 382.476 154.88C382.693 154.963 382.907 155.048 383.12 155.138C383.176 155.161 383.232 155.185 383.289 155.209C383.407 155.258 383.526 155.308 383.644 155.357C383.832 155.437 384.02 155.515 384.209 155.594C384.474 155.704 384.739 155.815 385.004 155.926C385.615 156.182 386.226 156.437 386.837 156.692C387.027 156.771 387.217 156.85 387.407 156.93C387.524 156.979 387.641 157.027 387.758 157.076C387.811 157.098 387.863 157.12 387.917 157.143V157.143C388.306 157.304 388.659 156.927 388.478 156.547C388.002 155.549 387.332 154.641 386.577 153.837C386.44 153.692 386.312 153.543 386.185 153.39C385.819 152.969 385.396 152.602 384.987 152.225C384.596 151.865 384.208 151.502 383.823 151.137C383.741 151.06 383.66 150.983 383.578 150.907C382.553 149.948 381.757 148.788 381.481 147.396C381.477 147.377 381.461 147.364 381.442 147.364V147.364Z" fill="#FFFCF1"/>
<path d="M373.701 54.5144C373.871 54.5141 374.041 54.5138 374.211 54.5135C374.67 54.5127 375.129 54.5125 375.589 54.5125C375.876 54.5124 376.164 54.5122 376.452 54.512C377.457 54.5112 378.463 54.5108 379.469 54.5109C380.403 54.5109 381.337 54.51 382.271 54.5086C383.076 54.5075 383.881 54.507 384.685 54.5071C385.165 54.5071 385.644 54.5069 386.123 54.5059C386.575 54.5051 387.026 54.5051 387.478 54.5057C387.642 54.5058 387.806 54.5056 387.971 54.5051C389.328 54.5009 390.679 54.5663 392.003 54.8935C392.117 54.9214 392.117 54.9214 392.234 54.9499C394.46 55.5221 396.612 56.9106 397.81 58.9016C399.159 61.2032 399.485 63.5706 399.485 66.2015C399.485 66.3715 399.485 66.5415 399.486 66.7115C399.486 67.1707 399.487 67.6298 399.487 68.089C399.487 68.3767 399.487 68.6644 399.487 68.952C399.488 69.958 399.488 70.9639 399.488 71.9698C399.488 72.9037 399.489 73.8376 399.49 74.7715C399.492 75.5764 399.492 76.3813 399.492 77.1861C399.492 77.6655 399.492 78.1448 399.493 78.6242C399.494 79.0756 399.494 79.527 399.493 79.9784C399.493 80.1429 399.493 80.3073 399.494 80.4717C399.498 81.8291 399.433 83.18 399.106 84.5036C399.087 84.58 399.068 84.6563 399.049 84.735C398.477 86.9606 397.089 89.1135 395.098 90.3108C392.8 91.658 390.372 92.0011 387.747 91.9972C387.577 91.9975 387.408 91.998 387.239 91.9985C386.784 91.9997 386.329 91.9997 385.875 91.9995C385.492 91.9994 385.11 91.9999 384.728 92.0003C383.825 92.0012 382.922 92.0013 382.019 92.0008C381.093 92.0002 380.167 92.0013 379.242 92.0032C378.442 92.0047 377.642 92.0052 376.842 92.0049C376.366 92.0048 375.891 92.005 375.415 92.0062C371.47 92.0156 367.771 91.8684 364.767 88.9656C362.479 86.617 362.013 83.439 362.014 80.2987C362.014 80.1287 362.014 79.9587 362.013 79.7887C362.013 79.3296 362.013 78.8704 362.012 78.4112C362.012 78.1235 362.012 77.8359 362.012 77.5482C362.011 76.5423 362.011 75.5364 362.011 74.5305C362.011 73.5966 362.01 72.6627 362.009 71.7287C362.007 70.9239 362.007 70.119 362.007 69.3141C362.007 68.8347 362.007 68.3554 362.006 67.876C362.005 67.4246 362.005 66.9732 362.006 66.5218C362.006 66.3574 362.006 66.193 362.005 66.0286C362.001 64.6712 362.066 63.3203 362.393 61.9966C362.412 61.9203 362.431 61.8439 362.45 61.7653C363.021 59.545 364.407 57.3794 366.401 56.1894C368.705 54.8412 371.069 54.5136 373.701 54.5144ZM374.227 64.3493C374.157 64.4187 374.088 64.4881 374.017 64.5596C373.798 64.7801 373.58 65.0015 373.362 65.2228C373.213 65.373 373.064 65.5232 372.915 65.6733C372.551 66.0401 372.188 66.4077 371.826 66.7758C371.58 66.6618 371.421 66.5548 371.208 66.3766C370.868 66.0944 370.614 66.0439 370.174 66.052C369.793 66.101 369.512 66.2708 369.26 66.5578C369.033 66.9011 368.986 67.2172 368.98 67.6237C369.124 68.2521 369.71 68.7166 370.147 69.1545C370.25 69.2603 370.25 69.2603 370.354 69.3682C370.776 69.7923 371.138 70.1468 371.758 70.2067C371.811 70.1987 371.864 70.1907 371.919 70.1825C371.972 70.176 372.025 70.1696 372.08 70.163C372.542 70.005 372.897 69.6644 373.237 69.3269C373.279 69.2861 373.32 69.2452 373.363 69.2031C373.498 69.0692 373.633 68.9347 373.768 68.8001C373.863 68.7059 373.957 68.6117 374.052 68.5176C374.25 68.3207 374.448 68.1235 374.645 67.9261C374.897 67.674 375.15 67.4231 375.404 67.1725C375.6 66.9786 375.795 66.7839 375.989 66.589C376.083 66.4962 376.176 66.4037 376.269 66.3114C376.4 66.1821 376.53 66.0517 376.66 65.921C376.734 65.8472 376.808 65.7735 376.884 65.6975C377.143 65.3804 377.313 65.0535 377.362 64.6405C377.306 64.1142 377.128 63.7967 376.725 63.4512C375.711 62.8375 374.901 63.661 374.227 64.3493ZM380.197 66.6172C379.992 66.959 379.935 67.2535 379.962 67.6507C380.078 68.06 380.247 68.299 380.58 68.5639C380.91 68.7393 381.147 68.7991 381.515 68.801C381.643 68.8019 381.643 68.8019 381.774 68.8029C381.914 68.8032 381.914 68.8032 382.058 68.8036C382.157 68.8041 382.255 68.8047 382.357 68.8053C382.685 68.807 383.012 68.8081 383.34 68.8089C383.451 68.8093 383.563 68.8096 383.678 68.81C384.209 68.8117 384.74 68.8129 385.271 68.8137C385.883 68.8145 386.494 68.8168 387.106 68.8204C387.637 68.8233 388.167 68.8243 388.698 68.8247C388.923 68.8251 389.149 68.8261 389.374 68.8278C389.689 68.8299 390.005 68.8298 390.321 68.8292C390.413 68.8303 390.506 68.8314 390.602 68.8326C391.153 68.8287 391.577 68.7595 392.035 68.4381C392.396 68.059 392.507 67.751 392.497 67.2242C392.456 66.909 392.342 66.6562 392.123 66.4258C391.582 66.0345 391.133 66.0258 390.478 66.0306C390.375 66.03 390.273 66.0294 390.167 66.0287C389.829 66.0272 389.491 66.0282 389.153 66.0294C388.918 66.0293 388.683 66.0288 388.448 66.0284C387.955 66.0277 387.463 66.0286 386.97 66.0303C386.402 66.0322 385.833 66.0315 385.265 66.0296C384.775 66.028 384.286 66.0278 383.797 66.0287C383.505 66.0293 383.214 66.0292 382.922 66.0282C382.597 66.0273 382.271 66.0286 381.946 66.0306C381.802 66.0295 381.802 66.0295 381.655 66.0284C380.978 66.036 380.689 66.1518 380.197 66.6172ZM374.403 77.3116C374.259 77.4587 374.115 77.6058 373.971 77.7528C373.745 77.9848 373.519 78.2171 373.294 78.4499C373.076 78.6747 372.857 78.8982 372.637 79.1216C372.57 79.192 372.502 79.2624 372.433 79.335C372.37 79.399 372.307 79.463 372.242 79.5289C372.187 79.5858 372.131 79.6427 372.075 79.7013C371.913 79.8119 371.913 79.8119 371.734 79.7992C371.464 79.6809 371.263 79.4751 371.038 79.287C370.698 79.0846 370.397 79.0873 370.013 79.1404C369.611 79.2594 369.314 79.5382 369.099 79.8929C369.019 80.092 368.997 80.2431 368.993 80.4572C368.991 80.521 368.988 80.5848 368.986 80.6506C369.111 81.3054 369.752 81.7919 370.202 82.2398C370.313 82.353 370.313 82.353 370.426 82.4684C370.498 82.5405 370.57 82.6126 370.644 82.6868C370.709 82.7522 370.775 82.8176 370.842 82.8849C371.232 83.2104 371.588 83.268 372.088 83.2241C372.493 83.0541 372.768 82.8404 373.078 82.5319C373.121 82.4893 373.165 82.4468 373.209 82.4029C373.35 82.2631 373.491 82.1223 373.631 81.9814C373.73 81.8832 373.828 81.785 373.927 81.6868C374.133 81.4813 374.339 81.2754 374.545 81.069C374.807 80.8055 375.071 80.5434 375.335 80.2816C375.539 80.0792 375.742 79.8761 375.945 79.6727C376.042 79.5757 376.14 79.479 376.237 79.3826C376.374 79.2474 376.509 79.1111 376.644 78.9745C376.721 78.8974 376.798 78.8203 376.878 78.7408C377.133 78.4282 377.317 78.1032 377.356 77.6927C377.293 77.2747 377.188 76.9868 376.9 76.6623C375.856 75.9456 375.171 76.5125 374.403 77.3116ZM380.192 79.6971C379.993 80.1033 379.872 80.5047 380.02 80.9486C380.249 81.3823 380.549 81.6698 381.012 81.8242C381.153 81.8326 381.294 81.836 381.435 81.8365C381.522 81.837 381.61 81.8375 381.7 81.838C381.795 81.8381 381.891 81.8382 381.989 81.8383C382.09 81.8387 382.191 81.8392 382.294 81.8396C382.628 81.8409 382.963 81.8415 383.297 81.842C383.47 81.8424 383.643 81.8427 383.816 81.8431C384.299 81.8441 384.782 81.8448 385.264 81.8451C385.888 81.8455 386.512 81.847 387.136 81.8496C387.618 81.8515 388.101 81.8523 388.583 81.8525C388.871 81.8526 389.159 81.8532 389.447 81.8546C389.769 81.8561 390.09 81.856 390.412 81.8554C390.507 81.8562 390.602 81.857 390.7 81.8578C391.25 81.8548 391.671 81.8204 392.092 81.4274C392.427 80.9889 392.529 80.7166 392.473 80.1619C392.31 79.7012 392.07 79.48 391.686 79.1995C391.43 79.1144 391.266 79.1004 391 79.0991C390.913 79.0985 390.826 79.0979 390.736 79.0972C390.641 79.097 390.546 79.0968 390.447 79.0965C390.296 79.0956 390.296 79.0956 390.142 79.0948C389.809 79.093 389.475 79.092 389.142 79.0911C389.028 79.0908 388.914 79.0904 388.797 79.0901C388.256 79.0884 387.716 79.0872 387.175 79.0864C386.552 79.0856 385.929 79.0833 385.306 79.0797C384.824 79.0771 384.342 79.0758 383.86 79.0755C383.572 79.0753 383.284 79.0744 382.997 79.0723C382.676 79.0702 382.354 79.0703 382.033 79.0709C381.938 79.0698 381.844 79.0686 381.746 79.0675C381.07 79.0721 380.655 79.1729 380.192 79.6971Z" fill="#FFFCF1"/>
<path d="M394.427 310.054H365.81C365.81 310.054 365.775 310.01 365.748 310.01C363.78 309.478 362.885 308.317 362.885 306.278C362.885 299.948 362.885 293.619 362.885 287.289C362.885 287.13 362.885 286.979 362.885 286.819H397.361C397.361 287.014 397.361 287.174 397.361 287.334C397.361 293.636 397.361 299.939 397.361 306.242C397.361 306.429 397.361 306.624 397.353 306.81C397.29 308.264 396.289 309.522 394.888 309.921C394.737 309.966 394.587 310.019 394.436 310.063L394.427 310.054ZM370.651 300.578C370.358 300.578 370.057 300.578 369.764 300.578C368.789 300.604 368.097 301.296 368.071 302.271C368.053 302.847 368.062 303.432 368.071 304.008C368.089 304.984 368.754 305.693 369.729 305.737C370.332 305.773 370.943 305.764 371.546 305.737C372.512 305.693 373.177 305.019 373.23 304.062C373.257 303.459 373.266 302.847 373.23 302.244C373.177 301.251 372.468 300.595 371.466 300.578C371.2 300.578 370.925 300.578 370.66 300.578H370.651ZM382.707 303.193C382.707 302.883 382.707 302.572 382.707 302.262C382.681 301.322 381.98 300.613 381.041 300.587C380.438 300.569 379.826 300.569 379.223 300.587C378.266 300.613 377.557 301.331 377.539 302.298C377.53 302.847 377.539 303.397 377.539 303.955C377.548 304.966 378.222 305.702 379.232 305.746C379.826 305.773 380.42 305.773 381.005 305.746C382.016 305.702 382.698 304.975 382.707 303.964C382.707 303.707 382.707 303.45 382.707 303.193ZM392.184 293.699C392.184 293.415 392.184 293.131 392.184 292.847C392.166 291.828 391.484 291.119 390.464 291.083C389.888 291.066 389.303 291.066 388.727 291.083C387.752 291.119 387.06 291.801 387.016 292.777C386.989 293.371 386.989 293.964 387.016 294.55C387.06 295.551 387.76 296.225 388.753 296.243C389.321 296.252 389.888 296.252 390.447 296.243C391.466 296.216 392.149 295.525 392.175 294.496C392.175 294.23 392.175 293.956 392.175 293.69L392.184 293.699ZM380.11 296.252C380.402 296.252 380.704 296.252 380.996 296.252C381.98 296.225 382.69 295.507 382.707 294.523C382.716 293.973 382.707 293.424 382.707 292.865C382.698 291.855 382.016 291.128 381.005 291.083C380.411 291.057 379.817 291.057 379.232 291.083C378.239 291.128 377.557 291.855 377.539 292.839C377.539 293.415 377.53 294 377.539 294.576C377.565 295.498 378.266 296.207 379.179 296.243C379.489 296.26 379.8 296.243 380.11 296.243V296.252ZM370.624 296.243C370.908 296.243 371.191 296.252 371.475 296.243C372.477 296.216 373.177 295.56 373.23 294.558C373.257 293.964 373.257 293.371 373.23 292.785C373.186 291.81 372.503 291.128 371.528 291.083C370.934 291.057 370.34 291.057 369.755 291.083C368.762 291.128 368.089 291.837 368.071 292.839C368.062 293.441 368.053 294.053 368.071 294.656C368.106 295.516 368.798 296.198 369.658 296.243C369.977 296.26 370.305 296.243 370.624 296.243ZM389.631 300.578C389.347 300.578 389.064 300.578 388.78 300.578C387.76 300.595 387.051 301.269 387.016 302.289C386.989 302.865 386.998 303.45 387.016 304.026C387.051 305.001 387.734 305.693 388.709 305.737C389.312 305.764 389.924 305.773 390.526 305.737C391.51 305.684 392.166 304.984 392.184 304C392.193 303.406 392.202 302.812 392.184 302.227C392.149 301.305 391.457 300.613 390.526 300.578C390.234 300.569 389.932 300.578 389.64 300.578H389.631Z" fill="#FFFCF1"/>
<path d="M393.053 276.454C394.56 276.312 395.819 276.64 396.715 277.872C397.087 278.387 397.326 278.954 397.335 279.592C397.353 281.356 397.344 283.12 397.353 284.885C397.353 284.92 397.335 284.964 397.318 285.026H362.885C362.885 284.858 362.885 284.716 362.885 284.574C362.885 283.103 362.938 281.64 362.876 280.168C362.788 277.935 364.516 276.294 366.635 276.427C366.804 276.436 366.981 276.427 367.158 276.427C367.194 276.942 367.185 277.429 367.265 277.899C367.575 279.672 369.126 280.842 370.97 280.709C372.646 280.594 374.011 279.14 374.073 277.394C374.082 277.083 374.073 276.782 374.073 276.445H386.165C386.165 276.747 386.156 277.066 386.165 277.385C386.254 279.965 388.984 281.543 391.245 280.301C392.388 279.681 392.974 278.679 393.045 277.385C393.062 277.075 393.045 276.773 393.045 276.445L393.053 276.454Z" fill="#FFFCF1"/>
<path d="M372.361 276.393C372.361 276.712 372.37 277.04 372.361 277.36C372.326 278.237 371.643 278.946 370.783 279.009C369.897 279.079 369.064 278.485 368.966 277.59C368.886 276.819 368.886 276.03 368.966 275.259C369.055 274.381 369.861 273.796 370.739 273.84C371.599 273.885 372.308 274.585 372.353 275.454C372.37 275.764 372.353 276.074 372.353 276.384L372.361 276.393Z" fill="#FFFCF1"/>
<path d="M387.885 276.41C387.885 276.118 387.885 275.816 387.885 275.524C387.911 274.628 388.603 273.901 389.481 273.848C390.376 273.786 391.192 274.389 391.28 275.284C391.36 276.038 391.36 276.818 391.28 277.571C391.192 278.467 390.376 279.07 389.481 279.008C388.603 278.954 387.911 278.236 387.876 277.332C387.867 277.022 387.876 276.712 387.876 276.401L387.885 276.41Z" fill="#FFFCF1"/>
<path d="M446.608 55.3607C446.866 55.3612 447.124 55.3605 447.382 55.3598C447.99 55.3582 448.599 55.3585 449.207 55.3601C449.833 55.3618 450.459 55.3602 451.084 55.3572C451.625 55.3546 452.165 55.3539 452.705 55.3547C453.027 55.3552 453.348 55.355 453.669 55.353C454.027 55.351 454.385 55.3528 454.742 55.3549C454.847 55.3538 454.953 55.3527 455.061 55.3516C455.784 55.3604 456.242 55.5154 456.768 56.0279C457.173 56.4855 457.324 56.9677 457.305 57.5832C457.212 58.2622 456.951 58.7792 456.43 59.2058C456.069 59.4335 455.751 59.5299 455.329 59.53C455.192 59.5308 455.192 59.5308 455.053 59.5316C454.954 59.5312 454.855 59.5308 454.753 59.5304C454.648 59.5307 454.544 59.5311 454.435 59.5314C454.208 59.5321 453.98 59.5323 453.752 59.5322C453.391 59.5321 453.03 59.5333 452.669 59.535C451.641 59.5394 450.614 59.5417 449.587 59.5423C448.959 59.5427 448.33 59.5451 447.702 59.5485C447.463 59.5495 447.224 59.5497 446.985 59.5492C445.278 59.5457 443.862 59.5454 442.546 60.8054C441.727 61.709 441.475 62.8195 441.481 64.0186C441.48 64.1048 441.48 64.191 441.479 64.2798C441.478 64.5664 441.479 64.8529 441.479 65.1395C441.479 65.3459 441.478 65.5522 441.478 65.7586C441.477 66.3177 441.476 66.8767 441.477 67.4358C441.477 67.9032 441.476 68.3706 441.476 68.838C441.475 69.9412 441.475 71.0443 441.475 72.1475C441.476 73.2839 441.475 74.4203 441.473 75.5567C441.471 76.5338 441.471 77.5109 441.471 78.4881C441.471 79.071 441.471 79.654 441.47 80.2369C441.468 80.7854 441.469 81.3338 441.47 81.8822C441.47 82.0829 441.47 82.2836 441.469 82.4842C441.463 84.0565 441.521 85.4057 442.607 86.628C443.591 87.574 444.712 87.7929 446.017 87.7876C446.122 87.788 446.226 87.7883 446.334 87.7887C446.561 87.7893 446.787 87.7896 447.013 87.7895C447.372 87.7894 447.73 87.7906 448.088 87.7922C449.107 87.7966 450.126 87.799 451.144 87.7996C451.768 87.8 452.392 87.8024 453.017 87.8058C453.254 87.8067 453.491 87.807 453.729 87.8064C454.061 87.8058 454.392 87.8074 454.724 87.8096C454.871 87.8084 454.871 87.8084 455.02 87.8072C455.758 87.8157 456.262 87.9662 456.795 88.5007C457.166 89.0657 457.388 89.6388 457.276 90.3322C457.078 91.0438 456.706 91.4862 456.09 91.86C455.846 91.9663 455.667 91.9741 455.403 91.975C455.256 91.9763 455.256 91.9763 455.107 91.9775C455.001 91.9774 454.894 91.9773 454.784 91.9772C454.616 91.9782 454.616 91.9782 454.443 91.9792C454.134 91.9807 453.826 91.9813 453.517 91.9814C453.323 91.9816 453.13 91.982 452.936 91.9825C452.259 91.9842 451.581 91.985 450.904 91.9849C450.276 91.9848 449.648 91.9868 449.02 91.9898C448.479 91.9923 447.938 91.9933 447.397 91.9932C447.074 91.9931 446.752 91.9936 446.43 91.9957C443.291 92.0141 443.291 92.0141 441.847 91.2123C441.786 91.1794 441.725 91.1466 441.662 91.1128C439.669 90.016 438.315 88.3054 437.63 86.1078C437.347 85.0451 437.383 83.9805 437.385 82.887C437.385 82.6643 437.384 82.4417 437.383 82.219C437.382 81.617 437.382 81.0151 437.382 80.4132C437.383 79.8455 437.382 79.2778 437.381 78.7101C437.38 77.5168 437.38 76.3235 437.381 75.1303C437.382 74.0418 437.381 72.9533 437.379 71.8648C437.377 70.7436 437.376 69.6225 437.376 68.5013C437.377 67.8732 437.377 67.2452 437.375 66.6172C437.373 66.0262 437.374 65.4353 437.376 64.8444C437.376 64.6285 437.376 64.4127 437.375 64.1968C437.368 62.7049 437.435 61.2883 438.147 59.9461C438.18 59.8831 438.212 59.82 438.246 59.755C439.035 58.2475 440.118 57.0726 441.597 56.2713C441.68 56.2256 441.763 56.18 441.848 56.133C443.383 55.3518 444.93 55.3561 446.608 55.3607Z" fill="#FFFCF1"/>
<path d="M466.276 65.7863C466.511 65.9657 466.711 66.1722 466.915 66.3876C466.974 66.4481 467.033 66.5086 467.094 66.571C467.287 66.7699 467.479 66.9705 467.671 67.1711C467.806 67.3104 467.942 67.4496 468.077 67.5888C468.432 67.9545 468.785 68.3216 469.138 68.6891C469.497 69.0621 469.858 69.4339 470.218 69.8057C470.8 70.4066 471.381 71.0084 471.961 71.6112C472.012 71.6643 472.063 71.7173 472.116 71.772C472.187 71.8468 472.187 71.8468 472.261 71.9231C472.393 72.0601 472.528 72.1955 472.662 72.3308C473.021 72.707 473.122 73.1208 473.176 73.6355C473.031 75.024 471.801 75.9313 470.894 76.8663C470.831 76.9314 470.768 76.9964 470.703 77.0635C470.37 77.4071 470.037 77.7504 469.703 78.0935C469.359 78.4469 469.017 78.8014 468.674 79.1562C468.41 79.43 468.144 79.703 467.879 79.9758C467.752 80.1061 467.626 80.2368 467.5 80.3678C467.324 80.5509 467.146 80.7327 466.969 80.9142C466.917 80.9681 466.866 81.0219 466.813 81.0773C466.32 81.5766 465.83 81.8107 465.122 81.8178C464.466 81.8008 464.092 81.6166 463.63 81.1525C463.183 80.6414 463.082 80.2018 463.099 79.5329C463.206 78.4095 464.333 77.566 465.064 76.8228C465.155 76.73 465.246 76.6373 465.337 76.5444C465.557 76.3199 465.777 76.0955 465.997 75.8714C465.868 75.871 465.868 75.871 465.736 75.8707C463.636 75.8651 461.536 75.8579 459.436 75.849C458.421 75.8447 457.405 75.8409 456.39 75.8384C455.504 75.8362 454.619 75.8331 453.734 75.8287C453.265 75.8264 452.797 75.8246 452.328 75.824C451.887 75.8235 451.445 75.8216 451.004 75.8186C450.842 75.8178 450.68 75.8175 450.519 75.8176C449.444 75.8184 448.515 75.8129 447.69 75.0106C447.325 74.571 447.206 74.0644 447.231 73.4936C447.315 72.8818 447.563 72.3989 447.999 71.9706C448.74 71.4424 449.645 71.5352 450.505 71.538C450.674 71.5372 450.843 71.5362 451.012 71.5351C451.47 71.5324 451.927 71.5321 452.385 71.5322C452.864 71.5319 453.342 71.5294 453.821 71.5272C454.727 71.5234 455.633 71.5214 456.539 71.5202C457.57 71.5187 458.602 71.515 459.633 71.5112C461.755 71.5034 463.876 71.4982 465.997 71.4948C465.927 71.4249 465.856 71.3549 465.783 71.2829C465.519 71.0199 465.255 70.7553 464.992 70.4902C464.879 70.3763 464.765 70.2628 464.651 70.1498C463.141 68.6547 463.141 68.6547 463.069 67.5881C463.104 66.973 463.299 66.4068 463.754 65.9885C464.606 65.4056 465.35 65.3194 466.276 65.7863Z" fill="#FFFCF1"/>
<path d="M73.1477 205.076C73.1714 205.526 73.1886 205.975 73.2 206.426C73.2047 206.578 73.2112 206.731 73.2195 206.883C73.2868 208.152 73.2868 208.152 72.9314 208.676C72.6971 208.91 72.464 209.116 72.1953 209.309C71.7797 209.176 71.4319 209.036 71.0644 208.8C68.4376 207.189 65.1682 206.637 62.1544 207.295C58.755 208.119 55.7548 210.033 53.9065 213.05C52.6923 215.082 52.0493 217.275 52.0569 219.646C52.0572 219.863 52.0547 220.081 52.0521 220.298C52.0457 221.617 52.2647 222.873 52.6921 224.124C52.7189 224.203 52.7458 224.283 52.7734 224.364C53.3886 226.104 54.4269 227.551 55.688 228.886C55.7606 228.966 55.8332 229.045 55.9079 229.127C57.961 231.294 61.078 232.608 64.0496 232.722C67.2443 232.789 70.4016 231.849 72.8302 229.733C72.9194 229.657 73.0086 229.58 73.1006 229.501C75.576 227.334 77.1757 224.236 77.4035 220.931C77.4946 218.411 77.151 215.943 75.852 213.736C75.7931 213.542 75.7931 213.542 75.8771 213.321C76.245 212.737 76.6323 212.241 77.3282 212.081C77.7363 212.054 78.1355 212.051 78.5443 212.061C78.789 212.059 79.0337 212.056 79.2784 212.054C79.457 212.056 79.6355 212.058 79.8141 212.061C80.1354 212.594 80.3859 213.123 80.6011 213.707C80.6485 213.836 80.6485 213.836 80.6968 213.967C81.3429 215.788 81.6375 217.622 81.6394 219.548C81.6395 219.62 81.6396 219.693 81.6397 219.768C81.6385 220.995 81.5569 222.182 81.2955 223.384C81.2726 223.49 81.2726 223.49 81.2492 223.598C80.2436 228.066 77.4223 231.943 73.5709 234.389C69.9822 236.551 65.3357 237.578 61.2014 236.563C61.1279 236.544 61.0545 236.525 60.9788 236.506C60.8542 236.474 60.8542 236.474 60.727 236.442C57.6655 235.646 55.1141 234.13 52.831 231.955C52.7496 231.881 52.6681 231.806 52.5842 231.729C51.3491 230.561 50.4282 229.12 49.6565 227.617C49.6229 227.552 49.5892 227.487 49.5545 227.42C48.366 225.108 47.8388 222.618 47.8322 220.029C47.8312 219.789 47.8279 219.549 47.8246 219.309C47.8143 217.884 48.0183 216.51 48.4066 215.136C48.4284 215.058 48.4503 214.981 48.4728 214.901C48.7437 213.986 49.1337 213.129 49.5507 212.272C49.5838 212.203 49.617 212.133 49.6511 212.062C51.4742 208.278 54.996 205.261 58.9157 203.812C63.759 202.15 68.6947 202.631 73.1477 205.076Z" fill="#FFFCF1"/>
<path d="M69.3375 212.064C69.0879 212.673 68.5513 213.098 68.0934 213.554C67.9226 213.724 67.7534 213.896 67.5841 214.068C67.4757 214.176 67.3671 214.285 67.2584 214.394C67.16 214.492 67.0616 214.591 66.9603 214.693C66.7105 214.906 66.5912 215.004 66.2689 215.027C66.1741 214.995 66.0793 214.964 65.9816 214.931C64.9171 214.578 63.6564 214.737 62.6526 215.189C61.1432 215.976 60.3102 217.052 59.7287 218.648C59.3489 219.926 59.6696 221.243 60.2507 222.401C60.9657 223.648 62.0459 224.532 63.4516 224.914C65.0397 225.177 66.5235 224.93 67.8561 224.022C68.8729 223.213 69.601 222.088 69.8391 220.796C69.8749 220.521 69.8749 220.521 69.8457 220.213C69.8208 219.455 69.9176 219.028 70.4211 218.469C70.7402 218.144 71.0714 217.834 71.4075 217.527C71.545 217.397 71.6821 217.266 71.819 217.134C72.1523 216.816 72.4896 216.503 72.8294 216.191C73.0314 216.273 73.0314 216.273 73.2527 216.403C73.3681 216.698 73.4574 216.971 73.537 217.276C73.5595 217.355 73.5819 217.435 73.605 217.517C74.2552 219.867 73.8491 222.277 72.7368 224.418C72.4278 224.963 72.0649 225.445 71.6654 225.926C71.6193 225.988 71.5732 226.049 71.5257 226.113C70.2569 227.742 68.062 228.749 66.0672 229.067C63.6035 229.319 61.1551 228.757 59.1727 227.222C57.2788 225.634 55.8919 223.561 55.5816 221.059C55.3653 218.474 55.8876 216.191 57.4929 214.121C57.6297 213.963 57.7684 213.806 57.9096 213.652C57.9707 213.581 58.0318 213.51 58.0947 213.437C61 210.275 65.7683 209.897 69.3375 212.064Z" fill="#FFFCF1"/>
<path d="M80.4487 200.529C80.694 200.729 80.837 200.882 80.9778 201.164C80.9942 201.41 81.0043 201.656 81.0113 201.902C81.0135 201.975 81.0157 202.047 81.0179 202.122C81.0248 202.354 81.0311 202.585 81.0373 202.817C81.0419 202.974 81.0465 203.131 81.0511 203.289C81.0625 203.674 81.0732 204.059 81.0836 204.444C81.2141 204.442 81.2141 204.442 81.3472 204.439C81.7421 204.433 82.137 204.429 82.532 204.424C82.7373 204.42 82.7373 204.42 82.9467 204.416C83.0787 204.415 83.2107 204.414 83.3467 204.413C83.468 204.412 83.5894 204.41 83.7144 204.408C84.1724 204.458 84.4422 204.637 84.7739 204.947C84.9619 205.323 84.9072 205.526 84.7872 205.926C84.6428 206.12 84.6428 206.12 84.4614 206.32C84.3946 206.394 84.3277 206.468 84.2587 206.545C83.9159 206.912 83.5668 207.273 83.2131 207.631C83.1361 207.709 83.059 207.787 82.9797 207.867C82.818 208.03 82.6561 208.193 82.4941 208.356C82.3293 208.522 82.1649 208.689 82.001 208.856C81.7624 209.099 81.5224 209.341 81.282 209.582C81.2095 209.656 81.1369 209.731 81.0622 209.808C80.4096 210.457 79.8925 210.721 78.9479 210.739C78.8046 210.744 78.6614 210.749 78.5182 210.755C78.2962 210.762 78.0744 210.767 77.8524 210.771C77.6353 210.775 77.4188 210.783 77.2019 210.792C77.0736 210.795 76.9453 210.798 76.8132 210.801C75.9637 211.018 75.3101 211.896 74.705 212.504C74.5804 212.629 74.5804 212.629 74.4533 212.756C74.1815 213.028 73.91 213.3 73.6385 213.573C73.4485 213.763 73.2586 213.953 73.0686 214.143C72.6211 214.591 72.1739 215.039 71.7267 215.487C71.2189 215.996 70.7108 216.505 70.2026 217.014C69.3339 217.883 68.4655 218.753 67.5973 219.623C67.5258 219.695 67.4543 219.767 67.3807 219.841C67.2827 219.939 67.2827 219.939 67.1828 220.039C67.043 220.179 66.9017 220.317 66.7599 220.455C66.5657 220.646 66.5657 220.646 66.3818 220.953C66.0893 221.378 65.8083 221.635 65.317 221.799C64.5564 221.873 64.0273 221.843 63.4123 221.376C62.9643 220.929 62.7627 220.55 62.751 219.914C62.7601 219.345 62.8558 218.966 63.2734 218.555C63.8831 218.017 64.2322 217.977 65.0467 217.976C65.8766 217.773 66.5214 216.906 67.1117 216.314C67.1912 216.235 67.2706 216.156 67.3524 216.074C67.6121 215.815 67.8714 215.555 68.1306 215.296C68.3118 215.114 68.4931 214.933 68.6743 214.752C69.0525 214.374 69.4306 213.996 69.8085 213.617C70.2938 213.132 70.7795 212.646 71.2653 212.161C71.6389 211.788 72.0122 211.414 72.3854 211.041C72.5645 210.862 72.7437 210.682 72.9229 210.503C73.1724 210.254 73.4216 210.005 73.6707 209.755C73.7451 209.681 73.8196 209.606 73.8964 209.53C73.9638 209.462 74.0313 209.394 74.1008 209.324C74.1597 209.266 74.2186 209.207 74.2793 209.146C74.5681 208.829 74.5374 208.56 74.5416 208.144C74.5441 208.015 74.5467 207.886 74.5493 207.752C74.5538 207.481 74.5571 207.209 74.5592 206.937C74.5621 206.807 74.565 206.677 74.5681 206.543C74.5696 206.425 74.5711 206.307 74.5727 206.185C74.7181 205.239 75.2936 204.673 75.9581 204.026C76.0458 203.939 76.1334 203.852 76.2237 203.762C76.5024 203.486 76.7824 203.211 77.0626 202.936C77.2509 202.75 77.4391 202.564 77.6272 202.377C78.0414 201.967 78.4565 201.558 78.8724 201.15C79.0155 201.009 79.157 200.866 79.2972 200.722C79.6817 200.349 79.9382 200.414 80.4487 200.529Z" fill="#FFFCF1"/>
<path d="M303.908 200.143C304.1 200.235 304.224 200.361 304.374 200.511C304.441 200.576 304.507 200.642 304.575 200.709C304.648 200.782 304.721 200.856 304.794 200.929C304.871 201.005 304.949 201.082 305.026 201.159C305.236 201.367 305.444 201.575 305.653 201.784C305.827 201.959 306.002 202.132 306.177 202.306C306.588 202.717 306.999 203.127 307.41 203.538C307.834 203.963 308.259 204.386 308.684 204.809C309.05 205.172 309.414 205.536 309.778 205.9C309.995 206.118 310.213 206.335 310.431 206.552C310.637 206.755 310.841 206.96 311.045 207.165C311.12 207.24 311.195 207.315 311.271 207.39C311.374 207.492 311.475 207.594 311.577 207.697C311.634 207.755 311.692 207.812 311.751 207.871C311.863 208.029 311.863 208.029 311.854 208.163C311.765 208.383 311.63 208.51 311.463 208.678C311.428 208.713 311.394 208.748 311.358 208.785C311.242 208.902 311.125 209.02 311.008 209.137C310.923 209.222 310.839 209.307 310.755 209.392C310.523 209.626 310.291 209.86 310.058 210.093C309.808 210.345 309.558 210.597 309.308 210.849C308.703 211.458 308.098 212.066 307.492 212.674C307.264 212.903 307.036 213.132 306.808 213.361C305.802 214.372 304.796 215.381 303.789 216.39C303.543 216.637 303.296 216.884 303.05 217.131C302.989 217.193 302.927 217.254 302.864 217.317C301.873 218.311 300.883 219.307 299.895 220.303C298.879 221.326 297.862 222.348 296.843 223.368C296.271 223.94 295.7 224.514 295.131 225.089C294.646 225.579 294.16 226.068 293.671 226.554C293.422 226.802 293.174 227.051 292.928 227.302C292.702 227.532 292.474 227.76 292.244 227.986C292.161 228.068 292.08 228.15 291.999 228.234C291.401 228.852 290.846 229.097 290.006 229.271C289.805 229.314 289.607 229.367 289.409 229.421C289.272 229.456 289.136 229.49 289 229.525C288.886 229.554 288.886 229.554 288.77 229.583C288.525 229.645 288.279 229.707 288.034 229.769C287.949 229.791 287.864 229.812 287.777 229.834C287.329 229.947 286.881 230.06 286.433 230.173C286.065 230.266 285.696 230.359 285.328 230.453C284.88 230.567 284.431 230.68 283.982 230.792C283.813 230.835 283.643 230.878 283.473 230.921C283.236 230.982 282.999 231.041 282.762 231.1C282.693 231.118 282.624 231.136 282.553 231.155C282.03 231.283 281.416 231.428 280.934 231.139C280.683 230.855 280.705 230.63 280.709 230.263C280.734 229.871 280.828 229.499 280.924 229.119C280.945 229.031 280.966 228.944 280.988 228.853C281.046 228.616 281.105 228.378 281.165 228.14C281.214 227.941 281.264 227.742 281.313 227.542C281.429 227.072 281.546 226.602 281.664 226.132C281.785 225.648 281.904 225.164 282.022 224.68C282.124 224.263 282.228 223.846 282.332 223.429C282.394 223.181 282.456 222.933 282.516 222.684C282.583 222.407 282.654 222.131 282.724 221.854C282.743 221.773 282.763 221.691 282.782 221.607C282.802 221.531 282.822 221.456 282.842 221.377C282.867 221.279 282.867 221.279 282.892 221.18C283.191 220.536 283.833 220.041 284.33 219.544C284.414 219.46 284.497 219.376 284.581 219.292C284.81 219.062 285.039 218.832 285.269 218.603C285.516 218.354 285.764 218.106 286.011 217.858C286.608 217.26 287.204 216.662 287.801 216.064C287.97 215.895 288.139 215.726 288.307 215.557C289.354 214.508 290.401 213.459 291.448 212.411C291.691 212.169 291.933 211.926 292.175 211.684C292.235 211.624 292.295 211.563 292.357 211.501C293.335 210.523 294.311 209.544 295.287 208.565C296.289 207.56 297.292 206.555 298.295 205.551C298.859 204.987 299.422 204.423 299.984 203.858C300.463 203.378 300.942 202.898 301.421 202.419C301.666 202.175 301.911 201.93 302.155 201.684C302.378 201.46 302.601 201.236 302.826 201.013C302.907 200.932 302.988 200.85 303.069 200.769C303.178 200.658 303.288 200.549 303.399 200.44C303.49 200.348 303.49 200.348 303.584 200.254C303.749 200.134 303.749 200.134 303.908 200.143Z" fill="#FFFCF1"/>
<path d="M314.276 194.577C314.664 194.894 315.016 195.249 315.372 195.6C315.476 195.701 315.579 195.802 315.683 195.903C315.832 196.048 315.981 196.194 316.129 196.341C316.202 196.412 316.275 196.484 316.348 196.555C316.971 197.165 317.644 197.827 317.931 198.67C317.958 198.747 317.985 198.824 318.013 198.903C318.336 199.942 318.245 201.126 317.754 202.09C317.441 202.653 317.073 203.087 316.613 203.537C316.544 203.606 316.475 203.675 316.405 203.744C316.261 203.888 316.117 204.03 315.972 204.173C315.786 204.355 315.602 204.539 315.418 204.723C315.241 204.899 315.064 205.074 314.886 205.25C314.82 205.316 314.754 205.382 314.685 205.45C314.593 205.54 314.593 205.54 314.5 205.632C314.446 205.685 314.392 205.738 314.336 205.793C314.203 205.907 314.203 205.907 314.056 205.907C313.951 205.799 313.951 205.799 313.828 205.651C313.555 205.33 313.265 205.031 312.967 204.734C312.913 204.681 312.86 204.627 312.805 204.572C312.693 204.46 312.581 204.348 312.468 204.236C312.297 204.066 312.127 203.895 311.956 203.724C311.847 203.614 311.737 203.505 311.628 203.395C311.577 203.345 311.527 203.294 311.475 203.242C311.201 202.969 310.92 202.716 310.621 202.471C310.536 202.379 310.453 202.285 310.374 202.188C310.2 201.983 310.022 201.804 309.817 201.631C309.561 201.414 309.345 201.18 309.129 200.925C308.977 200.749 308.814 200.587 308.647 200.425C308.464 200.241 308.28 200.058 308.099 199.872C307.924 199.694 307.924 199.694 307.743 199.561C307.523 199.378 307.348 199.175 307.162 198.959C306.891 198.645 306.591 198.377 306.268 198.117C306.162 198.012 306.162 198.012 306.089 197.793C306.482 197.391 306.877 196.99 307.273 196.59C307.457 196.405 307.64 196.218 307.823 196.032C308 195.851 308.178 195.671 308.356 195.491C308.456 195.391 308.555 195.289 308.653 195.187C310.137 193.703 312.498 193.298 314.276 194.577Z" fill="#FFFCF1"/>
<path d="M157.259 52.3657C157.863 52.8288 158.201 53.4136 158.301 54.1647C158.329 54.8088 158.222 55.2784 157.846 55.8064C157.345 56.3437 156.799 56.6346 156.118 56.8987C154.885 57.3886 153.936 57.9203 153.308 59.1196C152.899 60.0959 152.854 60.9238 153.197 61.9242C153.815 63.3682 155.172 64.178 156.585 64.7521C156.713 64.7999 156.713 64.7999 156.843 64.8488C158.184 65.3605 158.675 66.3038 159.233 67.5451C159.57 68.3131 159.873 69.085 160.114 69.8875C160.139 69.9692 160.164 70.0509 160.189 70.1351C160.723 72.0507 160.75 74.1701 159.762 75.9393C159.457 76.4348 159.1 76.85 158.686 77.2594C158.622 77.3234 158.558 77.3873 158.492 77.4532C157.421 78.4661 156.036 79.0727 154.569 79.2474C154.616 79.3875 154.616 79.3875 154.664 79.5305C154.708 79.6621 154.751 79.7938 154.794 79.9255C154.815 79.986 154.835 80.0465 154.857 80.1088C155.361 81.6494 155.656 83.2656 156.013 84.8436C156.42 86.647 156.42 86.647 156.84 88.4477C156.879 88.6136 156.918 88.7796 156.958 88.9456C157.012 89.1767 157.067 89.4078 157.122 89.6386C157.749 92.2331 157.749 92.2331 157.163 93.256C156.733 93.8766 156.157 94.3176 155.409 94.4881C154.538 94.574 153.73 94.496 153.025 93.9549C152.102 93.08 151.92 91.7008 151.643 90.5259C151.604 90.3634 151.566 90.2009 151.527 90.0384C151.425 89.61 151.323 89.1813 151.222 88.7527C151.062 88.0795 150.902 87.4065 150.742 86.7336C150.702 86.5665 150.662 86.3994 150.623 86.2323C150.397 85.2842 150.169 84.337 149.933 83.3914C149.912 83.3046 149.89 83.2178 149.868 83.1283C149.764 82.7123 149.66 82.2964 149.555 81.8806C149.518 81.7325 149.481 81.5844 149.443 81.4363C149.426 81.3689 149.409 81.3014 149.391 81.2319C149.328 80.9786 149.275 80.7518 149.275 80.4898C149.136 80.4898 148.998 80.4898 148.855 80.4898C148.835 80.5969 148.815 80.7039 148.794 80.8142C148.675 81.3981 148.523 81.9736 148.373 82.5503C148.318 82.7598 148.264 82.9694 148.21 83.1791C148.133 83.4788 148.055 83.7785 147.978 84.0782C147.366 86.4387 146.758 88.7987 146.22 91.1767C145.683 93.5237 145.683 93.5237 144.74 94.1455C144.001 94.5547 143.054 94.6405 142.238 94.428C142.05 94.3509 141.885 94.2643 141.713 94.1568C141.624 94.1021 141.536 94.0475 141.445 93.9912C140.827 93.4416 140.566 92.5186 140.521 91.726C140.523 91.2306 140.654 90.7616 140.771 90.2826C140.797 90.177 140.822 90.0715 140.848 89.9628C140.918 89.672 140.988 89.3814 141.059 89.0909C141.119 88.8431 141.179 88.5951 141.239 88.3472C141.434 87.5375 141.632 86.7282 141.829 85.919C141.898 85.638 141.966 85.3569 142.035 85.0759C142.78 82.0189 143.537 78.9655 144.344 75.9238C144.358 75.8689 144.373 75.814 144.388 75.7574C144.681 74.6495 144.981 73.5435 145.302 72.443C145.325 72.3646 145.347 72.2863 145.371 72.2055C145.862 70.5473 146.723 69.0135 147.514 67.48C148.289 66.183 148.289 66.183 148.435 64.7521C148.323 64.489 148.203 64.2342 148.075 63.979C147.261 62.3596 147.313 60.3166 147.868 58.6213C148.3 57.3828 148.934 56.3149 149.779 55.3094C149.832 55.2454 149.885 55.1815 149.94 55.1156C151.361 53.4528 154.992 50.9906 157.259 52.3657ZM154.931 70C154.515 70.455 154.322 70.8909 154.146 71.4736C154.118 71.5608 154.09 71.648 154.062 71.7378C154.005 71.9212 153.948 72.1048 153.893 72.2887C153.807 72.5686 153.718 72.8471 153.629 73.1257C153.573 73.3049 153.518 73.4841 153.463 73.6634C153.436 73.7459 153.41 73.8283 153.382 73.9132C153.143 74.7243 153.329 75.3368 153.644 76.0998C154.551 75.96 155.378 75.3433 155.917 74.6299C156.519 73.7269 156.693 72.8621 156.484 71.7978C156.315 71.1559 156.107 70.5626 155.577 70.136C155.532 70.0865 155.487 70.0369 155.44 69.9859C155.252 69.8252 155.118 69.8517 154.931 70Z" fill="#FFFCF1"/>
<path d="M161.416 57.2716C161.474 57.297 161.532 57.3224 161.591 57.3487C162.51 57.805 163.165 58.5381 163.505 59.4969C163.815 60.5362 163.731 61.6134 163.242 62.5883C162.674 63.5363 161.812 64.1497 160.74 64.4267C159.558 64.6212 158.476 64.3323 157.504 63.6529C156.84 63.1246 156.329 62.2906 156.197 61.4514C156.111 60.2674 156.241 59.3241 156.976 58.3552C157.043 58.2546 157.043 58.2546 157.112 58.152C158.158 57.0552 160.011 56.6351 161.416 57.2716Z" fill="#FFFCF1"/>
<path d="M234.409 51.9641C234.483 51.9641 234.557 51.9642 234.633 51.9642C235.807 51.9675 236.925 52.0388 238.066 52.3309C238.142 52.3497 238.217 52.3686 238.295 52.388C240.325 52.9043 242.26 53.7428 243.935 55.0136C244.009 55.0694 244.009 55.0694 244.084 55.1264C244.656 55.5592 245.206 55.9958 245.695 56.5227C245.764 56.5919 245.834 56.661 245.905 56.7323C245.974 56.8015 246.043 56.8706 246.114 56.9419C246.157 56.9835 246.201 57.0252 246.245 57.0681C248.514 59.2824 249.854 62.4082 250.39 65.4933C250.409 65.5962 250.428 65.6992 250.447 65.8053C251.069 69.8158 250.002 74.1199 247.623 77.3981C247.563 77.4826 247.502 77.5671 247.44 77.6542C245.902 79.7263 243.964 81.3392 241.671 82.5121C241.579 82.5593 241.488 82.6064 241.393 82.6549C237.611 84.4906 233.181 84.6735 229.208 83.3607C227.68 82.8217 226.196 82.0677 224.904 81.0869C224.832 81.033 224.761 80.9791 224.687 80.9235C224.116 80.4791 223.586 79.9899 223.059 79.494C222.97 79.4115 222.97 79.4115 222.879 79.3273C220.197 76.7656 218.46 72.7755 218.34 69.0811C218.334 68.7706 218.332 68.4604 218.333 68.1498C218.333 68.0841 218.333 68.0184 218.333 67.9506C218.344 64.6509 219.34 61.3798 221.299 58.7025C221.36 58.6172 221.422 58.5319 221.485 58.4441C221.872 57.9191 222.291 57.4301 222.735 56.9524C222.805 56.8761 222.805 56.8761 222.877 56.7983C225.197 54.3426 228.393 52.7624 231.695 52.1632C231.77 52.1484 231.846 52.1336 231.924 52.1183C232.752 51.9713 233.571 51.9621 234.409 51.9641ZM233.306 58.0907C233.228 58.217 233.153 58.3441 233.078 58.4719C232.991 58.615 232.904 58.7581 232.817 58.9012C232.771 58.9774 232.726 59.0536 232.678 59.1321C232.367 59.6473 232.047 60.1564 231.724 60.6645C231.467 61.0712 231.217 61.4735 231.01 61.9084C230.757 62.339 230.55 62.595 230.053 62.725C229.992 62.7389 229.932 62.7529 229.869 62.7672C229.804 62.7838 229.738 62.8003 229.671 62.8174C229.528 62.8534 229.385 62.8885 229.242 62.923C229.003 62.9802 228.765 63.0397 228.528 63.0997C228.186 63.1857 227.845 63.2712 227.503 63.3562C227.417 63.3777 227.331 63.3991 227.242 63.4212C227.065 63.4651 226.888 63.5087 226.71 63.5521C226.45 63.6159 226.19 63.6809 225.93 63.7461C225.851 63.7651 225.772 63.784 225.691 63.8036C225.168 63.9362 224.75 64.0755 224.417 64.5239C224.212 64.9662 224.213 65.2516 224.379 65.7071C224.546 66.0304 224.784 66.2719 225.034 66.5337C225.236 66.7471 225.421 66.9674 225.606 67.1962C225.885 67.5405 226.168 67.8805 226.455 68.218C226.866 68.7021 227.271 69.1912 227.67 69.6851C227.729 69.7465 227.788 69.808 227.848 69.8713C228.05 70.1701 228.035 70.3265 228.008 70.6833C228.002 70.7675 228.002 70.7675 227.996 70.8534C227.984 71.037 227.969 71.2203 227.953 71.4038C227.944 71.5313 227.935 71.6588 227.926 71.7864C227.904 72.1125 227.879 72.4385 227.853 72.7644C227.821 73.1719 227.791 73.5794 227.762 73.987C227.747 74.1913 227.731 74.3955 227.714 74.5997C227.637 75.5366 227.637 75.5366 227.896 76.4235C228.189 76.7564 228.434 76.876 228.873 76.9287C229.367 76.9202 229.8 76.7093 230.248 76.5199C230.411 76.4508 230.575 76.3832 230.74 76.316C231.147 76.149 231.554 75.9797 231.961 75.81C232.305 75.6662 232.65 75.5236 232.995 75.3824C233.157 75.3161 233.317 75.2482 233.477 75.1803C233.576 75.14 233.674 75.0997 233.776 75.0582C233.862 75.0222 233.948 74.9863 234.036 74.9493C234.453 74.8418 234.832 74.9262 235.223 75.0902C235.284 75.1151 235.344 75.1401 235.407 75.1658C235.47 75.1929 235.534 75.2199 235.6 75.2478C235.668 75.2761 235.736 75.3043 235.806 75.3335C236.024 75.4237 236.241 75.5148 236.458 75.6061C236.951 75.8124 237.446 76.0179 237.941 76.2218C238.081 76.2796 238.221 76.3378 238.36 76.3963C238.563 76.4805 238.765 76.5632 238.968 76.6455C239.028 76.6708 239.088 76.6961 239.15 76.7221C239.561 76.8866 239.886 76.9311 240.33 76.8951C240.718 76.6826 241.026 76.4817 241.168 76.0567C241.178 75.8237 241.182 75.5935 241.181 75.3605C241.181 75.2552 241.181 75.2552 241.181 75.1478C241.174 74.299 241.108 73.4548 241.042 72.6089C241.024 72.3703 241.006 72.1316 240.988 71.8929C240.978 71.7463 240.966 71.5997 240.955 71.4531C240.861 70.2037 240.861 70.2037 241.049 69.8672C241.142 69.7667 241.142 69.7667 241.236 69.6641C241.339 69.5481 241.339 69.5481 241.445 69.4297C241.5 69.3694 241.5 69.3694 241.557 69.308C241.755 69.0898 241.943 68.8628 242.132 68.6371C242.211 68.5444 242.29 68.4518 242.368 68.3591C242.632 68.0473 242.889 67.7302 243.146 67.413C243.299 67.2294 243.453 67.0488 243.609 66.8694C243.655 66.8175 243.7 66.7657 243.746 66.7123C243.835 66.6114 243.923 66.5109 244.012 66.4109C244.387 65.9825 244.66 65.5876 244.635 64.9922C244.57 64.6176 244.396 64.3248 244.082 64.1027C243.827 63.9721 243.591 63.9014 243.313 63.8325C243.207 63.8057 243.1 63.7788 242.99 63.7512C242.874 63.7228 242.758 63.6945 242.642 63.6662C242.523 63.6365 242.403 63.6068 242.284 63.5771C242.035 63.515 241.786 63.4534 241.536 63.3921C241.216 63.3135 240.896 63.2341 240.576 63.1545C240.271 63.0785 239.966 63.0029 239.661 62.9274C239.573 62.9057 239.573 62.9057 239.484 62.8835C239.319 62.8428 239.155 62.8024 238.99 62.7619C238.897 62.7389 238.803 62.7158 238.706 62.692C238.496 62.6367 238.496 62.6367 238.318 62.6428C238.295 62.5821 238.273 62.5214 238.249 62.4589C238.151 62.2262 238.038 62.0265 237.903 61.8133C237.853 61.7341 237.803 61.6549 237.752 61.5734C237.698 61.4888 237.645 61.4042 237.589 61.3171C237.476 61.1368 237.362 60.9565 237.248 60.7761C237.189 60.6833 237.131 60.5906 237.071 60.495C236.895 60.2149 236.721 59.9338 236.547 59.6522C236.492 59.5623 236.436 59.4725 236.379 59.38C236.273 59.2084 236.168 59.0365 236.063 58.8645C235.568 58.0111 235.568 58.0111 234.797 57.4449C234.149 57.3812 233.68 57.5367 233.306 58.0907Z" fill="#FFFCF1"/>
<path d="M249.132 79.5771C249.656 80.6221 250.179 81.6671 250.702 82.7122C250.945 83.1975 251.188 83.6827 251.431 84.1679C251.665 84.6359 251.9 85.1039 252.134 85.572C252.223 85.7508 252.313 85.9296 252.402 86.1084C252.528 86.3582 252.653 86.6082 252.778 86.8581C252.815 86.9325 252.852 87.0068 252.891 87.0834C252.925 87.1515 252.959 87.2196 252.994 87.2897C253.023 87.3488 253.053 87.4079 253.083 87.4689C253.276 87.8802 253.29 88.269 253.24 88.7154C253.042 89.1275 252.798 89.3332 252.402 89.5537C252.176 89.5784 251.988 89.5856 251.763 89.5742C251.701 89.5725 251.639 89.5708 251.575 89.5691C251.442 89.5654 251.308 89.561 251.174 89.556C250.887 89.5462 250.601 89.5425 250.314 89.5385C249.782 89.5308 249.25 89.5207 248.718 89.5C247.115 89.3681 247.115 89.3681 245.616 89.7856C245.23 90.1439 244.995 90.5619 244.78 91.0383C244.66 91.2926 244.5 91.4985 244.322 91.7152C244.272 91.7814 244.221 91.8476 244.169 91.9158C244.119 91.9801 244.069 92.0445 244.018 92.1108C243.68 92.5515 243.344 92.9934 243.02 93.4446C242.967 93.5173 242.915 93.5899 242.861 93.6647C242.762 93.8018 242.664 93.9394 242.567 94.0777C242.262 94.5017 241.978 94.8606 241.438 94.9638C240.944 94.9582 240.619 94.9399 240.246 94.584C239.685 93.8805 239.322 93.0243 238.923 92.2241C238.845 92.0679 238.767 91.9116 238.689 91.7555C238.526 91.4296 238.363 91.1036 238.2 90.7775C237.992 90.3591 237.783 89.9411 237.573 89.5233C237.412 89.2016 237.251 88.8796 237.09 88.5575C237.013 88.4032 236.936 88.249 236.858 88.0949C236.751 87.8802 236.644 87.6652 236.537 87.4502C236.505 87.3864 236.473 87.3226 236.44 87.2569C236.222 86.8159 236.222 86.8159 236.222 86.5356C236.293 86.5234 236.364 86.5113 236.437 86.4987C240.345 85.8221 243.907 84.5014 246.858 81.7553C247.03 81.595 247.208 81.4427 247.388 81.2906C247.723 80.9978 248.007 80.6716 248.294 80.3317C248.414 80.1914 248.535 80.0517 248.656 79.9125C248.738 79.8165 248.738 79.8165 248.822 79.7186C248.965 79.5771 248.965 79.5771 249.132 79.5771Z" fill="#FFFCF1"/>
<path d="M219.79 79.5771C220.153 79.7385 220.356 79.9937 220.603 80.295C221.274 81.0946 221.988 81.7801 222.809 82.4276C222.887 82.4921 222.966 82.5566 223.048 82.6231C225.851 84.865 229.181 86.0231 232.701 86.5356C232.571 86.9699 232.385 87.3618 232.184 87.7663C232.149 87.8377 232.113 87.9091 232.077 87.9826C231.961 88.2175 231.845 88.4522 231.728 88.6869C231.688 88.7673 231.648 88.8477 231.607 88.9305C231.396 89.3558 231.184 89.7808 230.972 90.2056C230.754 90.644 230.537 91.083 230.32 91.5221C230.153 91.8604 229.985 92.198 229.816 92.5356C229.736 92.6972 229.656 92.859 229.576 93.021C229.464 93.2477 229.351 93.4736 229.238 93.6994C229.189 93.7995 229.189 93.7995 229.14 93.9015C228.904 94.3639 228.649 94.6817 228.174 94.9193C227.974 94.9393 227.974 94.9393 227.734 94.9455C227.656 94.9486 227.577 94.9518 227.497 94.955C226.879 94.8649 226.554 94.3754 226.204 93.908C226.153 93.8415 226.102 93.7749 226.05 93.7064C225.646 93.1751 225.25 92.6378 224.856 92.0988C224.585 91.7279 224.31 91.3604 224.029 90.996C223.967 90.9154 223.906 90.8348 223.842 90.7518C223.721 90.5946 223.599 90.4378 223.477 90.2812C223.423 90.2105 223.368 90.1398 223.312 90.0669C223.263 90.0042 223.215 89.9414 223.165 89.8768C223.06 89.7214 223.06 89.7214 223.06 89.5537C222.979 89.5545 222.898 89.5552 222.815 89.556C222.053 89.5628 221.291 89.5678 220.528 89.5711C220.136 89.5729 219.745 89.5752 219.353 89.579C218.974 89.5827 218.596 89.5847 218.218 89.5856C218.073 89.5862 217.929 89.5874 217.785 89.5892C217.583 89.5916 217.381 89.592 217.178 89.5918C217.119 89.593 217.06 89.5942 216.998 89.5955C216.577 89.592 216.344 89.4797 216.018 89.2184C215.667 88.84 215.646 88.5341 215.655 88.0414C215.701 87.6281 215.869 87.2994 216.06 86.9343C216.1 86.854 216.14 86.7737 216.181 86.691C216.313 86.4284 216.447 86.1672 216.581 85.9059C216.673 85.723 216.765 85.5402 216.857 85.3572C217.099 84.8777 217.343 84.3993 217.587 83.9212C217.836 83.4324 218.083 82.9425 218.33 82.4527C218.815 81.4931 219.302 80.5347 219.79 79.5771Z" fill="#FFFCF1"/>
<path d="M234.378 60.9688C234.433 60.9688 234.488 60.9688 234.545 60.9688C234.637 61.0921 234.637 61.0921 234.738 61.2677C234.776 61.3336 234.814 61.3994 234.854 61.4672C234.896 61.5396 234.937 61.612 234.98 61.6866C235.071 61.8397 235.162 61.9926 235.253 62.1454C235.301 62.2265 235.349 62.3075 235.399 62.3911C235.661 62.8279 235.925 63.2623 236.196 63.6934C236.246 63.776 236.295 63.8585 236.347 63.9435C236.396 64.0209 236.445 64.0984 236.496 64.1781C236.559 64.2807 236.559 64.2807 236.624 64.3853C237.089 64.8585 237.801 64.9898 238.426 65.1436C238.505 65.1636 238.584 65.1836 238.665 65.2042C238.914 65.2671 239.164 65.3291 239.413 65.3911C239.583 65.434 239.754 65.4769 239.924 65.5199C240.339 65.6244 240.753 65.7281 241.169 65.8313C241.042 66.1671 240.908 66.3768 240.66 66.6382C240.321 67.0045 240.002 67.3815 239.688 67.7697C239.548 67.9417 239.407 68.112 239.264 68.2812C239.226 68.3262 239.188 68.3712 239.149 68.4175C239.042 68.5441 238.934 68.6704 238.827 68.7967C238.509 69.2011 238.459 69.4815 238.465 69.9917C238.465 70.0577 238.465 70.1236 238.466 70.1916C238.482 71.3939 238.575 72.5963 238.653 73.7958C238.201 73.745 237.829 73.5905 237.416 73.4103C237.272 73.3494 237.128 73.2886 236.985 73.2278C236.761 73.1322 236.537 73.0361 236.313 72.9391C236.096 72.845 235.878 72.7529 235.66 72.6611C235.562 72.6174 235.562 72.6174 235.461 72.5729C234.74 72.2721 234.137 72.2926 233.417 72.5879C233.345 72.619 233.273 72.6502 233.199 72.6823C233.123 72.714 233.046 72.7456 232.968 72.7782C232.726 72.8785 232.486 72.9807 232.245 73.0832C232.002 73.1853 231.76 73.2869 231.516 73.3882C231.366 73.451 231.215 73.5145 231.065 73.5785C230.997 73.607 230.93 73.6356 230.86 73.665C230.8 73.6903 230.741 73.7156 230.68 73.7417C230.521 73.7958 230.521 73.7958 230.27 73.7958C230.345 71.8447 230.345 71.8447 230.401 71.1445C230.429 70.7585 230.452 70.3733 230.464 69.9865C230.468 69.8492 230.468 69.8492 230.473 69.7091C230.397 69.1248 230.004 68.7089 229.625 68.2835C229.535 68.1805 229.446 68.0775 229.356 67.9744C229.29 67.8987 229.29 67.8987 229.222 67.8214C228.686 67.2022 228.181 66.5558 227.671 65.9151C227.9 65.7622 228.024 65.7098 228.283 65.6478C228.355 65.6301 228.428 65.6125 228.503 65.5943C228.581 65.5758 228.659 65.5573 228.739 65.5382C228.905 65.4979 229.07 65.4575 229.235 65.4172C229.496 65.3542 229.757 65.2915 230.017 65.229C230.269 65.1685 230.521 65.1071 230.772 65.0456C230.85 65.0273 230.928 65.009 231.008 64.99C231.392 64.8958 231.697 64.7961 232.03 64.5737C232.086 64.5737 232.141 64.5737 232.198 64.5737C232.232 64.4823 232.232 64.4823 232.267 64.389C232.363 64.1599 232.475 63.966 232.609 63.7573C232.658 63.6822 232.706 63.6071 232.755 63.5297C232.807 63.4506 232.858 63.3715 232.911 63.29C233.017 63.1251 233.123 62.9601 233.229 62.7952C233.281 62.7136 233.334 62.632 233.388 62.5479C233.527 62.3301 233.663 62.111 233.797 61.8906C233.836 61.8283 233.874 61.7659 233.913 61.7016C233.984 61.5854 234.055 61.4689 234.124 61.3521C234.204 61.2215 234.291 61.0946 234.378 60.9688Z" fill="#FFFCF1"/>
<path d="M227.454 300.191C226.724 299.608 226.078 298.908 225.417 298.251C225.285 298.121 225.154 297.991 225.022 297.86C224.667 297.508 224.312 297.156 223.957 296.804C223.735 296.584 223.513 296.363 223.291 296.143C222.675 295.532 222.06 294.922 221.444 294.311C221.405 294.272 221.366 294.233 221.326 294.193C221.286 294.154 221.247 294.115 221.206 294.074C221.127 293.995 221.047 293.916 220.967 293.837C220.928 293.798 220.888 293.758 220.847 293.718C220.206 293.081 219.564 292.444 218.921 291.808C218.26 291.153 217.6 290.498 216.94 289.842C216.57 289.475 216.2 289.107 215.829 288.74C215.481 288.396 215.133 288.051 214.786 287.705C214.658 287.578 214.531 287.452 214.403 287.325C214.228 287.153 214.054 286.98 213.881 286.806C213.83 286.757 213.779 286.707 213.727 286.655C213.211 286.138 212.968 285.691 212.959 284.956C212.977 283.579 214.232 282.736 215.149 281.824C215.28 281.693 215.411 281.562 215.542 281.432C215.897 281.079 216.251 280.726 216.606 280.373C216.828 280.153 217.05 279.932 217.271 279.712C217.886 279.1 218.501 278.489 219.116 277.878C219.155 277.839 219.194 277.8 219.235 277.759C219.274 277.72 219.313 277.681 219.354 277.641C219.433 277.562 219.513 277.483 219.593 277.404C219.632 277.364 219.672 277.325 219.712 277.285C220.354 276.647 220.995 276.009 221.635 275.371C222.295 274.715 222.954 274.059 223.614 273.403C223.984 273.035 224.354 272.668 224.723 272.299C225.07 271.953 225.418 271.608 225.765 271.263C225.893 271.136 226.02 271.01 226.148 270.882C226.321 270.709 226.496 270.536 226.67 270.364C226.72 270.313 226.77 270.263 226.822 270.211C227.343 269.699 227.793 269.457 228.533 269.448C229.409 269.461 229.802 269.777 230.409 270.37C230.525 270.482 230.643 270.59 230.761 270.698C231.376 271.267 231.853 271.838 231.887 272.712C231.828 273.799 231.02 274.434 230.288 275.158C230.214 275.232 230.139 275.306 230.065 275.379C229.865 275.578 229.665 275.776 229.465 275.975C229.255 276.183 229.045 276.391 228.835 276.599C228.439 276.993 228.043 277.386 227.646 277.779C227.194 278.227 226.743 278.675 226.291 279.124C225.363 280.045 224.435 280.966 223.506 281.887C223.585 281.887 223.585 281.887 223.665 281.887C226.776 281.893 229.887 281.9 232.998 281.907C233.371 281.908 233.745 281.909 234.119 281.91C234.23 281.91 234.23 281.91 234.344 281.91C235.548 281.913 236.752 281.916 237.956 281.918C239.192 281.92 240.427 281.923 241.663 281.926C242.425 281.928 243.187 281.93 243.95 281.931C244.473 281.932 244.996 281.933 245.518 281.935C245.82 281.936 246.122 281.936 246.423 281.936C246.7 281.937 246.976 281.937 247.252 281.939C247.399 281.939 247.546 281.939 247.693 281.939C248.498 281.944 249.209 281.985 249.829 282.541C250.26 283.061 250.436 283.521 250.441 284.187C250.442 284.248 250.442 284.308 250.443 284.371C250.444 284.499 250.445 284.627 250.445 284.755C250.446 284.949 250.449 285.143 250.453 285.337C250.46 286.084 250.444 286.696 249.904 287.27C249.188 287.953 248.373 287.926 247.434 287.927C247.331 287.927 247.228 287.928 247.125 287.928C246.843 287.929 246.561 287.93 246.278 287.93C245.974 287.931 245.669 287.932 245.364 287.933C244.837 287.934 244.309 287.936 243.781 287.937C243.019 287.938 242.256 287.94 241.493 287.943C240.255 287.946 239.017 287.949 237.779 287.952C236.577 287.955 235.375 287.958 234.173 287.961C234.061 287.962 234.061 287.962 233.948 287.962C233.576 287.963 233.204 287.964 232.832 287.965C229.748 287.973 226.664 287.981 223.579 287.988C223.619 288.027 223.658 288.066 223.699 288.106C224.663 289.058 225.626 290.009 226.588 290.962C227.053 291.423 227.519 291.884 227.985 292.343C228.392 292.744 228.798 293.146 229.203 293.548C229.418 293.761 229.633 293.973 229.848 294.185C230.051 294.385 230.254 294.585 230.455 294.786C230.529 294.86 230.603 294.933 230.678 295.005C231.32 295.634 231.836 296.219 231.874 297.14C231.878 297.215 231.882 297.29 231.887 297.367C231.757 298.172 231.255 298.733 230.681 299.279C230.618 299.341 230.555 299.403 230.49 299.468C229.681 300.255 228.569 300.859 227.454 300.191Z" fill="#FFFCF1"/>
<path d="M288.622 281.155C289.692 281.964 290.579 282.994 290.784 284.363C290.933 286.186 290.66 287.535 289.461 288.957C288.625 289.859 287.55 290.389 286.326 290.457C284.582 290.516 283.329 290.132 282.031 288.928C280.987 287.825 280.697 286.618 280.707 285.143C280.75 283.667 281.361 282.51 282.43 281.498C284.171 280.066 286.736 279.904 288.622 281.155Z" fill="#FFFCF1"/>
<path d="M302.736 281.155C303.806 281.964 304.693 282.994 304.898 284.363C305.048 286.186 304.775 287.535 303.576 288.957C302.739 289.859 301.664 290.389 300.44 290.457C298.696 290.516 297.444 290.132 296.146 288.928C295.101 287.825 294.812 286.618 294.822 285.143C294.864 283.667 295.475 282.51 296.544 281.498C298.285 280.066 300.85 279.904 302.736 281.155Z" fill="#FFFCF1"/>
<path d="M316.85 281.155C317.921 281.964 318.808 282.994 319.012 284.363C319.162 286.186 318.889 287.535 317.69 288.957C316.853 289.859 315.778 290.389 314.555 290.457C312.811 290.516 311.558 290.132 310.26 288.928C309.216 287.825 308.926 286.618 308.936 285.143C308.979 283.667 309.59 282.51 310.658 281.498C312.399 280.066 314.964 279.904 316.85 281.155Z" fill="#FFFCF1"/>
<path d="M472.449 274.479C473.318 274.479 474.023 275.184 474.022 276.053V298.9C474.022 299.769 473.318 300.473 472.449 300.474H451.039C450.777 300.474 450.525 300.576 450.338 300.76L444.396 306.593C443.763 307.214 442.695 306.765 442.695 305.879V301.474C442.695 300.921 442.248 300.474 441.695 300.474H438.523C437.655 300.474 436.95 299.769 436.95 298.9V276.053C436.95 275.184 437.655 274.479 438.523 274.479H472.449ZM442.256 292.717C441.98 292.717 441.756 292.941 441.756 293.217V293.217C441.756 293.493 441.98 293.717 442.256 293.717H461.274C461.551 293.717 461.774 293.493 461.774 293.217V293.217C461.774 292.941 461.551 292.717 461.274 292.717H442.256ZM465.261 276.705C465.253 276.705 465.246 276.712 465.245 276.72C464.99 280.763 461.767 283.986 457.724 284.241C457.716 284.242 457.709 284.249 457.709 284.257V284.257C457.709 284.266 457.716 284.273 457.724 284.273C461.767 284.529 464.99 287.751 465.245 291.794C465.246 291.803 465.253 291.81 465.261 291.81V291.81C465.27 291.81 465.277 291.803 465.277 291.794C465.533 287.752 468.755 284.529 472.797 284.273C472.806 284.273 472.812 284.266 472.812 284.257V284.257C472.812 284.249 472.806 284.242 472.797 284.241C468.755 283.985 465.533 280.763 465.277 276.72C465.277 276.712 465.27 276.705 465.261 276.705V276.705ZM441.756 288.026C441.756 288.303 441.98 288.526 442.256 288.526H461.274C461.551 288.526 461.774 288.303 461.774 288.026V288.026C461.774 287.75 461.551 287.526 461.274 287.526H442.256C441.98 287.526 441.756 287.75 441.756 288.026V288.026ZM441.756 283.578C441.756 283.854 441.98 284.078 442.256 284.078H453.86C454.136 284.078 454.36 283.854 454.36 283.578V283.578C454.36 283.302 454.136 283.078 453.86 283.078H442.256C441.98 283.078 441.756 283.302 441.756 283.578V283.578Z" fill="#FFFCF1"/>
<path d="M473.176 218.058C473.176 219.778 471.787 221.167 470.067 221.167H458.389V232.855C458.389 234.565 456.99 235.964 455.28 235.964C453.57 235.964 452.171 234.565 452.171 232.855V221.167H440.483C438.773 221.167 437.374 219.778 437.374 218.058C437.374 216.338 438.773 214.949 440.483 214.949H452.171V203.271C452.171 201.551 453.56 200.162 455.28 200.162C457 200.162 458.389 201.551 458.389 203.271V214.949H470.067C471.787 214.949 473.176 216.348 473.176 218.058Z" fill="#FFFCF1"/>
<path d="M459.594 130.734C460.3 131.297 460.924 131.973 461.563 132.608C461.69 132.734 461.817 132.86 461.944 132.985C462.288 133.326 462.631 133.666 462.974 134.006C463.188 134.219 463.403 134.432 463.617 134.645C464.212 135.235 464.806 135.825 465.401 136.415C465.439 136.452 465.477 136.49 465.516 136.529C465.554 136.567 465.592 136.604 465.631 136.643C465.708 136.72 465.785 136.796 465.862 136.873C465.9 136.911 465.938 136.948 465.978 136.988C466.598 137.603 467.218 138.218 467.839 138.833C468.477 139.466 469.115 140.099 469.753 140.732C470.11 141.087 470.468 141.442 470.826 141.796C471.162 142.129 471.498 142.463 471.834 142.797C471.957 142.919 472.08 143.042 472.204 143.164C472.373 143.33 472.541 143.498 472.708 143.665C472.757 143.713 472.806 143.761 472.857 143.811C473.355 144.311 473.59 144.742 473.599 145.453C473.581 146.783 472.369 147.598 471.483 148.479C471.356 148.605 471.23 148.731 471.103 148.858C470.761 149.199 470.418 149.539 470.075 149.88C469.861 150.093 469.647 150.306 469.433 150.519C468.839 151.11 468.245 151.701 467.651 152.291C467.613 152.329 467.575 152.367 467.536 152.405C467.498 152.443 467.46 152.481 467.421 152.52C467.344 152.596 467.267 152.673 467.19 152.749C467.152 152.787 467.114 152.825 467.074 152.864C466.455 153.48 465.835 154.096 465.216 154.713C464.58 155.347 463.943 155.981 463.305 156.614C462.948 156.969 462.59 157.325 462.233 157.681C461.898 158.015 461.562 158.348 461.226 158.682C461.103 158.804 460.98 158.927 460.857 159.049C460.689 159.217 460.521 159.384 460.352 159.551C460.304 159.599 460.256 159.648 460.206 159.698C459.702 160.193 459.268 160.426 458.553 160.436C457.706 160.423 457.327 160.117 456.74 159.544C456.628 159.436 456.514 159.332 456.4 159.227C455.806 158.678 455.345 158.126 455.312 157.282C455.369 156.231 456.15 155.619 456.857 154.919C456.929 154.848 457.001 154.776 457.072 154.705C457.266 154.513 457.459 154.321 457.652 154.13C457.855 153.929 458.058 153.727 458.26 153.526C458.643 153.146 459.026 152.766 459.409 152.386C459.846 151.954 460.282 151.521 460.718 151.088C461.615 150.197 462.512 149.308 463.409 148.418C463.333 148.418 463.333 148.418 463.256 148.418C460.25 148.412 457.244 148.406 454.239 148.398C453.878 148.397 453.517 148.397 453.156 148.396C453.048 148.395 453.048 148.395 452.938 148.395C451.775 148.392 450.612 148.39 449.449 148.388C448.255 148.386 447.061 148.383 445.867 148.38C445.131 148.378 444.394 148.376 443.658 148.375C443.153 148.375 442.648 148.373 442.143 148.372C441.851 148.371 441.56 148.37 441.268 148.37C441.001 148.37 440.734 148.369 440.467 148.368C440.325 148.367 440.184 148.367 440.042 148.368C439.264 148.363 438.577 148.323 437.978 147.786C437.562 147.283 437.391 146.839 437.387 146.196C437.386 146.137 437.385 146.078 437.385 146.018C437.384 145.894 437.383 145.77 437.383 145.647C437.382 145.459 437.379 145.272 437.375 145.084C437.368 144.363 437.384 143.772 437.906 143.217C438.597 142.558 439.385 142.583 440.292 142.582C440.391 142.582 440.491 142.582 440.59 142.581C440.863 142.58 441.136 142.58 441.408 142.579C441.703 142.579 441.997 142.578 442.291 142.577C442.801 142.575 443.311 142.574 443.821 142.573C444.558 142.571 445.295 142.569 446.032 142.567C447.228 142.564 448.423 142.561 449.619 142.558C450.781 142.555 451.942 142.552 453.104 142.549C453.211 142.549 453.211 142.549 453.321 142.549C453.68 142.548 454.04 142.547 454.399 142.546C457.379 142.538 460.359 142.53 463.339 142.523C463.3 142.485 463.262 142.448 463.223 142.409C462.292 141.49 461.361 140.57 460.432 139.65C459.982 139.205 459.532 138.76 459.082 138.316C458.689 137.928 458.297 137.54 457.905 137.152C457.698 136.946 457.49 136.741 457.282 136.536C457.086 136.343 456.89 136.15 456.695 135.955C456.624 135.885 456.552 135.814 456.48 135.744C455.86 135.137 455.361 134.571 455.325 133.681C455.321 133.609 455.317 133.536 455.312 133.462C455.437 132.685 455.923 132.143 456.477 131.615C456.538 131.555 456.599 131.495 456.661 131.433C457.444 130.672 458.518 130.088 459.594 130.734Z" fill="#FFFCF1"/>
</svg>
