<svg width="409" height="226" viewBox="0 0 409 226" fill="none" xmlns="http://www.w3.org/2000/svg">
<path d="M33 46C33 32.7452 43.7452 22 57 22H352C365.255 22 376 32.7452 376 46V46C376 59.2548 365.255 70 352 70H57C43.7452 70 33 59.2548 33 46V46Z" fill="white"/>
<g filter="url(#filter0_dd_4540_2360)">
<rect x="37" y="26" width="105.667" height="40" rx="20" fill="#FEF2DC" shape-rendering="crispEdges"/>
<rect x="37" y="26" width="105.667" height="40" rx="20" fill="#DE9615" shape-rendering="crispEdges"/>
<rect x="37" y="26" width="105.667" height="40" rx="20" fill="#F7A717" shape-rendering="crispEdges"/>
<path d="M61.037 51V41.13H65.055C66.119 41.13 66.9357 41.354 67.505 41.802C68.0743 42.25 68.359 42.88 68.359 43.692C68.359 44.308 68.1723 44.8213 67.799 45.232C67.435 45.6427 66.9357 45.918 66.301 46.058V45.848C67.029 45.932 67.5937 46.184 67.995 46.604C68.4057 47.024 68.611 47.5793 68.611 48.27C68.611 49.1473 68.317 49.824 67.729 50.3C67.141 50.7667 66.3103 51 65.237 51H61.037ZM62.297 49.964H65.111C65.8017 49.964 66.343 49.8333 66.735 49.572C67.1363 49.3013 67.337 48.858 67.337 48.242C67.337 47.6167 67.1363 47.1733 66.735 46.912C66.343 46.6507 65.8017 46.52 65.111 46.52H62.297V49.964ZM62.297 45.484H64.873C65.6103 45.484 66.161 45.344 66.525 45.064C66.889 44.7747 67.071 44.3593 67.071 43.818C67.071 43.2767 66.889 42.866 66.525 42.586C66.161 42.2967 65.6103 42.152 64.873 42.152H62.297V45.484ZM73.8596 51.126C72.7396 51.126 71.853 50.804 71.1996 50.16C70.5556 49.516 70.2336 48.6293 70.2336 47.5C70.2336 46.7533 70.3736 46.1093 70.6536 45.568C70.943 45.0173 71.3396 44.5927 71.8436 44.294C72.3476 43.986 72.9356 43.832 73.6076 43.832C74.2516 43.832 74.7976 43.972 75.2456 44.252C75.6936 44.5227 76.0343 44.91 76.2676 45.414C76.501 45.918 76.6176 46.5153 76.6176 47.206V47.626H71.2276V46.87H75.7496L75.5116 47.052C75.5116 46.324 75.3483 45.7593 75.0216 45.358C74.7043 44.9567 74.233 44.756 73.6076 44.756C72.9263 44.756 72.399 44.994 72.0256 45.47C71.6523 45.9367 71.4656 46.576 71.4656 47.388V47.514C71.4656 48.3727 71.6756 49.0213 72.0956 49.46C72.525 49.8987 73.1176 50.118 73.8736 50.118C74.2936 50.118 74.6856 50.0573 75.0496 49.936C75.4136 49.8147 75.7636 49.614 76.0996 49.334L76.5196 50.216C76.2023 50.5053 75.8056 50.7293 75.3296 50.888C74.863 51.0467 74.373 51.126 73.8596 51.126ZM81.6186 54.136C81.0026 54.136 80.4379 54.0613 79.9246 53.912C79.4112 53.7627 78.9492 53.534 78.5386 53.226L78.8746 52.288C79.1639 52.484 79.4486 52.6427 79.7286 52.764C80.0086 52.8853 80.2979 52.974 80.5966 53.03C80.9046 53.086 81.2219 53.114 81.5486 53.114C82.2392 53.114 82.7572 52.9367 83.1026 52.582C83.4479 52.2273 83.6206 51.7233 83.6206 51.07V49.096H83.7606C83.6112 49.628 83.3032 50.0527 82.8366 50.37C82.3792 50.678 81.8379 50.832 81.2126 50.832C80.5779 50.832 80.0226 50.692 79.5466 50.412C79.0799 50.1227 78.7159 49.7167 78.4546 49.194C78.1932 48.662 78.0626 48.0413 78.0626 47.332C78.0626 46.6133 78.1932 45.9927 78.4546 45.47C78.7159 44.9473 79.0799 44.546 79.5466 44.266C80.0226 43.9767 80.5779 43.832 81.2126 43.832C81.8379 43.832 82.3792 43.986 82.8366 44.294C83.2939 44.602 83.5972 45.0267 83.7466 45.568L83.6206 45.442L83.7466 43.958H84.9786C84.9506 44.238 84.9226 44.518 84.8946 44.798C84.8759 45.078 84.8666 45.3533 84.8666 45.624V50.916C84.8666 51.9613 84.5912 52.7593 84.0406 53.31C83.4992 53.8607 82.6919 54.136 81.6186 54.136ZM81.4926 49.824C82.1366 49.824 82.6499 49.6047 83.0326 49.166C83.4152 48.7273 83.6066 48.116 83.6066 47.332C83.6066 46.5387 83.4152 45.9273 83.0326 45.498C82.6499 45.0687 82.1366 44.854 81.4926 44.854C80.8392 44.854 80.3166 45.0687 79.9246 45.498C79.5419 45.9273 79.3506 46.5387 79.3506 47.332C79.3506 48.116 79.5419 48.7273 79.9246 49.166C80.3166 49.6047 80.8392 49.824 81.4926 49.824ZM87.2001 51V43.958H88.4741V51H87.2001ZM87.0881 42.418V41.046H88.6001V42.418H87.0881ZM90.8044 51V45.624C90.8044 45.3533 90.7951 45.078 90.7764 44.798C90.7578 44.518 90.7298 44.238 90.6924 43.958H91.9244L92.0644 45.47H91.8964C92.1111 44.938 92.4424 44.532 92.8904 44.252C93.3384 43.972 93.8611 43.832 94.4584 43.832C95.2891 43.832 95.9144 44.0607 96.3344 44.518C96.7544 44.966 96.9644 45.666 96.9644 46.618V51H95.6904V46.688C95.6904 46.044 95.5644 45.582 95.3124 45.302C95.0604 45.0127 94.6684 44.868 94.1364 44.868C93.5018 44.868 92.9978 45.0593 92.6244 45.442C92.2604 45.8247 92.0784 46.3427 92.0784 46.996V51H90.8044ZM99.2486 51V45.624C99.2486 45.3533 99.2392 45.078 99.2206 44.798C99.2019 44.518 99.1739 44.238 99.1366 43.958H100.369L100.509 45.47H100.341C100.555 44.938 100.887 44.532 101.335 44.252C101.783 43.972 102.305 43.832 102.903 43.832C103.733 43.832 104.359 44.0607 104.779 44.518C105.199 44.966 105.409 45.666 105.409 46.618V51H104.135V46.688C104.135 46.044 104.009 45.582 103.757 45.302C103.505 45.0127 103.113 44.868 102.581 44.868C101.946 44.868 101.442 45.0593 101.069 45.442C100.705 45.8247 100.523 46.3427 100.523 46.996V51H99.2486ZM110.899 51.126C109.779 51.126 108.892 50.804 108.239 50.16C107.595 49.516 107.273 48.6293 107.273 47.5C107.273 46.7533 107.413 46.1093 107.693 45.568C107.982 45.0173 108.379 44.5927 108.883 44.294C109.387 43.986 109.975 43.832 110.647 43.832C111.291 43.832 111.837 43.972 112.285 44.252C112.733 44.5227 113.073 44.91 113.307 45.414C113.54 45.918 113.657 46.5153 113.657 47.206V47.626H108.267V46.87H112.789L112.551 47.052C112.551 46.324 112.387 45.7593 112.061 45.358C111.743 44.9567 111.272 44.756 110.647 44.756C109.965 44.756 109.438 44.994 109.065 45.47C108.691 45.9367 108.505 46.576 108.505 47.388V47.514C108.505 48.3727 108.715 49.0213 109.135 49.46C109.564 49.8987 110.157 50.118 110.913 50.118C111.333 50.118 111.725 50.0573 112.089 49.936C112.453 49.8147 112.803 49.614 113.139 49.334L113.559 50.216C113.241 50.5053 112.845 50.7293 112.369 50.888C111.902 51.0467 111.412 51.126 110.899 51.126ZM115.508 51V45.68C115.508 45.4 115.498 45.1153 115.48 44.826C115.47 44.5273 115.447 44.238 115.41 43.958H116.642L116.796 45.722L116.586 45.736C116.679 45.3067 116.838 44.952 117.062 44.672C117.295 44.3827 117.57 44.1727 117.888 44.042C118.214 43.902 118.55 43.832 118.896 43.832C119.045 43.832 119.171 43.8367 119.274 43.846C119.376 43.8553 119.479 43.8787 119.582 43.916L119.554 45.05C119.414 44.994 119.283 44.9613 119.162 44.952C119.05 44.9333 118.91 44.924 118.742 44.924C118.331 44.924 117.976 45.0173 117.678 45.204C117.388 45.3907 117.164 45.638 117.006 45.946C116.856 46.254 116.782 46.5853 116.782 46.94V51H115.508Z" fill="white"/>
</g>
<path d="M163.322 51V41.13H164.624V51H163.322ZM167.073 51V45.624C167.073 45.3533 167.064 45.078 167.045 44.798C167.027 44.518 166.999 44.238 166.961 43.958H168.193L168.333 45.47H168.165C168.38 44.938 168.711 44.532 169.159 44.252C169.607 43.972 170.13 43.832 170.727 43.832C171.558 43.832 172.183 44.0607 172.603 44.518C173.023 44.966 173.233 45.666 173.233 46.618V51H171.959V46.688C171.959 46.044 171.833 45.582 171.581 45.302C171.329 45.0127 170.937 44.868 170.405 44.868C169.771 44.868 169.267 45.0593 168.893 45.442C168.529 45.8247 168.347 46.3427 168.347 46.996V51H167.073ZM178.149 51.126C177.412 51.126 176.852 50.9253 176.469 50.524C176.096 50.1133 175.909 49.4973 175.909 48.676V44.938H174.537V43.958H175.909V42.068L177.183 41.718V43.958H179.171V44.938H177.183V48.564C177.183 49.1053 177.277 49.4927 177.463 49.726C177.659 49.95 177.939 50.062 178.303 50.062C178.49 50.062 178.649 50.048 178.779 50.02C178.919 49.9827 179.045 49.9407 179.157 49.894V50.944C179.017 51 178.854 51.042 178.667 51.07C178.49 51.1073 178.317 51.126 178.149 51.126ZM183.845 51.126C182.725 51.126 181.839 50.804 181.185 50.16C180.541 49.516 180.219 48.6293 180.219 47.5C180.219 46.7533 180.359 46.1093 180.639 45.568C180.929 45.0173 181.325 44.5927 181.829 44.294C182.333 43.986 182.921 43.832 183.593 43.832C184.237 43.832 184.783 43.972 185.231 44.252C185.679 44.5227 186.02 44.91 186.253 45.414C186.487 45.918 186.603 46.5153 186.603 47.206V47.626H181.213V46.87H185.735L185.497 47.052C185.497 46.324 185.334 45.7593 185.007 45.358C184.69 44.9567 184.219 44.756 183.593 44.756C182.912 44.756 182.385 44.994 182.011 45.47C181.638 45.9367 181.451 46.576 181.451 47.388V47.514C181.451 48.3727 181.661 49.0213 182.081 49.46C182.511 49.8987 183.103 50.118 183.859 50.118C184.279 50.118 184.671 50.0573 185.035 49.936C185.399 49.8147 185.749 49.614 186.085 49.334L186.505 50.216C186.188 50.5053 185.791 50.7293 185.315 50.888C184.849 51.0467 184.359 51.126 183.845 51.126ZM188.454 51V45.68C188.454 45.4 188.445 45.1153 188.426 44.826C188.417 44.5273 188.393 44.238 188.356 43.958H189.588L189.742 45.722L189.532 45.736C189.625 45.3067 189.784 44.952 190.008 44.672C190.241 44.3827 190.517 44.1727 190.834 44.042C191.161 43.902 191.497 43.832 191.842 43.832C191.991 43.832 192.117 43.8367 192.22 43.846C192.323 43.8553 192.425 43.8787 192.528 43.916L192.5 45.05C192.36 44.994 192.229 44.9613 192.108 44.952C191.996 44.9333 191.856 44.924 191.688 44.924C191.277 44.924 190.923 45.0173 190.624 45.204C190.335 45.3907 190.111 45.638 189.952 45.946C189.803 46.254 189.728 46.5853 189.728 46.94V51H188.454ZM193.85 51V45.624C193.85 45.3533 193.84 45.078 193.822 44.798C193.803 44.518 193.775 44.238 193.738 43.958H194.97L195.11 45.47H194.942C195.128 44.9473 195.427 44.546 195.838 44.266C196.248 43.9767 196.738 43.832 197.308 43.832C197.886 43.832 198.362 43.972 198.736 44.252C199.109 44.5227 199.361 44.952 199.492 45.54H199.282C199.459 45.0173 199.772 44.602 200.22 44.294C200.668 43.986 201.19 43.832 201.788 43.832C202.562 43.832 203.146 44.0607 203.538 44.518C203.93 44.966 204.126 45.666 204.126 46.618V51H202.852V46.688C202.852 46.044 202.74 45.582 202.516 45.302C202.292 45.0127 201.937 44.868 201.452 44.868C200.882 44.868 200.434 45.064 200.108 45.456C199.781 45.8387 199.618 46.3613 199.618 47.024V51H198.344V46.688C198.344 46.044 198.232 45.582 198.008 45.302C197.793 45.0127 197.438 44.868 196.944 44.868C196.374 44.868 195.926 45.064 195.6 45.456C195.282 45.8387 195.124 46.3613 195.124 47.024V51H193.85ZM209.615 51.126C208.495 51.126 207.608 50.804 206.955 50.16C206.311 49.516 205.989 48.6293 205.989 47.5C205.989 46.7533 206.129 46.1093 206.409 45.568C206.698 45.0173 207.095 44.5927 207.599 44.294C208.103 43.986 208.691 43.832 209.363 43.832C210.007 43.832 210.553 43.972 211.001 44.252C211.449 44.5227 211.79 44.91 212.023 45.414C212.256 45.918 212.373 46.5153 212.373 47.206V47.626H206.983V46.87H211.505L211.267 47.052C211.267 46.324 211.104 45.7593 210.777 45.358C210.46 44.9567 209.988 44.756 209.363 44.756C208.682 44.756 208.154 44.994 207.781 45.47C207.408 45.9367 207.221 46.576 207.221 47.388V47.514C207.221 48.3727 207.431 49.0213 207.851 49.46C208.28 49.8987 208.873 50.118 209.629 50.118C210.049 50.118 210.441 50.0573 210.805 49.936C211.169 49.8147 211.519 49.614 211.855 49.334L212.275 50.216C211.958 50.5053 211.561 50.7293 211.085 50.888C210.618 51.0467 210.128 51.126 209.615 51.126ZM216.926 51.126C216.31 51.126 215.769 50.9813 215.302 50.692C214.835 50.4027 214.471 49.9827 214.21 49.432C213.949 48.8813 213.818 48.228 213.818 47.472C213.818 46.716 213.949 46.0673 214.21 45.526C214.471 44.9753 214.835 44.5553 215.302 44.266C215.769 43.9767 216.31 43.832 216.926 43.832C217.542 43.832 218.079 43.986 218.536 44.294C219.003 44.602 219.315 45.0267 219.474 45.568H219.306V40.696H220.58V51H219.32V49.362H219.474C219.325 49.9127 219.017 50.3467 218.55 50.664C218.093 50.972 217.551 51.126 216.926 51.126ZM217.22 50.118C217.855 50.118 218.363 49.894 218.746 49.446C219.138 48.998 219.334 48.34 219.334 47.472C219.334 46.604 219.138 45.9507 218.746 45.512C218.363 45.0733 217.855 44.854 217.22 44.854C216.585 44.854 216.072 45.0733 215.68 45.512C215.297 45.9507 215.106 46.604 215.106 47.472C215.106 48.34 215.297 48.998 215.68 49.446C216.072 49.894 216.585 50.118 217.22 50.118ZM222.915 51V43.958H224.189V51H222.915ZM222.803 42.418V41.046H224.315V42.418H222.803ZM229.207 51.126C228.591 51.126 228.05 50.9813 227.583 50.692C227.116 50.4027 226.752 49.9827 226.491 49.432C226.23 48.8813 226.099 48.228 226.099 47.472C226.099 46.716 226.23 46.0673 226.491 45.526C226.752 44.9753 227.116 44.5553 227.583 44.266C228.05 43.9767 228.591 43.832 229.207 43.832C229.832 43.832 230.374 43.9907 230.831 44.308C231.298 44.616 231.606 45.0407 231.755 45.582H231.587L231.741 43.958H232.973C232.945 44.238 232.917 44.518 232.889 44.798C232.87 45.078 232.861 45.3533 232.861 45.624V51H231.587V49.39H231.741C231.592 49.922 231.284 50.3467 230.817 50.664C230.36 50.972 229.823 51.126 229.207 51.126ZM229.501 50.118C230.136 50.118 230.644 49.894 231.027 49.446C231.41 48.998 231.601 48.34 231.601 47.472C231.601 46.604 231.41 45.9507 231.027 45.512C230.644 45.0733 230.136 44.854 229.501 44.854C228.866 44.854 228.353 45.0733 227.961 45.512C227.578 45.9507 227.387 46.604 227.387 47.472C227.387 48.34 227.578 48.998 227.961 49.446C228.344 49.894 228.857 50.118 229.501 50.118ZM237.827 51.126C237.09 51.126 236.53 50.9253 236.147 50.524C235.774 50.1133 235.587 49.4973 235.587 48.676V44.938H234.215V43.958H235.587V42.068L236.861 41.718V43.958H238.849V44.938H236.861V48.564C236.861 49.1053 236.955 49.4927 237.141 49.726C237.337 49.95 237.617 50.062 237.981 50.062C238.168 50.062 238.327 50.048 238.457 50.02C238.597 49.9827 238.723 49.9407 238.835 49.894V50.944C238.695 51 238.532 51.042 238.345 51.07C238.168 51.1073 237.995 51.126 237.827 51.126ZM243.523 51.126C242.403 51.126 241.517 50.804 240.863 50.16C240.219 49.516 239.897 48.6293 239.897 47.5C239.897 46.7533 240.037 46.1093 240.317 45.568C240.607 45.0173 241.003 44.5927 241.507 44.294C242.011 43.986 242.599 43.832 243.271 43.832C243.915 43.832 244.461 43.972 244.909 44.252C245.357 44.5227 245.698 44.91 245.931 45.414C246.165 45.918 246.281 46.5153 246.281 47.206V47.626H240.891V46.87H245.413L245.175 47.052C245.175 46.324 245.012 45.7593 244.685 45.358C244.368 44.9567 243.897 44.756 243.271 44.756C242.59 44.756 242.063 44.994 241.689 45.47C241.316 45.9367 241.129 46.576 241.129 47.388V47.514C241.129 48.3727 241.339 49.0213 241.759 49.46C242.189 49.8987 242.781 50.118 243.537 50.118C243.957 50.118 244.349 50.0573 244.713 49.936C245.077 49.8147 245.427 49.614 245.763 49.334L246.183 50.216C245.866 50.5053 245.469 50.7293 244.993 50.888C244.527 51.0467 244.037 51.126 243.523 51.126Z" fill="#1E1E1E"/>
<path d="M285.362 51L289.73 41.13H290.864L295.302 51H293.958L292.74 48.2L293.3 48.536H287.294L287.91 48.2L286.692 51H285.362ZM290.276 42.586L288.092 47.766L287.756 47.472H292.838L292.572 47.766L290.332 42.586H290.276ZM299.386 51.126C298.77 51.126 298.228 50.9813 297.762 50.692C297.295 50.4027 296.931 49.9827 296.67 49.432C296.408 48.8813 296.278 48.228 296.278 47.472C296.278 46.716 296.408 46.0673 296.67 45.526C296.931 44.9753 297.295 44.5553 297.762 44.266C298.228 43.9767 298.77 43.832 299.386 43.832C300.002 43.832 300.538 43.986 300.996 44.294C301.462 44.602 301.775 45.0267 301.934 45.568H301.766V40.696H303.04V51H301.78V49.362H301.934C301.784 49.9127 301.476 50.3467 301.01 50.664C300.552 50.972 300.011 51.126 299.386 51.126ZM299.68 50.118C300.314 50.118 300.823 49.894 301.206 49.446C301.598 48.998 301.794 48.34 301.794 47.472C301.794 46.604 301.598 45.9507 301.206 45.512C300.823 45.0733 300.314 44.854 299.68 44.854C299.045 44.854 298.532 45.0733 298.14 45.512C297.757 45.9507 297.566 46.604 297.566 47.472C297.566 48.34 297.757 48.998 298.14 49.446C298.532 49.894 299.045 50.118 299.68 50.118ZM307.446 51L304.436 43.958H305.808L308.258 50.006H307.866L310.358 43.958H311.66L308.636 51H307.446ZM315.604 51.126C314.988 51.126 314.447 50.9813 313.98 50.692C313.513 50.4027 313.149 49.9827 312.888 49.432C312.627 48.8813 312.496 48.228 312.496 47.472C312.496 46.716 312.627 46.0673 312.888 45.526C313.149 44.9753 313.513 44.5553 313.98 44.266C314.447 43.9767 314.988 43.832 315.604 43.832C316.229 43.832 316.771 43.9907 317.228 44.308C317.695 44.616 318.003 45.0407 318.152 45.582H317.984L318.138 43.958H319.37C319.342 44.238 319.314 44.518 319.286 44.798C319.267 45.078 319.258 45.3533 319.258 45.624V51H317.984V49.39H318.138C317.989 49.922 317.681 50.3467 317.214 50.664C316.757 50.972 316.22 51.126 315.604 51.126ZM315.898 50.118C316.533 50.118 317.041 49.894 317.424 49.446C317.807 48.998 317.998 48.34 317.998 47.472C317.998 46.604 317.807 45.9507 317.424 45.512C317.041 45.0733 316.533 44.854 315.898 44.854C315.263 44.854 314.75 45.0733 314.358 45.512C313.975 45.9507 313.784 46.604 313.784 47.472C313.784 48.34 313.975 48.998 314.358 49.446C314.741 49.894 315.254 50.118 315.898 50.118ZM321.593 51V45.624C321.593 45.3533 321.583 45.078 321.565 44.798C321.546 44.518 321.518 44.238 321.481 43.958H322.713L322.853 45.47H322.685C322.899 44.938 323.231 44.532 323.679 44.252C324.127 43.972 324.649 43.832 325.247 43.832C326.077 43.832 326.703 44.0607 327.123 44.518C327.543 44.966 327.753 45.666 327.753 46.618V51H326.479V46.688C326.479 46.044 326.353 45.582 326.101 45.302C325.849 45.0127 325.457 44.868 324.925 44.868C324.29 44.868 323.786 45.0593 323.413 45.442C323.049 45.8247 322.867 46.3427 322.867 46.996V51H321.593ZM333.061 51.126C332.361 51.126 331.754 50.9813 331.241 50.692C330.727 50.3933 330.326 49.9687 330.037 49.418C329.757 48.858 329.617 48.1953 329.617 47.43C329.617 46.674 329.761 46.03 330.051 45.498C330.34 44.9567 330.741 44.546 331.255 44.266C331.768 43.9767 332.37 43.832 333.061 43.832C333.518 43.832 333.961 43.9113 334.391 44.07C334.82 44.2193 335.17 44.4387 335.441 44.728L335.007 45.624C334.736 45.3627 334.437 45.1713 334.111 45.05C333.784 44.9193 333.462 44.854 333.145 44.854C332.454 44.854 331.913 45.078 331.521 45.526C331.129 45.9647 330.933 46.604 330.933 47.444C330.933 48.2933 331.129 48.9467 331.521 49.404C331.913 49.8613 332.454 50.09 333.145 50.09C333.453 50.09 333.77 50.0293 334.097 49.908C334.423 49.7867 334.727 49.5953 335.007 49.334L335.441 50.216C335.161 50.5147 334.801 50.7433 334.363 50.902C333.933 51.0513 333.499 51.126 333.061 51.126ZM340.265 51.126C339.145 51.126 338.258 50.804 337.605 50.16C336.961 49.516 336.639 48.6293 336.639 47.5C336.639 46.7533 336.779 46.1093 337.059 45.568C337.348 45.0173 337.745 44.5927 338.249 44.294C338.753 43.986 339.341 43.832 340.013 43.832C340.657 43.832 341.203 43.972 341.651 44.252C342.099 44.5227 342.44 44.91 342.673 45.414C342.906 45.918 343.023 46.5153 343.023 47.206V47.626H337.633V46.87H342.155L341.917 47.052C341.917 46.324 341.754 45.7593 341.427 45.358C341.11 44.9567 340.638 44.756 340.013 44.756C339.332 44.756 338.804 44.994 338.431 45.47C338.058 45.9367 337.871 46.576 337.871 47.388V47.514C337.871 48.3727 338.081 49.0213 338.501 49.46C338.93 49.8987 339.523 50.118 340.279 50.118C340.699 50.118 341.091 50.0573 341.455 49.936C341.819 49.8147 342.169 49.614 342.505 49.334L342.925 50.216C342.608 50.5053 342.211 50.7293 341.735 50.888C341.268 51.0467 340.778 51.126 340.265 51.126ZM347.576 51.126C346.96 51.126 346.418 50.9813 345.952 50.692C345.485 50.4027 345.121 49.9827 344.86 49.432C344.598 48.8813 344.468 48.228 344.468 47.472C344.468 46.716 344.598 46.0673 344.86 45.526C345.121 44.9753 345.485 44.5553 345.952 44.266C346.418 43.9767 346.96 43.832 347.576 43.832C348.192 43.832 348.728 43.986 349.186 44.294C349.652 44.602 349.965 45.0267 350.124 45.568H349.956V40.696H351.23V51H349.97V49.362H350.124C349.974 49.9127 349.666 50.3467 349.2 50.664C348.742 50.972 348.201 51.126 347.576 51.126ZM347.87 50.118C348.504 50.118 349.013 49.894 349.396 49.446C349.788 48.998 349.984 48.34 349.984 47.472C349.984 46.604 349.788 45.9507 349.396 45.512C349.013 45.0733 348.504 44.854 347.87 44.854C347.235 44.854 346.722 45.0733 346.33 45.512C345.947 45.9507 345.756 46.604 345.756 47.472C345.756 48.34 345.947 48.998 346.33 49.446C346.722 49.894 347.235 50.118 347.87 50.118Z" fill="#1E1E1E"/>
<path d="M33 113C33 99.7452 43.7452 89 57 89H352C365.255 89 376 99.7452 376 113V113C376 126.255 365.255 137 352 137H57C43.7452 137 33 126.255 33 113V113Z" fill="white"/>
<g filter="url(#filter1_dd_4540_2360)">
<path d="M61.037 118V108.13H65.055C66.119 108.13 66.9357 108.354 67.505 108.802C68.0743 109.25 68.359 109.88 68.359 110.692C68.359 111.308 68.1723 111.821 67.799 112.232C67.435 112.643 66.9357 112.918 66.301 113.058V112.848C67.029 112.932 67.5937 113.184 67.995 113.604C68.4057 114.024 68.611 114.579 68.611 115.27C68.611 116.147 68.317 116.824 67.729 117.3C67.141 117.767 66.3103 118 65.237 118H61.037ZM62.297 116.964H65.111C65.8017 116.964 66.343 116.833 66.735 116.572C67.1363 116.301 67.337 115.858 67.337 115.242C67.337 114.617 67.1363 114.173 66.735 113.912C66.343 113.651 65.8017 113.52 65.111 113.52H62.297V116.964ZM62.297 112.484H64.873C65.6103 112.484 66.161 112.344 66.525 112.064C66.889 111.775 67.071 111.359 67.071 110.818C67.071 110.277 66.889 109.866 66.525 109.586C66.161 109.297 65.6103 109.152 64.873 109.152H62.297V112.484ZM73.8596 118.126C72.7396 118.126 71.853 117.804 71.1996 117.16C70.5556 116.516 70.2336 115.629 70.2336 114.5C70.2336 113.753 70.3736 113.109 70.6536 112.568C70.943 112.017 71.3396 111.593 71.8436 111.294C72.3476 110.986 72.9356 110.832 73.6076 110.832C74.2516 110.832 74.7976 110.972 75.2456 111.252C75.6936 111.523 76.0343 111.91 76.2676 112.414C76.501 112.918 76.6176 113.515 76.6176 114.206V114.626H71.2276V113.87H75.7496L75.5116 114.052C75.5116 113.324 75.3483 112.759 75.0216 112.358C74.7043 111.957 74.233 111.756 73.6076 111.756C72.9263 111.756 72.399 111.994 72.0256 112.47C71.6523 112.937 71.4656 113.576 71.4656 114.388V114.514C71.4656 115.373 71.6756 116.021 72.0956 116.46C72.525 116.899 73.1176 117.118 73.8736 117.118C74.2936 117.118 74.6856 117.057 75.0496 116.936C75.4136 116.815 75.7636 116.614 76.0996 116.334L76.5196 117.216C76.2023 117.505 75.8056 117.729 75.3296 117.888C74.863 118.047 74.373 118.126 73.8596 118.126ZM81.6186 121.136C81.0026 121.136 80.4379 121.061 79.9246 120.912C79.4112 120.763 78.9492 120.534 78.5386 120.226L78.8746 119.288C79.1639 119.484 79.4486 119.643 79.7286 119.764C80.0086 119.885 80.2979 119.974 80.5966 120.03C80.9046 120.086 81.2219 120.114 81.5486 120.114C82.2392 120.114 82.7572 119.937 83.1026 119.582C83.4479 119.227 83.6206 118.723 83.6206 118.07V116.096H83.7606C83.6112 116.628 83.3032 117.053 82.8366 117.37C82.3792 117.678 81.8379 117.832 81.2126 117.832C80.5779 117.832 80.0226 117.692 79.5466 117.412C79.0799 117.123 78.7159 116.717 78.4546 116.194C78.1932 115.662 78.0626 115.041 78.0626 114.332C78.0626 113.613 78.1932 112.993 78.4546 112.47C78.7159 111.947 79.0799 111.546 79.5466 111.266C80.0226 110.977 80.5779 110.832 81.2126 110.832C81.8379 110.832 82.3792 110.986 82.8366 111.294C83.2939 111.602 83.5972 112.027 83.7466 112.568L83.6206 112.442L83.7466 110.958H84.9786C84.9506 111.238 84.9226 111.518 84.8946 111.798C84.8759 112.078 84.8666 112.353 84.8666 112.624V117.916C84.8666 118.961 84.5912 119.759 84.0406 120.31C83.4992 120.861 82.6919 121.136 81.6186 121.136ZM81.4926 116.824C82.1366 116.824 82.6499 116.605 83.0326 116.166C83.4152 115.727 83.6066 115.116 83.6066 114.332C83.6066 113.539 83.4152 112.927 83.0326 112.498C82.6499 112.069 82.1366 111.854 81.4926 111.854C80.8392 111.854 80.3166 112.069 79.9246 112.498C79.5419 112.927 79.3506 113.539 79.3506 114.332C79.3506 115.116 79.5419 115.727 79.9246 116.166C80.3166 116.605 80.8392 116.824 81.4926 116.824ZM87.2001 118V110.958H88.4741V118H87.2001ZM87.0881 109.418V108.046H88.6001V109.418H87.0881ZM90.8044 118V112.624C90.8044 112.353 90.7951 112.078 90.7764 111.798C90.7578 111.518 90.7298 111.238 90.6924 110.958H91.9244L92.0644 112.47H91.8964C92.1111 111.938 92.4424 111.532 92.8904 111.252C93.3384 110.972 93.8611 110.832 94.4584 110.832C95.2891 110.832 95.9144 111.061 96.3344 111.518C96.7544 111.966 96.9644 112.666 96.9644 113.618V118H95.6904V113.688C95.6904 113.044 95.5644 112.582 95.3124 112.302C95.0604 112.013 94.6684 111.868 94.1364 111.868C93.5018 111.868 92.9978 112.059 92.6244 112.442C92.2604 112.825 92.0784 113.343 92.0784 113.996V118H90.8044ZM99.2486 118V112.624C99.2486 112.353 99.2392 112.078 99.2206 111.798C99.2019 111.518 99.1739 111.238 99.1366 110.958H100.369L100.509 112.47H100.341C100.555 111.938 100.887 111.532 101.335 111.252C101.783 110.972 102.305 110.832 102.903 110.832C103.733 110.832 104.359 111.061 104.779 111.518C105.199 111.966 105.409 112.666 105.409 113.618V118H104.135V113.688C104.135 113.044 104.009 112.582 103.757 112.302C103.505 112.013 103.113 111.868 102.581 111.868C101.946 111.868 101.442 112.059 101.069 112.442C100.705 112.825 100.523 113.343 100.523 113.996V118H99.2486ZM110.899 118.126C109.779 118.126 108.892 117.804 108.239 117.16C107.595 116.516 107.273 115.629 107.273 114.5C107.273 113.753 107.413 113.109 107.693 112.568C107.982 112.017 108.379 111.593 108.883 111.294C109.387 110.986 109.975 110.832 110.647 110.832C111.291 110.832 111.837 110.972 112.285 111.252C112.733 111.523 113.073 111.91 113.307 112.414C113.54 112.918 113.657 113.515 113.657 114.206V114.626H108.267V113.87H112.789L112.551 114.052C112.551 113.324 112.387 112.759 112.061 112.358C111.743 111.957 111.272 111.756 110.647 111.756C109.965 111.756 109.438 111.994 109.065 112.47C108.691 112.937 108.505 113.576 108.505 114.388V114.514C108.505 115.373 108.715 116.021 109.135 116.46C109.564 116.899 110.157 117.118 110.913 117.118C111.333 117.118 111.725 117.057 112.089 116.936C112.453 116.815 112.803 116.614 113.139 116.334L113.559 117.216C113.241 117.505 112.845 117.729 112.369 117.888C111.902 118.047 111.412 118.126 110.899 118.126ZM115.508 118V112.68C115.508 112.4 115.498 112.115 115.48 111.826C115.47 111.527 115.447 111.238 115.41 110.958H116.642L116.796 112.722L116.586 112.736C116.679 112.307 116.838 111.952 117.062 111.672C117.295 111.383 117.57 111.173 117.888 111.042C118.214 110.902 118.55 110.832 118.896 110.832C119.045 110.832 119.171 110.837 119.274 110.846C119.376 110.855 119.479 110.879 119.582 110.916L119.554 112.05C119.414 111.994 119.283 111.961 119.162 111.952C119.05 111.933 118.91 111.924 118.742 111.924C118.331 111.924 117.976 112.017 117.678 112.204C117.388 112.391 117.164 112.638 117.006 112.946C116.856 113.254 116.782 113.585 116.782 113.94V118H115.508Z" fill="#1E1E1E"/>
</g>
<rect x="151.667" y="93" width="105.667" height="40" rx="20" fill="#FEF2DC"/>
<rect x="151.667" y="93" width="105.667" height="40" rx="20" fill="#DE9615"/>
<rect x="151.667" y="93" width="105.667" height="40" rx="20" fill="#F7A717"/>
<path d="M163.322 118V108.13H164.624V118H163.322ZM167.073 118V112.624C167.073 112.353 167.064 112.078 167.045 111.798C167.027 111.518 166.999 111.238 166.961 110.958H168.193L168.333 112.47H168.165C168.38 111.938 168.711 111.532 169.159 111.252C169.607 110.972 170.13 110.832 170.727 110.832C171.558 110.832 172.183 111.061 172.603 111.518C173.023 111.966 173.233 112.666 173.233 113.618V118H171.959V113.688C171.959 113.044 171.833 112.582 171.581 112.302C171.329 112.013 170.937 111.868 170.405 111.868C169.771 111.868 169.267 112.059 168.893 112.442C168.529 112.825 168.347 113.343 168.347 113.996V118H167.073ZM178.149 118.126C177.412 118.126 176.852 117.925 176.469 117.524C176.096 117.113 175.909 116.497 175.909 115.676V111.938H174.537V110.958H175.909V109.068L177.183 108.718V110.958H179.171V111.938H177.183V115.564C177.183 116.105 177.277 116.493 177.463 116.726C177.659 116.95 177.939 117.062 178.303 117.062C178.49 117.062 178.649 117.048 178.779 117.02C178.919 116.983 179.045 116.941 179.157 116.894V117.944C179.017 118 178.854 118.042 178.667 118.07C178.49 118.107 178.317 118.126 178.149 118.126ZM183.845 118.126C182.725 118.126 181.839 117.804 181.185 117.16C180.541 116.516 180.219 115.629 180.219 114.5C180.219 113.753 180.359 113.109 180.639 112.568C180.929 112.017 181.325 111.593 181.829 111.294C182.333 110.986 182.921 110.832 183.593 110.832C184.237 110.832 184.783 110.972 185.231 111.252C185.679 111.523 186.02 111.91 186.253 112.414C186.487 112.918 186.603 113.515 186.603 114.206V114.626H181.213V113.87H185.735L185.497 114.052C185.497 113.324 185.334 112.759 185.007 112.358C184.69 111.957 184.219 111.756 183.593 111.756C182.912 111.756 182.385 111.994 182.011 112.47C181.638 112.937 181.451 113.576 181.451 114.388V114.514C181.451 115.373 181.661 116.021 182.081 116.46C182.511 116.899 183.103 117.118 183.859 117.118C184.279 117.118 184.671 117.057 185.035 116.936C185.399 116.815 185.749 116.614 186.085 116.334L186.505 117.216C186.188 117.505 185.791 117.729 185.315 117.888C184.849 118.047 184.359 118.126 183.845 118.126ZM188.454 118V112.68C188.454 112.4 188.445 112.115 188.426 111.826C188.417 111.527 188.393 111.238 188.356 110.958H189.588L189.742 112.722L189.532 112.736C189.625 112.307 189.784 111.952 190.008 111.672C190.241 111.383 190.517 111.173 190.834 111.042C191.161 110.902 191.497 110.832 191.842 110.832C191.991 110.832 192.117 110.837 192.22 110.846C192.323 110.855 192.425 110.879 192.528 110.916L192.5 112.05C192.36 111.994 192.229 111.961 192.108 111.952C191.996 111.933 191.856 111.924 191.688 111.924C191.277 111.924 190.923 112.017 190.624 112.204C190.335 112.391 190.111 112.638 189.952 112.946C189.803 113.254 189.728 113.585 189.728 113.94V118H188.454ZM193.85 118V112.624C193.85 112.353 193.84 112.078 193.822 111.798C193.803 111.518 193.775 111.238 193.738 110.958H194.97L195.11 112.47H194.942C195.128 111.947 195.427 111.546 195.838 111.266C196.248 110.977 196.738 110.832 197.308 110.832C197.886 110.832 198.362 110.972 198.736 111.252C199.109 111.523 199.361 111.952 199.492 112.54H199.282C199.459 112.017 199.772 111.602 200.22 111.294C200.668 110.986 201.19 110.832 201.788 110.832C202.562 110.832 203.146 111.061 203.538 111.518C203.93 111.966 204.126 112.666 204.126 113.618V118H202.852V113.688C202.852 113.044 202.74 112.582 202.516 112.302C202.292 112.013 201.937 111.868 201.452 111.868C200.882 111.868 200.434 112.064 200.108 112.456C199.781 112.839 199.618 113.361 199.618 114.024V118H198.344V113.688C198.344 113.044 198.232 112.582 198.008 112.302C197.793 112.013 197.438 111.868 196.944 111.868C196.374 111.868 195.926 112.064 195.6 112.456C195.282 112.839 195.124 113.361 195.124 114.024V118H193.85ZM209.615 118.126C208.495 118.126 207.608 117.804 206.955 117.16C206.311 116.516 205.989 115.629 205.989 114.5C205.989 113.753 206.129 113.109 206.409 112.568C206.698 112.017 207.095 111.593 207.599 111.294C208.103 110.986 208.691 110.832 209.363 110.832C210.007 110.832 210.553 110.972 211.001 111.252C211.449 111.523 211.79 111.91 212.023 112.414C212.256 112.918 212.373 113.515 212.373 114.206V114.626H206.983V113.87H211.505L211.267 114.052C211.267 113.324 211.104 112.759 210.777 112.358C210.46 111.957 209.988 111.756 209.363 111.756C208.682 111.756 208.154 111.994 207.781 112.47C207.408 112.937 207.221 113.576 207.221 114.388V114.514C207.221 115.373 207.431 116.021 207.851 116.46C208.28 116.899 208.873 117.118 209.629 117.118C210.049 117.118 210.441 117.057 210.805 116.936C211.169 116.815 211.519 116.614 211.855 116.334L212.275 117.216C211.958 117.505 211.561 117.729 211.085 117.888C210.618 118.047 210.128 118.126 209.615 118.126ZM216.926 118.126C216.31 118.126 215.769 117.981 215.302 117.692C214.835 117.403 214.471 116.983 214.21 116.432C213.949 115.881 213.818 115.228 213.818 114.472C213.818 113.716 213.949 113.067 214.21 112.526C214.471 111.975 214.835 111.555 215.302 111.266C215.769 110.977 216.31 110.832 216.926 110.832C217.542 110.832 218.079 110.986 218.536 111.294C219.003 111.602 219.315 112.027 219.474 112.568H219.306V107.696H220.58V118H219.32V116.362H219.474C219.325 116.913 219.017 117.347 218.55 117.664C218.093 117.972 217.551 118.126 216.926 118.126ZM217.22 117.118C217.855 117.118 218.363 116.894 218.746 116.446C219.138 115.998 219.334 115.34 219.334 114.472C219.334 113.604 219.138 112.951 218.746 112.512C218.363 112.073 217.855 111.854 217.22 111.854C216.585 111.854 216.072 112.073 215.68 112.512C215.297 112.951 215.106 113.604 215.106 114.472C215.106 115.34 215.297 115.998 215.68 116.446C216.072 116.894 216.585 117.118 217.22 117.118ZM222.915 118V110.958H224.189V118H222.915ZM222.803 109.418V108.046H224.315V109.418H222.803ZM229.207 118.126C228.591 118.126 228.05 117.981 227.583 117.692C227.116 117.403 226.752 116.983 226.491 116.432C226.23 115.881 226.099 115.228 226.099 114.472C226.099 113.716 226.23 113.067 226.491 112.526C226.752 111.975 227.116 111.555 227.583 111.266C228.05 110.977 228.591 110.832 229.207 110.832C229.832 110.832 230.374 110.991 230.831 111.308C231.298 111.616 231.606 112.041 231.755 112.582H231.587L231.741 110.958H232.973C232.945 111.238 232.917 111.518 232.889 111.798C232.87 112.078 232.861 112.353 232.861 112.624V118H231.587V116.39H231.741C231.592 116.922 231.284 117.347 230.817 117.664C230.36 117.972 229.823 118.126 229.207 118.126ZM229.501 117.118C230.136 117.118 230.644 116.894 231.027 116.446C231.41 115.998 231.601 115.34 231.601 114.472C231.601 113.604 231.41 112.951 231.027 112.512C230.644 112.073 230.136 111.854 229.501 111.854C228.866 111.854 228.353 112.073 227.961 112.512C227.578 112.951 227.387 113.604 227.387 114.472C227.387 115.34 227.578 115.998 227.961 116.446C228.344 116.894 228.857 117.118 229.501 117.118ZM237.827 118.126C237.09 118.126 236.53 117.925 236.147 117.524C235.774 117.113 235.587 116.497 235.587 115.676V111.938H234.215V110.958H235.587V109.068L236.861 108.718V110.958H238.849V111.938H236.861V115.564C236.861 116.105 236.955 116.493 237.141 116.726C237.337 116.95 237.617 117.062 237.981 117.062C238.168 117.062 238.327 117.048 238.457 117.02C238.597 116.983 238.723 116.941 238.835 116.894V117.944C238.695 118 238.532 118.042 238.345 118.07C238.168 118.107 237.995 118.126 237.827 118.126ZM243.523 118.126C242.403 118.126 241.517 117.804 240.863 117.16C240.219 116.516 239.897 115.629 239.897 114.5C239.897 113.753 240.037 113.109 240.317 112.568C240.607 112.017 241.003 111.593 241.507 111.294C242.011 110.986 242.599 110.832 243.271 110.832C243.915 110.832 244.461 110.972 244.909 111.252C245.357 111.523 245.698 111.91 245.931 112.414C246.165 112.918 246.281 113.515 246.281 114.206V114.626H240.891V113.87H245.413L245.175 114.052C245.175 113.324 245.012 112.759 244.685 112.358C244.368 111.957 243.897 111.756 243.271 111.756C242.59 111.756 242.063 111.994 241.689 112.47C241.316 112.937 241.129 113.576 241.129 114.388V114.514C241.129 115.373 241.339 116.021 241.759 116.46C242.189 116.899 242.781 117.118 243.537 117.118C243.957 117.118 244.349 117.057 244.713 116.936C245.077 116.815 245.427 116.614 245.763 116.334L246.183 117.216C245.866 117.505 245.469 117.729 244.993 117.888C244.527 118.047 244.037 118.126 243.523 118.126Z" fill="#FFFCF1"/>
<path d="M285.362 118L289.73 108.13H290.864L295.302 118H293.958L292.74 115.2L293.3 115.536H287.294L287.91 115.2L286.692 118H285.362ZM290.276 109.586L288.092 114.766L287.756 114.472H292.838L292.572 114.766L290.332 109.586H290.276ZM299.386 118.126C298.77 118.126 298.228 117.981 297.762 117.692C297.295 117.403 296.931 116.983 296.67 116.432C296.408 115.881 296.278 115.228 296.278 114.472C296.278 113.716 296.408 113.067 296.67 112.526C296.931 111.975 297.295 111.555 297.762 111.266C298.228 110.977 298.77 110.832 299.386 110.832C300.002 110.832 300.538 110.986 300.996 111.294C301.462 111.602 301.775 112.027 301.934 112.568H301.766V107.696H303.04V118H301.78V116.362H301.934C301.784 116.913 301.476 117.347 301.01 117.664C300.552 117.972 300.011 118.126 299.386 118.126ZM299.68 117.118C300.314 117.118 300.823 116.894 301.206 116.446C301.598 115.998 301.794 115.34 301.794 114.472C301.794 113.604 301.598 112.951 301.206 112.512C300.823 112.073 300.314 111.854 299.68 111.854C299.045 111.854 298.532 112.073 298.14 112.512C297.757 112.951 297.566 113.604 297.566 114.472C297.566 115.34 297.757 115.998 298.14 116.446C298.532 116.894 299.045 117.118 299.68 117.118ZM307.446 118L304.436 110.958H305.808L308.258 117.006H307.866L310.358 110.958H311.66L308.636 118H307.446ZM315.604 118.126C314.988 118.126 314.447 117.981 313.98 117.692C313.513 117.403 313.149 116.983 312.888 116.432C312.627 115.881 312.496 115.228 312.496 114.472C312.496 113.716 312.627 113.067 312.888 112.526C313.149 111.975 313.513 111.555 313.98 111.266C314.447 110.977 314.988 110.832 315.604 110.832C316.229 110.832 316.771 110.991 317.228 111.308C317.695 111.616 318.003 112.041 318.152 112.582H317.984L318.138 110.958H319.37C319.342 111.238 319.314 111.518 319.286 111.798C319.267 112.078 319.258 112.353 319.258 112.624V118H317.984V116.39H318.138C317.989 116.922 317.681 117.347 317.214 117.664C316.757 117.972 316.22 118.126 315.604 118.126ZM315.898 117.118C316.533 117.118 317.041 116.894 317.424 116.446C317.807 115.998 317.998 115.34 317.998 114.472C317.998 113.604 317.807 112.951 317.424 112.512C317.041 112.073 316.533 111.854 315.898 111.854C315.263 111.854 314.75 112.073 314.358 112.512C313.975 112.951 313.784 113.604 313.784 114.472C313.784 115.34 313.975 115.998 314.358 116.446C314.741 116.894 315.254 117.118 315.898 117.118ZM321.593 118V112.624C321.593 112.353 321.583 112.078 321.565 111.798C321.546 111.518 321.518 111.238 321.481 110.958H322.713L322.853 112.47H322.685C322.899 111.938 323.231 111.532 323.679 111.252C324.127 110.972 324.649 110.832 325.247 110.832C326.077 110.832 326.703 111.061 327.123 111.518C327.543 111.966 327.753 112.666 327.753 113.618V118H326.479V113.688C326.479 113.044 326.353 112.582 326.101 112.302C325.849 112.013 325.457 111.868 324.925 111.868C324.29 111.868 323.786 112.059 323.413 112.442C323.049 112.825 322.867 113.343 322.867 113.996V118H321.593ZM333.061 118.126C332.361 118.126 331.754 117.981 331.241 117.692C330.727 117.393 330.326 116.969 330.037 116.418C329.757 115.858 329.617 115.195 329.617 114.43C329.617 113.674 329.761 113.03 330.051 112.498C330.34 111.957 330.741 111.546 331.255 111.266C331.768 110.977 332.37 110.832 333.061 110.832C333.518 110.832 333.961 110.911 334.391 111.07C334.82 111.219 335.17 111.439 335.441 111.728L335.007 112.624C334.736 112.363 334.437 112.171 334.111 112.05C333.784 111.919 333.462 111.854 333.145 111.854C332.454 111.854 331.913 112.078 331.521 112.526C331.129 112.965 330.933 113.604 330.933 114.444C330.933 115.293 331.129 115.947 331.521 116.404C331.913 116.861 332.454 117.09 333.145 117.09C333.453 117.09 333.77 117.029 334.097 116.908C334.423 116.787 334.727 116.595 335.007 116.334L335.441 117.216C335.161 117.515 334.801 117.743 334.363 117.902C333.933 118.051 333.499 118.126 333.061 118.126ZM340.265 118.126C339.145 118.126 338.258 117.804 337.605 117.16C336.961 116.516 336.639 115.629 336.639 114.5C336.639 113.753 336.779 113.109 337.059 112.568C337.348 112.017 337.745 111.593 338.249 111.294C338.753 110.986 339.341 110.832 340.013 110.832C340.657 110.832 341.203 110.972 341.651 111.252C342.099 111.523 342.44 111.91 342.673 112.414C342.906 112.918 343.023 113.515 343.023 114.206V114.626H337.633V113.87H342.155L341.917 114.052C341.917 113.324 341.754 112.759 341.427 112.358C341.11 111.957 340.638 111.756 340.013 111.756C339.332 111.756 338.804 111.994 338.431 112.47C338.058 112.937 337.871 113.576 337.871 114.388V114.514C337.871 115.373 338.081 116.021 338.501 116.46C338.93 116.899 339.523 117.118 340.279 117.118C340.699 117.118 341.091 117.057 341.455 116.936C341.819 116.815 342.169 116.614 342.505 116.334L342.925 117.216C342.608 117.505 342.211 117.729 341.735 117.888C341.268 118.047 340.778 118.126 340.265 118.126ZM347.576 118.126C346.96 118.126 346.418 117.981 345.952 117.692C345.485 117.403 345.121 116.983 344.86 116.432C344.598 115.881 344.468 115.228 344.468 114.472C344.468 113.716 344.598 113.067 344.86 112.526C345.121 111.975 345.485 111.555 345.952 111.266C346.418 110.977 346.96 110.832 347.576 110.832C348.192 110.832 348.728 110.986 349.186 111.294C349.652 111.602 349.965 112.027 350.124 112.568H349.956V107.696H351.23V118H349.97V116.362H350.124C349.974 116.913 349.666 117.347 349.2 117.664C348.742 117.972 348.201 118.126 347.576 118.126ZM347.87 117.118C348.504 117.118 349.013 116.894 349.396 116.446C349.788 115.998 349.984 115.34 349.984 114.472C349.984 113.604 349.788 112.951 349.396 112.512C349.013 112.073 348.504 111.854 347.87 111.854C347.235 111.854 346.722 112.073 346.33 112.512C345.947 112.951 345.756 113.604 345.756 114.472C345.756 115.34 345.947 115.998 346.33 116.446C346.722 116.894 347.235 117.118 347.87 117.118Z" fill="#1E1E1E"/>
<path d="M33 180C33 166.745 43.7452 156 57 156H352C365.255 156 376 166.745 376 180V180C376 193.255 365.255 204 352 204H57C43.7452 204 33 193.255 33 180V180Z" fill="white"/>
<g filter="url(#filter2_dd_4540_2360)">
<path d="M61.037 185V175.13H65.055C66.119 175.13 66.9357 175.354 67.505 175.802C68.0743 176.25 68.359 176.88 68.359 177.692C68.359 178.308 68.1723 178.821 67.799 179.232C67.435 179.643 66.9357 179.918 66.301 180.058V179.848C67.029 179.932 67.5937 180.184 67.995 180.604C68.4057 181.024 68.611 181.579 68.611 182.27C68.611 183.147 68.317 183.824 67.729 184.3C67.141 184.767 66.3103 185 65.237 185H61.037ZM62.297 183.964H65.111C65.8017 183.964 66.343 183.833 66.735 183.572C67.1363 183.301 67.337 182.858 67.337 182.242C67.337 181.617 67.1363 181.173 66.735 180.912C66.343 180.651 65.8017 180.52 65.111 180.52H62.297V183.964ZM62.297 179.484H64.873C65.6103 179.484 66.161 179.344 66.525 179.064C66.889 178.775 67.071 178.359 67.071 177.818C67.071 177.277 66.889 176.866 66.525 176.586C66.161 176.297 65.6103 176.152 64.873 176.152H62.297V179.484ZM73.8596 185.126C72.7396 185.126 71.853 184.804 71.1996 184.16C70.5556 183.516 70.2336 182.629 70.2336 181.5C70.2336 180.753 70.3736 180.109 70.6536 179.568C70.943 179.017 71.3396 178.593 71.8436 178.294C72.3476 177.986 72.9356 177.832 73.6076 177.832C74.2516 177.832 74.7976 177.972 75.2456 178.252C75.6936 178.523 76.0343 178.91 76.2676 179.414C76.501 179.918 76.6176 180.515 76.6176 181.206V181.626H71.2276V180.87H75.7496L75.5116 181.052C75.5116 180.324 75.3483 179.759 75.0216 179.358C74.7043 178.957 74.233 178.756 73.6076 178.756C72.9263 178.756 72.399 178.994 72.0256 179.47C71.6523 179.937 71.4656 180.576 71.4656 181.388V181.514C71.4656 182.373 71.6756 183.021 72.0956 183.46C72.525 183.899 73.1176 184.118 73.8736 184.118C74.2936 184.118 74.6856 184.057 75.0496 183.936C75.4136 183.815 75.7636 183.614 76.0996 183.334L76.5196 184.216C76.2023 184.505 75.8056 184.729 75.3296 184.888C74.863 185.047 74.373 185.126 73.8596 185.126ZM81.6186 188.136C81.0026 188.136 80.4379 188.061 79.9246 187.912C79.4112 187.763 78.9492 187.534 78.5386 187.226L78.8746 186.288C79.1639 186.484 79.4486 186.643 79.7286 186.764C80.0086 186.885 80.2979 186.974 80.5966 187.03C80.9046 187.086 81.2219 187.114 81.5486 187.114C82.2392 187.114 82.7572 186.937 83.1026 186.582C83.4479 186.227 83.6206 185.723 83.6206 185.07V183.096H83.7606C83.6112 183.628 83.3032 184.053 82.8366 184.37C82.3792 184.678 81.8379 184.832 81.2126 184.832C80.5779 184.832 80.0226 184.692 79.5466 184.412C79.0799 184.123 78.7159 183.717 78.4546 183.194C78.1932 182.662 78.0626 182.041 78.0626 181.332C78.0626 180.613 78.1932 179.993 78.4546 179.47C78.7159 178.947 79.0799 178.546 79.5466 178.266C80.0226 177.977 80.5779 177.832 81.2126 177.832C81.8379 177.832 82.3792 177.986 82.8366 178.294C83.2939 178.602 83.5972 179.027 83.7466 179.568L83.6206 179.442L83.7466 177.958H84.9786C84.9506 178.238 84.9226 178.518 84.8946 178.798C84.8759 179.078 84.8666 179.353 84.8666 179.624V184.916C84.8666 185.961 84.5912 186.759 84.0406 187.31C83.4992 187.861 82.6919 188.136 81.6186 188.136ZM81.4926 183.824C82.1366 183.824 82.6499 183.605 83.0326 183.166C83.4152 182.727 83.6066 182.116 83.6066 181.332C83.6066 180.539 83.4152 179.927 83.0326 179.498C82.6499 179.069 82.1366 178.854 81.4926 178.854C80.8392 178.854 80.3166 179.069 79.9246 179.498C79.5419 179.927 79.3506 180.539 79.3506 181.332C79.3506 182.116 79.5419 182.727 79.9246 183.166C80.3166 183.605 80.8392 183.824 81.4926 183.824ZM87.2001 185V177.958H88.4741V185H87.2001ZM87.0881 176.418V175.046H88.6001V176.418H87.0881ZM90.8044 185V179.624C90.8044 179.353 90.7951 179.078 90.7764 178.798C90.7578 178.518 90.7298 178.238 90.6924 177.958H91.9244L92.0644 179.47H91.8964C92.1111 178.938 92.4424 178.532 92.8904 178.252C93.3384 177.972 93.8611 177.832 94.4584 177.832C95.2891 177.832 95.9144 178.061 96.3344 178.518C96.7544 178.966 96.9644 179.666 96.9644 180.618V185H95.6904V180.688C95.6904 180.044 95.5644 179.582 95.3124 179.302C95.0604 179.013 94.6684 178.868 94.1364 178.868C93.5018 178.868 92.9978 179.059 92.6244 179.442C92.2604 179.825 92.0784 180.343 92.0784 180.996V185H90.8044ZM99.2486 185V179.624C99.2486 179.353 99.2392 179.078 99.2206 178.798C99.2019 178.518 99.1739 178.238 99.1366 177.958H100.369L100.509 179.47H100.341C100.555 178.938 100.887 178.532 101.335 178.252C101.783 177.972 102.305 177.832 102.903 177.832C103.733 177.832 104.359 178.061 104.779 178.518C105.199 178.966 105.409 179.666 105.409 180.618V185H104.135V180.688C104.135 180.044 104.009 179.582 103.757 179.302C103.505 179.013 103.113 178.868 102.581 178.868C101.946 178.868 101.442 179.059 101.069 179.442C100.705 179.825 100.523 180.343 100.523 180.996V185H99.2486ZM110.899 185.126C109.779 185.126 108.892 184.804 108.239 184.16C107.595 183.516 107.273 182.629 107.273 181.5C107.273 180.753 107.413 180.109 107.693 179.568C107.982 179.017 108.379 178.593 108.883 178.294C109.387 177.986 109.975 177.832 110.647 177.832C111.291 177.832 111.837 177.972 112.285 178.252C112.733 178.523 113.073 178.91 113.307 179.414C113.54 179.918 113.657 180.515 113.657 181.206V181.626H108.267V180.87H112.789L112.551 181.052C112.551 180.324 112.387 179.759 112.061 179.358C111.743 178.957 111.272 178.756 110.647 178.756C109.965 178.756 109.438 178.994 109.065 179.47C108.691 179.937 108.505 180.576 108.505 181.388V181.514C108.505 182.373 108.715 183.021 109.135 183.46C109.564 183.899 110.157 184.118 110.913 184.118C111.333 184.118 111.725 184.057 112.089 183.936C112.453 183.815 112.803 183.614 113.139 183.334L113.559 184.216C113.241 184.505 112.845 184.729 112.369 184.888C111.902 185.047 111.412 185.126 110.899 185.126ZM115.508 185V179.68C115.508 179.4 115.498 179.115 115.48 178.826C115.47 178.527 115.447 178.238 115.41 177.958H116.642L116.796 179.722L116.586 179.736C116.679 179.307 116.838 178.952 117.062 178.672C117.295 178.383 117.57 178.173 117.888 178.042C118.214 177.902 118.55 177.832 118.896 177.832C119.045 177.832 119.171 177.837 119.274 177.846C119.376 177.855 119.479 177.879 119.582 177.916L119.554 179.05C119.414 178.994 119.283 178.961 119.162 178.952C119.05 178.933 118.91 178.924 118.742 178.924C118.331 178.924 117.976 179.017 117.678 179.204C117.388 179.391 117.164 179.638 117.006 179.946C116.856 180.254 116.782 180.585 116.782 180.94V185H115.508Z" fill="#1E1E1E"/>
</g>
<path d="M163.322 185V175.13H164.624V185H163.322ZM167.073 185V179.624C167.073 179.353 167.064 179.078 167.045 178.798C167.027 178.518 166.999 178.238 166.961 177.958H168.193L168.333 179.47H168.165C168.38 178.938 168.711 178.532 169.159 178.252C169.607 177.972 170.13 177.832 170.727 177.832C171.558 177.832 172.183 178.061 172.603 178.518C173.023 178.966 173.233 179.666 173.233 180.618V185H171.959V180.688C171.959 180.044 171.833 179.582 171.581 179.302C171.329 179.013 170.937 178.868 170.405 178.868C169.771 178.868 169.267 179.059 168.893 179.442C168.529 179.825 168.347 180.343 168.347 180.996V185H167.073ZM178.149 185.126C177.412 185.126 176.852 184.925 176.469 184.524C176.096 184.113 175.909 183.497 175.909 182.676V178.938H174.537V177.958H175.909V176.068L177.183 175.718V177.958H179.171V178.938H177.183V182.564C177.183 183.105 177.277 183.493 177.463 183.726C177.659 183.95 177.939 184.062 178.303 184.062C178.49 184.062 178.649 184.048 178.779 184.02C178.919 183.983 179.045 183.941 179.157 183.894V184.944C179.017 185 178.854 185.042 178.667 185.07C178.49 185.107 178.317 185.126 178.149 185.126ZM183.845 185.126C182.725 185.126 181.839 184.804 181.185 184.16C180.541 183.516 180.219 182.629 180.219 181.5C180.219 180.753 180.359 180.109 180.639 179.568C180.929 179.017 181.325 178.593 181.829 178.294C182.333 177.986 182.921 177.832 183.593 177.832C184.237 177.832 184.783 177.972 185.231 178.252C185.679 178.523 186.02 178.91 186.253 179.414C186.487 179.918 186.603 180.515 186.603 181.206V181.626H181.213V180.87H185.735L185.497 181.052C185.497 180.324 185.334 179.759 185.007 179.358C184.69 178.957 184.219 178.756 183.593 178.756C182.912 178.756 182.385 178.994 182.011 179.47C181.638 179.937 181.451 180.576 181.451 181.388V181.514C181.451 182.373 181.661 183.021 182.081 183.46C182.511 183.899 183.103 184.118 183.859 184.118C184.279 184.118 184.671 184.057 185.035 183.936C185.399 183.815 185.749 183.614 186.085 183.334L186.505 184.216C186.188 184.505 185.791 184.729 185.315 184.888C184.849 185.047 184.359 185.126 183.845 185.126ZM188.454 185V179.68C188.454 179.4 188.445 179.115 188.426 178.826C188.417 178.527 188.393 178.238 188.356 177.958H189.588L189.742 179.722L189.532 179.736C189.625 179.307 189.784 178.952 190.008 178.672C190.241 178.383 190.517 178.173 190.834 178.042C191.161 177.902 191.497 177.832 191.842 177.832C191.991 177.832 192.117 177.837 192.22 177.846C192.323 177.855 192.425 177.879 192.528 177.916L192.5 179.05C192.36 178.994 192.229 178.961 192.108 178.952C191.996 178.933 191.856 178.924 191.688 178.924C191.277 178.924 190.923 179.017 190.624 179.204C190.335 179.391 190.111 179.638 189.952 179.946C189.803 180.254 189.728 180.585 189.728 180.94V185H188.454ZM193.85 185V179.624C193.85 179.353 193.84 179.078 193.822 178.798C193.803 178.518 193.775 178.238 193.738 177.958H194.97L195.11 179.47H194.942C195.128 178.947 195.427 178.546 195.838 178.266C196.248 177.977 196.738 177.832 197.308 177.832C197.886 177.832 198.362 177.972 198.736 178.252C199.109 178.523 199.361 178.952 199.492 179.54H199.282C199.459 179.017 199.772 178.602 200.22 178.294C200.668 177.986 201.19 177.832 201.788 177.832C202.562 177.832 203.146 178.061 203.538 178.518C203.93 178.966 204.126 179.666 204.126 180.618V185H202.852V180.688C202.852 180.044 202.74 179.582 202.516 179.302C202.292 179.013 201.937 178.868 201.452 178.868C200.882 178.868 200.434 179.064 200.108 179.456C199.781 179.839 199.618 180.361 199.618 181.024V185H198.344V180.688C198.344 180.044 198.232 179.582 198.008 179.302C197.793 179.013 197.438 178.868 196.944 178.868C196.374 178.868 195.926 179.064 195.6 179.456C195.282 179.839 195.124 180.361 195.124 181.024V185H193.85ZM209.615 185.126C208.495 185.126 207.608 184.804 206.955 184.16C206.311 183.516 205.989 182.629 205.989 181.5C205.989 180.753 206.129 180.109 206.409 179.568C206.698 179.017 207.095 178.593 207.599 178.294C208.103 177.986 208.691 177.832 209.363 177.832C210.007 177.832 210.553 177.972 211.001 178.252C211.449 178.523 211.79 178.91 212.023 179.414C212.256 179.918 212.373 180.515 212.373 181.206V181.626H206.983V180.87H211.505L211.267 181.052C211.267 180.324 211.104 179.759 210.777 179.358C210.46 178.957 209.988 178.756 209.363 178.756C208.682 178.756 208.154 178.994 207.781 179.47C207.408 179.937 207.221 180.576 207.221 181.388V181.514C207.221 182.373 207.431 183.021 207.851 183.46C208.28 183.899 208.873 184.118 209.629 184.118C210.049 184.118 210.441 184.057 210.805 183.936C211.169 183.815 211.519 183.614 211.855 183.334L212.275 184.216C211.958 184.505 211.561 184.729 211.085 184.888C210.618 185.047 210.128 185.126 209.615 185.126ZM216.926 185.126C216.31 185.126 215.769 184.981 215.302 184.692C214.835 184.403 214.471 183.983 214.21 183.432C213.949 182.881 213.818 182.228 213.818 181.472C213.818 180.716 213.949 180.067 214.21 179.526C214.471 178.975 214.835 178.555 215.302 178.266C215.769 177.977 216.31 177.832 216.926 177.832C217.542 177.832 218.079 177.986 218.536 178.294C219.003 178.602 219.315 179.027 219.474 179.568H219.306V174.696H220.58V185H219.32V183.362H219.474C219.325 183.913 219.017 184.347 218.55 184.664C218.093 184.972 217.551 185.126 216.926 185.126ZM217.22 184.118C217.855 184.118 218.363 183.894 218.746 183.446C219.138 182.998 219.334 182.34 219.334 181.472C219.334 180.604 219.138 179.951 218.746 179.512C218.363 179.073 217.855 178.854 217.22 178.854C216.585 178.854 216.072 179.073 215.68 179.512C215.297 179.951 215.106 180.604 215.106 181.472C215.106 182.34 215.297 182.998 215.68 183.446C216.072 183.894 216.585 184.118 217.22 184.118ZM222.915 185V177.958H224.189V185H222.915ZM222.803 176.418V175.046H224.315V176.418H222.803ZM229.207 185.126C228.591 185.126 228.05 184.981 227.583 184.692C227.116 184.403 226.752 183.983 226.491 183.432C226.23 182.881 226.099 182.228 226.099 181.472C226.099 180.716 226.23 180.067 226.491 179.526C226.752 178.975 227.116 178.555 227.583 178.266C228.05 177.977 228.591 177.832 229.207 177.832C229.832 177.832 230.374 177.991 230.831 178.308C231.298 178.616 231.606 179.041 231.755 179.582H231.587L231.741 177.958H232.973C232.945 178.238 232.917 178.518 232.889 178.798C232.87 179.078 232.861 179.353 232.861 179.624V185H231.587V183.39H231.741C231.592 183.922 231.284 184.347 230.817 184.664C230.36 184.972 229.823 185.126 229.207 185.126ZM229.501 184.118C230.136 184.118 230.644 183.894 231.027 183.446C231.41 182.998 231.601 182.34 231.601 181.472C231.601 180.604 231.41 179.951 231.027 179.512C230.644 179.073 230.136 178.854 229.501 178.854C228.866 178.854 228.353 179.073 227.961 179.512C227.578 179.951 227.387 180.604 227.387 181.472C227.387 182.34 227.578 182.998 227.961 183.446C228.344 183.894 228.857 184.118 229.501 184.118ZM237.827 185.126C237.09 185.126 236.53 184.925 236.147 184.524C235.774 184.113 235.587 183.497 235.587 182.676V178.938H234.215V177.958H235.587V176.068L236.861 175.718V177.958H238.849V178.938H236.861V182.564C236.861 183.105 236.955 183.493 237.141 183.726C237.337 183.95 237.617 184.062 237.981 184.062C238.168 184.062 238.327 184.048 238.457 184.02C238.597 183.983 238.723 183.941 238.835 183.894V184.944C238.695 185 238.532 185.042 238.345 185.07C238.168 185.107 237.995 185.126 237.827 185.126ZM243.523 185.126C242.403 185.126 241.517 184.804 240.863 184.16C240.219 183.516 239.897 182.629 239.897 181.5C239.897 180.753 240.037 180.109 240.317 179.568C240.607 179.017 241.003 178.593 241.507 178.294C242.011 177.986 242.599 177.832 243.271 177.832C243.915 177.832 244.461 177.972 244.909 178.252C245.357 178.523 245.698 178.91 245.931 179.414C246.165 179.918 246.281 180.515 246.281 181.206V181.626H240.891V180.87H245.413L245.175 181.052C245.175 180.324 245.012 179.759 244.685 179.358C244.368 178.957 243.897 178.756 243.271 178.756C242.59 178.756 242.063 178.994 241.689 179.47C241.316 179.937 241.129 180.576 241.129 181.388V181.514C241.129 182.373 241.339 183.021 241.759 183.46C242.189 183.899 242.781 184.118 243.537 184.118C243.957 184.118 244.349 184.057 244.713 183.936C245.077 183.815 245.427 183.614 245.763 183.334L246.183 184.216C245.866 184.505 245.469 184.729 244.993 184.888C244.527 185.047 244.037 185.126 243.523 185.126Z" fill="#1E1E1E"/>
<rect x="266.333" y="160" width="105.667" height="40" rx="20" fill="#FEF2DC"/>
<rect x="266.333" y="160" width="105.667" height="40" rx="20" fill="#DE9615"/>
<rect x="266.333" y="160" width="105.667" height="40" rx="20" fill="#F7A717"/>
<path d="M285.362 185L289.73 175.13H290.864L295.302 185H293.958L292.74 182.2L293.3 182.536H287.294L287.91 182.2L286.692 185H285.362ZM290.276 176.586L288.092 181.766L287.756 181.472H292.838L292.572 181.766L290.332 176.586H290.276ZM299.386 185.126C298.77 185.126 298.228 184.981 297.762 184.692C297.295 184.403 296.931 183.983 296.67 183.432C296.408 182.881 296.278 182.228 296.278 181.472C296.278 180.716 296.408 180.067 296.67 179.526C296.931 178.975 297.295 178.555 297.762 178.266C298.228 177.977 298.77 177.832 299.386 177.832C300.002 177.832 300.538 177.986 300.996 178.294C301.462 178.602 301.775 179.027 301.934 179.568H301.766V174.696H303.04V185H301.78V183.362H301.934C301.784 183.913 301.476 184.347 301.01 184.664C300.552 184.972 300.011 185.126 299.386 185.126ZM299.68 184.118C300.314 184.118 300.823 183.894 301.206 183.446C301.598 182.998 301.794 182.34 301.794 181.472C301.794 180.604 301.598 179.951 301.206 179.512C300.823 179.073 300.314 178.854 299.68 178.854C299.045 178.854 298.532 179.073 298.14 179.512C297.757 179.951 297.566 180.604 297.566 181.472C297.566 182.34 297.757 182.998 298.14 183.446C298.532 183.894 299.045 184.118 299.68 184.118ZM307.446 185L304.436 177.958H305.808L308.258 184.006H307.866L310.358 177.958H311.66L308.636 185H307.446ZM315.604 185.126C314.988 185.126 314.447 184.981 313.98 184.692C313.513 184.403 313.149 183.983 312.888 183.432C312.627 182.881 312.496 182.228 312.496 181.472C312.496 180.716 312.627 180.067 312.888 179.526C313.149 178.975 313.513 178.555 313.98 178.266C314.447 177.977 314.988 177.832 315.604 177.832C316.229 177.832 316.771 177.991 317.228 178.308C317.695 178.616 318.003 179.041 318.152 179.582H317.984L318.138 177.958H319.37C319.342 178.238 319.314 178.518 319.286 178.798C319.267 179.078 319.258 179.353 319.258 179.624V185H317.984V183.39H318.138C317.989 183.922 317.681 184.347 317.214 184.664C316.757 184.972 316.22 185.126 315.604 185.126ZM315.898 184.118C316.533 184.118 317.041 183.894 317.424 183.446C317.807 182.998 317.998 182.34 317.998 181.472C317.998 180.604 317.807 179.951 317.424 179.512C317.041 179.073 316.533 178.854 315.898 178.854C315.263 178.854 314.75 179.073 314.358 179.512C313.975 179.951 313.784 180.604 313.784 181.472C313.784 182.34 313.975 182.998 314.358 183.446C314.741 183.894 315.254 184.118 315.898 184.118ZM321.593 185V179.624C321.593 179.353 321.583 179.078 321.565 178.798C321.546 178.518 321.518 178.238 321.481 177.958H322.713L322.853 179.47H322.685C322.899 178.938 323.231 178.532 323.679 178.252C324.127 177.972 324.649 177.832 325.247 177.832C326.077 177.832 326.703 178.061 327.123 178.518C327.543 178.966 327.753 179.666 327.753 180.618V185H326.479V180.688C326.479 180.044 326.353 179.582 326.101 179.302C325.849 179.013 325.457 178.868 324.925 178.868C324.29 178.868 323.786 179.059 323.413 179.442C323.049 179.825 322.867 180.343 322.867 180.996V185H321.593ZM333.061 185.126C332.361 185.126 331.754 184.981 331.241 184.692C330.727 184.393 330.326 183.969 330.037 183.418C329.757 182.858 329.617 182.195 329.617 181.43C329.617 180.674 329.761 180.03 330.051 179.498C330.34 178.957 330.741 178.546 331.255 178.266C331.768 177.977 332.37 177.832 333.061 177.832C333.518 177.832 333.961 177.911 334.391 178.07C334.82 178.219 335.17 178.439 335.441 178.728L335.007 179.624C334.736 179.363 334.437 179.171 334.111 179.05C333.784 178.919 333.462 178.854 333.145 178.854C332.454 178.854 331.913 179.078 331.521 179.526C331.129 179.965 330.933 180.604 330.933 181.444C330.933 182.293 331.129 182.947 331.521 183.404C331.913 183.861 332.454 184.09 333.145 184.09C333.453 184.09 333.77 184.029 334.097 183.908C334.423 183.787 334.727 183.595 335.007 183.334L335.441 184.216C335.161 184.515 334.801 184.743 334.363 184.902C333.933 185.051 333.499 185.126 333.061 185.126ZM340.265 185.126C339.145 185.126 338.258 184.804 337.605 184.16C336.961 183.516 336.639 182.629 336.639 181.5C336.639 180.753 336.779 180.109 337.059 179.568C337.348 179.017 337.745 178.593 338.249 178.294C338.753 177.986 339.341 177.832 340.013 177.832C340.657 177.832 341.203 177.972 341.651 178.252C342.099 178.523 342.44 178.91 342.673 179.414C342.906 179.918 343.023 180.515 343.023 181.206V181.626H337.633V180.87H342.155L341.917 181.052C341.917 180.324 341.754 179.759 341.427 179.358C341.11 178.957 340.638 178.756 340.013 178.756C339.332 178.756 338.804 178.994 338.431 179.47C338.058 179.937 337.871 180.576 337.871 181.388V181.514C337.871 182.373 338.081 183.021 338.501 183.46C338.93 183.899 339.523 184.118 340.279 184.118C340.699 184.118 341.091 184.057 341.455 183.936C341.819 183.815 342.169 183.614 342.505 183.334L342.925 184.216C342.608 184.505 342.211 184.729 341.735 184.888C341.268 185.047 340.778 185.126 340.265 185.126ZM347.576 185.126C346.96 185.126 346.418 184.981 345.952 184.692C345.485 184.403 345.121 183.983 344.86 183.432C344.598 182.881 344.468 182.228 344.468 181.472C344.468 180.716 344.598 180.067 344.86 179.526C345.121 178.975 345.485 178.555 345.952 178.266C346.418 177.977 346.96 177.832 347.576 177.832C348.192 177.832 348.728 177.986 349.186 178.294C349.652 178.602 349.965 179.027 350.124 179.568H349.956V174.696H351.23V185H349.97V183.362H350.124C349.974 183.913 349.666 184.347 349.2 184.664C348.742 184.972 348.201 185.126 347.576 185.126ZM347.87 184.118C348.504 184.118 349.013 183.894 349.396 183.446C349.788 182.998 349.984 182.34 349.984 181.472C349.984 180.604 349.788 179.951 349.396 179.512C349.013 179.073 348.504 178.854 347.87 178.854C347.235 178.854 346.722 179.073 346.33 179.512C345.947 179.951 345.756 180.604 345.756 181.472C345.756 182.34 345.947 182.998 346.33 183.446C346.722 183.894 347.235 184.118 347.87 184.118Z" fill="#FFFCF1"/>
<rect x="1" y="1" width="407" height="224" rx="8" stroke="#9747FF" stroke-width="2" stroke-dasharray="8 8"/>
<defs>
<filter id="filter0_dd_4540_2360" x="29" y="22" width="121.667" height="56" filterUnits="userSpaceOnUse" color-interpolation-filters="sRGB">
<feFlood flood-opacity="0" result="BackgroundImageFix"/>
<feColorMatrix in="SourceAlpha" type="matrix" values="0 0 0 0 0 0 0 0 0 0 0 0 0 0 0 0 0 0 127 0" result="hardAlpha"/>
<feOffset dy="4"/>
<feGaussianBlur stdDeviation="4"/>
<feComposite in2="hardAlpha" operator="out"/>
<feColorMatrix type="matrix" values="0 0 0 0 0.443137 0 0 0 0 0.501961 0 0 0 0 0.588235 0 0 0 0.08 0"/>
<feBlend mode="normal" in2="BackgroundImageFix" result="effect1_dropShadow_4540_2360"/>
<feColorMatrix in="SourceAlpha" type="matrix" values="0 0 0 0 0 0 0 0 0 0 0 0 0 0 0 0 0 0 127 0" result="hardAlpha"/>
<feOffset/>
<feGaussianBlur stdDeviation="0.5"/>
<feComposite in2="hardAlpha" operator="out"/>
<feColorMatrix type="matrix" values="0 0 0 0 0.443137 0 0 0 0 0.501961 0 0 0 0 0.588235 0 0 0 0.04 0"/>
<feBlend mode="normal" in2="effect1_dropShadow_4540_2360" result="effect2_dropShadow_4540_2360"/>
<feBlend mode="normal" in="SourceGraphic" in2="effect2_dropShadow_4540_2360" result="shape"/>
</filter>
<filter id="filter1_dd_4540_2360" x="29" y="89" width="121.667" height="56" filterUnits="userSpaceOnUse" color-interpolation-filters="sRGB">
<feFlood flood-opacity="0" result="BackgroundImageFix"/>
<feColorMatrix in="SourceAlpha" type="matrix" values="0 0 0 0 0 0 0 0 0 0 0 0 0 0 0 0 0 0 127 0" result="hardAlpha"/>
<feOffset dy="4"/>
<feGaussianBlur stdDeviation="4"/>
<feComposite in2="hardAlpha" operator="out"/>
<feColorMatrix type="matrix" values="0 0 0 0 0.443137 0 0 0 0 0.501961 0 0 0 0 0.588235 0 0 0 0.08 0"/>
<feBlend mode="normal" in2="BackgroundImageFix" result="effect1_dropShadow_4540_2360"/>
<feColorMatrix in="SourceAlpha" type="matrix" values="0 0 0 0 0 0 0 0 0 0 0 0 0 0 0 0 0 0 127 0" result="hardAlpha"/>
<feOffset/>
<feGaussianBlur stdDeviation="0.5"/>
<feComposite in2="hardAlpha" operator="out"/>
<feColorMatrix type="matrix" values="0 0 0 0 0.443137 0 0 0 0 0.501961 0 0 0 0 0.588235 0 0 0 0.04 0"/>
<feBlend mode="normal" in2="effect1_dropShadow_4540_2360" result="effect2_dropShadow_4540_2360"/>
<feBlend mode="normal" in="SourceGraphic" in2="effect2_dropShadow_4540_2360" result="shape"/>
</filter>
<filter id="filter2_dd_4540_2360" x="29" y="156" width="121.667" height="56" filterUnits="userSpaceOnUse" color-interpolation-filters="sRGB">
<feFlood flood-opacity="0" result="BackgroundImageFix"/>
<feColorMatrix in="SourceAlpha" type="matrix" values="0 0 0 0 0 0 0 0 0 0 0 0 0 0 0 0 0 0 127 0" result="hardAlpha"/>
<feOffset dy="4"/>
<feGaussianBlur stdDeviation="4"/>
<feComposite in2="hardAlpha" operator="out"/>
<feColorMatrix type="matrix" values="0 0 0 0 0.443137 0 0 0 0 0.501961 0 0 0 0 0.588235 0 0 0 0.08 0"/>
<feBlend mode="normal" in2="BackgroundImageFix" result="effect1_dropShadow_4540_2360"/>
<feColorMatrix in="SourceAlpha" type="matrix" values="0 0 0 0 0 0 0 0 0 0 0 0 0 0 0 0 0 0 127 0" result="hardAlpha"/>
<feOffset/>
<feGaussianBlur stdDeviation="0.5"/>
<feComposite in2="hardAlpha" operator="out"/>
<feColorMatrix type="matrix" values="0 0 0 0 0.443137 0 0 0 0 0.501961 0 0 0 0 0.588235 0 0 0 0.04 0"/>
<feBlend mode="normal" in2="effect1_dropShadow_4540_2360" result="effect2_dropShadow_4540_2360"/>
<feBlend mode="normal" in="SourceGraphic" in2="effect2_dropShadow_4540_2360" result="shape"/>
</filter>
</defs>
</svg>
