<svg width="274" height="179" viewBox="0 0 274 179" fill="none" xmlns="http://www.w3.org/2000/svg">
<path d="M150.788 0.759521H185.591L232.549 119.965L213.208 127.245L186.7 57.8355L128.14 114.932L134.772 135.067L115.985 141.785L81.7365 50.5757H66.2554V29.8591H119.846V50.5757H103.276L120.4 93.6534L176.742 37.7005L171.219 21.4761H149.402L150.788 0.759521Z" fill="#0A304C"/>
<path d="M231.163 77.9103L239.142 98.8476C241.834 100.833 246.565 104.864 249.911 111.482C252.505 116.616 253.257 121.329 253.494 124.317C253.395 126.804 252.742 136.892 244.249 145.435C235.301 154.44 224.037 155.262 221.621 155.382C219.444 155.322 207.209 154.841 198.063 145.174C190.738 137.433 189.887 128.549 189.748 125.841V116.636L183.572 95.0773C181.632 97.0627 179.335 99.8102 177.276 103.44C174.208 108.875 172.961 113.969 172.426 117.398C172.169 119.685 171.911 121.991 171.674 124.277C171.456 127.065 170.248 146.017 185.591 160.877C200.122 174.956 218.533 174.775 221.621 174.695C224.314 174.835 246.664 175.577 261.829 158.43C273.509 145.234 273.331 130.013 273.172 126.283C273.351 123.274 274.103 105.185 259.572 91.0663C248.605 80.4172 235.42 78.3516 231.203 77.8702L231.163 77.9103Z" fill="#0A304C"/>
<path d="M77.7178 89.2816C74.7087 87.2962 67.4432 83.3855 58.1981 85.05C48.9331 86.7146 43.588 92.8714 42.1824 94.5961C40.5788 96.6818 36.2829 102.859 35.9266 111.964C35.5702 120.828 39.1534 127.205 40.559 129.451C47.7255 138.195 59.0493 142.106 69.6605 139.519C82.8452 136.29 88.4081 124.618 89.6751 121.57C89.8137 121.249 89.8929 121.008 89.9325 120.908L100.603 145.656L91.8528 152.535L97.6929 169.04L73.3823 178.265L67.9579 162.141L55.9808 161.86L47.9037 176.42L26.7804 165.711L32.4621 149.647L25.5926 141.765L9.33931 148.483L0.391113 124.357L15.7931 117.459L17.1591 104.764L1.22258 99.8305L10.052 75.4839L27.3347 80.9388L35.8672 73.1976L29.7103 56.5321L52.16 48.0088C54.6742 53.3835 57.1884 58.7582 59.7026 64.1529C62.9889 64.554 66.295 64.9351 69.5813 65.3362" fill="#0A304C"/>
</svg>
