<svg width="677" height="301" viewBox="0 0 677 301" fill="none" xmlns="http://www.w3.org/2000/svg">
<path d="M310.984 112.331C308.203 114.3 304.869 115.785 301.017 116.77C297.131 117.755 293.123 118.256 288.96 118.256C277.956 118.256 269.406 115.457 263.291 109.843C257.158 104.229 254.083 95.8684 254.083 84.7611V46.4298H239.677V25.5972H254.083V2.88171H281.152V25.5972H304.403V46.4298H281.152V84.4156C281.152 88.3369 282.188 91.3944 284.261 93.5191C286.351 95.6611 289.167 96.7321 292.76 96.7321C297.044 96.7321 300.689 95.592 303.695 93.26L310.984 112.331Z" fill="#212429"/>
<path d="M374.691 24.3707V49.3319C373.534 49.2109 372.48 49.1418 371.582 49.0727C370.632 49.0209 369.665 48.9691 368.628 48.9691C361.218 48.9691 355.241 51.0765 350.68 55.3087C346.085 59.5236 343.823 66.0878 343.823 75.0012V119.068H316.771V25.7527H342.596V37.9827C345.135 34.4934 348.383 31.6604 352.304 29.4666C358.436 26.0636 365.899 24.3707 374.691 24.3707Z" fill="#212429"/>
<path d="M470.269 44.5988C465.985 37.3782 460.181 31.8332 452.822 27.9465C445.498 24.0771 437.241 22.1597 428.12 22.1597C419 22.1597 410.138 24.2153 402.624 28.3093C395.092 32.4032 389.167 38.0864 384.831 45.307C380.495 52.5276 378.336 60.8365 378.336 70.1991C378.336 79.5616 380.53 87.6978 384.918 94.9011C389.305 102.139 395.541 107.822 403.574 112.002C411.589 116.166 420.952 118.256 431.592 118.256C440.022 118.256 447.502 116.96 453.962 114.352C460.44 111.726 465.83 108.012 470.096 103.158L455.707 87.525C452.58 90.548 449.126 92.7936 445.377 94.2965C441.611 95.7993 437.241 96.5421 432.266 96.5421C426.704 96.5421 421.884 95.5402 417.79 93.5019C413.679 91.4808 410.501 88.5442 408.255 84.6575C407.029 82.5501 406.13 80.2699 405.578 77.7997H476.16C476.281 76.6596 476.401 75.4158 476.522 74.0685C476.626 72.7556 476.695 71.5637 476.695 70.5273C476.695 60.4564 474.553 51.8021 470.269 44.5815V44.5988ZM405.249 62.0284C405.698 59.1091 406.545 56.4834 407.806 54.1514C409.775 50.5065 412.539 47.6736 416.063 45.6352C419.587 43.6314 423.646 42.595 428.276 42.595C432.905 42.595 436.965 43.6142 440.419 45.6352C443.909 47.6563 446.604 50.4547 448.573 54.0477C449.868 56.4316 450.767 59.0745 451.198 62.0284H405.249Z" fill="#212429"/>
<path d="M578.146 44.5988C573.862 37.3782 568.058 31.8332 560.734 27.9465C553.392 24.0771 545.153 22.1597 535.997 22.1597C526.842 22.1597 518.015 24.2153 510.501 28.3093C502.969 32.4032 497.044 38.0864 492.708 45.307C488.373 52.5449 486.213 60.8365 486.213 70.1991C486.213 79.5616 488.424 87.6978 492.812 94.9011C497.182 102.139 503.418 107.822 511.451 112.002C519.483 116.166 528.829 118.256 539.47 118.256C547.917 118.256 555.379 116.96 561.857 114.352C568.317 111.726 573.707 108.012 577.991 103.158L563.584 87.525C560.458 90.548 557.02 92.7936 553.254 94.2965C549.489 95.7993 545.135 96.5421 540.143 96.5421C534.598 96.5421 529.761 95.5402 525.668 93.5019C521.574 91.4808 518.395 88.5442 516.132 84.6575C514.906 82.5501 514.007 80.2699 513.455 77.7997H584.054C584.175 76.6596 584.279 75.4158 584.382 74.0685C584.503 72.7556 584.555 71.5637 584.555 70.5273C584.555 60.4564 582.413 51.8021 578.129 44.5815L578.146 44.5988ZM513.126 62.0284C513.576 59.1091 514.422 56.4834 515.7 54.1514C517.652 50.5065 520.416 47.6736 523.94 45.6352C527.464 43.6314 531.541 42.595 536.17 42.595C540.8 42.595 544.842 43.6142 548.314 45.6352C551.786 47.6563 554.498 50.4547 556.467 54.0477C557.763 56.4316 558.627 59.0745 559.076 62.0284H513.126Z" fill="#212429"/>
<path d="M660.423 112.331C657.642 114.3 654.308 115.785 650.456 116.77C646.569 117.755 642.561 118.256 638.398 118.256C627.395 118.256 618.844 115.457 612.729 109.843C606.597 104.229 603.522 95.8684 603.522 84.7611V46.4298H589.115V25.5972H603.522V2.88171H630.59V25.5972H653.841V46.4298H630.59V84.4156C630.59 88.3369 631.627 91.3944 633.7 93.5191C635.79 95.6611 638.606 96.7321 642.199 96.7321C646.483 96.7321 650.127 95.592 653.133 93.26L660.423 112.331Z" fill="#212429"/>
<path d="M277.628 171.857C271.634 171.857 266.745 170.113 262.979 166.623C259.214 163.134 257.331 158.798 257.331 153.65C257.331 148.503 259.214 144.167 262.979 140.677C266.745 137.188 271.634 135.443 277.628 135.443C283.622 135.443 288.511 137.084 292.276 140.349C296.059 143.631 297.925 147.846 297.925 153.011C297.925 158.453 296.077 162.944 292.397 166.502C288.683 170.061 283.778 171.84 277.628 171.84V171.857ZM261.304 300.152V187.542H293.952V300.152H261.304Z" fill="#212429"/>
<path d="M403.384 137.395V152.217C399.877 147.76 395.679 144.236 390.739 141.628C383.19 137.637 374.484 135.633 364.62 135.633C353.703 135.633 343.874 137.948 335.099 142.612C326.306 147.242 319.259 153.823 313.955 162.305C308.67 170.804 306.009 180.788 306.009 192.258C306.009 203.728 308.67 213.505 313.955 221.987C319.259 230.486 326.306 237.084 335.099 241.818C343.874 246.551 353.703 248.9 364.62 248.9C374.484 248.9 383.19 246.862 390.739 242.802C394.867 240.574 398.53 237.689 401.656 234.182V239.33C401.656 249.919 398.927 257.917 393.486 263.272C388.044 268.644 379.286 271.339 367.246 271.339C359.818 271.339 352.304 270.13 344.686 267.746C337.068 265.362 330.798 262.115 325.84 258.055L312.366 282.446C319.172 287.819 327.723 291.843 337.949 294.521C348.193 297.216 358.816 298.546 369.872 298.546C391.067 298.546 407.322 293.398 418.637 283.085C429.969 272.773 435.634 256.742 435.634 234.942V137.378H403.384V137.395ZM398.15 207.304C395.541 211.674 391.914 215.025 387.267 217.444C382.62 219.828 377.317 221.037 371.357 221.037C365.398 221.037 360.112 219.828 355.465 217.444C350.801 215.043 347.139 211.674 344.444 207.304C341.767 202.951 340.437 197.941 340.437 192.275C340.437 186.609 341.767 181.444 344.444 177.143C347.139 172.859 350.801 169.525 355.465 167.124C360.095 164.723 365.398 163.531 371.357 163.531C377.317 163.531 382.603 164.723 387.267 167.124C391.896 169.508 395.541 172.859 398.15 177.143C400.758 181.444 402.071 186.471 402.071 192.275C402.071 198.079 400.758 202.951 398.15 207.304Z" fill="#212429"/>
<path d="M574.639 231.695V299.79H540.16V236.981C540.16 227.428 538.07 220.346 533.872 215.768C529.675 211.208 523.75 208.928 516.08 208.928C510.621 208.928 505.716 210.05 501.38 212.348C497.027 214.645 493.641 218.135 491.205 222.851C488.787 227.584 487.578 233.612 487.578 240.988V299.79H453.081V135.737H487.578V193.312C490.635 190.22 494.176 187.611 498.167 185.469C506.147 181.203 515.216 179.061 525.374 179.061C534.805 179.061 543.252 180.943 550.697 184.692C558.125 188.458 563.981 194.193 568.265 201.932C572.532 209.67 574.674 219.568 574.674 231.678L574.639 231.695Z" fill="#212429"/>
<path d="M676.039 290.669C672.117 293.433 667.402 295.523 661.943 296.922C656.467 298.304 650.767 299.012 644.911 299.012C629.364 299.012 617.289 295.039 608.618 287.11C599.963 279.181 595.627 267.366 595.627 251.681V197.492H575.279V168.074H595.627V135.962H633.872V168.074H666.728V197.492H633.872V251.197C633.872 256.742 635.358 261.044 638.277 264.067C641.231 267.107 645.222 268.592 650.3 268.592C656.346 268.592 661.494 266.969 665.761 263.704L676.056 290.669H676.039Z" fill="#212429"/>
<path d="M110.12 256.138C110.12 280.166 90.6352 299.652 66.6068 299.652C42.5785 299.652 23.0933 280.166 23.0933 256.138C23.0933 242.923 28.9837 231.091 38.2772 223.144C33.7687 227.256 30.9184 233.198 30.9184 239.779C30.9184 252.182 40.9893 262.236 53.3921 262.236C65.7949 262.236 75.8485 252.182 75.8485 239.779C75.8485 227.377 65.7949 217.306 53.3921 217.306C52.8048 217.306 52.2175 217.323 51.6474 217.375C51.0601 217.427 50.49 217.479 49.92 217.582C49.5054 217.634 49.0908 217.72 48.6935 217.807C48.6072 217.824 48.5381 217.841 48.469 217.859C48.2271 217.91 48.0026 217.962 47.778 218.014C47.2771 218.152 46.7934 218.29 46.327 218.446C45.9469 218.567 45.5669 218.705 45.1869 218.86C44.755 219.033 44.3232 219.206 43.9086 219.413C43.684 219.5 43.4595 219.621 43.2522 219.724C42.8376 219.931 42.4403 220.156 42.0603 220.381C41.5939 220.657 41.1447 220.933 40.6956 221.244C47.9508 215.838 56.8815 212.625 66.6068 212.625C90.6352 212.625 110.12 232.11 110.12 256.138Z" fill="#212429"/>
<path d="M228.658 218.245C228.658 242.109 217.562 263.625 200.313 278.36C185.519 291.04 165.798 298.995 144.236 298.995C160.565 298.995 173.809 286.035 173.809 270.405C173.809 262.157 170.111 254.789 164.264 249.477C163.65 248.89 163.036 248.302 162.1 247.701L72.4304 175.801L43.4712 152.523L44.6992 151.643C44.3922 151.643 44.3922 151.349 44.3922 151.349L43.4712 152.523L34.8463 145.743C32.0688 143.674 29.6129 141.619 27.1424 139.256C10.8136 124.815 0.63916 103.9 0.63916 80.6089C0.63916 57.3177 11.4276 35.2289 28.9843 20.4937C43.7782 7.81355 63.4985 0.152344 85.0607 0.152344C68.7319 0.152344 55.166 12.8325 55.166 28.4484C55.166 36.6968 58.8645 44.0644 65.0188 49.3769C65.6328 49.9641 66.2468 50.5513 66.8754 51.1524L105.395 82.0908L194.451 153.111C196.921 155.18 199.684 157.235 202.155 159.597C218.483 174.333 228.658 194.954 228.658 218.245Z" fill="#212429"/>
</svg>
