<svg width="279" height="219" viewBox="0 0 279 219" fill="none" xmlns="http://www.w3.org/2000/svg">
<path d="M167.194 29.4888H198.601L240.971 135.662L223.523 142.138L199.592 80.3322L146.759 131.176L152.744 149.114L135.796 155.099L104.889 73.856H90.9377V55.4099H139.284V73.856H124.334L139.783 112.23L190.627 62.3855L185.641 47.9349H165.954L167.194 29.4888Z" fill="#0A304C"/>
<path d="M239.714 98.204L246.906 116.858C249.336 118.623 253.598 122.211 256.62 128.112C258.967 132.691 259.642 136.878 259.85 139.541C259.767 141.747 259.167 150.745 251.509 158.354C243.426 166.378 233.279 167.102 231.09 167.211C229.117 167.169 218.08 166.728 209.83 158.112C203.229 151.212 202.455 143.295 202.322 140.898V132.707L196.753 113.512C195.014 115.277 192.933 117.732 191.076 120.97C188.296 125.807 187.189 130.352 186.698 133.406C186.473 135.454 186.24 137.494 186.015 139.541C185.807 142.022 184.717 158.903 198.576 172.147C211.678 184.674 228.293 184.525 231.082 184.45C233.504 184.566 253.673 185.232 267.358 169.966C277.905 158.204 277.73 144.652 277.588 141.323C277.747 138.651 278.421 122.527 265.319 109.958C255.421 100.468 243.526 98.6369 239.714 98.1957V98.204Z" fill="#0A304C"/>
<path d="M101.276 108.334C98.5543 106.561 92.0032 103.09 83.6542 104.564C75.2968 106.037 70.4772 111.531 69.2119 113.062C67.7719 114.919 63.8929 120.421 63.5599 128.52C63.2353 136.411 66.465 142.097 67.7303 144.103C74.1897 151.886 84.4117 155.382 93.9927 153.068C105.879 150.196 110.916 139.791 112.048 137.077C112.172 136.786 112.247 136.586 112.281 136.486L121.912 158.528L114.012 164.655L119.273 179.355L97.339 187.563L92.4361 173.204L81.6314 172.962L74.3396 185.931L55.2858 176.392L60.4134 162.091L54.212 155.074L39.545 161.059L31.4956 139.566L45.3885 133.415L46.6121 122.111L32.2448 117.724L40.2109 96.048L55.8019 100.909L63.5016 94.017L57.9495 79.1751L78.2103 71.5919C80.4827 76.3866 82.7469 81.1729 85.0193 85.9676C87.991 86.3172 90.9711 86.6668 93.9427 87.0164" fill="#0A304C"/>
<path d="M188.104 0.937256L245.873 146.9" stroke="#F28B2F" stroke-miterlimit="10" stroke-dasharray="3 3"/>
<path d="M99.5029 29.4888H272.319" stroke="#F28B2F" stroke-miterlimit="10" stroke-dasharray="3 3"/>
<path d="M99.5029 47.7684H272.319" stroke="#F28B2F" stroke-miterlimit="10" stroke-dasharray="3 3"/>
<path d="M50.4912 54.9604H223.307" stroke="#F28B2F" stroke-miterlimit="10" stroke-dasharray="3 3"/>
<path d="M50.4912 72.9904H223.307" stroke="#F28B2F" stroke-miterlimit="10" stroke-dasharray="3 3"/>
<path d="M169.634 8.2041L227.403 154.167" stroke="#F28B2F" stroke-miterlimit="10" stroke-dasharray="3 3"/>
<path d="M83.2461 19.3169L146.65 180.088" stroke="#F28B2F" stroke-miterlimit="10" stroke-dasharray="3 3"/>
<path d="M43.657 40.8928L102.633 203.337" stroke="#F28B2F" stroke-miterlimit="10" stroke-dasharray="3 3"/>
<path d="M65.1997 33.0765L124.176 195.521" stroke="#F28B2F" stroke-miterlimit="10" stroke-dasharray="3 3"/>
<path d="M107.577 49.9659L40.3523 209.172" stroke="#F28B2F" stroke-miterlimit="10" stroke-dasharray="3 3"/>
<path d="M128.687 58.881L61.4622 218.087" stroke="#F28B2F" stroke-miterlimit="10" stroke-dasharray="3 3"/>
<path d="M140.25 95.2073L2.16162 151.878" stroke="#F28B2F" stroke-miterlimit="10" stroke-dasharray="3 3"/>
<path d="M148.873 116.434L10.7852 173.104" stroke="#F28B2F" stroke-miterlimit="10" stroke-dasharray="3 3"/>
<path d="M173.829 132.099L6.948 87.1912" stroke="#F28B2F" stroke-miterlimit="10" stroke-dasharray="3 3"/>
<path d="M167.877 154.233L0.996094 109.317" stroke="#F28B2F" stroke-miterlimit="10" stroke-dasharray="3 3"/>
<path d="M105.197 23.7202L168.601 184.483" stroke="#F28B2F" stroke-miterlimit="10" stroke-dasharray="3 3"/>
<path d="M88.1406 153.234C102.171 153.234 113.546 142.214 113.546 128.62C113.546 115.026 102.171 104.006 88.1406 104.006C74.1098 104.006 62.7356 115.026 62.7356 128.62C62.7356 142.214 74.1098 153.234 88.1406 153.234Z" stroke="#F28B2F" stroke-miterlimit="10" stroke-dasharray="3 3"/>
<path d="M89.3811 172.097C113.245 172.097 132.591 153.358 132.591 130.243C132.591 107.128 113.245 88.3899 89.3811 88.3899C65.5168 88.3899 46.1709 107.128 46.1709 130.243C46.1709 153.358 65.5168 172.097 89.3811 172.097Z" stroke="#F28B2F" stroke-miterlimit="10" stroke-dasharray="3 3"/>
<path d="M230.532 168.126C246.724 168.126 259.85 155.414 259.85 139.733C259.85 124.052 246.724 111.339 230.532 111.339C214.341 111.339 201.215 124.052 201.215 139.733C201.215 155.414 214.341 168.126 230.532 168.126Z" stroke="#F28B2F" stroke-miterlimit="10" stroke-dasharray="3 3"/>
<path d="M231.781 185.715C257.079 185.715 277.588 165.851 277.588 141.347C277.588 116.844 257.079 96.9802 231.781 96.9802C206.482 96.9802 185.973 116.844 185.973 141.347C185.973 165.851 206.482 185.715 231.781 185.715Z" stroke="#F28B2F" stroke-miterlimit="10" stroke-dasharray="3 3"/>
</svg>
