<svg width="392" height="441" viewBox="0 0 392 441" fill="none" xmlns="http://www.w3.org/2000/svg">
<g clip-path="url(#clip0_1167_1753)">
<path d="M144.461 126.218C167.433 116.707 175.461 83.4342 162.393 51.9003C149.324 20.3664 120.108 2.51289 97.1358 12.0234C74.1638 21.5339 66.1353 54.8069 79.2037 86.3409C92.2722 117.875 121.489 135.728 144.461 126.218Z" fill="white"/>
<path d="M70.7013 190.802C86.6915 178.976 86.4819 151.597 70.2333 129.649C53.9846 107.701 27.8499 99.4964 11.8597 111.322C-4.13043 123.149 -3.92089 150.528 12.3278 172.475C28.5764 194.423 54.7111 202.628 70.7013 190.802Z" fill="white"/>
<path d="M306.985 72.9518C316.261 40.1028 304.381 8.00148 280.451 1.25143C256.521 -5.49861 229.602 15.6587 220.327 48.5077C211.052 81.3567 222.932 113.458 246.862 120.208C270.792 126.958 297.71 105.801 306.985 72.9518Z" fill="white"/>
<path d="M383.514 150.657C397.073 126.955 394.066 99.7404 376.798 89.8717C359.529 80.0031 334.539 91.2172 320.98 114.919C307.42 138.621 310.427 165.836 327.696 175.704C344.964 185.573 369.954 174.359 383.514 150.657Z" fill="white"/>
<path d="M253.056 264.632C251.959 262.713 251.685 261.067 252.233 260.245L266.226 242.968C267.049 241.597 269.793 242.694 271.988 244.888C274.183 247.082 275.28 249.824 274.457 251.195C274.457 251.469 268.147 261.89 258.269 278.057C261.288 281.348 264.031 285.461 266.501 290.398C267.872 293.14 267.598 295.06 265.403 294.785C263.482 294.785 260.739 292.317 259.093 289.849C257.721 287.381 256.349 285.187 254.977 283.268C244.825 299.447 231.656 320.276 217.675 341.118C257.446 336.456 294.474 319.454 319.442 297.802C330.691 288.204 339.196 277.783 344.958 266.826C350.72 256.131 353.189 245.436 352.092 234.754C351.268 225.978 347.702 217.477 341.117 209.811C323.008 188.982 275.318 212.828 209.232 220.207C153.261 226.452 112.791 201.721 76.1376 223.249C57.2061 235.04 41.0307 251.756 32.7996 269.307C29.2328 277.259 27.0379 285.212 27.0379 292.891C27.0379 300.021 28.6841 306.876 32.5253 312.909C36.9152 320.039 44.8719 326.621 56.9317 332.106C59.4011 333.202 61.8704 336.219 62.4191 338.413C62.9679 340.881 61.3216 341.978 58.8523 340.881C43.2132 333.477 32.5253 323.879 25.666 313.47C20.453 304.695 17.9836 295.92 17.9836 286.882C17.9836 278.381 20.453 269.88 24.2942 261.666C32.7996 243.566 49.2494 226.302 68.7296 214.236C110.421 187.923 167.478 173.937 219.321 172.017C274.183 169.823 323.831 181.615 345.494 206.558C354.823 217.253 359.761 228.771 361.133 240.001C362.231 251.793 359.487 263.573 353.451 274.816C347.689 286.06 338.635 296.755 327.398 306.615C301.071 329.363 262.111 346.914 220.693 351.027C217.126 351.576 213.56 351.85 210.267 352.124C179.825 396.263 146.351 439.031 129.627 440.95C121.396 441.773 117.281 436.837 116.183 427.239C114.537 413.527 126.609 380.083 144.98 347.188C145.803 345.817 146.351 344.446 147.175 343.075C146.077 342.526 145.254 341.978 144.156 341.429C135.377 336.767 129.066 330.734 124.676 324.153H124.402C120.286 317.571 118.091 311.264 117.268 304.957C116.445 297.827 118.091 291.245 120.835 286.035C121.658 284.664 124.127 285.212 126.597 287.406C128.792 289.6 130.164 292.616 129.34 293.988C126.871 298.375 125.774 304.134 126.322 310.167C126.597 314.555 128.243 318.943 130.712 322.782L130.987 323.056C133.456 326.621 137.297 330.186 143.059 333.202C145.254 334.574 147.998 335.945 150.741 337.042C168.301 307.712 190.238 280.288 211.09 269.057C224.534 261.927 237.966 260.831 249.764 269.88L253.056 264.67V264.632ZM196 352.361C180.635 352.361 168.027 350.442 157.875 347.151C156.503 349.893 154.857 352.361 153.485 355.104C136.2 386.353 124.414 417.341 124.963 431.04C140.328 427.475 168.575 391.838 196 352.361ZM162.265 340.308C172.965 342.501 186.397 343.598 202.859 342.501C219.047 318.656 234.674 294.249 246.197 275.602C237.966 271.214 228.363 272.859 218.498 278.344C199.292 288.765 179.001 313.159 162.265 340.308Z" fill="white"/>
</g>
<defs>
<clipPath id="clip0_1167_1753">
<rect width="392" height="441" fill="white"/>
</clipPath>
</defs>
</svg>
