<svg width="273" height="286" viewBox="0 0 273 286" fill="none" xmlns="http://www.w3.org/2000/svg">
<rect x="0.5" y="0.5" width="272" height="284.982" rx="4.5" stroke="#9747FF" stroke-dasharray="10 5"/>
<g filter="url(#filter0_d_2624_21570)">
<rect x="20" y="20" width="233" height="66.0509" rx="12" fill="#E4DAFF"/>
<path d="M82.0509 47.2055V56.5641C82.0313 56.6266 82.0078 56.6931 81.9843 56.7596C81.8314 57.2015 81.4237 57.4987 80.9573 57.5105C80.7182 57.5183 80.4751 57.5105 80.236 57.5144H79.8244V61.8827C79.8244 61.9766 79.75 62.0509 79.6559 62.0509H77.696C77.6019 62.0509 77.5274 61.9766 77.5274 61.8827V57.5261H68.5274V61.8827C68.5274 61.9766 68.453 62.0509 68.3589 62.0509H66.3989C66.3049 62.0509 66.2304 61.9766 66.2304 61.8827V57.5144H65.1956C64.4782 57.5105 64 57.0334 64 56.3216V47.4402C64 46.7362 64.4782 46.2552 65.1838 46.2552C65.8502 46.2513 66.5205 46.2552 67.1908 46.2552H67.3711V44.7456C67.1124 44.7456 66.8654 44.7534 66.6185 44.7456C66.4107 44.7378 66.2618 44.5814 66.2578 44.3858C66.2539 44.1864 66.4068 44.0065 66.6145 44.0065C67.3789 43.9987 68.1433 43.9987 68.9077 44.0065C69.1193 44.0065 69.2644 44.1825 69.2604 44.3897C69.2526 44.5892 69.1115 44.7339 68.8998 44.7456C68.8097 44.7534 68.7234 44.7495 68.6333 44.7495H68.1472V46.2435H72.6354V44.7495C72.3846 44.7495 72.1454 44.7495 71.9024 44.7456C71.679 44.7417 71.5183 44.5775 71.5222 44.3702C71.5261 44.1707 71.6829 44.0065 71.8985 44.0065C72.6472 43.9987 73.3998 43.9987 74.1524 44.0026C74.3523 44.0065 74.4895 44.1316 74.5209 44.3154C74.564 44.5423 74.3994 44.7378 74.1485 44.7456C73.9055 44.7534 73.6624 44.7495 73.4194 44.7495V46.2435H77.9037V44.7495C77.6685 44.7495 77.449 44.7495 77.2256 44.7456C77.1393 44.7456 77.0492 44.73 76.9708 44.6948C76.8218 44.6205 76.7591 44.4328 76.8022 44.2685C76.8493 44.1082 76.9982 44.0026 77.1942 44.0026H79.3462C79.6167 44.0026 79.7892 44.1434 79.7931 44.3663C79.8009 44.597 79.6284 44.7456 79.3462 44.7495H78.6759V46.2552H78.8758C79.5579 46.2552 80.2399 46.2513 80.922 46.2552C81.4237 46.2591 81.8432 46.5681 81.996 47.0373C82.0156 47.096 82.0352 47.1508 82.0509 47.2055Z" fill="#212429"/>
<path d="M112.925 55.5375H108.851L108.151 57.5255H106.485L109.971 47.7815H111.819L115.305 57.5255H113.625L112.925 55.5375ZM112.477 54.2355L110.895 49.7135L109.299 54.2355H112.477ZM116.289 53.6335C116.289 52.8588 116.447 52.1728 116.765 51.5755C117.091 50.9781 117.53 50.5161 118.081 50.1895C118.641 49.8535 119.261 49.6855 119.943 49.6855C120.447 49.6855 120.941 49.7975 121.427 50.0215C121.921 50.2361 122.313 50.5255 122.603 50.8895V47.1655H124.213V57.5255H122.603V56.3635C122.341 56.7368 121.977 57.0448 121.511 57.2875C121.053 57.5301 120.526 57.6515 119.929 57.6515C119.257 57.6515 118.641 57.4835 118.081 57.1475C117.53 56.8021 117.091 56.3261 116.765 55.7195C116.447 55.1035 116.289 54.4081 116.289 53.6335ZM122.603 53.6615C122.603 53.1295 122.491 52.6675 122.267 52.2755C122.052 51.8835 121.767 51.5848 121.413 51.3795C121.058 51.1741 120.675 51.0715 120.265 51.0715C119.854 51.0715 119.471 51.1741 119.117 51.3795C118.762 51.5755 118.473 51.8695 118.249 52.2615C118.034 52.6441 117.927 53.1015 117.927 53.6335C117.927 54.1655 118.034 54.6321 118.249 55.0335C118.473 55.4348 118.762 55.7428 119.117 55.9575C119.481 56.1628 119.863 56.2655 120.265 56.2655C120.675 56.2655 121.058 56.1628 121.413 55.9575C121.767 55.7521 122.052 55.4535 122.267 55.0615C122.491 54.6601 122.603 54.1935 122.603 53.6615ZM125.777 53.6335C125.777 52.8588 125.935 52.1728 126.253 51.5755C126.579 50.9781 127.018 50.5161 127.569 50.1895C128.129 49.8535 128.749 49.6855 129.431 49.6855C129.935 49.6855 130.429 49.7975 130.915 50.0215C131.409 50.2361 131.801 50.5255 132.091 50.8895V47.1655H133.701V57.5255H132.091V56.3635C131.829 56.7368 131.465 57.0448 130.999 57.2875C130.541 57.5301 130.014 57.6515 129.417 57.6515C128.745 57.6515 128.129 57.4835 127.569 57.1475C127.018 56.8021 126.579 56.3261 126.253 55.7195C125.935 55.1035 125.777 54.4081 125.777 53.6335ZM132.091 53.6615C132.091 53.1295 131.979 52.6675 131.755 52.2755C131.54 51.8835 131.255 51.5848 130.901 51.3795C130.546 51.1741 130.163 51.0715 129.753 51.0715C129.342 51.0715 128.959 51.1741 128.605 51.3795C128.25 51.5755 127.961 51.8695 127.737 52.2615C127.522 52.6441 127.415 53.1015 127.415 53.6335C127.415 54.1655 127.522 54.6321 127.737 55.0335C127.961 55.4348 128.25 55.7428 128.605 55.9575C128.969 56.1628 129.351 56.2655 129.753 56.2655C130.163 56.2655 130.546 56.1628 130.901 55.9575C131.255 55.7521 131.54 55.4535 131.755 55.0615C131.979 54.6601 132.091 54.1935 132.091 53.6615ZM144.642 52.5275C145.164 52.6208 145.608 52.8961 145.972 53.3535C146.336 53.8108 146.518 54.3288 146.518 54.9075C146.518 55.4021 146.387 55.8501 146.126 56.2515C145.874 56.6435 145.505 56.9561 145.02 57.1895C144.534 57.4135 143.97 57.5255 143.326 57.5255H139.434V47.7955H143.144C143.806 47.7955 144.376 47.9075 144.852 48.1315C145.328 48.3555 145.687 48.6588 145.93 49.0415C146.172 49.4148 146.294 49.8348 146.294 50.3015C146.294 50.8615 146.144 51.3281 145.846 51.7015C145.547 52.0748 145.146 52.3501 144.642 52.5275ZM141.03 51.8835H143.004C143.526 51.8835 143.932 51.7668 144.222 51.5335C144.52 51.2908 144.67 50.9455 144.67 50.4975C144.67 50.0588 144.52 49.7181 144.222 49.4755C143.932 49.2235 143.526 49.0975 143.004 49.0975H141.03V51.8835ZM143.186 56.2235C143.727 56.2235 144.152 56.0928 144.46 55.8315C144.768 55.5701 144.922 55.2061 144.922 54.7395C144.922 54.2635 144.758 53.8855 144.432 53.6055C144.105 53.3255 143.671 53.1855 143.13 53.1855H141.03V56.2235H143.186ZM149.064 48.7895C148.775 48.7895 148.532 48.6915 148.336 48.4955C148.14 48.2995 148.042 48.0568 148.042 47.7675C148.042 47.4781 148.14 47.2355 148.336 47.0395C148.532 46.8435 148.775 46.7455 149.064 46.7455C149.344 46.7455 149.582 46.8435 149.778 47.0395C149.974 47.2355 150.072 47.4781 150.072 47.7675C150.072 48.0568 149.974 48.2995 149.778 48.4955C149.582 48.6915 149.344 48.7895 149.064 48.7895ZM149.848 49.8115V57.5255H148.252V49.8115H149.848ZM153.54 47.1655V57.5255H151.944V47.1655H153.54ZM157.231 47.1655V57.5255H155.635V47.1655H157.231ZM160.922 50.9595C161.193 50.5861 161.562 50.2828 162.028 50.0495C162.504 49.8068 163.032 49.6855 163.61 49.6855C164.292 49.6855 164.908 49.8488 165.458 50.1755C166.009 50.5021 166.443 50.9688 166.76 51.5755C167.078 52.1728 167.236 52.8588 167.236 53.6335C167.236 54.4081 167.078 55.1035 166.76 55.7195C166.443 56.3261 166.004 56.8021 165.444 57.1475C164.894 57.4835 164.282 57.6515 163.61 57.6515C163.013 57.6515 162.481 57.5348 162.014 57.3015C161.557 57.0681 161.193 56.7695 160.922 56.4055V57.5255H159.326V47.1655H160.922V50.9595ZM165.612 53.6335C165.612 53.1015 165.5 52.6441 165.276 52.2615C165.062 51.8695 164.772 51.5755 164.408 51.3795C164.054 51.1741 163.671 51.0715 163.26 51.0715C162.859 51.0715 162.476 51.1741 162.112 51.3795C161.758 51.5848 161.468 51.8835 161.244 52.2755C161.03 52.6675 160.922 53.1295 160.922 53.6615C160.922 54.1935 161.03 54.6601 161.244 55.0615C161.468 55.4535 161.758 55.7521 162.112 55.9575C162.476 56.1628 162.859 56.2655 163.26 56.2655C163.671 56.2655 164.054 56.1628 164.408 55.9575C164.772 55.7428 165.062 55.4348 165.276 55.0335C165.5 54.6321 165.612 54.1655 165.612 53.6335ZM172.161 57.6515C171.433 57.6515 170.775 57.4881 170.187 57.1615C169.599 56.8255 169.137 56.3588 168.801 55.7615C168.465 55.1548 168.297 54.4548 168.297 53.6615C168.297 52.8775 168.469 52.1821 168.815 51.5755C169.16 50.9688 169.631 50.5021 170.229 50.1755C170.826 49.8488 171.493 49.6855 172.231 49.6855C172.968 49.6855 173.635 49.8488 174.233 50.1755C174.83 50.5021 175.301 50.9688 175.647 51.5755C175.992 52.1821 176.165 52.8775 176.165 53.6615C176.165 54.4455 175.987 55.1408 175.633 55.7475C175.278 56.3541 174.793 56.8255 174.177 57.1615C173.57 57.4881 172.898 57.6515 172.161 57.6515ZM172.161 56.2655C172.571 56.2655 172.954 56.1675 173.309 55.9715C173.673 55.7755 173.967 55.4815 174.191 55.0895C174.415 54.6975 174.527 54.2215 174.527 53.6615C174.527 53.1015 174.419 52.6301 174.205 52.2475C173.99 51.8555 173.705 51.5615 173.351 51.3655C172.996 51.1695 172.613 51.0715 172.203 51.0715C171.792 51.0715 171.409 51.1695 171.055 51.3655C170.709 51.5615 170.434 51.8555 170.229 52.2475C170.023 52.6301 169.921 53.1015 169.921 53.6615C169.921 54.4921 170.131 55.1361 170.551 55.5935C170.98 56.0415 171.517 56.2655 172.161 56.2655ZM177.21 53.6335C177.21 52.8588 177.369 52.1728 177.686 51.5755C178.013 50.9781 178.452 50.5161 179.002 50.1895C179.562 49.8535 180.178 49.6855 180.85 49.6855C181.457 49.6855 181.984 49.8068 182.432 50.0495C182.89 50.2828 183.254 50.5768 183.524 50.9315V49.8115H185.134V57.5255H183.524V56.3775C183.254 56.7415 182.885 57.0448 182.418 57.2875C181.952 57.5301 181.42 57.6515 180.822 57.6515C180.16 57.6515 179.553 57.4835 179.002 57.1475C178.452 56.8021 178.013 56.3261 177.686 55.7195C177.369 55.1035 177.21 54.4081 177.21 53.6335ZM183.524 53.6615C183.524 53.1295 183.412 52.6675 183.188 52.2755C182.974 51.8835 182.689 51.5848 182.334 51.3795C181.98 51.1741 181.597 51.0715 181.186 51.0715C180.776 51.0715 180.393 51.1741 180.038 51.3795C179.684 51.5755 179.394 51.8695 179.17 52.2615C178.956 52.6441 178.848 53.1015 178.848 53.6335C178.848 54.1655 178.956 54.6321 179.17 55.0335C179.394 55.4348 179.684 55.7428 180.038 55.9575C180.402 56.1628 180.785 56.2655 181.186 56.2655C181.597 56.2655 181.98 56.1628 182.334 55.9575C182.689 55.7521 182.974 55.4535 183.188 55.0615C183.412 54.6601 183.524 54.1935 183.524 53.6615ZM188.827 50.9315C189.06 50.5395 189.368 50.2361 189.751 50.0215C190.143 49.7975 190.605 49.6855 191.137 49.6855V51.3375H190.731C190.105 51.3375 189.629 51.4961 189.303 51.8135C188.985 52.1308 188.827 52.6815 188.827 53.4655V57.5255H187.231V49.8115H188.827V50.9315ZM192.072 53.6335C192.072 52.8588 192.23 52.1728 192.548 51.5755C192.874 50.9781 193.313 50.5161 193.864 50.1895C194.424 49.8535 195.044 49.6855 195.726 49.6855C196.23 49.6855 196.724 49.7975 197.21 50.0215C197.704 50.2361 198.096 50.5255 198.386 50.8895V47.1655H199.996V57.5255H198.386V56.3635C198.124 56.7368 197.76 57.0448 197.294 57.2875C196.836 57.5301 196.309 57.6515 195.712 57.6515C195.04 57.6515 194.424 57.4835 193.864 57.1475C193.313 56.8021 192.874 56.3261 192.548 55.7195C192.23 55.1035 192.072 54.4081 192.072 53.6335ZM198.386 53.6615C198.386 53.1295 198.274 52.6675 198.05 52.2755C197.835 51.8835 197.55 51.5848 197.196 51.3795C196.841 51.1741 196.458 51.0715 196.048 51.0715C195.637 51.0715 195.254 51.1741 194.9 51.3795C194.545 51.5755 194.256 51.8695 194.032 52.2615C193.817 52.6441 193.71 53.1015 193.71 53.6335C193.71 54.1655 193.817 54.6321 194.032 55.0335C194.256 55.4348 194.545 55.7428 194.9 55.9575C195.264 56.1628 195.646 56.2655 196.048 56.2655C196.458 56.2655 196.841 56.1628 197.196 55.9575C197.55 55.7521 197.835 55.4535 198.05 55.0615C198.274 54.6601 198.386 54.1935 198.386 53.6615Z" fill="black"/>
</g>
<g filter="url(#filter1_d_2624_21570)">
<rect x="20" y="106.051" width="233" height="69.9655" rx="12" fill="#E4DAFF"/>
<path d="M74.965 147.523C72.6593 147.523 70.3485 147.523 68.0427 147.523C66.8035 147.523 65.8436 147.001 65.2951 145.854C65.1275 145.503 65.026 145.079 65.026 144.686C65.0057 141.209 65.0107 137.737 65.0158 134.26C65.0158 132.777 66.2246 131.512 67.6872 131.434C67.8244 131.429 67.9564 131.424 68.0935 131.424C72.6847 131.424 77.2758 131.424 81.867 131.424C82.8523 131.424 83.6852 131.744 84.32 132.519C84.7314 133.02 84.9447 133.609 84.9447 134.265C84.9447 137.742 84.9498 141.214 84.9447 144.692C84.9447 146.195 83.7156 147.476 82.2225 147.518C80.963 147.549 79.6984 147.533 78.4389 147.533C77.2809 147.533 76.123 147.533 74.965 147.533V147.523ZM75.4983 139.473C75.4983 140.253 75.4932 141.028 75.4983 141.809C75.4983 142.253 75.8182 142.578 76.2499 142.589C76.7984 142.599 77.352 142.604 77.9005 142.589C79.0026 142.553 79.9675 141.669 80.0539 140.553C80.1097 139.835 80.1097 139.106 80.0539 138.393C79.9675 137.283 78.9975 136.399 77.8954 136.363C77.3876 136.347 76.8746 136.358 76.3617 136.358C75.7878 136.358 75.4932 136.652 75.4881 137.236C75.4881 137.98 75.4881 138.729 75.4881 139.473H75.4983ZM72.9081 140.517C72.9234 140.563 72.9285 140.579 72.9285 140.594C72.9285 140.966 72.9183 141.344 72.9386 141.716C72.9488 141.881 72.9792 142.057 73.0504 142.201C73.2078 142.511 73.5684 142.651 73.8883 142.563C74.2337 142.47 74.4572 142.191 74.4622 141.814C74.4622 140.724 74.4622 139.639 74.4622 138.548C74.4622 138.45 74.4521 138.352 74.4318 138.259C74.1981 137.071 73.1621 136.26 71.9838 136.353C70.8005 136.451 69.8965 137.427 69.8711 138.683C69.8508 139.706 69.866 140.729 69.8711 141.752C69.8711 141.814 69.8812 141.881 69.8914 141.943C69.9676 142.341 70.318 142.609 70.704 142.578C71.0798 142.547 71.3845 142.232 71.3947 141.834C71.4048 141.478 71.3947 141.121 71.3998 140.765C71.3998 140.682 71.4099 140.594 71.415 140.512H72.9081V140.517Z" fill="#212429"/>
<path d="M74.9803 150.644C71.6334 150.644 68.2916 150.644 64.9447 150.644C64.8177 150.644 64.6857 150.644 64.5638 150.618C64.2337 150.54 63.995 150.22 64.0001 149.863C64.0001 149.502 64.2286 149.197 64.5689 149.114C64.6755 149.088 64.7924 149.083 64.899 149.083C71.6232 149.083 78.3424 149.083 85.0666 149.083C85.6202 149.083 85.9655 149.388 85.9655 149.869C85.9655 150.282 85.6659 150.613 85.2545 150.638C85.158 150.644 85.0615 150.638 84.965 150.638C81.6334 150.638 78.3068 150.638 74.9752 150.638L74.9803 150.644Z" fill="#212429"/>
<path d="M77.0473 137.913C77.3266 137.913 77.5907 137.903 77.8497 137.913C78.2408 137.934 78.5404 138.249 78.5557 138.667C78.5709 139.199 78.576 139.737 78.5557 140.269C78.5404 140.718 78.2154 141.013 77.7786 141.023C77.5399 141.023 77.3012 141.023 77.0473 141.023V137.908V137.913Z" fill="#212429"/>
<path d="M71.41 138.931C71.3693 138.538 71.4506 138.223 71.7807 138.021C72.0397 137.861 72.314 137.861 72.573 138.027C72.893 138.233 72.9793 138.543 72.9184 138.926H71.4151L71.41 138.931Z" fill="#212429"/>
<path d="M108.155 143.546H104.081L103.381 145.534H101.715L105.201 135.79H107.049L110.535 145.534H108.855L108.155 143.546ZM107.707 142.244L106.125 137.722L104.529 142.244H107.707ZM111.519 141.642C111.519 140.867 111.678 140.181 111.995 139.584C112.322 138.986 112.76 138.524 113.311 138.198C113.871 137.862 114.492 137.694 115.173 137.694C115.677 137.694 116.172 137.806 116.657 138.03C117.152 138.244 117.544 138.534 117.833 138.898V135.174H119.443V145.534H117.833V144.372C117.572 144.745 117.208 145.053 116.741 145.296C116.284 145.538 115.756 145.66 115.159 145.66C114.487 145.66 113.871 145.492 113.311 145.156C112.76 144.81 112.322 144.334 111.995 143.728C111.678 143.112 111.519 142.416 111.519 141.642ZM117.833 141.67C117.833 141.138 117.721 140.676 117.497 140.284C117.282 139.892 116.998 139.593 116.643 139.388C116.288 139.182 115.906 139.08 115.495 139.08C115.084 139.08 114.702 139.182 114.347 139.388C113.992 139.584 113.703 139.878 113.479 140.27C113.264 140.652 113.157 141.11 113.157 141.642C113.157 142.174 113.264 142.64 113.479 143.042C113.703 143.443 113.992 143.751 114.347 143.966C114.711 144.171 115.094 144.274 115.495 144.274C115.906 144.274 116.288 144.171 116.643 143.966C116.998 143.76 117.282 143.462 117.497 143.07C117.721 142.668 117.833 142.202 117.833 141.67ZM121.007 141.642C121.007 140.867 121.166 140.181 121.483 139.584C121.81 138.986 122.249 138.524 122.799 138.198C123.359 137.862 123.98 137.694 124.661 137.694C125.165 137.694 125.66 137.806 126.145 138.03C126.64 138.244 127.032 138.534 127.321 138.898V135.174H128.931V145.534H127.321V144.372C127.06 144.745 126.696 145.053 126.229 145.296C125.772 145.538 125.245 145.66 124.647 145.66C123.975 145.66 123.359 145.492 122.799 145.156C122.249 144.81 121.81 144.334 121.483 143.728C121.166 143.112 121.007 142.416 121.007 141.642ZM127.321 141.67C127.321 141.138 127.209 140.676 126.985 140.284C126.771 139.892 126.486 139.593 126.131 139.388C125.777 139.182 125.394 139.08 124.983 139.08C124.573 139.08 124.19 139.182 123.835 139.388C123.481 139.584 123.191 139.878 122.967 140.27C122.753 140.652 122.645 141.11 122.645 141.642C122.645 142.174 122.753 142.64 122.967 143.042C123.191 143.443 123.481 143.751 123.835 143.966C124.199 144.171 124.582 144.274 124.983 144.274C125.394 144.274 125.777 144.171 126.131 143.966C126.486 143.76 126.771 143.462 126.985 143.07C127.209 142.668 127.321 142.202 127.321 141.67ZM134.132 140.648C134.132 139.696 134.352 138.842 134.79 138.086C135.238 137.33 135.84 136.742 136.596 136.322C137.362 135.892 138.197 135.678 139.102 135.678C140.138 135.678 141.058 135.934 141.86 136.448C142.672 136.952 143.26 137.67 143.624 138.604H141.706C141.454 138.09 141.104 137.708 140.656 137.456C140.208 137.204 139.69 137.078 139.102 137.078C138.458 137.078 137.884 137.222 137.38 137.512C136.876 137.801 136.48 138.216 136.19 138.758C135.91 139.299 135.77 139.929 135.77 140.648C135.77 141.366 135.91 141.996 136.19 142.538C136.48 143.079 136.876 143.499 137.38 143.798C137.884 144.087 138.458 144.232 139.102 144.232C139.69 144.232 140.208 144.106 140.656 143.854C141.104 143.602 141.454 143.219 141.706 142.706H143.624C143.26 143.639 142.672 144.358 141.86 144.862C141.058 145.366 140.138 145.618 139.102 145.618C138.188 145.618 137.352 145.408 136.596 144.988C135.84 144.558 135.238 143.966 134.79 143.21C134.352 142.454 134.132 141.6 134.132 140.648ZM144.96 141.642C144.96 140.867 145.119 140.181 145.436 139.584C145.763 138.986 146.202 138.524 146.752 138.198C147.312 137.862 147.928 137.694 148.6 137.694C149.207 137.694 149.734 137.815 150.182 138.058C150.64 138.291 151.004 138.585 151.274 138.94V137.82H152.884V145.534H151.274V144.386C151.004 144.75 150.635 145.053 150.168 145.296C149.702 145.538 149.17 145.66 148.572 145.66C147.91 145.66 147.303 145.492 146.752 145.156C146.202 144.81 145.763 144.334 145.436 143.728C145.119 143.112 144.96 142.416 144.96 141.642ZM151.274 141.67C151.274 141.138 151.162 140.676 150.938 140.284C150.724 139.892 150.439 139.593 150.084 139.388C149.73 139.182 149.347 139.08 148.936 139.08C148.526 139.08 148.143 139.182 147.788 139.388C147.434 139.584 147.144 139.878 146.92 140.27C146.706 140.652 146.598 141.11 146.598 141.642C146.598 142.174 146.706 142.64 146.92 143.042C147.144 143.443 147.434 143.751 147.788 143.966C148.152 144.171 148.535 144.274 148.936 144.274C149.347 144.274 149.73 144.171 150.084 143.966C150.439 143.76 150.724 143.462 150.938 143.07C151.162 142.668 151.274 142.202 151.274 141.67ZM164.319 137.694C164.925 137.694 165.467 137.82 165.943 138.072C166.428 138.324 166.806 138.697 167.077 139.192C167.357 139.686 167.497 140.284 167.497 140.984V145.534H165.915V141.222C165.915 140.531 165.742 140.004 165.397 139.64C165.051 139.266 164.58 139.08 163.983 139.08C163.385 139.08 162.909 139.266 162.555 139.64C162.209 140.004 162.037 140.531 162.037 141.222V145.534H160.455V141.222C160.455 140.531 160.282 140.004 159.937 139.64C159.591 139.266 159.12 139.08 158.523 139.08C157.925 139.08 157.449 139.266 157.095 139.64C156.749 140.004 156.577 140.531 156.577 141.222V145.534H154.981V137.82H156.577V138.702C156.838 138.384 157.169 138.137 157.571 137.96C157.972 137.782 158.401 137.694 158.859 137.694C159.475 137.694 160.025 137.824 160.511 138.086C160.996 138.347 161.369 138.725 161.631 139.22C161.864 138.753 162.228 138.384 162.723 138.114C163.217 137.834 163.749 137.694 164.319 137.694ZM171.124 138.954C171.394 138.599 171.763 138.3 172.23 138.058C172.696 137.815 173.224 137.694 173.812 137.694C174.484 137.694 175.095 137.862 175.646 138.198C176.206 138.524 176.644 138.986 176.962 139.584C177.279 140.181 177.438 140.867 177.438 141.642C177.438 142.416 177.279 143.112 176.962 143.728C176.644 144.334 176.206 144.81 175.646 145.156C175.095 145.492 174.484 145.66 173.812 145.66C173.224 145.66 172.701 145.543 172.244 145.31C171.786 145.067 171.413 144.768 171.124 144.414V149.202H169.528V137.82H171.124V138.954ZM175.814 141.642C175.814 141.11 175.702 140.652 175.478 140.27C175.263 139.878 174.974 139.584 174.61 139.388C174.255 139.182 173.872 139.08 173.462 139.08C173.06 139.08 172.678 139.182 172.314 139.388C171.959 139.593 171.67 139.892 171.446 140.284C171.231 140.676 171.124 141.138 171.124 141.67C171.124 142.202 171.231 142.668 171.446 143.07C171.67 143.462 171.959 143.76 172.314 143.966C172.678 144.171 173.06 144.274 173.462 144.274C173.872 144.274 174.255 144.171 174.61 143.966C174.974 143.751 175.263 143.443 175.478 143.042C175.702 142.64 175.814 142.174 175.814 141.642ZM178.484 141.642C178.484 140.867 178.642 140.181 178.96 139.584C179.286 138.986 179.725 138.524 180.276 138.198C180.836 137.862 181.452 137.694 182.124 137.694C182.73 137.694 183.258 137.815 183.706 138.058C184.163 138.291 184.527 138.585 184.798 138.94V137.82H186.408V145.534H184.798V144.386C184.527 144.75 184.158 145.053 183.692 145.296C183.225 145.538 182.693 145.66 182.096 145.66C181.433 145.66 180.826 145.492 180.276 145.156C179.725 144.81 179.286 144.334 178.96 143.728C178.642 143.112 178.484 142.416 178.484 141.642ZM184.798 141.67C184.798 141.138 184.686 140.676 184.462 140.284C184.247 139.892 183.962 139.593 183.608 139.388C183.253 139.182 182.87 139.08 182.46 139.08C182.049 139.08 181.666 139.182 181.312 139.388C180.957 139.584 180.668 139.878 180.444 140.27C180.229 140.652 180.122 141.11 180.122 141.642C180.122 142.174 180.229 142.64 180.444 143.042C180.668 143.443 180.957 143.751 181.312 143.966C181.676 144.171 182.058 144.274 182.46 144.274C182.87 144.274 183.253 144.171 183.608 143.966C183.962 143.76 184.247 143.462 184.462 143.07C184.686 142.668 184.798 142.202 184.798 141.67ZM189.316 136.798C189.027 136.798 188.784 136.7 188.588 136.504C188.392 136.308 188.294 136.065 188.294 135.776C188.294 135.486 188.392 135.244 188.588 135.048C188.784 134.852 189.027 134.754 189.316 134.754C189.596 134.754 189.834 134.852 190.03 135.048C190.226 135.244 190.324 135.486 190.324 135.776C190.324 136.065 190.226 136.308 190.03 136.504C189.834 136.7 189.596 136.798 189.316 136.798ZM190.1 137.82V145.534H188.504V137.82H190.1ZM195.304 137.694C195.901 137.694 196.428 137.815 196.886 138.058C197.352 138.291 197.716 138.585 197.978 138.94V137.82H199.588V145.66C199.588 146.369 199.438 146.999 199.14 147.55C198.841 148.11 198.407 148.548 197.838 148.866C197.278 149.183 196.606 149.342 195.822 149.342C194.776 149.342 193.908 149.094 193.218 148.6C192.527 148.114 192.135 147.452 192.042 146.612H193.624C193.745 147.013 194.002 147.335 194.394 147.578C194.795 147.83 195.271 147.956 195.822 147.956C196.466 147.956 196.984 147.76 197.376 147.368C197.777 146.976 197.978 146.406 197.978 145.66V144.372C197.707 144.736 197.338 145.044 196.872 145.296C196.414 145.538 195.892 145.66 195.304 145.66C194.632 145.66 194.016 145.492 193.456 145.156C192.905 144.81 192.466 144.334 192.14 143.728C191.822 143.112 191.664 142.416 191.664 141.642C191.664 140.867 191.822 140.181 192.14 139.584C192.466 138.986 192.905 138.524 193.456 138.198C194.016 137.862 194.632 137.694 195.304 137.694ZM197.978 141.67C197.978 141.138 197.866 140.676 197.642 140.284C197.427 139.892 197.142 139.593 196.788 139.388C196.433 139.182 196.05 139.08 195.64 139.08C195.229 139.08 194.846 139.182 194.492 139.388C194.137 139.584 193.848 139.878 193.624 140.27C193.409 140.652 193.302 141.11 193.302 141.642C193.302 142.174 193.409 142.64 193.624 143.042C193.848 143.443 194.137 143.751 194.492 143.966C194.856 144.171 195.238 144.274 195.64 144.274C196.05 144.274 196.433 144.171 196.788 143.966C197.142 143.76 197.427 143.462 197.642 143.07C197.866 142.668 197.978 142.202 197.978 141.67ZM205.576 137.694C206.182 137.694 206.724 137.82 207.2 138.072C207.685 138.324 208.063 138.697 208.334 139.192C208.604 139.686 208.74 140.284 208.74 140.984V145.534H207.158V141.222C207.158 140.531 206.985 140.004 206.64 139.64C206.294 139.266 205.823 139.08 205.226 139.08C204.628 139.08 204.152 139.266 203.798 139.64C203.452 140.004 203.28 140.531 203.28 141.222V145.534H201.684V137.82H203.28V138.702C203.541 138.384 203.872 138.137 204.274 137.96C204.684 137.782 205.118 137.694 205.576 137.694Z" fill="black"/>
</g>
<g filter="url(#filter2_d_2624_21570)">
<rect x="20" y="196.016" width="233" height="69.9655" rx="12" fill="#E4DAFF"/>
<path d="M74.965 237.488C72.6593 237.488 70.3485 237.488 68.0427 237.488C66.8035 237.488 65.8436 236.967 65.2951 235.82C65.1275 235.468 65.026 235.045 65.026 234.652C65.0057 231.175 65.0107 227.703 65.0158 224.226C65.0158 222.743 66.2246 221.477 67.6872 221.4C67.8244 221.394 67.9564 221.389 68.0935 221.389C72.6847 221.389 77.2758 221.389 81.867 221.389C82.8523 221.389 83.6852 221.71 84.32 222.485C84.7314 222.986 84.9447 223.575 84.9447 224.231C84.9447 227.708 84.9498 231.18 84.9447 234.657C84.9447 236.161 83.7156 237.442 82.2225 237.483C80.963 237.514 79.6984 237.499 78.4389 237.499C77.2809 237.499 76.123 237.499 74.965 237.499V237.488ZM75.4983 229.439C75.4983 230.219 75.4932 230.994 75.4983 231.774C75.4983 232.218 75.8182 232.544 76.2499 232.554C76.7984 232.565 77.352 232.57 77.9005 232.554C79.0026 232.518 79.9675 231.635 80.0539 230.519C80.1097 229.8 80.1097 229.072 80.0539 228.359C79.9675 227.248 78.9975 226.365 77.8954 226.329C77.3876 226.313 76.8746 226.323 76.3617 226.323C75.7878 226.323 75.4932 226.618 75.4881 227.202C75.4881 227.946 75.4881 228.695 75.4881 229.439H75.4983ZM72.9081 230.482C72.9234 230.529 72.9285 230.544 72.9285 230.56C72.9285 230.932 72.9183 231.309 72.9386 231.681C72.9488 231.846 72.9792 232.022 73.0504 232.167C73.2078 232.477 73.5684 232.616 73.8883 232.528C74.2337 232.435 74.4572 232.156 74.4622 231.779C74.4622 230.689 74.4622 229.604 74.4622 228.514C74.4622 228.416 74.4521 228.318 74.4318 228.225C74.1981 227.036 73.1621 226.225 71.9838 226.318C70.8005 226.416 69.8965 227.393 69.8711 228.648C69.8508 229.671 69.866 230.694 69.8711 231.717C69.8711 231.779 69.8812 231.846 69.8914 231.908C69.9676 232.306 70.318 232.575 70.704 232.544C71.0798 232.513 71.3845 232.198 71.3947 231.8C71.4048 231.443 71.3947 231.087 71.3998 230.73C71.3998 230.648 71.4099 230.56 71.415 230.477H72.9081V230.482Z" fill="#212429"/>
<path d="M74.9803 240.609C71.6334 240.609 68.2916 240.609 64.9447 240.609C64.8177 240.609 64.6857 240.609 64.5638 240.583C64.2337 240.506 63.995 240.185 64.0001 239.829C64.0001 239.467 64.2286 239.162 64.5689 239.08C64.6755 239.054 64.7924 239.049 64.899 239.049C71.6232 239.049 78.3424 239.049 85.0666 239.049C85.6202 239.049 85.9655 239.354 85.9655 239.834C85.9655 240.247 85.6659 240.578 85.2545 240.604C85.158 240.609 85.0615 240.604 84.965 240.604C81.6334 240.604 78.3068 240.604 74.9752 240.604L74.9803 240.609Z" fill="#212429"/>
<path d="M77.0473 227.878C77.3266 227.878 77.5907 227.868 77.8497 227.878C78.2408 227.899 78.5404 228.214 78.5557 228.633C78.5709 229.165 78.576 229.702 78.5557 230.234C78.5404 230.684 78.2154 230.978 77.7786 230.989C77.5399 230.989 77.3012 230.989 77.0473 230.989V227.873V227.878Z" fill="#212429"/>
<path d="M71.41 228.896C71.3693 228.504 71.4506 228.188 71.7807 227.987C72.0397 227.827 72.314 227.827 72.573 227.992C72.893 228.199 72.9793 228.509 72.9184 228.891H71.4151L71.41 228.896Z" fill="#212429"/>
<path d="M107.294 228.569C107.042 228.084 106.692 227.72 106.244 227.477C105.796 227.225 105.278 227.099 104.69 227.099C104.046 227.099 103.472 227.244 102.968 227.533C102.464 227.823 102.067 228.233 101.778 228.765C101.498 229.297 101.358 229.913 101.358 230.613C101.358 231.313 101.498 231.934 101.778 232.475C102.067 233.007 102.464 233.418 102.968 233.707C103.472 233.997 104.046 234.141 104.69 234.141C105.558 234.141 106.263 233.899 106.804 233.413C107.345 232.928 107.677 232.27 107.798 231.439H104.144V230.165H109.506V231.411C109.403 232.167 109.133 232.863 108.694 233.497C108.265 234.132 107.7 234.641 107 235.023C106.309 235.397 105.539 235.583 104.69 235.583C103.775 235.583 102.94 235.373 102.184 234.953C101.428 234.524 100.826 233.931 100.378 233.175C99.9395 232.419 99.7201 231.565 99.7201 230.613C99.7201 229.661 99.9395 228.807 100.378 228.051C100.826 227.295 101.428 226.707 102.184 226.287C102.949 225.858 103.785 225.643 104.69 225.643C105.726 225.643 106.645 225.9 107.448 226.413C108.26 226.917 108.848 227.636 109.212 228.569H107.294ZM118.15 231.453C118.15 231.743 118.132 232.004 118.094 232.237H112.2C112.247 232.853 112.476 233.348 112.886 233.721C113.297 234.095 113.801 234.281 114.398 234.281C115.257 234.281 115.864 233.922 116.218 233.203H117.94C117.707 233.913 117.282 234.496 116.666 234.953C116.06 235.401 115.304 235.625 114.398 235.625C113.661 235.625 112.998 235.462 112.41 235.135C111.832 234.799 111.374 234.333 111.038 233.735C110.712 233.129 110.548 232.429 110.548 231.635C110.548 230.842 110.707 230.147 111.024 229.549C111.351 228.943 111.804 228.476 112.382 228.149C112.97 227.823 113.642 227.659 114.398 227.659C115.126 227.659 115.775 227.818 116.344 228.135C116.914 228.453 117.357 228.901 117.674 229.479C117.992 230.049 118.15 230.707 118.15 231.453ZM116.484 230.949C116.475 230.361 116.265 229.89 115.854 229.535C115.444 229.181 114.935 229.003 114.328 229.003C113.778 229.003 113.306 229.181 112.914 229.535C112.522 229.881 112.289 230.352 112.214 230.949H116.484ZM123.613 227.659C124.22 227.659 124.761 227.785 125.237 228.037C125.722 228.289 126.1 228.663 126.371 229.157C126.642 229.652 126.777 230.249 126.777 230.949V235.499H125.195V231.187C125.195 230.497 125.022 229.969 124.677 229.605C124.332 229.232 123.86 229.045 123.263 229.045C122.666 229.045 122.19 229.232 121.835 229.605C121.49 229.969 121.317 230.497 121.317 231.187V235.499H119.721V227.785H121.317V228.667C121.578 228.35 121.91 228.103 122.311 227.925C122.722 227.748 123.156 227.659 123.613 227.659ZM135.883 231.453C135.883 231.743 135.864 232.004 135.827 232.237H129.933C129.979 232.853 130.208 233.348 130.619 233.721C131.029 234.095 131.533 234.281 132.131 234.281C132.989 234.281 133.596 233.922 133.951 233.203H135.673C135.439 233.913 135.015 234.496 134.399 234.953C133.792 235.401 133.036 235.625 132.131 235.625C131.393 235.625 130.731 235.462 130.143 235.135C129.564 234.799 129.107 234.333 128.771 233.735C128.444 233.129 128.281 232.429 128.281 231.635C128.281 230.842 128.439 230.147 128.757 229.549C129.083 228.943 129.536 228.476 130.115 228.149C130.703 227.823 131.375 227.659 132.131 227.659C132.859 227.659 133.507 227.818 134.077 228.135C134.646 228.453 135.089 228.901 135.407 229.479C135.724 230.049 135.883 230.707 135.883 231.453ZM134.217 230.949C134.207 230.361 133.997 229.89 133.587 229.535C133.176 229.181 132.667 229.003 132.061 229.003C131.51 229.003 131.039 229.181 130.647 229.535C130.255 229.881 130.021 230.352 129.947 230.949H134.217ZM139.049 228.905C139.283 228.513 139.591 228.21 139.973 227.995C140.365 227.771 140.827 227.659 141.359 227.659V229.311H140.953C140.328 229.311 139.852 229.47 139.525 229.787C139.208 230.105 139.049 230.655 139.049 231.439V235.499H137.453V227.785H139.049V228.905ZM142.294 231.607C142.294 230.833 142.453 230.147 142.77 229.549C143.097 228.952 143.536 228.49 144.086 228.163C144.646 227.827 145.262 227.659 145.934 227.659C146.541 227.659 147.068 227.781 147.516 228.023C147.974 228.257 148.338 228.551 148.608 228.905V227.785H150.218V235.499H148.608V234.351C148.338 234.715 147.969 235.019 147.502 235.261C147.036 235.504 146.504 235.625 145.906 235.625C145.244 235.625 144.637 235.457 144.086 235.121C143.536 234.776 143.097 234.3 142.77 233.693C142.453 233.077 142.294 232.382 142.294 231.607ZM148.608 231.635C148.608 231.103 148.496 230.641 148.272 230.249C148.058 229.857 147.773 229.559 147.418 229.353C147.064 229.148 146.681 229.045 146.27 229.045C145.86 229.045 145.477 229.148 145.122 229.353C144.768 229.549 144.478 229.843 144.254 230.235C144.04 230.618 143.932 231.075 143.932 231.607C143.932 232.139 144.04 232.606 144.254 233.007C144.478 233.409 144.768 233.717 145.122 233.931C145.486 234.137 145.869 234.239 146.27 234.239C146.681 234.239 147.064 234.137 147.418 233.931C147.773 233.726 148.058 233.427 148.272 233.035C148.496 232.634 148.608 232.167 148.608 231.635ZM154.177 229.087V233.357C154.177 233.647 154.242 233.857 154.373 233.987C154.513 234.109 154.746 234.169 155.073 234.169H156.053V235.499H154.793C154.074 235.499 153.523 235.331 153.141 234.995C152.758 234.659 152.567 234.113 152.567 233.357V229.087H151.657V227.785H152.567V225.867H154.177V227.785H156.053V229.087H154.177ZM164.594 231.453C164.594 231.743 164.575 232.004 164.538 232.237H158.644C158.69 232.853 158.919 233.348 159.33 233.721C159.74 234.095 160.244 234.281 160.842 234.281C161.7 234.281 162.307 233.922 162.662 233.203H164.384C164.15 233.913 163.726 234.496 163.11 234.953C162.503 235.401 161.747 235.625 160.842 235.625C160.104 235.625 159.442 235.462 158.854 235.135C158.275 234.799 157.818 234.333 157.482 233.735C157.155 233.129 156.992 232.429 156.992 231.635C156.992 230.842 157.15 230.147 157.468 229.549C157.794 228.943 158.247 228.476 158.826 228.149C159.414 227.823 160.086 227.659 160.842 227.659C161.57 227.659 162.218 227.818 162.788 228.135C163.357 228.453 163.8 228.901 164.118 229.479C164.435 230.049 164.594 230.707 164.594 231.453ZM162.928 230.949C162.918 230.361 162.708 229.89 162.298 229.535C161.887 229.181 161.378 229.003 160.772 229.003C160.221 229.003 159.75 229.181 159.358 229.535C158.966 229.881 158.732 230.352 158.658 230.949H162.928ZM171.397 228.905C171.63 228.513 171.938 228.21 172.321 227.995C172.713 227.771 173.175 227.659 173.707 227.659V229.311H173.301C172.676 229.311 172.2 229.47 171.873 229.787C171.556 230.105 171.397 230.655 171.397 231.439V235.499H169.801V227.785H171.397V228.905ZM182.244 231.453C182.244 231.743 182.225 232.004 182.188 232.237H176.294C176.341 232.853 176.569 233.348 176.98 233.721C177.391 234.095 177.895 234.281 178.492 234.281C179.351 234.281 179.957 233.922 180.312 233.203H182.034C181.801 233.913 181.376 234.496 180.76 234.953C180.153 235.401 179.397 235.625 178.492 235.625C177.755 235.625 177.092 235.462 176.504 235.135C175.925 234.799 175.468 234.333 175.132 233.735C174.805 233.129 174.642 232.429 174.642 231.635C174.642 230.842 174.801 230.147 175.118 229.549C175.445 228.943 175.897 228.476 176.476 228.149C177.064 227.823 177.736 227.659 178.492 227.659C179.22 227.659 179.869 227.818 180.438 228.135C181.007 228.453 181.451 228.901 181.768 229.479C182.085 230.049 182.244 230.707 182.244 231.453ZM180.578 230.949C180.569 230.361 180.359 229.89 179.948 229.535C179.537 229.181 179.029 229.003 178.422 229.003C177.871 229.003 177.4 229.181 177.008 229.535C176.616 229.881 176.383 230.352 176.308 230.949H180.578ZM185.411 228.919C185.681 228.565 186.05 228.266 186.517 228.023C186.983 227.781 187.511 227.659 188.099 227.659C188.771 227.659 189.382 227.827 189.933 228.163C190.493 228.49 190.931 228.952 191.249 229.549C191.566 230.147 191.725 230.833 191.725 231.607C191.725 232.382 191.566 233.077 191.249 233.693C190.931 234.3 190.493 234.776 189.933 235.121C189.382 235.457 188.771 235.625 188.099 235.625C187.511 235.625 186.988 235.509 186.531 235.275C186.073 235.033 185.7 234.734 185.411 234.379V239.167H183.815V227.785H185.411V228.919ZM190.101 231.607C190.101 231.075 189.989 230.618 189.765 230.235C189.55 229.843 189.261 229.549 188.897 229.353C188.542 229.148 188.159 229.045 187.749 229.045C187.347 229.045 186.965 229.148 186.601 229.353C186.246 229.559 185.957 229.857 185.733 230.249C185.518 230.641 185.411 231.103 185.411 231.635C185.411 232.167 185.518 232.634 185.733 233.035C185.957 233.427 186.246 233.726 186.601 233.931C186.965 234.137 187.347 234.239 187.749 234.239C188.159 234.239 188.542 234.137 188.897 233.931C189.261 233.717 189.55 233.409 189.765 233.007C189.989 232.606 190.101 232.139 190.101 231.607ZM196.649 235.625C195.921 235.625 195.263 235.462 194.675 235.135C194.087 234.799 193.625 234.333 193.289 233.735C192.953 233.129 192.785 232.429 192.785 231.635C192.785 230.851 192.958 230.156 193.303 229.549C193.648 228.943 194.12 228.476 194.717 228.149C195.314 227.823 195.982 227.659 196.719 227.659C197.456 227.659 198.124 227.823 198.721 228.149C199.318 228.476 199.79 228.943 200.135 229.549C200.48 230.156 200.653 230.851 200.653 231.635C200.653 232.419 200.476 233.115 200.121 233.721C199.766 234.328 199.281 234.799 198.665 235.135C198.058 235.462 197.386 235.625 196.649 235.625ZM196.649 234.239C197.06 234.239 197.442 234.141 197.797 233.945C198.161 233.749 198.455 233.455 198.679 233.063C198.903 232.671 199.015 232.195 199.015 231.635C199.015 231.075 198.908 230.604 198.693 230.221C198.478 229.829 198.194 229.535 197.839 229.339C197.484 229.143 197.102 229.045 196.691 229.045C196.28 229.045 195.898 229.143 195.543 229.339C195.198 229.535 194.922 229.829 194.717 230.221C194.512 230.604 194.409 231.075 194.409 231.635C194.409 232.466 194.619 233.11 195.039 233.567C195.468 234.015 196.005 234.239 196.649 234.239ZM203.827 228.905C204.06 228.513 204.368 228.21 204.751 227.995C205.143 227.771 205.605 227.659 206.137 227.659V229.311H205.731C205.105 229.311 204.629 229.47 204.303 229.787C203.985 230.105 203.827 230.655 203.827 231.439V235.499H202.231V227.785H203.827V228.905ZM209.466 229.087V233.357C209.466 233.647 209.531 233.857 209.662 233.987C209.802 234.109 210.035 234.169 210.362 234.169H211.342V235.499H210.082C209.363 235.499 208.812 235.331 208.43 234.995C208.047 234.659 207.856 234.113 207.856 233.357V229.087H206.946V227.785H207.856V225.867H209.466V227.785H211.342V229.087H209.466Z" fill="black"/>
</g>
<defs>
<filter id="filter0_d_2624_21570" x="14.5" y="18" width="244" height="77.0509" filterUnits="userSpaceOnUse" color-interpolation-filters="sRGB">
<feFlood flood-opacity="0" result="BackgroundImageFix"/>
<feColorMatrix in="SourceAlpha" type="matrix" values="0 0 0 0 0 0 0 0 0 0 0 0 0 0 0 0 0 0 127 0" result="hardAlpha"/>
<feOffset dy="3.5"/>
<feGaussianBlur stdDeviation="2.75"/>
<feColorMatrix type="matrix" values="0 0 0 0 0 0 0 0 0 0 0 0 0 0 0 0 0 0 0.02 0"/>
<feBlend mode="normal" in2="BackgroundImageFix" result="effect1_dropShadow_2624_21570"/>
<feBlend mode="normal" in="SourceGraphic" in2="effect1_dropShadow_2624_21570" result="shape"/>
</filter>
<filter id="filter1_d_2624_21570" x="14.5" y="104.051" width="244" height="80.9655" filterUnits="userSpaceOnUse" color-interpolation-filters="sRGB">
<feFlood flood-opacity="0" result="BackgroundImageFix"/>
<feColorMatrix in="SourceAlpha" type="matrix" values="0 0 0 0 0 0 0 0 0 0 0 0 0 0 0 0 0 0 127 0" result="hardAlpha"/>
<feOffset dy="3.5"/>
<feGaussianBlur stdDeviation="2.75"/>
<feColorMatrix type="matrix" values="0 0 0 0 0 0 0 0 0 0 0 0 0 0 0 0 0 0 0.02 0"/>
<feBlend mode="normal" in2="BackgroundImageFix" result="effect1_dropShadow_2624_21570"/>
<feBlend mode="normal" in="SourceGraphic" in2="effect1_dropShadow_2624_21570" result="shape"/>
</filter>
<filter id="filter2_d_2624_21570" x="14.5" y="194.016" width="244" height="80.9655" filterUnits="userSpaceOnUse" color-interpolation-filters="sRGB">
<feFlood flood-opacity="0" result="BackgroundImageFix"/>
<feColorMatrix in="SourceAlpha" type="matrix" values="0 0 0 0 0 0 0 0 0 0 0 0 0 0 0 0 0 0 127 0" result="hardAlpha"/>
<feOffset dy="3.5"/>
<feGaussianBlur stdDeviation="2.75"/>
<feColorMatrix type="matrix" values="0 0 0 0 0 0 0 0 0 0 0 0 0 0 0 0 0 0 0.02 0"/>
<feBlend mode="normal" in2="BackgroundImageFix" result="effect1_dropShadow_2624_21570"/>
<feBlend mode="normal" in="SourceGraphic" in2="effect1_dropShadow_2624_21570" result="shape"/>
</filter>
</defs>
</svg>
