<svg width="631" height="429" viewBox="0 0 631 429" fill="none" xmlns="http://www.w3.org/2000/svg">
<rect x="0.5" y="0.5" width="630" height="428" rx="4.5" stroke="#8A38F5" stroke-dasharray="10 5"/>
<rect x="20" y="20" width="587" height="389" rx="12" fill="white" fill-opacity="0.41"/>
<path d="M43.576 62.32V64.552H39.136V79H36.4V64.552H31.936V62.32H43.576ZM52.0829 79.216C50.8349 79.216 49.7069 78.936 48.6989 78.376C47.6909 77.8 46.8989 77 46.3229 75.976C45.7469 74.936 45.4589 73.736 45.4589 72.376C45.4589 71.032 45.7549 69.84 46.3469 68.8C46.9389 67.76 47.7469 66.96 48.7709 66.4C49.7949 65.84 50.9389 65.56 52.2029 65.56C53.4669 65.56 54.6109 65.84 55.6349 66.4C56.6589 66.96 57.4669 67.76 58.0589 68.8C58.6509 69.84 58.9469 71.032 58.9469 72.376C58.9469 73.72 58.6429 74.912 58.0349 75.952C57.4269 76.992 56.5949 77.8 55.5389 78.376C54.4989 78.936 53.3469 79.216 52.0829 79.216ZM52.0829 76.84C52.7869 76.84 53.4429 76.672 54.0509 76.336C54.6749 76 55.1789 75.496 55.5629 74.824C55.9469 74.152 56.1389 73.336 56.1389 72.376C56.1389 71.416 55.9549 70.608 55.5869 69.952C55.2189 69.28 54.7309 68.776 54.1229 68.44C53.5149 68.104 52.8589 67.936 52.1549 67.936C51.4509 67.936 50.7949 68.104 50.1869 68.44C49.5949 68.776 49.1229 69.28 48.7709 69.952C48.4189 70.608 48.2429 71.416 48.2429 72.376C48.2429 73.8 48.6029 74.904 49.3229 75.688C50.0589 76.456 50.9789 76.84 52.0829 76.84ZM64.8436 68.008V75.328C64.8436 75.824 64.9556 76.184 65.1796 76.408C65.4196 76.616 65.8196 76.72 66.3796 76.72H68.0596V79H65.8996C64.6676 79 63.7236 78.712 63.0676 78.136C62.4116 77.56 62.0836 76.624 62.0836 75.328V68.008H60.5236V65.776H62.0836V62.488H64.8436V65.776H68.0596V68.008H64.8436ZM69.6693 72.328C69.6693 71 69.9413 69.824 70.4853 68.8C71.0453 67.776 71.7973 66.984 72.7413 66.424C73.7013 65.848 74.7573 65.56 75.9093 65.56C76.9493 65.56 77.8533 65.768 78.6213 66.184C79.4053 66.584 80.0293 67.088 80.4933 67.696V65.776H83.2533V79H80.4933V77.032C80.0293 77.656 79.3973 78.176 78.5973 78.592C77.7973 79.008 76.8853 79.216 75.8613 79.216C74.7253 79.216 73.6853 78.928 72.7413 78.352C71.7973 77.76 71.0453 76.944 70.4853 75.904C69.9413 74.848 69.6693 73.656 69.6693 72.328ZM80.4933 72.376C80.4933 71.464 80.3013 70.672 79.9173 70C79.5493 69.328 79.0613 68.816 78.4533 68.464C77.8453 68.112 77.1893 67.936 76.4853 67.936C75.7813 67.936 75.1253 68.112 74.5173 68.464C73.9093 68.8 73.4133 69.304 73.0293 69.976C72.6613 70.632 72.4773 71.416 72.4773 72.328C72.4773 73.24 72.6613 74.04 73.0293 74.728C73.4133 75.416 73.9093 75.944 74.5173 76.312C75.1413 76.664 75.7973 76.84 76.4853 76.84C77.1893 76.84 77.8453 76.664 78.4533 76.312C79.0613 75.96 79.5493 75.448 79.9173 74.776C80.3013 74.088 80.4933 73.288 80.4933 72.376ZM89.5829 61.24V79H86.8469V61.24H89.5829ZM108.073 79L104.233 72.328H102.145V79H99.4094V62.32H105.169C106.449 62.32 107.529 62.544 108.409 62.992C109.305 63.44 109.969 64.04 110.401 64.792C110.849 65.544 111.073 66.384 111.073 67.312C111.073 68.4 110.753 69.392 110.113 70.288C109.489 71.168 108.521 71.768 107.209 72.088L111.337 79H108.073ZM102.145 70.144H105.169C106.193 70.144 106.961 69.888 107.473 69.376C108.001 68.864 108.265 68.176 108.265 67.312C108.265 66.448 108.009 65.776 107.497 65.296C106.985 64.8 106.209 64.552 105.169 64.552H102.145V70.144ZM126.693 72.064C126.693 72.56 126.661 73.008 126.597 73.408H116.493C116.573 74.464 116.965 75.312 117.669 75.952C118.373 76.592 119.237 76.912 120.261 76.912C121.733 76.912 122.773 76.296 123.381 75.064H126.333C125.933 76.28 125.205 77.28 124.149 78.064C123.109 78.832 121.813 79.216 120.261 79.216C118.997 79.216 117.861 78.936 116.853 78.376C115.861 77.8 115.077 77 114.501 75.976C113.941 74.936 113.661 73.736 113.661 72.376C113.661 71.016 113.933 69.824 114.477 68.8C115.037 67.76 115.813 66.96 116.805 66.4C117.813 65.84 118.965 65.56 120.261 65.56C121.509 65.56 122.621 65.832 123.597 66.376C124.573 66.92 125.333 67.688 125.877 68.68C126.421 69.656 126.693 70.784 126.693 72.064ZM123.837 71.2C123.821 70.192 123.461 69.384 122.757 68.776C122.053 68.168 121.181 67.864 120.141 67.864C119.197 67.864 118.389 68.168 117.717 68.776C117.045 69.368 116.645 70.176 116.517 71.2H123.837ZM134.498 76.552L138.242 65.776H141.146L136.106 79H132.842L127.826 65.776H130.754L134.498 76.552ZM155.334 72.064C155.334 72.56 155.302 73.008 155.238 73.408H145.134C145.214 74.464 145.606 75.312 146.31 75.952C147.014 76.592 147.878 76.912 148.902 76.912C150.374 76.912 151.414 76.296 152.022 75.064H154.974C154.574 76.28 153.846 77.28 152.79 78.064C151.75 78.832 150.454 79.216 148.902 79.216C147.638 79.216 146.502 78.936 145.494 78.376C144.502 77.8 143.718 77 143.142 75.976C142.582 74.936 142.302 73.736 142.302 72.376C142.302 71.016 142.574 69.824 143.118 68.8C143.678 67.76 144.454 66.96 145.446 66.4C146.454 65.84 147.606 65.56 148.902 65.56C150.15 65.56 151.262 65.832 152.238 66.376C153.214 66.92 153.974 67.688 154.518 68.68C155.062 69.656 155.334 70.784 155.334 72.064ZM152.478 71.2C152.462 70.192 152.102 69.384 151.398 68.776C150.694 68.168 149.822 67.864 148.782 67.864C147.838 67.864 147.03 68.168 146.358 68.776C145.686 69.368 145.286 70.176 145.158 71.2H152.478ZM164.699 65.56C165.739 65.56 166.667 65.776 167.483 66.208C168.315 66.64 168.963 67.28 169.427 68.128C169.891 68.976 170.123 70 170.123 71.2V79H167.411V71.608C167.411 70.424 167.115 69.52 166.523 68.896C165.931 68.256 165.123 67.936 164.099 67.936C163.075 67.936 162.259 68.256 161.651 68.896C161.059 69.52 160.763 70.424 160.763 71.608V79H158.027V65.776H160.763V67.288C161.211 66.744 161.779 66.32 162.467 66.016C163.171 65.712 163.915 65.56 164.699 65.56ZM185.589 65.776V79H182.853V77.44C182.421 77.984 181.853 78.416 181.149 78.736C180.461 79.04 179.725 79.192 178.941 79.192C177.901 79.192 176.965 78.976 176.133 78.544C175.317 78.112 174.669 77.472 174.189 76.624C173.725 75.776 173.493 74.752 173.493 73.552V65.776H176.205V73.144C176.205 74.328 176.501 75.24 177.093 75.88C177.685 76.504 178.493 76.816 179.517 76.816C180.541 76.816 181.349 76.504 181.941 75.88C182.549 75.24 182.853 74.328 182.853 73.144V65.776H185.589ZM201.318 72.064C201.318 72.56 201.286 73.008 201.222 73.408H191.118C191.198 74.464 191.59 75.312 192.294 75.952C192.998 76.592 193.862 76.912 194.886 76.912C196.358 76.912 197.398 76.296 198.006 75.064H200.958C200.558 76.28 199.83 77.28 198.774 78.064C197.734 78.832 196.438 79.216 194.886 79.216C193.622 79.216 192.486 78.936 191.478 78.376C190.486 77.8 189.702 77 189.126 75.976C188.566 74.936 188.286 73.736 188.286 72.376C188.286 71.016 188.558 69.824 189.102 68.8C189.662 67.76 190.438 66.96 191.43 66.4C192.438 65.84 193.59 65.56 194.886 65.56C196.134 65.56 197.246 65.832 198.222 66.376C199.198 66.92 199.958 67.688 200.502 68.68C201.046 69.656 201.318 70.784 201.318 72.064ZM198.462 71.2C198.446 70.192 198.086 69.384 197.382 68.776C196.678 68.168 195.806 67.864 194.766 67.864C193.822 67.864 193.014 68.168 192.342 68.776C191.67 69.368 191.27 70.176 191.142 71.2H198.462Z" fill="black"/>
<mask id="path-4-inside-1_4865_2307" fill="white">
<path d="M489 61C489 56.5817 492.582 53 497 53H587C591.418 53 595 56.5817 595 61V81C595 85.4183 591.418 89 587 89H497C492.582 89 489 85.4183 489 81V61Z"/>
</mask>
<path d="M489 61C489 56.5817 492.582 53 497 53H587C591.418 53 595 56.5817 595 61V81C595 85.4183 591.418 89 587 89H497C492.582 89 489 85.4183 489 81V61Z" fill="white"/>
<path d="M489 53H595H489ZM595 81C595 86.5228 590.523 91 585 91H499C493.477 91 489 86.5228 489 81C489 84.3137 492.582 87 497 87H587C591.418 87 595 84.3137 595 81ZM489 89V53V89ZM595 53V89V53Z" fill="#9747FF" mask="url(#path-4-inside-1_4865_2307)"/>
<path d="M511.636 75.988L505.552 76V74.848L508.42 72.424C509.608 71.416 510.004 70.84 510.004 70C510.004 69.004 509.464 68.44 508.54 68.44C507.58 68.44 506.98 69.112 506.968 70.24H505.444C505.456 68.32 506.68 67.072 508.54 67.072C510.412 67.072 511.576 68.14 511.576 69.916C511.576 71.14 510.904 72.064 509.572 73.204L507.988 74.56H511.636V75.988ZM512.582 71.632C512.582 68.908 514.046 67.06 516.29 67.06C518.534 67.06 520.01 68.908 520.01 71.632C520.01 74.344 518.618 76.156 516.29 76.156C513.962 76.156 512.582 74.344 512.582 71.632ZM514.094 71.632C514.094 73.66 514.91 74.8 516.29 74.8C517.682 74.8 518.498 73.66 518.498 71.632C518.498 69.556 517.682 68.416 516.29 68.416C514.91 68.416 514.094 69.556 514.094 71.632ZM527.163 75.988L521.079 76V74.848L523.947 72.424C525.135 71.416 525.531 70.84 525.531 70C525.531 69.004 524.991 68.44 524.067 68.44C523.107 68.44 522.507 69.112 522.495 70.24H520.971C520.983 68.32 522.207 67.072 524.067 67.072C525.939 67.072 527.103 68.14 527.103 69.916C527.103 71.14 526.431 72.064 525.099 73.204L523.515 74.56H527.163V75.988ZM531.028 76.144C529.192 76.144 527.98 74.968 527.98 73.192H529.504C529.504 74.188 530.092 74.776 531.064 74.776C532.096 74.776 532.756 74.104 532.756 73.036C532.756 72.016 532.144 71.32 531.088 71.32C530.416 71.32 529.804 71.656 529.492 72.112L528.136 71.824L529.216 67.228H533.788V68.644H530.32L529.852 70.468C530.272 70.192 530.8 70.036 531.4 70.036C533.152 70.036 534.316 71.224 534.316 72.952C534.316 74.848 532.984 76.144 531.028 76.144Z" fill="#212429"/>
<path fill-rule="evenodd" clip-rule="evenodd" d="M569 75.5715L576.591 68.6142C577.136 68.1142 577.136 67.3036 576.591 66.8037C576.045 66.3037 575.161 66.3037 574.615 66.8037L569 71.9505L563.385 66.8037C562.839 66.3037 561.955 66.3037 561.409 66.8037C560.864 67.3036 560.864 68.1142 561.409 68.6142L569 75.5715Z" fill="#9747FF"/>
<path d="M51.4885 115.97C51.4885 117.01 51.2185 117.99 50.6785 118.91C50.1585 119.81 49.3785 120.56 48.3385 121.16C47.3185 121.74 46.1085 122.08 44.7085 122.18V124.61H42.7885V122.15C40.7885 121.97 39.1785 121.37 37.9585 120.35C36.7385 119.31 36.1085 117.91 36.0685 116.15H40.5685C40.6885 117.59 41.4285 118.46 42.7885 118.76V113.03C41.3485 112.67 40.1885 112.31 39.3085 111.95C38.4285 111.59 37.6685 111.01 37.0285 110.21C36.3885 109.41 36.0685 108.32 36.0685 106.94C36.0685 105.2 36.6885 103.78 37.9285 102.68C39.1885 101.58 40.8085 100.95 42.7885 100.79V98.36H44.7085V100.79C46.6285 100.95 48.1585 101.53 49.2985 102.53C50.4585 103.53 51.1085 104.91 51.2485 106.67H46.7185C46.6585 106.09 46.4485 105.59 46.0885 105.17C45.7485 104.73 45.2885 104.42 44.7085 104.24V109.91C46.2085 110.29 47.3885 110.66 48.2485 111.02C49.1285 111.36 49.8885 111.93 50.5285 112.73C51.1685 113.51 51.4885 114.59 51.4885 115.97ZM40.4485 106.73C40.4485 107.39 40.6485 107.93 41.0485 108.35C41.4485 108.75 42.0285 109.08 42.7885 109.34V104.15C42.0685 104.25 41.4985 104.52 41.0785 104.96C40.6585 105.4 40.4485 105.99 40.4485 106.73ZM44.7085 118.82C45.4685 118.68 46.0585 118.37 46.4785 117.89C46.9185 117.41 47.1385 116.83 47.1385 116.15C47.1385 115.49 46.9285 114.96 46.5085 114.56C46.0885 114.16 45.4885 113.83 44.7085 113.57V118.82ZM57.0174 117.26C58.9374 115.66 60.4674 114.33 61.6074 113.27C62.7474 112.19 63.6974 111.07 64.4574 109.91C65.2174 108.75 65.5974 107.61 65.5974 106.49C65.5974 105.47 65.3574 104.67 64.8774 104.09C64.3974 103.51 63.6574 103.22 62.6574 103.22C61.6574 103.22 60.8874 103.56 60.3474 104.24C59.8074 104.9 59.5274 105.81 59.5074 106.97H55.4274C55.5074 104.57 56.2174 102.75 57.5574 101.51C58.9174 100.27 60.6374 99.65 62.7174 99.65C64.9974 99.65 66.7474 100.26 67.9674 101.48C69.1874 102.68 69.7974 104.27 69.7974 106.25C69.7974 107.81 69.3774 109.3 68.5374 110.72C67.6974 112.14 66.7374 113.38 65.6574 114.44C64.5774 115.48 63.1674 116.74 61.4274 118.22H70.2774V121.7H55.4574V118.58L57.0174 117.26ZM72.744 117.74V114.44L82.554 100.4H87.444V114.08H90.084V117.74H87.444V122H83.244V117.74H72.744ZM83.514 104.9L77.364 114.08H83.514V104.9ZM92.578 117.74V114.44L102.388 100.4H107.278V114.08H109.918V117.74H107.278V122H103.078V117.74H92.578ZM103.348 104.9L97.198 114.08H103.348V104.9ZM122.912 122L117.272 114.92V122H113.072V99.8H117.272V112.43L122.852 105.38H128.312L120.992 113.72L128.372 122H122.912Z" fill="black"/>
<path d="M153.24 115.74H149.2V119.88H147.08V115.74H143.04V113.82H147.08V109.68H149.2V113.82H153.24V115.74ZM162.933 118.9C164.213 117.793 165.219 116.887 165.953 116.18C166.699 115.46 167.319 114.713 167.813 113.94C168.306 113.167 168.553 112.393 168.553 111.62C168.553 110.82 168.359 110.193 167.973 109.74C167.599 109.287 167.006 109.06 166.193 109.06C165.406 109.06 164.793 109.313 164.353 109.82C163.926 110.313 163.699 110.98 163.673 111.82H161.473C161.513 110.3 161.966 109.14 162.833 108.34C163.713 107.527 164.826 107.12 166.173 107.12C167.626 107.12 168.759 107.52 169.573 108.32C170.399 109.12 170.813 110.187 170.813 111.52C170.813 112.48 170.566 113.407 170.073 114.3C169.593 115.18 169.013 115.973 168.333 116.68C167.666 117.373 166.813 118.18 165.773 119.1L164.873 119.9H171.213V121.8H161.493V120.14L162.933 118.9ZM174.436 122.14C174.022 122.14 173.676 122 173.396 121.72C173.116 121.44 172.976 121.093 172.976 120.68C172.976 120.267 173.116 119.92 173.396 119.64C173.676 119.36 174.022 119.22 174.436 119.22C174.836 119.22 175.176 119.36 175.456 119.64C175.736 119.92 175.876 120.267 175.876 120.68C175.876 121.093 175.736 121.44 175.456 121.72C175.176 122 174.836 122.14 174.436 122.14ZM178.04 114.52C178.04 112.213 178.427 110.413 179.2 109.12C179.987 107.813 181.333 107.16 183.24 107.16C185.147 107.16 186.487 107.813 187.26 109.12C188.047 110.413 188.44 112.213 188.44 114.52C188.44 116.853 188.047 118.68 187.26 120C186.487 121.307 185.147 121.96 183.24 121.96C181.333 121.96 179.987 121.307 179.2 120C178.427 118.68 178.04 116.853 178.04 114.52ZM186.2 114.52C186.2 113.44 186.127 112.527 185.98 111.78C185.847 111.033 185.567 110.427 185.14 109.96C184.713 109.48 184.08 109.24 183.24 109.24C182.4 109.24 181.767 109.48 181.34 109.96C180.913 110.427 180.627 111.033 180.48 111.78C180.347 112.527 180.28 113.44 180.28 114.52C180.28 115.64 180.347 116.58 180.48 117.34C180.613 118.1 180.893 118.713 181.32 119.18C181.76 119.647 182.4 119.88 183.24 119.88C184.08 119.88 184.713 119.647 185.14 119.18C185.58 118.713 185.867 118.1 186 117.34C186.133 116.58 186.2 115.64 186.2 114.52ZM190.492 110.94C190.492 109.967 190.772 109.207 191.332 108.66C191.906 108.1 192.639 107.82 193.532 107.82C194.426 107.82 195.152 108.1 195.712 108.66C196.286 109.207 196.572 109.967 196.572 110.94C196.572 111.913 196.286 112.68 195.712 113.24C195.152 113.8 194.426 114.08 193.532 114.08C192.639 114.08 191.906 113.8 191.332 113.24C190.772 112.68 190.492 111.913 190.492 110.94ZM202.692 108.08L194.712 122H192.472L200.452 108.08H202.692ZM193.532 109.2C192.692 109.2 192.272 109.78 192.272 110.94C192.272 112.113 192.692 112.7 193.532 112.7C193.932 112.7 194.239 112.56 194.452 112.28C194.679 111.987 194.792 111.54 194.792 110.94C194.792 109.78 194.372 109.2 193.532 109.2ZM198.632 119.12C198.632 118.147 198.912 117.387 199.472 116.84C200.046 116.28 200.779 116 201.672 116C202.552 116 203.272 116.28 203.832 116.84C204.406 117.387 204.692 118.147 204.692 119.12C204.692 120.093 204.406 120.86 203.832 121.42C203.272 121.98 202.552 122.26 201.672 122.26C200.779 122.26 200.046 121.98 199.472 121.42C198.912 120.86 198.632 120.093 198.632 119.12ZM201.652 117.38C200.812 117.38 200.392 117.96 200.392 119.12C200.392 120.28 200.812 120.86 201.652 120.86C202.492 120.86 202.912 120.28 202.912 119.12C202.912 117.96 202.492 117.38 201.652 117.38Z" fill="#20CF23"/>
<path d="M214.368 113.497L221.448 107.284C221.736 107.018 222.264 107.018 222.552 107.284L229.632 113.497C230.088 113.896 229.752 114.542 229.08 114.542H214.92C214.248 114.542 213.912 113.896 214.368 113.497Z" fill="#20CF23"/>
<path d="M244.196 122H243.38V116.888H242.216V116.192H243.38V114.356H244.196V116.192H245.36V116.888H244.196V122ZM247.266 121.988H246.438V113.252H247.266V117.2C247.638 116.504 248.346 116.036 249.318 116.036C250.842 116.036 251.526 116.984 251.526 118.448V122H250.698V118.628C250.698 117.272 250.062 116.792 249.162 116.792C247.914 116.792 247.266 117.716 247.266 118.832V121.988ZM254.845 122.144C253.609 122.144 252.877 121.448 252.877 120.428C252.877 119.36 253.693 118.688 255.049 118.58L256.969 118.424V118.232C256.969 117.092 256.285 116.732 255.433 116.732C254.425 116.732 253.825 117.188 253.825 117.968H253.069C253.069 116.792 254.029 116.036 255.457 116.036C256.801 116.036 257.785 116.708 257.785 118.244V122H257.089L256.981 120.98C256.621 121.712 255.829 122.144 254.845 122.144ZM255.037 121.472C256.261 121.472 256.969 120.62 256.969 119.36V119.048L255.253 119.18C254.161 119.276 253.717 119.756 253.717 120.404C253.717 121.112 254.245 121.472 255.037 121.472ZM260.274 122H259.446V116.192H260.166L260.286 117.2C260.67 116.456 261.438 116.036 262.278 116.036C263.874 116.036 264.534 116.984 264.534 118.448V122H263.706V118.628C263.706 117.272 263.094 116.792 262.134 116.792C260.946 116.792 260.274 117.656 260.274 118.964V122ZM270.376 122H269.548V113.252H270.376V122ZM273.805 122.144C272.569 122.144 271.837 121.448 271.837 120.428C271.837 119.36 272.653 118.688 274.009 118.58L275.929 118.424V118.232C275.929 117.092 275.245 116.732 274.393 116.732C273.385 116.732 272.785 117.188 272.785 117.968H272.029C272.029 116.792 272.989 116.036 274.417 116.036C275.761 116.036 276.745 116.708 276.745 118.244V122H276.049L275.941 120.98C275.581 121.712 274.789 122.144 273.805 122.144ZM273.997 121.472C275.221 121.472 275.929 120.62 275.929 119.36V119.048L274.213 119.18C273.121 119.276 272.677 119.756 272.677 120.404C272.677 121.112 273.205 121.472 273.997 121.472ZM277.915 120.368H278.707C278.707 121.04 279.211 121.46 280.027 121.46C280.927 121.46 281.455 121.076 281.455 120.452C281.455 119.972 281.215 119.696 280.531 119.528L279.535 119.276C278.527 119.024 278.035 118.496 278.035 117.704C278.035 116.684 278.887 116.036 280.135 116.036C281.359 116.036 282.151 116.708 282.187 117.788H281.383C281.359 117.116 280.891 116.72 280.111 116.72C279.295 116.72 278.839 117.068 278.839 117.692C278.839 118.136 279.151 118.448 279.787 118.604L280.783 118.856C281.791 119.108 282.247 119.576 282.247 120.416C282.247 121.46 281.359 122.144 280.039 122.144C278.731 122.144 277.915 121.448 277.915 120.368ZM284.942 122H284.126V116.888H282.962V116.192H284.126V114.356H284.942V116.192H286.106V116.888H284.942V122ZM289.924 124.532V123.848H290.56C291.064 123.848 291.568 123.812 291.856 123.032L292.108 122.348L289.756 116.192H290.632L292.504 121.256L294.34 116.192H295.192L292.528 123.332C292.192 124.244 291.628 124.616 290.8 124.616C290.452 124.616 290.188 124.592 289.924 124.532ZM298.398 122.144C296.694 122.144 295.554 120.92 295.554 119.096C295.554 117.284 296.682 116.036 298.338 116.036C299.91 116.036 300.978 117.152 300.978 118.796V119.204H296.358C296.418 120.62 297.162 121.436 298.41 121.436C299.358 121.436 299.97 121.028 300.186 120.26H300.978C300.666 121.484 299.766 122.144 298.398 122.144ZM298.338 116.744C297.246 116.744 296.526 117.464 296.382 118.604H300.15C300.15 117.488 299.43 116.744 298.338 116.744ZM303.911 122.144C302.675 122.144 301.943 121.448 301.943 120.428C301.943 119.36 302.759 118.688 304.115 118.58L306.035 118.424V118.232C306.035 117.092 305.351 116.732 304.499 116.732C303.491 116.732 302.891 117.188 302.891 117.968H302.135C302.135 116.792 303.095 116.036 304.523 116.036C305.867 116.036 306.851 116.708 306.851 118.244V122H306.155L306.047 120.98C305.687 121.712 304.895 122.144 303.911 122.144ZM304.103 121.472C305.327 121.472 306.035 120.62 306.035 119.36V119.048L304.319 119.18C303.227 119.276 302.783 119.756 302.783 120.404C302.783 121.112 303.311 121.472 304.103 121.472ZM311.548 116.12V116.864H311.092C310.024 116.864 309.34 117.584 309.34 118.688V122H308.512V116.192H309.292L309.352 117.092C309.58 116.468 310.192 116.06 311.008 116.06C311.188 116.06 311.344 116.072 311.548 116.12Z" fill="black"/>
<path d="M228 167.5C231.59 167.5 234.5 170.41 234.5 174C234.5 177.59 231.59 180.5 228 180.5C224.41 180.5 221.5 177.59 221.5 174C221.5 170.41 224.41 167.5 228 167.5Z" fill="#E4DAFF" stroke="#E4DAFF" stroke-width="3"/>
<path d="M248.048 175.216L244.16 168.544H245.456L248.288 173.488C248.416 173.728 248.512 173.92 248.624 174.176C248.768 173.888 248.768 173.888 248.976 173.488L251.776 168.544H253.04L249.2 175.216V180H248.048V175.216ZM256.103 180.192C253.831 180.192 252.311 178.56 252.311 176.128C252.311 173.712 253.815 172.048 256.023 172.048C258.119 172.048 259.543 173.536 259.543 175.728V176.272H253.383C253.463 178.16 254.455 179.248 256.119 179.248C257.383 179.248 258.199 178.704 258.487 177.68H259.543C259.127 179.312 257.927 180.192 256.103 180.192ZM256.023 172.992C254.567 172.992 253.607 173.952 253.415 175.472H258.439C258.439 173.984 257.479 172.992 256.023 172.992ZM263.454 180.192C261.806 180.192 260.83 179.264 260.83 177.904C260.83 176.48 261.918 175.584 263.726 175.44L266.286 175.232V174.976C266.286 173.456 265.374 172.976 264.238 172.976C262.894 172.976 262.094 173.584 262.094 174.624H261.086C261.086 173.056 262.366 172.048 264.27 172.048C266.062 172.048 267.374 172.944 267.374 174.992V180H266.446L266.302 178.64C265.822 179.616 264.766 180.192 263.454 180.192ZM263.71 179.296C265.342 179.296 266.286 178.16 266.286 176.48V176.064L263.998 176.24C262.542 176.368 261.95 177.008 261.95 177.872C261.95 178.816 262.654 179.296 263.71 179.296ZM273.638 172.16V173.152H273.03C271.606 173.152 270.694 174.112 270.694 175.584V180H269.59V172.256H270.63L270.71 173.456C271.014 172.624 271.83 172.08 272.918 172.08C273.158 172.08 273.366 172.096 273.638 172.16ZM286.663 180H279.111V179.088L282.775 175.888C284.887 174.048 285.431 173.248 285.431 171.888C285.431 170.336 284.503 169.392 282.983 169.392C281.399 169.392 280.359 170.544 280.311 172.32H279.159C279.223 169.92 280.743 168.336 282.999 168.336C285.159 168.336 286.599 169.728 286.599 171.824C286.599 173.488 285.847 174.592 283.559 176.592L280.887 178.928H286.663V180ZM288.255 174.272C288.255 170.72 289.999 168.32 292.847 168.32C295.679 168.32 297.423 170.72 297.423 174.272C297.423 177.84 295.711 180.208 292.847 180.208C289.967 180.208 288.255 177.84 288.255 174.272ZM289.391 174.272C289.391 177.248 290.655 179.168 292.847 179.168C295.039 179.168 296.303 177.248 296.303 174.272C296.303 171.28 295.039 169.376 292.847 169.376C290.655 169.376 289.391 171.28 289.391 174.272ZM306.569 180H299.017V179.088L302.681 175.888C304.793 174.048 305.337 173.248 305.337 171.888C305.337 170.336 304.409 169.392 302.889 169.392C301.305 169.392 300.265 170.544 300.217 172.32H299.065C299.129 169.92 300.649 168.336 302.905 168.336C305.065 168.336 306.505 169.728 306.505 171.824C306.505 173.488 305.753 174.592 303.465 176.592L300.793 178.928H306.569V180ZM315.948 177.568H314.604V180H313.484V177.568H307.468V176.544L313.068 168.544H314.604V176.544H315.948V177.568ZM308.716 176.544H313.484V169.728L308.716 176.544Z" fill="#838383"/>
<path d="M329.16 181.52V180.192C326.936 180.032 325.512 178.736 325.464 176.784H327.512C327.528 177.696 328.12 178.272 329.16 178.4V174.992L328.648 174.88C326.632 174.448 325.624 173.328 325.624 171.568C325.624 169.696 327.032 168.352 329.16 168.128V166.768H330.392V168.128C332.408 168.336 333.656 169.6 333.72 171.52H331.736C331.704 170.656 331.224 170.096 330.392 169.92V173.36L330.936 173.488C332.984 173.936 333.912 174.928 333.912 176.624C333.912 178.576 332.536 179.92 330.392 180.16V181.52H329.16ZM329.096 173.072L329.16 173.088V169.904C328.2 170.064 327.624 170.64 327.624 171.504C327.624 172.352 328.072 172.848 329.096 173.072ZM330.504 175.28L330.392 175.248V178.368C331.352 178.176 331.928 177.616 331.928 176.8C331.928 175.984 331.464 175.488 330.504 175.28ZM343.317 179.984L335.205 180V178.464L339.029 175.232C340.613 173.888 341.141 173.12 341.141 172C341.141 170.672 340.421 169.92 339.189 169.92C337.909 169.92 337.109 170.816 337.093 172.32H335.061C335.077 169.76 336.709 168.096 339.189 168.096C341.685 168.096 343.237 169.52 343.237 171.888C343.237 173.52 342.341 174.752 340.565 176.272L338.453 178.08H343.317V179.984ZM348.144 174.208H346.72V172.88L349.728 170.112H344.864V168.304H352.288V169.936L349.44 172.56C351.232 172.912 352.624 174.224 352.624 176.288C352.624 178.688 350.752 180.208 348.384 180.208C346.096 180.208 344.32 178.8 344.32 176.272H346.336C346.336 177.616 347.168 178.384 348.416 178.384C349.696 178.384 350.544 177.552 350.544 176.256C350.544 175.072 349.776 174.208 348.144 174.208ZM360.677 176.56L358.149 180H355.813L358.613 176.272C358.325 176.352 358.021 176.4 357.733 176.4C355.317 176.4 353.685 174.704 353.685 172.336C353.685 169.84 355.541 168.096 358.037 168.096C360.565 168.096 362.453 169.952 362.453 172.352C362.453 173.76 361.989 174.784 360.677 176.56ZM360.357 172.336C360.357 170.912 359.413 169.92 358.037 169.92C356.693 169.92 355.749 170.912 355.749 172.336C355.749 173.744 356.693 174.72 358.037 174.72C359.429 174.72 360.357 173.744 360.357 172.336ZM366.007 180H364.071V168.096H366.007V175.408L369.079 172.096H371.527L368.519 175.232L371.463 180H369.223L367.159 176.672L366.007 177.872V180Z" fill="#020202"/>
<path d="M445 167.5C448.59 167.5 451.5 170.41 451.5 174C451.5 177.59 448.59 180.5 445 180.5C441.41 180.5 438.5 177.59 438.5 174C438.5 170.41 441.41 167.5 445 167.5Z" fill="#454040" stroke="#454040" stroke-width="3"/>
<path d="M465.048 175.216L461.16 168.544H462.456L465.288 173.488C465.416 173.728 465.512 173.92 465.624 174.176C465.768 173.888 465.768 173.888 465.976 173.488L468.776 168.544H470.04L466.2 175.216V180H465.048V175.216ZM473.103 180.192C470.831 180.192 469.311 178.56 469.311 176.128C469.311 173.712 470.815 172.048 473.023 172.048C475.119 172.048 476.543 173.536 476.543 175.728V176.272H470.383C470.463 178.16 471.455 179.248 473.119 179.248C474.383 179.248 475.199 178.704 475.487 177.68H476.543C476.127 179.312 474.927 180.192 473.103 180.192ZM473.023 172.992C471.567 172.992 470.607 173.952 470.415 175.472H475.439C475.439 173.984 474.479 172.992 473.023 172.992ZM480.454 180.192C478.806 180.192 477.83 179.264 477.83 177.904C477.83 176.48 478.918 175.584 480.726 175.44L483.286 175.232V174.976C483.286 173.456 482.374 172.976 481.238 172.976C479.894 172.976 479.094 173.584 479.094 174.624H478.086C478.086 173.056 479.366 172.048 481.27 172.048C483.062 172.048 484.374 172.944 484.374 174.992V180H483.446L483.302 178.64C482.822 179.616 481.766 180.192 480.454 180.192ZM480.71 179.296C482.342 179.296 483.286 178.16 483.286 176.48V176.064L480.998 176.24C479.542 176.368 478.95 177.008 478.95 177.872C478.95 178.816 479.654 179.296 480.71 179.296ZM490.638 172.16V173.152H490.03C488.606 173.152 487.694 174.112 487.694 175.584V180H486.59V172.256H487.63L487.71 173.456C488.014 172.624 488.83 172.08 489.918 172.08C490.158 172.08 490.366 172.096 490.638 172.16ZM503.663 180H496.111V179.088L499.775 175.888C501.887 174.048 502.431 173.248 502.431 171.888C502.431 170.336 501.503 169.392 499.983 169.392C498.399 169.392 497.359 170.544 497.311 172.32H496.159C496.223 169.92 497.743 168.336 499.999 168.336C502.159 168.336 503.599 169.728 503.599 171.824C503.599 173.488 502.847 174.592 500.559 176.592L497.887 178.928H503.663V180ZM505.255 174.272C505.255 170.72 506.999 168.32 509.847 168.32C512.679 168.32 514.423 170.72 514.423 174.272C514.423 177.84 512.711 180.208 509.847 180.208C506.967 180.208 505.255 177.84 505.255 174.272ZM506.391 174.272C506.391 177.248 507.655 179.168 509.847 179.168C512.039 179.168 513.303 177.248 513.303 174.272C513.303 171.28 512.039 169.376 509.847 169.376C507.655 169.376 506.391 171.28 506.391 174.272ZM523.569 180H516.017V179.088L519.681 175.888C521.793 174.048 522.337 173.248 522.337 171.888C522.337 170.336 521.409 169.392 519.889 169.392C518.305 169.392 517.265 170.544 517.217 172.32H516.065C516.129 169.92 517.649 168.336 519.905 168.336C522.065 168.336 523.505 169.728 523.505 171.824C523.505 173.488 522.753 174.592 520.465 176.592L517.793 178.928H523.569V180ZM528.828 180.192C526.524 180.192 525.052 178.752 525.052 176.496H526.204C526.204 178.144 527.212 179.136 528.844 179.136C530.572 179.136 531.692 177.984 531.692 176.288C531.692 174.688 530.652 173.424 528.844 173.424C527.788 173.424 526.828 173.904 526.204 174.592L525.292 174.304L526.668 168.544H532.204V169.6H527.5L526.636 173.2C527.276 172.688 528.108 172.4 529.004 172.4C531.388 172.4 532.86 174.112 532.86 176.256C532.86 178.56 531.228 180.192 528.828 180.192Z" fill="#838383"/>
<path d="M546.16 181.52V180.192C543.936 180.032 542.512 178.736 542.464 176.784H544.512C544.528 177.696 545.12 178.272 546.16 178.4V174.992L545.648 174.88C543.632 174.448 542.624 173.328 542.624 171.568C542.624 169.696 544.032 168.352 546.16 168.128V166.768H547.392V168.128C549.408 168.336 550.656 169.6 550.72 171.52H548.736C548.704 170.656 548.224 170.096 547.392 169.92V173.36L547.936 173.488C549.984 173.936 550.912 174.928 550.912 176.624C550.912 178.576 549.536 179.92 547.392 180.16V181.52H546.16ZM546.096 173.072L546.16 173.088V169.904C545.2 170.064 544.624 170.64 544.624 171.504C544.624 172.352 545.072 172.848 546.096 173.072ZM547.504 175.28L547.392 175.248V178.368C548.352 178.176 548.928 177.616 548.928 176.8C548.928 175.984 548.464 175.488 547.504 175.28ZM560.317 179.984L552.205 180V178.464L556.029 175.232C557.613 173.888 558.141 173.12 558.141 172C558.141 170.672 557.421 169.92 556.189 169.92C554.909 169.92 554.109 170.816 554.093 172.32H552.061C552.077 169.76 553.709 168.096 556.189 168.096C558.685 168.096 560.237 169.52 560.237 171.888C560.237 173.52 559.341 174.752 557.565 176.272L555.453 178.08H560.317V179.984ZM570.463 177.776H569.039V180H567.103V177.776H561.167V175.984L566.463 168.304H569.039V175.984H570.463V177.776ZM563.343 175.984H567.103V170.512L563.343 175.984ZM580.713 177.776H579.289V180H577.353V177.776H571.417V175.984L576.713 168.304H579.289V175.984H580.713V177.776ZM573.593 175.984H577.353V170.512L573.593 175.984ZM584.289 180H582.353V168.096H584.289V175.408L587.361 172.096H589.809L586.801 175.232L589.745 180H587.505L585.441 176.672L584.289 177.872V180Z" fill="#0F0F10"/>
<path d="M22.534 202.886H20.49V201.976H23.5V212H22.534V202.886ZM25.4458 206.988C25.4458 203.88 26.9718 201.78 29.4638 201.78C31.9418 201.78 33.4678 203.88 33.4678 206.988C33.4678 210.11 31.9698 212.182 29.4638 212.182C26.9438 212.182 25.4458 210.11 25.4458 206.988ZM26.4398 206.988C26.4398 209.592 27.5458 211.272 29.4638 211.272C31.3818 211.272 32.4878 209.592 32.4878 206.988C32.4878 204.37 31.3818 202.704 29.4638 202.704C27.5458 202.704 26.4398 204.37 26.4398 206.988ZM35.0024 206.988C35.0024 203.88 36.5284 201.78 39.0204 201.78C41.4984 201.78 43.0244 203.88 43.0244 206.988C43.0244 210.11 41.5264 212.182 39.0204 212.182C36.5004 212.182 35.0024 210.11 35.0024 206.988ZM35.9964 206.988C35.9964 209.592 37.1024 211.272 39.0204 211.272C40.9384 211.272 42.0444 209.592 42.0444 206.988C42.0444 204.37 40.9384 202.704 39.0204 202.704C37.1024 202.704 35.9964 204.37 35.9964 206.988Z" fill="black"/>
<path d="M20.714 246.77C20.714 245.538 21.456 244.558 22.646 244.152C21.638 243.746 21.064 242.92 21.064 241.884C21.064 240.344 22.38 239.294 24.298 239.294C26.202 239.294 27.476 240.344 27.476 241.898C27.476 242.948 26.916 243.774 25.922 244.152C27.084 244.516 27.854 245.524 27.854 246.784C27.854 248.492 26.412 249.668 24.284 249.668C22.156 249.668 20.714 248.492 20.714 246.77ZM22.016 241.912C22.016 243.018 22.912 243.76 24.284 243.76C25.642 243.76 26.524 243.046 26.524 241.94C26.524 240.862 25.642 240.19 24.284 240.19C22.912 240.19 22.016 240.862 22.016 241.912ZM21.708 246.686C21.708 247.932 22.744 248.758 24.298 248.758C25.824 248.758 26.86 247.932 26.86 246.686C26.86 245.454 25.852 244.656 24.27 244.656C22.716 244.656 21.708 245.454 21.708 246.686ZM29.3423 244.488C29.3423 241.38 30.8683 239.28 33.3603 239.28C35.8383 239.28 37.3643 241.38 37.3643 244.488C37.3643 247.61 35.8663 249.682 33.3603 249.682C30.8403 249.682 29.3423 247.61 29.3423 244.488ZM30.3363 244.488C30.3363 247.092 31.4423 248.772 33.3603 248.772C35.2783 248.772 36.3843 247.092 36.3843 244.488C36.3843 241.87 35.2783 240.204 33.3603 240.204C31.4423 240.204 30.3363 241.87 30.3363 244.488Z" fill="black"/>
<path d="M21.904 280.35L24.41 276.976H25.586L22.954 280.462C23.43 280.224 23.864 280.126 24.326 280.126C26.412 280.126 27.798 281.652 27.798 283.612C27.798 285.67 26.244 287.168 24.242 287.168C22.226 287.168 20.644 285.614 20.644 283.612C20.644 282.45 20.966 281.638 21.904 280.35ZM21.666 283.626C21.666 285.152 22.716 286.258 24.242 286.258C25.726 286.258 26.79 285.152 26.79 283.626C26.79 282.1 25.726 281.008 24.242 281.008C22.716 281.008 21.666 282.1 21.666 283.626ZM29.2055 281.988C29.2055 278.88 30.7315 276.78 33.2235 276.78C35.7015 276.78 37.2275 278.88 37.2275 281.988C37.2275 285.11 35.7295 287.182 33.2235 287.182C30.7035 287.182 29.2055 285.11 29.2055 281.988ZM30.1995 281.988C30.1995 284.592 31.3055 286.272 33.2235 286.272C35.1415 286.272 36.2475 284.592 36.2475 281.988C36.2475 279.37 35.1415 277.704 33.2235 277.704C31.3055 277.704 30.1995 279.37 30.1995 281.988Z" fill="black"/>
<path d="M27.98 322.372H26.804V324.5H25.824V322.372H20.56V321.476L25.46 314.476H26.804V321.476H27.98V322.372ZM21.652 321.476H25.824V315.512L21.652 321.476ZM29.5473 319.488C29.5473 316.38 31.0733 314.28 33.5653 314.28C36.0433 314.28 37.5693 316.38 37.5693 319.488C37.5693 322.61 36.0713 324.682 33.5653 324.682C31.0453 324.682 29.5473 322.61 29.5473 319.488ZM30.5413 319.488C30.5413 322.092 31.6473 323.772 33.5653 323.772C35.4833 323.772 36.5893 322.092 36.5893 319.488C36.5893 316.87 35.4833 315.204 33.5653 315.204C31.6473 315.204 30.5413 316.87 30.5413 319.488Z" fill="black"/>
<path d="M27.238 362H20.63V361.202L23.836 358.402C25.684 356.792 26.16 356.092 26.16 354.902C26.16 353.544 25.348 352.718 24.018 352.718C22.632 352.718 21.722 353.726 21.68 355.28H20.672C20.728 353.18 22.058 351.794 24.032 351.794C25.922 351.794 27.182 353.012 27.182 354.846C27.182 356.302 26.524 357.268 24.522 359.018L22.184 361.062H27.238V362ZM28.6313 356.988C28.6313 353.88 30.1573 351.78 32.6493 351.78C35.1273 351.78 36.6533 353.88 36.6533 356.988C36.6533 360.11 35.1553 362.182 32.6493 362.182C30.1293 362.182 28.6313 360.11 28.6313 356.988ZM29.6253 356.988C29.6253 359.592 30.7313 361.272 32.6493 361.272C34.5673 361.272 35.6733 359.592 35.6733 356.988C35.6733 354.37 34.5673 352.704 32.6493 352.704C30.7313 352.704 29.6253 354.37 29.6253 356.988Z" fill="black"/>
<path d="M54 356H596M54 318.75H596M54 281.5H596M54 244.25H596M54 207H596" stroke="#838383" stroke-opacity="0.3" stroke-linecap="square"/>
<path fill-rule="evenodd" clip-rule="evenodd" d="M54 356C54 356 87.0029 249.354 100.258 249.354C113.512 249.354 143.365 328.797 176.405 328.797C209.445 328.797 219.882 301.189 262.469 290.149C305.056 279.108 307.598 342.176 328.675 342.176C349.751 342.176 381.269 276.086 396.605 276.086C411.122 276.086 416.53 342.176 461.188 342.176C505.846 342.176 533.705 207 553.946 207C574.186 207 596 356 596 356H54Z" fill="#E4DAFF"/>
<path fill-rule="evenodd" clip-rule="evenodd" d="M54 356C54 356 83.6661 327.77 108.626 327.77C133.586 327.77 135.253 340.722 180.573 340.722C225.892 340.722 242.181 281.5 250.44 281.5C258.698 281.5 259.336 327.77 281.273 327.77C305.864 327.77 323.116 207 341.189 207C364.108 207 376.215 315.686 396.828 315.686C417.442 315.686 430.065 258.028 451.104 258.028C469.787 258.028 483.003 317.767 496.401 324.497C510.537 331.596 517.048 275.114 543.626 275.114C570.204 275.114 596 356 596 356H54Z" fill="url(#paint0_radial_4865_2307)"/>
<path d="M56.1967 382.242V381.85H57.1767V382.242C57.1767 383.432 57.8207 384.216 59.0387 384.216C60.3127 384.216 60.9007 383.418 60.9007 382.228V374.976H61.9087V382.256C61.9087 384.076 60.7327 385.168 59.0387 385.168C57.2327 385.168 56.1967 383.978 56.1967 382.242ZM66.0074 385.168C64.5654 385.168 63.7114 384.356 63.7114 383.166C63.7114 381.92 64.6634 381.136 66.2454 381.01L68.4854 380.828V380.604C68.4854 379.274 67.6874 378.854 66.6934 378.854C65.5174 378.854 64.8174 379.386 64.8174 380.296H63.9354C63.9354 378.924 65.0554 378.042 66.7214 378.042C68.2894 378.042 69.4374 378.826 69.4374 380.618V385H68.6254L68.4994 383.81C68.0794 384.664 67.1554 385.168 66.0074 385.168ZM66.2314 384.384C67.6594 384.384 68.4854 383.39 68.4854 381.92V381.556L66.4834 381.71C65.2094 381.822 64.6914 382.382 64.6914 383.138C64.6914 383.964 65.3074 384.384 66.2314 384.384ZM72.3418 385H71.3758V378.224H72.2158L72.3558 379.4C72.8038 378.532 73.6998 378.042 74.6798 378.042C76.5418 378.042 77.3118 379.148 77.3118 380.856V385H76.3458V381.066C76.3458 379.484 75.6318 378.924 74.5118 378.924C73.1258 378.924 72.3418 379.932 72.3418 381.458V385Z" fill="black"/>
<path d="M109.078 380.59H104.976V385H103.968V374.976H109.876V375.9H104.976V379.68H109.078V380.59ZM113.668 385.168C111.68 385.168 110.35 383.74 110.35 381.612C110.35 379.498 111.666 378.042 113.598 378.042C115.432 378.042 116.678 379.344 116.678 381.262V381.738H111.288C111.358 383.39 112.226 384.342 113.682 384.342C114.788 384.342 115.502 383.866 115.754 382.97H116.678C116.314 384.398 115.264 385.168 113.668 385.168ZM113.598 378.868C112.324 378.868 111.484 379.708 111.316 381.038H115.712C115.712 379.736 114.872 378.868 113.598 378.868ZM119.063 385H118.223V374.794H119.189V379.54C119.665 378.546 120.589 378.042 121.737 378.042C123.711 378.042 124.859 379.582 124.859 381.626C124.859 383.656 123.683 385.168 121.709 385.168C120.575 385.168 119.637 384.664 119.161 383.614L119.063 385ZM119.203 381.598C119.203 383.166 120.071 384.286 121.555 384.286C123.025 384.286 123.879 383.166 123.879 381.598C123.879 380.044 123.025 378.91 121.555 378.91C120.071 378.91 119.203 380.044 119.203 381.598Z" fill="black"/>
<path d="M151.295 385H150.301V374.976H151.295L154.949 383.81L158.603 374.976H159.611V385H158.617V380.24C158.617 378.49 158.645 377.72 158.701 377.034L155.439 385H154.473L151.211 377.076C151.267 377.454 151.295 378.56 151.295 380.086V385ZM163.782 385.168C162.34 385.168 161.486 384.356 161.486 383.166C161.486 381.92 162.438 381.136 164.02 381.01L166.26 380.828V380.604C166.26 379.274 165.462 378.854 164.468 378.854C163.292 378.854 162.592 379.386 162.592 380.296H161.71C161.71 378.924 162.83 378.042 164.496 378.042C166.064 378.042 167.212 378.826 167.212 380.618V385H166.4L166.274 383.81C165.854 384.664 164.93 385.168 163.782 385.168ZM164.006 384.384C165.434 384.384 166.26 383.39 166.26 381.92V381.556L164.258 381.71C162.984 381.822 162.466 382.382 162.466 383.138C162.466 383.964 163.082 384.384 164.006 384.384ZM172.692 378.14V379.008H172.16C170.914 379.008 170.116 379.848 170.116 381.136V385H169.15V378.224H170.06L170.13 379.274C170.396 378.546 171.11 378.07 172.062 378.07C172.272 378.07 172.454 378.084 172.692 378.14Z" fill="black"/>
<path d="M197.635 385H196.613L200.295 374.976H201.541L205.265 385H204.215L203.235 382.34H198.615L197.635 385ZM200.785 376.39L198.923 381.458H202.913L201.037 376.39C200.995 376.25 200.925 376.082 200.911 375.984C200.897 376.068 200.841 376.25 200.785 376.39ZM206.448 387.954V378.224H207.288L207.386 379.596C207.862 378.546 208.814 378.042 209.948 378.042C211.908 378.042 213.084 379.54 213.084 381.584C213.084 383.628 211.95 385.168 209.948 385.168C208.8 385.168 207.89 384.678 207.414 383.698V387.954H206.448ZM207.428 381.612C207.428 383.166 208.296 384.3 209.78 384.3C211.25 384.3 212.104 383.166 212.104 381.612C212.104 380.044 211.25 378.924 209.78 378.924C208.296 378.924 207.428 380.044 207.428 381.612ZM218.166 378.14V379.008H217.634C216.388 379.008 215.59 379.848 215.59 381.136V385H214.624V378.224H215.534L215.604 379.274C215.87 378.546 216.584 378.07 217.536 378.07C217.746 378.07 217.928 378.084 218.166 378.14Z" fill="black"/>
<path d="M243.962 385H242.968V374.976H243.962L247.616 383.81L251.27 374.976H252.278V385H251.284V380.24C251.284 378.49 251.312 377.72 251.368 377.034L248.106 385H247.14L243.878 377.076C243.934 377.454 243.962 378.56 243.962 380.086V385ZM256.448 385.168C255.006 385.168 254.152 384.356 254.152 383.166C254.152 381.92 255.104 381.136 256.686 381.01L258.926 380.828V380.604C258.926 379.274 258.128 378.854 257.134 378.854C255.958 378.854 255.258 379.386 255.258 380.296H254.376C254.376 378.924 255.496 378.042 257.162 378.042C258.73 378.042 259.878 378.826 259.878 380.618V385H259.066L258.94 383.81C258.52 384.664 257.596 385.168 256.448 385.168ZM256.672 384.384C258.1 384.384 258.926 383.39 258.926 381.92V381.556L256.924 381.71C255.65 381.822 255.132 382.382 255.132 383.138C255.132 383.964 255.748 384.384 256.672 384.384ZM260.98 387.954V387.156H261.722C262.31 387.156 262.898 387.114 263.234 386.204L263.528 385.406L260.784 378.224H261.806L263.99 384.132L266.132 378.224H267.126L264.018 386.554C263.626 387.618 262.968 388.052 262.002 388.052C261.596 388.052 261.288 388.024 260.98 387.954Z" fill="black"/>
<path d="M290.363 382.242V381.85H291.343V382.242C291.343 383.432 291.987 384.216 293.205 384.216C294.479 384.216 295.067 383.418 295.067 382.228V374.976H296.075V382.256C296.075 384.076 294.899 385.168 293.205 385.168C291.399 385.168 290.363 383.978 290.363 382.242ZM302.988 378.224H303.954V385H303.114L302.988 383.852C302.61 384.636 301.672 385.168 300.608 385.168C299.012 385.168 298.144 384.076 298.144 382.424V378.21H299.124V382.116C299.124 383.726 299.838 384.3 300.916 384.3C302.218 384.3 302.988 383.432 302.988 381.822V378.224ZM306.932 385H305.966V378.224H306.806L306.946 379.4C307.394 378.532 308.29 378.042 309.27 378.042C311.132 378.042 311.902 379.148 311.902 380.856V385H310.936V381.066C310.936 379.484 310.222 378.924 309.102 378.924C307.716 378.924 306.932 379.932 306.932 381.458V385Z" fill="black"/>
<path d="M339.697 382.242V381.85H340.677V382.242C340.677 383.432 341.321 384.216 342.539 384.216C343.813 384.216 344.401 383.418 344.401 382.228V374.976H345.409V382.256C345.409 384.076 344.233 385.168 342.539 385.168C340.733 385.168 339.697 383.978 339.697 382.242ZM352.321 378.224H353.287V385H352.447L352.321 383.852C351.943 384.636 351.005 385.168 349.941 385.168C348.345 385.168 347.477 384.076 347.477 382.424V378.21H348.457V382.116C348.457 383.726 349.171 384.3 350.249 384.3C351.551 384.3 352.321 383.432 352.321 381.822V378.224ZM356.308 385H355.342V374.794H356.308V385Z" fill="black"/>
<path d="M383.968 385H382.946L386.628 374.976H387.874L391.598 385H390.548L389.568 382.34H384.948L383.968 385ZM387.118 376.39L385.256 381.458H389.246L387.37 376.39C387.328 376.25 387.258 376.082 387.244 375.984C387.23 376.068 387.174 376.25 387.118 376.39ZM397.418 378.224H398.384V385H397.544L397.418 383.852C397.04 384.636 396.102 385.168 395.038 385.168C393.442 385.168 392.574 384.076 392.574 382.424V378.21H393.554V382.116C393.554 383.726 394.268 384.3 395.346 384.3C396.648 384.3 397.418 383.432 397.418 381.822V378.224ZM399.935 381.416C399.935 379.568 401.125 378.042 403.113 378.042C404.289 378.042 405.185 378.588 405.619 379.582L405.717 378.224H406.557V384.79C406.557 386.806 405.269 388.122 403.281 388.122C401.545 388.122 400.327 387.142 400.061 385.504H401.027C401.237 386.596 402.077 387.24 403.295 387.24C404.681 387.24 405.605 386.302 405.605 384.888V383.278C405.143 384.23 404.205 384.79 403.043 384.79C401.111 384.79 399.935 383.264 399.935 381.416ZM400.901 381.402C400.901 382.788 401.755 383.922 403.183 383.922C404.653 383.922 405.521 382.858 405.521 381.402C405.521 379.96 404.681 378.896 403.197 378.896C401.741 378.896 400.901 380.03 400.901 381.402Z" fill="black"/>
<path d="M430.699 377.58C430.699 375.9 432.043 374.794 434.059 374.794C435.865 374.794 437.055 375.802 437.209 377.482H436.187C436.075 376.348 435.305 375.704 434.045 375.704C432.631 375.704 431.707 376.432 431.707 377.566C431.707 378.448 432.225 379.008 433.275 379.274L434.997 379.694C436.565 380.072 437.377 380.968 437.377 382.326C437.377 384.062 436.033 385.168 433.961 385.168C432.015 385.168 430.699 384.146 430.573 382.508H431.609C431.665 383.558 432.589 384.244 433.961 384.244C435.431 384.244 436.369 383.53 436.369 382.382C436.369 381.486 435.865 380.898 434.787 380.646L433.093 380.226C431.525 379.848 430.699 378.952 430.699 377.58ZM441.822 385.168C439.834 385.168 438.504 383.74 438.504 381.612C438.504 379.498 439.82 378.042 441.752 378.042C443.586 378.042 444.832 379.344 444.832 381.262V381.738H439.442C439.512 383.39 440.38 384.342 441.836 384.342C442.942 384.342 443.656 383.866 443.908 382.97H444.832C444.468 384.398 443.418 385.168 441.822 385.168ZM441.752 378.868C440.478 378.868 439.638 379.708 439.47 381.038H443.866C443.866 379.736 443.026 378.868 441.752 378.868ZM446.376 387.954V378.224H447.216L447.314 379.596C447.79 378.546 448.742 378.042 449.876 378.042C451.836 378.042 453.012 379.54 453.012 381.584C453.012 383.628 451.878 385.168 449.876 385.168C448.728 385.168 447.818 384.678 447.342 383.698V387.954H446.376ZM447.356 381.612C447.356 383.166 448.224 384.3 449.708 384.3C451.178 384.3 452.032 383.166 452.032 381.612C452.032 380.044 451.178 378.924 449.708 378.924C448.224 378.924 447.356 380.044 447.356 381.612Z" fill="black"/>
<path d="M487.567 379.988C487.567 383.026 485.593 385.168 482.793 385.168C479.979 385.168 478.019 383.026 478.019 379.988C478.019 376.95 479.993 374.794 482.793 374.794C485.607 374.794 487.567 376.936 487.567 379.988ZM486.531 379.988C486.531 377.482 485.005 375.774 482.793 375.774C480.581 375.774 479.069 377.482 479.069 379.988C479.069 382.494 480.581 384.202 482.793 384.202C485.005 384.202 486.531 382.48 486.531 379.988ZM488.708 381.626C488.708 379.498 490.01 378.042 491.984 378.042C493.552 378.042 494.7 378.952 494.966 380.352H494C493.748 379.414 492.936 378.896 491.998 378.896C490.626 378.896 489.66 379.946 489.66 381.612C489.66 383.222 490.556 384.3 491.928 384.3C492.936 384.3 493.748 383.74 494.014 382.872H494.994C494.672 384.258 493.468 385.168 491.928 385.168C490.01 385.168 488.708 383.754 488.708 381.626ZM498.012 385H497.06V379.036H495.702V378.224H497.06V376.082H498.012V378.224H499.37V379.036H498.012V385Z" fill="black"/>
<path d="M525.476 385H524.468V374.976H525.49L531.006 383.32V374.976H532V385H531.006L525.476 376.656V385ZM533.762 381.612C533.762 379.54 535.218 378.042 537.206 378.042C539.194 378.042 540.65 379.54 540.65 381.612C540.65 383.67 539.194 385.168 537.206 385.168C535.218 385.168 533.762 383.67 533.762 381.612ZM534.742 381.598C534.742 383.194 535.75 384.3 537.206 384.3C538.648 384.3 539.67 383.194 539.67 381.598C539.67 380.03 538.648 378.91 537.206 378.91C535.75 378.91 534.742 380.03 534.742 381.598ZM543.785 385L541.013 378.224H542.049L543.799 382.592C543.981 383.082 544.163 383.544 544.289 383.992C544.415 383.53 544.597 383.082 544.793 382.592L546.571 378.224H547.565L544.751 385H543.785Z" fill="black"/>
<path d="M574.353 385H571.301V374.976H574.325C577.349 374.976 579.365 376.992 579.365 379.988C579.365 382.984 577.363 385 574.353 385ZM574.283 375.9H572.309V384.076H574.311C576.761 384.076 578.329 382.48 578.329 379.988C578.329 377.482 576.761 375.9 574.283 375.9ZM583.818 385.168C581.83 385.168 580.5 383.74 580.5 381.612C580.5 379.498 581.816 378.042 583.748 378.042C585.582 378.042 586.828 379.344 586.828 381.262V381.738H581.438C581.508 383.39 582.376 384.342 583.832 384.342C584.938 384.342 585.652 383.866 585.904 382.97H586.828C586.464 384.398 585.414 385.168 583.818 385.168ZM583.748 378.868C582.474 378.868 581.634 379.708 581.466 381.038H585.862C585.862 379.736 585.022 378.868 583.748 378.868ZM587.897 381.626C587.897 379.498 589.199 378.042 591.173 378.042C592.741 378.042 593.889 378.952 594.155 380.352H593.189C592.937 379.414 592.125 378.896 591.187 378.896C589.815 378.896 588.849 379.946 588.849 381.612C588.849 383.222 589.745 384.3 591.117 384.3C592.125 384.3 592.937 383.74 593.203 382.872H594.183C593.861 384.258 592.657 385.168 591.117 385.168C589.199 385.168 587.897 383.754 587.897 381.626Z" fill="black"/>
<defs>
<radialGradient id="paint0_radial_4865_2307" cx="0" cy="0" r="1" gradientUnits="userSpaceOnUse" gradientTransform="translate(325 281.5) scale(271 74.5)">
<stop stop-color="#4B4B4B"/>
<stop offset="1" stop-opacity="0.6"/>
</radialGradient>
</defs>
</svg>
