<svg width="385" height="266" viewBox="0 0 385 266" fill="none" xmlns="http://www.w3.org/2000/svg">
<rect x="0.5" y="0.5" width="384" height="265" rx="4.5" stroke="#8A38F5" stroke-dasharray="10 5"/>
<rect x="20" y="20" width="345" height="226" rx="20" fill="#2B2B2B"/>
<path d="M52.192 50.6V49.544H60.4V50.6H56.864V61H55.712V50.6H52.192ZM60.0143 57.128C60.0143 54.76 61.6783 53.048 63.9503 53.048C66.2223 53.048 67.8863 54.76 67.8863 57.128C67.8863 59.48 66.2223 61.192 63.9503 61.192C61.6783 61.192 60.0143 59.48 60.0143 57.128ZM61.1343 57.112C61.1343 58.936 62.2863 60.2 63.9503 60.2C65.5983 60.2 66.7663 58.936 66.7663 57.112C66.7663 55.32 65.5983 54.04 63.9503 54.04C62.2863 54.04 61.1343 55.32 61.1343 57.112ZM71.3499 61H70.2619V54.184H68.7099V53.256H70.2619V50.808H71.3499V53.256H72.9019V54.184H71.3499V61ZM76.4385 61.192C74.7905 61.192 73.8145 60.264 73.8145 58.904C73.8145 57.48 74.9025 56.584 76.7105 56.44L79.2705 56.232V55.976C79.2705 54.456 78.3585 53.976 77.2225 53.976C75.8785 53.976 75.0785 54.584 75.0785 55.624H74.0705C74.0705 54.056 75.3505 53.048 77.2545 53.048C79.0465 53.048 80.3585 53.944 80.3585 55.992V61H79.4305L79.2865 59.64C78.8065 60.616 77.7505 61.192 76.4385 61.192ZM76.6945 60.296C78.3265 60.296 79.2705 59.16 79.2705 57.48V57.064L76.9825 57.24C75.5265 57.368 74.9345 58.008 74.9345 58.872C74.9345 59.816 75.6385 60.296 76.6945 60.296ZM83.7259 61H82.6219V49.336H83.7259V61ZM89.9674 57.144C89.9674 54.712 91.4554 53.048 93.7114 53.048C95.5034 53.048 96.8154 54.088 97.1194 55.688H96.0154C95.7274 54.616 94.7994 54.024 93.7274 54.024C92.1594 54.024 91.0554 55.224 91.0554 57.128C91.0554 58.968 92.0794 60.2 93.6474 60.2C94.7994 60.2 95.7274 59.56 96.0314 58.568H97.1514C96.7834 60.152 95.4074 61.192 93.6474 61.192C91.4554 61.192 89.9674 59.576 89.9674 57.144ZM99.9759 61H98.8719V49.336H99.9759V61ZM102.868 51.128C102.42 51.128 102.052 50.76 102.052 50.312C102.052 49.864 102.42 49.48 102.868 49.48C103.316 49.48 103.7 49.864 103.7 50.312C103.7 50.76 103.316 51.128 102.868 51.128ZM102.324 61V53.256H103.428V61H102.324ZM108.978 61.192C106.706 61.192 105.186 59.56 105.186 57.128C105.186 54.712 106.69 53.048 108.898 53.048C110.994 53.048 112.418 54.536 112.418 56.728V57.272H106.258C106.338 59.16 107.33 60.248 108.994 60.248C110.258 60.248 111.074 59.704 111.362 58.68H112.418C112.002 60.312 110.802 61.192 108.978 61.192ZM108.898 53.992C107.442 53.992 106.482 54.952 106.29 56.472H111.314C111.314 54.984 110.354 53.992 108.898 53.992ZM115.287 61H114.183V53.256H115.143L115.303 54.6C115.815 53.608 116.839 53.048 117.959 53.048C120.087 53.048 120.967 54.312 120.967 56.264V61H119.863V56.504C119.863 54.696 119.047 54.056 117.767 54.056C116.183 54.056 115.287 55.208 115.287 56.952V61ZM124.944 61H123.856V54.184H122.304V53.256H123.856V50.808H124.944V53.256H126.496V54.184H124.944V61ZM127.277 58.824H128.333C128.333 59.72 129.005 60.28 130.093 60.28C131.293 60.28 131.997 59.768 131.997 58.936C131.997 58.296 131.677 57.928 130.765 57.704L129.437 57.368C128.093 57.032 127.437 56.328 127.437 55.272C127.437 53.912 128.573 53.048 130.237 53.048C131.869 53.048 132.925 53.944 132.973 55.384H131.901C131.869 54.488 131.245 53.96 130.205 53.96C129.117 53.96 128.509 54.424 128.509 55.256C128.509 55.848 128.925 56.264 129.773 56.472L131.101 56.808C132.445 57.144 133.053 57.768 133.053 58.888C133.053 60.28 131.869 61.192 130.109 61.192C128.365 61.192 127.277 60.264 127.277 58.824Z" fill="white"/>
<path d="M53.08 76.5V72.63H60.31V94.5H55.99V76.5H53.08ZM64.4591 83.28C64.4591 79.82 65.0791 77.11 66.3191 75.15C67.5791 73.19 69.6591 72.21 72.5591 72.21C75.4591 72.21 77.5291 73.19 78.7691 75.15C80.0291 77.11 80.6591 79.82 80.6591 83.28C80.6591 86.76 80.0291 89.49 78.7691 91.47C77.5291 93.45 75.4591 94.44 72.5591 94.44C69.6591 94.44 67.5791 93.45 66.3191 91.47C65.0791 89.49 64.4591 86.76 64.4591 83.28ZM76.5191 83.28C76.5191 81.8 76.4191 80.56 76.2191 79.56C76.0391 78.54 75.6591 77.71 75.0791 77.07C74.5191 76.43 73.6791 76.11 72.5591 76.11C71.4391 76.11 70.5891 76.43 70.0091 77.07C69.4491 77.71 69.0691 78.54 68.8691 79.56C68.6891 80.56 68.5991 81.8 68.5991 83.28C68.5991 84.8 68.6891 86.08 68.8691 87.12C69.0491 88.14 69.4291 88.97 70.0091 89.61C70.5891 90.23 71.4391 90.54 72.5591 90.54C73.6791 90.54 74.5291 90.23 75.1091 89.61C75.6891 88.97 76.0691 88.14 76.2491 87.12C76.4291 86.08 76.5191 84.8 76.5191 83.28ZM83.8537 83.28C83.8537 79.82 84.4737 77.11 85.7137 75.15C86.9737 73.19 89.0537 72.21 91.9537 72.21C94.8537 72.21 96.9237 73.19 98.1637 75.15C99.4237 77.11 100.054 79.82 100.054 83.28C100.054 86.76 99.4237 89.49 98.1637 91.47C96.9237 93.45 94.8537 94.44 91.9537 94.44C89.0537 94.44 86.9737 93.45 85.7137 91.47C84.4737 89.49 83.8537 86.76 83.8537 83.28ZM95.9137 83.28C95.9137 81.8 95.8137 80.56 95.6137 79.56C95.4337 78.54 95.0537 77.71 94.4737 77.07C93.9137 76.43 93.0737 76.11 91.9537 76.11C90.8337 76.11 89.9837 76.43 89.4037 77.07C88.8437 77.71 88.4637 78.54 88.2637 79.56C88.0837 80.56 87.9937 81.8 87.9937 83.28C87.9937 84.8 88.0837 86.08 88.2637 87.12C88.4437 88.14 88.8237 88.97 89.4037 89.61C89.9837 90.23 90.8337 90.54 91.9537 90.54C93.0737 90.54 93.9237 90.23 94.5037 89.61C95.0837 88.97 95.4637 88.14 95.6437 87.12C95.8237 86.08 95.9137 84.8 95.9137 83.28Z" fill="white"/>
<path d="M52.43 114.51C52.43 113.83 52.5833 113.22 52.89 112.68C53.1967 112.133 53.6133 111.707 54.14 111.4C54.6733 111.093 55.2633 110.94 55.91 110.94C56.67 110.94 57.3333 111.123 57.9 111.49C58.4667 111.857 58.88 112.377 59.14 113.05H58.05C57.8567 112.63 57.5767 112.307 57.21 112.08C56.85 111.853 56.4167 111.74 55.91 111.74C55.4233 111.74 54.9867 111.853 54.6 112.08C54.2133 112.307 53.91 112.63 53.69 113.05C53.47 113.463 53.36 113.95 53.36 114.51C53.36 115.063 53.47 115.55 53.69 115.97C53.91 116.383 54.2133 116.703 54.6 116.93C54.9867 117.157 55.4233 117.27 55.91 117.27C56.4167 117.27 56.85 117.16 57.21 116.94C57.5767 116.713 57.8567 116.39 58.05 115.97H59.14C58.88 116.637 58.4667 117.153 57.9 117.52C57.3333 117.88 56.67 118.06 55.91 118.06C55.2633 118.06 54.6733 117.91 54.14 117.61C53.6133 117.303 53.1967 116.88 52.89 116.34C52.5833 115.8 52.43 115.19 52.43 114.51ZM65.3546 112.52V118H64.4446V117.19C64.2713 117.47 64.0279 117.69 63.7146 117.85C63.4079 118.003 63.0679 118.08 62.6946 118.08C62.2679 118.08 61.8846 117.993 61.5446 117.82C61.2046 117.64 60.9346 117.373 60.7346 117.02C60.5413 116.667 60.4446 116.237 60.4446 115.73V112.52H61.3446V115.61C61.3446 116.15 61.4813 116.567 61.7546 116.86C62.0279 117.147 62.4013 117.29 62.8746 117.29C63.3613 117.29 63.7446 117.14 64.0246 116.84C64.3046 116.54 64.4446 116.103 64.4446 115.53V112.52H65.3546ZM67.8011 113.41C67.9611 113.097 68.1878 112.853 68.4811 112.68C68.7811 112.507 69.1444 112.42 69.5711 112.42V113.36H69.3311C68.3111 113.36 67.8011 113.913 67.8011 115.02V118H66.8911V112.52H67.8011V113.41ZM71.5316 113.41C71.6916 113.097 71.9182 112.853 72.2116 112.68C72.5116 112.507 72.8749 112.42 73.3016 112.42V113.36H73.0616C72.0416 113.36 71.5316 113.913 71.5316 115.02V118H70.6216V112.52H71.5316V113.41ZM79.352 115.05C79.352 115.223 79.342 115.407 79.322 115.6H74.942C74.9754 116.14 75.1587 116.563 75.492 116.87C75.832 117.17 76.242 117.32 76.722 117.32C77.1154 117.32 77.442 117.23 77.702 117.05C77.9687 116.863 78.1554 116.617 78.262 116.31H79.242C79.0954 116.837 78.802 117.267 78.362 117.6C77.922 117.927 77.3754 118.09 76.722 118.09C76.202 118.09 75.7354 117.973 75.322 117.74C74.9154 117.507 74.5954 117.177 74.362 116.75C74.1287 116.317 74.012 115.817 74.012 115.25C74.012 114.683 74.1254 114.187 74.352 113.76C74.5787 113.333 74.8954 113.007 75.302 112.78C75.7154 112.547 76.1887 112.43 76.722 112.43C77.242 112.43 77.702 112.543 78.102 112.77C78.502 112.997 78.8087 113.31 79.022 113.71C79.242 114.103 79.352 114.55 79.352 115.05ZM78.412 114.86C78.412 114.513 78.3354 114.217 78.182 113.97C78.0287 113.717 77.8187 113.527 77.552 113.4C77.292 113.267 77.002 113.2 76.682 113.2C76.222 113.2 75.8287 113.347 75.502 113.64C75.182 113.933 74.9987 114.34 74.952 114.86H78.412ZM83.2232 112.42C83.8899 112.42 84.4299 112.623 84.8432 113.03C85.2565 113.43 85.4632 114.01 85.4632 114.77V118H84.5632V114.9C84.5632 114.353 84.4265 113.937 84.1532 113.65C83.8799 113.357 83.5065 113.21 83.0332 113.21C82.5532 113.21 82.1699 113.36 81.8832 113.66C81.6032 113.96 81.4632 114.397 81.4632 114.97V118H80.5532V112.52H81.4632V113.3C81.6432 113.02 81.8865 112.803 82.1932 112.65C82.5065 112.497 82.8499 112.42 83.2232 112.42ZM88.0597 113.27V116.5C88.0597 116.767 88.1164 116.957 88.2297 117.07C88.343 117.177 88.5397 117.23 88.8197 117.23H89.4897V118H88.6697C88.163 118 87.783 117.883 87.5297 117.65C87.2764 117.417 87.1497 117.033 87.1497 116.5V113.27H86.4397V112.52H87.1497V111.14H88.0597V112.52H89.4897V113.27H88.0597ZM99.8483 112.42C100.275 112.42 100.655 112.51 100.988 112.69C101.322 112.863 101.585 113.127 101.778 113.48C101.972 113.833 102.068 114.263 102.068 114.77V118H101.168V114.9C101.168 114.353 101.032 113.937 100.758 113.65C100.492 113.357 100.128 113.21 99.6683 113.21C99.1949 113.21 98.8183 113.363 98.5383 113.67C98.2583 113.97 98.1183 114.407 98.1183 114.98V118H97.2183V114.9C97.2183 114.353 97.0816 113.937 96.8083 113.65C96.5416 113.357 96.1783 113.21 95.7183 113.21C95.2449 113.21 94.8683 113.363 94.5883 113.67C94.3083 113.97 94.1683 114.407 94.1683 114.98V118H93.2583V112.52H94.1683V113.31C94.3483 113.023 94.5883 112.803 94.8883 112.65C95.1949 112.497 95.5316 112.42 95.8983 112.42C96.3583 112.42 96.7649 112.523 97.1183 112.73C97.4716 112.937 97.7349 113.24 97.9083 113.64C98.0616 113.253 98.3149 112.953 98.6683 112.74C99.0216 112.527 99.4149 112.42 99.8483 112.42ZM105.951 118.09C105.438 118.09 104.971 117.973 104.551 117.74C104.138 117.507 103.811 117.177 103.571 116.75C103.338 116.317 103.221 115.817 103.221 115.25C103.221 114.69 103.341 114.197 103.581 113.77C103.828 113.337 104.161 113.007 104.581 112.78C105.001 112.547 105.471 112.43 105.991 112.43C106.511 112.43 106.981 112.547 107.401 112.78C107.821 113.007 108.151 113.333 108.391 113.76C108.638 114.187 108.761 114.683 108.761 115.25C108.761 115.817 108.634 116.317 108.381 116.75C108.134 117.177 107.798 117.507 107.371 117.74C106.944 117.973 106.471 118.09 105.951 118.09ZM105.951 117.29C106.278 117.29 106.584 117.213 106.871 117.06C107.158 116.907 107.388 116.677 107.561 116.37C107.741 116.063 107.831 115.69 107.831 115.25C107.831 114.81 107.744 114.437 107.571 114.13C107.398 113.823 107.171 113.597 106.891 113.45C106.611 113.297 106.308 113.22 105.981 113.22C105.648 113.22 105.341 113.297 105.061 113.45C104.788 113.597 104.568 113.823 104.401 114.13C104.234 114.437 104.151 114.81 104.151 115.25C104.151 115.697 104.231 116.073 104.391 116.38C104.558 116.687 104.778 116.917 105.051 117.07C105.324 117.217 105.624 117.29 105.951 117.29ZM112.628 112.42C113.294 112.42 113.834 112.623 114.248 113.03C114.661 113.43 114.868 114.01 114.868 114.77V118H113.968V114.9C113.968 114.353 113.831 113.937 113.558 113.65C113.284 113.357 112.911 113.21 112.438 113.21C111.958 113.21 111.574 113.36 111.288 113.66C111.008 113.96 110.868 114.397 110.868 114.97V118H109.958V112.52H110.868V113.3C111.048 113.02 111.291 112.803 111.598 112.65C111.911 112.497 112.254 112.42 112.628 112.42ZM117.464 113.27V116.5C117.464 116.767 117.521 116.957 117.634 117.07C117.747 117.177 117.944 117.23 118.224 117.23H118.894V118H118.074C117.567 118 117.187 117.883 116.934 117.65C116.681 117.417 116.554 117.033 116.554 116.5V113.27H115.844V112.52H116.554V111.14H117.464V112.52H118.894V113.27H117.464ZM122.717 112.42C123.13 112.42 123.503 112.51 123.837 112.69C124.17 112.863 124.43 113.127 124.617 113.48C124.81 113.833 124.907 114.263 124.907 114.77V118H124.007V114.9C124.007 114.353 123.87 113.937 123.597 113.65C123.323 113.357 122.95 113.21 122.477 113.21C121.997 113.21 121.613 113.36 121.327 113.66C121.047 113.96 120.907 114.397 120.907 114.97V118H119.997V110.6H120.907V113.3C121.087 113.02 121.333 112.803 121.647 112.65C121.967 112.497 122.323 112.42 122.717 112.42Z" fill="white"/>
<path d="M196.547 74.1629H194.123V76.6469H192.851V74.1629H190.427V73.0109H192.851V70.5269H194.123V73.0109H196.547V74.1629ZM204.033 70.2269L200.697 77.9189H199.317L202.689 70.3709H198.249V69.2069H204.033V70.2269ZM210.844 70.3469H206.824V72.7349C206.992 72.5109 207.24 72.3229 207.568 72.1709C207.904 72.0189 208.26 71.9429 208.636 71.9429C209.308 71.9429 209.852 72.0869 210.268 72.3749C210.692 72.6629 210.992 73.0269 211.168 73.4669C211.352 73.9069 211.444 74.3709 211.444 74.8589C211.444 75.4509 211.328 75.9789 211.096 76.4429C210.872 76.8989 210.532 77.2589 210.076 77.5229C209.628 77.7869 209.076 77.9189 208.42 77.9189C207.548 77.9189 206.848 77.7029 206.32 77.2709C205.792 76.8389 205.476 76.2669 205.372 75.5549H206.704C206.792 75.9309 206.988 76.2309 207.292 76.4549C207.596 76.6709 207.976 76.7789 208.432 76.7789C209 76.7789 209.424 76.6069 209.704 76.2629C209.992 75.9189 210.136 75.4629 210.136 74.8949C210.136 74.3189 209.992 73.8789 209.704 73.5749C209.416 73.2629 208.992 73.1069 208.432 73.1069C208.04 73.1069 207.708 73.2069 207.436 73.4069C207.172 73.5989 206.98 73.8629 206.86 74.1989H205.564V69.1469H210.844V70.3469ZM212.652 71.2829C212.652 70.6989 212.82 70.2429 213.156 69.9149C213.5 69.5789 213.94 69.4109 214.476 69.4109C215.012 69.4109 215.448 69.5789 215.784 69.9149C216.128 70.2429 216.3 70.6989 216.3 71.2829C216.3 71.8669 216.128 72.3269 215.784 72.6629C215.448 72.9989 215.012 73.1669 214.476 73.1669C213.94 73.1669 213.5 72.9989 213.156 72.6629C212.82 72.3269 212.652 71.8669 212.652 71.2829ZM219.972 69.5669L215.184 77.9189H213.84L218.628 69.5669H219.972ZM214.476 70.2389C213.972 70.2389 213.72 70.5869 213.72 71.2829C213.72 71.9869 213.972 72.3389 214.476 72.3389C214.716 72.3389 214.9 72.2549 215.028 72.0869C215.164 71.9109 215.232 71.6429 215.232 71.2829C215.232 70.5869 214.98 70.2389 214.476 70.2389ZM217.536 76.1909C217.536 75.6069 217.704 75.1509 218.04 74.8229C218.384 74.4869 218.824 74.3189 219.36 74.3189C219.888 74.3189 220.32 74.4869 220.656 74.8229C221 75.1509 221.172 75.6069 221.172 76.1909C221.172 76.7749 221 77.2349 220.656 77.5709C220.32 77.9069 219.888 78.0749 219.36 78.0749C218.824 78.0749 218.384 77.9069 218.04 77.5709C217.704 77.2349 217.536 76.7749 217.536 76.1909ZM219.348 75.1469C218.844 75.1469 218.592 75.4949 218.592 76.1909C218.592 76.8869 218.844 77.2349 219.348 77.2349C219.852 77.2349 220.104 76.8869 220.104 76.1909C220.104 75.4949 219.852 75.1469 219.348 75.1469Z" fill="white"/>
<path d="M236 73.5C236 89.7924 222.792 103 206.5 103C190.208 103 177 89.7924 177 73.5C177 57.2076 190.208 44 206.5 44C222.792 44 236 57.2076 236 73.5ZM185.85 73.5C185.85 84.9047 195.095 94.15 206.5 94.15C217.905 94.15 227.15 84.9047 227.15 73.5C227.15 62.0953 217.905 52.85 206.5 52.85C195.095 52.85 185.85 62.0953 185.85 73.5Z" fill="white"/>
<path d="M206.5 98.575C206.5 101.019 204.508 103.034 202.091 102.669C197.823 102.024 193.73 100.447 190.111 98.0284C185.259 94.7869 181.478 90.1796 179.246 84.7892C177.013 79.3987 176.429 73.4673 177.567 67.7448C178.705 62.0224 181.515 56.766 185.64 52.6403C189.766 48.5147 195.022 45.7051 200.745 44.5668C206.467 43.4286 212.399 44.0128 217.789 46.2456C223.18 48.4783 227.787 52.2594 231.028 57.1107C233.447 60.7298 235.024 64.8232 235.669 69.0915C236.034 71.5079 234.019 73.5 231.575 73.5V73.5C229.131 73.5 227.197 71.4967 226.678 69.1087C226.13 66.5933 225.114 64.1895 223.67 62.0275C221.401 58.6316 218.176 55.9848 214.402 54.4219C210.629 52.8589 206.477 52.45 202.471 53.2468C198.466 54.0436 194.786 56.0103 191.898 58.8982C189.01 61.7862 187.044 65.4657 186.247 69.4714C185.45 73.4771 185.859 77.6291 187.422 81.4024C188.985 85.1757 191.632 88.4008 195.027 90.6698C197.189 92.1145 199.593 93.1303 202.109 93.6777C204.497 94.1974 206.5 96.1311 206.5 98.575V98.575Z" fill="#E2FF70"/>
<path d="M181.71 112.03V112.77H178.68V115.12H181.14V115.86H178.68V119H177.77V112.03H181.71ZM183.719 114.41C183.879 114.097 184.106 113.853 184.399 113.68C184.699 113.507 185.062 113.42 185.489 113.42V114.36H185.249C184.229 114.36 183.719 114.913 183.719 116.02V119H182.809V113.52H183.719V114.41ZM188.93 119.09C188.416 119.09 187.95 118.973 187.53 118.74C187.116 118.507 186.79 118.177 186.55 117.75C186.316 117.317 186.2 116.817 186.2 116.25C186.2 115.69 186.32 115.197 186.56 114.77C186.806 114.337 187.14 114.007 187.56 113.78C187.98 113.547 188.45 113.43 188.97 113.43C189.49 113.43 189.96 113.547 190.38 113.78C190.8 114.007 191.13 114.333 191.37 114.76C191.616 115.187 191.74 115.683 191.74 116.25C191.74 116.817 191.613 117.317 191.36 117.75C191.113 118.177 190.776 118.507 190.35 118.74C189.923 118.973 189.45 119.09 188.93 119.09ZM188.93 118.29C189.256 118.29 189.563 118.213 189.85 118.06C190.136 117.907 190.366 117.677 190.54 117.37C190.72 117.063 190.81 116.69 190.81 116.25C190.81 115.81 190.723 115.437 190.55 115.13C190.376 114.823 190.15 114.597 189.87 114.45C189.59 114.297 189.286 114.22 188.96 114.22C188.626 114.22 188.32 114.297 188.04 114.45C187.766 114.597 187.546 114.823 187.38 115.13C187.213 115.437 187.13 115.81 187.13 116.25C187.13 116.697 187.21 117.073 187.37 117.38C187.536 117.687 187.756 117.917 188.03 118.07C188.303 118.217 188.603 118.29 188.93 118.29ZM199.526 113.42C199.953 113.42 200.333 113.51 200.666 113.69C200.999 113.863 201.263 114.127 201.456 114.48C201.649 114.833 201.746 115.263 201.746 115.77V119H200.846V115.9C200.846 115.353 200.709 114.937 200.436 114.65C200.169 114.357 199.806 114.21 199.346 114.21C198.873 114.21 198.496 114.363 198.216 114.67C197.936 114.97 197.796 115.407 197.796 115.98V119H196.896V115.9C196.896 115.353 196.759 114.937 196.486 114.65C196.219 114.357 195.856 114.21 195.396 114.21C194.923 114.21 194.546 114.363 194.266 114.67C193.986 114.97 193.846 115.407 193.846 115.98V119H192.936V113.52H193.846V114.31C194.026 114.023 194.266 113.803 194.566 113.65C194.873 113.497 195.209 113.42 195.576 113.42C196.036 113.42 196.443 113.523 196.796 113.73C197.149 113.937 197.413 114.24 197.586 114.64C197.739 114.253 197.993 113.953 198.346 113.74C198.699 113.527 199.093 113.42 199.526 113.42ZM206.815 111.6V119H205.905V111.6H206.815ZM208.026 116.24C208.026 115.68 208.139 115.19 208.366 114.77C208.592 114.343 208.902 114.013 209.296 113.78C209.696 113.547 210.139 113.43 210.626 113.43C211.106 113.43 211.522 113.533 211.876 113.74C212.229 113.947 212.492 114.207 212.666 114.52V113.52H213.586V119H212.666V117.98C212.486 118.3 212.216 118.567 211.856 118.78C211.502 118.987 211.089 119.09 210.616 119.09C210.129 119.09 209.689 118.97 209.296 118.73C208.902 118.49 208.592 118.153 208.366 117.72C208.139 117.287 208.026 116.793 208.026 116.24ZM212.666 116.25C212.666 115.837 212.582 115.477 212.416 115.17C212.249 114.863 212.022 114.63 211.736 114.47C211.456 114.303 211.146 114.22 210.806 114.22C210.466 114.22 210.156 114.3 209.876 114.46C209.596 114.62 209.372 114.853 209.206 115.16C209.039 115.467 208.956 115.827 208.956 116.24C208.956 116.66 209.039 117.027 209.206 117.34C209.372 117.647 209.596 117.883 209.876 118.05C210.156 118.21 210.466 118.29 210.806 118.29C211.146 118.29 211.456 118.21 211.736 118.05C212.022 117.883 212.249 117.647 212.416 117.34C212.582 117.027 212.666 116.663 212.666 116.25ZM217.064 119.09C216.644 119.09 216.267 119.02 215.934 118.88C215.6 118.733 215.337 118.533 215.144 118.28C214.95 118.02 214.844 117.723 214.824 117.39H215.764C215.79 117.663 215.917 117.887 216.144 118.06C216.377 118.233 216.68 118.32 217.054 118.32C217.4 118.32 217.674 118.243 217.874 118.09C218.074 117.937 218.174 117.743 218.174 117.51C218.174 117.27 218.067 117.093 217.854 116.98C217.64 116.86 217.31 116.743 216.864 116.63C216.457 116.523 216.124 116.417 215.864 116.31C215.61 116.197 215.39 116.033 215.204 115.82C215.024 115.6 214.934 115.313 214.934 114.96C214.934 114.68 215.017 114.423 215.184 114.19C215.35 113.957 215.587 113.773 215.894 113.64C216.2 113.5 216.55 113.43 216.944 113.43C217.55 113.43 218.04 113.583 218.414 113.89C218.787 114.197 218.987 114.617 219.014 115.15H218.104C218.084 114.863 217.967 114.633 217.754 114.46C217.547 114.287 217.267 114.2 216.914 114.2C216.587 114.2 216.327 114.27 216.134 114.41C215.94 114.55 215.844 114.733 215.844 114.96C215.844 115.14 215.9 115.29 216.014 115.41C216.134 115.523 216.28 115.617 216.454 115.69C216.634 115.757 216.88 115.833 217.194 115.92C217.587 116.027 217.907 116.133 218.154 116.24C218.4 116.34 218.61 116.493 218.784 116.7C218.964 116.907 219.057 117.177 219.064 117.51C219.064 117.81 218.98 118.08 218.814 118.32C218.647 118.56 218.41 118.75 218.104 118.89C217.804 119.023 217.457 119.09 217.064 119.09ZM221.458 114.27V117.5C221.458 117.767 221.515 117.957 221.628 118.07C221.741 118.177 221.938 118.23 222.218 118.23H222.888V119H222.068C221.561 119 221.181 118.883 220.928 118.65C220.675 118.417 220.548 118.033 220.548 117.5V114.27H219.838V113.52H220.548V112.14H221.458V113.52H222.888V114.27H221.458ZM233.247 113.42C233.673 113.42 234.053 113.51 234.387 113.69C234.72 113.863 234.983 114.127 235.177 114.48C235.37 114.833 235.467 115.263 235.467 115.77V119H234.567V115.9C234.567 115.353 234.43 114.937 234.157 114.65C233.89 114.357 233.527 114.21 233.067 114.21C232.593 114.21 232.217 114.363 231.937 114.67C231.657 114.97 231.517 115.407 231.517 115.98V119H230.617V115.9C230.617 115.353 230.48 114.937 230.207 114.65C229.94 114.357 229.577 114.21 229.117 114.21C228.643 114.21 228.267 114.363 227.987 114.67C227.707 114.97 227.567 115.407 227.567 115.98V119H226.657V113.52H227.567V114.31C227.747 114.023 227.987 113.803 228.287 113.65C228.593 113.497 228.93 113.42 229.297 113.42C229.757 113.42 230.163 113.523 230.517 113.73C230.87 113.937 231.133 114.24 231.307 114.64C231.46 114.253 231.713 113.953 232.067 113.74C232.42 113.527 232.813 113.42 233.247 113.42ZM239.349 119.09C238.836 119.09 238.369 118.973 237.949 118.74C237.536 118.507 237.209 118.177 236.969 117.75C236.736 117.317 236.619 116.817 236.619 116.25C236.619 115.69 236.739 115.197 236.979 114.77C237.226 114.337 237.559 114.007 237.979 113.78C238.399 113.547 238.869 113.43 239.389 113.43C239.909 113.43 240.379 113.547 240.799 113.78C241.219 114.007 241.549 114.333 241.789 114.76C242.036 115.187 242.159 115.683 242.159 116.25C242.159 116.817 242.033 117.317 241.779 117.75C241.533 118.177 241.196 118.507 240.769 118.74C240.343 118.973 239.869 119.09 239.349 119.09ZM239.349 118.29C239.676 118.29 239.983 118.213 240.269 118.06C240.556 117.907 240.786 117.677 240.959 117.37C241.139 117.063 241.229 116.69 241.229 116.25C241.229 115.81 241.143 115.437 240.969 115.13C240.796 114.823 240.569 114.597 240.289 114.45C240.009 114.297 239.706 114.22 239.379 114.22C239.046 114.22 238.739 114.297 238.459 114.45C238.186 114.597 237.966 114.823 237.799 115.13C237.633 115.437 237.549 115.81 237.549 116.25C237.549 116.697 237.629 117.073 237.789 117.38C237.956 117.687 238.176 117.917 238.449 118.07C238.723 118.217 239.023 118.29 239.349 118.29ZM246.026 113.42C246.693 113.42 247.233 113.623 247.646 114.03C248.059 114.43 248.266 115.01 248.266 115.77V119H247.366V115.9C247.366 115.353 247.229 114.937 246.956 114.65C246.683 114.357 246.309 114.21 245.836 114.21C245.356 114.21 244.973 114.36 244.686 114.66C244.406 114.96 244.266 115.397 244.266 115.97V119H243.356V113.52H244.266V114.3C244.446 114.02 244.689 113.803 244.996 113.65C245.309 113.497 245.653 113.42 246.026 113.42ZM250.862 114.27V117.5C250.862 117.767 250.919 117.957 251.032 118.07C251.146 118.177 251.342 118.23 251.622 118.23H252.292V119H251.472C250.966 119 250.586 118.883 250.332 118.65C250.079 118.417 249.952 118.033 249.952 117.5V114.27H249.242V113.52H249.952V112.14H250.862V113.52H252.292V114.27H250.862ZM256.115 113.42C256.528 113.42 256.902 113.51 257.235 113.69C257.568 113.863 257.828 114.127 258.015 114.48C258.208 114.833 258.305 115.263 258.305 115.77V119H257.405V115.9C257.405 115.353 257.268 114.937 256.995 114.65C256.722 114.357 256.348 114.21 255.875 114.21C255.395 114.21 255.012 114.36 254.725 114.66C254.445 114.96 254.305 115.397 254.305 115.97V119H253.395V111.6H254.305V114.3C254.485 114.02 254.732 113.803 255.045 113.65C255.365 113.497 255.722 113.42 256.115 113.42Z" fill="white"/>
<rect x="302" y="59" width="38" height="38" rx="19" fill="#E2FF70"/>
<path fill-rule="evenodd" clip-rule="evenodd" d="M331.497 70.8074C331.82 71.13 331.82 71.653 331.497 71.9756L321.584 81.8887C321.261 82.2113 320.738 82.2113 320.416 81.8887L316.87 78.3424L310.019 85.193C309.696 85.5156 309.173 85.5156 308.851 85.193C308.528 84.8704 308.528 84.3474 308.851 84.0248L316.285 76.59C316.608 76.2674 317.131 76.2674 317.454 76.59L321 80.1363L330.329 70.8074C330.651 70.4848 331.175 70.4848 331.497 70.8074Z" fill="#212429"/>
<path fill-rule="evenodd" clip-rule="evenodd" d="M323.478 71.3915C323.478 70.9353 323.848 70.5654 324.304 70.5654H330.913C331.369 70.5654 331.739 70.9353 331.739 71.3915V78.0002C331.739 78.4564 331.369 78.8263 330.913 78.8263C330.457 78.8263 330.087 78.4564 330.087 78.0002V72.2176H324.304C323.848 72.2176 323.478 71.8478 323.478 71.3915Z" fill="#212429"/>
<path d="M54.544 162.951H53.392V151.495H54.56L60.864 161.031V151.495H62V162.951H60.864L54.544 153.415V162.951ZM67.8063 163.143C65.5343 163.143 64.0143 161.511 64.0143 159.079C64.0143 156.663 65.5182 154.999 67.7263 154.999C69.8223 154.999 71.2463 156.487 71.2463 158.679V159.223H65.0863C65.1663 161.111 66.1583 162.199 67.8223 162.199C69.0863 162.199 69.9023 161.655 70.1903 160.631H71.2463C70.8303 162.263 69.6303 163.143 67.8063 163.143ZM67.7263 155.943C66.2703 155.943 65.3103 156.903 65.1183 158.423H70.1423C70.1423 156.935 69.1823 155.943 67.7263 155.943ZM74.4403 162.951L71.8803 155.207H73.0163L74.5363 159.879C74.7123 160.391 74.8563 160.919 75.0163 161.543C75.1443 160.919 75.4003 160.135 75.4803 159.879L77.0163 155.207H78.1523L79.6723 159.879C79.8163 160.295 80.0083 160.967 80.1523 161.543C80.3123 160.903 80.3443 160.711 80.6163 159.879L82.1523 155.207H83.3043L80.6803 162.951H79.6083L78.0083 158.087C77.8163 157.511 77.6883 157.031 77.5923 156.567C77.4803 156.983 77.3523 157.447 77.1443 158.087L75.5443 162.951H74.4403ZM88.5768 159.095C88.5768 156.663 90.0648 154.999 92.3208 154.999C94.1128 154.999 95.4248 156.039 95.7288 157.639H94.6248C94.3368 156.567 93.4088 155.975 92.3368 155.975C90.7688 155.975 89.6648 157.175 89.6648 159.079C89.6648 160.919 90.6888 162.151 92.2568 162.151C93.4088 162.151 94.3368 161.511 94.6408 160.519H95.7608C95.3928 162.103 94.0168 163.143 92.2568 163.143C90.0648 163.143 88.5768 161.527 88.5768 159.095ZM98.5853 162.951H97.4813V151.287H98.5853V162.951ZM101.477 153.079C101.029 153.079 100.661 152.711 100.661 152.263C100.661 151.815 101.029 151.431 101.477 151.431C101.925 151.431 102.309 151.815 102.309 152.263C102.309 152.711 101.925 153.079 101.477 153.079ZM100.933 162.951V155.207H102.037V162.951H100.933ZM107.588 163.143C105.316 163.143 103.796 161.511 103.796 159.079C103.796 156.663 105.299 154.999 107.508 154.999C109.604 154.999 111.028 156.487 111.028 158.679V159.223H104.868C104.948 161.111 105.94 162.199 107.604 162.199C108.868 162.199 109.684 161.655 109.972 160.631H111.028C110.612 162.263 109.412 163.143 107.588 163.143ZM107.508 155.943C106.052 155.943 105.092 156.903 104.9 158.423H109.924C109.924 156.935 108.964 155.943 107.508 155.943ZM113.897 162.951H112.793V155.207H113.753L113.913 156.551C114.425 155.559 115.449 154.999 116.569 154.999C118.697 154.999 119.577 156.263 119.577 158.215V162.951H118.473V158.455C118.473 156.647 117.657 156.007 116.377 156.007C114.793 156.007 113.897 157.159 113.897 158.903V162.951ZM123.553 162.951H122.465V156.135H120.913V155.207H122.465V152.759H123.553V155.207H125.105V156.135H123.553V162.951ZM125.887 160.775H126.943C126.943 161.671 127.615 162.231 128.703 162.231C129.903 162.231 130.607 161.719 130.607 160.887C130.607 160.247 130.287 159.879 129.375 159.655L128.047 159.319C126.703 158.983 126.047 158.279 126.047 157.223C126.047 155.863 127.183 154.999 128.847 154.999C130.479 154.999 131.535 155.895 131.583 157.335H130.511C130.479 156.439 129.855 155.911 128.815 155.911C127.727 155.911 127.119 156.375 127.119 157.207C127.119 157.799 127.535 158.215 128.383 158.423L129.711 158.759C131.055 159.095 131.663 159.719 131.663 160.839C131.663 162.231 130.479 163.143 128.719 163.143C126.975 163.143 125.887 162.215 125.887 160.775Z" fill="white"/>
<path d="M53.08 177.451V173.581H60.31V195.451H55.99V177.451H53.08ZM65.7791 190.711C67.6991 189.111 69.2291 187.781 70.3691 186.721C71.5091 185.641 72.4591 184.521 73.2191 183.361C73.9791 182.201 74.3591 181.061 74.3591 179.941C74.3591 178.921 74.1191 178.121 73.6391 177.541C73.1591 176.961 72.4191 176.671 71.4191 176.671C70.4191 176.671 69.6491 177.011 69.1091 177.691C68.5691 178.351 68.2891 179.261 68.2691 180.421H64.1891C64.2691 178.021 64.9791 176.201 66.3191 174.961C67.6791 173.721 69.3991 173.101 71.4791 173.101C73.7591 173.101 75.5091 173.711 76.7291 174.931C77.9491 176.131 78.5591 177.721 78.5591 179.701C78.5591 181.261 78.1391 182.751 77.2991 184.171C76.4591 185.591 75.4991 186.831 74.4191 187.891C73.3391 188.931 71.9291 190.191 70.1891 191.671H79.0391V195.151H64.2191V192.031L65.7791 190.711ZM81.7457 179.341C81.8457 177.341 82.5457 175.801 83.8457 174.721C85.1657 173.621 86.8957 173.071 89.0357 173.071C90.4957 173.071 91.7457 173.331 92.7857 173.851C93.8257 174.351 94.6057 175.041 95.1257 175.921C95.6657 176.781 95.9357 177.761 95.9357 178.861C95.9357 180.121 95.6057 181.191 94.9457 182.071C94.3057 182.931 93.5357 183.511 92.6357 183.811V183.931C93.7957 184.291 94.6957 184.931 95.3357 185.851C95.9957 186.771 96.3257 187.951 96.3257 189.391C96.3257 190.591 96.0457 191.661 95.4857 192.601C94.9457 193.541 94.1357 194.281 93.0557 194.821C91.9957 195.341 90.7157 195.601 89.2157 195.601C86.9557 195.601 85.1157 195.031 83.6957 193.891C82.2757 192.751 81.5257 191.071 81.4457 188.851H85.5257C85.5657 189.831 85.8957 190.621 86.5157 191.221C87.1557 191.801 88.0257 192.091 89.1257 192.091C90.1457 192.091 90.9257 191.811 91.4657 191.251C92.0257 190.671 92.3057 189.931 92.3057 189.031C92.3057 187.831 91.9257 186.971 91.1657 186.451C90.4057 185.931 89.2257 185.671 87.6257 185.671H86.7557V182.221H87.6257C90.4657 182.221 91.8857 181.271 91.8857 179.371C91.8857 178.511 91.6257 177.841 91.1057 177.361C90.6057 176.881 89.8757 176.641 88.9157 176.641C87.9757 176.641 87.2457 176.901 86.7257 177.421C86.2257 177.921 85.9357 178.561 85.8557 179.341H81.7457Z" fill="white"/>
<path d="M52.43 216.461C52.43 215.781 52.5833 215.171 52.89 214.631C53.1967 214.085 53.6133 213.658 54.14 213.351C54.6733 213.045 55.2633 212.891 55.91 212.891C56.67 212.891 57.3333 213.075 57.9 213.441C58.4667 213.808 58.88 214.328 59.14 215.001H58.05C57.8567 214.581 57.5767 214.258 57.21 214.031C56.85 213.805 56.4167 213.691 55.91 213.691C55.4233 213.691 54.9867 213.805 54.6 214.031C54.2133 214.258 53.91 214.581 53.69 215.001C53.47 215.415 53.36 215.901 53.36 216.461C53.36 217.015 53.47 217.501 53.69 217.921C53.91 218.335 54.2133 218.655 54.6 218.881C54.9867 219.108 55.4233 219.221 55.91 219.221C56.4167 219.221 56.85 219.111 57.21 218.891C57.5767 218.665 57.8567 218.341 58.05 217.921H59.14C58.88 218.588 58.4667 219.105 57.9 219.471C57.3333 219.831 56.67 220.011 55.91 220.011C55.2633 220.011 54.6733 219.861 54.14 219.561C53.6133 219.255 53.1967 218.831 52.89 218.291C52.5833 217.751 52.43 217.141 52.43 216.461ZM65.3546 214.471V219.951H64.4446V219.141C64.2713 219.421 64.0279 219.641 63.7146 219.801C63.4079 219.955 63.0679 220.031 62.6946 220.031C62.2679 220.031 61.8846 219.945 61.5446 219.771C61.2046 219.591 60.9346 219.325 60.7346 218.971C60.5413 218.618 60.4446 218.188 60.4446 217.681V214.471H61.3446V217.561C61.3446 218.101 61.4813 218.518 61.7546 218.811C62.0279 219.098 62.4013 219.241 62.8746 219.241C63.3613 219.241 63.7446 219.091 64.0246 218.791C64.3046 218.491 64.4446 218.055 64.4446 217.481V214.471H65.3546ZM67.8011 215.361C67.9611 215.048 68.1878 214.805 68.4811 214.631C68.7811 214.458 69.1444 214.371 69.5711 214.371V215.311H69.3311C68.3111 215.311 67.8011 215.865 67.8011 216.971V219.951H66.8911V214.471H67.8011V215.361ZM71.5316 215.361C71.6916 215.048 71.9182 214.805 72.2116 214.631C72.5116 214.458 72.8749 214.371 73.3016 214.371V215.311H73.0616C72.0416 215.311 71.5316 215.865 71.5316 216.971V219.951H70.6216V214.471H71.5316V215.361ZM79.352 217.001C79.352 217.175 79.342 217.358 79.322 217.551H74.942C74.9754 218.091 75.1587 218.515 75.492 218.821C75.832 219.121 76.242 219.271 76.722 219.271C77.1154 219.271 77.442 219.181 77.702 219.001C77.9687 218.815 78.1554 218.568 78.262 218.261H79.242C79.0954 218.788 78.802 219.218 78.362 219.551C77.922 219.878 77.3754 220.041 76.722 220.041C76.202 220.041 75.7354 219.925 75.322 219.691C74.9154 219.458 74.5954 219.128 74.362 218.701C74.1287 218.268 74.012 217.768 74.012 217.201C74.012 216.635 74.1254 216.138 74.352 215.711C74.5787 215.285 74.8954 214.958 75.302 214.731C75.7154 214.498 76.1887 214.381 76.722 214.381C77.242 214.381 77.702 214.495 78.102 214.721C78.502 214.948 78.8087 215.261 79.022 215.661C79.242 216.055 79.352 216.501 79.352 217.001ZM78.412 216.811C78.412 216.465 78.3354 216.168 78.182 215.921C78.0287 215.668 77.8187 215.478 77.552 215.351C77.292 215.218 77.002 215.151 76.682 215.151C76.222 215.151 75.8287 215.298 75.502 215.591C75.182 215.885 74.9987 216.291 74.952 216.811H78.412ZM83.2232 214.371C83.8899 214.371 84.4299 214.575 84.8432 214.981C85.2565 215.381 85.4632 215.961 85.4632 216.721V219.951H84.5632V216.851C84.5632 216.305 84.4265 215.888 84.1532 215.601C83.8799 215.308 83.5065 215.161 83.0332 215.161C82.5532 215.161 82.1699 215.311 81.8832 215.611C81.6032 215.911 81.4632 216.348 81.4632 216.921V219.951H80.5532V214.471H81.4632V215.251C81.6432 214.971 81.8865 214.755 82.1932 214.601C82.5065 214.448 82.8499 214.371 83.2232 214.371ZM88.0597 215.221V218.451C88.0597 218.718 88.1164 218.908 88.2297 219.021C88.343 219.128 88.5397 219.181 88.8197 219.181H89.4897V219.951H88.6697C88.163 219.951 87.783 219.835 87.5297 219.601C87.2764 219.368 87.1497 218.985 87.1497 218.451V215.221H86.4397V214.471H87.1497V213.091H88.0597V214.471H89.4897V215.221H88.0597ZM99.8483 214.371C100.275 214.371 100.655 214.461 100.988 214.641C101.322 214.815 101.585 215.078 101.778 215.431C101.972 215.785 102.068 216.215 102.068 216.721V219.951H101.168V216.851C101.168 216.305 101.032 215.888 100.758 215.601C100.492 215.308 100.128 215.161 99.6683 215.161C99.1949 215.161 98.8183 215.315 98.5383 215.621C98.2583 215.921 98.1183 216.358 98.1183 216.931V219.951H97.2183V216.851C97.2183 216.305 97.0816 215.888 96.8083 215.601C96.5416 215.308 96.1783 215.161 95.7183 215.161C95.2449 215.161 94.8683 215.315 94.5883 215.621C94.3083 215.921 94.1683 216.358 94.1683 216.931V219.951H93.2583V214.471H94.1683V215.261C94.3483 214.975 94.5883 214.755 94.8883 214.601C95.1949 214.448 95.5316 214.371 95.8983 214.371C96.3583 214.371 96.7649 214.475 97.1183 214.681C97.4716 214.888 97.7349 215.191 97.9083 215.591C98.0616 215.205 98.3149 214.905 98.6683 214.691C99.0216 214.478 99.4149 214.371 99.8483 214.371ZM105.951 220.041C105.438 220.041 104.971 219.925 104.551 219.691C104.138 219.458 103.811 219.128 103.571 218.701C103.338 218.268 103.221 217.768 103.221 217.201C103.221 216.641 103.341 216.148 103.581 215.721C103.828 215.288 104.161 214.958 104.581 214.731C105.001 214.498 105.471 214.381 105.991 214.381C106.511 214.381 106.981 214.498 107.401 214.731C107.821 214.958 108.151 215.285 108.391 215.711C108.638 216.138 108.761 216.635 108.761 217.201C108.761 217.768 108.634 218.268 108.381 218.701C108.134 219.128 107.798 219.458 107.371 219.691C106.944 219.925 106.471 220.041 105.951 220.041ZM105.951 219.241C106.278 219.241 106.584 219.165 106.871 219.011C107.158 218.858 107.388 218.628 107.561 218.321C107.741 218.015 107.831 217.641 107.831 217.201C107.831 216.761 107.744 216.388 107.571 216.081C107.398 215.775 107.171 215.548 106.891 215.401C106.611 215.248 106.308 215.171 105.981 215.171C105.648 215.171 105.341 215.248 105.061 215.401C104.788 215.548 104.568 215.775 104.401 216.081C104.234 216.388 104.151 216.761 104.151 217.201C104.151 217.648 104.231 218.025 104.391 218.331C104.558 218.638 104.778 218.868 105.051 219.021C105.324 219.168 105.624 219.241 105.951 219.241ZM112.628 214.371C113.294 214.371 113.834 214.575 114.248 214.981C114.661 215.381 114.868 215.961 114.868 216.721V219.951H113.968V216.851C113.968 216.305 113.831 215.888 113.558 215.601C113.284 215.308 112.911 215.161 112.438 215.161C111.958 215.161 111.574 215.311 111.288 215.611C111.008 215.911 110.868 216.348 110.868 216.921V219.951H109.958V214.471H110.868V215.251C111.048 214.971 111.291 214.755 111.598 214.601C111.911 214.448 112.254 214.371 112.628 214.371ZM117.464 215.221V218.451C117.464 218.718 117.521 218.908 117.634 219.021C117.747 219.128 117.944 219.181 118.224 219.181H118.894V219.951H118.074C117.567 219.951 117.187 219.835 116.934 219.601C116.681 219.368 116.554 218.985 116.554 218.451V215.221H115.844V214.471H116.554V213.091H117.464V214.471H118.894V215.221H117.464ZM122.717 214.371C123.13 214.371 123.503 214.461 123.837 214.641C124.17 214.815 124.43 215.078 124.617 215.431C124.81 215.785 124.907 216.215 124.907 216.721V219.951H124.007V216.851C124.007 216.305 123.87 215.888 123.597 215.601C123.323 215.308 122.95 215.161 122.477 215.161C121.997 215.161 121.613 215.311 121.327 215.611C121.047 215.911 120.907 216.348 120.907 216.921V219.951H119.997V212.551H120.907V215.251C121.087 214.971 121.333 214.755 121.647 214.601C121.967 214.448 122.323 214.371 122.717 214.371Z" fill="white"/>
<path d="M204.588 175.061V176.213H199.656V175.061H204.588ZM211.992 172.409H207.972V174.797C208.14 174.573 208.388 174.385 208.716 174.233C209.052 174.081 209.408 174.005 209.784 174.005C210.456 174.005 211 174.149 211.416 174.437C211.84 174.725 212.14 175.089 212.316 175.529C212.5 175.969 212.592 176.433 212.592 176.921C212.592 177.513 212.476 178.041 212.244 178.505C212.02 178.961 211.68 179.321 211.224 179.585C210.776 179.849 210.224 179.981 209.568 179.981C208.696 179.981 207.996 179.765 207.468 179.333C206.94 178.901 206.624 178.329 206.52 177.617H207.852C207.94 177.993 208.136 178.293 208.44 178.517C208.744 178.733 209.124 178.841 209.58 178.841C210.148 178.841 210.572 178.669 210.852 178.325C211.14 177.981 211.284 177.525 211.284 176.957C211.284 176.381 211.14 175.941 210.852 175.637C210.564 175.325 210.14 175.169 209.58 175.169C209.188 175.169 208.856 175.269 208.584 175.469C208.32 175.661 208.128 175.925 208.008 176.261H206.712V171.209H211.992V172.409ZM213.8 173.345C213.8 172.761 213.968 172.305 214.304 171.977C214.648 171.641 215.088 171.473 215.624 171.473C216.16 171.473 216.596 171.641 216.932 171.977C217.276 172.305 217.448 172.761 217.448 173.345C217.448 173.929 217.276 174.389 216.932 174.725C216.596 175.061 216.16 175.229 215.624 175.229C215.088 175.229 214.648 175.061 214.304 174.725C213.968 174.389 213.8 173.929 213.8 173.345ZM221.12 171.629L216.332 179.981H214.988L219.776 171.629H221.12ZM215.624 172.301C215.12 172.301 214.868 172.649 214.868 173.345C214.868 174.049 215.12 174.401 215.624 174.401C215.864 174.401 216.048 174.317 216.176 174.149C216.312 173.973 216.38 173.705 216.38 173.345C216.38 172.649 216.128 172.301 215.624 172.301ZM218.684 178.253C218.684 177.669 218.852 177.213 219.188 176.885C219.532 176.549 219.972 176.381 220.508 176.381C221.036 176.381 221.468 176.549 221.804 176.885C222.148 177.213 222.32 177.669 222.32 178.253C222.32 178.837 222.148 179.297 221.804 179.633C221.468 179.969 221.036 180.137 220.508 180.137C219.972 180.137 219.532 179.969 219.188 179.633C218.852 179.297 218.684 178.837 218.684 178.253ZM220.496 177.209C219.992 177.209 219.74 177.557 219.74 178.253C219.74 178.949 219.992 179.297 220.496 179.297C221 179.297 221.252 178.949 221.252 178.253C221.252 177.557 221 177.209 220.496 177.209Z" fill="white"/>
<path d="M239 175.451C239 191.744 225.792 204.951 209.5 204.951C193.208 204.951 180 191.744 180 175.451C180 159.159 193.208 145.951 209.5 145.951C225.792 145.951 239 159.159 239 175.451ZM188.85 175.451C188.85 186.856 198.095 196.101 209.5 196.101C220.905 196.101 230.15 186.856 230.15 175.451C230.15 164.046 220.905 154.801 209.5 154.801C198.095 154.801 188.85 164.046 188.85 175.451Z" fill="white"/>
<path d="M209.5 200.526C209.5 202.97 207.508 204.985 205.092 204.62C202.734 204.264 200.423 203.622 198.211 202.706C194.632 201.223 191.38 199.05 188.64 196.311C185.901 193.571 183.728 190.319 182.246 186.74C181.329 184.528 180.688 182.217 180.331 179.86C179.966 177.443 181.981 175.451 184.425 175.451V175.451C186.869 175.451 188.803 177.454 189.322 179.842C189.583 181.04 189.95 182.216 190.422 183.354C191.46 185.859 192.981 188.135 194.898 190.053C196.816 191.97 199.092 193.492 201.598 194.529C202.736 195.001 203.911 195.368 205.109 195.629C207.497 196.149 209.5 198.082 209.5 200.526V200.526Z" fill="#CC2929"/>
<path d="M184.71 213.506V214.246H181.68V216.596H184.14V217.336H181.68V220.476H180.77V213.506H184.71ZM186.719 215.886C186.879 215.572 187.106 215.329 187.399 215.156C187.699 214.982 188.062 214.896 188.489 214.896V215.836H188.249C187.229 215.836 186.719 216.389 186.719 217.496V220.476H185.809V214.996H186.719V215.886ZM191.93 220.566C191.416 220.566 190.95 220.449 190.53 220.216C190.116 219.982 189.79 219.652 189.55 219.226C189.316 218.792 189.2 218.292 189.2 217.726C189.2 217.166 189.32 216.672 189.56 216.246C189.806 215.812 190.14 215.482 190.56 215.256C190.98 215.022 191.45 214.906 191.97 214.906C192.49 214.906 192.96 215.022 193.38 215.256C193.8 215.482 194.13 215.809 194.37 216.236C194.616 216.662 194.74 217.159 194.74 217.726C194.74 218.292 194.613 218.792 194.36 219.226C194.113 219.652 193.776 219.982 193.35 220.216C192.923 220.449 192.45 220.566 191.93 220.566ZM191.93 219.766C192.256 219.766 192.563 219.689 192.85 219.536C193.136 219.382 193.366 219.152 193.54 218.846C193.72 218.539 193.81 218.166 193.81 217.726C193.81 217.286 193.723 216.912 193.55 216.606C193.376 216.299 193.15 216.072 192.87 215.926C192.59 215.772 192.286 215.696 191.96 215.696C191.626 215.696 191.32 215.772 191.04 215.926C190.766 216.072 190.546 216.299 190.38 216.606C190.213 216.912 190.13 217.286 190.13 217.726C190.13 218.172 190.21 218.549 190.37 218.856C190.536 219.162 190.756 219.392 191.03 219.546C191.303 219.692 191.603 219.766 191.93 219.766ZM202.526 214.896C202.953 214.896 203.333 214.986 203.666 215.166C203.999 215.339 204.263 215.602 204.456 215.956C204.649 216.309 204.746 216.739 204.746 217.246V220.476H203.846V217.376C203.846 216.829 203.709 216.412 203.436 216.126C203.169 215.832 202.806 215.686 202.346 215.686C201.873 215.686 201.496 215.839 201.216 216.146C200.936 216.446 200.796 216.882 200.796 217.456V220.476H199.896V217.376C199.896 216.829 199.759 216.412 199.486 216.126C199.219 215.832 198.856 215.686 198.396 215.686C197.923 215.686 197.546 215.839 197.266 216.146C196.986 216.446 196.846 216.882 196.846 217.456V220.476H195.936V214.996H196.846V215.786C197.026 215.499 197.266 215.279 197.566 215.126C197.873 214.972 198.209 214.896 198.576 214.896C199.036 214.896 199.443 214.999 199.796 215.206C200.149 215.412 200.413 215.716 200.586 216.116C200.739 215.729 200.993 215.429 201.346 215.216C201.699 215.002 202.093 214.896 202.526 214.896ZM209.815 213.076V220.476H208.905V213.076H209.815ZM211.026 217.716C211.026 217.156 211.139 216.666 211.366 216.246C211.592 215.819 211.902 215.489 212.296 215.256C212.696 215.022 213.139 214.906 213.626 214.906C214.106 214.906 214.522 215.009 214.876 215.216C215.229 215.422 215.492 215.682 215.666 215.996V214.996H216.586V220.476H215.666V219.456C215.486 219.776 215.216 220.042 214.856 220.256C214.502 220.462 214.089 220.566 213.616 220.566C213.129 220.566 212.689 220.446 212.296 220.206C211.902 219.966 211.592 219.629 211.366 219.196C211.139 218.762 211.026 218.269 211.026 217.716ZM215.666 217.726C215.666 217.312 215.582 216.952 215.416 216.646C215.249 216.339 215.022 216.106 214.736 215.946C214.456 215.779 214.146 215.696 213.806 215.696C213.466 215.696 213.156 215.776 212.876 215.936C212.596 216.096 212.372 216.329 212.206 216.636C212.039 216.942 211.956 217.302 211.956 217.716C211.956 218.136 212.039 218.502 212.206 218.816C212.372 219.122 212.596 219.359 212.876 219.526C213.156 219.686 213.466 219.766 213.806 219.766C214.146 219.766 214.456 219.686 214.736 219.526C215.022 219.359 215.249 219.122 215.416 218.816C215.582 218.502 215.666 218.139 215.666 217.726ZM220.064 220.566C219.644 220.566 219.267 220.496 218.934 220.356C218.6 220.209 218.337 220.009 218.144 219.756C217.95 219.496 217.844 219.199 217.824 218.866H218.764C218.79 219.139 218.917 219.362 219.144 219.536C219.377 219.709 219.68 219.796 220.054 219.796C220.4 219.796 220.674 219.719 220.874 219.566C221.074 219.412 221.174 219.219 221.174 218.986C221.174 218.746 221.067 218.569 220.854 218.456C220.64 218.336 220.31 218.219 219.864 218.106C219.457 217.999 219.124 217.892 218.864 217.786C218.61 217.672 218.39 217.509 218.204 217.296C218.024 217.076 217.934 216.789 217.934 216.436C217.934 216.156 218.017 215.899 218.184 215.666C218.35 215.432 218.587 215.249 218.894 215.116C219.2 214.976 219.55 214.906 219.944 214.906C220.55 214.906 221.04 215.059 221.414 215.366C221.787 215.672 221.987 216.092 222.014 216.626H221.104C221.084 216.339 220.967 216.109 220.754 215.936C220.547 215.762 220.267 215.676 219.914 215.676C219.587 215.676 219.327 215.746 219.134 215.886C218.94 216.026 218.844 216.209 218.844 216.436C218.844 216.616 218.9 216.766 219.014 216.886C219.134 216.999 219.28 217.092 219.454 217.166C219.634 217.232 219.88 217.309 220.194 217.396C220.587 217.502 220.907 217.609 221.154 217.716C221.4 217.816 221.61 217.969 221.784 218.176C221.964 218.382 222.057 218.652 222.064 218.986C222.064 219.286 221.98 219.556 221.814 219.796C221.647 220.036 221.41 220.226 221.104 220.366C220.804 220.499 220.457 220.566 220.064 220.566ZM224.458 215.746V218.976C224.458 219.242 224.515 219.432 224.628 219.546C224.741 219.652 224.938 219.706 225.218 219.706H225.888V220.476H225.068C224.561 220.476 224.181 220.359 223.928 220.126C223.675 219.892 223.548 219.509 223.548 218.976V215.746H222.838V214.996H223.548V213.616H224.458V214.996H225.888V215.746H224.458ZM236.247 214.896C236.673 214.896 237.053 214.986 237.387 215.166C237.72 215.339 237.983 215.602 238.177 215.956C238.37 216.309 238.467 216.739 238.467 217.246V220.476H237.567V217.376C237.567 216.829 237.43 216.412 237.157 216.126C236.89 215.832 236.527 215.686 236.067 215.686C235.593 215.686 235.217 215.839 234.937 216.146C234.657 216.446 234.517 216.882 234.517 217.456V220.476H233.617V217.376C233.617 216.829 233.48 216.412 233.207 216.126C232.94 215.832 232.577 215.686 232.117 215.686C231.643 215.686 231.267 215.839 230.987 216.146C230.707 216.446 230.567 216.882 230.567 217.456V220.476H229.657V214.996H230.567V215.786C230.747 215.499 230.987 215.279 231.287 215.126C231.593 214.972 231.93 214.896 232.297 214.896C232.757 214.896 233.163 214.999 233.517 215.206C233.87 215.412 234.133 215.716 234.307 216.116C234.46 215.729 234.713 215.429 235.067 215.216C235.42 215.002 235.813 214.896 236.247 214.896ZM242.349 220.566C241.836 220.566 241.369 220.449 240.949 220.216C240.536 219.982 240.209 219.652 239.969 219.226C239.736 218.792 239.619 218.292 239.619 217.726C239.619 217.166 239.739 216.672 239.979 216.246C240.226 215.812 240.559 215.482 240.979 215.256C241.399 215.022 241.869 214.906 242.389 214.906C242.909 214.906 243.379 215.022 243.799 215.256C244.219 215.482 244.549 215.809 244.789 216.236C245.036 216.662 245.159 217.159 245.159 217.726C245.159 218.292 245.033 218.792 244.779 219.226C244.533 219.652 244.196 219.982 243.769 220.216C243.343 220.449 242.869 220.566 242.349 220.566ZM242.349 219.766C242.676 219.766 242.983 219.689 243.269 219.536C243.556 219.382 243.786 219.152 243.959 218.846C244.139 218.539 244.229 218.166 244.229 217.726C244.229 217.286 244.143 216.912 243.969 216.606C243.796 216.299 243.569 216.072 243.289 215.926C243.009 215.772 242.706 215.696 242.379 215.696C242.046 215.696 241.739 215.772 241.459 215.926C241.186 216.072 240.966 216.299 240.799 216.606C240.633 216.912 240.549 217.286 240.549 217.726C240.549 218.172 240.629 218.549 240.789 218.856C240.956 219.162 241.176 219.392 241.449 219.546C241.723 219.692 242.023 219.766 242.349 219.766ZM249.026 214.896C249.693 214.896 250.233 215.099 250.646 215.506C251.059 215.906 251.266 216.486 251.266 217.246V220.476H250.366V217.376C250.366 216.829 250.229 216.412 249.956 216.126C249.683 215.832 249.309 215.686 248.836 215.686C248.356 215.686 247.973 215.836 247.686 216.136C247.406 216.436 247.266 216.872 247.266 217.446V220.476H246.356V214.996H247.266V215.776C247.446 215.496 247.689 215.279 247.996 215.126C248.309 214.972 248.653 214.896 249.026 214.896ZM253.862 215.746V218.976C253.862 219.242 253.919 219.432 254.032 219.546C254.146 219.652 254.342 219.706 254.622 219.706H255.292V220.476H254.472C253.966 220.476 253.586 220.359 253.332 220.126C253.079 219.892 252.952 219.509 252.952 218.976V215.746H252.242V214.996H252.952V213.616H253.862V214.996H255.292V215.746H253.862ZM259.115 214.896C259.528 214.896 259.902 214.986 260.235 215.166C260.568 215.339 260.828 215.602 261.015 215.956C261.208 216.309 261.305 216.739 261.305 217.246V220.476H260.405V217.376C260.405 216.829 260.268 216.412 259.995 216.126C259.722 215.832 259.348 215.686 258.875 215.686C258.395 215.686 258.012 215.836 257.725 216.136C257.445 216.436 257.305 216.872 257.305 217.446V220.476H256.395V213.076H257.305V215.776C257.485 215.496 257.732 215.279 258.045 215.126C258.365 214.972 258.722 214.896 259.115 214.896Z" fill="white"/>
<rect x="303" y="168.951" width="38" height="38" rx="19" fill="#CC2929"/>
<path fill-rule="evenodd" clip-rule="evenodd" d="M311.791 180.649C312.096 180.344 312.591 180.344 312.896 180.649L319.375 187.128L322.729 183.774C323.034 183.469 323.529 183.469 323.834 183.774L333.209 193.149C333.514 193.454 333.514 193.949 333.209 194.254C332.904 194.559 332.409 194.559 332.104 194.254L323.281 185.431L319.927 188.785C319.622 189.09 319.128 189.09 318.823 188.785L311.791 181.754C311.486 181.449 311.486 180.954 311.791 180.649Z" fill="white"/>
<path fill-rule="evenodd" clip-rule="evenodd" d="M332.656 186.67C333.088 186.67 333.438 187.02 333.438 187.451V193.701C333.438 194.133 333.088 194.482 332.656 194.482H326.406C325.975 194.482 325.625 194.133 325.625 193.701C325.625 193.27 325.975 192.92 326.406 192.92H331.875V187.451C331.875 187.02 332.225 186.67 332.656 186.67Z" fill="white"/>
</svg>
