<svg width="425" height="390" viewBox="0 0 425 390" fill="none" xmlns="http://www.w3.org/2000/svg">
<rect width="425" height="389" rx="24" fill="url(#paint0_linear_4866_3561)"/>
<path d="M51.557 78.225H57.307V81H48.057V63.55H51.557V78.225ZM58.6316 74.025C58.6316 72.625 58.9066 71.3833 59.4566 70.3C60.0233 69.2167 60.7816 68.3833 61.7316 67.8C62.6983 67.2167 63.7733 66.925 64.9566 66.925C65.99 66.925 66.89 67.1333 67.6566 67.55C68.44 67.9667 69.065 68.4917 69.5316 69.125V67.15H73.0566V81H69.5316V78.975C69.0816 79.625 68.4566 80.1667 67.6566 80.6C66.8733 81.0167 65.965 81.225 64.9316 81.225C63.765 81.225 62.6983 80.925 61.7316 80.325C60.7816 79.725 60.0233 78.8833 59.4566 77.8C58.9066 76.7 58.6316 75.4417 58.6316 74.025ZM69.5316 74.075C69.5316 73.225 69.365 72.5 69.0316 71.9C68.6983 71.2833 68.2483 70.8167 67.6816 70.5C67.115 70.1667 66.5066 70 65.8566 70C65.2066 70 64.6066 70.1583 64.0566 70.475C63.5066 70.7917 63.0566 71.2583 62.7066 71.875C62.3733 72.475 62.2066 73.1917 62.2066 74.025C62.2066 74.8583 62.3733 75.5917 62.7066 76.225C63.0566 76.8417 63.5066 77.3167 64.0566 77.65C64.6233 77.9833 65.2233 78.15 65.8566 78.15C66.5066 78.15 67.115 77.9917 67.6816 77.675C68.2483 77.3417 68.6983 76.875 69.0316 76.275C69.365 75.6583 69.5316 74.925 69.5316 74.075ZM84.15 66.95C85.8 66.95 87.1333 67.475 88.15 68.525C89.1667 69.5583 89.675 71.0083 89.675 72.875V81H86.175V73.35C86.175 72.25 85.9 71.4083 85.35 70.825C84.8 70.225 84.05 69.925 83.1 69.925C82.1333 69.925 81.3667 70.225 80.8 70.825C80.25 71.4083 79.975 72.25 79.975 73.35V81H76.475V67.15H79.975V68.875C80.4417 68.275 81.0333 67.8083 81.75 67.475C82.4833 67.125 83.2833 66.95 84.15 66.95ZM98.4283 66.925C99.4617 66.925 100.37 67.1333 101.153 67.55C101.937 67.95 102.553 68.475 103.003 69.125V67.15H106.528V81.1C106.528 82.3833 106.27 83.525 105.753 84.525C105.237 85.5417 104.462 86.3417 103.428 86.925C102.395 87.525 101.145 87.825 99.6783 87.825C97.7117 87.825 96.095 87.3667 94.8283 86.45C93.5783 85.5333 92.87 84.2833 92.7033 82.7H96.1783C96.3617 83.3333 96.7533 83.8333 97.3533 84.2C97.97 84.5833 98.7117 84.775 99.5783 84.775C100.595 84.775 101.42 84.4667 102.053 83.85C102.687 83.25 103.003 82.3333 103.003 81.1V78.95C102.553 79.6 101.928 80.1417 101.128 80.575C100.345 81.0083 99.445 81.225 98.4283 81.225C97.2617 81.225 96.195 80.925 95.2283 80.325C94.2617 79.725 93.495 78.8833 92.9283 77.8C92.3783 76.7 92.1033 75.4417 92.1033 74.025C92.1033 72.625 92.3783 71.3833 92.9283 70.3C93.495 69.2167 94.2533 68.3833 95.2033 67.8C96.17 67.2167 97.245 66.925 98.4283 66.925ZM103.003 74.075C103.003 73.225 102.837 72.5 102.503 71.9C102.17 71.2833 101.72 70.8167 101.153 70.5C100.587 70.1667 99.9783 70 99.3283 70C98.6783 70 98.0783 70.1583 97.5283 70.475C96.9783 70.7917 96.5283 71.2583 96.1783 71.875C95.845 72.475 95.6783 73.1917 95.6783 74.025C95.6783 74.8583 95.845 75.5917 96.1783 76.225C96.5283 76.8417 96.9783 77.3167 97.5283 77.65C98.095 77.9833 98.695 78.15 99.3283 78.15C99.9783 78.15 100.587 77.9917 101.153 77.675C101.72 77.3417 102.17 76.875 102.503 76.275C102.837 75.6583 103.003 74.925 103.003 74.075ZM109.047 74.025C109.047 72.625 109.322 71.3833 109.872 70.3C110.438 69.2167 111.197 68.3833 112.147 67.8C113.113 67.2167 114.188 66.925 115.372 66.925C116.405 66.925 117.305 67.1333 118.072 67.55C118.855 67.9667 119.48 68.4917 119.947 69.125V67.15H123.472V81H119.947V78.975C119.497 79.625 118.872 80.1667 118.072 80.6C117.288 81.0167 116.38 81.225 115.347 81.225C114.18 81.225 113.113 80.925 112.147 80.325C111.197 79.725 110.438 78.8833 109.872 77.8C109.322 76.7 109.047 75.4417 109.047 74.025ZM119.947 74.075C119.947 73.225 119.78 72.5 119.447 71.9C119.113 71.2833 118.663 70.8167 118.097 70.5C117.53 70.1667 116.922 70 116.272 70C115.622 70 115.022 70.1583 114.472 70.475C113.922 70.7917 113.472 71.2583 113.122 71.875C112.788 72.475 112.622 73.1917 112.622 74.025C112.622 74.8583 112.788 75.5917 113.122 76.225C113.472 76.8417 113.922 77.3167 114.472 77.65C115.038 77.9833 115.638 78.15 116.272 78.15C116.922 78.15 117.53 77.9917 118.097 77.675C118.663 77.3417 119.113 76.875 119.447 76.275C119.78 75.6583 119.947 74.925 119.947 74.075ZM130.39 69.3C130.84 68.5667 131.423 67.9917 132.14 67.575C132.873 67.1583 133.707 66.95 134.64 66.95V70.625H133.715C132.615 70.625 131.782 70.8833 131.215 71.4C130.665 71.9167 130.39 72.8167 130.39 74.1V81H126.89V67.15H130.39V69.3ZM136.097 74.025C136.097 72.625 136.372 71.3833 136.922 70.3C137.489 69.2167 138.247 68.3833 139.197 67.8C140.164 67.2167 141.239 66.925 142.422 66.925C143.456 66.925 144.356 67.1333 145.122 67.55C145.906 67.9667 146.531 68.4917 146.997 69.125V67.15H150.522V81H146.997V78.975C146.547 79.625 145.922 80.1667 145.122 80.6C144.339 81.0167 143.431 81.225 142.397 81.225C141.231 81.225 140.164 80.925 139.197 80.325C138.247 79.725 137.489 78.8833 136.922 77.8C136.372 76.7 136.097 75.4417 136.097 74.025ZM146.997 74.075C146.997 73.225 146.831 72.5 146.497 71.9C146.164 71.2833 145.714 70.8167 145.147 70.5C144.581 70.1667 143.972 70 143.322 70C142.672 70 142.072 70.1583 141.522 70.475C140.972 70.7917 140.522 71.2583 140.172 71.875C139.839 72.475 139.672 73.1917 139.672 74.025C139.672 74.8583 139.839 75.5917 140.172 76.225C140.522 76.8417 140.972 77.3167 141.522 77.65C142.089 77.9833 142.689 78.15 143.322 78.15C143.972 78.15 144.581 77.9917 145.147 77.675C145.714 77.3417 146.164 76.875 146.497 76.275C146.831 75.6583 146.997 74.925 146.997 74.075ZM170.598 77.675H163.648L162.498 81H158.823L165.098 63.525H169.173L175.448 81H171.748L170.598 77.675ZM169.648 74.875L167.123 67.575L164.598 74.875H169.648ZM176.893 74.025C176.893 72.625 177.168 71.3833 177.718 70.3C178.285 69.2167 179.052 68.3833 180.018 67.8C180.985 67.2167 182.06 66.925 183.243 66.925C184.143 66.925 185.002 67.125 185.818 67.525C186.635 67.9083 187.285 68.425 187.768 69.075V62.5H191.318V81H187.768V78.95C187.335 79.6333 186.727 80.1833 185.943 80.6C185.16 81.0167 184.252 81.225 183.218 81.225C182.052 81.225 180.985 80.925 180.018 80.325C179.052 79.725 178.285 78.8833 177.718 77.8C177.168 76.7 176.893 75.4417 176.893 74.025ZM187.793 74.075C187.793 73.225 187.627 72.5 187.293 71.9C186.96 71.2833 186.51 70.8167 185.943 70.5C185.377 70.1667 184.768 70 184.118 70C183.468 70 182.868 70.1583 182.318 70.475C181.768 70.7917 181.318 71.2583 180.968 71.875C180.635 72.475 180.468 73.1917 180.468 74.025C180.468 74.8583 180.635 75.5917 180.968 76.225C181.318 76.8417 181.768 77.3167 182.318 77.65C182.885 77.9833 183.485 78.15 184.118 78.15C184.768 78.15 185.377 77.9917 185.943 77.675C186.51 77.3417 186.96 76.875 187.293 76.275C187.627 75.6583 187.793 74.925 187.793 74.075ZM200.512 77.775L204.012 67.15H207.737L202.612 81H198.362L193.262 67.15H197.012L200.512 77.775ZM222.578 73.775C222.578 74.275 222.544 74.725 222.478 75.125H212.353C212.436 76.125 212.786 76.9083 213.403 77.475C214.019 78.0417 214.778 78.325 215.678 78.325C216.978 78.325 217.903 77.7667 218.453 76.65H222.228C221.828 77.9833 221.061 79.0833 219.928 79.95C218.794 80.8 217.403 81.225 215.753 81.225C214.419 81.225 213.219 80.9333 212.153 80.35C211.103 79.75 210.278 78.9083 209.678 77.825C209.094 76.7417 208.803 75.4917 208.803 74.075C208.803 72.6417 209.094 71.3833 209.678 70.3C210.261 69.2167 211.078 68.3833 212.128 67.8C213.178 67.2167 214.386 66.925 215.753 66.925C217.069 66.925 218.244 67.2083 219.278 67.775C220.328 68.3417 221.136 69.15 221.703 70.2C222.286 71.2333 222.578 72.425 222.578 73.775ZM218.953 72.775C218.936 71.875 218.611 71.1583 217.978 70.625C217.344 70.075 216.569 69.8 215.653 69.8C214.786 69.8 214.053 70.0667 213.453 70.6C212.869 71.1167 212.511 71.8417 212.378 72.775H218.953ZM228.632 69.3C229.082 68.5667 229.666 67.9917 230.382 67.575C231.116 67.1583 231.949 66.95 232.882 66.95V70.625H231.957C230.857 70.625 230.024 70.8833 229.457 71.4C228.907 71.9167 228.632 72.8167 228.632 74.1V81H225.132V67.15H228.632V69.3ZM239.315 70.025V76.725C239.315 77.1917 239.423 77.5333 239.64 77.75C239.873 77.95 240.256 78.05 240.79 78.05H242.415V81H240.215C237.265 81 235.79 79.5667 235.79 76.7V70.025H234.14V67.15H235.79V63.725H239.315V67.15H242.415V70.025H239.315ZM246.707 65.5C246.09 65.5 245.574 65.3083 245.157 64.925C244.757 64.525 244.557 64.0333 244.557 63.45C244.557 62.8667 244.757 62.3833 245.157 62C245.574 61.6 246.09 61.4 246.707 61.4C247.324 61.4 247.832 61.6 248.232 62C248.649 62.3833 248.857 62.8667 248.857 63.45C248.857 64.0333 248.649 64.525 248.232 64.925C247.832 65.3083 247.324 65.5 246.707 65.5ZM248.432 67.15V81H244.932V67.15H248.432ZM257.19 81.225C256.057 81.225 255.04 81.025 254.14 80.625C253.24 80.2083 252.523 79.65 251.99 78.95C251.473 78.25 251.19 77.475 251.14 76.625H254.665C254.732 77.1583 254.99 77.6 255.44 77.95C255.907 78.3 256.482 78.475 257.165 78.475C257.832 78.475 258.348 78.3417 258.715 78.075C259.098 77.8083 259.29 77.4667 259.29 77.05C259.29 76.6 259.057 76.2667 258.59 76.05C258.14 75.8167 257.415 75.5667 256.415 75.3C255.382 75.05 254.532 74.7917 253.865 74.525C253.215 74.2583 252.648 73.85 252.165 73.3C251.698 72.75 251.465 72.0083 251.465 71.075C251.465 70.3083 251.682 69.6083 252.115 68.975C252.565 68.3417 253.198 67.8417 254.015 67.475C254.848 67.1083 255.823 66.925 256.94 66.925C258.59 66.925 259.907 67.3417 260.89 68.175C261.873 68.9917 262.415 70.1 262.515 71.5H259.165C259.115 70.95 258.882 70.5167 258.465 70.2C258.065 69.8667 257.523 69.7 256.84 69.7C256.207 69.7 255.715 69.8167 255.365 70.05C255.032 70.2833 254.865 70.6083 254.865 71.025C254.865 71.4917 255.098 71.85 255.565 72.1C256.032 72.3333 256.757 72.575 257.74 72.825C258.74 73.075 259.565 73.3333 260.215 73.6C260.865 73.8667 261.423 74.2833 261.89 74.85C262.373 75.4 262.623 76.1333 262.64 77.05C262.64 77.85 262.415 78.5667 261.965 79.2C261.532 79.8333 260.898 80.3333 260.065 80.7C259.248 81.05 258.29 81.225 257.19 81.225ZM278.388 73.775C278.388 74.275 278.355 74.725 278.288 75.125H268.163C268.246 76.125 268.596 76.9083 269.213 77.475C269.83 78.0417 270.588 78.325 271.488 78.325C272.788 78.325 273.713 77.7667 274.263 76.65H278.038C277.638 77.9833 276.871 79.0833 275.738 79.95C274.605 80.8 273.213 81.225 271.563 81.225C270.23 81.225 269.03 80.9333 267.963 80.35C266.913 79.75 266.088 78.9083 265.488 77.825C264.905 76.7417 264.613 75.4917 264.613 74.075C264.613 72.6417 264.905 71.3833 265.488 70.3C266.071 69.2167 266.888 68.3833 267.938 67.8C268.988 67.2167 270.196 66.925 271.563 66.925C272.88 66.925 274.055 67.2083 275.088 67.775C276.138 68.3417 276.946 69.15 277.513 70.2C278.096 71.2333 278.388 72.425 278.388 73.775ZM274.763 72.775C274.746 71.875 274.421 71.1583 273.788 70.625C273.155 70.075 272.38 69.8 271.463 69.8C270.596 69.8 269.863 70.0667 269.263 70.6C268.68 71.1167 268.321 71.8417 268.188 72.775H274.763ZM58.757 115.675H51.807L50.657 119H46.982L53.257 101.525H57.332L63.607 119H59.907L58.757 115.675ZM57.807 112.875L55.282 105.575L52.757 112.875H57.807ZM71.3775 104.925C72.4109 104.925 73.3192 105.133 74.1025 105.55C74.8859 105.95 75.5025 106.475 75.9525 107.125V105.15H79.4775V119.1C79.4775 120.383 79.2192 121.525 78.7025 122.525C78.1859 123.542 77.4109 124.342 76.3775 124.925C75.3442 125.525 74.0942 125.825 72.6275 125.825C70.6609 125.825 69.0442 125.367 67.7775 124.45C66.5275 123.533 65.8192 122.283 65.6525 120.7H69.1275C69.3109 121.333 69.7025 121.833 70.3025 122.2C70.9192 122.583 71.6609 122.775 72.5275 122.775C73.5442 122.775 74.3692 122.467 75.0025 121.85C75.6359 121.25 75.9525 120.333 75.9525 119.1V116.95C75.5025 117.6 74.8775 118.142 74.0775 118.575C73.2942 119.008 72.3942 119.225 71.3775 119.225C70.2109 119.225 69.1442 118.925 68.1775 118.325C67.2109 117.725 66.4442 116.883 65.8775 115.8C65.3275 114.7 65.0525 113.442 65.0525 112.025C65.0525 110.625 65.3275 109.383 65.8775 108.3C66.4442 107.217 67.2025 106.383 68.1525 105.8C69.1192 105.217 70.1942 104.925 71.3775 104.925ZM75.9525 112.075C75.9525 111.225 75.7859 110.5 75.4525 109.9C75.1192 109.283 74.6692 108.817 74.1025 108.5C73.5359 108.167 72.9275 108 72.2775 108C71.6275 108 71.0275 108.158 70.4775 108.475C69.9275 108.792 69.4775 109.258 69.1275 109.875C68.7942 110.475 68.6275 111.192 68.6275 112.025C68.6275 112.858 68.7942 113.592 69.1275 114.225C69.4775 114.842 69.9275 115.317 70.4775 115.65C71.0442 115.983 71.6442 116.15 72.2775 116.15C72.9275 116.15 73.5359 115.992 74.1025 115.675C74.6692 115.342 75.1192 114.875 75.4525 114.275C75.7859 113.658 75.9525 112.925 75.9525 112.075ZM95.7709 111.775C95.7709 112.275 95.7376 112.725 95.6709 113.125H85.5459C85.6292 114.125 85.9792 114.908 86.5959 115.475C87.2126 116.042 87.9709 116.325 88.8709 116.325C90.1709 116.325 91.0959 115.767 91.6459 114.65H95.4209C95.0209 115.983 94.2542 117.083 93.1209 117.95C91.9876 118.8 90.5959 119.225 88.9459 119.225C87.6126 119.225 86.4126 118.933 85.3459 118.35C84.2959 117.75 83.4709 116.908 82.8709 115.825C82.2876 114.742 81.9959 113.492 81.9959 112.075C81.9959 110.642 82.2876 109.383 82.8709 108.3C83.4542 107.217 84.2709 106.383 85.3209 105.8C86.3709 105.217 87.5792 104.925 88.9459 104.925C90.2626 104.925 91.4376 105.208 92.4709 105.775C93.5209 106.342 94.3292 107.15 94.8959 108.2C95.4792 109.233 95.7709 110.425 95.7709 111.775ZM92.1459 110.775C92.1292 109.875 91.8042 109.158 91.1709 108.625C90.5376 108.075 89.7626 107.8 88.8459 107.8C87.9792 107.8 87.2459 108.067 86.6459 108.6C86.0626 109.117 85.7042 109.842 85.5709 110.775H92.1459ZM106.001 104.95C107.651 104.95 108.984 105.475 110.001 106.525C111.017 107.558 111.526 109.008 111.526 110.875V119H108.026V111.35C108.026 110.25 107.751 109.408 107.201 108.825C106.651 108.225 105.901 107.925 104.951 107.925C103.984 107.925 103.217 108.225 102.651 108.825C102.101 109.408 101.826 110.25 101.826 111.35V119H98.3256V105.15H101.826V106.875C102.292 106.275 102.884 105.808 103.601 105.475C104.334 105.125 105.134 104.95 106.001 104.95ZM113.954 112.075C113.954 110.642 114.246 109.392 114.829 108.325C115.412 107.242 116.221 106.408 117.254 105.825C118.287 105.225 119.471 104.925 120.804 104.925C122.521 104.925 123.937 105.358 125.054 106.225C126.187 107.075 126.946 108.275 127.329 109.825H123.554C123.354 109.225 123.012 108.758 122.529 108.425C122.062 108.075 121.479 107.9 120.779 107.9C119.779 107.9 118.987 108.267 118.404 109C117.821 109.717 117.529 110.742 117.529 112.075C117.529 113.392 117.821 114.417 118.404 115.15C118.987 115.867 119.779 116.225 120.779 116.225C122.196 116.225 123.121 115.592 123.554 114.325H127.329C126.946 115.825 126.187 117.017 125.054 117.9C123.921 118.783 122.504 119.225 120.804 119.225C119.471 119.225 118.287 118.933 117.254 118.35C116.221 117.75 115.412 116.917 114.829 115.85C114.246 114.767 113.954 113.508 113.954 112.075ZM143.143 105.15L134.568 125.55H130.843L133.843 118.65L128.293 105.15H132.218L135.793 114.825L139.418 105.15H143.143Z" fill="#212429"/>
<path d="M49.924 164.416C49.924 163.328 50.1747 162.352 50.676 161.488C51.188 160.624 51.876 159.952 52.74 159.472C53.6147 158.981 54.5694 158.736 55.604 158.736C56.788 158.736 57.8387 159.029 58.756 159.616C59.684 160.192 60.356 161.013 60.772 162.08H58.58C58.292 161.493 57.892 161.056 57.38 160.768C56.868 160.48 56.276 160.336 55.604 160.336C54.868 160.336 54.212 160.501 53.636 160.832C53.06 161.163 52.6067 161.637 52.276 162.256C51.956 162.875 51.796 163.595 51.796 164.416C51.796 165.237 51.956 165.957 52.276 166.576C52.6067 167.195 53.06 167.675 53.636 168.016C54.212 168.347 54.868 168.512 55.604 168.512C56.276 168.512 56.868 168.368 57.38 168.08C57.892 167.792 58.292 167.355 58.58 166.768H60.772C60.356 167.835 59.684 168.656 58.756 169.232C57.8387 169.808 56.788 170.096 55.604 170.096C54.5587 170.096 53.604 169.856 52.74 169.376C51.876 168.885 51.188 168.208 50.676 167.344C50.1747 166.48 49.924 165.504 49.924 164.416ZM70.715 161.184V170H68.891V168.96C68.603 169.323 68.2244 169.611 67.755 169.824C67.2964 170.027 66.8057 170.128 66.283 170.128C65.5897 170.128 64.9657 169.984 64.411 169.696C63.867 169.408 63.435 168.981 63.115 168.416C62.8057 167.851 62.651 167.168 62.651 166.368V161.184H64.459V166.096C64.459 166.885 64.6564 167.493 65.051 167.92C65.4457 168.336 65.9844 168.544 66.667 168.544C67.3497 168.544 67.8884 168.336 68.283 167.92C68.6884 167.493 68.891 166.885 68.891 166.096V161.184H70.715ZM74.7697 162.464C75.0363 162.016 75.3883 161.669 75.8257 161.424C76.2737 161.168 76.8017 161.04 77.4097 161.04V162.928H76.9457C76.231 162.928 75.687 163.109 75.3137 163.472C74.951 163.835 74.7697 164.464 74.7697 165.36V170H72.9457V161.184H74.7697V162.464ZM80.7343 162.464C81.0009 162.016 81.3529 161.669 81.7903 161.424C82.2383 161.168 82.7663 161.04 83.3743 161.04V162.928H82.9103C82.1956 162.928 81.6516 163.109 81.2783 163.472C80.9156 163.835 80.7343 164.464 80.7343 165.36V170H78.9103V161.184H80.7343V162.464ZM92.9549 165.376C92.9549 165.707 92.9336 166.005 92.8909 166.272H86.1549C86.2082 166.976 86.4696 167.541 86.9389 167.968C87.4082 168.395 87.9842 168.608 88.6669 168.608C89.6482 168.608 90.3416 168.197 90.7469 167.376H92.7149C92.4482 168.187 91.9629 168.853 91.2589 169.376C90.5656 169.888 89.7016 170.144 88.6669 170.144C87.8242 170.144 87.0669 169.957 86.3949 169.584C85.7336 169.2 85.2109 168.667 84.8269 167.984C84.4536 167.291 84.2669 166.491 84.2669 165.584C84.2669 164.677 84.4482 163.883 84.8109 163.2C85.1842 162.507 85.7016 161.973 86.3629 161.6C87.0349 161.227 87.8029 161.04 88.6669 161.04C89.4989 161.04 90.2402 161.221 90.8909 161.584C91.5416 161.947 92.0482 162.459 92.4109 163.12C92.7736 163.771 92.9549 164.523 92.9549 165.376ZM91.0509 164.8C91.0402 164.128 90.8002 163.589 90.3309 163.184C89.8616 162.779 89.2802 162.576 88.5869 162.576C87.9576 162.576 87.4189 162.779 86.9709 163.184C86.5229 163.579 86.2562 164.117 86.1709 164.8H91.0509ZM99.0219 161.04C99.7152 161.04 100.334 161.184 100.878 161.472C101.433 161.76 101.865 162.187 102.174 162.752C102.483 163.317 102.638 164 102.638 164.8V170H100.83V165.072C100.83 164.283 100.633 163.68 100.238 163.264C99.8432 162.837 99.3046 162.624 98.6219 162.624C97.9392 162.624 97.3952 162.837 96.9899 163.264C96.5952 163.68 96.3979 164.283 96.3979 165.072V170H94.5739V161.184H96.3979V162.192C96.6966 161.829 97.0752 161.547 97.5339 161.344C98.0032 161.141 98.4992 161.04 99.0219 161.04ZM106.917 162.672V167.552C106.917 167.883 106.991 168.123 107.141 168.272C107.301 168.411 107.567 168.48 107.941 168.48H109.061V170H107.621C106.799 170 106.17 169.808 105.733 169.424C105.295 169.04 105.077 168.416 105.077 167.552V162.672H104.037V161.184H105.077V158.992H106.917V161.184H109.061V162.672H106.917ZM113.938 165.584C113.938 164.677 114.119 163.883 114.482 163.2C114.855 162.507 115.367 161.973 116.018 161.6C116.669 161.227 117.415 161.04 118.258 161.04C119.325 161.04 120.205 161.296 120.898 161.808C121.602 162.309 122.077 163.029 122.322 163.968H120.354C120.194 163.531 119.938 163.189 119.586 162.944C119.234 162.699 118.791 162.576 118.258 162.576C117.511 162.576 116.914 162.843 116.466 163.376C116.029 163.899 115.81 164.635 115.81 165.584C115.81 166.533 116.029 167.275 116.466 167.808C116.914 168.341 117.511 168.608 118.258 168.608C119.314 168.608 120.013 168.144 120.354 167.216H122.322C122.066 168.112 121.586 168.827 120.882 169.36C120.178 169.883 119.303 170.144 118.258 170.144C117.415 170.144 116.669 169.957 116.018 169.584C115.367 169.2 114.855 168.667 114.482 167.984C114.119 167.291 113.938 166.491 113.938 165.584ZM123.356 165.552C123.356 164.667 123.537 163.883 123.9 163.2C124.273 162.517 124.774 161.989 125.404 161.616C126.044 161.232 126.748 161.04 127.516 161.04C128.209 161.04 128.812 161.179 129.324 161.456C129.846 161.723 130.262 162.059 130.572 162.464V161.184H132.412V170H130.572V168.688C130.262 169.104 129.841 169.451 129.308 169.728C128.774 170.005 128.166 170.144 127.484 170.144C126.726 170.144 126.033 169.952 125.404 169.568C124.774 169.173 124.273 168.629 123.9 167.936C123.537 167.232 123.356 166.437 123.356 165.552ZM130.572 165.584C130.572 164.976 130.444 164.448 130.188 164C129.942 163.552 129.617 163.211 129.212 162.976C128.806 162.741 128.369 162.624 127.9 162.624C127.43 162.624 126.993 162.741 126.588 162.976C126.182 163.2 125.852 163.536 125.596 163.984C125.35 164.421 125.228 164.944 125.228 165.552C125.228 166.16 125.35 166.693 125.596 167.152C125.852 167.611 126.182 167.963 126.588 168.208C127.004 168.443 127.441 168.56 127.9 168.56C128.369 168.56 128.806 168.443 129.212 168.208C129.617 167.973 129.942 167.632 130.188 167.184C130.444 166.725 130.572 166.192 130.572 165.584ZM145.303 161.04C145.997 161.04 146.615 161.184 147.159 161.472C147.714 161.76 148.146 162.187 148.455 162.752C148.775 163.317 148.935 164 148.935 164.8V170H147.127V165.072C147.127 164.283 146.93 163.68 146.535 163.264C146.141 162.837 145.602 162.624 144.919 162.624C144.237 162.624 143.693 162.837 143.287 163.264C142.893 163.68 142.695 164.283 142.695 165.072V170H140.887V165.072C140.887 164.283 140.69 163.68 140.295 163.264C139.901 162.837 139.362 162.624 138.679 162.624C137.997 162.624 137.453 162.837 137.047 163.264C136.653 163.68 136.455 164.283 136.455 165.072V170H134.631V161.184H136.455V162.192C136.754 161.829 137.133 161.547 137.591 161.344C138.05 161.141 138.541 161.04 139.063 161.04C139.767 161.04 140.397 161.189 140.951 161.488C141.506 161.787 141.933 162.219 142.231 162.784C142.498 162.251 142.914 161.829 143.479 161.52C144.045 161.2 144.653 161.04 145.303 161.04ZM152.904 162.48C153.214 162.075 153.635 161.733 154.168 161.456C154.702 161.179 155.304 161.04 155.976 161.04C156.744 161.04 157.443 161.232 158.072 161.616C158.712 161.989 159.214 162.517 159.576 163.2C159.939 163.883 160.12 164.667 160.12 165.552C160.12 166.437 159.939 167.232 159.576 167.936C159.214 168.629 158.712 169.173 158.072 169.568C157.443 169.952 156.744 170.144 155.976 170.144C155.304 170.144 154.707 170.011 154.184 169.744C153.662 169.467 153.235 169.125 152.904 168.72V174.192H151.08V161.184H152.904V162.48ZM158.264 165.552C158.264 164.944 158.136 164.421 157.88 163.984C157.635 163.536 157.304 163.2 156.888 162.976C156.483 162.741 156.046 162.624 155.576 162.624C155.118 162.624 154.68 162.741 154.264 162.976C153.859 163.211 153.528 163.552 153.272 164C153.027 164.448 152.904 164.976 152.904 165.584C152.904 166.192 153.027 166.725 153.272 167.184C153.528 167.632 153.859 167.973 154.264 168.208C154.68 168.443 155.118 168.56 155.576 168.56C156.046 168.56 156.483 168.443 156.888 168.208C157.304 167.963 157.635 167.611 157.88 167.152C158.136 166.693 158.264 166.16 158.264 165.552ZM161.14 165.552C161.14 164.667 161.321 163.883 161.684 163.2C162.057 162.517 162.559 161.989 163.188 161.616C163.828 161.232 164.532 161.04 165.3 161.04C165.993 161.04 166.596 161.179 167.108 161.456C167.631 161.723 168.047 162.059 168.356 162.464V161.184H170.196V170H168.356V168.688C168.047 169.104 167.625 169.451 167.092 169.728C166.559 170.005 165.951 170.144 165.268 170.144C164.511 170.144 163.817 169.952 163.188 169.568C162.559 169.173 162.057 168.629 161.684 167.936C161.321 167.232 161.14 166.437 161.14 165.552ZM168.356 165.584C168.356 164.976 168.228 164.448 167.972 164C167.727 163.552 167.401 163.211 166.996 162.976C166.591 162.741 166.153 162.624 165.684 162.624C165.215 162.624 164.777 162.741 164.372 162.976C163.967 163.2 163.636 163.536 163.38 163.984C163.135 164.421 163.012 164.944 163.012 165.552C163.012 166.16 163.135 166.693 163.38 167.152C163.636 167.611 163.967 167.963 164.372 168.208C164.788 168.443 165.225 168.56 165.684 168.56C166.153 168.56 166.591 168.443 166.996 168.208C167.401 167.973 167.727 167.632 167.972 167.184C168.228 166.725 168.356 166.192 168.356 165.584ZM173.344 160.016C173.013 160.016 172.736 159.904 172.512 159.68C172.288 159.456 172.176 159.179 172.176 158.848C172.176 158.517 172.288 158.24 172.512 158.016C172.736 157.792 173.013 157.68 173.344 157.68C173.664 157.68 173.936 157.792 174.16 158.016C174.384 158.24 174.496 158.517 174.496 158.848C174.496 159.179 174.384 159.456 174.16 159.68C173.936 159.904 173.664 160.016 173.344 160.016ZM174.24 161.184V170H172.416V161.184H174.24ZM180.011 161.04C180.693 161.04 181.296 161.179 181.819 161.456C182.352 161.723 182.768 162.059 183.067 162.464V161.184H184.907V170.144C184.907 170.955 184.736 171.675 184.395 172.304C184.053 172.944 183.557 173.445 182.907 173.808C182.267 174.171 181.499 174.352 180.603 174.352C179.408 174.352 178.416 174.069 177.627 173.504C176.837 172.949 176.389 172.192 176.283 171.232H178.091C178.229 171.691 178.523 172.059 178.971 172.336C179.429 172.624 179.973 172.768 180.603 172.768C181.339 172.768 181.931 172.544 182.379 172.096C182.837 171.648 183.067 170.997 183.067 170.144V168.672C182.757 169.088 182.336 169.44 181.803 169.728C181.28 170.005 180.683 170.144 180.011 170.144C179.243 170.144 178.539 169.952 177.899 169.568C177.269 169.173 176.768 168.629 176.395 167.936C176.032 167.232 175.851 166.437 175.851 165.552C175.851 164.667 176.032 163.883 176.395 163.2C176.768 162.517 177.269 161.989 177.899 161.616C178.539 161.232 179.243 161.04 180.011 161.04ZM183.067 165.584C183.067 164.976 182.939 164.448 182.683 164C182.437 163.552 182.112 163.211 181.707 162.976C181.301 162.741 180.864 162.624 180.395 162.624C179.925 162.624 179.488 162.741 179.083 162.976C178.677 163.2 178.347 163.536 178.091 163.984C177.845 164.421 177.723 164.944 177.723 165.552C177.723 166.16 177.845 166.693 178.091 167.152C178.347 167.611 178.677 167.963 179.083 168.208C179.499 168.443 179.936 168.56 180.395 168.56C180.864 168.56 181.301 168.443 181.707 168.208C182.112 167.973 182.437 167.632 182.683 167.184C182.939 166.725 183.067 166.192 183.067 165.584ZM191.574 161.04C192.268 161.04 192.886 161.184 193.43 161.472C193.985 161.76 194.417 162.187 194.726 162.752C195.036 163.317 195.19 164 195.19 164.8V170H193.382V165.072C193.382 164.283 193.185 163.68 192.79 163.264C192.396 162.837 191.857 162.624 191.174 162.624C190.492 162.624 189.948 162.837 189.542 163.264C189.148 163.68 188.95 164.283 188.95 165.072V170H187.126V161.184H188.95V162.192C189.249 161.829 189.628 161.547 190.086 161.344C190.556 161.141 191.052 161.04 191.574 161.04Z" fill="black" fill-opacity="0.8"/>
<path d="M52.356 228.528H56.116V230H50.532V218.88H52.356V228.528ZM61.2894 230.144C60.4574 230.144 59.7054 229.957 59.0334 229.584C58.3614 229.2 57.8334 228.667 57.4494 227.984C57.0654 227.291 56.8734 226.491 56.8734 225.584C56.8734 224.688 57.0707 223.893 57.4654 223.2C57.8601 222.507 58.3987 221.973 59.0814 221.6C59.7641 221.227 60.5267 221.04 61.3694 221.04C62.2121 221.04 62.9747 221.227 63.6574 221.6C64.3401 221.973 64.8787 222.507 65.2734 223.2C65.6681 223.893 65.8654 224.688 65.8654 225.584C65.8654 226.48 65.6627 227.275 65.2574 227.968C64.8521 228.661 64.2974 229.2 63.5934 229.584C62.9001 229.957 62.1321 230.144 61.2894 230.144ZM61.2894 228.56C61.7587 228.56 62.1961 228.448 62.6014 228.224C63.0174 228 63.3534 227.664 63.6094 227.216C63.8654 226.768 63.9934 226.224 63.9934 225.584C63.9934 224.944 63.8707 224.405 63.6254 223.968C63.3801 223.52 63.0547 223.184 62.6494 222.96C62.2441 222.736 61.8067 222.624 61.3374 222.624C60.8681 222.624 60.4307 222.736 60.0254 222.96C59.6307 223.184 59.3161 223.52 59.0814 223.968C58.8467 224.405 58.7294 224.944 58.7294 225.584C58.7294 226.533 58.9694 227.269 59.4494 227.792C59.9401 228.304 60.5534 228.56 61.2894 228.56ZM66.8845 225.584C66.8845 224.677 67.0659 223.883 67.4285 223.2C67.8019 222.507 68.3139 221.973 68.9645 221.6C69.6152 221.227 70.3619 221.04 71.2045 221.04C72.2712 221.04 73.1512 221.296 73.8445 221.808C74.5485 222.309 75.0232 223.029 75.2685 223.968H73.3005C73.1405 223.531 72.8845 223.189 72.5325 222.944C72.1805 222.699 71.7379 222.576 71.2045 222.576C70.4579 222.576 69.8605 222.843 69.4125 223.376C68.9752 223.899 68.7565 224.635 68.7565 225.584C68.7565 226.533 68.9752 227.275 69.4125 227.808C69.8605 228.341 70.4579 228.608 71.2045 228.608C72.2605 228.608 72.9592 228.144 73.3005 227.216H75.2685C75.0125 228.112 74.5325 228.827 73.8285 229.36C73.1245 229.883 72.2499 230.144 71.2045 230.144C70.3619 230.144 69.6152 229.957 68.9645 229.584C68.3139 229.2 67.8019 228.667 67.4285 227.984C67.0659 227.291 66.8845 226.491 66.8845 225.584ZM76.3023 225.552C76.3023 224.667 76.4836 223.883 76.8463 223.2C77.2196 222.517 77.7209 221.989 78.3503 221.616C78.9903 221.232 79.6943 221.04 80.4623 221.04C81.1556 221.04 81.7583 221.179 82.2703 221.456C82.7929 221.723 83.2089 222.059 83.5183 222.464V221.184H85.3583V230H83.5183V228.688C83.2089 229.104 82.7876 229.451 82.2543 229.728C81.7209 230.005 81.1129 230.144 80.4303 230.144C79.6729 230.144 78.9796 229.952 78.3503 229.568C77.7209 229.173 77.2196 228.629 76.8463 227.936C76.4836 227.232 76.3023 226.437 76.3023 225.552ZM83.5183 225.584C83.5183 224.976 83.3903 224.448 83.1343 224C82.8889 223.552 82.5636 223.211 82.1583 222.976C81.7529 222.741 81.3156 222.624 80.8463 222.624C80.3769 222.624 79.9396 222.741 79.5343 222.976C79.1289 223.2 78.7983 223.536 78.5423 223.984C78.2969 224.421 78.1743 224.944 78.1743 225.552C78.1743 226.16 78.2969 226.693 78.5423 227.152C78.7983 227.611 79.1289 227.963 79.5343 228.208C79.9503 228.443 80.3876 228.56 80.8463 228.56C81.3156 228.56 81.7529 228.443 82.1583 228.208C82.5636 227.973 82.8889 227.632 83.1343 227.184C83.3903 226.725 83.5183 226.192 83.5183 225.584ZM89.706 222.672V227.552C89.706 227.883 89.7807 228.123 89.93 228.272C90.09 228.411 90.3567 228.48 90.73 228.48H91.85V230H90.41C89.5887 230 88.9594 229.808 88.522 229.424C88.0847 229.04 87.866 228.416 87.866 227.552V222.672H86.826V221.184H87.866V218.992H89.706V221.184H91.85V222.672H89.706ZM94.2832 220.016C93.9525 220.016 93.6752 219.904 93.4512 219.68C93.2272 219.456 93.1152 219.179 93.1152 218.848C93.1152 218.517 93.2272 218.24 93.4512 218.016C93.6752 217.792 93.9525 217.68 94.2832 217.68C94.6032 217.68 94.8752 217.792 95.0992 218.016C95.3232 218.24 95.4352 218.517 95.4352 218.848C95.4352 219.179 95.3232 219.456 95.0992 219.68C94.8752 219.904 94.6032 220.016 94.2832 220.016ZM95.1792 221.184V230H93.3552V221.184H95.1792ZM101.222 230.144C100.39 230.144 99.6379 229.957 98.9659 229.584C98.2939 229.2 97.7659 228.667 97.3819 227.984C96.9979 227.291 96.8059 226.491 96.8059 225.584C96.8059 224.688 97.0032 223.893 97.3979 223.2C97.7926 222.507 98.3312 221.973 99.0139 221.6C99.6966 221.227 100.459 221.04 101.302 221.04C102.145 221.04 102.907 221.227 103.59 221.6C104.273 221.973 104.811 222.507 105.206 223.2C105.601 223.893 105.798 224.688 105.798 225.584C105.798 226.48 105.595 227.275 105.19 227.968C104.785 228.661 104.23 229.2 103.526 229.584C102.833 229.957 102.065 230.144 101.222 230.144ZM101.222 228.56C101.691 228.56 102.129 228.448 102.534 228.224C102.95 228 103.286 227.664 103.542 227.216C103.798 226.768 103.926 226.224 103.926 225.584C103.926 224.944 103.803 224.405 103.558 223.968C103.313 223.52 102.987 223.184 102.582 222.96C102.177 222.736 101.739 222.624 101.27 222.624C100.801 222.624 100.363 222.736 99.9579 222.96C99.5632 223.184 99.2486 223.52 99.0139 223.968C98.7792 224.405 98.6619 224.944 98.6619 225.584C98.6619 226.533 98.9019 227.269 99.3819 227.792C99.8726 228.304 100.486 228.56 101.222 228.56ZM111.873 221.04C112.566 221.04 113.185 221.184 113.729 221.472C114.284 221.76 114.716 222.187 115.025 222.752C115.334 223.317 115.489 224 115.489 224.8V230H113.681V225.072C113.681 224.283 113.484 223.68 113.089 223.264C112.694 222.837 112.156 222.624 111.473 222.624C110.79 222.624 110.246 222.837 109.841 223.264C109.446 223.68 109.249 224.283 109.249 225.072V230H107.425V221.184H109.249V222.192C109.548 221.829 109.926 221.547 110.385 221.344C110.854 221.141 111.35 221.04 111.873 221.04Z" fill="black" fill-opacity="0.8"/>
<path d="M56.1971 186.03C56.1147 185.771 56.0039 185.54 55.8647 185.335C55.7283 185.128 55.565 184.952 55.3746 184.807C55.1843 184.659 54.967 184.547 54.7227 184.47C54.4812 184.393 54.2156 184.355 53.9258 184.355C53.4343 184.355 52.9911 184.482 52.5962 184.734C52.2013 184.987 51.8888 185.358 51.6587 185.847C51.4315 186.332 51.3178 186.928 51.3178 187.632C51.3178 188.339 51.4329 188.937 51.663 189.426C51.8931 189.915 52.2085 190.286 52.609 190.538C53.0096 190.791 53.4656 190.918 53.9769 190.918C54.4513 190.918 54.8647 190.821 55.217 190.628C55.5721 190.435 55.8462 190.162 56.0394 189.81C56.2354 189.455 56.3335 189.037 56.3335 188.557L56.6744 188.621H54.1772V187.534H57.6076V188.527C57.6076 189.26 57.4513 189.896 57.1388 190.436C56.8292 190.973 56.4002 191.388 55.8519 191.68C55.3065 191.973 54.6815 192.119 53.9769 192.119C53.1871 192.119 52.494 191.938 51.8974 191.574C51.3036 191.21 50.8406 190.695 50.5082 190.027C50.1758 189.357 50.0096 188.561 50.0096 187.641C50.0096 186.945 50.1062 186.32 50.2994 185.766C50.4925 185.212 50.7638 184.741 51.1133 184.355C51.4656 183.966 51.8789 183.669 52.3533 183.464C52.8306 183.257 53.3519 183.153 53.9173 183.153C54.3888 183.153 54.8278 183.223 55.234 183.362C55.6431 183.501 56.0067 183.699 56.3249 183.955C56.646 184.21 56.9116 184.514 57.1218 184.866C57.332 185.216 57.4741 185.604 57.5479 186.03H56.1971ZM61.8019 192.132C61.1883 192.132 60.6528 191.991 60.1954 191.71C59.738 191.429 59.3829 191.036 59.1301 190.53C58.8772 190.024 58.7508 189.433 58.7508 188.757C58.7508 188.078 58.8772 187.484 59.1301 186.976C59.3829 186.467 59.738 186.072 60.1954 185.791C60.6528 185.51 61.1883 185.369 61.8019 185.369C62.4156 185.369 62.9511 185.51 63.4085 185.791C63.8659 186.072 64.221 186.467 64.4738 186.976C64.7267 187.484 64.8531 188.078 64.8531 188.757C64.8531 189.433 64.7267 190.024 64.4738 190.53C64.221 191.036 63.8659 191.429 63.4085 191.71C62.9511 191.991 62.4156 192.132 61.8019 192.132ZM61.8062 191.062C62.2039 191.062 62.5335 190.957 62.7948 190.747C63.0562 190.537 63.2494 190.257 63.3744 189.908C63.5022 189.558 63.5662 189.173 63.5662 188.753C63.5662 188.335 63.5022 187.952 63.3744 187.602C63.2494 187.25 63.0562 186.967 62.7948 186.754C62.5335 186.541 62.2039 186.435 61.8062 186.435C61.4056 186.435 61.0733 186.541 60.8091 186.754C60.5477 186.967 60.3531 187.25 60.2252 187.602C60.1002 187.952 60.0377 188.335 60.0377 188.753C60.0377 189.173 60.1002 189.558 60.2252 189.908C60.3531 190.257 60.5477 190.537 60.8091 190.747C61.0733 190.957 61.4056 191.062 61.8062 191.062ZM70.9982 192L68.5777 183.273H69.9627L71.6629 190.031H71.7439L73.5124 183.273H74.8845L76.653 190.036H76.734L78.43 183.273H79.8192L77.3945 192H76.0692L74.2326 185.463H74.1644L72.3277 192H70.9982ZM82.0459 192.145C81.6311 192.145 81.2561 192.068 80.9209 191.915C80.5856 191.759 80.32 191.533 80.124 191.237C79.9308 190.942 79.8342 190.58 79.8342 190.151C79.8342 189.781 79.9052 189.477 80.0473 189.239C80.1893 189 80.3811 188.811 80.6226 188.672C80.864 188.533 81.1339 188.428 81.4322 188.357C81.7305 188.286 82.0345 188.232 82.3442 188.195C82.7362 188.149 83.0544 188.112 83.2987 188.084C83.543 188.053 83.7206 188.003 83.8314 187.935C83.9422 187.866 83.9976 187.756 83.9976 187.602V187.572C83.9976 187.2 83.8925 186.912 83.6822 186.707C83.4748 186.503 83.1652 186.401 82.7533 186.401C82.3243 186.401 81.9862 186.496 81.739 186.686C81.4947 186.874 81.3257 187.082 81.2319 187.312L80.0345 187.04C80.1765 186.642 80.3839 186.321 80.6567 186.077C80.9322 185.83 81.249 185.651 81.6069 185.54C81.9649 185.426 82.3413 185.369 82.7362 185.369C82.9976 185.369 83.2746 185.401 83.5672 185.463C83.8626 185.523 84.1382 185.634 84.3939 185.795C84.6524 185.957 84.864 186.189 85.0288 186.49C85.1936 186.788 85.276 187.176 85.276 187.653V192H84.0317V191.105H83.9805C83.8981 191.27 83.7746 191.432 83.6098 191.591C83.445 191.75 83.2334 191.882 82.9748 191.987C82.7163 192.092 82.4067 192.145 82.0459 192.145ZM82.3229 191.122C82.6751 191.122 82.9763 191.053 83.2263 190.913C83.4791 190.774 83.6709 190.592 83.8015 190.368C83.9351 190.141 84.0018 189.898 84.0018 189.639V188.795C83.9564 188.841 83.8683 188.884 83.7376 188.923C83.6098 188.96 83.4635 188.993 83.2987 189.021C83.1339 189.047 82.9734 189.071 82.8172 189.094C82.6609 189.114 82.5302 189.131 82.4251 189.145C82.178 189.176 81.9521 189.229 81.7476 189.303C81.5459 189.376 81.3839 189.483 81.2618 189.622C81.1425 189.759 81.0828 189.94 81.0828 190.168C81.0828 190.483 81.1993 190.722 81.4322 190.884C81.6652 191.043 81.9621 191.122 82.3229 191.122ZM89.8965 185.455V186.477H86.3212V185.455H89.8965ZM87.28 183.886H88.5541V190.078C88.5541 190.325 88.5911 190.511 88.6649 190.636C88.7388 190.759 88.834 190.842 88.9504 190.888C89.0698 190.93 89.199 190.952 89.3382 190.952C89.4405 190.952 89.53 190.945 89.6067 190.93C89.6834 190.916 89.7431 190.905 89.7857 190.896L90.0158 191.949C89.9419 191.977 89.8368 192.006 89.7004 192.034C89.5641 192.065 89.3936 192.082 89.1891 192.085C88.8538 192.091 88.5413 192.031 88.2516 191.906C87.9618 191.781 87.7274 191.588 87.5485 191.327C87.3695 191.065 87.28 190.737 87.28 190.342V183.886ZM93.9246 192.132C93.2797 192.132 92.7243 191.994 92.2584 191.719C91.7954 191.44 91.4374 191.05 91.1846 190.547C90.9346 190.041 90.8096 189.449 90.8096 188.77C90.8096 188.099 90.9346 187.509 91.1846 186.997C91.4374 186.486 91.7897 186.087 92.2414 185.8C92.6959 185.513 93.2272 185.369 93.8351 185.369C94.2044 185.369 94.5624 185.43 94.909 185.553C95.2556 185.675 95.5667 185.866 95.8422 186.128C96.1178 186.389 96.3351 186.729 96.4942 187.146C96.6533 187.561 96.7329 188.065 96.7329 188.659V189.111H91.5297V188.156H95.4843C95.4843 187.821 95.4161 187.524 95.2797 187.266C95.1434 187.004 94.9516 186.798 94.7044 186.648C94.4601 186.497 94.1732 186.422 93.8437 186.422C93.4857 186.422 93.1732 186.51 92.9062 186.686C92.6419 186.859 92.4374 187.087 92.2925 187.368C92.1505 187.646 92.0794 187.949 92.0794 188.276V189.021C92.0794 189.459 92.1562 189.831 92.3096 190.138C92.4658 190.445 92.6831 190.679 92.9616 190.841C93.24 191 93.5652 191.08 93.9374 191.08C94.1789 191.08 94.3991 191.045 94.5979 190.977C94.7968 190.906 94.9687 190.801 95.1135 190.662C95.2584 190.523 95.3692 190.351 95.4459 190.146L96.6519 190.364C96.5553 190.719 96.382 191.03 96.132 191.297C95.8848 191.561 95.5738 191.767 95.1988 191.915C94.8266 192.06 94.4019 192.132 93.9246 192.132ZM98.0146 192V185.455H99.2461V186.494H99.3143C99.4336 186.142 99.6438 185.865 99.945 185.663C100.249 185.459 100.593 185.357 100.976 185.357C101.056 185.357 101.15 185.359 101.257 185.365C101.368 185.371 101.455 185.378 101.517 185.386V186.605C101.466 186.591 101.375 186.575 101.245 186.558C101.114 186.538 100.983 186.528 100.853 186.528C100.551 186.528 100.283 186.592 100.047 186.72C99.8143 186.845 99.6296 187.02 99.4933 187.244C99.3569 187.466 99.2887 187.719 99.2887 188.003V192H98.0146ZM102.488 194.455V185.455H103.732V186.516H103.839C103.913 186.379 104.019 186.222 104.158 186.043C104.298 185.864 104.491 185.707 104.738 185.574C104.985 185.438 105.312 185.369 105.718 185.369C106.247 185.369 106.718 185.503 107.133 185.77C107.548 186.037 107.873 186.422 108.109 186.925C108.347 187.428 108.467 188.033 108.467 188.74C108.467 189.447 108.349 190.054 108.113 190.56C107.877 191.062 107.553 191.45 107.141 191.723C106.73 191.993 106.259 192.128 105.731 192.128C105.333 192.128 105.008 192.061 104.755 191.928C104.505 191.794 104.309 191.638 104.167 191.459C104.025 191.28 103.916 191.121 103.839 190.982H103.762V194.455H102.488ZM103.737 188.727C103.737 189.187 103.803 189.591 103.937 189.938C104.07 190.284 104.264 190.555 104.516 190.751C104.769 190.945 105.079 191.041 105.445 191.041C105.826 191.041 106.144 190.94 106.4 190.739C106.656 190.534 106.849 190.257 106.98 189.908C107.113 189.558 107.18 189.165 107.18 188.727C107.18 188.295 107.114 187.908 106.984 187.564C106.856 187.22 106.663 186.949 106.404 186.75C106.149 186.551 105.829 186.452 105.445 186.452C105.076 186.452 104.764 186.547 104.508 186.737C104.255 186.928 104.063 187.193 103.933 187.534C103.802 187.875 103.737 188.273 103.737 188.727ZM109.762 192V185.455H110.994V186.494H111.062C111.181 186.142 111.392 185.865 111.693 185.663C111.997 185.459 112.34 185.357 112.724 185.357C112.803 185.357 112.897 185.359 113.005 185.365C113.116 185.371 113.203 185.378 113.265 185.386V186.605C113.214 186.591 113.123 186.575 112.992 186.558C112.862 186.538 112.731 186.528 112.6 186.528C112.299 186.528 112.031 186.592 111.795 186.72C111.562 186.845 111.377 187.02 111.241 187.244C111.105 187.466 111.036 187.719 111.036 188.003V192H109.762ZM116.758 192.132C116.145 192.132 115.609 191.991 115.152 191.71C114.695 191.429 114.339 191.036 114.087 190.53C113.834 190.024 113.707 189.433 113.707 188.757C113.707 188.078 113.834 187.484 114.087 186.976C114.339 186.467 114.695 186.072 115.152 185.791C115.609 185.51 116.145 185.369 116.758 185.369C117.372 185.369 117.908 185.51 118.365 185.791C118.822 186.072 119.178 186.467 119.43 186.976C119.683 187.484 119.81 188.078 119.81 188.757C119.81 189.433 119.683 190.024 119.43 190.53C119.178 191.036 118.822 191.429 118.365 191.71C117.908 191.991 117.372 192.132 116.758 192.132ZM116.763 191.062C117.16 191.062 117.49 190.957 117.751 190.747C118.013 190.537 118.206 190.257 118.331 189.908C118.459 189.558 118.523 189.173 118.523 188.753C118.523 188.335 118.459 187.952 118.331 187.602C118.206 187.25 118.013 186.967 117.751 186.754C117.49 186.541 117.16 186.435 116.763 186.435C116.362 186.435 116.03 186.541 115.766 186.754C115.504 186.967 115.31 187.25 115.182 187.602C115.057 187.952 114.994 188.335 114.994 188.753C114.994 189.173 115.057 189.558 115.182 189.908C115.31 190.257 115.504 190.537 115.766 190.747C116.03 190.957 116.362 191.062 116.763 191.062ZM123.857 192.132C123.243 192.132 122.708 191.991 122.25 191.71C121.793 191.429 121.438 191.036 121.185 190.53C120.932 190.024 120.806 189.433 120.806 188.757C120.806 188.078 120.932 187.484 121.185 186.976C121.438 186.467 121.793 186.072 122.25 185.791C122.708 185.51 123.243 185.369 123.857 185.369C124.471 185.369 125.006 185.51 125.463 185.791C125.921 186.072 126.276 186.467 126.529 186.976C126.782 187.484 126.908 188.078 126.908 188.757C126.908 189.433 126.782 190.024 126.529 190.53C126.276 191.036 125.921 191.429 125.463 191.71C125.006 191.991 124.471 192.132 123.857 192.132ZM123.861 191.062C124.259 191.062 124.588 190.957 124.85 190.747C125.111 190.537 125.304 190.257 125.429 189.908C125.557 189.558 125.621 189.173 125.621 188.753C125.621 188.335 125.557 187.952 125.429 187.602C125.304 187.25 125.111 186.967 124.85 186.754C124.588 186.541 124.259 186.435 123.861 186.435C123.461 186.435 123.128 186.541 122.864 186.754C122.603 186.967 122.408 187.25 122.28 187.602C122.155 187.952 122.093 188.335 122.093 188.753C122.093 189.173 122.155 189.558 122.28 189.908C122.408 190.257 122.603 190.537 122.864 190.747C123.128 190.957 123.461 191.062 123.861 191.062ZM131.313 185.455V186.477H127.615V185.455H131.313ZM128.629 192V184.696C128.629 184.287 128.718 183.947 128.897 183.678C129.076 183.405 129.313 183.202 129.609 183.068C129.904 182.932 130.225 182.864 130.572 182.864C130.828 182.864 131.046 182.885 131.228 182.928C131.41 182.967 131.545 183.004 131.633 183.038L131.335 184.07C131.275 184.053 131.198 184.033 131.105 184.01C131.011 183.984 130.897 183.972 130.764 183.972C130.454 183.972 130.232 184.048 130.099 184.202C129.968 184.355 129.903 184.577 129.903 184.866V192H128.629Z" fill="black" fill-opacity="0.8"/>
<path d="M50.2908 253V244.273H53.4869C54.1062 244.273 54.619 244.375 55.0252 244.58C55.4315 244.781 55.7354 245.055 55.9371 245.402C56.1388 245.746 56.2397 246.134 56.2397 246.565C56.2397 246.929 56.1729 247.236 56.0394 247.486C55.9059 247.733 55.7269 247.932 55.5025 248.082C55.2809 248.23 55.0366 248.338 54.7695 248.406V248.491C55.0593 248.506 55.342 248.599 55.6175 248.773C55.896 248.943 56.1261 249.186 56.3079 249.501C56.4897 249.817 56.5806 250.2 56.5806 250.652C56.5806 251.098 56.4755 251.499 56.2653 251.854C56.0579 252.206 55.7369 252.486 55.3022 252.693C54.8675 252.898 54.3121 253 53.636 253H50.2908ZM51.6076 251.871H53.5082C54.1388 251.871 54.5906 251.749 54.8633 251.504C55.136 251.26 55.2724 250.955 55.2724 250.588C55.2724 250.312 55.2028 250.06 55.0636 249.83C54.9244 249.599 54.7255 249.416 54.467 249.28C54.2113 249.143 53.9073 249.075 53.555 249.075H51.6076V251.871ZM51.6076 248.048H53.3718C53.6673 248.048 53.9329 247.991 54.1687 247.878C54.4073 247.764 54.5962 247.605 54.7354 247.401C54.8775 247.193 54.9485 246.949 54.9485 246.668C54.9485 246.307 54.8221 246.004 54.5692 245.76C54.3164 245.516 53.9286 245.393 53.4059 245.393H51.6076V248.048ZM57.9081 253V246.455H59.1397V247.494H59.2078C59.3272 247.142 59.5374 246.865 59.8385 246.663C60.1425 246.459 60.4863 246.357 60.8698 246.357C60.9493 246.357 61.0431 246.359 61.151 246.365C61.2618 246.371 61.3485 246.378 61.411 246.386V247.605C61.3598 247.591 61.2689 247.575 61.1382 247.558C61.0076 247.538 60.8769 247.528 60.7462 247.528C60.4451 247.528 60.1766 247.592 59.9408 247.72C59.7078 247.845 59.5232 248.02 59.3868 248.244C59.2505 248.466 59.1823 248.719 59.1823 249.003V253H57.9081ZM64.9043 253.132C64.2907 253.132 63.7552 252.991 63.2978 252.71C62.8404 252.429 62.4853 252.036 62.2324 251.53C61.9796 251.024 61.8532 250.433 61.8532 249.757C61.8532 249.078 61.9796 248.484 62.2324 247.976C62.4853 247.467 62.8404 247.072 63.2978 246.791C63.7552 246.51 64.2907 246.369 64.9043 246.369C65.518 246.369 66.0535 246.51 66.5109 246.791C66.9682 247.072 67.3234 247.467 67.5762 247.976C67.829 248.484 67.9555 249.078 67.9555 249.757C67.9555 250.433 67.829 251.024 67.5762 251.53C67.3234 252.036 66.9682 252.429 66.5109 252.71C66.0535 252.991 65.518 253.132 64.9043 253.132ZM64.9086 252.062C65.3063 252.062 65.6359 251.957 65.8972 251.747C66.1586 251.537 66.3518 251.257 66.4768 250.908C66.6046 250.558 66.6685 250.173 66.6685 249.753C66.6685 249.335 66.6046 248.952 66.4768 248.602C66.3518 248.25 66.1586 247.967 65.8972 247.754C65.6359 247.541 65.3063 247.435 64.9086 247.435C64.508 247.435 64.1756 247.541 63.9114 247.754C63.6501 247.967 63.4555 248.25 63.3276 248.602C63.2026 248.952 63.1401 249.335 63.1401 249.753C63.1401 250.173 63.2026 250.558 63.3276 250.908C63.4555 251.257 63.6501 251.537 63.9114 251.747C64.1756 251.957 64.508 252.062 64.9086 252.062ZM71.1505 253.145C70.7357 253.145 70.3607 253.068 70.0255 252.915C69.6903 252.759 69.4247 252.533 69.2286 252.237C69.0355 251.942 68.9389 251.58 68.9389 251.151C68.9389 250.781 69.0099 250.477 69.1519 250.239C69.294 250 69.4857 249.811 69.7272 249.672C69.9687 249.533 70.2386 249.428 70.5369 249.357C70.8352 249.286 71.1392 249.232 71.4488 249.195C71.8409 249.149 72.159 249.112 72.4034 249.084C72.6477 249.053 72.8252 249.003 72.936 248.935C73.0468 248.866 73.1022 248.756 73.1022 248.602V248.572C73.1022 248.2 72.9971 247.912 72.7869 247.707C72.5795 247.503 72.2698 247.401 71.8579 247.401C71.4289 247.401 71.0909 247.496 70.8437 247.686C70.5994 247.874 70.4303 248.082 70.3366 248.312L69.1392 248.04C69.2812 247.642 69.4886 247.321 69.7613 247.077C70.0369 246.83 70.3536 246.651 70.7116 246.54C71.0696 246.426 71.446 246.369 71.8409 246.369C72.1022 246.369 72.3792 246.401 72.6718 246.463C72.9673 246.523 73.2428 246.634 73.4985 246.795C73.7571 246.957 73.9687 247.189 74.1335 247.49C74.2982 247.788 74.3806 248.176 74.3806 248.653V253H73.1363V252.105H73.0852C73.0028 252.27 72.8792 252.432 72.7144 252.591C72.5497 252.75 72.338 252.882 72.0795 252.987C71.821 253.092 71.5113 253.145 71.1505 253.145ZM71.4275 252.122C71.7798 252.122 72.0809 252.053 72.3309 251.913C72.5838 251.774 72.7755 251.592 72.9062 251.368C73.0397 251.141 73.1065 250.898 73.1065 250.639V249.795C73.061 249.841 72.973 249.884 72.8423 249.923C72.7144 249.96 72.5681 249.993 72.4034 250.021C72.2386 250.047 72.0781 250.071 71.9218 250.094C71.7656 250.114 71.6349 250.131 71.5298 250.145C71.2826 250.176 71.0568 250.229 70.8522 250.303C70.6505 250.376 70.4886 250.483 70.3664 250.622C70.2471 250.759 70.1875 250.94 70.1875 251.168C70.1875 251.483 70.3039 251.722 70.5369 251.884C70.7698 252.043 71.0667 252.122 71.4275 252.122ZM78.396 253.128C77.8676 253.128 77.396 252.993 76.9812 252.723C76.5693 252.45 76.2454 252.062 76.0096 251.56C75.7767 251.054 75.6602 250.447 75.6602 249.74C75.6602 249.033 75.7781 248.428 76.0139 247.925C76.2525 247.422 76.5792 247.037 76.994 246.77C77.4088 246.503 77.879 246.369 78.4045 246.369C78.8108 246.369 79.1375 246.438 79.3846 246.574C79.6346 246.707 79.8278 246.864 79.9642 247.043C80.1034 247.222 80.2113 247.379 80.2881 247.516H80.3648V244.273H81.6389V253H80.3946V251.982H80.2881C80.2113 252.121 80.1006 252.28 79.9557 252.459C79.8136 252.638 79.6176 252.794 79.3676 252.928C79.1176 253.061 78.7937 253.128 78.396 253.128ZM78.6773 252.041C79.0437 252.041 79.3534 251.945 79.6062 251.751C79.8619 251.555 80.0551 251.284 80.1858 250.938C80.3193 250.591 80.3861 250.187 80.3861 249.727C80.3861 249.273 80.3207 248.875 80.19 248.534C80.0594 248.193 79.8676 247.928 79.6148 247.737C79.3619 247.547 79.0494 247.452 78.6773 247.452C78.2937 247.452 77.9741 247.551 77.7184 247.75C77.4628 247.949 77.2696 248.22 77.1389 248.564C77.0111 248.908 76.9471 249.295 76.9471 249.727C76.9471 250.165 77.0125 250.558 77.1432 250.908C77.2738 251.257 77.467 251.534 77.7227 251.739C77.9812 251.94 78.2994 252.041 78.6773 252.041ZM84.7445 253L82.8183 246.455H84.1351L85.4178 251.261H85.4817L86.7686 246.455H88.0854L89.3638 251.24H89.4277L90.7019 246.455H92.0186L90.0967 253H88.797L87.4675 248.274H87.3695L86.0399 253H84.7445ZM95.0006 253.145C94.5858 253.145 94.2108 253.068 93.8756 252.915C93.5404 252.759 93.2748 252.533 93.0787 252.237C92.8856 251.942 92.789 251.58 92.789 251.151C92.789 250.781 92.86 250.477 93.002 250.239C93.1441 250 93.3358 249.811 93.5773 249.672C93.8188 249.533 94.0887 249.428 94.387 249.357C94.6853 249.286 94.9893 249.232 95.2989 249.195C95.691 249.149 96.0091 249.112 96.2535 249.084C96.4978 249.053 96.6753 249.003 96.7861 248.935C96.8969 248.866 96.9523 248.756 96.9523 248.602V248.572C96.9523 248.2 96.8472 247.912 96.637 247.707C96.4296 247.503 96.1199 247.401 95.708 247.401C95.279 247.401 94.941 247.496 94.6938 247.686C94.4495 247.874 94.2804 248.082 94.1867 248.312L92.9893 248.04C93.1313 247.642 93.3387 247.321 93.6114 247.077C93.887 246.83 94.2037 246.651 94.5617 246.54C94.9196 246.426 95.2961 246.369 95.691 246.369C95.9523 246.369 96.2293 246.401 96.5219 246.463C96.8174 246.523 97.0929 246.634 97.3486 246.795C97.6071 246.957 97.8188 247.189 97.9836 247.49C98.1483 247.788 98.2307 248.176 98.2307 248.653V253H96.9864V252.105H96.9353C96.8529 252.27 96.7293 252.432 96.5645 252.591C96.3998 252.75 96.1881 252.882 95.9296 252.987C95.6711 253.092 95.3614 253.145 95.0006 253.145ZM95.2776 252.122C95.6299 252.122 95.931 252.053 96.181 251.913C96.4339 251.774 96.6256 251.592 96.7563 251.368C96.8898 251.141 96.9566 250.898 96.9566 250.639V249.795C96.9111 249.841 96.8231 249.884 96.6924 249.923C96.5645 249.96 96.4182 249.993 96.2535 250.021C96.0887 250.047 95.9282 250.071 95.7719 250.094C95.6157 250.114 95.485 250.131 95.3799 250.145C95.1327 250.176 94.9069 250.229 94.7023 250.303C94.5006 250.376 94.3387 250.483 94.2165 250.622C94.0972 250.759 94.0375 250.94 94.0375 251.168C94.0375 251.483 94.154 251.722 94.387 251.884C94.6199 252.043 94.9168 252.122 95.2776 252.122ZM100.367 255.455C100.176 255.455 100.003 255.439 99.847 255.408C99.6907 255.379 99.5742 255.348 99.4975 255.314L99.8043 254.27C100.037 254.332 100.245 254.359 100.426 254.351C100.608 254.342 100.769 254.274 100.908 254.146C101.05 254.018 101.175 253.81 101.283 253.52L101.441 253.085L99.0458 246.455H100.409L102.067 251.534H102.135L103.793 246.455H105.161L102.463 253.874C102.338 254.214 102.179 254.503 101.986 254.739C101.793 254.977 101.563 255.156 101.296 255.276C101.029 255.395 100.719 255.455 100.367 255.455ZM111.81 253.124C111.225 253.124 110.72 253.017 110.297 252.804C109.877 252.591 109.553 252.301 109.325 251.935C109.098 251.565 108.985 251.148 108.985 250.682C108.985 250.327 109.058 250.011 109.206 249.736C109.354 249.457 109.56 249.2 109.824 248.964C110.088 248.729 110.394 248.491 110.74 248.253L112.147 247.26C112.385 247.104 112.571 246.939 112.705 246.766C112.838 246.589 112.905 246.372 112.905 246.114C112.905 245.909 112.817 245.713 112.641 245.526C112.465 245.338 112.229 245.244 111.933 245.244C111.729 245.244 111.549 245.294 111.392 245.393C111.239 245.493 111.118 245.621 111.03 245.777C110.945 245.93 110.902 246.092 110.902 246.263C110.902 246.462 110.956 246.662 111.064 246.864C111.175 247.065 111.317 247.274 111.49 247.49C111.664 247.703 111.845 247.925 112.036 248.155L116.088 253H114.648L111.294 249.058C111.013 248.726 110.752 248.413 110.51 248.121C110.269 247.825 110.073 247.527 109.922 247.226C109.774 246.922 109.7 246.594 109.7 246.241C109.7 245.841 109.791 245.486 109.973 245.176C110.158 244.864 110.415 244.619 110.745 244.443C111.074 244.267 111.46 244.179 111.904 244.179C112.352 244.179 112.737 244.267 113.058 244.443C113.382 244.616 113.631 244.848 113.804 245.138C113.98 245.425 114.068 245.739 114.068 246.08C114.068 246.494 113.965 246.861 113.757 247.179C113.553 247.494 113.27 247.784 112.909 248.048L111.158 249.339C110.817 249.589 110.58 249.837 110.446 250.081C110.316 250.322 110.25 250.511 110.25 250.648C110.25 250.898 110.314 251.129 110.442 251.342C110.573 251.555 110.754 251.726 110.987 251.854C111.223 251.982 111.499 252.045 111.814 252.045C112.138 252.045 112.453 251.976 112.76 251.837C113.07 251.695 113.35 251.491 113.6 251.227C113.852 250.963 114.053 250.646 114.2 250.277C114.348 249.908 114.422 249.494 114.422 249.037H115.573C115.573 249.599 115.509 250.075 115.381 250.464C115.253 250.851 115.098 251.166 114.916 251.411C114.737 251.652 114.568 251.841 114.409 251.977C114.358 252.023 114.31 252.068 114.264 252.114C114.219 252.159 114.171 252.205 114.12 252.25C113.824 252.548 113.466 252.768 113.046 252.911C112.628 253.053 112.216 253.124 111.81 253.124ZM122.926 253H120.101V244.273H123.015C123.87 244.273 124.605 244.447 125.218 244.797C125.832 245.143 126.302 245.642 126.629 246.293C126.959 246.94 127.123 247.717 127.123 248.624C127.123 249.533 126.957 250.314 126.625 250.967C126.295 251.621 125.818 252.124 125.193 252.476C124.568 252.825 123.812 253 122.926 253ZM121.417 251.849H122.853C123.518 251.849 124.071 251.724 124.511 251.474C124.951 251.222 125.281 250.857 125.5 250.379C125.718 249.899 125.828 249.314 125.828 248.624C125.828 247.939 125.718 247.358 125.5 246.881C125.284 246.403 124.961 246.041 124.532 245.794C124.103 245.547 123.571 245.423 122.934 245.423H121.417V251.849ZM131.284 253.132C130.67 253.132 130.134 252.991 129.677 252.71C129.22 252.429 128.865 252.036 128.612 251.53C128.359 251.024 128.232 250.433 128.232 249.757C128.232 249.078 128.359 248.484 128.612 247.976C128.865 247.467 129.22 247.072 129.677 246.791C130.134 246.51 130.67 246.369 131.284 246.369C131.897 246.369 132.433 246.51 132.89 246.791C133.347 247.072 133.703 247.467 133.955 247.976C134.208 248.484 134.335 249.078 134.335 249.757C134.335 250.433 134.208 251.024 133.955 251.53C133.703 252.036 133.347 252.429 132.89 252.71C132.433 252.991 131.897 253.132 131.284 253.132ZM131.288 252.062C131.686 252.062 132.015 251.957 132.276 251.747C132.538 251.537 132.731 251.257 132.856 250.908C132.984 250.558 133.048 250.173 133.048 249.753C133.048 249.335 132.984 248.952 132.856 248.602C132.731 248.25 132.538 247.967 132.276 247.754C132.015 247.541 131.686 247.435 131.288 247.435C130.887 247.435 130.555 247.541 130.291 247.754C130.029 247.967 129.835 248.25 129.707 248.602C129.582 248.952 129.519 249.335 129.519 249.753C129.519 250.173 129.582 250.558 129.707 250.908C129.835 251.257 130.029 251.537 130.291 251.747C130.555 251.957 130.887 252.062 131.288 252.062ZM136.845 253L134.919 246.455H136.235L137.518 251.261H137.582L138.869 246.455H140.186L141.464 251.24H141.528L142.802 246.455H144.119L142.197 253H140.897L139.568 248.274H139.47L138.14 253H136.845ZM146.47 249.114V253H145.196V246.455H146.419V247.52H146.5C146.651 247.173 146.886 246.895 147.207 246.685C147.531 246.474 147.939 246.369 148.43 246.369C148.876 246.369 149.267 246.463 149.602 246.651C149.938 246.835 150.197 247.111 150.382 247.477C150.567 247.844 150.659 248.297 150.659 248.837V253H149.385V248.99C149.385 248.516 149.261 248.145 149.014 247.878C148.767 247.608 148.428 247.473 147.996 247.473C147.7 247.473 147.438 247.537 147.207 247.665C146.98 247.793 146.8 247.98 146.666 248.227C146.536 248.472 146.47 248.767 146.47 249.114ZM155.291 246.455V247.477H151.716V246.455H155.291ZM152.675 244.886H153.949V251.078C153.949 251.325 153.986 251.511 154.06 251.636C154.134 251.759 154.229 251.842 154.345 251.888C154.465 251.93 154.594 251.952 154.733 251.952C154.835 251.952 154.925 251.945 155.002 251.93C155.078 251.916 155.138 251.905 155.181 251.896L155.411 252.949C155.337 252.977 155.232 253.006 155.095 253.034C154.959 253.065 154.788 253.082 154.584 253.085C154.249 253.091 153.936 253.031 153.646 252.906C153.357 252.781 153.122 252.588 152.943 252.327C152.764 252.065 152.675 251.737 152.675 251.342V244.886ZM159.256 253.132C158.642 253.132 158.106 252.991 157.649 252.71C157.192 252.429 156.837 252.036 156.584 251.53C156.331 251.024 156.204 250.433 156.204 249.757C156.204 249.078 156.331 248.484 156.584 247.976C156.837 247.467 157.192 247.072 157.649 246.791C158.106 246.51 158.642 246.369 159.256 246.369C159.869 246.369 160.405 246.51 160.862 246.791C161.319 247.072 161.675 247.467 161.927 247.976C162.18 248.484 162.307 249.078 162.307 249.757C162.307 250.433 162.18 251.024 161.927 251.53C161.675 252.036 161.319 252.429 160.862 252.71C160.405 252.991 159.869 253.132 159.256 253.132ZM159.26 252.062C159.658 252.062 159.987 251.957 160.248 251.747C160.51 251.537 160.703 251.257 160.828 250.908C160.956 250.558 161.02 250.173 161.02 249.753C161.02 249.335 160.956 248.952 160.828 248.602C160.703 248.25 160.51 247.967 160.248 247.754C159.987 247.541 159.658 247.435 159.26 247.435C158.859 247.435 158.527 247.541 158.263 247.754C158.001 247.967 157.807 248.25 157.679 248.602C157.554 248.952 157.491 249.335 157.491 249.753C157.491 250.173 157.554 250.558 157.679 250.908C157.807 251.257 158.001 251.537 158.263 251.747C158.527 251.957 158.859 252.062 159.26 252.062ZM164.817 253L162.891 246.455H164.207L165.49 251.261H165.554L166.841 246.455H168.158L169.436 251.24H169.5L170.774 246.455H172.091L170.169 253H168.869L167.54 248.274H167.442L166.112 253H164.817ZM174.442 249.114V253H173.168V246.455H174.391V247.52H174.472C174.623 247.173 174.858 246.895 175.179 246.685C175.503 246.474 175.911 246.369 176.402 246.369C176.848 246.369 177.239 246.463 177.574 246.651C177.91 246.835 178.169 247.111 178.354 247.477C178.539 247.844 178.631 248.297 178.631 248.837V253H177.357V248.99C177.357 248.516 177.233 248.145 176.986 247.878C176.739 247.608 176.4 247.473 175.968 247.473C175.672 247.473 175.41 247.537 175.179 247.665C174.952 247.793 174.772 247.98 174.638 248.227C174.508 248.472 174.442 248.767 174.442 249.114Z" fill="black" fill-opacity="0.8"/>
<g filter="url(#filter0_d_4866_3561)">
<rect x="46" y="303" width="154" height="52" rx="5" fill="#212429" shape-rendering="crispEdges"/>
<path d="M115.107 323.575L111.192 334H109.212L105.282 323.575H107.112L110.202 332.245L113.307 323.575H115.107ZM117.407 324.64C117.097 324.64 116.837 324.535 116.627 324.325C116.417 324.115 116.312 323.855 116.312 323.545C116.312 323.235 116.417 322.975 116.627 322.765C116.837 322.555 117.097 322.45 117.407 322.45C117.707 322.45 117.962 322.555 118.172 322.765C118.382 322.975 118.487 323.235 118.487 323.545C118.487 323.855 118.382 324.115 118.172 324.325C117.962 324.535 117.707 324.64 117.407 324.64ZM118.247 325.735V334H116.537V325.735H118.247ZM128.067 329.665C128.067 329.975 128.047 330.255 128.007 330.505H121.692C121.742 331.165 121.987 331.695 122.427 332.095C122.867 332.495 123.407 332.695 124.047 332.695C124.967 332.695 125.617 332.31 125.997 331.54H127.842C127.592 332.3 127.137 332.925 126.477 333.415C125.827 333.895 125.017 334.135 124.047 334.135C123.257 334.135 122.547 333.96 121.917 333.61C121.297 333.25 120.807 332.75 120.447 332.11C120.097 331.46 119.922 330.71 119.922 329.86C119.922 329.01 120.092 328.265 120.432 327.625C120.782 326.975 121.267 326.475 121.887 326.125C122.517 325.775 123.237 325.6 124.047 325.6C124.827 325.6 125.522 325.77 126.132 326.11C126.742 326.45 127.217 326.93 127.557 327.55C127.897 328.16 128.067 328.865 128.067 329.665ZM126.282 329.125C126.272 328.495 126.047 327.99 125.607 327.61C125.167 327.23 124.622 327.04 123.972 327.04C123.382 327.04 122.877 327.23 122.457 327.61C122.037 327.98 121.787 328.485 121.707 329.125H126.282ZM140.85 325.735L138.285 334H136.485L134.82 327.895L133.155 334H131.355L128.775 325.735H130.515L132.24 332.38L133.995 325.735H135.78L137.46 332.35L139.17 325.735H140.85Z" fill="#DAEF8B"/>
</g>
<g filter="url(#filter1_d_4866_3561)">
<rect x="227.332" y="303" width="154" height="52" rx="5" fill="#212429" shape-rendering="crispEdges"/>
<path d="M265.522 332.62H269.047V334H263.812V323.575H265.522V332.62ZM278.052 329.665C278.052 329.975 278.032 330.255 277.992 330.505H271.677C271.727 331.165 271.972 331.695 272.412 332.095C272.852 332.495 273.392 332.695 274.032 332.695C274.952 332.695 275.602 332.31 275.982 331.54H277.827C277.577 332.3 277.122 332.925 276.462 333.415C275.812 333.895 275.002 334.135 274.032 334.135C273.242 334.135 272.532 333.96 271.902 333.61C271.282 333.25 270.792 332.75 270.432 332.11C270.082 331.46 269.907 330.71 269.907 329.86C269.907 329.01 270.077 328.265 270.417 327.625C270.767 326.975 271.252 326.475 271.872 326.125C272.502 325.775 273.222 325.6 274.032 325.6C274.812 325.6 275.507 325.77 276.117 326.11C276.727 326.45 277.202 326.93 277.542 327.55C277.882 328.16 278.052 328.865 278.052 329.665ZM276.267 329.125C276.257 328.495 276.032 327.99 275.592 327.61C275.152 327.23 274.607 327.04 273.957 327.04C273.367 327.04 272.862 327.23 272.442 327.61C272.022 327.98 271.772 328.485 271.692 329.125H276.267ZM279.164 329.83C279.164 329 279.334 328.265 279.674 327.625C280.024 326.985 280.494 326.49 281.084 326.14C281.684 325.78 282.344 325.6 283.064 325.6C283.714 325.6 284.279 325.73 284.759 325.99C285.249 326.24 285.639 326.555 285.929 326.935V325.735H287.654V334H285.929V332.77C285.639 333.16 285.244 333.485 284.744 333.745C284.244 334.005 283.674 334.135 283.034 334.135C282.324 334.135 281.674 333.955 281.084 333.595C280.494 333.225 280.024 332.715 279.674 332.065C279.334 331.405 279.164 330.66 279.164 329.83ZM285.929 329.86C285.929 329.29 285.809 328.795 285.569 328.375C285.339 327.955 285.034 327.635 284.654 327.415C284.274 327.195 283.864 327.085 283.424 327.085C282.984 327.085 282.574 327.195 282.194 327.415C281.814 327.625 281.504 327.94 281.264 328.36C281.034 328.77 280.919 329.26 280.919 329.83C280.919 330.4 281.034 330.9 281.264 331.33C281.504 331.76 281.814 332.09 282.194 332.32C282.584 332.54 282.994 332.65 283.424 332.65C283.864 332.65 284.274 332.54 284.654 332.32C285.034 332.1 285.339 331.78 285.569 331.36C285.809 330.93 285.929 330.43 285.929 329.86ZM291.61 326.935C291.86 326.515 292.19 326.19 292.6 325.96C293.02 325.72 293.515 325.6 294.085 325.6V327.37H293.65C292.98 327.37 292.47 327.54 292.12 327.88C291.78 328.22 291.61 328.81 291.61 329.65V334H289.9V325.735H291.61V326.935ZM299.827 325.6C300.477 325.6 301.057 325.735 301.567 326.005C302.087 326.275 302.492 326.675 302.782 327.205C303.072 327.735 303.217 328.375 303.217 329.125V334H301.522V329.38C301.522 328.64 301.337 328.075 300.967 327.685C300.597 327.285 300.092 327.085 299.452 327.085C298.812 327.085 298.302 327.285 297.922 327.685C297.552 328.075 297.367 328.64 297.367 329.38V334H295.657V325.735H297.367V326.68C297.647 326.34 298.002 326.075 298.432 325.885C298.872 325.695 299.337 325.6 299.827 325.6ZM320.275 323.575V334H318.565V326.86L315.385 334H314.2L311.005 326.86V334H309.295V323.575H311.14L314.8 331.75L318.445 323.575H320.275ZM326.107 334.135C325.327 334.135 324.622 333.96 323.992 333.61C323.362 333.25 322.867 332.75 322.507 332.11C322.147 331.46 321.967 330.71 321.967 329.86C321.967 329.02 322.152 328.275 322.522 327.625C322.892 326.975 323.397 326.475 324.037 326.125C324.677 325.775 325.392 325.6 326.182 325.6C326.972 325.6 327.687 325.775 328.327 326.125C328.967 326.475 329.472 326.975 329.842 327.625C330.212 328.275 330.397 329.02 330.397 329.86C330.397 330.7 330.207 331.445 329.827 332.095C329.447 332.745 328.927 333.25 328.267 333.61C327.617 333.96 326.897 334.135 326.107 334.135ZM326.107 332.65C326.547 332.65 326.957 332.545 327.337 332.335C327.727 332.125 328.042 331.81 328.282 331.39C328.522 330.97 328.642 330.46 328.642 329.86C328.642 329.26 328.527 328.755 328.297 328.345C328.067 327.925 327.762 327.61 327.382 327.4C327.002 327.19 326.592 327.085 326.152 327.085C325.712 327.085 325.302 327.19 324.922 327.4C324.552 327.61 324.257 327.925 324.037 328.345C323.817 328.755 323.707 329.26 323.707 329.86C323.707 330.75 323.932 331.44 324.382 331.93C324.842 332.41 325.417 332.65 326.107 332.65ZM333.798 326.935C334.048 326.515 334.378 326.19 334.788 325.96C335.208 325.72 335.703 325.6 336.273 325.6V327.37H335.838C335.168 327.37 334.658 327.54 334.308 327.88C333.968 328.22 333.798 328.81 333.798 329.65V334H332.088V325.735H333.798V326.935ZM345.42 329.665C345.42 329.975 345.4 330.255 345.36 330.505H339.045C339.095 331.165 339.34 331.695 339.78 332.095C340.22 332.495 340.76 332.695 341.4 332.695C342.32 332.695 342.97 332.31 343.35 331.54H345.195C344.945 332.3 344.49 332.925 343.83 333.415C343.18 333.895 342.37 334.135 341.4 334.135C340.61 334.135 339.9 333.96 339.27 333.61C338.65 333.25 338.16 332.75 337.8 332.11C337.45 331.46 337.275 330.71 337.275 329.86C337.275 329.01 337.445 328.265 337.785 327.625C338.135 326.975 338.62 326.475 339.24 326.125C339.87 325.775 340.59 325.6 341.4 325.6C342.18 325.6 342.875 325.77 343.485 326.11C344.095 326.45 344.57 326.93 344.91 327.55C345.25 328.16 345.42 328.865 345.42 329.665ZM343.635 329.125C343.625 328.495 343.4 327.99 342.96 327.61C342.52 327.23 341.975 327.04 341.325 327.04C340.735 327.04 340.23 327.23 339.81 327.61C339.39 327.98 339.14 328.485 339.06 329.125H343.635Z" fill="#DAEF8B"/>
</g>
<path d="M368.704 78.1517C368.704 82.5776 365.129 86.1667 360.721 86.1667C356.312 86.1667 352.737 82.5776 352.737 78.1517C352.737 75.7176 353.818 73.5381 355.523 72.0744C354.695 72.8317 354.173 73.9263 354.173 75.1385C354.173 77.4231 356.02 79.2749 358.296 79.2749C360.572 79.2749 362.416 77.4231 362.416 75.1385C362.416 72.854 360.572 70.999 358.296 70.999C358.188 70.999 358.08 71.0022 357.976 71.0117C357.868 71.0213 357.763 71.0308 357.659 71.0499C357.583 71.0594 357.507 71.0754 357.434 71.0913C357.418 71.0944 357.405 71.0976 357.393 71.1008C357.348 71.1104 357.307 71.1199 357.266 71.1294C357.174 71.1549 357.085 71.1804 357 71.209C356.93 71.2313 356.86 71.2567 356.79 71.2854C356.711 71.3172 356.632 71.349 356.556 71.3872C356.515 71.4031 356.474 71.4254 356.435 71.4444C356.359 71.4826 356.287 71.524 356.217 71.5654C356.131 71.6163 356.049 71.6672 355.966 71.7244C357.298 70.7285 358.936 70.1367 360.721 70.1367C365.129 70.1367 368.704 73.7258 368.704 78.1517Z" fill="#212429"/>
<path d="M390.453 71.1716C390.453 75.5674 388.417 79.5304 385.252 82.2446C382.538 84.5802 378.92 86.0455 374.964 86.0455C377.96 86.0455 380.39 83.6583 380.39 80.7794C380.39 79.26 379.711 77.903 378.638 76.9244C378.526 76.8163 378.413 76.7081 378.241 76.5974L361.789 63.3536L356.476 59.0661L356.701 58.9038C356.645 58.9038 356.645 58.8498 356.645 58.8498L356.476 59.0661L354.893 57.8171C354.384 57.436 353.933 57.0575 353.48 56.6223C350.484 53.9622 348.617 50.1099 348.617 45.8197C348.617 41.5296 350.597 37.4609 353.818 34.7468C356.532 32.4112 360.15 31 364.107 31C361.111 31 358.622 33.3356 358.622 36.212C358.622 37.7313 359.3 39.0884 360.429 40.0669C360.542 40.1751 360.655 40.2833 360.77 40.394L367.837 46.0927L384.177 59.1742C384.63 59.5553 385.137 59.9339 385.59 60.3691C388.586 63.0832 390.453 66.8815 390.453 71.1716Z" fill="#212429"/>
<defs>
<filter id="filter0_d_4866_3561" x="21" y="288" width="204" height="102" filterUnits="userSpaceOnUse" color-interpolation-filters="sRGB">
<feFlood flood-opacity="0" result="BackgroundImageFix"/>
<feColorMatrix in="SourceAlpha" type="matrix" values="0 0 0 0 0 0 0 0 0 0 0 0 0 0 0 0 0 0 127 0" result="hardAlpha"/>
<feOffset dy="10"/>
<feGaussianBlur stdDeviation="12.5"/>
<feComposite in2="hardAlpha" operator="out"/>
<feColorMatrix type="matrix" values="0 0 0 0 0 0 0 0 0 0 0 0 0 0 0 0 0 0 0.1 0"/>
<feBlend mode="normal" in2="BackgroundImageFix" result="effect1_dropShadow_4866_3561"/>
<feBlend mode="normal" in="SourceGraphic" in2="effect1_dropShadow_4866_3561" result="shape"/>
</filter>
<filter id="filter1_d_4866_3561" x="202.332" y="288" width="204" height="102" filterUnits="userSpaceOnUse" color-interpolation-filters="sRGB">
<feFlood flood-opacity="0" result="BackgroundImageFix"/>
<feColorMatrix in="SourceAlpha" type="matrix" values="0 0 0 0 0 0 0 0 0 0 0 0 0 0 0 0 0 0 127 0" result="hardAlpha"/>
<feOffset dy="10"/>
<feGaussianBlur stdDeviation="12.5"/>
<feComposite in2="hardAlpha" operator="out"/>
<feColorMatrix type="matrix" values="0 0 0 0 0 0 0 0 0 0 0 0 0 0 0 0 0 0 0.1 0"/>
<feBlend mode="normal" in2="BackgroundImageFix" result="effect1_dropShadow_4866_3561"/>
<feBlend mode="normal" in="SourceGraphic" in2="effect1_dropShadow_4866_3561" result="shape"/>
</filter>
<linearGradient id="paint0_linear_4866_3561" x1="0" y1="0" x2="71.9763" y2="445.975" gradientUnits="userSpaceOnUse">
<stop stop-color="#B4A4FE"/>
<stop offset="1" stop-color="#E2FF70"/>
</linearGradient>
</defs>
</svg>
