<svg width="279" height="242" viewBox="0 0 279 242" fill="none" xmlns="http://www.w3.org/2000/svg">
<path d="M139.698 201.044C139.698 218.466 125.571 232.593 108.149 232.593C90.7275 232.593 76.5999 218.466 76.5999 201.044C76.5999 191.463 80.8707 182.883 87.6089 177.122C84.34 180.103 82.2735 184.411 82.2735 189.183C82.2735 198.176 89.5752 205.465 98.5678 205.465C107.56 205.465 114.85 198.176 114.85 189.183C114.85 180.191 107.56 172.889 98.5678 172.889C98.142 172.889 97.7162 172.901 97.3029 172.939C96.877 172.977 96.4637 173.014 96.0504 173.089C95.7498 173.127 95.4492 173.189 95.1612 173.252C95.0985 173.265 95.0484 173.277 94.9983 173.29C94.823 173.327 94.6602 173.365 94.4974 173.402C94.1342 173.503 93.7835 173.603 93.4453 173.716C93.1698 173.803 92.8942 173.903 92.6187 174.016C92.3056 174.141 91.9925 174.267 91.6919 174.417C91.5291 174.479 91.3662 174.567 91.2159 174.642C90.9154 174.793 90.6273 174.955 90.3518 175.118C90.0136 175.319 89.688 175.519 89.3623 175.744C94.6226 171.824 101.098 169.495 108.149 169.495C125.571 169.495 139.698 183.622 139.698 201.044Z" fill="#B2B2B2"/>
<path d="M225.643 173.57C225.643 190.873 217.598 206.472 205.091 217.156C194.365 226.35 180.067 232.117 164.434 232.117C176.273 232.117 185.875 222.721 185.875 211.388C185.875 205.408 183.194 200.066 178.954 196.214C178.509 195.789 178.064 195.363 177.386 194.927L112.371 142.796L91.3747 125.919L92.265 125.28C92.0424 125.28 92.0424 125.068 92.0424 125.068L91.3747 125.919L85.1213 121.003C83.1075 119.503 81.3268 118.013 79.5356 116.3C67.6965 105.829 60.3196 90.6649 60.3196 73.7778C60.3196 56.8907 68.1417 40.8754 80.8711 30.1917C91.5973 20.9981 105.895 15.4434 121.529 15.4434C109.69 15.4434 99.8539 24.637 99.8539 35.9593C99.8539 41.9397 102.535 47.2815 106.998 51.1333C107.443 51.5591 107.888 51.9848 108.344 52.4206L136.272 74.8523L200.841 126.345C202.633 127.845 204.636 129.335 206.427 131.048C218.266 141.732 225.643 156.683 225.643 173.57Z" fill="#B2B2B2"/>
<rect x="91.8588" y="40.2285" width="40.1655" height="188.308" rx="20.0827" transform="rotate(-51.5 91.8588 40.2285)" stroke="#212429" stroke-width="0.5" stroke-dasharray="2 2"/>
<rect x="0.595177" y="53.1585" width="66.8292" height="301.645" rx="33.4146" transform="rotate(-51.5 0.595177 53.1585)" stroke="#212429" stroke-width="0.5" stroke-dasharray="2 2"/>
<rect x="20.4282" y="123.027" width="42.4637" height="188.308" rx="21.2319" transform="rotate(-51.5 20.4282 123.027)" stroke="#212429" stroke-width="0.5" stroke-dasharray="2 2"/>
<circle cx="120.82" cy="35.9434" r="20.25" stroke="#212429" stroke-width="0.5" stroke-dasharray="2 2"/>
<circle cx="165.32" cy="211.443" r="19.75" stroke="#212429" stroke-width="0.5" stroke-dasharray="2 2"/>
<circle cx="98.8196" cy="188.943" r="16.25" stroke="#212429" stroke-width="0.5" stroke-dasharray="2 2"/>
<circle cx="107.82" cy="200.943" r="31.25" stroke="#212429" stroke-width="0.5" stroke-dasharray="2 2"/>
</svg>
